<svg width="172" height="131" viewBox="0 0 172 131" fill="none" xmlns="http://www.w3.org/2000/svg">
<path opacity="0.6" d="M25.1104 116.497C-8.37012 97.1675 -8.37012 65.8274 25.1104 46.4975C58.5908 27.1675 112.873 27.1675 146.354 46.4975C179.834 65.8274 179.834 97.1675 146.354 116.497C112.873 135.827 58.5908 135.827 25.1104 116.497Z" fill="#FF8282"/>
<g filter="url(#filter0_d_685_1639)">
<path d="M138.084 58.711L127.743 52.778L132.913 49.6865L138.12 52.7985L138.084 58.711Z" fill="#464061"/>
<path d="M86.3785 88.4156L75.9165 82.4826L81.086 79.3911L86.293 82.5026L86.3785 88.4156Z" fill="#464061"/>
<path d="M82.9953 86.3525L78.2073 83.5615C78.2033 83.559 78.1989 83.5565 78.1949 83.554L78.1368 83.52L78.1383 83.525C77.0548 82.91 75.6758 82.812 74.4308 83.4945C70.6488 85.5665 68.2979 89.5355 68.2979 93.848V94.407C68.2979 95.839 69.0563 96.9995 70.1223 97.6505L70.1109 97.655L75.1129 100.555L74.8049 97.186C78.0769 95.002 80.0699 91.3375 80.0699 87.383V87.0255L82.9953 86.3525Z" fill="#2A264B"/>
<path d="M73.333 96.7741V97.3331C73.333 100.309 76.5925 102.135 79.1305 100.582L79.463 100.378C82.968 98.2326 85.1055 94.4186 85.1055 90.3091V89.7606C85.1055 86.8661 82.005 85.0296 79.4665 86.4201C75.6845 88.4926 73.333 92.4616 73.333 96.7741Z" fill="#464061"/>
<path d="M75.8457 95.3965V95.717C75.8457 97.422 77.7137 98.469 79.1677 97.5785L79.3582 97.462C81.3667 96.2325 82.5917 94.047 82.5917 91.692V91.3775C82.5917 89.719 80.8147 88.6665 79.3602 89.4635C77.1932 90.6505 75.8457 92.925 75.8457 95.3965Z" fill="white"/>
<path d="M77.5026 100.046C75.6496 100.046 74.1426 98.5394 74.1426 96.6879V96.2238C74.1426 92.5753 76.1301 89.2188 79.3311 87.4653C79.8361 87.1888 80.3766 87.0483 80.9381 87.0483C82.7896 87.0483 84.2956 88.5548 84.2956 90.4058V90.8608C84.2956 94.3123 82.4661 97.5768 79.5226 99.3783L79.2466 99.5473C78.7141 99.8733 78.1111 100.046 77.5026 100.046ZM80.9381 87.4368C80.4421 87.4368 79.9646 87.5613 79.5176 87.8058C76.4421 89.4908 74.5306 92.7168 74.5306 96.2238V96.6879C74.5306 98.3254 75.8631 99.6574 77.5026 99.6579C78.0391 99.6579 78.5721 99.5048 79.0436 99.2168L79.3196 99.0479C82.1496 97.3154 83.9076 94.1783 83.9076 90.8608V90.4058C83.9076 88.7688 82.5756 87.4368 80.9381 87.4368Z" fill="#DAD7D2"/>
<path d="M77.3862 94.5522V94.7262C77.3862 95.6527 78.4012 96.2212 79.1912 95.7377L79.2947 95.6742C80.3857 95.0062 81.0512 93.8187 81.0512 92.5392V92.3682C81.0512 91.4672 80.0857 90.8952 79.2957 91.3282C78.1182 91.9737 77.3862 93.2092 77.3862 94.5522Z" fill="#464061"/>
<path d="M134.701 56.6484L129.913 53.8574C129.909 53.8549 129.905 53.8524 129.901 53.8499L129.843 53.8159L129.844 53.8209C128.761 53.2059 127.382 53.1079 126.137 53.7904C122.355 55.8624 120.004 59.8314 120.004 64.1439V64.7029C120.004 66.1349 120.762 67.2959 121.828 67.9469L121.817 67.9514L126.819 70.8514L126.511 67.4824C129.783 65.2989 131.776 61.6339 131.776 57.6794V57.3219L134.701 56.6484Z" fill="#2A264B"/>
<path d="M125.039 67.0695V67.6285C125.039 70.604 128.299 72.4305 130.837 70.877L131.169 70.6735C134.674 68.528 136.812 64.714 136.812 60.6045V60.056C136.812 57.1615 133.711 55.325 131.173 56.7155C127.391 58.788 125.039 62.7575 125.039 67.0695Z" fill="#464061"/>
<path d="M127.552 65.6919V66.0124C127.552 67.7174 129.42 68.7644 130.874 67.8739L131.064 67.7574C133.073 66.5279 134.298 64.3424 134.298 61.9874V61.6729C134.298 60.0144 132.521 58.9619 131.066 59.7589C128.899 60.9459 127.552 63.2209 127.552 65.6919Z" fill="white"/>
<path d="M129.209 70.3413C127.357 70.3413 125.849 68.8343 125.849 66.9828V66.5188C125.849 62.8703 127.837 59.5138 131.037 57.7603C131.542 57.4838 132.083 57.3433 132.645 57.3433C134.496 57.3433 136.002 58.8498 136.002 60.7018V61.1568C136.002 64.6083 134.173 67.8723 131.23 69.6743L130.953 69.8433C130.42 70.1683 129.818 70.3413 129.209 70.3413ZM132.645 57.7318C132.149 57.7318 131.671 57.8563 131.223 58.1018C128.148 59.7863 126.237 63.0118 126.237 66.5188V66.9828C126.237 68.6203 127.57 69.9528 129.208 69.9528C129.745 69.9528 130.278 69.7998 130.75 69.5118L131.026 69.3428C133.856 67.6113 135.613 64.4743 135.613 61.1568V60.7018C135.613 59.0648 134.281 57.7318 132.645 57.7318Z" fill="#DAD7D2"/>
<path d="M129.093 64.8476V65.0216C129.093 65.9481 130.108 66.5166 130.898 66.0331L131.001 65.9696C132.092 65.3016 132.758 64.1141 132.758 62.8346V62.6641C132.758 61.7631 131.792 61.1911 131.002 61.6241C129.825 62.2691 129.093 63.5051 129.093 64.8476Z" fill="#464061"/>
<path d="M29.502 82.3246V37.8516L60.5254 55.7631V100.237L29.502 82.3246Z" fill="#FAFAFA"/>
<path d="M55.3545 97.445C55.321 97.445 55.288 97.4365 55.2575 97.4195L34.576 85.478C34.516 85.443 34.479 85.3785 34.479 85.3095V46.807C34.479 46.738 34.516 46.6736 34.576 46.6386C34.636 46.6036 34.71 46.6036 34.77 46.6386L55.4515 58.5795C55.5115 58.6145 55.5485 58.6791 55.5485 58.7481V97.251C55.5485 97.32 55.5115 97.3845 55.4515 97.4195C55.421 97.437 55.388 97.445 55.3545 97.445ZM34.867 85.1975L55.1605 96.9155V58.8606L34.867 47.1435V85.1975Z" fill="#DAD7D2"/>
<path d="M45.0138 91.4735C44.9068 91.4735 44.8198 91.3865 44.8198 91.2795V52.778C44.8198 52.671 44.9068 52.584 45.0138 52.584C45.1208 52.584 45.2078 52.671 45.2078 52.778V91.2795C45.2078 91.3865 45.1208 91.4735 45.0138 91.4735Z" fill="#DAD7D2"/>
<path d="M37.002 62.4777V52.1867C37.002 51.5892 37.649 51.2157 38.1665 51.5142L41.909 53.6752C42.3895 53.9527 42.685 54.4652 42.685 55.0197V65.3107C42.685 65.9082 42.038 66.2817 41.5205 65.9832L37.778 63.8222C37.298 63.5447 37.002 63.0322 37.002 62.4777Z" fill="#4A93DC"/>
<path d="M47.3423 68.4477V58.1567C47.3423 57.5592 47.9893 57.1857 48.5068 57.4847L52.2483 59.6452C52.7283 59.9227 53.0243 60.4352 53.0243 60.9897L53.0258 71.2817C53.0258 71.8792 52.3788 72.2527 51.8613 71.9542L48.1183 69.7927C47.6383 69.5147 47.3423 69.0022 47.3423 68.4477Z" fill="#4A93DC"/>
<path d="M41.9066 65.6999C41.8401 65.6999 41.7746 65.6819 41.7141 65.6469L37.9721 63.4864C37.6126 63.2789 37.3901 62.8919 37.3901 62.4774V52.1864C37.3901 51.9459 37.5926 51.7969 37.7796 51.7969C37.8461 51.7969 37.9116 51.8149 37.9721 51.8499L41.7141 54.0104C42.0736 54.2179 42.2961 54.6049 42.2961 55.0194V65.3104C42.2966 65.5504 42.0941 65.6999 41.9066 65.6999Z" fill="#74C6F6"/>
<path d="M52.2485 71.6706C52.182 71.6706 52.1165 71.6526 52.056 71.6176L48.313 69.4561C47.9535 69.2486 47.731 68.8616 47.731 68.4471V58.1561C47.731 57.9156 47.9324 57.7671 48.1199 57.7671C48.1864 57.7671 48.252 57.7851 48.3135 57.8201L52.0554 59.9806C52.4139 60.1881 52.637 60.5751 52.6375 60.9896L52.638 71.2806C52.638 71.5216 52.4355 71.6706 52.2485 71.6706Z" fill="#74C6F6"/>
<path d="M42.6831 72.4126C42.6171 72.4126 42.5506 72.3961 42.4891 72.3601L39.6486 70.7196C39.4631 70.6126 39.3991 70.3756 39.5071 70.1896C39.6141 70.0041 39.8521 69.9401 40.0371 70.0481L42.8776 71.6886C43.0631 71.7956 43.1271 72.0326 43.0196 72.2186C42.9476 72.3431 42.8166 72.4126 42.6831 72.4126Z" fill="#DAD7D2"/>
<path d="M31.0542 81.4287L31.0537 73.0732L33.1202 74.2657V82.6207L31.0542 81.4287Z" fill="#DA5A25"/>
<path d="M56.9077 96.355L56.9072 88L58.9737 89.1925V97.5475L56.9077 96.355Z" fill="#DA5A25"/>
<path d="M58.4603 104.534V101.428L27.4883 83.5474V86.6524L58.4603 104.534Z" fill="#2A264B"/>
<path d="M58.4603 101.429L60.5253 100.237L29.5018 82.3247L27.4883 83.5477L58.4603 101.429Z" fill="#464061"/>
<path d="M122.573 25.884L91.548 8L81.208 13.97L112.231 31.8545" fill="white"/>
<path d="M60.5255 55.7631V100.237L58.46 101.429V104.534L60.5255 103.342L70.8699 97.3691C70.9144 92.0441 73.769 87.1346 78.386 84.4691L78.8665 84.1916C82.1734 82.2821 86.2925 84.6271 86.378 88.4156L112.231 73.4896V25.9111L60.5255 55.7631Z" fill="#F3F3F1"/>
<path d="M94.6558 12.4777L96.7252 11.2837L114.324 21.4287L112.234 22.6267L94.6558 12.4777Z" fill="#F0B128"/>
<path d="M102.736 16.1564L103.105 15.9434L106.244 17.7524L105.871 17.9664L102.736 16.1564Z" fill="white"/>
<path d="M94.6558 12.4775V13.971L112.234 24.1195V22.6265L94.6558 12.4775Z" fill="#F19628"/>
<path d="M134.979 39.2838L122.573 25.8838L112.231 31.8538V73.4883L122.567 67.5573C122.608 62.2283 125.464 57.3143 130.084 54.6473L130.564 54.3698C133.906 52.4408 138.082 54.8518 138.083 58.7098L143.254 55.7618L143.254 42.7683C143.254 41.6478 142.456 40.6858 141.355 40.4793L134.979 39.2838Z" fill="#F3F3F1"/>
<path d="M143.255 42.7695C143.255 41.649 142.457 40.687 141.355 40.4805L139.244 40.0845L138.644 40.513L112.231 55.763L60.5259 85.7335L60.5424 91.576L143.255 43.8225L143.255 42.7695Z" fill="#B54719"/>
<path d="M132.982 40.4653L122.219 28.7778L114.56 33.1993V51.3628L132.982 40.4653Z" fill="#4A93DC"/>
<path d="M117.178 55.4039C117.045 55.4039 116.914 55.3349 116.842 55.2104C116.735 55.0249 116.798 54.7874 116.983 54.6799L119.8 53.0464C119.983 52.9389 120.222 53.0004 120.33 53.1874C120.438 53.3734 120.375 53.6104 120.189 53.7179L117.373 55.3514C117.312 55.3874 117.245 55.4039 117.178 55.4039Z" fill="#DAD7D2"/>
<path d="M113.395 71.673C113.362 71.673 113.328 71.6645 113.298 71.6475C113.238 71.6125 113.201 71.548 113.201 71.479V32.527C113.201 32.4575 113.238 32.3935 113.298 32.359L122.253 27.1895C122.33 27.1435 122.43 27.159 122.492 27.2255L134.528 40.2255C134.561 40.2615 134.579 40.3085 134.579 40.3575V52.6875C134.579 52.7465 134.553 52.802 134.506 52.839C134.461 52.8745 134.401 52.889 134.343 52.877C133.861 52.771 133.454 52.7215 133.063 52.7215C132.027 52.7215 130.995 53.001 130.079 53.531L129.598 53.8085C124.944 56.495 121.885 61.5045 121.616 66.8825C121.612 66.9485 121.576 67.0085 121.518 67.041L113.491 71.647C113.462 71.6645 113.429 71.673 113.395 71.673ZM113.589 32.639V71.1435L121.235 66.7565C121.544 61.289 124.667 56.206 129.405 53.4715L129.885 53.194C130.861 52.631 131.959 52.333 133.063 52.333C133.417 52.333 133.78 52.37 134.191 52.449V40.4335L122.313 27.603L113.589 32.639Z" fill="#DAD7D2"/>
<path d="M139.75 49.0409C139.606 49.0409 139.467 48.9599 139.399 48.8209C139.307 48.6274 139.388 48.3954 139.581 48.3024L140.5 47.8614C140.694 47.7714 140.926 47.8499 141.019 48.0434C141.111 48.2369 141.03 48.4689 140.837 48.5619L139.918 49.0029C139.864 49.0289 139.807 49.0409 139.75 49.0409Z" fill="#F19628"/>
<path d="M141.846 51.3835L144.355 50.0415V56.013L141.847 57.46L141.846 51.3835Z" fill="#2A264B"/>
<path d="M86.1373 46.9458L65.6953 58.7483L65.6958 76.6593L86.1373 64.8568V46.9458Z" fill="#4A93DC"/>
<path d="M66.4712 59.197L85.3607 48.2905V64.409L66.4722 75.315L66.4712 59.197Z" fill="#74C6F6"/>
<path d="M107.061 40.8371L101.89 43.8221V37.8516L96.7183 40.8361V46.8076L91.5483 49.7921V55.8681L96.7188 52.9311L96.7193 58.7481L101.89 55.7631V49.9936L107.061 47.0561V40.8371Z" fill="#B54719"/>
<path d="M60.5254 55.7631L112.231 25.9106V28.0661L60.5254 57.9181V55.7631Z" fill="#B54719"/>
<path d="M143.255 43.6787L143.1 43.8217C141.874 44.5742 141.697 46.2857 142.743 47.2737L143.255 47.7577V43.6787Z" fill="#F19628"/>
<path d="M114.324 21.4287V22.9217L112.234 24.1197V22.6267L114.324 21.4287Z" fill="#F19628"/>
<path d="M101.882 16.6496L105.013 18.4576L107.098 17.2631L103.957 15.4526L101.882 16.6496Z" fill="#DA5A25"/>
<path d="M101.882 18.1424L105.013 19.9509V18.4574L101.882 16.6494V18.1424Z" fill="#B54719"/>
<path d="M29.502 37.8515L81.2084 8L112.231 25.9105L60.5254 55.763L29.502 37.8515Z" fill="#FAFAFA"/>
<path d="M29.502 37.8516L60.5254 55.7631V57.9181L29.502 40.0071V37.8516Z" fill="#DA5A25"/>
<path d="M33.9004 40.3911L34.6764 40.8391L86.3814 10.9866L85.6059 10.5386L33.9004 40.3911Z" fill="#F3F3F1"/>
<path d="M91.7432 14.0823L90.9677 13.6348L39.2637 43.4878L40.0392 43.9358L91.7432 14.0823Z" fill="#F3F3F1"/>
<path d="M97.1065 17.1785L96.3305 16.7305L44.6255 46.583L45.401 47.031L97.1065 17.1785Z" fill="#F3F3F1"/>
<path d="M107.833 23.3708L107.057 22.9233L55.3511 52.7748L56.1266 53.2228L107.833 23.3708Z" fill="#F3F3F1"/>
<path d="M102.458 20.2688L101.683 19.8208L49.9883 49.6798L50.7643 50.1273L102.458 20.2688Z" fill="#F3F3F1"/>
<path d="M60.5249 49.6866C60.5249 49.6866 61.0434 46.8066 63.1109 46.8066C65.1784 46.8066 65.1569 50.0416 65.1569 50.0416C65.1569 50.0416 63.4644 51.2786 60.5249 49.6866Z" fill="#F19628"/>
<path d="M63.1104 46.8071C61.0434 46.8071 60.5244 49.6871 60.5244 49.6871C61.0324 49.9621 61.5004 50.1481 61.9319 50.2751C61.9359 49.4281 62.2109 48.5826 62.7404 47.9206C63.0464 47.5381 63.4329 47.2241 63.8614 46.9866C63.6474 46.8761 63.4019 46.8071 63.1104 46.8071Z" fill="#F0B128"/>
<path d="M38.5391 37.3976C38.5391 37.3976 39.0576 34.5176 41.1251 34.5176C43.1921 34.5176 43.1711 37.7521 43.1711 37.7521C43.1711 37.7521 41.4786 38.9891 38.5391 37.3976Z" fill="#F19628"/>
<path d="M41.1246 34.5176C39.0576 34.5176 38.5386 37.3976 38.5386 37.3976C39.0466 37.6726 39.5146 37.8586 39.9461 37.9856C39.9506 37.1386 40.2251 36.2931 40.7546 35.6311C41.0606 35.2481 41.4471 34.9346 41.8756 34.6971C41.6616 34.5866 41.4161 34.5176 41.1246 34.5176Z" fill="#F0B128"/>
<path d="M132.372 40.375L122.738 29.915L126.794 43.6745L132.372 40.375Z" fill="#74C6F6"/>
<path d="M121.798 29.4688L114.948 33.4238V50.6823L126.105 44.0823L121.798 29.4688Z" fill="#74C6F6"/>
<path d="M58.4604 101.428V104.534L60.5255 103.341V100.236L58.4604 101.428Z" fill="#2A264B"/>
<path d="M66.4717 69.513L85.3607 50.624V48.2905L76.9387 53.1535L66.4712 63.6205L66.4717 69.513Z" fill="#A1D8F9"/>
<path d="M122.648 32.3525L114.948 40.052V45.945L123.989 36.9035L122.648 32.3525Z" fill="#A1D8F9"/>
<path d="M85.3607 55.5381L66.4717 74.4266L66.4722 75.3151L74.2142 70.8446L85.3607 59.6981V55.5381Z" fill="#A1D8F9"/>
<path d="M129.044 36.7622L125.733 40.0737L126.68 43.2872L131.039 38.9282L129.044 36.7622Z" fill="#A1D8F9"/>
<path d="M123.863 31.1367L123.272 31.7277L124.614 36.2787L126.688 34.2042L123.863 31.1367Z" fill="#A1D8F9"/>
<path d="M126.055 43.9122L125.108 40.6987L115.379 50.4277L125.564 44.4027L126.055 43.9122Z" fill="#A1D8F9"/>
<path d="M42.2961 55.019C42.2961 54.6045 42.0731 54.2175 41.7141 54.01L41.0822 53.645L37.3896 57.337V62.477C37.3896 62.644 37.4341 62.8025 37.5006 62.9505L42.2961 58.155V55.019Z" fill="#A1D8F9"/>
<path d="M52.6369 60.9898C52.6364 60.5753 52.4134 60.1883 52.0549 59.9808L49.6105 58.5693L47.731 60.4488V66.3413L52.6375 61.4348L52.6369 60.9898Z" fill="#A1D8F9"/>
</g>
<defs>
<filter id="filter0_d_685_1639" x="15.4883" y="0" width="140.866" height="120.534" filterUnits="userSpaceOnUse" color-interpolation-filters="sRGB">
<feFlood flood-opacity="0" result="BackgroundImageFix"/>
<feColorMatrix in="SourceAlpha" type="matrix" values="0 0 0 0 0 0 0 0 0 0 0 0 0 0 0 0 0 0 127 0" result="hardAlpha"/>
<feOffset dy="4"/>
<feGaussianBlur stdDeviation="6"/>
<feComposite in2="hardAlpha" operator="out"/>
<feColorMatrix type="matrix" values="0 0 0 0 0 0 0 0 0 0 0 0 0 0 0 0 0 0 0.4 0"/>
<feBlend mode="normal" in2="BackgroundImageFix" result="effect1_dropShadow_685_1639"/>
<feBlend mode="normal" in="SourceGraphic" in2="effect1_dropShadow_685_1639" result="shape"/>
</filter>
</defs>
</svg>
