<svg width="42" height="19" viewBox="0 0 42 19" fill="none" xmlns="http://www.w3.org/2000/svg">
<path d="M25.0061 0.95874L30.9157 0.95874C31.0902 0.95874 31.2574 1.02805 31.3808 1.15131L31.9571 1.72755L25.0061 1.72755L25.0061 0.95874Z" fill="#CCCCCC"/>
<path d="M25.1272 1.0791L25.1272 1.60704L31.6667 1.60704L31.2963 1.23645C31.1948 1.135 31.0599 1.0791 30.9165 1.0791L25.1272 1.0791Z" fill="url(#paint0_linear_506_13529)"/>
<path opacity="0.5" d="M25.0061 0.95874L30.9157 0.95874C31.0902 0.95874 31.2574 1.02805 31.3808 1.15131L31.9571 1.72755L25.0061 1.72755L25.0061 0.95874Z" fill="url(#paint1_linear_506_13529)"/>
<path opacity="0.4" d="M25.0061 0.95874L30.9157 0.95874C31.0902 0.95874 31.2574 1.02805 31.3808 1.15131L31.9571 1.72755L25.0061 1.72755L25.0061 0.95874Z" fill="url(#paint2_linear_506_13529)"/>
<mask id="mask0_506_13529" style="mask-type:luminance" maskUnits="userSpaceOnUse" x="25" y="1" width="7" height="1">
<path d="M25.1274 1.07983L25.1274 1.60777L31.667 1.60777L31.2965 1.23718C31.1951 1.13573 31.0602 1.07983 30.9167 1.07983L25.1274 1.07983Z" fill="white"/>
</mask>
<g mask="url(#mask0_506_13529)">
<path d="M25.1782 1.48694C25.2038 1.44122 25.2083 1.39502 25.2083 1.39502C25.2083 1.39502 25.1713 1.42297 25.1458 1.46868C25.1202 1.5144 25.1157 1.56061 25.1157 1.56061C25.1157 1.56061 25.1527 1.53266 25.1782 1.48694Z" fill="#999999"/>
<path d="M25.3865 1.12537C25.412 1.07965 25.4165 1.03345 25.4165 1.03345C25.4165 1.03345 25.3795 1.06139 25.354 1.10711C25.3285 1.15283 25.324 1.19903 25.324 1.19903C25.324 1.19903 25.361 1.17109 25.3865 1.12537Z" fill="#999999"/>
<path d="M25.2582 1.31252C25.3039 1.33804 25.3499 1.34257 25.3499 1.34257C25.3499 1.34257 25.322 1.30557 25.2762 1.28005C25.2305 1.25452 25.1843 1.25 25.1843 1.25C25.1843 1.25 25.2124 1.28699 25.2582 1.31252Z" fill="#999999"/>
<path d="M25.3859 1.53981C25.4316 1.56534 25.4778 1.56986 25.4778 1.56986C25.4778 1.56986 25.4499 1.53286 25.4042 1.50734C25.3585 1.48181 25.3123 1.47729 25.3123 1.47729C25.3123 1.47729 25.3402 1.51429 25.3859 1.53981Z" fill="#999999"/>
<path d="M25.5938 1.178C25.6396 1.20353 25.6856 1.20789 25.6856 1.20789C25.6856 1.20789 25.6577 1.17089 25.6119 1.14536C25.5662 1.11984 25.52 1.11548 25.52 1.11548C25.52 1.11548 25.5481 1.15248 25.5938 1.178Z" fill="#999999"/>
<path d="M25.4837 1.3327C25.4581 1.37842 25.4536 1.42462 25.4536 1.42462C25.4536 1.42462 25.4906 1.39667 25.5161 1.35095C25.5417 1.30524 25.5462 1.25903 25.5462 1.25903C25.5462 1.25903 25.5092 1.28698 25.4837 1.3327Z" fill="#999999"/>
<path d="M25.6653 1.60982C25.6908 1.56411 25.6952 1.51807 25.6952 1.51807C25.6952 1.51807 25.6582 1.54601 25.6327 1.59173C25.6071 1.63745 25.6028 1.68349 25.6028 1.68349C25.6028 1.68349 25.6398 1.65554 25.6653 1.60982Z" fill="#999999"/>
<path d="M25.8736 1.24817C25.8991 1.20245 25.9034 1.15625 25.9034 1.15625C25.9034 1.15625 25.8664 1.1842 25.8409 1.22991C25.8154 1.27563 25.811 1.32184 25.811 1.32184C25.811 1.32184 25.848 1.29389 25.8736 1.24817Z" fill="#999999"/>
<path d="M25.7451 1.43533C25.7909 1.46085 25.8371 1.46537 25.8371 1.46537C25.8371 1.46537 25.8091 1.42838 25.7634 1.40285C25.7177 1.37733 25.6716 1.3728 25.6716 1.3728C25.6716 1.3728 25.6994 1.4098 25.7451 1.43533Z" fill="#999999"/>
<path d="M25.8732 1.66205C25.9189 1.68757 25.9652 1.69193 25.9652 1.69193C25.9652 1.69193 25.9372 1.65493 25.8915 1.62941C25.8458 1.60388 25.7996 1.59937 25.7996 1.59937C25.7996 1.59937 25.8275 1.63652 25.8732 1.66205Z" fill="#999999"/>
<path d="M26.0813 1.30007C26.127 1.32559 26.1732 1.32995 26.1732 1.32995C26.1732 1.32995 26.1453 1.29296 26.0996 1.26743C26.0539 1.24191 26.0078 1.23755 26.0078 1.23755C26.0078 1.23755 26.0356 1.27454 26.0813 1.30007Z" fill="#999999"/>
<path d="M25.9713 1.45485C25.9458 1.50057 25.9414 1.54677 25.9414 1.54677C25.9414 1.54677 25.9784 1.51882 26.0039 1.47311C26.0294 1.42739 26.0338 1.38135 26.0338 1.38135C26.0338 1.38135 25.9968 1.40913 25.9713 1.45485Z" fill="#999999"/>
<path d="M26.157 1.1054C26.1315 1.15112 26.127 1.19732 26.127 1.19732C26.127 1.19732 26.164 1.16938 26.1895 1.12366C26.215 1.07794 26.2195 1.03174 26.2195 1.03174C26.2195 1.03174 26.1825 1.05969 26.157 1.1054Z" fill="#999999"/>
<path d="M26.1974 1.5735C26.2431 1.59903 26.2891 1.6034 26.2891 1.6034C26.2891 1.6034 26.2612 1.5664 26.2155 1.54087C26.1697 1.51535 26.1235 1.51099 26.1235 1.51099C26.1235 1.51099 26.1516 1.54798 26.1974 1.5735Z" fill="#999999"/>
<path d="M26.4055 1.21169C26.4512 1.23721 26.4974 1.24157 26.4974 1.24157C26.4974 1.24157 26.4694 1.20458 26.4237 1.17906C26.378 1.15353 26.3318 1.14917 26.3318 1.14917C26.3318 1.14917 26.3597 1.18616 26.4055 1.21169Z" fill="#999999"/>
<path d="M26.2953 1.36688C26.2697 1.4126 26.2654 1.4588 26.2654 1.4588C26.2654 1.4588 26.3024 1.43085 26.3279 1.38513C26.3534 1.33942 26.3578 1.29321 26.3578 1.29321C26.3578 1.29321 26.3208 1.32116 26.2953 1.36688Z" fill="#999999"/>
<path d="M26.4774 1.64319C26.5029 1.59747 26.5074 1.55127 26.5074 1.55127C26.5074 1.55127 26.4705 1.57922 26.4449 1.62493C26.4194 1.67065 26.415 1.71686 26.415 1.71686C26.415 1.71686 26.4519 1.68891 26.4774 1.64319Z" fill="#999999"/>
<path d="M26.6853 1.28137C26.7108 1.23566 26.7154 1.18945 26.7154 1.18945C26.7154 1.18945 26.6784 1.2174 26.6529 1.26312C26.6273 1.30884 26.6228 1.35504 26.6228 1.35504C26.6228 1.35504 26.6598 1.32709 26.6853 1.28137Z" fill="#999999"/>
<path d="M26.5573 1.46853C26.603 1.49405 26.6492 1.49857 26.6492 1.49857C26.6492 1.49857 26.6213 1.46158 26.5756 1.43605C26.5298 1.41053 26.4836 1.40601 26.4836 1.40601C26.4836 1.40601 26.5116 1.443 26.5573 1.46853Z" fill="#999999"/>
<path d="M26.8923 1.33327C26.938 1.35879 26.9842 1.36316 26.9842 1.36316C26.9842 1.36316 26.9562 1.32616 26.9105 1.30064C26.8648 1.27511 26.8186 1.27075 26.8186 1.27075C26.8186 1.27075 26.8466 1.30775 26.8923 1.33327Z" fill="#999999"/>
<path d="M26.7827 1.48797C26.7572 1.53369 26.7527 1.57989 26.7527 1.57989C26.7527 1.57989 26.7897 1.55195 26.8152 1.50623C26.8407 1.46051 26.8453 1.41431 26.8453 1.41431C26.8453 1.41431 26.8083 1.44225 26.7827 1.48797Z" fill="#999999"/>
<path d="M26.968 1.13934C26.9425 1.18506 26.938 1.23126 26.938 1.23126C26.938 1.23126 26.975 1.20331 27.0005 1.15759C27.026 1.11188 27.0304 1.06567 27.0304 1.06567C27.0304 1.06567 26.9936 1.09362 26.968 1.13934Z" fill="#999999"/>
<path d="M27.0121 1.5735C27.0579 1.59903 27.1041 1.6034 27.1041 1.6034C27.1041 1.6034 27.0761 1.5664 27.0304 1.54087C26.9847 1.51535 26.9385 1.51099 26.9385 1.51099C26.9385 1.51099 26.9664 1.54798 27.0121 1.5735Z" fill="#999999"/>
<path d="M27.2201 1.21169C27.2658 1.23721 27.3118 1.24157 27.3118 1.24157C27.3118 1.24157 27.2839 1.20458 27.2382 1.17906C27.1924 1.15353 27.1462 1.14917 27.1462 1.14917C27.1462 1.14917 27.1743 1.18616 27.2201 1.21169Z" fill="#999999"/>
<path d="M27.1105 1.36688C27.0849 1.4126 27.0806 1.4588 27.0806 1.4588C27.0806 1.4588 27.1176 1.43085 27.1431 1.38513C27.1686 1.33942 27.173 1.29321 27.173 1.29321C27.173 1.29321 27.136 1.32116 27.1105 1.36688Z" fill="#999999"/>
<path d="M27.2917 1.64343C27.3172 1.59772 27.3216 1.55151 27.3216 1.55151C27.3216 1.55151 27.2846 1.57946 27.2591 1.62518C27.2335 1.6709 27.229 1.7171 27.229 1.7171C27.229 1.7171 27.2662 1.68915 27.2917 1.64343Z" fill="#999999"/>
<path d="M27.5005 1.28137C27.526 1.23566 27.5306 1.18945 27.5306 1.18945C27.5306 1.18945 27.4936 1.2174 27.468 1.26312C27.4425 1.30884 27.438 1.35504 27.438 1.35504C27.438 1.35504 27.475 1.32709 27.5005 1.28137Z" fill="#999999"/>
<path d="M27.3723 1.46853C27.418 1.49405 27.4642 1.49857 27.4642 1.49857C27.4642 1.49857 27.4362 1.46158 27.3905 1.43605C27.3448 1.41053 27.2986 1.40601 27.2986 1.40601C27.2986 1.40601 27.3265 1.443 27.3723 1.46853Z" fill="#999999"/>
<path d="M27.7073 1.33376C27.753 1.35928 27.7992 1.36364 27.7992 1.36364C27.7992 1.36364 27.7713 1.32665 27.7255 1.30113C27.6798 1.2756 27.6338 1.27124 27.6338 1.27124C27.6338 1.27124 27.6616 1.30823 27.7073 1.33376Z" fill="#999999"/>
<path d="M27.5972 1.48822C27.5717 1.53393 27.5671 1.58014 27.5671 1.58014C27.5671 1.58014 27.6041 1.55219 27.6297 1.50647C27.6552 1.46075 27.6597 1.41455 27.6597 1.41455C27.6597 1.41455 27.6227 1.4425 27.5972 1.48822Z" fill="#999999"/>
<path d="M27.7831 1.13958C27.7575 1.1853 27.7532 1.2315 27.7532 1.2315C27.7532 1.2315 27.7902 1.20356 27.8157 1.15784C27.8412 1.11212 27.8456 1.06592 27.8456 1.06592C27.8456 1.06592 27.8086 1.09386 27.7831 1.13958Z" fill="#999999"/>
<path d="M27.8269 1.5735C27.8726 1.59903 27.9188 1.6034 27.9188 1.6034C27.9188 1.6034 27.8909 1.5664 27.8452 1.54087C27.7995 1.51535 27.7534 1.51099 27.7534 1.51099C27.7534 1.51099 27.7812 1.54798 27.8269 1.5735Z" fill="#999999"/>
<path d="M28.0351 1.21169C28.0808 1.23721 28.127 1.24157 28.127 1.24157C28.127 1.24157 28.0991 1.20458 28.0533 1.17906C28.0076 1.15353 27.9614 1.14917 27.9614 1.14917C27.9614 1.14917 27.9894 1.18616 28.0351 1.21169Z" fill="#999999"/>
<path d="M27.9251 1.36688C27.8995 1.4126 27.895 1.4588 27.895 1.4588C27.895 1.4588 27.932 1.43085 27.9575 1.38513C27.9831 1.33942 27.9874 1.29321 27.9874 1.29321C27.9874 1.29321 27.9506 1.32116 27.9251 1.36688Z" fill="#999999"/>
<path d="M28.1062 1.64319C28.1317 1.59747 28.1361 1.55127 28.1361 1.55127C28.1361 1.55127 28.0991 1.57922 28.0736 1.62493C28.0481 1.67065 28.0437 1.71686 28.0437 1.71686C28.0437 1.71686 28.0807 1.68891 28.1062 1.64319Z" fill="#999999"/>
<path d="M28.3141 1.28137C28.3397 1.23566 28.344 1.18945 28.344 1.18945C28.344 1.18945 28.307 1.2174 28.2815 1.26312C28.256 1.30884 28.2515 1.35504 28.2515 1.35504C28.2515 1.35504 28.2886 1.32709 28.3141 1.28137Z" fill="#999999"/>
<path d="M28.1861 1.46853C28.2319 1.49405 28.2779 1.49857 28.2779 1.49857C28.2779 1.49857 28.2499 1.46158 28.2042 1.43605C28.1585 1.41053 28.1123 1.40601 28.1123 1.40601C28.1123 1.40601 28.1404 1.443 28.1861 1.46853Z" fill="#999999"/>
<path d="M28.5219 1.33351C28.5676 1.35904 28.6138 1.3634 28.6138 1.3634C28.6138 1.3634 28.5859 1.32641 28.5402 1.30088C28.4944 1.27536 28.4482 1.271 28.4482 1.271C28.4482 1.271 28.4762 1.30799 28.5219 1.33351Z" fill="#999999"/>
<path d="M28.4112 1.48773C28.3856 1.53345 28.3811 1.57965 28.3811 1.57965C28.3811 1.57965 28.4181 1.5517 28.4436 1.50598C28.4691 1.46027 28.4737 1.41406 28.4737 1.41406C28.4737 1.41406 28.4367 1.44201 28.4112 1.48773Z" fill="#999999"/>
<path d="M28.5968 1.13934C28.5713 1.18506 28.5669 1.23126 28.5669 1.23126C28.5669 1.23126 28.6039 1.20331 28.6294 1.15759C28.6549 1.11188 28.6593 1.06567 28.6593 1.06567C28.6593 1.06567 28.6225 1.09362 28.5968 1.13934Z" fill="#999999"/>
<path d="M28.6406 1.57375C28.6863 1.59927 28.7325 1.60364 28.7325 1.60364C28.7325 1.60364 28.7045 1.56664 28.6588 1.54112C28.6131 1.51559 28.5669 1.51123 28.5669 1.51123C28.5669 1.51123 28.5948 1.54822 28.6406 1.57375Z" fill="#999999"/>
<path d="M28.8484 1.21193C28.8941 1.23746 28.9403 1.24182 28.9403 1.24182C28.9403 1.24182 28.9124 1.20482 28.8667 1.1793C28.8209 1.15378 28.7749 1.14941 28.7749 1.14941C28.7749 1.14941 28.8027 1.18641 28.8484 1.21193Z" fill="#999999"/>
<path d="M28.7388 1.36712C28.7133 1.41284 28.7087 1.45904 28.7087 1.45904C28.7087 1.45904 28.7457 1.4311 28.7713 1.38538C28.7968 1.33966 28.8011 1.29346 28.8011 1.29346C28.8011 1.29346 28.7643 1.3214 28.7388 1.36712Z" fill="#999999"/>
<path d="M28.9204 1.64343C28.946 1.59772 28.9503 1.55151 28.9503 1.55151C28.9503 1.55151 28.9133 1.57946 28.8878 1.62518C28.8623 1.6709 28.8579 1.7171 28.8579 1.7171C28.8579 1.7171 28.8949 1.68915 28.9204 1.64343Z" fill="#999999"/>
<path d="M29.1284 1.28162C29.154 1.2359 29.1583 1.1897 29.1583 1.1897C29.1583 1.1897 29.1213 1.21764 29.0958 1.26336C29.0703 1.30908 29.0659 1.35528 29.0659 1.35528C29.0659 1.35528 29.1029 1.32734 29.1284 1.28162Z" fill="#999999"/>
<path d="M29.0004 1.46877C29.0461 1.4943 29.0923 1.49882 29.0923 1.49882C29.0923 1.49882 29.0644 1.46182 29.0187 1.4363C28.973 1.41077 28.9268 1.40625 28.9268 1.40625C28.9268 1.40625 28.9547 1.44325 29.0004 1.46877Z" fill="#999999"/>
<path d="M29.3368 1.33376C29.3826 1.35928 29.4288 1.36364 29.4288 1.36364C29.4288 1.36364 29.4008 1.32665 29.3551 1.30113C29.3094 1.2756 29.2632 1.27124 29.2632 1.27124C29.2632 1.27124 29.2911 1.30823 29.3368 1.33376Z" fill="#999999"/>
<path d="M29.2257 1.48822C29.2002 1.53393 29.1958 1.58014 29.1958 1.58014C29.1958 1.58014 29.2328 1.55219 29.2583 1.50647C29.2838 1.46075 29.2882 1.41455 29.2882 1.41455C29.2882 1.41455 29.2512 1.4425 29.2257 1.48822Z" fill="#999999"/>
<path d="M29.4117 1.13958C29.3862 1.1853 29.3818 1.2315 29.3818 1.2315C29.3818 1.2315 29.4188 1.20356 29.4444 1.15784C29.4699 1.11212 29.4742 1.06592 29.4742 1.06592C29.4742 1.06592 29.4374 1.09386 29.4117 1.13958Z" fill="#999999"/>
<path d="M29.456 1.5735C29.5017 1.59903 29.5479 1.6034 29.5479 1.6034C29.5479 1.6034 29.52 1.5664 29.4742 1.54087C29.4285 1.51535 29.3823 1.51099 29.3823 1.51099C29.3823 1.51099 29.4103 1.54798 29.456 1.5735Z" fill="#999999"/>
<path d="M29.6642 1.21169C29.71 1.23721 29.7562 1.24157 29.7562 1.24157C29.7562 1.24157 29.7282 1.20458 29.6825 1.17906C29.6368 1.15353 29.5906 1.14917 29.5906 1.14917C29.5906 1.14917 29.6185 1.18616 29.6642 1.21169Z" fill="#999999"/>
<path d="M29.554 1.36688C29.5284 1.4126 29.5239 1.4588 29.5239 1.4588C29.5239 1.4588 29.5609 1.43085 29.5864 1.38513C29.612 1.33942 29.6165 1.29321 29.6165 1.29321C29.6165 1.29321 29.5795 1.32116 29.554 1.36688Z" fill="#999999"/>
<path d="M29.7355 1.64343C29.761 1.59772 29.7655 1.55151 29.7655 1.55151C29.7655 1.55151 29.7285 1.57946 29.703 1.62518C29.6775 1.6709 29.6731 1.7171 29.6731 1.7171C29.6731 1.7171 29.7099 1.68915 29.7355 1.64343Z" fill="#999999"/>
<path d="M29.9434 1.28162C29.9689 1.2359 29.9733 1.1897 29.9733 1.1897C29.9733 1.1897 29.9363 1.21764 29.9107 1.26336C29.8852 1.30908 29.8809 1.35528 29.8809 1.35528C29.8809 1.35528 29.9179 1.32734 29.9434 1.28162Z" fill="#999999"/>
<path d="M29.8152 1.46877C29.8609 1.4943 29.9071 1.49882 29.9071 1.49882C29.9071 1.49882 29.8792 1.46182 29.8335 1.4363C29.7877 1.41077 29.7417 1.40625 29.7417 1.40625C29.7417 1.40625 29.7695 1.44325 29.8152 1.46877Z" fill="#999999"/>
<path d="M30.1511 1.33376C30.1968 1.35928 30.243 1.36364 30.243 1.36364C30.243 1.36364 30.215 1.32665 30.1693 1.30113C30.1236 1.2756 30.0774 1.27124 30.0774 1.27124C30.0774 1.27124 30.1053 1.30823 30.1511 1.33376Z" fill="#999999"/>
<path d="M30.0414 1.48797C30.0158 1.53369 30.0115 1.57989 30.0115 1.57989C30.0115 1.57989 30.0485 1.55195 30.074 1.50623C30.0995 1.46051 30.104 1.41431 30.104 1.41431C30.104 1.41431 30.0669 1.44225 30.0414 1.48797Z" fill="#999999"/>
<path d="M30.2261 1.13958C30.2006 1.1853 30.196 1.2315 30.196 1.2315C30.196 1.2315 30.233 1.20356 30.2586 1.15784C30.2841 1.11212 30.2886 1.06592 30.2886 1.06592C30.2886 1.06592 30.2516 1.09386 30.2261 1.13958Z" fill="#999999"/>
<path d="M30.2704 1.5735C30.3161 1.59903 30.3621 1.6034 30.3621 1.6034C30.3621 1.6034 30.3342 1.5664 30.2885 1.54087C30.2427 1.51535 30.1965 1.51099 30.1965 1.51099C30.1965 1.51099 30.2246 1.54798 30.2704 1.5735Z" fill="#999999"/>
<path d="M30.4785 1.21169C30.5242 1.23721 30.5704 1.24157 30.5704 1.24157C30.5704 1.24157 30.5424 1.20458 30.4967 1.17906C30.451 1.15353 30.4048 1.14917 30.4048 1.14917C30.4048 1.14917 30.4329 1.18616 30.4785 1.21169Z" fill="#999999"/>
<path d="M30.3679 1.36663C30.3424 1.41235 30.3379 1.45855 30.3379 1.45855C30.3379 1.45855 30.3749 1.43061 30.4004 1.38489C30.4259 1.33917 30.4303 1.29297 30.4303 1.29297C30.4303 1.29297 30.3935 1.32092 30.3679 1.36663Z" fill="#999999"/>
<path d="M30.5495 1.64319C30.575 1.59747 30.5794 1.55127 30.5794 1.55127C30.5794 1.55127 30.5424 1.57922 30.5169 1.62493C30.4913 1.67065 30.4868 1.71686 30.4868 1.71686C30.4868 1.71686 30.524 1.68891 30.5495 1.64319Z" fill="#999999"/>
<path d="M30.7574 1.28137C30.783 1.23566 30.7875 1.18945 30.7875 1.18945C30.7875 1.18945 30.7505 1.2174 30.725 1.26312C30.6994 1.30884 30.6951 1.35504 30.6951 1.35504C30.6951 1.35504 30.7319 1.32709 30.7574 1.28137Z" fill="#999999"/>
<path d="M30.6295 1.46853C30.6752 1.49405 30.7213 1.49857 30.7213 1.49857C30.7213 1.49857 30.6933 1.46158 30.6476 1.43605C30.6019 1.41053 30.5557 1.40601 30.5557 1.40601C30.5557 1.40601 30.5838 1.443 30.6295 1.46853Z" fill="#999999"/>
<path d="M30.9645 1.33351C31.0102 1.35904 31.0562 1.3634 31.0562 1.3634C31.0562 1.3634 31.0283 1.32641 30.9825 1.30088C30.9368 1.27536 30.8906 1.271 30.8906 1.271C30.8906 1.271 30.9187 1.30799 30.9645 1.33351Z" fill="#999999"/>
<path d="M30.8551 1.48797C30.8296 1.53369 30.8252 1.57989 30.8252 1.57989C30.8252 1.57989 30.8622 1.55195 30.8877 1.50623C30.9132 1.46051 30.9176 1.41431 30.9176 1.41431C30.9176 1.41431 30.8806 1.44225 30.8551 1.48797Z" fill="#999999"/>
<path d="M31.0408 1.13934C31.0153 1.18506 31.0107 1.23126 31.0107 1.23126C31.0107 1.23126 31.0477 1.20331 31.0733 1.15759C31.0988 1.11188 31.1033 1.06567 31.1033 1.06567C31.1033 1.06567 31.0663 1.09362 31.0408 1.13934Z" fill="#999999"/>
<path d="M31.0844 1.57375C31.1301 1.59927 31.1763 1.60364 31.1763 1.60364C31.1763 1.60364 31.1484 1.56664 31.1027 1.54112C31.0569 1.51559 31.0107 1.51123 31.0107 1.51123C31.0107 1.51123 31.0387 1.54822 31.0844 1.57375Z" fill="#999999"/>
<path d="M31.2919 1.21169C31.3377 1.23721 31.3839 1.24157 31.3839 1.24157C31.3839 1.24157 31.3559 1.20458 31.3102 1.17906C31.2645 1.15353 31.2183 1.14917 31.2183 1.14917C31.2183 1.14917 31.2464 1.18616 31.2919 1.21169Z" fill="#999999"/>
<path d="M31.1825 1.36712C31.1569 1.41284 31.1526 1.45904 31.1526 1.45904C31.1526 1.45904 31.1896 1.4311 31.2151 1.38538C31.2406 1.33966 31.2452 1.29346 31.2452 1.29346C31.2452 1.29346 31.208 1.3214 31.1825 1.36712Z" fill="#999999"/>
<path d="M31.3645 1.64343C31.3901 1.59772 31.3946 1.55151 31.3946 1.55151C31.3946 1.55151 31.3576 1.57946 31.3321 1.62518C31.3065 1.6709 31.302 1.7171 31.302 1.7171C31.302 1.7171 31.339 1.68915 31.3645 1.64343Z" fill="#999999"/>
<path d="M31.5725 1.28162C31.5981 1.2359 31.6026 1.1897 31.6026 1.1897C31.6026 1.1897 31.5656 1.21764 31.5401 1.26336C31.5145 1.30908 31.51 1.35528 31.51 1.35528C31.51 1.35528 31.547 1.32734 31.5725 1.28162Z" fill="#999999"/>
<path d="M31.4443 1.46877C31.49 1.4943 31.5362 1.49882 31.5362 1.49882C31.5362 1.49882 31.5082 1.46182 31.4625 1.4363C31.4168 1.41077 31.3706 1.40625 31.3706 1.40625C31.3706 1.40625 31.3986 1.44325 31.4443 1.46877Z" fill="#999999"/>
<path d="M31.6704 1.48797C31.6449 1.53369 31.6404 1.57989 31.6404 1.57989C31.6404 1.57989 31.6774 1.55195 31.7029 1.50623C31.7284 1.46051 31.7329 1.41431 31.7329 1.41431C31.7329 1.41431 31.696 1.44225 31.6704 1.48797Z" fill="#999999"/>
</g>
<path d="M40.2507 4.10181L40.2507 3.84866C40.2507 3.82072 40.2733 3.7981 40.3013 3.7981L40.4113 3.7981C40.4393 3.7981 40.4619 3.82072 40.4619 3.84866L40.4619 4.10181C40.4619 4.12975 40.4393 4.15237 40.4113 4.15237L40.3013 4.15237C40.2733 4.15221 40.2507 4.12959 40.2507 4.10181Z" fill="url(#paint3_linear_506_13529)"/>
<path d="M40.2507 4.5931L40.2507 4.79649C40.2507 4.83817 40.2845 4.87177 40.326 4.87177L40.3863 4.87177C40.428 4.87177 40.4616 4.83801 40.4616 4.79649L40.4616 4.5931C40.4616 4.55142 40.4278 4.51782 40.3863 4.51782L40.326 4.51782C40.2845 4.51766 40.2507 4.55142 40.2507 4.5931Z" fill="url(#paint4_linear_506_13529)"/>
<path d="M39.6509 4.4521L39.6515 4.25291C39.652 4.1311 39.751 4.03272 39.8729 4.0332L40.5302 4.03563C40.652 4.03611 40.7504 4.13514 40.7499 4.25695L40.7493 4.45613C40.7488 4.57794 40.6497 4.67633 40.5279 4.67584L39.8706 4.67342C39.7488 4.67293 39.6504 4.5739 39.6509 4.4521Z" fill="url(#paint5_linear_506_13529)"/>
<path d="M40.2507 14.3611L40.2507 14.1079C40.2507 14.0801 40.2733 14.0574 40.3013 14.0574L40.4113 14.0574C40.4393 14.0574 40.4619 14.08 40.4619 14.1079L40.4619 14.3611C40.4619 14.389 40.4393 14.4116 40.4113 14.4116L40.3013 14.4116C40.2733 14.4116 40.2507 14.389 40.2507 14.3611Z" fill="url(#paint6_linear_506_13529)"/>
<path d="M40.2507 14.8521L40.2507 15.0555C40.2507 15.0972 40.2845 15.1308 40.326 15.1308L40.3863 15.1308C40.428 15.1308 40.4616 15.097 40.4616 15.0555L40.4616 14.8521C40.4616 14.8105 40.4278 14.7769 40.3863 14.7769L40.326 14.7769C40.2845 14.7769 40.2507 14.8106 40.2507 14.8521Z" fill="url(#paint7_linear_506_13529)"/>
<path d="M39.6509 14.7114L39.6515 14.5122C39.652 14.3904 39.751 14.292 39.8729 14.2925L40.5302 14.2949C40.652 14.2954 40.7504 14.3944 40.7499 14.5162L40.7493 14.7154C40.7488 14.8372 40.6497 14.9356 40.5279 14.9351L39.8706 14.9327C39.7488 14.9324 39.6504 14.8332 39.6509 14.7114Z" fill="url(#paint8_linear_506_13529)"/>
<path d="M25.2473 17.2531L25.2473 1.67749L39.144 1.67749C39.6905 1.67749 40.1333 2.12045 40.1333 2.66681L40.1333 16.2637C40.1333 16.8102 39.6903 17.2531 39.144 17.2531L25.2473 17.2531Z" fill="#E1E2DD"/>
<path d="M40.1336 15.7764L40.1336 3.15404C40.1336 2.33854 39.4726 1.67749 38.6571 1.67749L37.9858 1.67749L37.9858 17.2531L38.6571 17.2531C39.4726 17.2531 40.1336 16.5919 40.1336 15.7764Z" fill="url(#paint9_linear_506_13529)"/>
<path d="M40.1336 15.7764L40.1336 3.15404C40.1336 2.33854 39.4726 1.67749 38.6571 1.67749L37.9858 1.67749L37.9858 17.2531L38.6571 17.2531C39.4726 17.2531 40.1336 16.5919 40.1336 15.7764Z" fill="url(#paint10_linear_506_13529)"/>
<path opacity="0.2" d="M39.7687 15.5647L39.7687 3.36535C39.7687 2.57715 39.1076 1.93823 38.2921 1.93823L37.9858 1.93823L37.9858 16.9916L38.2921 16.9916C39.1076 16.9918 39.7687 16.3528 39.7687 15.5647Z" fill="black"/>
<path d="M25.5447 2.15967L38.563 2.15967C38.931 2.15967 39.2294 2.45805 39.2294 2.82605L39.2294 16.1047C39.2294 16.4727 38.931 16.7711 38.563 16.7711L25.5447 16.7711L25.5447 2.15967Z" fill="#F5F7EA"/>
<g opacity="0.1">
<path d="M25.5447 2.15967L38.563 2.15967C38.931 2.15967 39.2294 2.45805 39.2294 2.82605L39.2294 16.1047C39.2294 16.4727 38.931 16.7711 38.563 16.7711L25.5447 16.7711L25.5447 2.15967Z" fill="url(#paint11_radial_506_13529)"/>
</g>
<g opacity="0.5">
<path d="M25.5447 2.15967L38.563 2.15967C38.931 2.15967 39.2294 2.45805 39.2294 2.82605L39.2294 16.1047C39.2294 16.4727 38.931 16.7711 38.563 16.7711L25.5447 16.7711L25.5447 2.15967Z" fill="url(#paint12_linear_506_13529)"/>
</g>
<path d="M38.6106 5.75354L38.6106 5.46472L38.2801 5.41528L38.2801 5.06401L38.6106 5.01457L38.6106 4.75177L36.7892 5.04319L36.7892 5.46211L38.6106 5.75354ZM38.033 5.10043L38.033 5.37625L37.1118 5.23834L38.033 5.10043ZM38.0824 6.49309L36.7892 6.68825L36.7892 7.08635L38.6106 7.08635L38.6106 6.81574L37.3044 6.81574L38.6106 6.61799L38.6106 6.34738L37.3226 6.13402L38.6106 6.13402L38.6106 5.88423L36.7892 5.88423L36.7892 6.28233L38.0824 6.49309ZM36.7892 7.72648C36.7892 7.87567 36.8239 7.98322 36.8933 8.04913C36.9627 8.11678 37.0676 8.15061 37.2081 8.15061L37.2732 8.15061C37.3668 8.15061 37.444 8.13587 37.5047 8.10638C37.5655 8.07689 37.6106 8.03005 37.64 7.96587C37.6695 8.04393 37.7181 8.09857 37.7858 8.12979C37.8517 8.16275 37.9332 8.17923 38.0303 8.17923L38.1787 8.17923C38.3192 8.17923 38.4267 8.1428 38.5013 8.06995C38.5742 7.99709 38.6106 7.88868 38.6106 7.7447L38.6106 7.29455L36.7892 7.29455L36.7892 7.72648ZM37.791 7.58077L38.3504 7.58077L38.3504 7.7447C38.3504 7.79327 38.3374 7.8297 38.3114 7.85398C38.2853 7.88 38.2385 7.89301 38.1709 7.89301L38.0121 7.89301C37.9271 7.89301 37.869 7.87827 37.8378 7.84878C37.8066 7.82102 37.791 7.77419 37.791 7.70827L37.791 7.58077ZM37.0494 7.58077L37.5308 7.58077L37.5308 7.69266C37.5308 7.74643 37.5169 7.78807 37.4891 7.81755C37.4614 7.84878 37.4111 7.86439 37.3382 7.86439L37.2367 7.86439C37.1708 7.86439 37.1231 7.85225 37.0936 7.82796C37.0641 7.80541 37.0494 7.76898 37.0494 7.71868L37.0494 7.58077ZM36.7892 8.62483L38.1943 8.62483C38.2602 8.62483 38.3062 8.63784 38.3322 8.66386C38.3582 8.69161 38.3712 8.72804 38.3712 8.77314C38.3712 8.81824 38.3582 8.8538 38.3322 8.87982C38.3062 8.90758 38.2602 8.92145 38.1943 8.92145L36.7892 8.92145L36.7892 9.19206L38.1761 9.19206C38.3235 9.19206 38.4371 9.15563 38.5169 9.08278C38.595 9.01166 38.634 8.90584 38.634 8.76533C38.634 8.62483 38.595 8.51814 38.5169 8.44529C38.4371 8.37417 38.3235 8.33861 38.1761 8.33861L36.7892 8.33861L36.7892 8.62483ZM36.7892 9.38835L36.7892 9.67457L38.3504 9.67457L38.3504 10.1455L38.6106 10.1455L38.6106 9.38835L36.7892 9.38835ZM38.6106 11.1964L38.6106 10.9076L38.2801 10.8581L38.2801 10.5069L38.6106 10.4574L38.6106 10.1946L36.7892 10.486L36.7892 10.905L38.6106 11.1964ZM38.033 10.5433L38.033 10.8191L37.1118 10.6812L38.033 10.5433ZM40.2914 5.08222L41.6106 5.08222L41.6106 4.82462L39.7892 4.82462L39.7892 5.1837L40.8794 5.47773L39.7892 5.47773L39.7892 5.73272L41.6106 5.73272L41.6106 5.43869L40.2914 5.08222ZM40.9315 6.76769L41.1735 6.76769C41.3209 6.76769 41.4345 6.73126 41.5143 6.6584C41.5924 6.58728 41.6314 6.48147 41.6314 6.34096C41.6314 6.20045 41.5924 6.09377 41.5143 6.02091C41.4345 5.94979 41.3209 5.91423 41.1735 5.91423L40.2263 5.91423C40.0789 5.91423 39.9661 5.94979 39.8881 6.02091C39.8083 6.09377 39.7684 6.20045 39.7684 6.34096C39.7684 6.48147 39.8083 6.58728 39.8881 6.6584C39.9661 6.73126 40.0789 6.76769 40.2263 6.76769L40.4033 6.76769L40.4033 6.49708L40.2081 6.49708C40.1422 6.49708 40.0962 6.4832 40.0702 6.45545C40.0425 6.42943 40.0286 6.39387 40.0286 6.34877C40.0286 6.30366 40.0425 6.26724 40.0702 6.23948C40.0962 6.21346 40.1422 6.20045 40.2081 6.20045L41.1917 6.20045C41.2576 6.20045 41.3036 6.21346 41.3296 6.23948C41.3556 6.26724 41.3686 6.30366 41.3686 6.34877C41.3686 6.39387 41.3556 6.42943 41.3296 6.45545C41.3036 6.4832 41.2576 6.49708 41.1917 6.49708L40.9315 6.49708L40.9315 6.76769ZM40.5568 7.22757L40.5568 7.62047L40.817 7.62047L40.817 7.22757L41.3504 7.22757L41.3504 7.72195L41.6106 7.72195L41.6106 6.94135L39.7892 6.94135L39.7892 7.72195L40.0494 7.72195L40.0494 7.22757L40.5568 7.22757Z" fill="#CC3300"/>
<path opacity="0.3" d="M39.2291 6.00398L39.2291 5.15342L29.5243 4.4187L29.4607 5.26925L39.2291 6.00398Z" fill="url(#paint13_linear_506_13529)"/>
<path opacity="0.3" d="M39.2291 12.9194L39.2291 13.77L29.5243 14.5047L29.4607 13.6542L39.2291 12.9194Z" fill="url(#paint14_linear_506_13529)"/>
<path d="M39.6507 15.7764L39.6507 3.154C39.6507 2.6057 39.2048 2.15967 38.6563 2.15967L38.2344 2.15967C38.7835 2.15967 39.2289 2.60489 39.2289 3.154L39.2289 15.7764C39.2289 16.3257 38.7836 16.7709 38.2344 16.7709L38.6563 16.7709C39.2048 16.7709 39.6507 16.3249 39.6507 15.7764Z" fill="#CCCCCC"/>
<path opacity="0.4" d="M39.6038 12.8604L39.6038 6.00464L39.5487 6.00464L39.5487 12.8604L39.6038 12.8604Z" fill="#666666"/>
<path opacity="0.4" d="M39.5095 12.8604L39.5095 6.00464L39.4544 6.00464L39.4544 12.8604L39.5095 12.8604Z" fill="#666666"/>
<path opacity="0.4" d="M39.4163 12.8604L39.4163 6.00464L39.3612 6.00464L39.3612 12.8604L39.4163 12.8604Z" fill="#666666"/>
<path opacity="0.4" d="M39.3228 12.8607L39.3228 6.00488L39.2677 6.00488L39.2677 12.8607L39.3228 12.8607Z" fill="#666666"/>
<path d="M39.6517 3.15553V3.15375C39.6517 2.60546 39.2058 2.15942 38.6573 2.15942L38.2354 2.15942C38.7845 2.15942 39.2299 2.60465 39.2299 3.15375V3.15553L39.6517 3.15553Z" fill="#FF6600"/>
<path d="M39.2297 5.96564L39.2297 3.15356L39.6517 3.15356L39.6517 6.24446L39.2297 5.96564Z" fill="#DCFFFE"/>
<path d="M39.2673 3.15534L39.2673 5.99051L39.3614 6.05271L39.3614 3.15534V3.15356L39.2673 3.15356V3.15534Z" fill="white"/>
<path opacity="0.4" d="M39.3615 3.15375C39.3615 2.60546 38.9156 2.15942 38.3671 2.15942L38.2729 2.15942C38.8212 2.15942 39.2673 2.60546 39.2673 3.15375V3.15553L39.3615 3.15553V3.15375Z" fill="white"/>
<path d="M38.2729 2.15931L38.2729 2.0606C38.2729 2.03492 38.3053 2.01392 38.345 2.01392L38.6227 2.01392C38.6624 2.01392 38.6948 2.03476 38.6948 2.0606L38.6948 2.15931L38.2729 2.15931Z" fill="#FF6600"/>
<path d="M39.6517 15.7573V15.7591C39.6517 16.3074 39.2058 16.7534 38.6573 16.7534L38.2354 16.7534C38.7845 16.7534 39.2299 16.3082 39.2299 15.7591V15.7573L39.6517 15.7573Z" fill="#FF6600"/>
<path d="M39.2297 12.9469L39.2297 15.759L39.6517 15.759L39.6517 12.6682L39.2297 12.9469Z" fill="#DCFFFE"/>
<path d="M39.2673 15.7572L39.2673 12.9221L39.3614 12.8599L39.3614 15.7572V15.759L39.2673 15.759V15.7572Z" fill="white"/>
<path opacity="0.4" d="M39.3615 15.7591C39.3615 16.3074 38.9156 16.7534 38.3671 16.7534L38.2729 16.7534C38.8212 16.7534 39.2673 16.3074 39.2673 15.7591V15.7573L39.3615 15.7573V15.7591Z" fill="white"/>
<path d="M38.2729 16.7532L38.2729 16.8519C38.2729 16.8776 38.3053 16.8986 38.345 16.8986L38.6227 16.8986C38.6624 16.8986 38.6948 16.8777 38.6948 16.8519L38.6948 16.7532L38.2729 16.7532Z" fill="#FF6600"/>
<path d="M28.3172 3.4525C28.5452 5.00788 29.088 11.8982 28.3659 15.2961C28.2941 15.6334 28.4697 15.973 28.7861 16.1101L32.9813 16.7245C33.307 16.8657 33.6825 16.6954 33.7876 16.3563C34.3246 14.626 35.5558 9.44254 33.7275 2.5929C33.6358 2.24928 33.2595 2.06673 32.9298 2.20001L28.7641 2.6761C28.4539 2.8013 28.2688 3.12132 28.3172 3.4525Z" fill="#F4F4F4"/>
<path opacity="0.5" d="M28.3172 3.4525C28.5452 5.00788 29.088 11.8982 28.3659 15.2961C28.2941 15.6334 28.4697 15.973 28.7861 16.1101L32.9813 16.7245C33.307 16.8657 33.6825 16.6954 33.7876 16.3563C34.3246 14.626 35.5558 9.44254 33.7275 2.5929C33.6358 2.24928 33.2595 2.06673 32.9298 2.20001L28.7641 2.6761C28.4539 2.8013 28.2688 3.12132 28.3172 3.4525Z" fill="url(#paint15_linear_506_13529)"/>
<path d="M28.6021 3.34756C28.6021 3.17131 28.7087 3.01445 28.8735 2.94773L33.0392 2.47164C33.1206 2.43885 33.2125 2.44256 33.291 2.48182C33.3679 2.52027 33.4225 2.58666 33.4447 2.66873C34.0789 5.04494 34.4005 7.44587 34.4005 9.8048C34.4005 12.9275 33.8413 15.1957 33.5078 16.2698C33.4821 16.3525 33.4249 16.4179 33.3463 16.454C33.2668 16.4905 33.1787 16.4913 33.0975 16.4561L28.9024 15.8417C28.7445 15.7732 28.6424 15.6184 28.6424 15.4473C28.6424 15.4173 28.6457 15.3871 28.6521 15.357C28.8966 14.2065 29.0205 11.6242 29.0205 10.0589C29.0205 7.77947 28.7613 4.46466 28.6067 3.41024C28.6035 3.38908 28.6021 3.36824 28.6021 3.34756Z" fill="black"/>
<path d="M28.749 3.34756C28.749 3.23125 28.8196 3.1277 28.9288 3.08359L33.0945 2.60751C33.1525 2.58408 33.2018 2.60073 33.226 2.61284C33.2538 2.62674 33.2895 2.6542 33.3036 2.70654C33.9346 5.07047 34.2546 7.45864 34.2546 9.8048C34.2546 12.9083 33.6994 15.1603 33.3685 16.2263C33.3508 16.2839 33.3091 16.3103 33.2858 16.321C33.2617 16.3318 33.2134 16.3465 33.1563 16.3218L28.9608 15.7075C28.8568 15.6622 28.7892 15.5601 28.7892 15.4474C28.7892 15.4275 28.7915 15.4075 28.7955 15.3876C29.0424 14.227 29.1673 11.6343 29.1673 10.0589C29.1673 7.77026 28.907 4.44738 28.7521 3.38908C28.7502 3.37519 28.749 3.3613 28.749 3.34756Z" fill="#676B86"/>
<path opacity="0.2" d="M31.957 2.73752C32.3714 4.44233 32.7039 6.99302 32.7039 9.46551C32.7039 11.912 32.3637 14.448 31.957 16.1462L33.1562 16.3218C33.2134 16.3465 33.2617 16.3318 33.2858 16.321C33.3089 16.3103 33.3507 16.2838 33.3685 16.2263C33.6993 15.1602 34.2546 12.9083 34.2546 9.80476C34.2546 7.4586 33.9346 5.07043 33.3035 2.7065C33.2895 2.65416 33.2538 2.62669 33.226 2.6128C33.2018 2.60085 33.1525 2.58404 33.0945 2.60747L31.957 2.73752Z" fill="black"/>
<path d="M33.0122 2.64059C33.4631 4.46624 33.7368 6.85214 33.7368 9.46551C33.7368 12.0655 33.4658 14.4402 33.0192 16.2623L33.1563 16.3218C33.2135 16.3465 33.2618 16.3318 33.2859 16.321C33.309 16.3103 33.3508 16.2838 33.3686 16.2263C33.6994 15.1602 34.2547 12.9083 34.2547 9.80476C34.2547 7.4586 33.9347 5.07043 33.3036 2.7065C33.2896 2.65416 33.2539 2.62669 33.2261 2.6128C33.2019 2.60085 33.1526 2.58404 33.0946 2.60747L33.0122 2.64059Z" fill="#333333"/>
<path d="M33.084 4.85425L33.4814 6.7631L33.3859 6.78055L33.0361 4.86281L33.084 4.85425Z" fill="black"/>
<path d="M33.8692 9.42615L33.3936 6.8186L33.5159 6.94751L33.9646 9.4087L33.8692 9.42615Z" fill="black"/>
<path d="M33.0317 4.97431L33.8608 9.52851L33.9117 9.51914L33.0616 4.85815L33.0317 4.97431Z" fill="#333333"/>
<path d="M33.8905 9.41112C33.9636 9.39788 34.0335 9.44618 34.0468 9.5192C34.06 9.59222 34.0117 9.66217 33.9387 9.67542C33.8657 9.68866 33.7957 9.64036 33.7825 9.56734C33.7692 9.49432 33.8175 9.42437 33.8905 9.41112Z" fill="black"/>
<path d="M33.8667 9.4156C33.9265 9.40478 33.9838 9.44436 33.9946 9.50413C34.0056 9.5639 33.9659 9.62125 33.9061 9.63207C33.8463 9.64306 33.789 9.60332 33.7781 9.54355C33.7673 9.48377 33.8069 9.42642 33.8667 9.4156Z" fill="#333333"/>
<path d="M33.2981 9.08472L33.5024 11.0238L33.4057 11.0317L33.2498 9.08859L33.2981 9.08472Z" fill="black"/>
<path d="M33.6202 13.7124L33.4082 11.0703L33.5168 11.211L33.7169 13.7047L33.6202 13.7124Z" fill="black"/>
<path d="M33.2344 9.19951L33.6032 13.8138L33.6549 13.8096L33.2757 9.08691L33.2344 9.19951Z" fill="#333333"/>
<path d="M33.6443 13.6997C33.7183 13.6937 33.7829 13.7489 33.7889 13.8228C33.7949 13.8967 33.7396 13.9614 33.6658 13.9673C33.5918 13.9733 33.5272 13.9181 33.5212 13.8442C33.5152 13.7704 33.5703 13.7056 33.6443 13.6997Z" fill="black"/>
<path d="M33.6202 13.7013C33.6808 13.6964 33.7338 13.7415 33.7388 13.8021C33.7436 13.8627 33.6984 13.9157 33.6378 13.9205C33.5772 13.9254 33.5242 13.8803 33.5194 13.8197C33.5146 13.7591 33.5596 13.7061 33.6202 13.7013Z" fill="#333333"/>
<path opacity="0.5" d="M28.749 3.34756C28.749 3.23125 28.8196 3.1277 28.9288 3.08359L33.0945 2.60751C33.1525 2.58408 33.2018 2.60073 33.226 2.61284C33.2538 2.62674 33.2895 2.6542 33.3036 2.70654C33.9346 5.07047 34.2546 7.45864 34.2546 9.8048C34.2546 12.9083 33.6994 15.1603 33.3685 16.2263C33.3508 16.2839 33.3091 16.3103 33.2858 16.321C33.2617 16.3318 33.2134 16.3465 33.1563 16.3218L28.9608 15.7075C28.8568 15.6622 28.7892 15.5601 28.7892 15.4474C28.7892 15.4275 28.7915 15.4075 28.7955 15.3876C29.0424 14.227 29.1673 11.6343 29.1673 10.0589C29.1673 7.77026 28.907 4.44738 28.7521 3.38908C28.7502 3.37519 28.749 3.3613 28.749 3.34756Z" fill="url(#paint16_radial_506_13529)"/>
<path opacity="0.3" d="M28.749 3.34756C28.749 3.23125 28.8196 3.1277 28.9288 3.08359L33.0945 2.60751C33.1525 2.58408 33.2018 2.60073 33.226 2.61284C33.2538 2.62674 33.2895 2.6542 33.3036 2.70654C33.9346 5.07047 34.2546 7.45864 34.2546 9.8048C34.2546 12.9083 33.6994 15.1603 33.3685 16.2263C33.3508 16.2839 33.3091 16.3103 33.2858 16.321C33.2617 16.3318 33.2134 16.3465 33.1563 16.3218L28.9608 15.7075C28.8568 15.6622 28.7892 15.5601 28.7892 15.4474C28.7892 15.4275 28.7915 15.4075 28.7955 15.3876C29.0424 14.227 29.1673 11.6343 29.1673 10.0589C29.1673 7.77026 28.907 4.44738 28.7521 3.38908C28.7502 3.37519 28.749 3.3613 28.749 3.34756Z" fill="url(#paint17_radial_506_13529)"/>
<path d="M25.542 2.15299C25.542 2.15977 25.5431 2.16672 25.5449 2.17367L25.542 2.84522C25.5625 2.91453 25.6858 2.96687 25.8286 2.96687L27.7681 2.96687C27.8071 2.96687 27.845 2.96315 27.8809 2.95572L33.2592 2.23409C33.3211 2.22132 33.3595 2.19305 33.3595 2.16026C33.3595 2.11503 33.2875 2.07948 33.1954 2.07948L25.8315 2.01099C25.7535 2.01099 25.6806 2.02585 25.6258 2.05315C25.5716 2.07997 25.542 2.11551 25.542 2.15299Z" fill="#F4F4F4"/>
<path opacity="0.5" d="M25.542 2.15299C25.542 2.15977 25.5431 2.16672 25.5449 2.17367L25.542 2.84522C25.5625 2.91453 25.6858 2.96687 25.8286 2.96687L27.7681 2.96687C27.8071 2.96687 27.845 2.96315 27.8809 2.95572L33.2592 2.23409C33.3211 2.22132 33.3595 2.19305 33.3595 2.16026C33.3595 2.11503 33.2875 2.07948 33.1954 2.07948L25.8315 2.01099C25.7535 2.01099 25.6806 2.02585 25.6258 2.05315C25.5716 2.07997 25.542 2.11551 25.542 2.15299Z" fill="url(#paint18_linear_506_13529)"/>
<path d="M33.2171 2.18481L27.8387 2.90644C27.8164 2.91112 27.7924 2.91338 27.7682 2.91338L25.8288 2.91338C25.7388 2.91338 25.6626 2.88091 25.6497 2.83729L25.6526 2.16574C25.6366 2.11211 25.7214 2.06396 25.8317 2.06396L33.1956 2.13246C33.2559 2.13262 33.2725 2.17334 33.2171 2.18481Z" fill="black"/>
<path d="M25.7597 2.15839L25.7568 2.82994C25.7618 2.84739 25.7927 2.86048 25.8286 2.86048L27.7681 2.86048C27.7778 2.86048 27.7872 2.8595 27.7961 2.85773L32.933 2.18617L25.8315 2.11768C25.8119 2.11768 25.7937 2.12139 25.7799 2.12818C25.7664 2.13496 25.7589 2.14385 25.7589 2.15322L25.7597 2.15839Z" fill="#676B86"/>
<path opacity="0.2" d="M25.8258 2.37946L25.7601 2.1583L25.7593 2.15297C25.7593 2.1436 25.7667 2.13471 25.7803 2.12793C25.794 2.12114 25.8123 2.11743 25.8318 2.11743L32.9334 2.18592L30.4794 2.30095L25.8258 2.37946Z" fill="black"/>
<path opacity="0.5" d="M25.7597 2.15839L25.7568 2.82994C25.7618 2.84739 25.7927 2.86048 25.8286 2.86048L27.7681 2.86048C27.7778 2.86048 27.7872 2.8595 27.7961 2.85773L32.933 2.18617L25.8315 2.11768C25.8119 2.11768 25.7937 2.12139 25.7799 2.12818C25.7664 2.13496 25.7589 2.14385 25.7589 2.15322L25.7597 2.15839Z" fill="url(#paint19_linear_506_13529)"/>
<path opacity="0.3" d="M25.7597 2.15839L25.7568 2.82994C25.7618 2.84739 25.7927 2.86048 25.8286 2.86048L27.7681 2.86048C27.7778 2.86048 27.7872 2.8595 27.7961 2.85773L32.933 2.18617L25.8315 2.11768C25.8119 2.11768 25.7937 2.12139 25.7799 2.12818C25.7664 2.13496 25.7589 2.14385 25.7589 2.15322L25.7597 2.15839Z" fill="url(#paint20_linear_506_13529)"/>
<path d="M25.5427 16.8178C25.5427 16.811 25.5439 16.804 25.5456 16.7971L25.5427 16.1256C25.5632 16.0562 25.6865 16.0039 25.8293 16.0039L27.7689 16.0039C27.8078 16.0039 27.8458 16.0076 27.8816 16.0152L33.2599 16.7368C33.3218 16.7498 33.3603 16.7779 33.3603 16.8107C33.3603 16.8559 33.2882 16.8914 33.1961 16.8914L25.8322 16.9599C25.7542 16.9599 25.6813 16.9451 25.6266 16.9179C25.5723 16.8908 25.5427 16.8553 25.5427 16.8178Z" fill="#F4F4F4"/>
<path opacity="0.5" d="M25.5427 16.8178C25.5427 16.811 25.5439 16.804 25.5456 16.7971L25.5427 16.1256C25.5632 16.0562 25.6865 16.0039 25.8293 16.0039L27.7689 16.0039C27.8078 16.0039 27.8458 16.0076 27.8816 16.0152L33.2599 16.7368C33.3218 16.7498 33.3603 16.7779 33.3603 16.8107C33.3603 16.8559 33.2882 16.8914 33.1961 16.8914L25.8322 16.9599C25.7542 16.9599 25.6813 16.9451 25.6266 16.9179C25.5723 16.8908 25.5427 16.8553 25.5427 16.8178Z" fill="url(#paint21_linear_506_13529)"/>
<path d="M33.2178 16.786L27.8394 16.0643C27.8171 16.0596 27.7932 16.0574 27.7689 16.0574L25.8296 16.0574C25.7396 16.0574 25.6633 16.0897 25.6504 16.1335L25.6533 16.805C25.6373 16.8587 25.7221 16.9068 25.8325 16.9068L33.1964 16.8383C33.2566 16.8381 33.2733 16.7976 33.2178 16.786Z" fill="black"/>
<path d="M25.7605 16.8124L25.7576 16.1409C25.7626 16.1234 25.7934 16.1104 25.8293 16.1104L27.7689 16.1104C27.7785 16.1104 27.7879 16.1113 27.7968 16.1131L32.9338 16.7847L25.8322 16.8531C25.8127 16.8531 25.7944 16.8494 25.7807 16.8426C25.7671 16.8359 25.7597 16.827 25.7597 16.8176L25.7605 16.8124Z" fill="#676B86"/>
<path opacity="0.2" d="M25.8261 16.5916L25.7603 16.8127L25.7595 16.818C25.7595 16.8274 25.767 16.8363 25.7805 16.8431C25.7943 16.8499 25.8125 16.8536 25.8321 16.8536L32.9336 16.7851L30.4797 16.6701L25.8261 16.5916Z" fill="black"/>
<path opacity="0.5" d="M25.7605 16.8124L25.7576 16.1409C25.7626 16.1234 25.7934 16.1104 25.8293 16.1104L27.7689 16.1104C27.7785 16.1104 27.7879 16.1113 27.7968 16.1131L32.9338 16.7847L25.8322 16.8531C25.8127 16.8531 25.7944 16.8494 25.7807 16.8426C25.7671 16.8359 25.7597 16.827 25.7597 16.8176L25.7605 16.8124Z" fill="url(#paint22_linear_506_13529)"/>
<path opacity="0.3" d="M25.7605 16.8124L25.7576 16.1409C25.7626 16.1234 25.7934 16.1104 25.8293 16.1104L27.7689 16.1104C27.7785 16.1104 27.7879 16.1113 27.7968 16.1131L32.9338 16.7847L25.8322 16.8531C25.8127 16.8531 25.7944 16.8494 25.7807 16.8426C25.7671 16.8359 25.7597 16.827 25.7597 16.8176L25.7605 16.8124Z" fill="url(#paint23_linear_506_13529)"/>
<path d="M32.4084 2.1602L31.7793 0.528076L32.0838 0.528076C32.2271 0.528076 32.3557 0.61628 32.4072 0.750042L32.9509 2.1602L32.4084 2.1602Z" fill="#999999"/>
<path opacity="0.4" d="M32.3708 2.1602L31.7417 0.528076L32.0462 0.528076C32.1895 0.528076 32.3181 0.61628 32.3698 0.750042L32.9134 2.1602L32.3708 2.1602Z" fill="url(#paint24_linear_506_13529)"/>
<path d="M31.9818 1.69292L31.6463 0.662728C31.6246 0.596332 31.674 0.52832 31.7438 0.52832L32.1185 0.52832L32.5209 1.764L32.0795 1.764C32.0351 1.76384 31.9957 1.73508 31.9818 1.69292Z" fill="#666666"/>
<path opacity="0.3" d="M31.9818 1.69292L31.6463 0.662728C31.6246 0.596332 31.674 0.52832 31.7438 0.52832L32.1185 0.52832L32.5209 1.764L32.0795 1.764C32.0351 1.76384 31.9957 1.73508 31.9818 1.69292Z" fill="url(#paint25_linear_506_13529)"/>
<path d="M32.4086 16.8259L31.7795 18.458L32.0841 18.458C32.2274 18.458 32.3559 18.3698 32.4075 18.2361L32.9511 16.8259L32.4086 16.8259Z" fill="#999999"/>
<path opacity="0.4" d="M32.371 16.8259L31.7419 18.458L32.0465 18.458C32.1898 18.458 32.3184 18.3698 32.37 18.2361L32.9137 16.8259L32.371 16.8259Z" fill="url(#paint26_linear_506_13529)"/>
<path d="M31.982 17.2933L31.6465 18.3235C31.6248 18.3899 31.6743 18.4581 31.7441 18.4581L32.1187 18.4581L32.5211 17.2224L32.0798 17.2224C32.0353 17.2226 31.9959 17.2512 31.982 17.2933Z" fill="#666666"/>
<path opacity="0.3" d="M31.982 17.2933L31.6465 18.3235C31.6248 18.3899 31.6743 18.4581 31.7441 18.4581L32.1187 18.4581L32.5211 17.2224L32.0798 17.2224C32.0353 17.2226 31.9959 17.2512 31.982 17.2933Z" fill="url(#paint27_linear_506_13529)"/>
<path opacity="0.7" d="M25.845 13.608L25.845 4.83838L26.9232 5.16099L26.9232 13.9306L25.845 13.608Z" fill="url(#paint28_linear_506_13529)"/>
<path d="M26.1104 13.7648L26.1104 5.16556C26.1104 4.9045 26.322 4.69287 26.583 4.69287L27.0858 4.69287C27.3468 4.69287 27.5585 4.9045 27.5585 5.16556L27.5585 13.7648C27.5585 14.0258 27.3468 14.2375 27.0858 14.2375L26.583 14.2375C26.322 14.2375 26.1104 14.0258 26.1104 13.7648Z" fill="#999999"/>
<path d="M27.5583 13.7647L27.5583 10.5266L26.1104 10.5266L26.1104 13.7647C26.1104 14.0257 26.322 14.2374 26.583 14.2374L27.0858 14.2374C27.3467 14.2374 27.5583 14.0257 27.5583 13.7647Z" fill="#5D94FF"/>
<path opacity="0.5" d="M26.4548 10.8716L27.2138 10.8716L27.2138 13.7651C27.2138 13.8355 27.1563 13.893 27.0855 13.893L26.5831 13.893C26.5123 13.893 26.4548 13.8357 26.4548 13.7651L26.4548 10.8716Z" fill="#5384E4"/>
<path d="M27.5583 5.16556L27.5583 8.40363L26.1104 8.40363L26.1104 5.16556C26.1104 4.9045 26.322 4.69287 26.583 4.69287L27.0858 4.69287C27.3467 4.69287 27.5583 4.9045 27.5583 5.16556Z" fill="#CC0000"/>
<path opacity="0.3" d="M26.4548 5.16546C26.4548 5.09486 26.5123 5.03735 26.5831 5.03735L27.0855 5.03735C27.1563 5.03735 27.2138 5.0947 27.2138 5.16546L27.2138 8.05895L26.4548 8.05895L26.4548 5.16546Z" fill="#660000"/>
<path opacity="0.5" d="M26.1104 13.7648L26.1104 5.16556C26.1104 4.9045 26.322 4.69287 26.583 4.69287L27.0858 4.69287C27.3468 4.69287 27.5585 4.9045 27.5585 5.16556L27.5585 13.7648C27.5585 14.0258 27.3468 14.2375 27.0858 14.2375L26.583 14.2375C26.322 14.2375 26.1104 14.0258 26.1104 13.7648Z" fill="url(#paint29_radial_506_13529)"/>
<path opacity="0.5" d="M26.1104 13.7648L26.1104 5.16556C26.1104 4.9045 26.322 4.69287 26.583 4.69287L27.0858 4.69287C27.3468 4.69287 27.5585 4.9045 27.5585 5.16556L27.5585 13.7648C27.5585 14.0258 27.3468 14.2375 27.0858 14.2375L26.583 14.2375C26.322 14.2375 26.1104 14.0258 26.1104 13.7648Z" fill="url(#paint30_linear_506_13529)"/>
<path d="M27.4386 13.5912L27.4386 5.33921C27.4386 5.08865 27.253 4.88574 27.0241 4.88574L26.8352 4.88574C27.0641 4.88574 27.2497 5.08881 27.2497 5.33921L27.2497 13.5912C27.2497 13.8416 27.0641 14.0447 26.8352 14.0447L27.0241 14.0447C27.253 14.0447 27.4386 13.8416 27.4386 13.5912Z" fill="url(#paint31_linear_506_13529)"/>
<path d="M26.231 13.5912L26.231 5.33921C26.231 5.08865 26.4166 4.88574 26.6455 4.88574L26.8343 4.88574C26.6054 4.88574 26.4198 5.08881 26.4198 5.33921L26.4198 13.5912C26.4198 13.8416 26.6054 14.0447 26.8343 14.0447L26.6455 14.0447C26.4164 14.0447 26.231 13.8416 26.231 13.5912Z" fill="url(#paint32_linear_506_13529)"/>
<path opacity="0.4" d="M27.4778 4.90259L27.336 5.02165C27.2877 5.06236 27.1951 5.08756 27.0946 5.08772L26.5749 5.08821C26.4741 5.08837 26.3811 5.06301 26.3326 5.02214L26.1903 4.90259C26.1685 4.93522 26.1522 4.97141 26.1389 5.00905L26.235 5.08982C26.2861 5.13263 26.3837 5.15929 26.4896 5.15913L27.1767 5.15865C27.2819 5.15848 27.3788 5.13215 27.4297 5.08966L27.5287 5.00711C27.5156 4.97028 27.4995 4.93457 27.4778 4.90259Z" fill="white"/>
<path opacity="0.4" d="M27.4778 14.0212L27.336 13.9021C27.2877 13.8614 27.1951 13.8362 27.0946 13.8361L26.5749 13.8356C26.4741 13.8356 26.3811 13.8608 26.3326 13.9016L26.1903 14.0212C26.1685 13.9886 26.1522 13.9524 26.1389 13.9147L26.235 13.834C26.2861 13.7911 26.3837 13.7645 26.4896 13.7646L27.1767 13.7653C27.2819 13.7653 27.3788 13.7918 27.4297 13.8343L27.5287 13.9168C27.5156 13.9537 27.4995 13.9892 27.4778 14.0212Z" fill="white"/>
<path opacity="0.4" d="M26.8689 5.38232L26.7993 5.38232L26.7993 13.5483L26.8689 13.5483L26.8689 5.38232Z" fill="black"/>
<path d="M1.11743 17.667L1.11743 1.26345C1.11743 1.06717 1.27656 0.908203 1.47284 0.908203L24.8923 0.908203C25.0886 0.908203 25.2477 1.06733 25.2477 1.26345L25.2477 17.667C25.2477 17.8633 25.0886 18.0225 24.8923 18.0225L1.47284 18.0225C1.27656 18.0225 1.11743 17.8633 1.11743 17.667Z" fill="#CC3300"/>
<path d="M1.35791 1.2633C1.35791 1.2003 1.40928 1.14893 1.47213 1.14893L24.8916 1.14893C24.9545 1.14893 25.0058 1.2003 25.0058 1.2633L25.0058 17.6667C25.0058 17.7297 24.9545 17.781 24.8916 17.781L1.47213 17.781C1.40928 17.781 1.35791 17.7296 1.35791 17.6667L1.35791 1.2633Z" fill="#F5F7EA"/>
<path d="M1.35791 1.2633C1.35791 1.2003 1.40928 1.14893 1.47213 1.14893L24.8916 1.14893C24.9545 1.14893 25.0058 1.2003 25.0058 1.2633L25.0058 17.6667C25.0058 17.7297 24.9545 17.781 24.8916 17.781L1.47213 17.781C1.40928 17.781 1.35791 17.7296 1.35791 17.6667L1.35791 1.2633Z" fill="url(#paint33_radial_506_13529)"/>
<path opacity="0.2" d="M1.35791 1.2633C1.35791 1.2003 1.40928 1.14893 1.47213 1.14893L24.8916 1.14893C24.9545 1.14893 25.0058 1.2003 25.0058 1.2633L25.0058 17.6667C25.0058 17.7297 24.9545 17.781 24.8916 17.781L1.47213 17.781C1.40928 17.781 1.35791 17.7296 1.35791 17.6667L1.35791 1.2633Z" fill="url(#paint34_radial_506_13529)"/>
<path d="M0.99612 3.53468L1.11744 3.53468L1.11744 1.8772L0.99612 1.8772C0.860096 1.8772 0.749756 1.98753 0.749756 2.12372L0.749756 3.28832C0.749756 3.42434 0.860096 3.53468 0.99612 3.53468Z" fill="#EF0C0C"/>
<path opacity="0.4" d="M1.07599 3.34786L1.07599 2.06372C0.918638 2.06372 0.791016 2.19134 0.791016 2.34869L0.791016 3.0629C0.791016 3.22024 0.918638 3.34786 1.07599 3.34786Z" fill="#660000"/>
<path d="M1.0941 1.97876L1.0941 1.98668C0.949349 2.0185 0.840949 2.14709 0.840949 2.30137L0.840949 3.10992C0.840949 3.2642 0.949349 3.39279 1.0941 3.42462L1.0941 3.43254C0.915909 3.43254 0.771484 3.28811 0.771484 3.10992L0.771484 2.30137C0.771484 2.12319 0.915909 1.97876 1.0941 1.97876Z" fill="url(#paint35_linear_506_13529)"/>
<path opacity="0.6" d="M0.938562 2.986C0.937592 2.83237 0.936623 2.67857 0.935493 2.52494C0.935008 2.45677 0.928708 2.38246 0.942116 2.31509C0.947609 2.28779 0.958271 2.23448 0.994296 2.23318C1.02968 2.23189 1.03517 2.27422 1.03533 2.30087C1.03533 2.37696 1.04082 3.24383 1.02645 3.24383C0.993489 3.24351 0.965219 3.21717 0.952457 3.18664C0.939695 3.15611 0.93937 3.12218 0.939047 3.08923C0.939047 3.05482 0.938723 3.02041 0.938562 2.986Z" fill="url(#paint36_linear_506_13529)"/>
<path d="M0.99612 16.7146L1.11744 16.7146L1.11744 15.0571L0.99612 15.0571C0.860096 15.0571 0.749756 15.1675 0.749756 15.3035L0.749756 16.4681C0.749756 16.6041 0.860096 16.7146 0.99612 16.7146Z" fill="#EF0C0C"/>
<path opacity="0.4" d="M1.07599 16.5279L1.07599 15.2439C0.918638 15.2439 0.791016 15.3715 0.791016 15.5289L0.791016 16.2431C0.791016 16.4003 0.918638 16.5279 1.07599 16.5279Z" fill="#660000"/>
<path d="M1.09459 15.1592L1.09459 15.1671C0.949838 15.1989 0.841438 15.3275 0.841438 15.4818L0.841438 16.2903C0.841438 16.4446 0.949838 16.5732 1.09459 16.605L1.09459 16.613C0.916397 16.613 0.771973 16.4685 0.771973 16.2903L0.771973 15.4818C0.771973 15.3036 0.916397 15.1592 1.09459 15.1592Z" fill="url(#paint37_linear_506_13529)"/>
<path opacity="0.6" d="M0.938562 16.1659C0.937592 16.0123 0.936623 15.8585 0.935493 15.7049C0.935008 15.6367 0.928708 15.5624 0.942116 15.495C0.947609 15.4677 0.958271 15.4144 0.994296 15.4131C1.02968 15.4118 1.03517 15.4541 1.03533 15.4808C1.03533 15.5569 1.04082 16.4238 1.02645 16.4238C0.993489 16.4234 0.965219 16.3971 0.952457 16.3666C0.939695 16.336 0.93937 16.3021 0.939047 16.2692C0.939047 16.2346 0.938723 16.2002 0.938562 16.1659Z" fill="url(#paint38_linear_506_13529)"/>
<path d="M10.4433 8.83382L9.16202 8.83382C9.10257 8.83382 9.05427 8.78568 9.05427 8.72623L9.05427 7.44499C9.05427 7.38554 9.00612 7.3374 8.94667 7.3374L7.85541 7.3374C7.79596 7.3374 7.74765 7.38554 7.74765 7.44499L7.74765 8.72623C7.74765 8.78568 7.69951 8.83382 7.64006 8.83382L6.35881 8.83382C6.29936 8.83382 6.25122 8.88196 6.25122 8.94157L6.25122 10.0328C6.25122 10.0923 6.29936 10.1404 6.35881 10.1404L7.64006 10.1404C7.69951 10.1404 7.74765 10.1886 7.74765 10.2482L7.74765 11.5293C7.74765 11.5887 7.7958 11.6368 7.85541 11.6368L8.94667 11.6368C9.00612 11.6368 9.05427 11.5887 9.05427 11.5293L9.05427 10.2482C9.05427 10.1887 9.10241 10.1404 9.16202 10.1404L10.4433 10.1404C10.5027 10.1404 10.5509 10.0923 10.5509 10.0328L10.5509 8.94157C10.5509 8.88196 10.5027 8.83382 10.4433 8.83382Z" fill="#CC3300"/>
<path d="M1.11743 14.6504L1.11743 3.90942L0.794816 3.90942L0.794816 14.6504L1.11743 14.6504Z" fill="#F5F7EA"/>
<path opacity="0.5" d="M0.794922 14.6502L0.794922 3.90918L1.11754 3.90918L1.11754 14.6502L0.794922 14.6502Z" fill="url(#paint39_linear_506_13529)"/>
<path opacity="0.5" d="M1.11743 9.32244L1.11743 9.2373L0.794816 9.2373L0.794816 9.32244L1.11743 9.32244Z" fill="#666666"/>
<path d="M0.906796 8.95832L0.906796 4.15017C0.906796 4.09185 0.859623 4.04468 0.801304 4.04468L0.795166 4.04468L0.795166 9.06382L0.801304 9.06382C0.859623 9.06382 0.906796 9.01664 0.906796 8.95832Z" fill="#AAD5F9"/>
<path d="M0.906796 8.95832L0.906796 4.15017C0.906796 4.09185 0.859623 4.04468 0.801304 4.04468L0.795166 4.04468L0.795166 4.05873C0.827961 4.07667 0.851061 4.1101 0.851061 4.15017L0.851061 8.95832C0.851061 8.99823 0.827961 9.03183 0.795166 9.04976L0.795166 9.06382L0.801304 9.06382C0.859623 9.06382 0.906796 9.01664 0.906796 8.95832Z" fill="white"/>
<path d="M0.906552 14.4158L0.906552 9.60769C0.906552 9.54937 0.859379 9.5022 0.80106 9.5022L0.794922 9.5022L0.794922 14.5213L0.80106 14.5213C0.859379 14.5212 0.906552 14.474 0.906552 14.4158Z" fill="#AAD5F9"/>
<path d="M0.906552 14.4158L0.906552 9.60769C0.906552 9.54937 0.859379 9.5022 0.80106 9.5022L0.794922 9.5022L0.794922 9.51625C0.827716 9.53418 0.850817 9.56763 0.850817 9.60769L0.850817 14.4158C0.850817 14.4558 0.827716 14.4894 0.794922 14.5073L0.794922 14.5213L0.80106 14.5213C0.859379 14.5212 0.906552 14.474 0.906552 14.4158Z" fill="white"/>
<path d="M25.0061 18.0222L30.9157 18.0222C31.0902 18.0222 31.2574 17.9529 31.3808 17.8297L31.9571 17.2534L25.0061 17.2534L25.0061 18.0222Z" fill="#CCCCCC"/>
<path d="M25.1272 17.9012L25.1272 17.3733L31.6667 17.3733L31.2963 17.7439C31.1948 17.8453 31.0599 17.9012 30.9165 17.9012L25.1272 17.9012Z" fill="url(#paint40_linear_506_13529)"/>
<path opacity="0.5" d="M25.0061 18.0222L30.9157 18.0222C31.0902 18.0222 31.2574 17.9529 31.3808 17.8297L31.9571 17.2534L25.0061 17.2534L25.0061 18.0222Z" fill="url(#paint41_linear_506_13529)"/>
<path opacity="0.4" d="M25.0061 18.0222L30.9157 18.0222C31.0902 18.0222 31.2574 17.9529 31.3808 17.8297L31.9571 17.2534L25.0061 17.2534L25.0061 18.0222Z" fill="url(#paint42_linear_506_13529)"/>
<mask id="mask1_506_13529" style="mask-type:luminance" maskUnits="userSpaceOnUse" x="25" y="17" width="7" height="1">
<path d="M25.1274 17.9015L25.1274 17.3735L31.667 17.3735L31.2965 17.7441C31.1951 17.8456 31.0602 17.9015 30.9167 17.9015L25.1274 17.9015Z" fill="white"/>
</mask>
<g mask="url(#mask1_506_13529)">
<path d="M25.1785 17.4931C25.204 17.5388 25.2085 17.585 25.2085 17.585C25.2085 17.585 25.1715 17.5571 25.146 17.5114C25.1205 17.4656 25.116 17.4194 25.116 17.4194C25.116 17.4194 25.153 17.4474 25.1785 17.4931Z" fill="#999999"/>
<path d="M25.3875 17.8548C25.413 17.9006 25.4175 17.9466 25.4175 17.9466C25.4175 17.9466 25.3805 17.9186 25.355 17.8729C25.3295 17.8272 25.325 17.781 25.325 17.781C25.325 17.781 25.3619 17.8091 25.3875 17.8548Z" fill="#999999"/>
<path d="M25.2584 17.668C25.3041 17.6425 25.3502 17.6379 25.3502 17.6379C25.3502 17.6379 25.3222 17.6749 25.2765 17.7005C25.2308 17.726 25.1846 17.7305 25.1846 17.7305C25.1846 17.7305 25.2127 17.6935 25.2584 17.668Z" fill="#999999"/>
<path d="M25.3857 17.4407C25.4314 17.4152 25.4776 17.4106 25.4776 17.4106C25.4776 17.4106 25.4497 17.4476 25.4039 17.4732C25.3582 17.4987 25.312 17.5032 25.312 17.5032C25.312 17.5032 25.34 17.4662 25.3857 17.4407Z" fill="#999999"/>
<path d="M25.5936 17.8023C25.6393 17.7768 25.6854 17.7725 25.6854 17.7725C25.6854 17.7725 25.6574 17.8095 25.6117 17.835C25.566 17.8605 25.5198 17.8649 25.5198 17.8649C25.5198 17.8649 25.5479 17.8279 25.5936 17.8023Z" fill="#999999"/>
<path d="M25.4839 17.6483C25.4584 17.6026 25.4539 17.5564 25.4539 17.5564C25.4539 17.5564 25.4909 17.5843 25.5164 17.6301C25.5419 17.6758 25.5464 17.7218 25.5464 17.7218C25.5464 17.7218 25.5094 17.6939 25.4839 17.6483Z" fill="#999999"/>
<path d="M25.6653 17.3696C25.6908 17.4153 25.6952 17.4615 25.6952 17.4615C25.6952 17.4615 25.6582 17.4335 25.6327 17.3878C25.6071 17.3421 25.6028 17.2959 25.6028 17.2959C25.6028 17.2959 25.6398 17.3238 25.6653 17.3696Z" fill="#999999"/>
<path d="M25.8736 17.7314C25.8991 17.7771 25.9034 17.8233 25.9034 17.8233C25.9034 17.8233 25.8664 17.7954 25.8409 17.7496C25.8154 17.7039 25.811 17.6577 25.811 17.6577C25.811 17.6577 25.848 17.6857 25.8736 17.7314Z" fill="#999999"/>
<path d="M25.7456 17.544C25.7913 17.5184 25.8375 17.5139 25.8375 17.5139C25.8375 17.5139 25.8096 17.5509 25.7639 17.5764C25.7182 17.602 25.6721 17.6065 25.6721 17.6065C25.6721 17.6065 25.6999 17.5695 25.7456 17.544Z" fill="#999999"/>
<path d="M25.8727 17.3172C25.9185 17.2916 25.9647 17.2871 25.9647 17.2871C25.9647 17.2871 25.9367 17.3241 25.891 17.3496C25.8453 17.3752 25.7991 17.3797 25.7991 17.3797C25.7991 17.3797 25.827 17.3427 25.8727 17.3172Z" fill="#999999"/>
<path d="M26.0808 17.679C26.1266 17.6534 26.1728 17.6489 26.1728 17.6489C26.1728 17.6489 26.1448 17.6859 26.0991 17.7114C26.0534 17.737 26.0073 17.7413 26.0073 17.7413C26.0073 17.7413 26.0351 17.7045 26.0808 17.679Z" fill="#999999"/>
<path d="M25.9708 17.5245C25.9453 17.4788 25.9409 17.4326 25.9409 17.4326C25.9409 17.4326 25.9779 17.4606 26.0034 17.5063C26.029 17.552 26.0333 17.5982 26.0333 17.5982C26.0333 17.5982 25.9963 17.5703 25.9708 17.5245Z" fill="#999999"/>
<path d="M26.1565 17.8732C26.131 17.8275 26.1265 17.7812 26.1265 17.7812C26.1265 17.7812 26.1635 17.8092 26.189 17.8549C26.2145 17.9006 26.219 17.9467 26.219 17.9467C26.219 17.9467 26.182 17.9189 26.1565 17.8732Z" fill="#999999"/>
<path d="M26.1979 17.4061C26.2436 17.3806 26.2896 17.3762 26.2896 17.3762C26.2896 17.3762 26.2617 17.4132 26.2159 17.4387C26.1702 17.4643 26.124 17.4688 26.124 17.4688C26.124 17.4688 26.1521 17.4318 26.1979 17.4061Z" fill="#999999"/>
<path d="M26.4057 17.7679C26.4514 17.7424 26.4976 17.738 26.4976 17.738C26.4976 17.738 26.4697 17.775 26.424 17.8006C26.3782 17.8261 26.332 17.8304 26.332 17.8304C26.332 17.8304 26.36 17.7935 26.4057 17.7679Z" fill="#999999"/>
<path d="M26.2958 17.6127C26.2702 17.567 26.2659 17.5208 26.2659 17.5208C26.2659 17.5208 26.3029 17.5487 26.3284 17.5944C26.3539 17.6401 26.3583 17.6863 26.3583 17.6863C26.3583 17.6863 26.3213 17.6584 26.2958 17.6127Z" fill="#999999"/>
<path d="M26.4774 17.3358C26.5029 17.3815 26.5074 17.4275 26.5074 17.4275C26.5074 17.4275 26.4705 17.3996 26.4449 17.3539C26.4194 17.3082 26.415 17.262 26.415 17.262C26.415 17.262 26.4519 17.2901 26.4774 17.3358Z" fill="#999999"/>
<path d="M26.6853 17.6976C26.7108 17.7433 26.7154 17.7894 26.7154 17.7894C26.7154 17.7894 26.6784 17.7614 26.6529 17.7157C26.6273 17.67 26.6228 17.6238 26.6228 17.6238C26.6228 17.6238 26.6598 17.6519 26.6853 17.6976Z" fill="#999999"/>
<path d="M26.5573 17.5105C26.603 17.485 26.6492 17.4805 26.6492 17.4805C26.6492 17.4805 26.6213 17.5175 26.5756 17.543C26.5298 17.5685 26.4836 17.573 26.4836 17.573C26.4836 17.573 26.5116 17.536 26.5573 17.5105Z" fill="#999999"/>
<path d="M26.8928 17.6449C26.9385 17.6194 26.9847 17.615 26.9847 17.615C26.9847 17.615 26.9567 17.652 26.911 17.6775C26.8653 17.703 26.8191 17.7074 26.8191 17.7074C26.8191 17.7074 26.847 17.6706 26.8928 17.6449Z" fill="#999999"/>
<path d="M26.7832 17.4901C26.7577 17.4444 26.7532 17.3982 26.7532 17.3982C26.7532 17.3982 26.7902 17.4261 26.8157 17.4719C26.8412 17.5176 26.8457 17.5638 26.8457 17.5638C26.8457 17.5638 26.8087 17.5358 26.7832 17.4901Z" fill="#999999"/>
<path d="M26.9685 17.839C26.943 17.7933 26.9385 17.7471 26.9385 17.7471C26.9385 17.7471 26.9755 17.775 27.001 17.8207C27.0265 17.8665 27.0309 17.9127 27.0309 17.9127C27.0309 17.9127 26.994 17.8847 26.9685 17.839Z" fill="#999999"/>
<path d="M27.0121 17.4061C27.0579 17.3806 27.1041 17.3762 27.1041 17.3762C27.1041 17.3762 27.0761 17.4132 27.0304 17.4387C26.9847 17.4643 26.9385 17.4688 26.9385 17.4688C26.9385 17.4688 26.9664 17.4318 27.0121 17.4061Z" fill="#999999"/>
<path d="M27.2201 17.7679C27.2658 17.7424 27.3118 17.738 27.3118 17.738C27.3118 17.738 27.2839 17.775 27.2382 17.8006C27.1924 17.8261 27.1462 17.8304 27.1462 17.8304C27.1462 17.8304 27.1743 17.7935 27.2201 17.7679Z" fill="#999999"/>
<path d="M27.1102 17.6127C27.0847 17.567 27.0803 17.5208 27.0803 17.5208C27.0803 17.5208 27.1173 17.5487 27.1428 17.5944C27.1684 17.6401 27.1727 17.6863 27.1727 17.6863C27.1727 17.6863 27.1357 17.6584 27.1102 17.6127Z" fill="#999999"/>
<path d="M27.2919 17.3358C27.3175 17.3815 27.3218 17.4275 27.3218 17.4275C27.3218 17.4275 27.2848 17.3996 27.2593 17.3539C27.2338 17.3082 27.2292 17.262 27.2292 17.262C27.2292 17.262 27.2664 17.2901 27.2919 17.3358Z" fill="#999999"/>
<path d="M27.5 17.6974C27.5255 17.7431 27.5301 17.7891 27.5301 17.7891C27.5301 17.7891 27.4931 17.7612 27.4675 17.7155C27.442 17.6697 27.4375 17.6235 27.4375 17.6235C27.4375 17.6235 27.4745 17.6516 27.5 17.6974Z" fill="#999999"/>
<path d="M27.3718 17.5103C27.4175 17.4847 27.4637 17.4802 27.4637 17.4802C27.4637 17.4802 27.4357 17.5172 27.39 17.5427C27.3443 17.5683 27.2981 17.5728 27.2981 17.5728C27.2981 17.5728 27.326 17.5358 27.3718 17.5103Z" fill="#999999"/>
<path d="M27.7075 17.6446C27.7533 17.6191 27.7995 17.6147 27.7995 17.6147C27.7995 17.6147 27.7715 17.6517 27.7258 17.6773C27.6801 17.7028 27.634 17.7072 27.634 17.7072C27.634 17.7072 27.6618 17.6703 27.7075 17.6446Z" fill="#999999"/>
<path d="M27.5974 17.4901C27.5719 17.4444 27.5674 17.3982 27.5674 17.3982C27.5674 17.3982 27.6044 17.4261 27.6299 17.4719C27.6554 17.5176 27.66 17.5638 27.66 17.5638C27.66 17.5638 27.623 17.5358 27.5974 17.4901Z" fill="#999999"/>
<path d="M27.7828 17.8387C27.7573 17.793 27.7529 17.7468 27.7529 17.7468C27.7529 17.7468 27.7899 17.7748 27.8154 17.8205C27.841 17.8662 27.8453 17.9124 27.8453 17.9124C27.8453 17.9124 27.8083 17.8845 27.7828 17.8387Z" fill="#999999"/>
<path d="M27.8264 17.4061C27.8722 17.3806 27.9184 17.3762 27.9184 17.3762C27.9184 17.3762 27.8904 17.4132 27.8447 17.4387C27.799 17.4643 27.7529 17.4688 27.7529 17.4688C27.7529 17.4688 27.7807 17.4318 27.8264 17.4061Z" fill="#999999"/>
<path d="M28.0344 17.7679C28.0801 17.7424 28.1263 17.738 28.1263 17.738C28.1263 17.738 28.0983 17.775 28.0526 17.8006C28.0069 17.8261 27.9607 17.8304 27.9607 17.8304C27.9607 17.8304 27.9886 17.7935 28.0344 17.7679Z" fill="#999999"/>
<path d="M27.9251 17.6129C27.8995 17.5672 27.895 17.521 27.895 17.521C27.895 17.521 27.932 17.5489 27.9575 17.5947C27.9831 17.6404 27.9874 17.6866 27.9874 17.6866C27.9874 17.6866 27.9506 17.6586 27.9251 17.6129Z" fill="#999999"/>
<path d="M28.106 17.336C28.1315 17.3818 28.1359 17.4278 28.1359 17.4278C28.1359 17.4278 28.0989 17.3998 28.0733 17.3541C28.0478 17.3084 28.0435 17.2622 28.0435 17.2622C28.0435 17.2622 28.0805 17.2903 28.106 17.336Z" fill="#999999"/>
<path d="M28.3139 17.6978C28.3394 17.7436 28.3438 17.7896 28.3438 17.7896C28.3438 17.7896 28.3068 17.7617 28.2813 17.7159C28.2557 17.6702 28.2512 17.624 28.2512 17.624C28.2512 17.624 28.2884 17.6521 28.3139 17.6978Z" fill="#999999"/>
<path d="M28.1859 17.5108C28.2316 17.4852 28.2776 17.4807 28.2776 17.4807C28.2776 17.4807 28.2497 17.5177 28.204 17.5432C28.1583 17.5688 28.1121 17.5733 28.1121 17.5733C28.1121 17.5733 28.1402 17.5363 28.1859 17.5108Z" fill="#999999"/>
<path d="M28.5226 17.6446C28.5684 17.6191 28.6146 17.6147 28.6146 17.6147C28.6146 17.6147 28.5866 17.6517 28.5409 17.6773C28.4952 17.7028 28.449 17.7072 28.449 17.7072C28.449 17.7072 28.4769 17.6703 28.5226 17.6446Z" fill="#999999"/>
<path d="M28.4124 17.4901C28.3868 17.4444 28.3823 17.3982 28.3823 17.3982C28.3823 17.3982 28.4193 17.4261 28.4448 17.4719C28.4704 17.5176 28.4749 17.5638 28.4749 17.5638C28.4749 17.5638 28.4379 17.5358 28.4124 17.4901Z" fill="#999999"/>
<path d="M28.598 17.8387C28.5725 17.793 28.5681 17.7468 28.5681 17.7468C28.5681 17.7468 28.6051 17.7748 28.6306 17.8205C28.6562 17.8662 28.6605 17.9124 28.6605 17.9124C28.6605 17.9124 28.6237 17.8845 28.598 17.8387Z" fill="#999999"/>
<path d="M28.6413 17.4061C28.687 17.3806 28.7332 17.3762 28.7332 17.3762C28.7332 17.3762 28.7053 17.4132 28.6595 17.4387C28.6138 17.4643 28.5676 17.4688 28.5676 17.4688C28.5676 17.4688 28.5956 17.4318 28.6413 17.4061Z" fill="#999999"/>
<path d="M28.8491 17.7679C28.8949 17.7424 28.9411 17.738 28.9411 17.738C28.9411 17.738 28.9131 17.775 28.8674 17.8006C28.8217 17.8261 28.7756 17.8304 28.7756 17.8304C28.7756 17.8304 28.8034 17.7935 28.8491 17.7679Z" fill="#999999"/>
<path d="M28.7393 17.6127C28.7138 17.567 28.7092 17.5208 28.7092 17.5208C28.7092 17.5208 28.7462 17.5487 28.7717 17.5944C28.7973 17.6401 28.8016 17.6863 28.8016 17.6863C28.8016 17.6863 28.7648 17.6584 28.7393 17.6127Z" fill="#999999"/>
<path d="M28.9207 17.336C28.9462 17.3818 28.9506 17.4278 28.9506 17.4278C28.9506 17.4278 28.9136 17.3998 28.888 17.3541C28.8625 17.3084 28.8582 17.2622 28.8582 17.2622C28.8582 17.2622 28.8951 17.2903 28.9207 17.336Z" fill="#999999"/>
<path d="M29.1279 17.6978C29.1535 17.7436 29.1578 17.7896 29.1578 17.7896C29.1578 17.7896 29.1208 17.7617 29.0953 17.7159C29.0698 17.6702 29.0654 17.624 29.0654 17.624C29.0654 17.624 29.1024 17.6521 29.1279 17.6978Z" fill="#999999"/>
<path d="M29.0007 17.5108C29.0464 17.4852 29.0926 17.4807 29.0926 17.4807C29.0926 17.4807 29.0646 17.5177 29.0189 17.5432C28.9732 17.5688 28.927 17.5733 28.927 17.5733C28.927 17.5733 28.9549 17.5363 29.0007 17.5108Z" fill="#999999"/>
<path d="M29.3359 17.6451C29.3816 17.6196 29.4278 17.6152 29.4278 17.6152C29.4278 17.6152 29.3998 17.6522 29.3541 17.6778C29.3084 17.7033 29.2622 17.7076 29.2622 17.7076C29.2622 17.7076 29.2902 17.6708 29.3359 17.6451Z" fill="#999999"/>
<path d="M29.2252 17.4908C29.1997 17.4451 29.1953 17.3989 29.1953 17.3989C29.1953 17.3989 29.2323 17.4269 29.2578 17.4726C29.2834 17.5183 29.2877 17.5645 29.2877 17.5645C29.2877 17.5645 29.2507 17.5366 29.2252 17.4908Z" fill="#999999"/>
<path d="M29.4115 17.8392C29.386 17.7935 29.3816 17.7473 29.3816 17.7473C29.3816 17.7473 29.4186 17.7753 29.4441 17.821C29.4696 17.8667 29.474 17.9129 29.474 17.9129C29.474 17.9129 29.4372 17.885 29.4115 17.8392Z" fill="#999999"/>
<path d="M29.456 17.4061C29.5017 17.3806 29.5479 17.3762 29.5479 17.3762C29.5479 17.3762 29.52 17.4132 29.4742 17.4387C29.4285 17.4643 29.3823 17.4688 29.3823 17.4688C29.3823 17.4688 29.4103 17.4318 29.456 17.4061Z" fill="#999999"/>
<path d="M29.6642 17.7679C29.71 17.7424 29.7562 17.738 29.7562 17.738C29.7562 17.738 29.7282 17.775 29.6825 17.8006C29.6368 17.8261 29.5906 17.8304 29.5906 17.8304C29.5906 17.8304 29.6185 17.7935 29.6642 17.7679Z" fill="#999999"/>
<path d="M29.5542 17.6127C29.5287 17.567 29.5242 17.5208 29.5242 17.5208C29.5242 17.5208 29.5612 17.5487 29.5867 17.5944C29.6122 17.6401 29.6167 17.6863 29.6167 17.6863C29.6167 17.6863 29.5797 17.6584 29.5542 17.6127Z" fill="#999999"/>
<path d="M29.7352 17.3358C29.7607 17.3815 29.7653 17.4275 29.7653 17.4275C29.7653 17.4275 29.7283 17.3996 29.7027 17.3539C29.6772 17.3082 29.6729 17.262 29.6729 17.262C29.6729 17.262 29.7097 17.2901 29.7352 17.3358Z" fill="#999999"/>
<path d="M29.9431 17.6976C29.9687 17.7433 29.973 17.7894 29.973 17.7894C29.973 17.7894 29.936 17.7614 29.9105 17.7157C29.885 17.67 29.8806 17.6238 29.8806 17.6238C29.8806 17.6238 29.9176 17.6519 29.9431 17.6976Z" fill="#999999"/>
<path d="M29.8152 17.5105C29.8609 17.485 29.9071 17.4805 29.9071 17.4805C29.9071 17.4805 29.8792 17.5175 29.8335 17.543C29.7877 17.5685 29.7417 17.573 29.7417 17.573C29.7417 17.573 29.7695 17.536 29.8152 17.5105Z" fill="#999999"/>
<path d="M30.1515 17.6446C30.1973 17.6191 30.2435 17.6147 30.2435 17.6147C30.2435 17.6147 30.2155 17.6517 30.1698 17.6773C30.1241 17.7028 30.0779 17.7072 30.0779 17.7072C30.0779 17.7072 30.1058 17.6703 30.1515 17.6446Z" fill="#999999"/>
<path d="M30.0406 17.4904C30.0151 17.4446 30.0107 17.3984 30.0107 17.3984C30.0107 17.3984 30.0477 17.4264 30.0733 17.4721C30.0988 17.5178 30.1033 17.564 30.1033 17.564C30.1033 17.564 30.0662 17.5361 30.0406 17.4904Z" fill="#999999"/>
<path d="M30.2268 17.8387C30.2013 17.793 30.1968 17.7468 30.1968 17.7468C30.1968 17.7468 30.2338 17.7748 30.2593 17.8205C30.2848 17.8662 30.2893 17.9124 30.2893 17.9124C30.2893 17.9124 30.2524 17.8845 30.2268 17.8387Z" fill="#999999"/>
<path d="M30.2699 17.4061C30.3156 17.3806 30.3616 17.3762 30.3616 17.3762C30.3616 17.3762 30.3337 17.4132 30.288 17.4387C30.2422 17.4643 30.196 17.4688 30.196 17.4688C30.196 17.4688 30.2242 17.4318 30.2699 17.4061Z" fill="#999999"/>
<path d="M30.4777 17.7679C30.5234 17.7424 30.5696 17.738 30.5696 17.738C30.5696 17.738 30.5417 17.775 30.496 17.8006C30.4503 17.8261 30.4041 17.8304 30.4041 17.8304C30.4041 17.8304 30.4322 17.7935 30.4777 17.7679Z" fill="#999999"/>
<path d="M30.3677 17.6127C30.3422 17.567 30.3376 17.5208 30.3376 17.5208C30.3376 17.5208 30.3746 17.5487 30.4002 17.5944C30.4257 17.6401 30.4301 17.6863 30.4301 17.6863C30.4301 17.6863 30.3932 17.6584 30.3677 17.6127Z" fill="#999999"/>
<path d="M30.5493 17.336C30.5748 17.3818 30.5791 17.4278 30.5791 17.4278C30.5791 17.4278 30.5421 17.3998 30.5166 17.3541C30.4911 17.3084 30.4866 17.2622 30.4866 17.2622C30.4866 17.2622 30.5237 17.2903 30.5493 17.336Z" fill="#999999"/>
<path d="M30.7572 17.6978C30.7827 17.7436 30.7872 17.7896 30.7872 17.7896C30.7872 17.7896 30.7502 17.7617 30.7247 17.7159C30.6992 17.6702 30.6948 17.624 30.6948 17.624C30.6948 17.624 30.7317 17.6521 30.7572 17.6978Z" fill="#999999"/>
<path d="M30.6285 17.5108C30.6742 17.4852 30.7203 17.4807 30.7203 17.4807C30.7203 17.4807 30.6923 17.5177 30.6466 17.5432C30.6009 17.5688 30.5547 17.5733 30.5547 17.5733C30.5547 17.5733 30.5828 17.5363 30.6285 17.5108Z" fill="#999999"/>
<path d="M30.9647 17.6451C31.0104 17.6196 31.0565 17.6152 31.0565 17.6152C31.0565 17.6152 31.0285 17.6522 30.9828 17.6778C30.9371 17.7033 30.8909 17.7076 30.8909 17.7076C30.8909 17.7076 30.919 17.6708 30.9647 17.6451Z" fill="#999999"/>
<path d="M30.8546 17.4908C30.8291 17.4451 30.8247 17.3989 30.8247 17.3989C30.8247 17.3989 30.8617 17.4269 30.8872 17.4726C30.9128 17.5183 30.9171 17.5645 30.9171 17.5645C30.9171 17.5645 30.8801 17.5366 30.8546 17.4908Z" fill="#999999"/>
<path d="M31.0403 17.8392C31.0148 17.7935 31.0103 17.7473 31.0103 17.7473C31.0103 17.7473 31.0472 17.7753 31.0728 17.821C31.0983 17.8667 31.1028 17.9129 31.1028 17.9129C31.1028 17.9129 31.0658 17.885 31.0403 17.8392Z" fill="#999999"/>
<path d="M31.0847 17.4061C31.1304 17.3806 31.1766 17.3762 31.1766 17.3762C31.1766 17.3762 31.1486 17.4132 31.1029 17.4387C31.0572 17.4643 31.011 17.4688 31.011 17.4688C31.011 17.4688 31.0389 17.4318 31.0847 17.4061Z" fill="#999999"/>
<path d="M31.2927 17.7679C31.3384 17.7424 31.3846 17.738 31.3846 17.738C31.3846 17.738 31.3566 17.775 31.3109 17.8006C31.2652 17.8261 31.219 17.8304 31.219 17.8304C31.219 17.8304 31.2471 17.7935 31.2927 17.7679Z" fill="#999999"/>
<path d="M31.1827 17.6127C31.1572 17.567 31.1528 17.5208 31.1528 17.5208C31.1528 17.5208 31.1898 17.5487 31.2154 17.5944C31.2409 17.6401 31.2454 17.6863 31.2454 17.6863C31.2454 17.6863 31.2082 17.6584 31.1827 17.6127Z" fill="#999999"/>
<path d="M31.3645 17.3358C31.3901 17.3815 31.3946 17.4275 31.3946 17.4275C31.3946 17.4275 31.3576 17.3996 31.3321 17.3539C31.3065 17.3082 31.302 17.262 31.302 17.262C31.302 17.262 31.339 17.2901 31.3645 17.3358Z" fill="#999999"/>
<path d="M31.572 17.6974C31.5976 17.7431 31.6021 17.7891 31.6021 17.7891C31.6021 17.7891 31.5651 17.7612 31.5396 17.7155C31.514 17.6697 31.5095 17.6235 31.5095 17.6235C31.5095 17.6235 31.5465 17.6516 31.572 17.6974Z" fill="#999999"/>
<path d="M31.4443 17.5105C31.49 17.485 31.5362 17.4805 31.5362 17.4805C31.5362 17.4805 31.5082 17.5175 31.4625 17.543C31.4168 17.5685 31.3706 17.573 31.3706 17.573C31.3706 17.573 31.3986 17.536 31.4443 17.5105Z" fill="#999999"/>
<path d="M31.6709 17.4901C31.6454 17.4444 31.6409 17.3982 31.6409 17.3982C31.6409 17.3982 31.6779 17.4261 31.7034 17.4719C31.7289 17.5176 31.7334 17.5638 31.7334 17.5638C31.7334 17.5638 31.6964 17.5358 31.6709 17.4901Z" fill="#999999"/>
</g>
<defs>
<linearGradient id="paint0_linear_506_13529" x1="23.9545" y1="1.26617" x2="40.9822" y2="1.58763" gradientUnits="userSpaceOnUse">
<stop stop-color="#C7C5C5"/>
<stop offset="0.0359" stop-color="#676767"/>
<stop offset="0.1123" stop-color="white"/>
<stop offset="0.3019" stop-color="#929292"/>
<stop offset="0.492" stop-color="white"/>
<stop offset="0.6257" stop-color="#676767"/>
<stop offset="0.7701" stop-color="#929292"/>
<stop offset="0.8233" stop-color="#C7C5C5"/>
<stop offset="1" stop-color="#343433"/>
</linearGradient>
<linearGradient id="paint1_linear_506_13529" x1="28.4816" y1="1.72349" x2="28.4816" y2="1.57283" gradientUnits="userSpaceOnUse">
<stop offset="0.0051"/>
<stop offset="1" stop-opacity="0"/>
</linearGradient>
<linearGradient id="paint2_linear_506_13529" x1="25.0061" y1="1.34329" x2="25.5353" y2="1.34329" gradientUnits="userSpaceOnUse">
<stop offset="0.0051"/>
<stop offset="1" stop-opacity="0"/>
</linearGradient>
<linearGradient id="paint3_linear_506_13529" x1="40.3417" y1="3.646" x2="40.3645" y2="4.1614" gradientUnits="userSpaceOnUse">
<stop stop-color="#C7C5C5"/>
<stop offset="0.0359" stop-color="#676767"/>
<stop offset="0.1123" stop-color="white"/>
<stop offset="0.3019" stop-color="#929292"/>
<stop offset="0.492" stop-color="white"/>
<stop offset="0.6809" stop-color="#676767"/>
<stop offset="0.7701" stop-color="#929292"/>
<stop offset="0.8233" stop-color="#C7C5C5"/>
<stop offset="1" stop-color="#343433"/>
</linearGradient>
<linearGradient id="paint4_linear_506_13529" x1="40.3418" y1="5.02204" x2="40.3644" y2="4.50973" gradientUnits="userSpaceOnUse">
<stop stop-color="#C7C5C5"/>
<stop offset="0.0359" stop-color="#676767"/>
<stop offset="0.1123" stop-color="white"/>
<stop offset="0.3019" stop-color="#929292"/>
<stop offset="0.492" stop-color="white"/>
<stop offset="0.6809" stop-color="#676767"/>
<stop offset="0.7701" stop-color="#929292"/>
<stop offset="0.8233" stop-color="#C7C5C5"/>
<stop offset="1" stop-color="#343433"/>
</linearGradient>
<linearGradient id="paint5_linear_506_13529" x1="40.2004" y1="3.53578" x2="40.2004" y2="6.02785" gradientUnits="userSpaceOnUse">
<stop stop-color="#C7C5C5"/>
<stop offset="0.0359" stop-color="#676767"/>
<stop offset="0.1123" stop-color="white"/>
<stop offset="0.3019" stop-color="#929292"/>
<stop offset="0.492" stop-color="white"/>
<stop offset="0.6257" stop-color="#676767"/>
<stop offset="0.7701" stop-color="#929292"/>
<stop offset="0.8233" stop-color="#C7C5C5"/>
<stop offset="1" stop-color="#343433"/>
</linearGradient>
<linearGradient id="paint6_linear_506_13529" x1="40.3417" y1="13.9053" x2="40.3645" y2="14.4207" gradientUnits="userSpaceOnUse">
<stop stop-color="#C7C5C5"/>
<stop offset="0.0359" stop-color="#676767"/>
<stop offset="0.1123" stop-color="white"/>
<stop offset="0.3019" stop-color="#929292"/>
<stop offset="0.492" stop-color="white"/>
<stop offset="0.6809" stop-color="#676767"/>
<stop offset="0.7701" stop-color="#929292"/>
<stop offset="0.8233" stop-color="#C7C5C5"/>
<stop offset="1" stop-color="#343433"/>
</linearGradient>
<linearGradient id="paint7_linear_506_13529" x1="40.3418" y1="15.2811" x2="40.3644" y2="14.7688" gradientUnits="userSpaceOnUse">
<stop stop-color="#C7C5C5"/>
<stop offset="0.0359" stop-color="#676767"/>
<stop offset="0.1123" stop-color="white"/>
<stop offset="0.3019" stop-color="#929292"/>
<stop offset="0.492" stop-color="white"/>
<stop offset="0.6809" stop-color="#676767"/>
<stop offset="0.7701" stop-color="#929292"/>
<stop offset="0.8233" stop-color="#C7C5C5"/>
<stop offset="1" stop-color="#343433"/>
</linearGradient>
<linearGradient id="paint8_linear_506_13529" x1="40.2004" y1="13.7951" x2="40.2004" y2="16.2872" gradientUnits="userSpaceOnUse">
<stop stop-color="#C7C5C5"/>
<stop offset="0.0359" stop-color="#676767"/>
<stop offset="0.1123" stop-color="white"/>
<stop offset="0.3019" stop-color="#929292"/>
<stop offset="0.492" stop-color="white"/>
<stop offset="0.6257" stop-color="#676767"/>
<stop offset="0.7701" stop-color="#929292"/>
<stop offset="0.8233" stop-color="#C7C5C5"/>
<stop offset="1" stop-color="#343433"/>
</linearGradient>
<linearGradient id="paint9_linear_506_13529" x1="39.0981" y1="0.777199" x2="38.9775" y2="25.7911" gradientUnits="userSpaceOnUse">
<stop stop-color="#C7C5C5"/>
<stop offset="0.0359" stop-color="#676767"/>
<stop offset="0.1123" stop-color="white"/>
<stop offset="0.3019" stop-color="#929292"/>
<stop offset="0.492" stop-color="white"/>
<stop offset="0.6257" stop-color="#676767"/>
<stop offset="0.7701" stop-color="#929292"/>
<stop offset="0.8233" stop-color="#C7C5C5"/>
<stop offset="1" stop-color="#343433"/>
</linearGradient>
<linearGradient id="paint10_linear_506_13529" x1="39.0981" y1="0.777199" x2="38.9775" y2="25.7911" gradientUnits="userSpaceOnUse">
<stop stop-color="#C7C5C5"/>
<stop offset="0.0359" stop-color="#676767"/>
<stop offset="0.1123" stop-color="white"/>
<stop offset="0.3019" stop-color="#929292"/>
<stop offset="0.492" stop-color="white"/>
<stop offset="0.6257" stop-color="#676767"/>
<stop offset="0.7701" stop-color="#929292"/>
<stop offset="0.8233" stop-color="#C7C5C5"/>
<stop offset="1" stop-color="#343433"/>
</linearGradient>
<radialGradient id="paint11_radial_506_13529" cx="0" cy="0" r="1" gradientUnits="userSpaceOnUse" gradientTransform="translate(32.9225 -0.209548) rotate(90) scale(18.0444 18.0446)">
<stop offset="0.0102"/>
<stop offset="1" stop-opacity="0"/>
</radialGradient>
<linearGradient id="paint12_linear_506_13529" x1="32.387" y1="2.1596" x2="32.387" y2="16.7709" gradientUnits="userSpaceOnUse">
<stop offset="0.3386" stop-color="white" stop-opacity="0"/>
<stop offset="0.6521" stop-color="white"/>
</linearGradient>
<linearGradient id="paint13_linear_506_13529" x1="34.3433" y1="5.65819" x2="34.3806" y2="5.15947" gradientUnits="userSpaceOnUse">
<stop offset="0.0051"/>
<stop offset="1" stop-opacity="0"/>
</linearGradient>
<linearGradient id="paint14_linear_506_13529" x1="34.3433" y1="13.2653" x2="34.3806" y2="13.764" gradientUnits="userSpaceOnUse">
<stop offset="0.0051" stop-color="#999999"/>
<stop offset="1" stop-color="#999999" stop-opacity="0"/>
</linearGradient>
<linearGradient id="paint15_linear_506_13529" x1="34.7084" y1="9.46535" x2="34.2784" y2="9.46535" gradientUnits="userSpaceOnUse">
<stop offset="0.0051"/>
<stop offset="1" stop-opacity="0"/>
</linearGradient>
<radialGradient id="paint16_radial_506_13529" cx="0" cy="0" r="1" gradientUnits="userSpaceOnUse" gradientTransform="translate(31.7299 2.63373) rotate(90) scale(11.9321 11.9322)">
<stop stop-color="white" stop-opacity="0"/>
<stop offset="1" stop-color="white"/>
</radialGradient>
<radialGradient id="paint17_radial_506_13529" cx="0" cy="0" r="1" gradientUnits="userSpaceOnUse" gradientTransform="translate(31.049 4.00608) rotate(90) scale(11.4863 11.4864)">
<stop offset="0.0102"/>
<stop offset="1" stop-opacity="0"/>
</radialGradient>
<linearGradient id="paint18_linear_506_13529" x1="29.4507" y1="2.00385" x2="29.4507" y2="2.06233" gradientUnits="userSpaceOnUse">
<stop offset="0.0051"/>
<stop offset="1" stop-opacity="0"/>
</linearGradient>
<linearGradient id="paint19_linear_506_13529" x1="29.3448" y1="2.12167" x2="29.3448" y2="2.36262" gradientUnits="userSpaceOnUse">
<stop stop-color="white"/>
<stop offset="1" stop-color="white" stop-opacity="0"/>
</linearGradient>
<linearGradient id="paint20_linear_506_13529" x1="29.3448" y1="2.52318" x2="29.3448" y2="2.84852" gradientUnits="userSpaceOnUse">
<stop stop-opacity="0"/>
<stop offset="0.9898"/>
</linearGradient>
<linearGradient id="paint21_linear_506_13529" x1="29.4515" y1="16.9669" x2="29.4515" y2="16.9085" gradientUnits="userSpaceOnUse">
<stop offset="0.0051"/>
<stop offset="1" stop-opacity="0"/>
</linearGradient>
<linearGradient id="paint22_linear_506_13529" x1="29.3455" y1="16.8493" x2="29.3455" y2="16.6084" gradientUnits="userSpaceOnUse">
<stop stop-color="white"/>
<stop offset="1" stop-color="white" stop-opacity="0"/>
</linearGradient>
<linearGradient id="paint23_linear_506_13529" x1="29.3455" y1="16.4478" x2="29.3455" y2="16.1225" gradientUnits="userSpaceOnUse">
<stop stop-opacity="0"/>
<stop offset="0.9898"/>
</linearGradient>
<linearGradient id="paint24_linear_506_13529" x1="32.5672" y1="1.25688" x2="32.4429" y2="1.30209" gradientUnits="userSpaceOnUse">
<stop stop-color="white"/>
<stop offset="1" stop-color="white" stop-opacity="0"/>
</linearGradient>
<linearGradient id="paint25_linear_506_13529" x1="32.3856" y1="1.71114" x2="31.9298" y2="0.897437" gradientUnits="userSpaceOnUse">
<stop offset="0.0051"/>
<stop offset="1" stop-opacity="0"/>
</linearGradient>
<linearGradient id="paint26_linear_506_13529" x1="32.5675" y1="17.7291" x2="32.4432" y2="17.6839" gradientUnits="userSpaceOnUse">
<stop stop-color="white"/>
<stop offset="1" stop-color="white" stop-opacity="0"/>
</linearGradient>
<linearGradient id="paint27_linear_506_13529" x1="32.3859" y1="17.2751" x2="31.93" y2="18.0888" gradientUnits="userSpaceOnUse">
<stop offset="0.0051"/>
<stop offset="1" stop-opacity="0"/>
</linearGradient>
<linearGradient id="paint28_linear_506_13529" x1="25.8416" y1="9.38452" x2="26.2188" y2="9.38452" gradientUnits="userSpaceOnUse">
<stop stop-opacity="0"/>
<stop offset="0.9898"/>
</linearGradient>
<radialGradient id="paint29_radial_506_13529" cx="0" cy="0" r="1" gradientUnits="userSpaceOnUse" gradientTransform="translate(26.8344 9.4652) rotate(90) scale(3.41311 3.41313)">
<stop stop-color="white" stop-opacity="0"/>
<stop offset="1" stop-color="white"/>
</radialGradient>
<linearGradient id="paint30_linear_506_13529" x1="26.4283" y1="9.4652" x2="26.1191" y2="9.4652" gradientUnits="userSpaceOnUse">
<stop stop-opacity="0"/>
<stop offset="0.9898"/>
</linearGradient>
<linearGradient id="paint31_linear_506_13529" x1="27.1369" y1="4.88568" x2="27.1369" y2="14.0447" gradientUnits="userSpaceOnUse">
<stop stop-color="white" stop-opacity="0"/>
<stop offset="1" stop-color="white"/>
</linearGradient>
<linearGradient id="paint32_linear_506_13529" x1="26.5326" y1="10.9791" x2="26.5326" y2="5.35737" gradientUnits="userSpaceOnUse">
<stop stop-color="white" stop-opacity="0"/>
<stop offset="1" stop-color="white"/>
</linearGradient>
<radialGradient id="paint33_radial_506_13529" cx="0" cy="0" r="1" gradientUnits="userSpaceOnUse" gradientTransform="translate(23.3985 17.31) rotate(90) scale(21.8 21.8002)">
<stop stop-color="white" stop-opacity="0"/>
<stop offset="1" stop-color="white"/>
</radialGradient>
<radialGradient id="paint34_radial_506_13529" cx="0" cy="0" r="1" gradientUnits="userSpaceOnUse" gradientTransform="translate(9.49501 -4.22809) rotate(90) scale(31.6921 31.6923)">
<stop offset="0.0102"/>
<stop offset="1" stop-opacity="0"/>
</radialGradient>
<linearGradient id="paint35_linear_506_13529" x1="1.07701" y1="3.52" x2="0.79071" y2="1.60628" gradientUnits="userSpaceOnUse">
<stop stop-color="white" stop-opacity="0"/>
<stop offset="1" stop-color="white"/>
</linearGradient>
<linearGradient id="paint36_linear_506_13529" x1="1.03645" y1="2.73844" x2="0.933699" y2="2.73844" gradientUnits="userSpaceOnUse">
<stop stop-color="white" stop-opacity="0"/>
<stop offset="1" stop-color="white"/>
</linearGradient>
<linearGradient id="paint37_linear_506_13529" x1="1.07749" y1="16.7004" x2="0.7912" y2="14.7866" gradientUnits="userSpaceOnUse">
<stop stop-color="white" stop-opacity="0"/>
<stop offset="1" stop-color="white"/>
</linearGradient>
<linearGradient id="paint38_linear_506_13529" x1="1.03645" y1="15.9183" x2="0.933699" y2="15.9183" gradientUnits="userSpaceOnUse">
<stop stop-color="white" stop-opacity="0"/>
<stop offset="1" stop-color="white"/>
</linearGradient>
<linearGradient id="paint39_linear_506_13529" x1="0.976971" y1="9.2797" x2="1.1177" y2="9.2797" gradientUnits="userSpaceOnUse">
<stop stop-opacity="0"/>
<stop offset="0.9898"/>
</linearGradient>
<linearGradient id="paint40_linear_506_13529" x1="23.9545" y1="17.7142" x2="40.9822" y2="17.3927" gradientUnits="userSpaceOnUse">
<stop stop-color="#C7C5C5"/>
<stop offset="0.0359" stop-color="#676767"/>
<stop offset="0.1123" stop-color="white"/>
<stop offset="0.3019" stop-color="#929292"/>
<stop offset="0.492" stop-color="white"/>
<stop offset="0.6257" stop-color="#676767"/>
<stop offset="0.7701" stop-color="#929292"/>
<stop offset="0.8233" stop-color="#C7C5C5"/>
<stop offset="1" stop-color="#343433"/>
</linearGradient>
<linearGradient id="paint41_linear_506_13529" x1="28.4816" y1="17.2575" x2="28.4816" y2="17.4082" gradientUnits="userSpaceOnUse">
<stop offset="0.0051"/>
<stop offset="1" stop-opacity="0"/>
</linearGradient>
<linearGradient id="paint42_linear_506_13529" x1="25.0061" y1="17.6377" x2="25.5353" y2="17.6377" gradientUnits="userSpaceOnUse">
<stop offset="0.0051"/>
<stop offset="1" stop-opacity="0"/>
</linearGradient>
</defs>
</svg>
