<svg width="172" height="139" viewBox="0 0 172 139" fill="none" xmlns="http://www.w3.org/2000/svg">
<path opacity="0.6" d="M25.1104 120C-8.37012 100.67 -8.37012 69.3299 25.1104 49.9999C58.5908 30.6699 112.873 30.67 146.354 49.9999C179.834 69.3299 179.834 100.67 146.354 120C112.873 139.33 58.5908 139.33 25.1104 120Z" fill="#1DCA96"/>
<g filter="url(#filter0_d_685_1484)">
<path d="M110.849 85.616V37.8525L79.8256 55.7635V103.528L110.849 85.616Z" fill="#FAFAFA"/>
<path d="M33.2903 76.6598L40.8018 72.4363L37.8918 69.4468L33.2908 70.6898L32.5178 75.1673L33.2903 76.6598Z" fill="#464061"/>
<path d="M36.5808 73.7548L41.3688 70.9638C41.3733 70.9613 41.3773 70.9588 41.3813 70.9563L41.4393 70.9223L41.4378 70.9273C42.5213 70.3123 43.9003 70.2143 45.1453 70.8968C48.9268 72.9688 51.2783 76.9378 51.2783 81.2503V81.8093C51.2783 83.2413 50.5198 84.4023 49.4538 85.0528L49.4653 85.0573L44.4633 87.9573L44.7713 84.5883C41.4988 82.4043 39.5063 78.7398 39.5063 74.7853V74.4278L36.5808 73.7548Z" fill="#2A264B"/>
<path d="M46.2432 84.176V84.735C46.2432 87.7105 42.9837 89.537 40.4457 87.9835L40.1132 87.78C36.6082 85.6345 34.4707 81.8205 34.4707 77.711V77.1625C34.4707 74.268 37.5712 72.4315 40.1097 73.822C43.8917 75.8945 46.2432 79.864 46.2432 84.176Z" fill="#464061"/>
<path d="M43.7305 82.7983V83.1189C43.7305 84.8239 41.8625 85.8708 40.4085 84.9803L40.218 84.8639C38.2095 83.6344 36.9845 81.4488 36.9845 79.0938V78.7798C36.9845 77.1213 38.7615 76.0689 40.216 76.8659C42.383 78.0529 43.7305 80.3273 43.7305 82.7983Z" fill="white"/>
<path d="M42.0731 87.4482C43.9261 87.4477 45.4336 85.9412 45.4336 84.0897V83.6257C45.4336 79.9767 43.4456 76.6207 40.2456 74.8672C39.7406 74.5907 39.1996 74.4502 38.6376 74.4502C36.7866 74.4502 35.2806 75.9567 35.2806 77.8082V78.2632C35.2806 81.7147 37.1096 84.9782 40.0536 86.7807L40.3296 86.9497C40.8616 87.2757 41.4646 87.4482 42.0731 87.4482ZM38.6376 74.8387C39.1336 74.8387 39.6116 74.9632 40.0591 75.2077C43.1346 76.8927 45.0456 80.1187 45.0456 83.6257V84.0897C45.0456 85.7272 43.7126 87.0597 42.0741 87.0597C41.5376 87.0597 41.0041 86.9072 40.5326 86.6187L40.2566 86.4497C37.4271 84.7177 35.6696 81.5807 35.6696 78.2632V77.8082C35.6686 76.1707 37.0006 74.8387 38.6376 74.8387Z" fill="#DAD7D2"/>
<path d="M42.1899 81.954V82.1281C42.1899 83.0546 41.1754 83.6231 40.3849 83.1396L40.2814 83.0761C39.1904 82.4081 38.5249 81.2205 38.5249 79.941V79.7705C38.5249 78.8695 39.4904 78.2975 40.2804 78.7305C41.4579 79.376 42.1899 80.6115 42.1899 81.954Z" fill="#464061"/>
<path d="M48.8022 85.6161C48.7577 80.2911 45.8997 75.3796 41.2827 72.7141L40.8022 72.4366C37.4952 70.5271 33.3762 72.8721 33.2907 76.6606L28.1202 73.6751L28.1207 25.9116L79.8262 55.7636V103.528L48.8022 85.6161Z" fill="#F3F3F1"/>
<path d="M53.9728 46.8081L74.6548 58.7491V76.8716L53.9728 64.7196V46.8081Z" fill="#4A93DC"/>
<path d="M73.8784 59.1963L54.7489 48.1523L54.7494 64.2748L73.8784 75.5148V59.1963Z" fill="#74C6F6"/>
<path d="M33.2902 40.8375L38.4612 43.8225V37.8525L43.6327 40.837V46.808L48.8027 49.793V55.869L43.6322 52.932L43.6317 58.749L38.4612 55.7635V49.9945L33.2902 47.057V40.8375Z" fill="#1DCA96"/>
<path d="M79.8257 55.7636L28.1202 25.9116V28.0671L79.8257 57.9191V55.7636Z" fill="#1DCA96"/>
<path d="M87.7102 103.262L92.4982 100.471C92.5022 100.469 92.5067 100.466 92.5107 100.464L92.5687 100.43L92.5672 100.435C93.6507 99.8196 95.0297 99.7216 96.2747 100.404C100.056 102.476 102.408 106.445 102.408 110.758V111.317C102.408 112.749 101.649 113.91 100.583 114.561L100.595 114.565L95.5927 117.465L95.9007 114.096C92.6282 111.913 90.6357 108.248 90.6357 104.293V103.936L87.7102 103.262Z" fill="#2A264B"/>
<path d="M97.3726 113.684V114.243C97.3726 117.218 94.1131 119.045 91.5751 117.491L91.2426 117.288C87.7376 115.142 85.6001 111.328 85.6001 107.219V106.67C85.6001 103.776 88.7006 101.939 91.2391 103.33C95.0216 105.402 97.3726 109.371 97.3726 113.684Z" fill="#464061"/>
<path d="M94.8599 112.306V112.626C94.8599 114.331 92.9924 115.378 91.5379 114.488L91.3474 114.371C89.3389 113.142 88.1139 110.956 88.1139 108.601V108.287C88.1139 106.629 89.8909 105.576 91.3454 106.373C93.5124 107.56 94.8599 109.835 94.8599 112.306Z" fill="white"/>
<path d="M93.203 116.956C95.056 116.955 96.5635 115.449 96.5635 113.597V113.133C96.5635 109.485 94.5755 106.128 91.3755 104.375C90.8705 104.098 90.3295 103.958 89.7675 103.958C87.9165 103.958 86.4105 105.464 86.4105 107.315V107.77C86.4105 111.222 88.2395 114.486 91.1835 116.288L91.459 116.457C91.9915 116.783 92.5945 116.956 93.203 116.956ZM89.767 104.346C90.263 104.346 90.741 104.471 91.1885 104.716C94.264 106.401 96.175 109.626 96.175 113.133V113.597C96.175 115.235 94.842 116.567 93.203 116.567C92.666 116.567 92.133 116.414 91.6615 116.126L91.386 115.957C88.5565 114.224 86.799 111.087 86.799 107.77V107.315C86.7985 105.678 88.13 104.346 89.767 104.346Z" fill="#DAD7D2"/>
<path d="M93.3193 111.461V111.635C93.3193 112.562 92.3048 113.13 91.5143 112.647L91.4108 112.583C90.3193 111.915 89.6543 110.728 89.6543 109.448V109.278C89.6543 108.377 90.6198 107.805 91.4098 108.238C92.5873 108.883 93.3193 110.119 93.3193 111.461Z" fill="#464061"/>
<path d="M143.488 96.6647L136.816 92.7812L104.207 111.658L110.921 115.469L143.488 96.6647Z" fill="#464061"/>
<path d="M132.996 67.6365V72.838C132.996 73.0825 132.866 73.308 132.654 73.43L131.086 74.3355C130.63 74.5985 130.06 74.2695 130.06 73.7435V68.542C130.06 68.2975 130.191 68.072 130.402 67.95L131.971 67.0445C132.426 66.781 132.996 67.11 132.996 67.6365Z" fill="#2A264B"/>
<path d="M141.94 103.465V89.1092C141.94 87.1402 141.278 85.2287 140.06 83.6822L131.963 73.4027L121.173 49.6822L110.849 43.8232L110.848 85.6162L141.94 103.465Z" fill="#FAFAFA"/>
<path d="M141.94 103.465L110.917 121.376L100.941 91.3134L131.963 73.4019L141.94 103.465Z" fill="#FAFAFA"/>
<path d="M136.702 93.104L116.02 105.045V109.497L136.702 97.5565V93.104Z" fill="#464061"/>
<path d="M84.9965 106.513L93.377 101.894L88.114 98.7427L82.411 103.024L84.9965 106.513Z" fill="#464061"/>
<path d="M79.826 103.527L84.9965 106.512C85.082 102.724 89.2005 100.379 92.508 102.288L92.9885 102.566C97.6055 105.231 100.464 110.143 100.508 115.468L110.917 121.376V107.02C110.917 105.051 110.255 103.139 109.037 101.593L100.941 91.3134L90.1505 67.5929L79.8265 61.7339L79.826 103.527Z" fill="#F3F3F1"/>
<path d="M79.826 91.5027V85.6162L109.935 103C110.573 104.237 110.917 105.613 110.917 107.021V109.424L79.826 91.5027Z" fill="#1DCA96"/>
<path d="M28.1202 55.7642L79.8262 85.6162V91.5027L28.1202 61.6997V55.7642Z" fill="#1DCA96"/>
<path d="M110.849 43.8223L79.8264 61.7343L90.1499 67.5928L121.173 49.6813L110.849 43.8223Z" fill="white"/>
<path d="M110.334 50.5309L108.264 49.3369L90.6655 59.4814L92.7555 60.6794L110.334 50.5309Z" fill="#F0B128"/>
<path d="M102.253 54.2101L101.884 53.9971L98.7459 55.8061L99.1189 56.0196L102.253 54.2101Z" fill="white"/>
<path d="M110.334 50.5312V52.0242L92.7555 62.1727V60.6797L110.334 50.5312Z" fill="#F19628"/>
<path d="M90.6654 59.4814V60.9749L92.7554 62.1724V60.6794L90.6654 59.4814Z" fill="#F19628"/>
<path d="M103.108 54.7024L99.9759 56.5109L97.8914 55.3159L101.032 53.5054L103.108 54.7024Z" fill="#DA5A25"/>
<path d="M103.108 56.1961L99.9759 58.0041V56.5111L103.108 54.7026V56.1961Z" fill="#B54719"/>
<path d="M110.849 37.8525L79.8256 55.7635V57.919L110.849 40.008V37.8525Z" fill="#20DEA5"/>
<path d="M121.173 49.6816L131.963 73.4021L100.941 91.3136L90.1499 67.5931L121.173 49.6816Z" fill="#FAFAFA"/>
<path d="M129.967 72.7618L120.468 51.8818L92.1463 68.2333L101.645 89.1133L129.967 72.7618Z" fill="#4A93DC"/>
<path d="M128.968 72.4424L120.115 52.9819L93.1448 68.5529L101.998 88.0134L128.968 72.4424Z" fill="#74C6F6"/>
<path d="M93.1448 68.553L96.3058 66.7285L111.883 82.306L108.148 84.463L93.9018 70.2175L93.1448 68.553Z" fill="#A1D8F9"/>
<path d="M126.992 73.5829L117.539 79.0409L101.961 63.4634L111.414 58.0054L126.992 73.5829Z" fill="#A1D8F9"/>
<path d="M143.488 96.6646L110.921 115.469L104.207 111.658V118.461L110.921 122.272L143.488 103.468V96.6646Z" fill="#2A264B"/>
<path d="M131.963 73.4019L140.06 83.6814C141.278 85.2279 141.94 87.1399 141.94 89.1084L110.917 107.02C110.917 105.051 110.255 103.14 109.037 101.593L100.941 91.3139L131.963 73.4019Z" fill="white"/>
<path d="M112.159 104.704C112.192 104.704 112.226 104.695 112.256 104.678L140.431 88.4103C140.499 88.3718 140.536 88.2963 140.527 88.2188C140.362 86.8658 139.832 85.5873 138.992 84.5213L131.727 75.2983C131.667 75.2223 131.56 75.2018 131.478 75.2503L103.172 91.5928C103.123 91.6208 103.089 91.6693 103.078 91.7248C103.068 91.7803 103.082 91.8368 103.117 91.8808L110.104 100.752C110.978 101.862 111.624 103.177 111.97 104.557C111.985 104.616 112.027 104.665 112.083 104.689C112.107 104.699 112.133 104.704 112.159 104.704ZM140.125 88.1393L112.282 104.215C111.908 102.873 111.264 101.597 110.409 100.513L103.561 91.8173L131.527 75.6703L138.688 84.7618C139.457 85.7388 139.952 86.9043 140.125 88.1393Z" fill="#DAD7D2"/>
<path d="M99.1665 93.1349L82.2165 83.3384L82.155 65.7339L88.3435 69.2459L99.1665 93.1349Z" fill="#4A93DC"/>
<path d="M86.2294 68.9394L90.6934 87.3474L82.9919 82.8899L82.9304 67.0674L86.2294 68.9394Z" fill="#74C6F6"/>
<path d="M87.1241 69.4468L87.7411 69.7968L97.4561 91.2513L91.5906 87.8648L87.1241 69.4468Z" fill="#74C6F6"/>
<path d="M141.94 96.6646L110.849 114.73L104.84 111.292L104.207 111.658L110.921 115.469L143.488 96.6646H141.94Z" fill="#464061"/>
<path d="M100.273 110.245C100.284 110.245 100.296 110.245 100.308 110.242C100.4 110.226 100.467 110.145 100.467 110.051V91.7203C100.467 91.6923 100.461 91.6648 100.449 91.6398L89.7243 68.0638C89.7073 68.0268 89.6793 67.9958 89.6438 67.9753L80.6983 62.8983C80.6378 62.8638 80.5643 62.8638 80.5048 62.8993C80.4453 62.9338 80.4083 62.9978 80.4083 63.0668V103.078C80.4083 103.147 80.4453 103.212 80.5053 103.247L84.2858 105.43C84.3383 105.46 84.4023 105.465 84.4588 105.44C84.5148 105.417 84.5568 105.367 84.5708 105.308C85.1798 102.828 87.4683 101.027 90.0113 101.027C90.9773 101.027 91.9413 101.289 92.7988 101.784L93.2793 102.061C96.3938 103.859 98.8133 106.721 100.09 110.119C100.12 110.196 100.193 110.245 100.273 110.245ZM100.079 91.7623V109.07C98.7003 105.99 96.3833 103.405 93.4743 101.725L92.9938 101.448C92.0773 100.919 91.0463 100.64 90.0123 100.64C87.3783 100.64 85.0003 102.446 84.2618 104.969L80.7968 102.967V63.4013L89.3978 68.2828L100.079 91.7623Z" fill="#DAD7D2"/>
<path d="M86.1375 91.3385C86.273 91.3385 86.404 91.268 86.4755 91.1415C86.581 90.955 86.5155 90.7185 86.329 90.613L83.7195 89.1345C83.532 89.0295 83.2965 89.095 83.1905 89.281C83.085 89.4675 83.1505 89.7045 83.337 89.81L85.9465 91.288C86.0075 91.3225 86.073 91.3385 86.1375 91.3385Z" fill="#DAD7D2"/>
<path d="M110.849 37.852L59.1421 8L28.1192 25.911L79.8246 55.763L110.849 37.852Z" fill="#FAFAFA"/>
<path d="M106.45 40.3916L105.674 40.8391L53.9687 10.9866L54.7447 10.5391L106.45 40.3916Z" fill="#F3F3F1"/>
<path d="M48.6069 14.0828L49.3829 13.6348L101.087 43.4883L100.311 43.9358L48.6069 14.0828Z" fill="#F3F3F1"/>
<path d="M43.2441 17.1785L44.0196 16.7305L95.7251 46.583L94.9496 47.031L43.2441 17.1785Z" fill="#F3F3F1"/>
<path d="M32.5175 23.3713L33.293 22.9233L84.9995 52.7753L84.2235 53.2228L32.5175 23.3713Z" fill="#F3F3F1"/>
<path d="M37.8918 20.2688L38.6678 19.8208L90.3623 49.6798L89.5863 50.1278L37.8918 20.2688Z" fill="#F3F3F1"/>
<path d="M40.126 25.6266C40.126 25.6266 39.6075 22.7466 37.5405 22.7466C35.4735 22.7466 35.4945 25.9811 35.4945 25.9811C35.4945 25.9811 37.1865 27.2181 40.126 25.6266Z" fill="#F19628"/>
<path d="M37.5405 22.7466C39.6075 22.7466 40.1265 25.6266 40.1265 25.6266C39.6185 25.9016 39.1505 26.0876 38.719 26.2146C38.715 25.3676 38.44 24.5221 37.9105 23.8601C37.6045 23.4771 37.218 23.1636 36.7895 22.9261C37.0035 22.8156 37.2495 22.7466 37.5405 22.7466Z" fill="#F0B128"/>
<path d="M62.1113 13.337C62.1113 13.337 61.5928 10.457 59.5253 10.457C57.4583 10.457 57.4793 13.6915 57.4793 13.6915C57.4793 13.6915 59.1718 14.9285 62.1113 13.337Z" fill="#F19628"/>
<path d="M59.5258 10.457C61.5928 10.457 62.1118 13.337 62.1118 13.337C61.6038 13.612 61.1358 13.798 60.7043 13.925C60.7003 13.078 60.4253 12.2325 59.8958 11.5705C59.5898 11.188 59.2033 10.874 58.7748 10.6365C58.9888 10.5265 59.2343 10.457 59.5258 10.457Z" fill="#F0B128"/>
<path d="M98.3267 85.0813V90.2828C98.3267 90.5273 98.1962 90.7528 97.9847 90.8748L96.4162 91.7803C95.9602 92.0433 95.3907 91.7143 95.3907 91.1883V85.9868C95.3907 85.7423 95.5212 85.5168 95.7327 85.3948L97.3012 84.4893C97.7567 84.2258 98.3267 84.5548 98.3267 85.0813Z" fill="#2A264B"/>
<path d="M113.985 81.0132C114.086 80.7457 114.484 80.7272 114.677 80.9042C114.947 81.1522 114.755 81.3907 114.479 81.4767C114.212 81.5602 113.886 81.2757 113.985 81.0132Z" fill="#464061"/>
<path d="M114.281 81.0615L114.405 81.2685L112.259 82.1405C112.259 82.1405 112.389 82.5635 112.156 82.644C111.922 82.7245 103.311 85.4965 103.311 85.4965L103.269 85.184L114.281 81.0615Z" fill="#464061"/>
<path d="M120.62 77.0938C120.722 76.8268 121.12 76.8103 121.312 76.9888C121.581 77.2388 121.387 77.4758 121.111 77.5603C120.843 77.6423 120.519 77.3558 120.62 77.0938Z" fill="#464061"/>
<path d="M120.915 77.144L121.038 77.352L118.887 78.2115C118.887 78.2115 119.015 78.6355 118.78 78.7145C118.546 78.7935 109.919 81.515 109.919 81.515L109.879 81.202L120.915 77.144Z" fill="#464061"/>
<path d="M116.02 106.901C116.086 106.901 116.153 106.884 116.214 106.848L136.896 94.9073C137.081 94.8003 137.145 94.5633 137.038 94.3773C136.93 94.1918 136.694 94.1263 136.507 94.2358L115.825 106.177C115.64 106.284 115.576 106.521 115.683 106.707C115.756 106.831 115.886 106.901 116.02 106.901Z" fill="#2A264B"/>
<path d="M116.02 108.393C116.086 108.393 116.153 108.377 116.214 108.341L136.896 96.3999C137.081 96.2929 137.145 96.0559 137.038 95.8699C136.93 95.6849 136.694 95.6199 136.507 95.7284L115.825 107.669C115.64 107.776 115.576 108.013 115.683 108.199C115.756 108.323 115.886 108.393 116.02 108.393Z" fill="#2A264B"/>
<path d="M116.02 109.885C116.087 109.885 116.154 109.868 116.214 109.833L136.896 97.892C137.016 97.823 137.09 97.695 137.09 97.556V93.1035C137.09 92.965 137.016 92.8365 136.896 92.7675C136.776 92.698 136.628 92.698 136.508 92.7675L115.826 104.708C115.706 104.777 115.632 104.905 115.632 105.044V109.497C115.632 109.635 115.706 109.764 115.826 109.833C115.886 109.868 115.953 109.885 116.02 109.885ZM136.314 97.332L116.408 108.825V105.269L136.314 93.7765V97.332Z" fill="#2A264B"/>
<path d="M89.8056 80.5039L94.8931 85.5914L97.4561 91.2514L94.9901 89.8279L91.1306 85.9684L89.8056 80.5039Z" fill="#A1D8F9"/>
<path d="M73.8779 68.7158L54.7484 49.5858V48.1523L61.1494 51.8483L73.8779 64.5768V68.7158Z" fill="#A1D8F9"/>
<path d="M90.1128 84.9498L82.9728 77.8098L82.9568 73.6548L88.7873 79.4858L90.1128 84.9498Z" fill="#A1D8F9"/>
<path d="M54.7484 54.7549L73.8779 73.8844V75.5149L67.7944 71.9404L54.7489 58.8944L54.7484 54.7549Z" fill="#A1D8F9"/>
</g>
<defs>
<filter id="filter0_d_685_1484" x="16.1191" y="0" width="139.369" height="138.271" filterUnits="userSpaceOnUse" color-interpolation-filters="sRGB">
<feFlood flood-opacity="0" result="BackgroundImageFix"/>
<feColorMatrix in="SourceAlpha" type="matrix" values="0 0 0 0 0 0 0 0 0 0 0 0 0 0 0 0 0 0 127 0" result="hardAlpha"/>
<feOffset dy="4"/>
<feGaussianBlur stdDeviation="6"/>
<feComposite in2="hardAlpha" operator="out"/>
<feColorMatrix type="matrix" values="0 0 0 0 0 0 0 0 0 0 0 0 0 0 0 0 0 0 0.4 0"/>
<feBlend mode="normal" in2="BackgroundImageFix" result="effect1_dropShadow_685_1484"/>
<feBlend mode="normal" in="SourceGraphic" in2="effect1_dropShadow_685_1484" result="shape"/>
</filter>
</defs>
</svg>
