<svg width="19" height="42" viewBox="0 0 19 42" fill="none" xmlns="http://www.w3.org/2000/svg">
<path d="M18.0413 24.5061L18.0413 30.4157C18.0413 30.5902 17.972 30.7574 17.8487 30.8808L17.2725 31.4571L17.2725 24.5061L18.0413 24.5061Z" fill="#CCCCCC"/>
<path d="M17.9209 24.6272L17.393 24.6272L17.393 31.1667L17.7636 30.7963C17.865 30.6948 17.9209 30.5599 17.9209 30.4165L17.9209 24.6272Z" fill="url(#paint0_linear_506_13055)"/>
<path opacity="0.5" d="M18.0413 24.5061L18.0413 30.4157C18.0413 30.5902 17.972 30.7574 17.8487 30.8808L17.2725 31.4571L17.2725 24.5061L18.0413 24.5061Z" fill="url(#paint1_linear_506_13055)"/>
<path opacity="0.4" d="M18.0413 24.5061L18.0413 30.4157C18.0413 30.5902 17.972 30.7574 17.8487 30.8808L17.2725 31.4571L17.2725 24.5061L18.0413 24.5061Z" fill="url(#paint2_linear_506_13055)"/>
<mask id="mask0_506_13055" style="mask-type:luminance" maskUnits="userSpaceOnUse" x="17" y="24" width="1" height="8">
<path d="M17.9202 24.6274L17.3922 24.6274L17.3922 31.167L17.7628 30.7965C17.8643 30.6951 17.9202 30.5602 17.9202 30.4167L17.9202 24.6274Z" fill="white"/>
</mask>
<g mask="url(#mask0_506_13055)">
<path d="M17.5131 24.6782C17.5588 24.7038 17.605 24.7083 17.605 24.7083C17.605 24.7083 17.577 24.6713 17.5313 24.6458C17.4856 24.6202 17.4394 24.6157 17.4394 24.6157C17.4394 24.6157 17.4673 24.6527 17.5131 24.6782Z" fill="#999999"/>
<path d="M17.8746 24.8865C17.9203 24.912 17.9666 24.9165 17.9666 24.9165C17.9666 24.9165 17.9386 24.8795 17.8929 24.854C17.8472 24.8285 17.801 24.824 17.801 24.824C17.801 24.824 17.8289 24.861 17.8746 24.8865Z" fill="#999999"/>
<path d="M17.6875 24.7582C17.662 24.8039 17.6574 24.8499 17.6574 24.8499C17.6574 24.8499 17.6944 24.822 17.72 24.7762C17.7455 24.7305 17.75 24.6843 17.75 24.6843C17.75 24.6843 17.713 24.7124 17.6875 24.7582Z" fill="#999999"/>
<path d="M17.4602 24.8859C17.4347 24.9316 17.4301 24.9778 17.4301 24.9778C17.4301 24.9778 17.4671 24.9499 17.4927 24.9042C17.5182 24.8585 17.5227 24.8123 17.5227 24.8123C17.5227 24.8123 17.4857 24.8402 17.4602 24.8859Z" fill="#999999"/>
<path d="M17.822 25.0938C17.7965 25.1396 17.7921 25.1856 17.7921 25.1856C17.7921 25.1856 17.8291 25.1577 17.8546 25.1119C17.8802 25.0662 17.8845 25.02 17.8845 25.02C17.8845 25.02 17.8475 25.0481 17.822 25.0938Z" fill="#999999"/>
<path d="M17.6673 24.9837C17.6216 24.9581 17.5754 24.9536 17.5754 24.9536C17.5754 24.9536 17.6033 24.9906 17.649 25.0161C17.6948 25.0417 17.741 25.0462 17.741 25.0462C17.741 25.0462 17.713 25.0092 17.6673 24.9837Z" fill="#999999"/>
<path d="M17.3902 25.1653C17.4359 25.1908 17.4819 25.1952 17.4819 25.1952C17.4819 25.1952 17.454 25.1582 17.4083 25.1327C17.3626 25.1071 17.3165 25.1028 17.3165 25.1028C17.3165 25.1028 17.3445 25.1398 17.3902 25.1653Z" fill="#999999"/>
<path d="M17.7518 25.3736C17.7975 25.3991 17.8437 25.4034 17.8437 25.4034C17.8437 25.4034 17.8158 25.3664 17.7701 25.3409C17.7244 25.3154 17.6782 25.311 17.6782 25.311C17.6782 25.311 17.7061 25.348 17.7518 25.3736Z" fill="#999999"/>
<path d="M17.5647 25.2451C17.5391 25.2909 17.5346 25.3371 17.5346 25.3371C17.5346 25.3371 17.5716 25.3091 17.5971 25.2634C17.6227 25.2177 17.6272 25.1716 17.6272 25.1716C17.6272 25.1716 17.5902 25.1994 17.5647 25.2451Z" fill="#999999"/>
<path d="M17.338 25.3732C17.3124 25.4189 17.3081 25.4652 17.3081 25.4652C17.3081 25.4652 17.3451 25.4372 17.3706 25.3915C17.3961 25.3458 17.4006 25.2996 17.4006 25.2996C17.4006 25.2996 17.3635 25.3275 17.338 25.3732Z" fill="#999999"/>
<path d="M17.6999 25.5813C17.6744 25.627 17.67 25.6732 17.67 25.6732C17.67 25.6732 17.707 25.6453 17.7326 25.5996C17.7581 25.5539 17.7625 25.5078 17.7625 25.5078C17.7625 25.5078 17.7255 25.5356 17.6999 25.5813Z" fill="#999999"/>
<path d="M17.5452 25.4713C17.4994 25.4458 17.4532 25.4414 17.4532 25.4414C17.4532 25.4414 17.4812 25.4784 17.5269 25.5039C17.5726 25.5294 17.6187 25.5338 17.6187 25.5338C17.6187 25.5338 17.5909 25.4968 17.5452 25.4713Z" fill="#999999"/>
<path d="M17.8946 25.657C17.8489 25.6315 17.8027 25.627 17.8027 25.627C17.8027 25.627 17.8306 25.664 17.8763 25.6895C17.9221 25.715 17.9683 25.7195 17.9683 25.7195C17.9683 25.7195 17.9403 25.6825 17.8946 25.657Z" fill="#999999"/>
<path d="M17.4265 25.6974C17.401 25.7431 17.3966 25.7891 17.3966 25.7891C17.3966 25.7891 17.4336 25.7612 17.4591 25.7155C17.4847 25.6697 17.489 25.6235 17.489 25.6235C17.489 25.6235 17.452 25.6516 17.4265 25.6974Z" fill="#999999"/>
<path d="M17.7883 25.9055C17.7628 25.9512 17.7584 25.9974 17.7584 25.9974C17.7584 25.9974 17.7954 25.9694 17.8209 25.9237C17.8465 25.878 17.8508 25.8318 17.8508 25.8318C17.8508 25.8318 17.8138 25.8597 17.7883 25.9055Z" fill="#999999"/>
<path d="M17.6331 25.7953C17.5874 25.7697 17.5412 25.7654 17.5412 25.7654C17.5412 25.7654 17.5691 25.8024 17.6149 25.8279C17.6606 25.8534 17.7068 25.8578 17.7068 25.8578C17.7068 25.8578 17.6788 25.8208 17.6331 25.7953Z" fill="#999999"/>
<path d="M17.3568 25.9774C17.4025 26.0029 17.4487 26.0074 17.4487 26.0074C17.4487 26.0074 17.4208 25.9705 17.3751 25.9449C17.3293 25.9194 17.2831 25.915 17.2831 25.915C17.2831 25.915 17.3111 25.9519 17.3568 25.9774Z" fill="#999999"/>
<path d="M17.7186 26.1853C17.7643 26.2108 17.8105 26.2154 17.8105 26.2154C17.8105 26.2154 17.7826 26.1784 17.7369 26.1529C17.6912 26.1273 17.645 26.1228 17.645 26.1228C17.645 26.1228 17.6729 26.1598 17.7186 26.1853Z" fill="#999999"/>
<path d="M17.5315 26.0573C17.5059 26.103 17.5014 26.1492 17.5014 26.1492C17.5014 26.1492 17.5384 26.1213 17.5639 26.0756C17.5895 26.0298 17.594 25.9836 17.594 25.9836C17.594 25.9836 17.557 26.0116 17.5315 26.0573Z" fill="#999999"/>
<path d="M17.6667 26.3923C17.6412 26.438 17.6368 26.4842 17.6368 26.4842C17.6368 26.4842 17.6738 26.4562 17.6994 26.4105C17.7249 26.3648 17.7292 26.3186 17.7292 26.3186C17.7292 26.3186 17.6923 26.3466 17.6667 26.3923Z" fill="#999999"/>
<path d="M17.512 26.2827C17.4663 26.2572 17.4201 26.2527 17.4201 26.2527C17.4201 26.2527 17.4481 26.2897 17.4938 26.3152C17.5395 26.3407 17.5857 26.3453 17.5857 26.3453C17.5857 26.3453 17.5577 26.3083 17.512 26.2827Z" fill="#999999"/>
<path d="M17.8607 26.468C17.8149 26.4425 17.7687 26.438 17.7687 26.438C17.7687 26.438 17.7967 26.475 17.8424 26.5005C17.8881 26.526 17.9343 26.5304 17.9343 26.5304C17.9343 26.5304 17.9064 26.4936 17.8607 26.468Z" fill="#999999"/>
<path d="M17.4265 26.5121C17.401 26.5579 17.3966 26.6041 17.3966 26.6041C17.3966 26.6041 17.4336 26.5761 17.4591 26.5304C17.4847 26.4847 17.489 26.4385 17.489 26.4385C17.489 26.4385 17.452 26.4664 17.4265 26.5121Z" fill="#999999"/>
<path d="M17.7883 26.7201C17.7628 26.7658 17.7584 26.8118 17.7584 26.8118C17.7584 26.8118 17.7954 26.7839 17.8209 26.7382C17.8465 26.6924 17.8508 26.6462 17.8508 26.6462C17.8508 26.6462 17.8138 26.6743 17.7883 26.7201Z" fill="#999999"/>
<path d="M17.6331 26.6105C17.5874 26.5849 17.5412 26.5806 17.5412 26.5806C17.5412 26.5806 17.5691 26.6176 17.6149 26.6431C17.6606 26.6686 17.7068 26.673 17.7068 26.673C17.7068 26.673 17.6788 26.636 17.6331 26.6105Z" fill="#999999"/>
<path d="M17.3566 26.7917C17.4023 26.8172 17.4485 26.8216 17.4485 26.8216C17.4485 26.8216 17.4205 26.7846 17.3748 26.7591C17.3291 26.7335 17.2829 26.729 17.2829 26.729C17.2829 26.729 17.3108 26.7662 17.3566 26.7917Z" fill="#999999"/>
<path d="M17.7186 27.0005C17.7643 27.026 17.8105 27.0306 17.8105 27.0306C17.8105 27.0306 17.7826 26.9936 17.7369 26.968C17.6912 26.9425 17.645 26.938 17.645 26.938C17.645 26.938 17.6729 26.975 17.7186 27.0005Z" fill="#999999"/>
<path d="M17.5315 26.8723C17.5059 26.918 17.5014 26.9642 17.5014 26.9642C17.5014 26.9642 17.5384 26.9362 17.5639 26.8905C17.5895 26.8448 17.594 26.7986 17.594 26.7986C17.594 26.7986 17.557 26.8265 17.5315 26.8723Z" fill="#999999"/>
<path d="M17.6662 27.2073C17.6407 27.253 17.6364 27.2992 17.6364 27.2992C17.6364 27.2992 17.6733 27.2713 17.6989 27.2255C17.7244 27.1798 17.7288 27.1338 17.7288 27.1338C17.7288 27.1338 17.6918 27.1616 17.6662 27.2073Z" fill="#999999"/>
<path d="M17.5118 27.0972C17.4661 27.0717 17.4199 27.0671 17.4199 27.0671C17.4199 27.0671 17.4478 27.1041 17.4935 27.1297C17.5392 27.1552 17.5854 27.1597 17.5854 27.1597C17.5854 27.1597 17.5575 27.1227 17.5118 27.0972Z" fill="#999999"/>
<path d="M17.8604 27.2831C17.8147 27.2575 17.7685 27.2532 17.7685 27.2532C17.7685 27.2532 17.7964 27.2902 17.8422 27.3157C17.8879 27.3412 17.9341 27.3456 17.9341 27.3456C17.9341 27.3456 17.9061 27.3086 17.8604 27.2831Z" fill="#999999"/>
<path d="M17.4265 27.3269C17.401 27.3726 17.3966 27.4188 17.3966 27.4188C17.3966 27.4188 17.4336 27.3909 17.4591 27.3452C17.4847 27.2995 17.489 27.2534 17.489 27.2534C17.489 27.2534 17.452 27.2812 17.4265 27.3269Z" fill="#999999"/>
<path d="M17.7883 27.5351C17.7628 27.5808 17.7584 27.627 17.7584 27.627C17.7584 27.627 17.7954 27.5991 17.8209 27.5533C17.8465 27.5076 17.8508 27.4614 17.8508 27.4614C17.8508 27.4614 17.8138 27.4894 17.7883 27.5351Z" fill="#999999"/>
<path d="M17.6331 27.4251C17.5874 27.3995 17.5412 27.395 17.5412 27.395C17.5412 27.395 17.5691 27.432 17.6149 27.4575C17.6606 27.4831 17.7068 27.4874 17.7068 27.4874C17.7068 27.4874 17.6788 27.4506 17.6331 27.4251Z" fill="#999999"/>
<path d="M17.3568 27.6062C17.4025 27.6317 17.4487 27.6361 17.4487 27.6361C17.4487 27.6361 17.4208 27.5991 17.3751 27.5736C17.3293 27.5481 17.2831 27.5437 17.2831 27.5437C17.2831 27.5437 17.3111 27.5807 17.3568 27.6062Z" fill="#999999"/>
<path d="M17.7186 27.8141C17.7643 27.8397 17.8105 27.844 17.8105 27.844C17.8105 27.844 17.7826 27.807 17.7369 27.7815C17.6912 27.756 17.645 27.7515 17.645 27.7515C17.645 27.7515 17.6729 27.7886 17.7186 27.8141Z" fill="#999999"/>
<path d="M17.5315 27.6861C17.5059 27.7319 17.5014 27.7779 17.5014 27.7779C17.5014 27.7779 17.5384 27.7499 17.5639 27.7042C17.5895 27.6585 17.594 27.6123 17.594 27.6123C17.594 27.6123 17.557 27.6404 17.5315 27.6861Z" fill="#999999"/>
<path d="M17.6665 28.0219C17.641 28.0676 17.6366 28.1138 17.6366 28.1138C17.6366 28.1138 17.6736 28.0859 17.6991 28.0402C17.7246 27.9944 17.729 27.9482 17.729 27.9482C17.729 27.9482 17.692 27.9762 17.6665 28.0219Z" fill="#999999"/>
<path d="M17.5123 27.9112C17.4666 27.8856 17.4204 27.8811 17.4204 27.8811C17.4204 27.8811 17.4483 27.9181 17.494 27.9436C17.5397 27.9691 17.5859 27.9737 17.5859 27.9737C17.5859 27.9737 17.558 27.9367 17.5123 27.9112Z" fill="#999999"/>
<path d="M17.8607 28.0968C17.8149 28.0713 17.7687 28.0669 17.7687 28.0669C17.7687 28.0669 17.7967 28.1039 17.8424 28.1294C17.8881 28.1549 17.9343 28.1593 17.9343 28.1593C17.9343 28.1593 17.9064 28.1225 17.8607 28.0968Z" fill="#999999"/>
<path d="M17.4263 28.1406C17.4007 28.1863 17.3964 28.2325 17.3964 28.2325C17.3964 28.2325 17.4334 28.2045 17.4589 28.1588C17.4844 28.1131 17.4888 28.0669 17.4888 28.0669C17.4888 28.0669 17.4518 28.0948 17.4263 28.1406Z" fill="#999999"/>
<path d="M17.7881 28.3484C17.7625 28.3941 17.7582 28.4403 17.7582 28.4403C17.7582 28.4403 17.7952 28.4124 17.8207 28.3667C17.8462 28.3209 17.8506 28.2749 17.8506 28.2749C17.8506 28.2749 17.8136 28.3027 17.7881 28.3484Z" fill="#999999"/>
<path d="M17.6329 28.2388C17.5872 28.2133 17.541 28.2087 17.541 28.2087C17.541 28.2087 17.5689 28.2457 17.6146 28.2713C17.6603 28.2968 17.7065 28.3011 17.7065 28.3011C17.7065 28.3011 17.6786 28.2643 17.6329 28.2388Z" fill="#999999"/>
<path d="M17.3566 28.4204C17.4023 28.446 17.4485 28.4503 17.4485 28.4503C17.4485 28.4503 17.4205 28.4133 17.3748 28.3878C17.3291 28.3623 17.2829 28.3579 17.2829 28.3579C17.2829 28.3579 17.3108 28.3949 17.3566 28.4204Z" fill="#999999"/>
<path d="M17.7184 28.6284C17.7641 28.654 17.8103 28.6583 17.8103 28.6583C17.8103 28.6583 17.7824 28.6213 17.7366 28.5958C17.6909 28.5703 17.6447 28.5659 17.6447 28.5659C17.6447 28.5659 17.6727 28.6029 17.7184 28.6284Z" fill="#999999"/>
<path d="M17.5312 28.5004C17.5057 28.5461 17.5012 28.5923 17.5012 28.5923C17.5012 28.5923 17.5382 28.5644 17.5637 28.5187C17.5892 28.473 17.5938 28.4268 17.5938 28.4268C17.5938 28.4268 17.5568 28.4547 17.5312 28.5004Z" fill="#999999"/>
<path d="M17.6662 28.8368C17.6407 28.8826 17.6364 28.9288 17.6364 28.9288C17.6364 28.9288 17.6733 28.9008 17.6989 28.8551C17.7244 28.8094 17.7288 28.7632 17.7288 28.7632C17.7288 28.7632 17.6918 28.7911 17.6662 28.8368Z" fill="#999999"/>
<path d="M17.5118 28.7257C17.4661 28.7002 17.4199 28.6958 17.4199 28.6958C17.4199 28.6958 17.4478 28.7328 17.4935 28.7583C17.5392 28.7838 17.5854 28.7882 17.5854 28.7882C17.5854 28.7882 17.5575 28.7512 17.5118 28.7257Z" fill="#999999"/>
<path d="M17.8604 28.9117C17.8147 28.8862 17.7685 28.8818 17.7685 28.8818C17.7685 28.8818 17.7964 28.9188 17.8422 28.9444C17.8879 28.9699 17.9341 28.9742 17.9341 28.9742C17.9341 28.9742 17.9061 28.9374 17.8604 28.9117Z" fill="#999999"/>
<path d="M17.4265 28.956C17.401 29.0017 17.3966 29.0479 17.3966 29.0479C17.3966 29.0479 17.4336 29.02 17.4591 28.9742C17.4847 28.9285 17.489 28.8823 17.489 28.8823C17.489 28.8823 17.452 28.9103 17.4265 28.956Z" fill="#999999"/>
<path d="M17.7883 29.1642C17.7628 29.21 17.7584 29.2562 17.7584 29.2562C17.7584 29.2562 17.7954 29.2282 17.8209 29.1825C17.8465 29.1368 17.8508 29.0906 17.8508 29.0906C17.8508 29.0906 17.8138 29.1185 17.7883 29.1642Z" fill="#999999"/>
<path d="M17.6331 29.054C17.5874 29.0284 17.5412 29.0239 17.5412 29.0239C17.5412 29.0239 17.5691 29.0609 17.6149 29.0864C17.6606 29.112 17.7068 29.1165 17.7068 29.1165C17.7068 29.1165 17.6788 29.0795 17.6331 29.054Z" fill="#999999"/>
<path d="M17.3566 29.2355C17.4023 29.261 17.4485 29.2655 17.4485 29.2655C17.4485 29.2655 17.4205 29.2285 17.3748 29.203C17.3291 29.1775 17.2829 29.1731 17.2829 29.1731C17.2829 29.1731 17.3108 29.2099 17.3566 29.2355Z" fill="#999999"/>
<path d="M17.7184 29.4434C17.7641 29.4689 17.8103 29.4733 17.8103 29.4733C17.8103 29.4733 17.7824 29.4363 17.7366 29.4107C17.6909 29.3852 17.6447 29.3809 17.6447 29.3809C17.6447 29.3809 17.6727 29.4179 17.7184 29.4434Z" fill="#999999"/>
<path d="M17.5312 29.3152C17.5057 29.3609 17.5012 29.4071 17.5012 29.4071C17.5012 29.4071 17.5382 29.3792 17.5637 29.3335C17.5892 29.2877 17.5938 29.2417 17.5938 29.2417C17.5938 29.2417 17.5568 29.2695 17.5312 29.3152Z" fill="#999999"/>
<path d="M17.6662 29.6511C17.6407 29.6968 17.6364 29.743 17.6364 29.743C17.6364 29.743 17.6733 29.715 17.6989 29.6693C17.7244 29.6236 17.7288 29.5774 17.7288 29.5774C17.7288 29.5774 17.6918 29.6053 17.6662 29.6511Z" fill="#999999"/>
<path d="M17.512 29.5414C17.4663 29.5158 17.4201 29.5115 17.4201 29.5115C17.4201 29.5115 17.4481 29.5485 17.4938 29.574C17.5395 29.5995 17.5857 29.604 17.5857 29.604C17.5857 29.604 17.5577 29.5669 17.512 29.5414Z" fill="#999999"/>
<path d="M17.8604 29.7261C17.8147 29.7006 17.7685 29.696 17.7685 29.696C17.7685 29.696 17.7964 29.733 17.8422 29.7586C17.8879 29.7841 17.9341 29.7886 17.9341 29.7886C17.9341 29.7886 17.9061 29.7516 17.8604 29.7261Z" fill="#999999"/>
<path d="M17.4265 29.7704C17.401 29.8161 17.3966 29.8621 17.3966 29.8621C17.3966 29.8621 17.4336 29.8342 17.4591 29.7885C17.4847 29.7427 17.489 29.6965 17.489 29.6965C17.489 29.6965 17.452 29.7246 17.4265 29.7704Z" fill="#999999"/>
<path d="M17.7883 29.9785C17.7628 30.0242 17.7584 30.0704 17.7584 30.0704C17.7584 30.0704 17.7954 30.0424 17.8209 29.9967C17.8465 29.951 17.8508 29.9048 17.8508 29.9048C17.8508 29.9048 17.8138 29.9329 17.7883 29.9785Z" fill="#999999"/>
<path d="M17.6334 29.8679C17.5876 29.8424 17.5414 29.8379 17.5414 29.8379C17.5414 29.8379 17.5694 29.8749 17.6151 29.9004C17.6608 29.9259 17.707 29.9303 17.707 29.9303C17.707 29.9303 17.6791 29.8935 17.6334 29.8679Z" fill="#999999"/>
<path d="M17.3568 30.0495C17.4025 30.075 17.4487 30.0794 17.4487 30.0794C17.4487 30.0794 17.4208 30.0424 17.3751 30.0169C17.3293 29.9913 17.2831 29.9868 17.2831 29.9868C17.2831 29.9868 17.3111 30.024 17.3568 30.0495Z" fill="#999999"/>
<path d="M17.7186 30.2574C17.7643 30.283 17.8105 30.2875 17.8105 30.2875C17.8105 30.2875 17.7826 30.2505 17.7369 30.225C17.6912 30.1994 17.645 30.1951 17.645 30.1951C17.645 30.1951 17.6729 30.2319 17.7186 30.2574Z" fill="#999999"/>
<path d="M17.5315 30.1295C17.5059 30.1752 17.5014 30.2213 17.5014 30.2213C17.5014 30.2213 17.5384 30.1933 17.5639 30.1476C17.5895 30.1019 17.594 30.0557 17.594 30.0557C17.594 30.0557 17.557 30.0838 17.5315 30.1295Z" fill="#999999"/>
<path d="M17.6665 30.4645C17.641 30.5102 17.6366 30.5562 17.6366 30.5562C17.6366 30.5562 17.6736 30.5283 17.6991 30.4825C17.7246 30.4368 17.729 30.3906 17.729 30.3906C17.729 30.3906 17.692 30.4187 17.6665 30.4645Z" fill="#999999"/>
<path d="M17.512 30.3551C17.4663 30.3296 17.4201 30.3252 17.4201 30.3252C17.4201 30.3252 17.4481 30.3622 17.4938 30.3877C17.5395 30.4132 17.5857 30.4176 17.5857 30.4176C17.5857 30.4176 17.5577 30.3806 17.512 30.3551Z" fill="#999999"/>
<path d="M17.8607 30.5408C17.8149 30.5153 17.7687 30.5107 17.7687 30.5107C17.7687 30.5107 17.7967 30.5477 17.8424 30.5733C17.8881 30.5988 17.9343 30.6033 17.9343 30.6033C17.9343 30.6033 17.9064 30.5663 17.8607 30.5408Z" fill="#999999"/>
<path d="M17.4263 30.5844C17.4007 30.6301 17.3964 30.6763 17.3964 30.6763C17.3964 30.6763 17.4334 30.6484 17.4589 30.6027C17.4844 30.5569 17.4888 30.5107 17.4888 30.5107C17.4888 30.5107 17.4518 30.5387 17.4263 30.5844Z" fill="#999999"/>
<path d="M17.7883 30.7919C17.7628 30.8377 17.7584 30.8839 17.7584 30.8839C17.7584 30.8839 17.7954 30.8559 17.8209 30.8102C17.8465 30.7645 17.8508 30.7183 17.8508 30.7183C17.8508 30.7183 17.8138 30.7464 17.7883 30.7919Z" fill="#999999"/>
<path d="M17.6329 30.6825C17.5872 30.6569 17.541 30.6526 17.541 30.6526C17.541 30.6526 17.5689 30.6896 17.6146 30.7151C17.6603 30.7406 17.7065 30.7452 17.7065 30.7452C17.7065 30.7452 17.6786 30.708 17.6329 30.6825Z" fill="#999999"/>
<path d="M17.3566 30.8645C17.4023 30.8901 17.4485 30.8946 17.4485 30.8946C17.4485 30.8946 17.4205 30.8576 17.3748 30.8321C17.3291 30.8065 17.2829 30.802 17.2829 30.802C17.2829 30.802 17.3108 30.839 17.3566 30.8645Z" fill="#999999"/>
<path d="M17.7184 31.0725C17.7641 31.0981 17.8103 31.1026 17.8103 31.1026C17.8103 31.1026 17.7824 31.0656 17.7366 31.0401C17.6909 31.0145 17.6447 31.01 17.6447 31.01C17.6447 31.01 17.6727 31.047 17.7184 31.0725Z" fill="#999999"/>
<path d="M17.5312 30.9443C17.5057 30.99 17.5012 31.0362 17.5012 31.0362C17.5012 31.0362 17.5382 31.0082 17.5637 30.9625C17.5892 30.9168 17.5938 30.8706 17.5938 30.8706C17.5938 30.8706 17.5568 30.8986 17.5312 30.9443Z" fill="#999999"/>
<path d="M17.512 31.1704C17.4663 31.1449 17.4201 31.1404 17.4201 31.1404C17.4201 31.1404 17.4481 31.1774 17.4938 31.2029C17.5395 31.2284 17.5857 31.2329 17.5857 31.2329C17.5857 31.2329 17.5577 31.196 17.512 31.1704Z" fill="#999999"/>
</g>
<path d="M14.8982 39.7507L15.1513 39.7507C15.1793 39.7507 15.2019 39.7733 15.2019 39.8013L15.2019 39.9113C15.2019 39.9393 15.1793 39.9619 15.1513 39.9619L14.8982 39.9619C14.8702 39.9619 14.8476 39.9393 14.8476 39.9113L14.8476 39.8013C14.8478 39.7733 14.8704 39.7507 14.8982 39.7507Z" fill="url(#paint3_linear_506_13055)"/>
<path d="M14.4069 39.7507L14.2035 39.7507C14.1618 39.7507 14.1282 39.7845 14.1282 39.826L14.1282 39.8863C14.1282 39.928 14.162 39.9616 14.2035 39.9616L14.4069 39.9616C14.4486 39.9616 14.4822 39.9278 14.4822 39.8863L14.4822 39.826C14.4823 39.7845 14.4486 39.7507 14.4069 39.7507Z" fill="url(#paint4_linear_506_13055)"/>
<path d="M14.5479 39.1509L14.7471 39.1515C14.8689 39.152 14.9673 39.251 14.9668 39.3729L14.9644 40.0302C14.9639 40.152 14.8649 40.2504 14.7431 40.2499L14.5439 40.2493C14.4221 40.2488 14.3237 40.1497 14.3242 40.0279L14.3266 39.3706C14.3271 39.2488 14.4261 39.1504 14.5479 39.1509Z" fill="url(#paint5_linear_506_13055)"/>
<path d="M4.63892 39.7507L4.89206 39.7507C4.91985 39.7507 4.94263 39.7733 4.94263 39.8013L4.94263 39.9113C4.94263 39.9393 4.92001 39.9619 4.89206 39.9619L4.63892 39.9619C4.61097 39.9619 4.58835 39.9393 4.58835 39.9113L4.58835 39.8013C4.58835 39.7733 4.61097 39.7507 4.63892 39.7507Z" fill="url(#paint6_linear_506_13055)"/>
<path d="M4.14786 39.7507L3.94447 39.7507C3.90279 39.7507 3.86919 39.7845 3.86919 39.826L3.86919 39.8863C3.86919 39.928 3.90296 39.9616 3.94447 39.9616L4.14786 39.9616C4.18954 39.9616 4.22314 39.9278 4.22314 39.8863L4.22314 39.826C4.22314 39.7845 4.18938 39.7507 4.14786 39.7507Z" fill="url(#paint7_linear_506_13055)"/>
<path d="M4.28862 39.1509L4.48781 39.1515C4.60962 39.152 4.708 39.251 4.70752 39.3729L4.70509 40.0302C4.70461 40.152 4.60558 40.2504 4.48377 40.2499L4.28458 40.2493C4.16278 40.2488 4.06439 40.1497 4.06487 40.0279L4.0673 39.3706C4.06762 39.2488 4.16681 39.1504 4.28862 39.1509Z" fill="url(#paint8_linear_506_13055)"/>
<path d="M1.74685 24.7473L17.3225 24.7473L17.3225 38.644C17.3225 39.1905 16.8795 39.6333 16.3332 39.6333L2.73633 39.6333C2.18981 39.6333 1.74685 39.1903 1.74685 38.644L1.74685 24.7473Z" fill="#E1E2DD"/>
<path d="M3.22356 39.6336L15.846 39.6336C16.6615 39.6336 17.3225 38.9726 17.3225 38.1571L17.3225 37.4858L1.74685 37.4858L1.74685 38.1571C1.74685 38.9726 2.40806 39.6336 3.22356 39.6336Z" fill="url(#paint9_linear_506_13055)"/>
<path d="M3.22356 39.6336L15.846 39.6336C16.6615 39.6336 17.3225 38.9726 17.3225 38.1571L17.3225 37.4858L1.74685 37.4858L1.74685 38.1571C1.74685 38.9726 2.40806 39.6336 3.22356 39.6336Z" fill="url(#paint10_linear_506_13055)"/>
<path opacity="0.2" d="M3.43534 39.2687L15.6347 39.2687C16.4228 39.2687 17.0618 38.6076 17.0618 37.7921L17.0618 37.4858L2.00839 37.4858L2.00839 37.7921C2.00823 38.6076 2.64715 39.2687 3.43534 39.2687Z" fill="black"/>
<path d="M16.8403 25.0447L16.8403 38.063C16.8403 38.431 16.542 38.7294 16.1739 38.7294L2.89533 38.7294C2.52733 38.7294 2.22895 38.431 2.22895 38.063L2.22895 25.0447L16.8403 25.0447Z" fill="#F5F7EA"/>
<g opacity="0.1">
<path d="M16.8403 25.0447L16.8403 38.063C16.8403 38.431 16.542 38.7294 16.1739 38.7294L2.89533 38.7294C2.52733 38.7294 2.22895 38.431 2.22895 38.063L2.22895 25.0447L16.8403 25.0447Z" fill="url(#paint11_radial_506_13055)"/>
</g>
<g opacity="0.5">
<path d="M16.8403 25.0447L16.8403 38.063C16.8403 38.431 16.542 38.7294 16.1739 38.7294L2.89533 38.7294C2.52733 38.7294 2.22895 38.431 2.22895 38.063L2.22895 25.0447L16.8403 25.0447Z" fill="url(#paint12_linear_506_13055)"/>
</g>
<path d="M13.2465 38.1106L13.5353 38.1106L13.5847 37.7801L13.936 37.7801L13.9854 38.1106L14.2482 38.1106L13.9568 36.2892L13.5379 36.2892L13.2465 38.1106ZM13.8996 37.533L13.6238 37.533L13.7617 36.6118L13.8996 37.533ZM12.5069 37.5824L12.3118 36.2892L11.9136 36.2892L11.9136 38.1106L12.1843 38.1106L12.1843 36.8044L12.382 38.1106L12.6526 38.1106L12.866 36.8226L12.866 38.1106L13.1158 38.1106L13.1158 36.2892L12.7177 36.2892L12.5069 37.5824ZM11.2735 36.2892C11.1243 36.2892 11.0168 36.3239 10.9509 36.3933C10.8832 36.4627 10.8494 36.5676 10.8494 36.7081L10.8494 36.7732C10.8494 36.8668 10.8641 36.944 10.8936 37.0047C10.9231 37.0655 10.9699 37.1106 11.0341 37.14C10.9561 37.1695 10.9014 37.2181 10.8702 37.2858C10.8372 37.3517 10.8208 37.4332 10.8208 37.5303L10.8208 37.6787C10.8208 37.8192 10.8572 37.9267 10.9301 38.0013C11.0029 38.0742 11.1113 38.1106 11.2553 38.1106L11.7054 38.1106L11.7054 36.2892L11.2735 36.2892ZM11.4192 37.291L11.4192 37.8504L11.2553 37.8504C11.2067 37.8504 11.1703 37.8374 11.146 37.8114C11.12 37.7853 11.107 37.7385 11.107 37.6709L11.107 37.5121C11.107 37.4271 11.1217 37.369 11.1512 37.3378C11.179 37.3066 11.2258 37.291 11.2917 37.291L11.4192 37.291ZM11.4192 36.5494L11.4192 37.0308L11.3073 37.0308C11.2536 37.0308 11.2119 37.0169 11.1824 36.9891C11.1512 36.9614 11.1356 36.9111 11.1356 36.8382L11.1356 36.7367C11.1356 36.6708 11.1478 36.6231 11.172 36.5936C11.1946 36.5641 11.231 36.5494 11.2813 36.5494L11.4192 36.5494ZM10.3752 36.2892L10.3752 37.6943C10.3752 37.7602 10.3622 37.8062 10.3361 37.8322C10.3084 37.8582 10.272 37.8712 10.2269 37.8712C10.1818 37.8712 10.1462 37.8582 10.1202 37.8322C10.0924 37.8062 10.0785 37.7602 10.0785 37.6943L10.0785 36.2892L9.80794 36.2892L9.80794 37.6761C9.80794 37.8235 9.84437 37.9371 9.91722 38.0169C9.98834 38.095 10.0942 38.134 10.2347 38.134C10.3752 38.134 10.4819 38.095 10.5547 38.0169C10.6258 37.9371 10.6614 37.8235 10.6614 37.6761L10.6614 36.2892L10.3752 36.2892ZM9.61165 36.2892L9.32543 36.2892L9.32543 37.8504L8.85447 37.8504L8.85447 38.1106L9.61165 38.1106L9.61165 36.2892ZM7.8036 38.1106L8.09243 38.1106L8.14186 37.7801L8.49313 37.7801L8.54257 38.1106L8.80538 38.1106L8.51395 36.2892L8.09503 36.2892L7.8036 38.1106ZM8.45671 37.533L8.18089 37.533L8.3188 36.6118L8.45671 37.533ZM13.9178 39.7914L13.9178 41.1106L14.1754 41.1106L14.1754 39.2892L13.8163 39.2892L13.5223 40.3794L13.5223 39.2892L13.2673 39.2892L13.2673 41.1106L13.5613 41.1106L13.9178 39.7914ZM12.2323 40.4315L12.2323 40.6735C12.2323 40.8209 12.2687 40.9345 12.3416 41.0143C12.4127 41.0924 12.5185 41.1314 12.659 41.1314C12.7995 41.1314 12.9062 41.0924 12.9791 41.0143C13.0502 40.9345 13.0858 40.8209 13.0858 40.6735L13.0858 39.7263C13.0858 39.5789 13.0502 39.4661 12.9791 39.3881C12.9062 39.3083 12.7995 39.2684 12.659 39.2684C12.5185 39.2684 12.4127 39.3083 12.3416 39.3881C12.2687 39.4661 12.2323 39.5789 12.2323 39.7263L12.2323 39.9033L12.5029 39.9033L12.5029 39.7081C12.5029 39.6422 12.5168 39.5962 12.5446 39.5702C12.5706 39.5425 12.6061 39.5286 12.6512 39.5286C12.6963 39.5286 12.7328 39.5425 12.7605 39.5702C12.7865 39.5962 12.7995 39.6422 12.7995 39.7081L12.7995 40.6917C12.7995 40.7576 12.7865 40.8036 12.7605 40.8296C12.7328 40.8556 12.6963 40.8686 12.6512 40.8686C12.6061 40.8686 12.5706 40.8556 12.5446 40.8296C12.5168 40.8036 12.5029 40.7576 12.5029 40.6917L12.5029 40.4315L12.2323 40.4315ZM11.7724 40.0568L11.3795 40.0568L11.3795 40.317L11.7724 40.317L11.7724 40.8504L11.278 40.8504L11.278 41.1106L12.0586 41.1106L12.0586 39.2892L11.278 39.2892L11.278 39.5494L11.7724 39.5494L11.7724 40.0568Z" fill="#CC3300"/>
<path opacity="0.3" d="M12.996 38.7291L13.8466 38.7291L14.5813 29.0243L13.7307 28.9607L12.996 38.7291Z" fill="url(#paint13_linear_506_13055)"/>
<path opacity="0.3" d="M6.08057 38.7291L5.23001 38.7291L4.49529 29.0243L5.34584 28.9607L6.08057 38.7291Z" fill="url(#paint14_linear_506_13055)"/>
<path d="M3.2236 39.1507L15.846 39.1507C16.3943 39.1507 16.8403 38.7048 16.8403 38.1563L16.8403 37.7344C16.8403 38.2835 16.3951 38.7289 15.846 38.7289L3.2236 38.7289C2.67434 38.7289 2.22911 38.2836 2.22911 37.7344L2.22911 38.1563C2.22911 38.7048 2.67514 39.1507 3.2236 39.1507Z" fill="#CCCCCC"/>
<path opacity="0.4" d="M6.13958 39.1038L12.9954 39.1038L12.9954 39.0487L6.13958 39.0487L6.13958 39.1038Z" fill="#666666"/>
<path opacity="0.4" d="M6.13958 39.0095L12.9954 39.0095L12.9954 38.9544L6.13958 38.9544L6.13958 39.0095Z" fill="#666666"/>
<path opacity="0.4" d="M6.13958 38.9163L12.9954 38.9163L12.9954 38.8612L6.13958 38.8612L6.13958 38.9163Z" fill="#666666"/>
<path opacity="0.4" d="M6.13934 38.8228L12.9951 38.8228L12.9951 38.7677L6.13934 38.7677L6.13934 38.8228Z" fill="#666666"/>
<path d="M15.8445 39.1517L15.8462 39.1517C16.3945 39.1517 16.8406 38.7058 16.8406 38.1573L16.8406 37.7354C16.8406 38.2845 16.3953 38.7299 15.8462 38.7299L15.8445 38.7299L15.8445 39.1517Z" fill="#FF6600"/>
<path d="M13.0344 38.7297L15.8464 38.7297L15.8464 39.1517L12.7555 39.1517L13.0344 38.7297Z" fill="#DCFFFE"/>
<path d="M15.8447 38.7673L13.0095 38.7673L12.9473 38.8614L15.8447 38.8614L15.8464 38.8614L15.8464 38.7673L15.8447 38.7673Z" fill="white"/>
<path opacity="0.4" d="M15.8462 38.8615C16.3945 38.8615 16.8406 38.4156 16.8406 37.8671L16.8406 37.7729C16.8406 38.3212 16.3945 38.7673 15.8462 38.7673L15.8445 38.7673L15.8445 38.8615L15.8462 38.8615Z" fill="white"/>
<path d="M16.8407 37.7729L16.9394 37.7729C16.9651 37.7729 16.9861 37.8053 16.9861 37.845L16.9861 38.1227C16.9861 38.1624 16.9652 38.1948 16.9394 38.1948L16.8407 38.1948L16.8407 37.7729Z" fill="#FF6600"/>
<path d="M3.24268 39.1517L3.2409 39.1517C2.6926 39.1517 2.24657 38.7058 2.24657 38.1573L2.24657 37.7354C2.24657 38.2845 2.69179 38.7299 3.2409 38.7299L3.24268 38.7299L3.24268 39.1517Z" fill="#FF6600"/>
<path d="M6.05312 38.7297L3.24104 38.7297L3.24104 39.1517L6.33179 39.1517L6.05312 38.7297Z" fill="#DCFFFE"/>
<path d="M3.24277 38.7673L6.07794 38.7673L6.14014 38.8614L3.24277 38.8614L3.24099 38.8614L3.24099 38.7673L3.24277 38.7673Z" fill="white"/>
<path opacity="0.4" d="M3.2409 38.8615C2.6926 38.8615 2.24657 38.4156 2.24657 37.8671L2.24657 37.7729C2.24657 38.3212 2.6926 38.7673 3.2409 38.7673L3.24268 38.7673L3.24268 38.8615L3.2409 38.8615Z" fill="white"/>
<path d="M2.24683 37.7729L2.14812 37.7729C2.12243 37.7729 2.10143 37.8053 2.10143 37.845L2.10143 38.1227C2.10143 38.1624 2.12227 38.1948 2.14812 38.1948L2.24683 38.1948L2.24683 37.7729Z" fill="#FF6600"/>
<path d="M15.5475 27.8172C13.9921 28.0452 7.10177 28.588 3.70392 27.8659C3.36661 27.7941 3.02704 27.9697 2.88988 28.2861L2.27551 32.4813C2.13432 32.807 2.3046 33.1825 2.64369 33.2876C4.37403 33.8246 9.55746 35.0558 16.4071 33.2275C16.7507 33.1358 16.9333 32.7595 16.8 32.4298L16.3239 28.2641C16.1987 27.9539 15.8787 27.7688 15.5475 27.8172Z" fill="#F4F4F4"/>
<path opacity="0.5" d="M15.5475 27.8172C13.9921 28.0452 7.10177 28.588 3.70392 27.8659C3.36661 27.7941 3.02704 27.9697 2.88988 28.2861L2.27551 32.4813C2.13432 32.807 2.3046 33.1825 2.64369 33.2876C4.37403 33.8246 9.55746 35.0558 16.4071 33.2275C16.7507 33.1358 16.9333 32.7595 16.8 32.4298L16.3239 28.2641C16.1987 27.9539 15.8787 27.7688 15.5475 27.8172Z" fill="url(#paint15_linear_506_13055)"/>
<path d="M15.6524 28.1021C15.8287 28.1021 15.9856 28.2087 16.0523 28.3735L16.5284 32.5392C16.5611 32.6206 16.5574 32.7125 16.5182 32.791C16.4797 32.8679 16.4133 32.9225 16.3313 32.9447C13.9551 33.5789 11.5541 33.9005 9.1952 33.9005C6.07248 33.9005 3.80434 33.3413 2.73021 33.0078C2.6475 32.9821 2.58207 32.9249 2.54605 32.8463C2.50954 32.7668 2.50873 32.6787 2.54395 32.5975L3.15831 28.4024C3.22681 28.2445 3.38157 28.1424 3.55265 28.1424C3.5827 28.1424 3.61291 28.1457 3.64295 28.1521C4.7935 28.3966 7.37585 28.5205 8.94109 28.5205C11.2205 28.5205 14.5353 28.2613 15.5898 28.1067C15.6109 28.1035 15.6318 28.1021 15.6524 28.1021Z" fill="black"/>
<path d="M15.6524 28.249C15.7688 28.249 15.8723 28.3196 15.9164 28.4288L16.3925 32.5945C16.4159 32.6525 16.3993 32.7018 16.3872 32.726C16.3733 32.7538 16.3458 32.7895 16.2935 32.8036C13.9295 33.4346 11.5414 33.7546 9.1952 33.7546C6.0917 33.7546 3.83972 33.1994 2.77366 32.8685C2.71615 32.8508 2.68966 32.8091 2.67899 32.7858C2.66817 32.7617 2.65347 32.7134 2.67818 32.6563L3.29255 28.4608C3.33778 28.3568 3.43988 28.2892 3.55264 28.2892C3.57251 28.2892 3.59255 28.2915 3.61242 28.2955C4.77298 28.5424 7.36567 28.6673 8.94108 28.6673C11.2297 28.6673 14.5526 28.407 15.6109 28.2521C15.6248 28.2502 15.6387 28.249 15.6524 28.249Z" fill="#676B86"/>
<path opacity="0.2" d="M16.2625 31.457C14.5577 31.8714 12.007 32.2039 9.53449 32.2039C7.088 32.2039 4.55202 31.8637 2.85383 31.457L2.67823 32.6562C2.65351 32.7134 2.66821 32.7617 2.67904 32.7858C2.6897 32.8089 2.71619 32.8507 2.7737 32.8685C3.83976 33.1993 6.09174 33.7546 9.19524 33.7546C11.5414 33.7546 13.9296 33.4346 16.2935 32.8035C16.3458 32.7895 16.3733 32.7538 16.3872 32.726C16.3992 32.7018 16.416 32.6525 16.3925 32.5945L16.2625 31.457Z" fill="black"/>
<path d="M16.3594 32.5122C14.5338 32.9631 12.1479 33.2368 9.53449 33.2368C6.93454 33.2368 4.55978 32.9658 2.73768 32.5192L2.67823 32.6563C2.65351 32.7135 2.66821 32.7618 2.67904 32.7859C2.6897 32.809 2.71619 32.8508 2.7737 32.8686C3.83976 33.1994 6.09174 33.7547 9.19524 33.7547C11.5414 33.7547 13.9296 33.4347 16.2935 32.8036C16.3458 32.7896 16.3733 32.7539 16.3872 32.7261C16.3992 32.7019 16.416 32.6526 16.3925 32.5946L16.3594 32.5122Z" fill="#333333"/>
<path d="M14.1458 32.584L12.2369 32.9814L12.2195 32.8859L14.1372 32.5361L14.1458 32.584Z" fill="black"/>
<path d="M9.57385 33.3692L12.1814 32.8936L12.0525 33.0159L9.5913 33.4646L9.57385 33.3692Z" fill="black"/>
<path d="M14.0257 32.5317L9.47149 33.3608L9.48086 33.4117L14.1418 32.5616L14.0257 32.5317Z" fill="#333333"/>
<path d="M9.58888 33.3905C9.60212 33.4636 9.55382 33.5335 9.4808 33.5468C9.40778 33.56 9.33783 33.5117 9.32458 33.4387C9.31134 33.3657 9.35964 33.2957 9.43266 33.2825C9.50568 33.2692 9.57563 33.3175 9.58888 33.3905Z" fill="black"/>
<path d="M9.5844 33.3667C9.59522 33.4265 9.55564 33.4838 9.49587 33.4946C9.4361 33.5056 9.37875 33.4659 9.36793 33.4061C9.35694 33.3463 9.39668 33.289 9.45645 33.2781C9.51623 33.2673 9.57358 33.3069 9.5844 33.3667Z" fill="#333333"/>
<path d="M9.91528 32.7981L7.97622 33.0024L7.9683 32.9057L9.91141 32.7498L9.91528 32.7981Z" fill="black"/>
<path d="M5.28757 33.1202L7.92969 32.9082L7.78898 33.0168L5.29532 33.2169L5.28757 33.1202Z" fill="black"/>
<path d="M9.80049 32.7344L5.18619 33.1032L5.19039 33.1549L9.91309 32.7757L9.80049 32.7344Z" fill="#333333"/>
<path d="M5.30034 33.1443C5.30632 33.2183 5.25107 33.2829 5.17724 33.2889C5.10325 33.2949 5.03863 33.2396 5.03265 33.1658C5.02667 33.0918 5.08193 33.0272 5.15575 33.0212C5.22958 33.0152 5.29436 33.0703 5.30034 33.1443Z" fill="black"/>
<path d="M5.29872 33.1202C5.30356 33.1808 5.25849 33.2338 5.19791 33.2388C5.13733 33.2436 5.08434 33.1984 5.0795 33.1378C5.07465 33.0772 5.11972 33.0242 5.1803 33.0194C5.24088 33.0146 5.29387 33.0596 5.29872 33.1202Z" fill="#333333"/>
<path opacity="0.5" d="M15.6524 28.249C15.7688 28.249 15.8723 28.3196 15.9164 28.4288L16.3925 32.5945C16.4159 32.6525 16.3993 32.7018 16.3872 32.726C16.3733 32.7538 16.3458 32.7895 16.2935 32.8036C13.9295 33.4346 11.5414 33.7546 9.1952 33.7546C6.0917 33.7546 3.83972 33.1994 2.77366 32.8685C2.71615 32.8508 2.68966 32.8091 2.67899 32.7858C2.66817 32.7617 2.65347 32.7134 2.67818 32.6563L3.29255 28.4608C3.33778 28.3568 3.43988 28.2892 3.55264 28.2892C3.57251 28.2892 3.59255 28.2915 3.61242 28.2955C4.77298 28.5424 7.36567 28.6673 8.94108 28.6673C11.2297 28.6673 14.5526 28.407 15.6109 28.2521C15.6248 28.2502 15.6387 28.249 15.6524 28.249Z" fill="url(#paint16_radial_506_13055)"/>
<path opacity="0.3" d="M15.6524 28.249C15.7688 28.249 15.8723 28.3196 15.9164 28.4288L16.3925 32.5945C16.4159 32.6525 16.3993 32.7018 16.3872 32.726C16.3733 32.7538 16.3458 32.7895 16.2935 32.8036C13.9295 33.4346 11.5414 33.7546 9.1952 33.7546C6.0917 33.7546 3.83972 33.1994 2.77366 32.8685C2.71615 32.8508 2.68966 32.8091 2.67899 32.7858C2.66817 32.7617 2.65347 32.7134 2.67818 32.6563L3.29255 28.4608C3.33778 28.3568 3.43988 28.2892 3.55264 28.2892C3.57251 28.2892 3.59255 28.2915 3.61242 28.2955C4.77298 28.5424 7.36567 28.6673 8.94108 28.6673C11.2297 28.6673 14.5526 28.407 15.6109 28.2521C15.6248 28.2502 15.6387 28.249 15.6524 28.249Z" fill="url(#paint17_radial_506_13055)"/>
<path d="M16.847 25.042C16.8402 25.042 16.8333 25.0431 16.8263 25.0449L16.1548 25.042C16.0855 25.0625 16.0331 25.1858 16.0331 25.3286L16.0331 27.2681C16.0331 27.3071 16.0368 27.345 16.0443 27.3809L16.7659 32.7592C16.7787 32.8211 16.8069 32.8595 16.8397 32.8595C16.885 32.8595 16.9205 32.7875 16.9205 32.6954L16.989 25.3315C16.989 25.2535 16.9741 25.1806 16.9468 25.1258C16.92 25.0716 16.8845 25.042 16.847 25.042Z" fill="#F4F4F4"/>
<path opacity="0.5" d="M16.847 25.042C16.8402 25.042 16.8333 25.0431 16.8263 25.0449L16.1548 25.042C16.0855 25.0625 16.0331 25.1858 16.0331 25.3286L16.0331 27.2681C16.0331 27.3071 16.0368 27.345 16.0443 27.3809L16.7659 32.7592C16.7787 32.8211 16.8069 32.8595 16.8397 32.8595C16.885 32.8595 16.9205 32.7875 16.9205 32.6954L16.989 25.3315C16.989 25.2535 16.9741 25.1806 16.9468 25.1258C16.92 25.0716 16.8845 25.042 16.847 25.042Z" fill="url(#paint18_linear_506_13055)"/>
<path d="M16.8152 32.7171L16.0936 27.3387C16.0889 27.3164 16.0866 27.2924 16.0866 27.2682L16.0866 25.3288C16.0866 25.2388 16.1191 25.1626 16.1627 25.1497L16.8343 25.1526C16.8879 25.1366 16.936 25.2214 16.936 25.3317L16.8675 32.6956C16.8674 32.7559 16.8267 32.7725 16.8152 32.7171Z" fill="black"/>
<path d="M16.8416 25.2597L16.1701 25.2568C16.1526 25.2618 16.1395 25.2927 16.1395 25.3286L16.1395 27.2681C16.1395 27.2778 16.1405 27.2872 16.1423 27.2961L16.8138 32.433L16.8823 25.3315C16.8823 25.3119 16.8786 25.2937 16.8718 25.2799C16.865 25.2664 16.8562 25.2589 16.8468 25.2589L16.8416 25.2597Z" fill="#676B86"/>
<path opacity="0.2" d="M16.6205 25.3258L16.8417 25.2601L16.847 25.2593C16.8564 25.2593 16.8653 25.2667 16.8721 25.2803C16.8789 25.294 16.8826 25.3123 16.8826 25.3318L16.8141 32.4334L16.6991 29.9794L16.6205 25.3258Z" fill="black"/>
<path opacity="0.5" d="M16.8416 25.2597L16.1701 25.2568C16.1526 25.2618 16.1395 25.2927 16.1395 25.3286L16.1395 27.2681C16.1395 27.2778 16.1405 27.2872 16.1423 27.2961L16.8138 32.433L16.8823 25.3315C16.8823 25.3119 16.8786 25.2937 16.8718 25.2799C16.865 25.2664 16.8562 25.2589 16.8468 25.2589L16.8416 25.2597Z" fill="url(#paint19_linear_506_13055)"/>
<path opacity="0.3" d="M16.8416 25.2597L16.1701 25.2568C16.1526 25.2618 16.1395 25.2927 16.1395 25.3286L16.1395 27.2681C16.1395 27.2778 16.1405 27.2872 16.1423 27.2961L16.8138 32.433L16.8823 25.3315C16.8823 25.3119 16.8786 25.2937 16.8718 25.2799C16.865 25.2664 16.8562 25.2589 16.8468 25.2589L16.8416 25.2597Z" fill="url(#paint20_linear_506_13055)"/>
<path d="M2.18222 25.0427C2.189 25.0427 2.19595 25.0439 2.2029 25.0456L2.87445 25.0427C2.94375 25.0632 2.99609 25.1865 2.99609 25.3293L2.99609 27.2689C2.99609 27.3078 2.99238 27.3458 2.98479 27.3816L2.26315 32.7599C2.25023 32.8218 2.22212 32.8603 2.18932 32.8603C2.14409 32.8603 2.10855 32.7882 2.10855 32.6961L2.04005 25.3322C2.04005 25.2542 2.05492 25.1813 2.08206 25.1266C2.1092 25.0723 2.14474 25.0427 2.18222 25.0427Z" fill="#F4F4F4"/>
<path opacity="0.5" d="M2.18222 25.0427C2.189 25.0427 2.19595 25.0439 2.2029 25.0456L2.87445 25.0427C2.94375 25.0632 2.99609 25.1865 2.99609 25.3293L2.99609 27.2689C2.99609 27.3078 2.99238 27.3458 2.98479 27.3816L2.26315 32.7599C2.25023 32.8218 2.22212 32.8603 2.18932 32.8603C2.14409 32.8603 2.10855 32.7882 2.10855 32.6961L2.04005 25.3322C2.04005 25.2542 2.05492 25.1813 2.08206 25.1266C2.1092 25.0723 2.14474 25.0427 2.18222 25.0427Z" fill="url(#paint21_linear_506_13055)"/>
<path d="M2.21404 32.7178L2.93568 27.3394C2.94037 27.3171 2.94263 27.2932 2.94263 27.2689L2.94263 25.3296C2.94263 25.2396 2.91032 25.1633 2.86654 25.1504L2.19498 25.1533C2.14135 25.1373 2.09321 25.2221 2.09321 25.3325L2.1617 32.6964C2.16186 32.7566 2.20241 32.7733 2.21404 32.7178Z" fill="black"/>
<path d="M2.18756 25.2605L2.85912 25.2576C2.87656 25.2626 2.88965 25.2934 2.88965 25.3293L2.88965 27.2689C2.88965 27.2785 2.88868 27.2879 2.8869 27.2968L2.21534 32.4338L2.14685 25.3322C2.14685 25.3127 2.15057 25.2944 2.15735 25.2807C2.16414 25.2671 2.17302 25.2597 2.18239 25.2597L2.18756 25.2605Z" fill="#676B86"/>
<path opacity="0.2" d="M2.40845 25.3261L2.18729 25.2603L2.18196 25.2595C2.17259 25.2595 2.1637 25.267 2.15692 25.2805C2.15013 25.2943 2.14641 25.3125 2.14641 25.3321L2.21491 32.4336L2.32994 29.9797L2.40845 25.3261Z" fill="black"/>
<path opacity="0.5" d="M2.18756 25.2605L2.85912 25.2576C2.87656 25.2626 2.88965 25.2934 2.88965 25.3293L2.88965 27.2689C2.88965 27.2785 2.88868 27.2879 2.8869 27.2968L2.21534 32.4338L2.14685 25.3322C2.14685 25.3127 2.15057 25.2944 2.15735 25.2807C2.16414 25.2671 2.17302 25.2597 2.18239 25.2597L2.18756 25.2605Z" fill="url(#paint22_linear_506_13055)"/>
<path opacity="0.3" d="M2.18756 25.2605L2.85912 25.2576C2.87656 25.2626 2.88965 25.2934 2.88965 25.3293L2.88965 27.2689C2.88965 27.2785 2.88868 27.2879 2.8869 27.2968L2.21534 32.4338L2.14685 25.3322C2.14685 25.3127 2.15057 25.2944 2.15735 25.2807C2.16414 25.2671 2.17302 25.2597 2.18239 25.2597L2.18756 25.2605Z" fill="url(#paint23_linear_506_13055)"/>
<path d="M16.8398 31.9084L18.4719 31.2793L18.4719 31.5838C18.4719 31.7271 18.3837 31.8557 18.25 31.9072L16.8398 32.4509L16.8398 31.9084Z" fill="#999999"/>
<path opacity="0.4" d="M16.8398 31.8708L18.4719 31.2417L18.4719 31.5462C18.4719 31.6895 18.3837 31.8181 18.25 31.8698L16.8398 32.4134L16.8398 31.8708Z" fill="url(#paint24_linear_506_13055)"/>
<path d="M17.3071 31.4818L18.3373 31.1463C18.4037 31.1246 18.4717 31.174 18.4717 31.2438L18.4717 31.6185L17.236 32.0209L17.236 31.5795C17.2362 31.5351 17.2649 31.4957 17.3071 31.4818Z" fill="#666666"/>
<path opacity="0.3" d="M17.3071 31.4818L18.3373 31.1463C18.4037 31.1246 18.4717 31.174 18.4717 31.2438L18.4717 31.6185L17.236 32.0209L17.236 31.5795C17.2362 31.5351 17.2649 31.4957 17.3071 31.4818Z" fill="url(#paint25_linear_506_13055)"/>
<path d="M2.17407 31.9086L0.541952 31.2795L0.541952 31.5841C0.541952 31.7274 0.630156 31.8559 0.763918 31.9075L2.17407 32.4511L2.17407 31.9086Z" fill="#999999"/>
<path opacity="0.4" d="M2.17407 31.871L0.541952 31.2419L0.541952 31.5465C0.541952 31.6898 0.630156 31.8184 0.763918 31.87L2.17407 32.4137L2.17407 31.871Z" fill="url(#paint26_linear_506_13055)"/>
<path d="M1.70667 31.482L0.676474 31.1465C0.610078 31.1248 0.541908 31.1743 0.541908 31.2441L0.541908 31.6187L1.77759 32.0211L1.77759 31.5798C1.77743 31.5353 1.74883 31.4959 1.70667 31.482Z" fill="#666666"/>
<path opacity="0.3" d="M1.70667 31.482L0.676474 31.1465C0.610078 31.1248 0.541908 31.1743 0.541908 31.2441L0.541908 31.6187L1.77759 32.0211L1.77759 31.5798C1.77743 31.5353 1.74883 31.4959 1.70667 31.482Z" fill="url(#paint27_linear_506_13055)"/>
<path opacity="0.7" d="M5.39198 25.345L14.1616 25.345L13.839 26.4232L5.06937 26.4232L5.39198 25.345Z" fill="url(#paint28_linear_506_13055)"/>
<path d="M5.23523 25.6104L13.8344 25.6104C14.0955 25.6104 14.3071 25.822 14.3071 26.083L14.3071 26.5858C14.3071 26.8468 14.0955 27.0585 13.8344 27.0585L5.23523 27.0585C4.97417 27.0585 4.76254 26.8468 4.76254 26.5858L4.76254 26.083C4.76254 25.822 4.97417 25.6104 5.23523 25.6104Z" fill="#999999"/>
<path d="M5.23532 27.0583L8.47339 27.0583L8.47339 25.6104L5.23532 25.6104C4.97426 25.6104 4.76263 25.822 4.76263 26.083L4.76263 26.5858C4.76263 26.8467 4.97426 27.0583 5.23532 27.0583Z" fill="#5D94FF"/>
<path opacity="0.5" d="M8.12842 25.9548L8.12842 26.7138L5.23493 26.7138C5.16449 26.7138 5.10698 26.6563 5.10698 26.5855L5.10698 26.0831C5.10698 26.0123 5.16433 25.9548 5.23493 25.9548L8.12842 25.9548Z" fill="#5384E4"/>
<path d="M13.8344 27.0583L10.5964 27.0583L10.5964 25.6104L13.8344 25.6104C14.0955 25.6104 14.3071 25.822 14.3071 26.083L14.3071 26.5858C14.3071 26.8467 14.0955 27.0583 13.8344 27.0583Z" fill="#CC0000"/>
<path opacity="0.3" d="M13.8345 25.9548C13.9051 25.9548 13.9626 26.0123 13.9626 26.0831L13.9626 26.5855C13.9626 26.6563 13.9053 26.7138 13.8345 26.7138L10.941 26.7138L10.941 25.9548L13.8345 25.9548Z" fill="#660000"/>
<path opacity="0.5" d="M5.23523 25.6104L13.8344 25.6104C14.0955 25.6104 14.3071 25.822 14.3071 26.083L14.3071 26.5858C14.3071 26.8468 14.0955 27.0585 13.8344 27.0585L5.23523 27.0585C4.97417 27.0585 4.76254 26.8468 4.76254 26.5858L4.76254 26.083C4.76254 25.822 4.97417 25.6104 5.23523 25.6104Z" fill="url(#paint29_radial_506_13055)"/>
<path opacity="0.5" d="M5.23523 25.6104L13.8344 25.6104C14.0955 25.6104 14.3071 25.822 14.3071 26.083L14.3071 26.5858C14.3071 26.8468 14.0955 27.0585 13.8344 27.0585L5.23523 27.0585C4.97417 27.0585 4.76254 26.8468 4.76254 26.5858L4.76254 26.083C4.76254 25.822 4.97417 25.6104 5.23523 25.6104Z" fill="url(#paint30_linear_506_13055)"/>
<path d="M5.40875 26.9386L13.6608 26.9386C13.9114 26.9386 14.1143 26.753 14.1143 26.5241L14.1143 26.3352C14.1143 26.5641 13.9112 26.7497 13.6608 26.7497L5.40875 26.7497C5.15835 26.7497 4.95529 26.5641 4.95529 26.3352L4.95529 26.5241C4.95529 26.753 5.15835 26.9386 5.40875 26.9386Z" fill="url(#paint31_linear_506_13055)"/>
<path d="M5.40875 25.731L13.6608 25.731C13.9114 25.731 14.1143 25.9166 14.1143 26.1455L14.1143 26.3343C14.1143 26.1054 13.9112 25.9198 13.6608 25.9198L5.40875 25.9198C5.15835 25.9198 4.95529 26.1054 4.95529 26.3343L4.95529 26.1455C4.95529 25.9164 5.15835 25.731 5.40875 25.731Z" fill="url(#paint32_linear_506_13055)"/>
<path opacity="0.4" d="M14.0974 26.9778L13.9784 26.836C13.9376 26.7877 13.9124 26.6951 13.9123 26.5946L13.9118 26.0749C13.9116 25.9741 13.937 25.8811 13.9779 25.8326L14.0974 25.6903C14.0648 25.6685 14.0286 25.6522 13.991 25.6389L13.9102 25.735C13.8674 25.7861 13.8407 25.8837 13.8409 25.9896L13.8414 26.6767C13.8415 26.7819 13.8678 26.8788 13.9103 26.9297L13.9929 27.0287C14.0297 27.0156 14.0654 26.9995 14.0974 26.9778Z" fill="white"/>
<path opacity="0.4" d="M4.97881 26.9778L5.09787 26.836C5.13858 26.7877 5.16378 26.6951 5.16394 26.5946L5.16443 26.0749C5.16443 25.9741 5.13923 25.8811 5.09835 25.8326L4.97881 25.6903C5.01144 25.6685 5.04763 25.6522 5.08527 25.6389L5.16604 25.735C5.20885 25.7861 5.23551 25.8837 5.23535 25.9896L5.2347 26.6767C5.2347 26.7819 5.20821 26.8788 5.16572 26.9297L5.08317 27.0287C5.04634 27.0156 5.0108 26.9995 4.97881 26.9778Z" fill="white"/>
<path opacity="0.4" d="M13.6177 26.3689L13.6177 26.2993L5.45174 26.2993L5.45174 26.3689L13.6177 26.3689Z" fill="black"/>
<path d="M1.33295 0.617431L17.7366 0.617432C17.9328 0.617432 18.0918 0.77656 18.0918 0.972842L18.0918 24.3923C18.0918 24.5886 17.9327 24.7477 17.7366 24.7477L1.33295 24.7477C1.13667 24.7477 0.977548 24.5886 0.977548 24.3923L0.977549 0.972842C0.977549 0.776559 1.13667 0.617431 1.33295 0.617431Z" fill="#CC3300"/>
<path d="M17.7367 0.85791C17.7997 0.85791 17.8511 0.909283 17.8511 0.972126L17.8511 24.3916C17.8511 24.4545 17.7997 24.5058 17.7367 24.5058L1.33326 24.5058C1.27026 24.5058 1.21904 24.4545 1.21904 24.3916L1.21905 0.972125C1.21905 0.909282 1.27042 0.857909 1.33326 0.857909L17.7367 0.85791Z" fill="#F5F7EA"/>
<path d="M17.7367 0.85791C17.7997 0.85791 17.8511 0.909283 17.8511 0.972126L17.8511 24.3916C17.8511 24.4545 17.7997 24.5058 17.7367 24.5058L1.33326 24.5058C1.27026 24.5058 1.21904 24.4545 1.21904 24.3916L1.21905 0.972125C1.21905 0.909282 1.27042 0.857909 1.33326 0.857909L17.7367 0.85791Z" fill="url(#paint33_radial_506_13055)"/>
<path opacity="0.2" d="M17.7367 0.85791C17.7997 0.85791 17.8511 0.909283 17.8511 0.972126L17.8511 24.3916C17.8511 24.4545 17.7997 24.5058 17.7367 24.5058L1.33326 24.5058C1.27026 24.5058 1.21904 24.4545 1.21904 24.3916L1.21905 0.972125C1.21905 0.909282 1.27042 0.857909 1.33326 0.857909L17.7367 0.85791Z" fill="url(#paint34_radial_506_13055)"/>
<path d="M15.4653 0.49612L15.4653 0.617442L17.1228 0.617442L17.1228 0.49612C17.1228 0.360096 17.0125 0.249756 16.8763 0.249756L15.7117 0.249756C15.5757 0.249756 15.4653 0.360095 15.4653 0.49612Z" fill="#EF0C0C"/>
<path opacity="0.4" d="M15.6521 0.575987L16.9363 0.575987C16.9363 0.418638 16.8087 0.291016 16.6513 0.291016L15.9371 0.291016C15.7798 0.291016 15.6521 0.418638 15.6521 0.575987Z" fill="#660000"/>
<path d="M17.0212 0.594098L17.0133 0.594098C16.9815 0.449349 16.8529 0.340949 16.6986 0.340949L15.8901 0.340949C15.7358 0.340949 15.6072 0.449349 15.5754 0.594097L15.5675 0.594097C15.5675 0.415908 15.7119 0.271484 15.8901 0.271484L16.6986 0.271484C16.8768 0.271484 17.0212 0.415909 17.0212 0.594098Z" fill="url(#paint35_linear_506_13055)"/>
<path opacity="0.6" d="M16.014 0.438562C16.1676 0.437592 16.3214 0.436623 16.4751 0.435493C16.5432 0.435008 16.6175 0.428708 16.6849 0.442116C16.7122 0.447609 16.7655 0.458271 16.7668 0.494296C16.7681 0.529676 16.7258 0.53517 16.6991 0.535332C16.623 0.535332 15.7562 0.540823 15.7562 0.526445C15.7565 0.493489 15.7828 0.465219 15.8134 0.452457C15.8439 0.439695 15.8778 0.43937 15.9108 0.439047C15.9452 0.439047 15.9796 0.438723 16.014 0.438562Z" fill="url(#paint36_linear_506_13055)"/>
<path d="M2.28539 0.49612L2.28539 0.617442L3.94287 0.617442L3.94287 0.49612C3.94287 0.360096 3.83253 0.249756 3.69651 0.249756L2.53191 0.249756C2.39588 0.249756 2.28539 0.360095 2.28539 0.49612Z" fill="#EF0C0C"/>
<path opacity="0.4" d="M2.47212 0.575987L3.7561 0.575987C3.7561 0.418638 3.62848 0.291016 3.47113 0.291016L2.75693 0.291016C2.59974 0.291016 2.47212 0.418638 2.47212 0.575987Z" fill="#660000"/>
<path d="M3.84082 0.594586L3.8329 0.594586C3.80108 0.449838 3.67249 0.341438 3.51821 0.341438L2.70966 0.341438C2.55538 0.341438 2.42679 0.449838 2.39496 0.594586L2.38705 0.594586C2.38705 0.416397 2.53147 0.271973 2.70966 0.271973L3.51821 0.271973C3.69639 0.271973 3.84082 0.416397 3.84082 0.594586Z" fill="url(#paint37_linear_506_13055)"/>
<path opacity="0.6" d="M2.83407 0.438562C2.9877 0.437592 3.1415 0.436623 3.29513 0.435493C3.3633 0.435008 3.43762 0.428708 3.50498 0.442116C3.53228 0.447609 3.58559 0.458271 3.58689 0.494296C3.58818 0.529676 3.54585 0.53517 3.5192 0.535332C3.44311 0.535332 2.57624 0.540823 2.57624 0.526445C2.57656 0.493489 2.60289 0.465219 2.63343 0.452457C2.66396 0.439695 2.69788 0.43937 2.73084 0.439047C2.76541 0.439047 2.79982 0.438723 2.83407 0.438562Z" fill="url(#paint38_linear_506_13055)"/>
<path d="M10.1662 9.94327L10.1662 8.66202C10.1662 8.60257 10.2143 8.55427 10.2738 8.55427L11.555 8.55427C11.6145 8.55427 11.6626 8.50612 11.6626 8.44667L11.6626 7.35541C11.6626 7.29596 11.6145 7.24765 11.555 7.24765L10.2738 7.24765C10.2143 7.24765 10.1662 7.19951 10.1662 7.14006L10.1662 5.85881C10.1662 5.79936 10.118 5.75122 10.0584 5.75122L8.96717 5.75122C8.90772 5.75122 8.85957 5.79936 8.85957 5.85881L8.85957 7.14006C8.85957 7.19951 8.81143 7.24765 8.75182 7.24765L7.47075 7.24765C7.4113 7.24765 7.36316 7.2958 7.36316 7.35541L7.36316 8.44667C7.36316 8.50612 7.4113 8.55427 7.47075 8.55427L8.75182 8.55427C8.81127 8.55427 8.85957 8.60241 8.85957 8.66202L8.85957 9.94327C8.85957 10.0027 8.90772 10.0509 8.96717 10.0509L10.0584 10.0509C10.118 10.0509 10.1662 10.0027 10.1662 9.94327Z" fill="#CC3300"/>
<path d="M4.34956 0.617431L15.0906 0.617432L15.0906 0.294816L4.34956 0.294816L4.34956 0.617431Z" fill="#F5F7EA"/>
<path opacity="0.5" d="M4.34981 0.294921L15.0908 0.294922L15.0908 0.617535L4.34981 0.617535L4.34981 0.294921Z" fill="url(#paint39_linear_506_13055)"/>
<path opacity="0.5" d="M9.67756 0.617432L9.7627 0.617432L9.7627 0.294816L9.67756 0.294816L9.67756 0.617432Z" fill="#666666"/>
<path d="M10.0417 0.406796L14.8498 0.406796C14.9082 0.406796 14.9553 0.359623 14.9553 0.301304L14.9553 0.295166L9.93618 0.295166L9.93618 0.301304C9.93618 0.359623 9.98336 0.406796 10.0417 0.406796Z" fill="#AAD5F9"/>
<path d="M10.0417 0.406796L14.8498 0.406796C14.9082 0.406796 14.9553 0.359623 14.9553 0.301304L14.9553 0.295166L14.9413 0.295166C14.9233 0.327961 14.8899 0.351061 14.8498 0.351061L10.0417 0.351061C10.0018 0.351061 9.96817 0.32796 9.95024 0.295166L9.93618 0.295166L9.93618 0.301304C9.93618 0.359623 9.98336 0.406796 10.0417 0.406796Z" fill="white"/>
<path d="M4.58415 0.406551L9.39231 0.406552C9.45063 0.406552 9.4978 0.359379 9.4978 0.30106L9.4978 0.294922L4.47866 0.294922L4.47866 0.30106C4.47883 0.359379 4.52599 0.406551 4.58415 0.406551Z" fill="#AAD5F9"/>
<path d="M4.58415 0.406551L9.39231 0.406552C9.45063 0.406552 9.4978 0.359379 9.4978 0.30106L9.4978 0.294922L9.48375 0.294922C9.46582 0.327716 9.43237 0.350817 9.39231 0.350817L4.58415 0.350817C4.54425 0.350817 4.51065 0.327716 4.49271 0.294922L4.47866 0.294922L4.47866 0.30106C4.47883 0.359379 4.52599 0.406551 4.58415 0.406551Z" fill="white"/>
<path d="M0.977779 24.5061L0.977779 30.4157C0.977779 30.5902 1.04708 30.7574 1.17034 30.8808L1.74658 31.4571L1.74658 24.5061L0.977779 24.5061Z" fill="#CCCCCC"/>
<path d="M1.09877 24.6272L1.62671 24.6272L1.62671 31.1667L1.25612 30.7963C1.15466 30.6948 1.09877 30.5599 1.09877 30.4165L1.09877 24.6272Z" fill="url(#paint40_linear_506_13055)"/>
<path opacity="0.5" d="M0.977779 24.5061L0.977779 30.4157C0.977779 30.5902 1.04708 30.7574 1.17034 30.8808L1.74658 31.4571L1.74658 24.5061L0.977779 24.5061Z" fill="url(#paint41_linear_506_13055)"/>
<path opacity="0.4" d="M0.977779 24.5061L0.977779 30.4157C0.977779 30.5902 1.04708 30.7574 1.17034 30.8808L1.74658 31.4571L1.74658 24.5061L0.977779 24.5061Z" fill="url(#paint42_linear_506_13055)"/>
<mask id="mask1_506_13055" style="mask-type:luminance" maskUnits="userSpaceOnUse" x="1" y="24" width="1" height="8">
<path d="M1.09852 24.6274L1.62646 24.6274L1.62646 31.167L1.25587 30.7965C1.15442 30.6951 1.09852 30.5602 1.09852 30.4167L1.09852 24.6274Z" fill="white"/>
</mask>
<g mask="url(#mask1_506_13055)">
<path d="M1.5069 24.6785C1.46118 24.704 1.41498 24.7085 1.41498 24.7085C1.41498 24.7085 1.44293 24.6715 1.48865 24.646C1.53436 24.6205 1.58057 24.616 1.58057 24.616C1.58057 24.616 1.55261 24.653 1.5069 24.6785Z" fill="#999999"/>
<path d="M1.14517 24.8875C1.09945 24.913 1.05341 24.9175 1.05341 24.9175C1.05341 24.9175 1.08136 24.8805 1.12707 24.855C1.17279 24.8295 1.21899 24.825 1.21899 24.825C1.21899 24.825 1.19088 24.8619 1.14517 24.8875Z" fill="#999999"/>
<path d="M1.33201 24.7584C1.35754 24.8041 1.36206 24.8502 1.36206 24.8502C1.36206 24.8502 1.32507 24.8222 1.29954 24.7765C1.27402 24.7308 1.26949 24.6846 1.26949 24.6846C1.26949 24.6846 1.30649 24.7127 1.33201 24.7584Z" fill="#999999"/>
<path d="M1.55931 24.8857C1.58483 24.9314 1.58936 24.9776 1.58936 24.9776C1.58936 24.9776 1.55236 24.9497 1.52684 24.9039C1.50131 24.8582 1.49679 24.812 1.49679 24.812C1.49679 24.812 1.53378 24.84 1.55931 24.8857Z" fill="#999999"/>
<path d="M1.19765 25.0936C1.22318 25.1393 1.22754 25.1854 1.22754 25.1854C1.22754 25.1854 1.19055 25.1574 1.16502 25.1117C1.1395 25.066 1.13513 25.0198 1.13513 25.0198C1.13513 25.0198 1.17213 25.0479 1.19765 25.0936Z" fill="#999999"/>
<path d="M1.35168 24.9839C1.3974 24.9584 1.4436 24.9539 1.4436 24.9539C1.4436 24.9539 1.41566 24.9909 1.36994 25.0164C1.32422 25.0419 1.27818 25.0464 1.27818 25.0464C1.27818 25.0464 1.30613 25.0094 1.35168 24.9839Z" fill="#999999"/>
<path d="M1.63044 25.1653C1.58472 25.1908 1.53852 25.1952 1.53852 25.1952C1.53852 25.1952 1.56646 25.1582 1.61218 25.1327C1.6579 25.1071 1.7041 25.1028 1.7041 25.1028C1.7041 25.1028 1.67615 25.1398 1.63044 25.1653Z" fill="#999999"/>
<path d="M1.26862 25.3736C1.2229 25.3991 1.1767 25.4034 1.1767 25.4034C1.1767 25.4034 1.20465 25.3664 1.25036 25.3409C1.29608 25.3154 1.34229 25.311 1.34229 25.311C1.34229 25.311 1.31434 25.348 1.26862 25.3736Z" fill="#999999"/>
<path d="M1.45604 25.2456C1.48156 25.2913 1.48608 25.3375 1.48608 25.3375C1.48608 25.3375 1.44909 25.3096 1.42357 25.2639C1.39804 25.2182 1.39352 25.1721 1.39352 25.1721C1.39352 25.1721 1.43051 25.1999 1.45604 25.2456Z" fill="#999999"/>
<path d="M1.68284 25.3727C1.70837 25.4185 1.71289 25.4647 1.71289 25.4647C1.71289 25.4647 1.67589 25.4367 1.65037 25.391C1.62484 25.3453 1.62032 25.2991 1.62032 25.2991C1.62032 25.2991 1.65732 25.327 1.68284 25.3727Z" fill="#999999"/>
<path d="M1.32103 25.5808C1.34655 25.6266 1.35107 25.6728 1.35107 25.6728C1.35107 25.6728 1.31408 25.6448 1.28856 25.5991C1.26303 25.5534 1.25867 25.5073 1.25867 25.5073C1.25867 25.5073 1.2955 25.5351 1.32103 25.5808Z" fill="#999999"/>
<path d="M1.47546 25.4708C1.52118 25.4453 1.56738 25.4409 1.56738 25.4409C1.56738 25.4409 1.53944 25.4779 1.49372 25.5034C1.448 25.529 1.4018 25.5333 1.4018 25.5333C1.4018 25.5333 1.42974 25.4963 1.47546 25.4708Z" fill="#999999"/>
<path d="M1.12683 25.6565C1.17255 25.631 1.21875 25.6265 1.21875 25.6265C1.21875 25.6265 1.1908 25.6635 1.14508 25.689C1.09936 25.7145 1.05332 25.719 1.05332 25.719C1.05332 25.719 1.08111 25.682 1.12683 25.6565Z" fill="#999999"/>
<path d="M1.59389 25.6979C1.61942 25.7436 1.62378 25.7896 1.62378 25.7896C1.62378 25.7896 1.58679 25.7617 1.56126 25.7159C1.53574 25.6702 1.53121 25.624 1.53121 25.624C1.53121 25.624 1.56821 25.6521 1.59389 25.6979Z" fill="#999999"/>
<path d="M1.23207 25.9057C1.2576 25.9514 1.26196 25.9976 1.26196 25.9976C1.26196 25.9976 1.22496 25.9697 1.19944 25.924C1.17392 25.8782 1.16955 25.832 1.16955 25.832C1.16955 25.832 1.20655 25.86 1.23207 25.9057Z" fill="#999999"/>
<path d="M1.38733 25.7958C1.43305 25.7702 1.47925 25.7659 1.47925 25.7659C1.47925 25.7659 1.4513 25.8029 1.40558 25.8284C1.35986 25.8539 1.31366 25.8583 1.31366 25.8583C1.31366 25.8583 1.34161 25.8213 1.38733 25.7958Z" fill="#999999"/>
<path d="M1.66421 25.9774C1.61849 26.0029 1.57245 26.0074 1.57245 26.0074C1.57245 26.0074 1.6004 25.9705 1.64612 25.9449C1.69183 25.9194 1.73804 25.915 1.73804 25.915C1.73804 25.915 1.70993 25.9519 1.66421 25.9774Z" fill="#999999"/>
<path d="M1.3024 26.1853C1.25668 26.2108 1.21063 26.2154 1.21063 26.2154C1.21063 26.2154 1.23858 26.1784 1.2843 26.1529C1.33002 26.1273 1.37622 26.1228 1.37622 26.1228C1.37622 26.1228 1.34812 26.1598 1.3024 26.1853Z" fill="#999999"/>
<path d="M1.48948 26.0573C1.51501 26.103 1.51953 26.1492 1.51953 26.1492C1.51953 26.1492 1.48253 26.1213 1.45701 26.0756C1.43148 26.0298 1.42696 25.9836 1.42696 25.9836C1.42696 25.9836 1.46396 26.0116 1.48948 26.0573Z" fill="#999999"/>
<path d="M1.35512 26.3928C1.38065 26.4385 1.38501 26.4847 1.38501 26.4847C1.38501 26.4847 1.34802 26.4567 1.32249 26.411C1.29697 26.3653 1.29261 26.3191 1.29261 26.3191C1.29261 26.3191 1.32944 26.347 1.35512 26.3928Z" fill="#999999"/>
<path d="M1.50989 26.2832C1.5556 26.2577 1.60181 26.2532 1.60181 26.2532C1.60181 26.2532 1.57386 26.2902 1.52814 26.3157C1.48242 26.3412 1.43622 26.3457 1.43622 26.3457C1.43622 26.3457 1.46417 26.3087 1.50989 26.2832Z" fill="#999999"/>
<path d="M1.16101 26.4685C1.20673 26.443 1.25293 26.4385 1.25293 26.4385C1.25293 26.4385 1.22498 26.4755 1.17926 26.501C1.13355 26.5265 1.08734 26.5309 1.08734 26.5309C1.08734 26.5309 1.11529 26.494 1.16101 26.4685Z" fill="#999999"/>
<path d="M1.59389 26.5121C1.61942 26.5579 1.62378 26.6041 1.62378 26.6041C1.62378 26.6041 1.58679 26.5761 1.56126 26.5304C1.53574 26.4847 1.53121 26.4385 1.53121 26.4385C1.53121 26.4385 1.56821 26.4664 1.59389 26.5121Z" fill="#999999"/>
<path d="M1.23207 26.7201C1.2576 26.7658 1.26196 26.8118 1.26196 26.8118C1.26196 26.8118 1.22496 26.7839 1.19944 26.7382C1.17392 26.6924 1.16955 26.6462 1.16955 26.6462C1.16955 26.6462 1.20655 26.6743 1.23207 26.7201Z" fill="#999999"/>
<path d="M1.38733 26.6102C1.43305 26.5847 1.47925 26.5803 1.47925 26.5803C1.47925 26.5803 1.4513 26.6173 1.40558 26.6428C1.35986 26.6684 1.31366 26.6727 1.31366 26.6727C1.31366 26.6727 1.34161 26.6357 1.38733 26.6102Z" fill="#999999"/>
<path d="M1.66421 26.7919C1.61849 26.8175 1.57245 26.8218 1.57245 26.8218C1.57245 26.8218 1.6004 26.7848 1.64612 26.7593C1.69183 26.7338 1.73804 26.7292 1.73804 26.7292C1.73804 26.7292 1.70993 26.7664 1.66421 26.7919Z" fill="#999999"/>
<path d="M1.30264 27C1.25692 27.0255 1.21088 27.0301 1.21088 27.0301C1.21088 27.0301 1.23883 26.9931 1.28454 26.9675C1.33026 26.942 1.37646 26.9375 1.37646 26.9375C1.37646 26.9375 1.34836 26.9745 1.30264 27Z" fill="#999999"/>
<path d="M1.48973 26.8718C1.51525 26.9175 1.51978 26.9637 1.51978 26.9637C1.51978 26.9637 1.48278 26.9357 1.45725 26.89C1.43173 26.8443 1.42721 26.7981 1.42721 26.7981C1.42721 26.7981 1.4642 26.826 1.48973 26.8718Z" fill="#999999"/>
<path d="M1.35537 27.2075C1.38089 27.2533 1.38525 27.2995 1.38525 27.2995C1.38525 27.2995 1.34826 27.2715 1.32274 27.2258C1.29721 27.1801 1.29285 27.134 1.29285 27.134C1.29285 27.134 1.32968 27.1618 1.35537 27.2075Z" fill="#999999"/>
<path d="M1.50989 27.0974C1.5556 27.0719 1.60181 27.0674 1.60181 27.0674C1.60181 27.0674 1.57386 27.1044 1.52814 27.1299C1.48242 27.1554 1.43622 27.16 1.43622 27.16C1.43622 27.16 1.46417 27.123 1.50989 27.0974Z" fill="#999999"/>
<path d="M1.16125 27.2828C1.20697 27.2573 1.25317 27.2529 1.25317 27.2529C1.25317 27.2529 1.22523 27.2899 1.17951 27.3154C1.13379 27.341 1.08759 27.3453 1.08759 27.3453C1.08759 27.3453 1.11553 27.3083 1.16125 27.2828Z" fill="#999999"/>
<path d="M1.59389 27.3264C1.61942 27.3722 1.62378 27.4184 1.62378 27.4184C1.62378 27.4184 1.58679 27.3904 1.56126 27.3447C1.53574 27.299 1.53121 27.2529 1.53121 27.2529C1.53121 27.2529 1.56821 27.2807 1.59389 27.3264Z" fill="#999999"/>
<path d="M1.23207 27.5344C1.2576 27.5801 1.26196 27.6263 1.26196 27.6263C1.26196 27.6263 1.22496 27.5983 1.19944 27.5526C1.17392 27.5069 1.16955 27.4607 1.16955 27.4607C1.16955 27.4607 1.20655 27.4886 1.23207 27.5344Z" fill="#999999"/>
<path d="M1.38708 27.4251C1.4328 27.3995 1.479 27.395 1.479 27.395C1.479 27.395 1.45106 27.432 1.40534 27.4575C1.35962 27.4831 1.31342 27.4874 1.31342 27.4874C1.31342 27.4874 1.34136 27.4506 1.38708 27.4251Z" fill="#999999"/>
<path d="M1.66397 27.606C1.61825 27.6315 1.57221 27.6359 1.57221 27.6359C1.57221 27.6359 1.60015 27.5989 1.64587 27.5733C1.69159 27.5478 1.73779 27.5435 1.73779 27.5435C1.73779 27.5435 1.70968 27.5805 1.66397 27.606Z" fill="#999999"/>
<path d="M1.30215 27.8139C1.25644 27.8394 1.21039 27.8438 1.21039 27.8438C1.21039 27.8438 1.23834 27.8068 1.28406 27.7813C1.32977 27.7557 1.37598 27.7512 1.37598 27.7512C1.37598 27.7512 1.34787 27.7884 1.30215 27.8139Z" fill="#999999"/>
<path d="M1.48924 27.6859C1.51476 27.7316 1.51929 27.7776 1.51929 27.7776C1.51929 27.7776 1.48229 27.7497 1.45676 27.704C1.43124 27.6583 1.42672 27.6121 1.42672 27.6121C1.42672 27.6121 1.46371 27.6402 1.48924 27.6859Z" fill="#999999"/>
<path d="M1.35537 28.0226C1.38089 28.0684 1.38525 28.1146 1.38525 28.1146C1.38525 28.1146 1.34826 28.0866 1.32274 28.0409C1.29721 27.9952 1.29285 27.949 1.29285 27.949C1.29285 27.949 1.32968 27.9769 1.35537 28.0226Z" fill="#999999"/>
<path d="M1.50989 27.9124C1.5556 27.8868 1.60181 27.8823 1.60181 27.8823C1.60181 27.8823 1.57386 27.9193 1.52814 27.9448C1.48242 27.9704 1.43622 27.9749 1.43622 27.9749C1.43622 27.9749 1.46417 27.9379 1.50989 27.9124Z" fill="#999999"/>
<path d="M1.16125 28.098C1.20697 28.0725 1.25317 28.0681 1.25317 28.0681C1.25317 28.0681 1.22523 28.1051 1.17951 28.1306C1.13379 28.1562 1.08759 28.1605 1.08759 28.1605C1.08759 28.1605 1.11553 28.1237 1.16125 28.098Z" fill="#999999"/>
<path d="M1.59389 28.1413C1.61942 28.187 1.62378 28.2332 1.62378 28.2332C1.62378 28.2332 1.58679 28.2053 1.56126 28.1595C1.53574 28.1138 1.53121 28.0676 1.53121 28.0676C1.53121 28.0676 1.56821 28.0956 1.59389 28.1413Z" fill="#999999"/>
<path d="M1.23207 28.3491C1.2576 28.3949 1.26196 28.4411 1.26196 28.4411C1.26196 28.4411 1.22496 28.4131 1.19944 28.3674C1.17392 28.3217 1.16955 28.2756 1.16955 28.2756C1.16955 28.2756 1.20655 28.3034 1.23207 28.3491Z" fill="#999999"/>
<path d="M1.38733 28.2393C1.43305 28.2138 1.47925 28.2092 1.47925 28.2092C1.47925 28.2092 1.4513 28.2462 1.40558 28.2717C1.35986 28.2973 1.31366 28.3016 1.31366 28.3016C1.31366 28.3016 1.34161 28.2648 1.38733 28.2393Z" fill="#999999"/>
<path d="M1.66397 28.4207C1.61825 28.4462 1.57221 28.4506 1.57221 28.4506C1.57221 28.4506 1.60015 28.4136 1.64587 28.388C1.69159 28.3625 1.73779 28.3582 1.73779 28.3582C1.73779 28.3582 1.70968 28.3951 1.66397 28.4207Z" fill="#999999"/>
<path d="M1.30215 28.6279C1.25644 28.6535 1.21039 28.6578 1.21039 28.6578C1.21039 28.6578 1.23834 28.6208 1.28406 28.5953C1.32977 28.5698 1.37598 28.5654 1.37598 28.5654C1.37598 28.5654 1.34787 28.6024 1.30215 28.6279Z" fill="#999999"/>
<path d="M1.48924 28.5007C1.51476 28.5464 1.51929 28.5926 1.51929 28.5926C1.51929 28.5926 1.48229 28.5646 1.45676 28.5189C1.43124 28.4732 1.42672 28.427 1.42672 28.427C1.42672 28.427 1.46371 28.4549 1.48924 28.5007Z" fill="#999999"/>
<path d="M1.35488 28.8359C1.3804 28.8816 1.38477 28.9278 1.38477 28.9278C1.38477 28.9278 1.34777 28.8998 1.32225 28.8541C1.29672 28.8084 1.29236 28.7622 1.29236 28.7622C1.29236 28.7622 1.32919 28.7902 1.35488 28.8359Z" fill="#999999"/>
<path d="M1.50915 28.7252C1.55487 28.6997 1.60107 28.6953 1.60107 28.6953C1.60107 28.6953 1.57313 28.7323 1.52741 28.7578C1.48169 28.7834 1.43549 28.7877 1.43549 28.7877C1.43549 28.7877 1.46344 28.7507 1.50915 28.7252Z" fill="#999999"/>
<path d="M1.16076 28.9115C1.20648 28.886 1.25269 28.8816 1.25269 28.8816C1.25269 28.8816 1.22474 28.9186 1.17902 28.9441C1.1333 28.9696 1.0871 28.974 1.0871 28.974C1.0871 28.974 1.11505 28.9372 1.16076 28.9115Z" fill="#999999"/>
<path d="M1.59389 28.956C1.61942 29.0017 1.62378 29.0479 1.62378 29.0479C1.62378 29.0479 1.58679 29.02 1.56126 28.9742C1.53574 28.9285 1.53121 28.8823 1.53121 28.8823C1.53121 28.8823 1.56821 28.9103 1.59389 28.956Z" fill="#999999"/>
<path d="M1.23207 29.1642C1.2576 29.21 1.26196 29.2562 1.26196 29.2562C1.26196 29.2562 1.22496 29.2282 1.19944 29.1825C1.17392 29.1368 1.16955 29.0906 1.16955 29.0906C1.16955 29.0906 1.20655 29.1185 1.23207 29.1642Z" fill="#999999"/>
<path d="M1.38733 29.0542C1.43305 29.0287 1.47925 29.0242 1.47925 29.0242C1.47925 29.0242 1.4513 29.0612 1.40558 29.0867C1.35986 29.1122 1.31366 29.1167 1.31366 29.1167C1.31366 29.1167 1.34161 29.0797 1.38733 29.0542Z" fill="#999999"/>
<path d="M1.66421 29.2352C1.61849 29.2607 1.57245 29.2653 1.57245 29.2653C1.57245 29.2653 1.6004 29.2283 1.64612 29.2027C1.69183 29.1772 1.73804 29.1729 1.73804 29.1729C1.73804 29.1729 1.70993 29.2097 1.66421 29.2352Z" fill="#999999"/>
<path d="M1.3024 29.4431C1.25668 29.4687 1.21063 29.473 1.21063 29.473C1.21063 29.473 1.23858 29.436 1.2843 29.4105C1.33002 29.385 1.37622 29.3806 1.37622 29.3806C1.37622 29.3806 1.34812 29.4176 1.3024 29.4431Z" fill="#999999"/>
<path d="M1.48948 29.3152C1.51501 29.3609 1.51953 29.4071 1.51953 29.4071C1.51953 29.4071 1.48253 29.3792 1.45701 29.3335C1.43148 29.2877 1.42696 29.2417 1.42696 29.2417C1.42696 29.2417 1.46396 29.2695 1.48948 29.3152Z" fill="#999999"/>
<path d="M1.35537 29.6515C1.38089 29.6973 1.38525 29.7435 1.38525 29.7435C1.38525 29.7435 1.34826 29.7155 1.32274 29.6698C1.29721 29.6241 1.29285 29.5779 1.29285 29.5779C1.29285 29.5779 1.32968 29.6058 1.35537 29.6515Z" fill="#999999"/>
<path d="M1.50964 29.5406C1.55536 29.5151 1.60156 29.5107 1.60156 29.5107C1.60156 29.5107 1.57362 29.5477 1.5279 29.5733C1.48218 29.5988 1.43598 29.6033 1.43598 29.6033C1.43598 29.6033 1.46392 29.5662 1.50964 29.5406Z" fill="#999999"/>
<path d="M1.16125 29.7268C1.20697 29.7013 1.25317 29.6968 1.25317 29.6968C1.25317 29.6968 1.22523 29.7338 1.17951 29.7593C1.13379 29.7848 1.08759 29.7893 1.08759 29.7893C1.08759 29.7893 1.11553 29.7524 1.16125 29.7268Z" fill="#999999"/>
<path d="M1.59389 29.7699C1.61942 29.8156 1.62378 29.8616 1.62378 29.8616C1.62378 29.8616 1.58679 29.8337 1.56126 29.788C1.53574 29.7422 1.53121 29.696 1.53121 29.696C1.53121 29.696 1.56821 29.7242 1.59389 29.7699Z" fill="#999999"/>
<path d="M1.23207 29.9777C1.2576 30.0234 1.26196 30.0696 1.26196 30.0696C1.26196 30.0696 1.22496 30.0417 1.19944 29.996C1.17392 29.9503 1.16955 29.9041 1.16955 29.9041C1.16955 29.9041 1.20655 29.9322 1.23207 29.9777Z" fill="#999999"/>
<path d="M1.38733 29.8677C1.43305 29.8422 1.47925 29.8376 1.47925 29.8376C1.47925 29.8376 1.4513 29.8746 1.40558 29.9002C1.35986 29.9257 1.31366 29.9301 1.31366 29.9301C1.31366 29.9301 1.34161 29.8932 1.38733 29.8677Z" fill="#999999"/>
<path d="M1.66397 30.0493C1.61825 30.0748 1.57221 30.0791 1.57221 30.0791C1.57221 30.0791 1.60015 30.0421 1.64587 30.0166C1.69159 29.9911 1.73779 29.9866 1.73779 29.9866C1.73779 29.9866 1.70968 30.0237 1.66397 30.0493Z" fill="#999999"/>
<path d="M1.30215 30.2572C1.25644 30.2827 1.21039 30.2872 1.21039 30.2872C1.21039 30.2872 1.23834 30.2502 1.28406 30.2247C1.32977 30.1992 1.37598 30.1948 1.37598 30.1948C1.37598 30.1948 1.34787 30.2317 1.30215 30.2572Z" fill="#999999"/>
<path d="M1.48924 30.1285C1.51476 30.1742 1.51929 30.2203 1.51929 30.2203C1.51929 30.2203 1.48229 30.1923 1.45676 30.1466C1.43124 30.1009 1.42672 30.0547 1.42672 30.0547C1.42672 30.0547 1.46371 30.0828 1.48924 30.1285Z" fill="#999999"/>
<path d="M1.35488 30.4647C1.3804 30.5104 1.38477 30.5565 1.38477 30.5565C1.38477 30.5565 1.34777 30.5285 1.32225 30.4828C1.29672 30.4371 1.29236 30.3909 1.29236 30.3909C1.29236 30.3909 1.32919 30.419 1.35488 30.4647Z" fill="#999999"/>
<path d="M1.50915 30.3546C1.55487 30.3291 1.60107 30.3247 1.60107 30.3247C1.60107 30.3247 1.57313 30.3617 1.52741 30.3872C1.48169 30.4128 1.43549 30.4171 1.43549 30.4171C1.43549 30.4171 1.46344 30.3801 1.50915 30.3546Z" fill="#999999"/>
<path d="M1.16076 30.5403C1.20648 30.5148 1.25269 30.5103 1.25269 30.5103C1.25269 30.5103 1.22474 30.5472 1.17902 30.5728C1.1333 30.5983 1.0871 30.6028 1.0871 30.6028C1.0871 30.6028 1.11505 30.5658 1.16076 30.5403Z" fill="#999999"/>
<path d="M1.59389 30.5847C1.61942 30.6304 1.62378 30.6766 1.62378 30.6766C1.62378 30.6766 1.58679 30.6486 1.56126 30.6029C1.53574 30.5572 1.53121 30.511 1.53121 30.511C1.53121 30.511 1.56821 30.5389 1.59389 30.5847Z" fill="#999999"/>
<path d="M1.23207 30.7927C1.2576 30.8384 1.26196 30.8846 1.26196 30.8846C1.26196 30.8846 1.22496 30.8566 1.19944 30.8109C1.17392 30.7652 1.16955 30.719 1.16955 30.719C1.16955 30.719 1.20655 30.7471 1.23207 30.7927Z" fill="#999999"/>
<path d="M1.38733 30.6827C1.43305 30.6572 1.47925 30.6528 1.47925 30.6528C1.47925 30.6528 1.4513 30.6898 1.40558 30.7154C1.35986 30.7409 1.31366 30.7454 1.31366 30.7454C1.31366 30.7454 1.34161 30.7082 1.38733 30.6827Z" fill="#999999"/>
<path d="M1.66421 30.8645C1.61849 30.8901 1.57245 30.8946 1.57245 30.8946C1.57245 30.8946 1.6004 30.8576 1.64612 30.8321C1.69183 30.8065 1.73804 30.802 1.73804 30.802C1.73804 30.802 1.70993 30.839 1.66421 30.8645Z" fill="#999999"/>
<path d="M1.30264 31.072C1.25692 31.0976 1.21088 31.1021 1.21088 31.1021C1.21088 31.1021 1.23883 31.0651 1.28454 31.0396C1.33026 31.014 1.37646 31.0095 1.37646 31.0095C1.37646 31.0095 1.34836 31.0465 1.30264 31.072Z" fill="#999999"/>
<path d="M1.48948 30.9443C1.51501 30.99 1.51953 31.0362 1.51953 31.0362C1.51953 31.0362 1.48253 31.0082 1.45701 30.9625C1.43148 30.9168 1.42696 30.8706 1.42696 30.8706C1.42696 30.8706 1.46396 30.8986 1.48948 30.9443Z" fill="#999999"/>
<path d="M1.50989 31.1709C1.5556 31.1454 1.60181 31.1409 1.60181 31.1409C1.60181 31.1409 1.57386 31.1779 1.52814 31.2034C1.48242 31.2289 1.43622 31.2334 1.43622 31.2334C1.43622 31.2334 1.46417 31.1964 1.50989 31.1709Z" fill="#999999"/>
</g>
<defs>
<linearGradient id="paint0_linear_506_13055" x1="17.7338" y1="23.4545" x2="17.4124" y2="40.4822" gradientUnits="userSpaceOnUse">
<stop stop-color="#C7C5C5"/>
<stop offset="0.0359" stop-color="#676767"/>
<stop offset="0.1123" stop-color="white"/>
<stop offset="0.3019" stop-color="#929292"/>
<stop offset="0.492" stop-color="white"/>
<stop offset="0.6257" stop-color="#676767"/>
<stop offset="0.7701" stop-color="#929292"/>
<stop offset="0.8233" stop-color="#C7C5C5"/>
<stop offset="1" stop-color="#343433"/>
</linearGradient>
<linearGradient id="paint1_linear_506_13055" x1="17.2765" y1="27.9816" x2="17.4272" y2="27.9816" gradientUnits="userSpaceOnUse">
<stop offset="0.0051"/>
<stop offset="1" stop-opacity="0"/>
</linearGradient>
<linearGradient id="paint2_linear_506_13055" x1="17.6567" y1="24.5061" x2="17.6567" y2="25.0353" gradientUnits="userSpaceOnUse">
<stop offset="0.0051"/>
<stop offset="1" stop-opacity="0"/>
</linearGradient>
<linearGradient id="paint3_linear_506_13055" x1="15.354" y1="39.8417" x2="14.8386" y2="39.8645" gradientUnits="userSpaceOnUse">
<stop stop-color="#C7C5C5"/>
<stop offset="0.0359" stop-color="#676767"/>
<stop offset="0.1123" stop-color="white"/>
<stop offset="0.3019" stop-color="#929292"/>
<stop offset="0.492" stop-color="white"/>
<stop offset="0.6809" stop-color="#676767"/>
<stop offset="0.7701" stop-color="#929292"/>
<stop offset="0.8233" stop-color="#C7C5C5"/>
<stop offset="1" stop-color="#343433"/>
</linearGradient>
<linearGradient id="paint4_linear_506_13055" x1="13.978" y1="39.8418" x2="14.4903" y2="39.8644" gradientUnits="userSpaceOnUse">
<stop stop-color="#C7C5C5"/>
<stop offset="0.0359" stop-color="#676767"/>
<stop offset="0.1123" stop-color="white"/>
<stop offset="0.3019" stop-color="#929292"/>
<stop offset="0.492" stop-color="white"/>
<stop offset="0.6809" stop-color="#676767"/>
<stop offset="0.7701" stop-color="#929292"/>
<stop offset="0.8233" stop-color="#C7C5C5"/>
<stop offset="1" stop-color="#343433"/>
</linearGradient>
<linearGradient id="paint5_linear_506_13055" x1="15.4642" y1="39.7004" x2="12.9721" y2="39.7004" gradientUnits="userSpaceOnUse">
<stop stop-color="#C7C5C5"/>
<stop offset="0.0359" stop-color="#676767"/>
<stop offset="0.1123" stop-color="white"/>
<stop offset="0.3019" stop-color="#929292"/>
<stop offset="0.492" stop-color="white"/>
<stop offset="0.6257" stop-color="#676767"/>
<stop offset="0.7701" stop-color="#929292"/>
<stop offset="0.8233" stop-color="#C7C5C5"/>
<stop offset="1" stop-color="#343433"/>
</linearGradient>
<linearGradient id="paint6_linear_506_13055" x1="5.09468" y1="39.8417" x2="4.57927" y2="39.8645" gradientUnits="userSpaceOnUse">
<stop stop-color="#C7C5C5"/>
<stop offset="0.0359" stop-color="#676767"/>
<stop offset="0.1123" stop-color="white"/>
<stop offset="0.3019" stop-color="#929292"/>
<stop offset="0.492" stop-color="white"/>
<stop offset="0.6809" stop-color="#676767"/>
<stop offset="0.7701" stop-color="#929292"/>
<stop offset="0.8233" stop-color="#C7C5C5"/>
<stop offset="1" stop-color="#343433"/>
</linearGradient>
<linearGradient id="paint7_linear_506_13055" x1="3.71885" y1="39.8418" x2="4.23119" y2="39.8644" gradientUnits="userSpaceOnUse">
<stop stop-color="#C7C5C5"/>
<stop offset="0.0359" stop-color="#676767"/>
<stop offset="0.1123" stop-color="white"/>
<stop offset="0.3019" stop-color="#929292"/>
<stop offset="0.492" stop-color="white"/>
<stop offset="0.6809" stop-color="#676767"/>
<stop offset="0.7701" stop-color="#929292"/>
<stop offset="0.8233" stop-color="#C7C5C5"/>
<stop offset="1" stop-color="#343433"/>
</linearGradient>
<linearGradient id="paint8_linear_506_13055" x1="5.2049" y1="39.7004" x2="2.71276" y2="39.7004" gradientUnits="userSpaceOnUse">
<stop stop-color="#C7C5C5"/>
<stop offset="0.0359" stop-color="#676767"/>
<stop offset="0.1123" stop-color="white"/>
<stop offset="0.3019" stop-color="#929292"/>
<stop offset="0.492" stop-color="white"/>
<stop offset="0.6257" stop-color="#676767"/>
<stop offset="0.7701" stop-color="#929292"/>
<stop offset="0.8233" stop-color="#C7C5C5"/>
<stop offset="1" stop-color="#343433"/>
</linearGradient>
<linearGradient id="paint9_linear_506_13055" x1="18.2228" y1="38.5981" x2="-6.79115" y2="38.4775" gradientUnits="userSpaceOnUse">
<stop stop-color="#C7C5C5"/>
<stop offset="0.0359" stop-color="#676767"/>
<stop offset="0.1123" stop-color="white"/>
<stop offset="0.3019" stop-color="#929292"/>
<stop offset="0.492" stop-color="white"/>
<stop offset="0.6257" stop-color="#676767"/>
<stop offset="0.7701" stop-color="#929292"/>
<stop offset="0.8233" stop-color="#C7C5C5"/>
<stop offset="1" stop-color="#343433"/>
</linearGradient>
<linearGradient id="paint10_linear_506_13055" x1="18.2228" y1="38.5981" x2="-6.79115" y2="38.4775" gradientUnits="userSpaceOnUse">
<stop stop-color="#C7C5C5"/>
<stop offset="0.0359" stop-color="#676767"/>
<stop offset="0.1123" stop-color="white"/>
<stop offset="0.3019" stop-color="#929292"/>
<stop offset="0.492" stop-color="white"/>
<stop offset="0.6257" stop-color="#676767"/>
<stop offset="0.7701" stop-color="#929292"/>
<stop offset="0.8233" stop-color="#C7C5C5"/>
<stop offset="1" stop-color="#343433"/>
</linearGradient>
<radialGradient id="paint11_radial_506_13055" cx="0" cy="0" r="1" gradientUnits="userSpaceOnUse" gradientTransform="translate(19.2095 32.4225) rotate(-180) scale(18.0444 18.0446)">
<stop offset="0.0102"/>
<stop offset="1" stop-opacity="0"/>
</radialGradient>
<linearGradient id="paint12_linear_506_13055" x1="16.8404" y1="31.887" x2="2.22912" y2="31.887" gradientUnits="userSpaceOnUse">
<stop offset="0.3386" stop-color="white" stop-opacity="0"/>
<stop offset="0.6521" stop-color="white"/>
</linearGradient>
<linearGradient id="paint13_linear_506_13055" x1="13.3418" y1="33.8433" x2="13.8405" y2="33.8806" gradientUnits="userSpaceOnUse">
<stop offset="0.0051"/>
<stop offset="1" stop-opacity="0"/>
</linearGradient>
<linearGradient id="paint14_linear_506_13055" x1="5.7347" y1="33.8433" x2="5.23599" y2="33.8806" gradientUnits="userSpaceOnUse">
<stop offset="0.0051" stop-color="#999999"/>
<stop offset="1" stop-color="#999999" stop-opacity="0"/>
</linearGradient>
<linearGradient id="paint15_linear_506_13055" x1="9.53465" y1="34.2084" x2="9.53465" y2="33.7784" gradientUnits="userSpaceOnUse">
<stop offset="0.0051"/>
<stop offset="1" stop-opacity="0"/>
</linearGradient>
<radialGradient id="paint16_radial_506_13055" cx="0" cy="0" r="1" gradientUnits="userSpaceOnUse" gradientTransform="translate(16.3663 31.2299) rotate(-180) scale(11.9321 11.9322)">
<stop stop-color="white" stop-opacity="0"/>
<stop offset="1" stop-color="white"/>
</radialGradient>
<radialGradient id="paint17_radial_506_13055" cx="0" cy="0" r="1" gradientUnits="userSpaceOnUse" gradientTransform="translate(14.9939 30.549) rotate(-180) scale(11.4863 11.4864)">
<stop offset="0.0102"/>
<stop offset="1" stop-opacity="0"/>
</radialGradient>
<linearGradient id="paint18_linear_506_13055" x1="16.9962" y1="28.9507" x2="16.9377" y2="28.9507" gradientUnits="userSpaceOnUse">
<stop offset="0.0051"/>
<stop offset="1" stop-opacity="0"/>
</linearGradient>
<linearGradient id="paint19_linear_506_13055" x1="16.8783" y1="28.8448" x2="16.6374" y2="28.8448" gradientUnits="userSpaceOnUse">
<stop stop-color="white"/>
<stop offset="1" stop-color="white" stop-opacity="0"/>
</linearGradient>
<linearGradient id="paint20_linear_506_13055" x1="16.4768" y1="28.8448" x2="16.1515" y2="28.8448" gradientUnits="userSpaceOnUse">
<stop stop-opacity="0"/>
<stop offset="0.9898"/>
</linearGradient>
<linearGradient id="paint21_linear_506_13055" x1="2.03309" y1="28.9515" x2="2.09154" y2="28.9515" gradientUnits="userSpaceOnUse">
<stop offset="0.0051"/>
<stop offset="1" stop-opacity="0"/>
</linearGradient>
<linearGradient id="paint22_linear_506_13055" x1="2.15066" y1="28.8455" x2="2.39161" y2="28.8455" gradientUnits="userSpaceOnUse">
<stop stop-color="white"/>
<stop offset="1" stop-color="white" stop-opacity="0"/>
</linearGradient>
<linearGradient id="paint23_linear_506_13055" x1="2.55219" y1="28.8455" x2="2.87753" y2="28.8455" gradientUnits="userSpaceOnUse">
<stop stop-opacity="0"/>
<stop offset="0.9898"/>
</linearGradient>
<linearGradient id="paint24_linear_506_13055" x1="17.7431" y1="32.0672" x2="17.6979" y2="31.9429" gradientUnits="userSpaceOnUse">
<stop stop-color="white"/>
<stop offset="1" stop-color="white" stop-opacity="0"/>
</linearGradient>
<linearGradient id="paint25_linear_506_13055" x1="17.2889" y1="31.8856" x2="18.1026" y2="31.4298" gradientUnits="userSpaceOnUse">
<stop offset="0.0051"/>
<stop offset="1" stop-opacity="0"/>
</linearGradient>
<linearGradient id="paint26_linear_506_13055" x1="1.27089" y1="32.0675" x2="1.31611" y2="31.9432" gradientUnits="userSpaceOnUse">
<stop stop-color="white"/>
<stop offset="1" stop-color="white" stop-opacity="0"/>
</linearGradient>
<linearGradient id="paint27_linear_506_13055" x1="1.72489" y1="31.8859" x2="0.911171" y2="31.43" gradientUnits="userSpaceOnUse">
<stop offset="0.0051"/>
<stop offset="1" stop-opacity="0"/>
</linearGradient>
<linearGradient id="paint28_linear_506_13055" x1="9.61548" y1="25.3416" x2="9.61548" y2="25.7188" gradientUnits="userSpaceOnUse">
<stop stop-opacity="0"/>
<stop offset="0.9898"/>
</linearGradient>
<radialGradient id="paint29_radial_506_13055" cx="0" cy="0" r="1" gradientUnits="userSpaceOnUse" gradientTransform="translate(9.5348 26.3344) rotate(-180) scale(3.41311 3.41313)">
<stop stop-color="white" stop-opacity="0"/>
<stop offset="1" stop-color="white"/>
</radialGradient>
<linearGradient id="paint30_linear_506_13055" x1="9.5348" y1="25.9283" x2="9.5348" y2="25.6191" gradientUnits="userSpaceOnUse">
<stop stop-opacity="0"/>
<stop offset="0.9898"/>
</linearGradient>
<linearGradient id="paint31_linear_506_13055" x1="14.1143" y1="26.6369" x2="4.9553" y2="26.6369" gradientUnits="userSpaceOnUse">
<stop stop-color="white" stop-opacity="0"/>
<stop offset="1" stop-color="white"/>
</linearGradient>
<linearGradient id="paint32_linear_506_13055" x1="8.0209" y1="26.0326" x2="13.6426" y2="26.0326" gradientUnits="userSpaceOnUse">
<stop stop-color="white" stop-opacity="0"/>
<stop offset="1" stop-color="white"/>
</linearGradient>
<radialGradient id="paint33_radial_506_13055" cx="0" cy="0" r="1" gradientUnits="userSpaceOnUse" gradientTransform="translate(1.69001 22.8985) rotate(-180) scale(21.8 21.8002)">
<stop stop-color="white" stop-opacity="0"/>
<stop offset="1" stop-color="white"/>
</radialGradient>
<radialGradient id="paint34_radial_506_13055" cx="0" cy="0" r="1" gradientUnits="userSpaceOnUse" gradientTransform="translate(23.2281 8.99501) rotate(-180) scale(31.6921 31.6923)">
<stop offset="0.0102"/>
<stop offset="1" stop-opacity="0"/>
</radialGradient>
<linearGradient id="paint35_linear_506_13055" x1="15.48" y1="0.577006" x2="17.3937" y2="0.29071" gradientUnits="userSpaceOnUse">
<stop stop-color="white" stop-opacity="0"/>
<stop offset="1" stop-color="white"/>
</linearGradient>
<linearGradient id="paint36_linear_506_13055" x1="16.2616" y1="0.536446" x2="16.2616" y2="0.433699" gradientUnits="userSpaceOnUse">
<stop stop-color="white" stop-opacity="0"/>
<stop offset="1" stop-color="white"/>
</linearGradient>
<linearGradient id="paint37_linear_506_13055" x1="2.29962" y1="0.577494" x2="4.21335" y2="0.2912" gradientUnits="userSpaceOnUse">
<stop stop-color="white" stop-opacity="0"/>
<stop offset="1" stop-color="white"/>
</linearGradient>
<linearGradient id="paint38_linear_506_13055" x1="3.08166" y1="0.536446" x2="3.08166" y2="0.433699" gradientUnits="userSpaceOnUse">
<stop stop-color="white" stop-opacity="0"/>
<stop offset="1" stop-color="white"/>
</linearGradient>
<linearGradient id="paint39_linear_506_13055" x1="9.7203" y1="0.476971" x2="9.7203" y2="0.617696" gradientUnits="userSpaceOnUse">
<stop stop-opacity="0"/>
<stop offset="0.9898"/>
</linearGradient>
<linearGradient id="paint40_linear_506_13055" x1="1.28583" y1="23.4545" x2="1.60729" y2="40.4822" gradientUnits="userSpaceOnUse">
<stop stop-color="#C7C5C5"/>
<stop offset="0.0359" stop-color="#676767"/>
<stop offset="0.1123" stop-color="white"/>
<stop offset="0.3019" stop-color="#929292"/>
<stop offset="0.492" stop-color="white"/>
<stop offset="0.6257" stop-color="#676767"/>
<stop offset="0.7701" stop-color="#929292"/>
<stop offset="0.8233" stop-color="#C7C5C5"/>
<stop offset="1" stop-color="#343433"/>
</linearGradient>
<linearGradient id="paint41_linear_506_13055" x1="1.74249" y1="27.9816" x2="1.5918" y2="27.9816" gradientUnits="userSpaceOnUse">
<stop offset="0.0051"/>
<stop offset="1" stop-opacity="0"/>
</linearGradient>
<linearGradient id="paint42_linear_506_13055" x1="1.36228" y1="24.5061" x2="1.36228" y2="25.0353" gradientUnits="userSpaceOnUse">
<stop offset="0.0051"/>
<stop offset="1" stop-opacity="0"/>
</linearGradient>
</defs>
</svg>
