<svg width="42" height="19" viewBox="0 0 42 19" fill="none" xmlns="http://www.w3.org/2000/svg">
<path d="M16.9939 18.0413L11.0843 18.0413C10.9098 18.0413 10.7426 17.972 10.6192 17.8487L10.0429 17.2725L16.9939 17.2725L16.9939 18.0413Z" fill="#CCCCCC"/>
<path d="M16.8728 17.9209L16.8728 17.393L10.3333 17.393L10.7037 17.7636C10.8052 17.865 10.9401 17.9209 11.0835 17.9209L16.8728 17.9209Z" fill="url(#paint0_linear_506_14003)"/>
<path opacity="0.5" d="M16.9939 18.0413L11.0843 18.0413C10.9098 18.0413 10.7426 17.972 10.6192 17.8487L10.0429 17.2725L16.9939 17.2725L16.9939 18.0413Z" fill="url(#paint1_linear_506_14003)"/>
<path opacity="0.4" d="M16.9939 18.0413L11.0843 18.0413C10.9098 18.0413 10.7426 17.972 10.6192 17.8487L10.0429 17.2725L16.9939 17.2725L16.9939 18.0413Z" fill="url(#paint2_linear_506_14003)"/>
<mask id="mask0_506_14003" style="mask-type:luminance" maskUnits="userSpaceOnUse" x="10" y="17" width="7" height="1">
<path d="M16.8726 17.9202L16.8726 17.3922L10.333 17.3922L10.7035 17.7628C10.8049 17.8643 10.9398 17.9202 11.0833 17.9202L16.8726 17.9202Z" fill="white"/>
</mask>
<g mask="url(#mask0_506_14003)">
<path d="M16.8218 17.5131C16.7962 17.5588 16.7917 17.605 16.7917 17.605C16.7917 17.605 16.8287 17.577 16.8542 17.5313C16.8798 17.4856 16.8843 17.4394 16.8843 17.4394C16.8843 17.4394 16.8473 17.4673 16.8218 17.5131Z" fill="#999999"/>
<path d="M16.6135 17.8746C16.588 17.9203 16.5835 17.9666 16.5835 17.9666C16.5835 17.9666 16.6205 17.9386 16.646 17.8929C16.6715 17.8472 16.676 17.801 16.676 17.801C16.676 17.801 16.639 17.8289 16.6135 17.8746Z" fill="#999999"/>
<path d="M16.7418 17.6875C16.6961 17.662 16.6501 17.6574 16.6501 17.6574C16.6501 17.6574 16.678 17.6944 16.7238 17.72C16.7695 17.7455 16.8157 17.75 16.8157 17.75C16.8157 17.75 16.7876 17.713 16.7418 17.6875Z" fill="#999999"/>
<path d="M16.6141 17.4602C16.5684 17.4347 16.5222 17.4301 16.5222 17.4301C16.5222 17.4301 16.5501 17.4671 16.5958 17.4927C16.6415 17.5182 16.6877 17.5227 16.6877 17.5227C16.6877 17.5227 16.6598 17.4857 16.6141 17.4602Z" fill="#999999"/>
<path d="M16.4062 17.822C16.3604 17.7965 16.3144 17.7921 16.3144 17.7921C16.3144 17.7921 16.3423 17.8291 16.3881 17.8546C16.4338 17.8802 16.48 17.8845 16.48 17.8845C16.48 17.8845 16.4519 17.8475 16.4062 17.822Z" fill="#999999"/>
<path d="M16.5163 17.6673C16.5419 17.6216 16.5464 17.5754 16.5464 17.5754C16.5464 17.5754 16.5094 17.6033 16.4839 17.649C16.4583 17.6948 16.4538 17.741 16.4538 17.741C16.4538 17.741 16.4908 17.713 16.5163 17.6673Z" fill="#999999"/>
<path d="M16.3347 17.3902C16.3092 17.4359 16.3048 17.4819 16.3048 17.4819C16.3048 17.4819 16.3418 17.454 16.3673 17.4083C16.3929 17.3626 16.3972 17.3165 16.3972 17.3165C16.3972 17.3165 16.3602 17.3445 16.3347 17.3902Z" fill="#999999"/>
<path d="M16.1264 17.7518C16.1009 17.7975 16.0966 17.8437 16.0966 17.8437C16.0966 17.8437 16.1336 17.8158 16.1591 17.7701C16.1846 17.7244 16.189 17.6782 16.189 17.6782C16.189 17.6782 16.152 17.7061 16.1264 17.7518Z" fill="#999999"/>
<path d="M16.2549 17.5647C16.2091 17.5391 16.1629 17.5346 16.1629 17.5346C16.1629 17.5346 16.1909 17.5716 16.2366 17.5971C16.2823 17.6227 16.3284 17.6272 16.3284 17.6272C16.3284 17.6272 16.3006 17.5902 16.2549 17.5647Z" fill="#999999"/>
<path d="M16.1268 17.338C16.0811 17.3124 16.0348 17.3081 16.0348 17.3081C16.0348 17.3081 16.0628 17.3451 16.1085 17.3706C16.1542 17.3961 16.2004 17.4006 16.2004 17.4006C16.2004 17.4006 16.1725 17.3635 16.1268 17.338Z" fill="#999999"/>
<path d="M15.9187 17.6999C15.873 17.6744 15.8268 17.67 15.8268 17.67C15.8268 17.67 15.8547 17.707 15.9004 17.7326C15.9461 17.7581 15.9922 17.7625 15.9922 17.7625C15.9922 17.7625 15.9644 17.7255 15.9187 17.6999Z" fill="#999999"/>
<path d="M16.0287 17.5452C16.0542 17.4994 16.0586 17.4532 16.0586 17.4532C16.0586 17.4532 16.0216 17.4812 15.9961 17.5269C15.9706 17.5726 15.9662 17.6187 15.9662 17.6187C15.9662 17.6187 16.0032 17.5909 16.0287 17.5452Z" fill="#999999"/>
<path d="M15.843 17.8946C15.8685 17.8489 15.873 17.8027 15.873 17.8027C15.873 17.8027 15.836 17.8306 15.8105 17.8763C15.785 17.9221 15.7805 17.9683 15.7805 17.9683C15.7805 17.9683 15.8175 17.9403 15.843 17.8946Z" fill="#999999"/>
<path d="M15.8026 17.4265C15.7569 17.401 15.7109 17.3966 15.7109 17.3966C15.7109 17.3966 15.7388 17.4336 15.7845 17.4591C15.8303 17.4847 15.8765 17.489 15.8765 17.489C15.8765 17.489 15.8484 17.452 15.8026 17.4265Z" fill="#999999"/>
<path d="M15.5945 17.7883C15.5488 17.7628 15.5026 17.7584 15.5026 17.7584C15.5026 17.7584 15.5306 17.7954 15.5763 17.8209C15.622 17.8465 15.6682 17.8508 15.6682 17.8508C15.6682 17.8508 15.6403 17.8138 15.5945 17.7883Z" fill="#999999"/>
<path d="M15.7047 17.6331C15.7303 17.5874 15.7346 17.5412 15.7346 17.5412C15.7346 17.5412 15.6976 17.5691 15.6721 17.6149C15.6466 17.6606 15.6422 17.7068 15.6422 17.7068C15.6422 17.7068 15.6792 17.6788 15.7047 17.6331Z" fill="#999999"/>
<path d="M15.5226 17.3568C15.4971 17.4025 15.4926 17.4487 15.4926 17.4487C15.4926 17.4487 15.5295 17.4208 15.5551 17.3751C15.5806 17.3293 15.585 17.2831 15.585 17.2831C15.585 17.2831 15.5481 17.3111 15.5226 17.3568Z" fill="#999999"/>
<path d="M15.3147 17.7186C15.2892 17.7643 15.2846 17.8105 15.2846 17.8105C15.2846 17.8105 15.3216 17.7826 15.3471 17.7369C15.3727 17.6912 15.3772 17.645 15.3772 17.645C15.3772 17.645 15.3402 17.6729 15.3147 17.7186Z" fill="#999999"/>
<path d="M15.4427 17.5315C15.397 17.5059 15.3508 17.5014 15.3508 17.5014C15.3508 17.5014 15.3787 17.5384 15.4244 17.5639C15.4702 17.5895 15.5164 17.594 15.5164 17.594C15.5164 17.594 15.4884 17.557 15.4427 17.5315Z" fill="#999999"/>
<path d="M15.1077 17.6667C15.062 17.6412 15.0158 17.6368 15.0158 17.6368C15.0158 17.6368 15.0438 17.6738 15.0895 17.6994C15.1352 17.7249 15.1814 17.7292 15.1814 17.7292C15.1814 17.7292 15.1534 17.6923 15.1077 17.6667Z" fill="#999999"/>
<path d="M15.2173 17.512C15.2428 17.4663 15.2473 17.4201 15.2473 17.4201C15.2473 17.4201 15.2103 17.4481 15.1848 17.4938C15.1593 17.5395 15.1547 17.5857 15.1547 17.5857C15.1547 17.5857 15.1917 17.5577 15.2173 17.512Z" fill="#999999"/>
<path d="M15.032 17.8607C15.0575 17.8149 15.062 17.7687 15.062 17.7687C15.062 17.7687 15.025 17.7967 14.9995 17.8424C14.974 17.8881 14.9696 17.9343 14.9696 17.9343C14.9696 17.9343 15.0064 17.9064 15.032 17.8607Z" fill="#999999"/>
<path d="M14.9879 17.4265C14.9421 17.401 14.8959 17.3966 14.8959 17.3966C14.8959 17.3966 14.9239 17.4336 14.9696 17.4591C15.0153 17.4847 15.0615 17.489 15.0615 17.489C15.0615 17.489 15.0336 17.452 14.9879 17.4265Z" fill="#999999"/>
<path d="M14.7799 17.7883C14.7342 17.7628 14.6882 17.7584 14.6882 17.7584C14.6882 17.7584 14.7161 17.7954 14.7618 17.8209C14.8076 17.8465 14.8538 17.8508 14.8538 17.8508C14.8538 17.8508 14.8257 17.8138 14.7799 17.7883Z" fill="#999999"/>
<path d="M14.8895 17.6331C14.9151 17.5874 14.9194 17.5412 14.9194 17.5412C14.9194 17.5412 14.8824 17.5691 14.8569 17.6149C14.8314 17.6606 14.827 17.7068 14.827 17.7068C14.827 17.7068 14.864 17.6788 14.8895 17.6331Z" fill="#999999"/>
<path d="M14.7083 17.3566C14.6828 17.4023 14.6784 17.4485 14.6784 17.4485C14.6784 17.4485 14.7154 17.4205 14.7409 17.3748C14.7665 17.3291 14.771 17.2829 14.771 17.2829C14.771 17.2829 14.7338 17.3108 14.7083 17.3566Z" fill="#999999"/>
<path d="M14.4995 17.7186C14.474 17.7643 14.4694 17.8105 14.4694 17.8105C14.4694 17.8105 14.5064 17.7826 14.532 17.7369C14.5575 17.6912 14.562 17.645 14.562 17.645C14.562 17.645 14.525 17.6729 14.4995 17.7186Z" fill="#999999"/>
<path d="M14.6277 17.5315C14.582 17.5059 14.5358 17.5014 14.5358 17.5014C14.5358 17.5014 14.5638 17.5384 14.6095 17.5639C14.6552 17.5895 14.7014 17.594 14.7014 17.594C14.7014 17.594 14.6735 17.557 14.6277 17.5315Z" fill="#999999"/>
<path d="M14.2927 17.6662C14.247 17.6407 14.2008 17.6364 14.2008 17.6364C14.2008 17.6364 14.2287 17.6733 14.2745 17.6989C14.3202 17.7244 14.3662 17.7288 14.3662 17.7288C14.3662 17.7288 14.3384 17.6918 14.2927 17.6662Z" fill="#999999"/>
<path d="M14.4028 17.5118C14.4283 17.4661 14.4329 17.4199 14.4329 17.4199C14.4329 17.4199 14.3959 17.4478 14.3703 17.4935C14.3448 17.5392 14.3403 17.5854 14.3403 17.5854C14.3403 17.5854 14.3773 17.5575 14.4028 17.5118Z" fill="#999999"/>
<path d="M14.2169 17.8604C14.2425 17.8147 14.2468 17.7685 14.2468 17.7685C14.2468 17.7685 14.2098 17.7964 14.1843 17.8422C14.1588 17.8879 14.1544 17.9341 14.1544 17.9341C14.1544 17.9341 14.1914 17.9061 14.2169 17.8604Z" fill="#999999"/>
<path d="M14.1731 17.4265C14.1274 17.401 14.0812 17.3966 14.0812 17.3966C14.0812 17.3966 14.1091 17.4336 14.1548 17.4591C14.2005 17.4847 14.2466 17.489 14.2466 17.489C14.2466 17.489 14.2188 17.452 14.1731 17.4265Z" fill="#999999"/>
<path d="M13.9649 17.7883C13.9192 17.7628 13.873 17.7584 13.873 17.7584C13.873 17.7584 13.9009 17.7954 13.9467 17.8209C13.9924 17.8465 14.0386 17.8508 14.0386 17.8508C14.0386 17.8508 14.0106 17.8138 13.9649 17.7883Z" fill="#999999"/>
<path d="M14.0749 17.6331C14.1005 17.5874 14.105 17.5412 14.105 17.5412C14.105 17.5412 14.068 17.5691 14.0425 17.6149C14.0169 17.6606 14.0126 17.7068 14.0126 17.7068C14.0126 17.7068 14.0494 17.6788 14.0749 17.6331Z" fill="#999999"/>
<path d="M13.8938 17.3568C13.8683 17.4025 13.8639 17.4487 13.8639 17.4487C13.8639 17.4487 13.9009 17.4208 13.9264 17.3751C13.9519 17.3293 13.9563 17.2831 13.9563 17.2831C13.9563 17.2831 13.9193 17.3111 13.8938 17.3568Z" fill="#999999"/>
<path d="M13.6859 17.7186C13.6603 17.7643 13.656 17.8105 13.656 17.8105C13.656 17.8105 13.693 17.7826 13.7185 17.7369C13.744 17.6912 13.7485 17.645 13.7485 17.645C13.7485 17.645 13.7114 17.6729 13.6859 17.7186Z" fill="#999999"/>
<path d="M13.8139 17.5315C13.7681 17.5059 13.7221 17.5014 13.7221 17.5014C13.7221 17.5014 13.7501 17.5384 13.7958 17.5639C13.8415 17.5895 13.8877 17.594 13.8877 17.594C13.8877 17.594 13.8596 17.557 13.8139 17.5315Z" fill="#999999"/>
<path d="M13.4781 17.6665C13.4324 17.641 13.3862 17.6366 13.3862 17.6366C13.3862 17.6366 13.4141 17.6736 13.4598 17.6991C13.5056 17.7246 13.5518 17.729 13.5518 17.729C13.5518 17.729 13.5238 17.692 13.4781 17.6665Z" fill="#999999"/>
<path d="M13.5888 17.5123C13.6144 17.4666 13.6189 17.4204 13.6189 17.4204C13.6189 17.4204 13.5819 17.4483 13.5564 17.494C13.5309 17.5397 13.5263 17.5859 13.5263 17.5859C13.5263 17.5859 13.5633 17.558 13.5888 17.5123Z" fill="#999999"/>
<path d="M13.4032 17.8607C13.4287 17.8149 13.4331 17.7687 13.4331 17.7687C13.4331 17.7687 13.3961 17.7967 13.3706 17.8424C13.3451 17.8881 13.3407 17.9343 13.3407 17.9343C13.3407 17.9343 13.3775 17.9064 13.4032 17.8607Z" fill="#999999"/>
<path d="M13.3594 17.4263C13.3137 17.4007 13.2675 17.3964 13.2675 17.3964C13.2675 17.3964 13.2955 17.4334 13.3412 17.4589C13.3869 17.4844 13.4331 17.4888 13.4331 17.4888C13.4331 17.4888 13.4052 17.4518 13.3594 17.4263Z" fill="#999999"/>
<path d="M13.1516 17.7881C13.1059 17.7625 13.0597 17.7582 13.0597 17.7582C13.0597 17.7582 13.0876 17.7952 13.1333 17.8207C13.1791 17.8462 13.2251 17.8506 13.2251 17.8506C13.2251 17.8506 13.1973 17.8136 13.1516 17.7881Z" fill="#999999"/>
<path d="M13.2612 17.6329C13.2867 17.5872 13.2913 17.541 13.2913 17.541C13.2913 17.541 13.2543 17.5689 13.2287 17.6146C13.2032 17.6603 13.1989 17.7065 13.1989 17.7065C13.1989 17.7065 13.2357 17.6786 13.2612 17.6329Z" fill="#999999"/>
<path d="M13.0796 17.3566C13.054 17.4023 13.0497 17.4485 13.0497 17.4485C13.0497 17.4485 13.0867 17.4205 13.1122 17.3748C13.1377 17.3291 13.1421 17.2829 13.1421 17.2829C13.1421 17.2829 13.1051 17.3108 13.0796 17.3566Z" fill="#999999"/>
<path d="M12.8716 17.7184C12.846 17.7641 12.8417 17.8103 12.8417 17.8103C12.8417 17.8103 12.8787 17.7824 12.9042 17.7366C12.9297 17.6909 12.9341 17.6447 12.9341 17.6447C12.9341 17.6447 12.8971 17.6727 12.8716 17.7184Z" fill="#999999"/>
<path d="M12.9996 17.5312C12.9539 17.5057 12.9077 17.5012 12.9077 17.5012C12.9077 17.5012 12.9356 17.5382 12.9813 17.5637C13.027 17.5892 13.0732 17.5938 13.0732 17.5938C13.0732 17.5938 13.0453 17.5568 12.9996 17.5312Z" fill="#999999"/>
<path d="M12.6632 17.6662C12.6174 17.6407 12.5712 17.6364 12.5712 17.6364C12.5712 17.6364 12.5992 17.6733 12.6449 17.6989C12.6906 17.7244 12.7368 17.7288 12.7368 17.7288C12.7368 17.7288 12.7089 17.6918 12.6632 17.6662Z" fill="#999999"/>
<path d="M12.7743 17.5118C12.7998 17.4661 12.8042 17.4199 12.8042 17.4199C12.8042 17.4199 12.7672 17.4478 12.7417 17.4935C12.7162 17.5392 12.7118 17.5854 12.7118 17.5854C12.7118 17.5854 12.7488 17.5575 12.7743 17.5118Z" fill="#999999"/>
<path d="M12.5883 17.8604C12.6138 17.8147 12.6182 17.7685 12.6182 17.7685C12.6182 17.7685 12.5812 17.7964 12.5556 17.8422C12.5301 17.8879 12.5258 17.9341 12.5258 17.9341C12.5258 17.9341 12.5626 17.9061 12.5883 17.8604Z" fill="#999999"/>
<path d="M12.544 17.4265C12.4983 17.401 12.4521 17.3966 12.4521 17.3966C12.4521 17.3966 12.48 17.4336 12.5258 17.4591C12.5715 17.4847 12.6177 17.489 12.6177 17.489C12.6177 17.489 12.5897 17.452 12.544 17.4265Z" fill="#999999"/>
<path d="M12.3358 17.7883C12.29 17.7628 12.2438 17.7584 12.2438 17.7584C12.2438 17.7584 12.2718 17.7954 12.3175 17.8209C12.3632 17.8465 12.4094 17.8508 12.4094 17.8508C12.4094 17.8508 12.3815 17.8138 12.3358 17.7883Z" fill="#999999"/>
<path d="M12.446 17.6331C12.4716 17.5874 12.4761 17.5412 12.4761 17.5412C12.4761 17.5412 12.4391 17.5691 12.4136 17.6149C12.388 17.6606 12.3835 17.7068 12.3835 17.7068C12.3835 17.7068 12.4205 17.6788 12.446 17.6331Z" fill="#999999"/>
<path d="M12.2645 17.3566C12.239 17.4023 12.2345 17.4485 12.2345 17.4485C12.2345 17.4485 12.2715 17.4205 12.297 17.3748C12.3225 17.3291 12.3269 17.2829 12.3269 17.2829C12.3269 17.2829 12.2901 17.3108 12.2645 17.3566Z" fill="#999999"/>
<path d="M12.0566 17.7184C12.0311 17.7641 12.0267 17.8103 12.0267 17.8103C12.0267 17.8103 12.0637 17.7824 12.0893 17.7366C12.1148 17.6909 12.1191 17.6447 12.1191 17.6447C12.1191 17.6447 12.0821 17.6727 12.0566 17.7184Z" fill="#999999"/>
<path d="M12.1848 17.5312C12.1391 17.5057 12.0929 17.5012 12.0929 17.5012C12.0929 17.5012 12.1208 17.5382 12.1665 17.5637C12.2123 17.5892 12.2583 17.5938 12.2583 17.5938C12.2583 17.5938 12.2305 17.5568 12.1848 17.5312Z" fill="#999999"/>
<path d="M11.8489 17.6662C11.8032 17.6407 11.757 17.6364 11.757 17.6364C11.757 17.6364 11.785 17.6733 11.8307 17.6989C11.8764 17.7244 11.9226 17.7288 11.9226 17.7288C11.9226 17.7288 11.8947 17.6918 11.8489 17.6662Z" fill="#999999"/>
<path d="M11.9586 17.512C11.9842 17.4663 11.9885 17.4201 11.9885 17.4201C11.9885 17.4201 11.9515 17.4481 11.926 17.4938C11.9005 17.5395 11.896 17.5857 11.896 17.5857C11.896 17.5857 11.9331 17.5577 11.9586 17.512Z" fill="#999999"/>
<path d="M11.7739 17.8604C11.7994 17.8147 11.804 17.7685 11.804 17.7685C11.804 17.7685 11.767 17.7964 11.7414 17.8422C11.7159 17.8879 11.7114 17.9341 11.7114 17.9341C11.7114 17.9341 11.7484 17.9061 11.7739 17.8604Z" fill="#999999"/>
<path d="M11.7296 17.4265C11.6839 17.401 11.6379 17.3966 11.6379 17.3966C11.6379 17.3966 11.6658 17.4336 11.7115 17.4591C11.7573 17.4847 11.8035 17.489 11.8035 17.489C11.8035 17.489 11.7754 17.452 11.7296 17.4265Z" fill="#999999"/>
<path d="M11.5215 17.7883C11.4758 17.7628 11.4296 17.7584 11.4296 17.7584C11.4296 17.7584 11.4576 17.7954 11.5033 17.8209C11.549 17.8465 11.5952 17.8508 11.5952 17.8508C11.5952 17.8508 11.5671 17.8138 11.5215 17.7883Z" fill="#999999"/>
<path d="M11.6321 17.6334C11.6576 17.5876 11.6621 17.5414 11.6621 17.5414C11.6621 17.5414 11.6251 17.5694 11.5996 17.6151C11.5741 17.6608 11.5697 17.707 11.5697 17.707C11.5697 17.707 11.6065 17.6791 11.6321 17.6334Z" fill="#999999"/>
<path d="M11.4505 17.3568C11.425 17.4025 11.4206 17.4487 11.4206 17.4487C11.4206 17.4487 11.4576 17.4208 11.4831 17.3751C11.5087 17.3293 11.5132 17.2831 11.5132 17.2831C11.5132 17.2831 11.476 17.3111 11.4505 17.3568Z" fill="#999999"/>
<path d="M11.2426 17.7186C11.217 17.7643 11.2125 17.8105 11.2125 17.8105C11.2125 17.8105 11.2495 17.7826 11.275 17.7369C11.3006 17.6912 11.3049 17.645 11.3049 17.645C11.3049 17.645 11.2681 17.6729 11.2426 17.7186Z" fill="#999999"/>
<path d="M11.3705 17.5315C11.3248 17.5059 11.2787 17.5014 11.2787 17.5014C11.2787 17.5014 11.3067 17.5384 11.3524 17.5639C11.3981 17.5895 11.4443 17.594 11.4443 17.594C11.4443 17.594 11.4162 17.557 11.3705 17.5315Z" fill="#999999"/>
<path d="M11.0355 17.6665C10.9898 17.641 10.9438 17.6366 10.9438 17.6366C10.9438 17.6366 10.9717 17.6736 11.0175 17.6991C11.0632 17.7246 11.1094 17.729 11.1094 17.729C11.1094 17.729 11.0813 17.692 11.0355 17.6665Z" fill="#999999"/>
<path d="M11.1449 17.512C11.1704 17.4663 11.1748 17.4201 11.1748 17.4201C11.1748 17.4201 11.1378 17.4481 11.1123 17.4938C11.0868 17.5395 11.0824 17.5857 11.0824 17.5857C11.0824 17.5857 11.1194 17.5577 11.1449 17.512Z" fill="#999999"/>
<path d="M10.9592 17.8607C10.9847 17.8149 10.9893 17.7687 10.9893 17.7687C10.9893 17.7687 10.9523 17.7967 10.9267 17.8424C10.9012 17.8881 10.8967 17.9343 10.8967 17.9343C10.8967 17.9343 10.9337 17.9064 10.9592 17.8607Z" fill="#999999"/>
<path d="M10.9156 17.4263C10.8699 17.4007 10.8237 17.3964 10.8237 17.3964C10.8237 17.3964 10.8516 17.4334 10.8973 17.4589C10.9431 17.4844 10.9893 17.4888 10.9893 17.4888C10.9893 17.4888 10.9613 17.4518 10.9156 17.4263Z" fill="#999999"/>
<path d="M10.7081 17.7883C10.6623 17.7628 10.6161 17.7584 10.6161 17.7584C10.6161 17.7584 10.6441 17.7954 10.6898 17.8209C10.7355 17.8465 10.7817 17.8508 10.7817 17.8508C10.7817 17.8508 10.7536 17.8138 10.7081 17.7883Z" fill="#999999"/>
<path d="M10.8175 17.6329C10.8431 17.5872 10.8474 17.541 10.8474 17.541C10.8474 17.541 10.8104 17.5689 10.7849 17.6146C10.7594 17.6603 10.7548 17.7065 10.7548 17.7065C10.7548 17.7065 10.792 17.6786 10.8175 17.6329Z" fill="#999999"/>
<path d="M10.6355 17.3566C10.6099 17.4023 10.6054 17.4485 10.6054 17.4485C10.6054 17.4485 10.6424 17.4205 10.6679 17.3748C10.6935 17.3291 10.698 17.2829 10.698 17.2829C10.698 17.2829 10.661 17.3108 10.6355 17.3566Z" fill="#999999"/>
<path d="M10.4275 17.7184C10.4019 17.7641 10.3974 17.8103 10.3974 17.8103C10.3974 17.8103 10.4344 17.7824 10.4599 17.7366C10.4855 17.6909 10.49 17.6447 10.49 17.6447C10.49 17.6447 10.453 17.6727 10.4275 17.7184Z" fill="#999999"/>
<path d="M10.5557 17.5312C10.51 17.5057 10.4638 17.5012 10.4638 17.5012C10.4638 17.5012 10.4918 17.5382 10.5375 17.5637C10.5832 17.5892 10.6294 17.5938 10.6294 17.5938C10.6294 17.5938 10.6014 17.5568 10.5557 17.5312Z" fill="#999999"/>
<path d="M10.3296 17.512C10.3551 17.4663 10.3596 17.4201 10.3596 17.4201C10.3596 17.4201 10.3226 17.4481 10.2971 17.4938C10.2716 17.5395 10.2671 17.5857 10.2671 17.5857C10.2671 17.5857 10.304 17.5577 10.3296 17.512Z" fill="#999999"/>
</g>
<path d="M1.74927 14.8982L1.74927 15.1513C1.74927 15.1793 1.72665 15.2019 1.6987 15.2019L1.58869 15.2019C1.56074 15.2019 1.53812 15.1793 1.53812 15.1513L1.53812 14.8982C1.53812 14.8702 1.56074 14.8476 1.58869 14.8476L1.6987 14.8476C1.72665 14.8478 1.74927 14.8704 1.74927 14.8982Z" fill="url(#paint3_linear_506_14003)"/>
<path d="M1.74927 14.4069L1.74927 14.2035C1.74927 14.1618 1.7155 14.1282 1.67399 14.1282L1.61373 14.1282C1.57205 14.1282 1.53845 14.162 1.53845 14.2035L1.53845 14.4069C1.53845 14.4486 1.57221 14.4822 1.61373 14.4822L1.67399 14.4822C1.7155 14.4823 1.74927 14.4486 1.74927 14.4069Z" fill="url(#paint4_linear_506_14003)"/>
<path d="M2.34912 14.5479L2.34847 14.7471C2.34799 14.8689 2.24895 14.9673 2.12715 14.9668L1.4698 14.9644C1.34799 14.9639 1.24961 14.8649 1.2501 14.7431L1.25074 14.5439C1.25123 14.4221 1.35026 14.3237 1.47207 14.3242L2.12941 14.3266C2.25122 14.3271 2.3496 14.4261 2.34912 14.5479Z" fill="url(#paint5_linear_506_14003)"/>
<path d="M1.74927 4.63892L1.74927 4.89206C1.74927 4.91985 1.72665 4.94263 1.6987 4.94263L1.58869 4.94263C1.56074 4.94263 1.53812 4.92001 1.53812 4.89206L1.53812 4.63892C1.53812 4.61097 1.56074 4.58835 1.58869 4.58835L1.6987 4.58835C1.72665 4.58835 1.74927 4.61097 1.74927 4.63892Z" fill="url(#paint6_linear_506_14003)"/>
<path d="M1.74927 4.14786L1.74927 3.94447C1.74927 3.90279 1.7155 3.86919 1.67399 3.86919L1.61373 3.86919C1.57205 3.86919 1.53845 3.90296 1.53845 3.94447L1.53845 4.14786C1.53845 4.18954 1.57221 4.22314 1.61373 4.22314L1.67399 4.22314C1.7155 4.22314 1.74927 4.18938 1.74927 4.14786Z" fill="url(#paint7_linear_506_14003)"/>
<path d="M2.34912 4.28862L2.34847 4.48781C2.34799 4.60962 2.24895 4.708 2.12715 4.70752L1.4698 4.70509C1.34799 4.70461 1.24961 4.60558 1.2501 4.48377L1.25074 4.28458C1.25123 4.16278 1.35026 4.06439 1.47207 4.06487L2.12941 4.0673C2.25122 4.06762 2.3496 4.16681 2.34912 4.28862Z" fill="url(#paint8_linear_506_14003)"/>
<path d="M16.7527 1.74685L16.7527 17.3225L2.85605 17.3225C2.30952 17.3225 1.86672 16.8795 1.86672 16.3332L1.86672 2.73633C1.86672 2.18981 2.30969 1.74685 2.85605 1.74685L16.7527 1.74685Z" fill="#E1E2DD"/>
<path d="M1.86636 3.22356L1.86636 15.846C1.86636 16.6615 2.52742 17.3225 3.34292 17.3225L4.01416 17.3225L4.01416 1.74685L3.34292 1.74685C2.52742 1.74685 1.86637 2.40806 1.86636 3.22356Z" fill="url(#paint9_linear_506_14003)"/>
<path d="M1.86636 3.22356L1.86636 15.846C1.86636 16.6615 2.52742 17.3225 3.34292 17.3225L4.01416 17.3225L4.01416 1.74685L3.34292 1.74685C2.52742 1.74685 1.86637 2.40806 1.86636 3.22356Z" fill="url(#paint10_linear_506_14003)"/>
<path opacity="0.2" d="M2.23131 3.43534L2.2313 15.6347C2.2313 16.4228 2.89236 17.0618 3.70786 17.0618L4.01416 17.0618L4.01416 2.00839L3.70786 2.00839C2.89236 2.00823 2.23131 2.64715 2.23131 3.43534Z" fill="black"/>
<path d="M16.4553 16.8403L3.43703 16.8403C3.06902 16.8403 2.77063 16.542 2.77063 16.1739L2.77063 2.89533C2.77063 2.52733 3.06902 2.22895 3.43703 2.22895L16.4553 2.22895L16.4553 16.8403Z" fill="#F5F7EA"/>
<g opacity="0.1">
<path d="M16.4553 16.8403L3.43703 16.8403C3.06902 16.8403 2.77063 16.542 2.77063 16.1739L2.77063 2.89533C2.77063 2.52733 3.06902 2.22895 3.43703 2.22895L16.4553 2.22895L16.4553 16.8403Z" fill="url(#paint11_radial_506_14003)"/>
</g>
<g opacity="0.5">
<path d="M16.4553 16.8403L3.43703 16.8403C3.06902 16.8403 2.77063 16.542 2.77063 16.1739L2.77063 2.89533C2.77063 2.52733 3.06902 2.22895 3.43703 2.22895L16.4553 2.22895L16.4553 16.8403Z" fill="url(#paint12_linear_506_14003)"/>
</g>
<path d="M3.3894 13.2465L3.3894 13.5353L3.71986 13.5847L3.71986 13.936L3.3894 13.9854L3.3894 14.2482L5.21081 13.9568L5.21081 13.5379L3.3894 13.2465ZM3.96705 13.8996L3.96705 13.6238L4.88816 13.7617L3.96705 13.8996ZM3.91761 12.5069L5.21081 12.3118L5.21081 11.9136L3.3894 11.9136L3.3894 12.1843L4.69561 12.1843L3.3894 12.382L3.3894 12.6526L4.6774 12.866L3.3894 12.866L3.3894 13.1158L5.21081 13.1158L5.21081 12.7177L3.91761 12.5069ZM5.21081 11.2735C5.21081 11.1243 5.17611 11.0168 5.10673 10.9509C5.03734 10.8832 4.93239 10.8494 4.79188 10.8494L4.72683 10.8494C4.63316 10.8494 4.55597 10.8641 4.49526 10.8936C4.43454 10.9231 4.38944 10.9699 4.35995 11.0341C4.33046 10.9561 4.28189 10.9014 4.21424 10.8702C4.14832 10.8372 4.06679 10.8208 3.96965 10.8208L3.82134 10.8208C3.68083 10.8208 3.57328 10.8572 3.49869 10.9301C3.42583 11.0029 3.3894 11.1113 3.3894 11.2553L3.3894 11.7054L5.21081 11.7054L5.21081 11.2735ZM4.20904 11.4192L3.6496 11.4192L3.6496 11.2553C3.6496 11.2067 3.66261 11.1703 3.68863 11.146C3.71465 11.12 3.76149 11.107 3.82914 11.107L3.98786 11.107C4.07286 11.107 4.13098 11.1217 4.1622 11.1512C4.19342 11.179 4.20904 11.2258 4.20904 11.2917L4.20904 11.4192ZM4.95061 11.4192L4.46924 11.4192L4.46924 11.3073C4.46924 11.2536 4.48311 11.2119 4.51087 11.1824C4.53862 11.1512 4.58893 11.1356 4.66178 11.1356L4.76326 11.1356C4.82918 11.1356 4.87688 11.1478 4.90637 11.172C4.93586 11.1946 4.95061 11.231 4.95061 11.2813L4.95061 11.4192ZM5.21081 10.3752L3.80572 10.3752C3.73981 10.3752 3.69384 10.3622 3.66782 10.3361C3.6418 10.3084 3.62879 10.272 3.62879 10.2269C3.62879 10.1818 3.6418 10.1462 3.66782 10.1202C3.69384 10.0924 3.73981 10.0785 3.80572 10.0785L5.21081 10.0785L5.21081 9.80794L3.82394 9.80794C3.67649 9.80794 3.56287 9.84437 3.48308 9.91722C3.40502 9.98834 3.36599 10.0942 3.36599 10.2347C3.36599 10.3752 3.40502 10.4819 3.48308 10.5547C3.56287 10.6258 3.67649 10.6614 3.82394 10.6614L5.21081 10.6614L5.21081 10.3752ZM5.21081 9.61165L5.21081 9.32543L3.6496 9.32543L3.6496 8.85447L3.3894 8.85447L3.3894 9.61165L5.21081 9.61165ZM3.3894 7.8036L3.3894 8.09243L3.71986 8.14186L3.71986 8.49313L3.3894 8.54257L3.3894 8.80538L5.21081 8.51395L5.21081 8.09503L3.3894 7.8036ZM3.96705 8.45671L3.96705 8.18089L4.88816 8.3188L3.96705 8.45671ZM1.70862 13.9178L0.389404 13.9178L0.389404 14.1754L2.21081 14.1754L2.21081 13.8163L1.12057 13.5223L2.21081 13.5223L2.21081 13.2673L0.389404 13.2673L0.389404 13.5613L1.70862 13.9178ZM1.06853 12.2323L0.826541 12.2323C0.679094 12.2323 0.565473 12.2687 0.485679 12.3416C0.407618 12.4127 0.368588 12.5185 0.368588 12.659C0.368588 12.7995 0.407618 12.9062 0.485678 12.9791C0.565473 13.0502 0.679094 13.0858 0.826541 13.0858L1.77367 13.0858C1.92112 13.0858 2.03387 13.0502 2.11193 12.9791C2.19172 12.9062 2.23162 12.7995 2.23162 12.659C2.23162 12.5185 2.19172 12.4127 2.11193 12.3416C2.03387 12.2687 1.92112 12.2323 1.77367 12.2323L1.59673 12.2323L1.59673 12.5029L1.79188 12.5029C1.8578 12.5029 1.90377 12.5168 1.92979 12.5446C1.95754 12.5706 1.97142 12.6061 1.97142 12.6512C1.97142 12.6963 1.95754 12.7328 1.92979 12.7605C1.90377 12.7865 1.8578 12.7995 1.79188 12.7995L0.808327 12.7995C0.742409 12.7995 0.696441 12.7865 0.670421 12.7605C0.644401 12.7328 0.631391 12.6963 0.631391 12.6512C0.631391 12.6061 0.644401 12.5706 0.670421 12.5446C0.696441 12.5168 0.742409 12.5029 0.808327 12.5029L1.06853 12.5029L1.06853 12.2323ZM1.44322 11.7724L1.44322 11.3795L1.18302 11.3795L1.18301 11.7724L0.649605 11.7724L0.649605 11.278L0.389405 11.278L0.389404 12.0586L2.21081 12.0586L2.21081 11.278L1.95061 11.278L1.95061 11.7724L1.44322 11.7724Z" fill="#CC3300"/>
<path opacity="0.3" d="M2.7709 12.996L2.7709 13.8466L12.4757 14.5813L12.5393 13.7307L2.7709 12.996Z" fill="url(#paint13_linear_506_14003)"/>
<path opacity="0.3" d="M2.7709 6.08057L2.7709 5.23001L12.4757 4.49529L12.5393 5.34584L2.7709 6.08057Z" fill="url(#paint14_linear_506_14003)"/>
<path d="M2.34932 3.2236L2.34932 15.846C2.34932 16.3943 2.7952 16.8403 3.34366 16.8403L3.76562 16.8403C3.21652 16.8403 2.77113 16.3951 2.77113 15.846L2.77113 3.2236C2.77113 2.67434 3.21636 2.22911 3.76563 2.22911L3.34366 2.22911C2.7952 2.22911 2.34932 2.67514 2.34932 3.2236Z" fill="#CCCCCC"/>
<path opacity="0.4" d="M2.39624 6.13958L2.39624 12.9954L2.45133 12.9954L2.45133 6.13958L2.39624 6.13958Z" fill="#666666"/>
<path opacity="0.4" d="M2.49048 6.13958L2.49048 12.9954L2.54557 12.9954L2.54557 6.13958L2.49048 6.13958Z" fill="#666666"/>
<path opacity="0.4" d="M2.58374 6.13958L2.58374 12.9954L2.63883 12.9954L2.63883 6.13958L2.58374 6.13958Z" fill="#666666"/>
<path opacity="0.4" d="M2.67725 6.13934L2.67725 12.9951L2.73233 12.9951L2.73234 6.13934L2.67725 6.13934Z" fill="#666666"/>
<path d="M2.34835 15.8445L2.34835 15.8462C2.34835 16.3945 2.79422 16.8406 3.34268 16.8406L3.76465 16.8406C3.21554 16.8406 2.77015 16.3953 2.77015 15.8462L2.77015 15.8445L2.34835 15.8445Z" fill="#FF6600"/>
<path d="M2.77026 13.0344L2.77026 15.8464L2.3483 15.8464L2.3483 12.7555L2.77026 13.0344Z" fill="#DCFFFE"/>
<path d="M2.73267 15.8447L2.73267 13.0095L2.63864 12.9473L2.63864 15.8447L2.63864 15.8464L2.73267 15.8464L2.73267 15.8447Z" fill="white"/>
<path opacity="0.4" d="M2.63853 15.8462C2.63853 16.3945 3.08441 16.8406 3.63287 16.8406L3.72705 16.8406C3.17875 16.8406 2.73271 16.3945 2.73271 15.8462L2.73271 15.8445L2.63853 15.8445L2.63853 15.8462Z" fill="white"/>
<path d="M3.72705 16.8407L3.72705 16.9394C3.72705 16.9651 3.69474 16.9861 3.655 16.9861L3.3773 16.9861C3.33756 16.9861 3.30525 16.9652 3.30525 16.9394L3.30525 16.8407L3.72705 16.8407Z" fill="#FF6600"/>
<path d="M2.34835 3.24268L2.34835 3.2409C2.34835 2.6926 2.79422 2.24657 3.34268 2.24657L3.76465 2.24657C3.21554 2.24657 2.77015 2.69179 2.77015 3.2409L2.77015 3.24268L2.34835 3.24268Z" fill="#FF6600"/>
<path d="M2.77026 6.05312L2.77026 3.24104L2.3483 3.24104L2.3483 6.33179L2.77026 6.05312Z" fill="#DCFFFE"/>
<path d="M2.73267 3.24277L2.73267 6.07794L2.63864 6.14014L2.63864 3.24277L2.63864 3.24099L2.73267 3.24099L2.73267 3.24277Z" fill="white"/>
<path opacity="0.4" d="M2.63853 3.2409C2.63853 2.6926 3.08441 2.24657 3.63287 2.24657L3.72705 2.24657C3.17875 2.24657 2.73271 2.6926 2.73271 3.2409L2.73271 3.24268L2.63853 3.24268L2.63853 3.2409Z" fill="white"/>
<path d="M3.72705 2.24683L3.72705 2.14812C3.72705 2.12243 3.69474 2.10143 3.655 2.10143L3.3773 2.10143C3.33756 2.10143 3.30525 2.12227 3.30525 2.14812L3.30525 2.24683L3.72705 2.24683Z" fill="#FF6600"/>
<path d="M13.6828 15.5475C13.4548 13.9921 12.912 7.10177 13.6341 3.70392C13.7059 3.36661 13.5303 3.02704 13.2139 2.88988L9.01867 2.27551C8.69299 2.13432 8.31755 2.3046 8.21238 2.64368C7.67539 4.37403 6.44422 9.55746 8.27248 16.4071C8.36424 16.7507 8.74048 16.9333 9.0702 16.8L13.2359 16.3239C13.5461 16.1987 13.7312 15.8787 13.6828 15.5475Z" fill="#F4F4F4"/>
<path opacity="0.5" d="M13.6828 15.5475C13.4548 13.9921 12.912 7.10177 13.6341 3.70392C13.7059 3.36661 13.5303 3.02704 13.2139 2.88988L9.01867 2.27551C8.69299 2.13432 8.31755 2.3046 8.21238 2.64368C7.67539 4.37403 6.44422 9.55746 8.27248 16.4071C8.36424 16.7507 8.74048 16.9333 9.0702 16.8L13.2359 16.3239C13.5461 16.1987 13.7312 15.8787 13.6828 15.5475Z" fill="url(#paint15_linear_506_14003)"/>
<path d="M13.3979 15.6524C13.3979 15.8287 13.2913 15.9856 13.1265 16.0523L8.96083 16.5284C8.87941 16.5611 8.78749 16.5574 8.70898 16.5182C8.63208 16.4797 8.57748 16.4133 8.55535 16.3313C7.9211 13.9551 7.59946 11.5541 7.59946 9.1952C7.59946 6.07248 8.15875 3.80434 8.49218 2.73021C8.51787 2.64749 8.57506 2.58207 8.65373 2.54604C8.73322 2.50954 8.82126 2.50873 8.90252 2.54394L13.0976 3.15831C13.2555 3.22681 13.3576 3.38157 13.3576 3.55265C13.3576 3.5827 13.3543 3.61291 13.3479 3.64295C13.1034 4.7935 12.9795 7.37585 12.9795 8.94109C12.9795 11.2205 13.2387 14.5353 13.3933 15.5898C13.3965 15.6109 13.3979 15.6318 13.3979 15.6524Z" fill="black"/>
<path d="M13.251 15.6524C13.251 15.7688 13.1804 15.8723 13.0712 15.9164L8.90546 16.3925C8.84746 16.4159 8.79819 16.3993 8.77396 16.3872C8.74617 16.3733 8.71047 16.3458 8.69642 16.2935C8.0654 13.9295 7.74537 11.5414 7.74537 9.1952C7.74537 6.0917 8.30062 3.83972 8.63147 2.77366C8.64924 2.71615 8.69092 2.68965 8.71419 2.67899C8.73826 2.66817 8.78656 2.65347 8.84375 2.67818L13.0392 3.29255C13.1432 3.33778 13.2108 3.43988 13.2108 3.55264C13.2108 3.57251 13.2085 3.59255 13.2045 3.61242C12.9576 4.77298 12.8327 7.36567 12.8327 8.94108C12.8327 11.2297 13.093 14.5526 13.2479 15.6109C13.2498 15.6248 13.251 15.6387 13.251 15.6524Z" fill="#676B86"/>
<path opacity="0.2" d="M10.043 16.2625C9.62859 14.5577 9.29612 12.007 9.29612 9.53449C9.29612 7.088 9.63635 4.55202 10.043 2.85383L8.84379 2.67823C8.7866 2.65351 8.7383 2.66821 8.71423 2.67904C8.69112 2.6897 8.64928 2.71619 8.63151 2.7737C8.30066 3.83976 7.74541 6.09174 7.74541 9.19524C7.74541 11.5414 8.06544 13.9296 8.69646 16.2935C8.71051 16.3458 8.74621 16.3733 8.774 16.3872C8.79823 16.3992 8.8475 16.416 8.9055 16.3925L10.043 16.2625Z" fill="black"/>
<path d="M8.98779 16.3594C8.53691 14.5338 8.26325 12.1479 8.26325 9.53449C8.26325 6.93454 8.53416 4.55978 8.98085 2.73768L8.84369 2.67823C8.7865 2.65351 8.7382 2.66821 8.71413 2.67904C8.69103 2.6897 8.64919 2.71619 8.63142 2.7737C8.30056 3.83976 7.74532 6.09174 7.74532 9.19524C7.74532 11.5414 8.06535 13.9296 8.69636 16.2935C8.71042 16.3458 8.74611 16.3733 8.7739 16.3872C8.79813 16.3992 8.84741 16.416 8.90541 16.3925L8.98779 16.3594Z" fill="#333333"/>
<path d="M8.91605 14.1458L8.51864 12.2369L8.61411 12.2195L8.96387 14.1372L8.91605 14.1458Z" fill="black"/>
<path d="M8.13084 9.57385L8.60645 12.1814L8.48415 12.0525L8.03537 9.5913L8.13084 9.57385Z" fill="black"/>
<path d="M8.96826 14.0257L8.13919 9.47149L8.0883 9.48086L8.93838 14.1418L8.96826 14.0257Z" fill="#333333"/>
<path d="M8.10946 9.58888C8.03644 9.60212 7.96649 9.55382 7.95325 9.4808C7.94 9.40778 7.9883 9.33783 8.06133 9.32458C8.13435 9.31134 8.20429 9.35964 8.21754 9.43266C8.23079 9.50568 8.18248 9.57563 8.10946 9.58888Z" fill="black"/>
<path d="M8.13332 9.5844C8.07355 9.59522 8.0162 9.55564 8.00537 9.49587C7.99439 9.4361 8.03413 9.37875 8.0939 9.36793C8.15368 9.35694 8.21103 9.39668 8.22185 9.45645C8.23267 9.51623 8.19309 9.57358 8.13332 9.5844Z" fill="#333333"/>
<path d="M8.70194 9.91528L8.49758 7.97622L8.59434 7.9683L8.75024 9.91141L8.70194 9.91528Z" fill="black"/>
<path d="M8.37985 5.28757L8.5918 7.92969L8.48324 7.78898L8.28307 5.29532L8.37985 5.28757Z" fill="black"/>
<path d="M8.76563 9.80049L8.39681 5.18619L8.34511 5.19039L8.72427 9.91309L8.76563 9.80049Z" fill="#333333"/>
<path d="M8.3557 5.30034C8.28171 5.30632 8.2171 5.25107 8.21112 5.17724C8.20514 5.10325 8.26039 5.03863 8.33422 5.03265C8.40821 5.02667 8.47283 5.08193 8.4788 5.15575C8.48478 5.22958 8.42969 5.29436 8.3557 5.30034Z" fill="black"/>
<path d="M8.37979 5.29872C8.31921 5.30356 8.26622 5.25849 8.26122 5.19791C8.25637 5.13733 8.3016 5.08434 8.36218 5.0795C8.42277 5.07465 8.47575 5.11972 8.4806 5.1803C8.48545 5.24088 8.44037 5.29387 8.37979 5.29872Z" fill="#333333"/>
<path opacity="0.5" d="M13.251 15.6524C13.251 15.7688 13.1804 15.8723 13.0712 15.9164L8.90546 16.3925C8.84746 16.4159 8.79819 16.3993 8.77396 16.3872C8.74617 16.3733 8.71047 16.3458 8.69642 16.2935C8.0654 13.9295 7.74537 11.5414 7.74537 9.1952C7.74537 6.0917 8.30062 3.83972 8.63147 2.77366C8.64924 2.71615 8.69092 2.68965 8.71419 2.67899C8.73826 2.66817 8.78656 2.65347 8.84375 2.67818L13.0392 3.29255C13.1432 3.33778 13.2108 3.43988 13.2108 3.55264C13.2108 3.57251 13.2085 3.59255 13.2045 3.61242C12.9576 4.77298 12.8327 7.36567 12.8327 8.94108C12.8327 11.2297 13.093 14.5526 13.2479 15.6109C13.2498 15.6248 13.251 15.6387 13.251 15.6524Z" fill="url(#paint16_radial_506_14003)"/>
<path opacity="0.3" d="M13.251 15.6524C13.251 15.7688 13.1804 15.8723 13.0712 15.9164L8.90546 16.3925C8.84746 16.4159 8.79819 16.3993 8.77396 16.3872C8.74617 16.3733 8.71047 16.3458 8.69642 16.2935C8.0654 13.9295 7.74537 11.5414 7.74537 9.1952C7.74537 6.0917 8.30062 3.83972 8.63147 2.77366C8.64924 2.71615 8.69092 2.68965 8.71419 2.67899C8.73826 2.66817 8.78656 2.65347 8.84375 2.67818L13.0392 3.29255C13.1432 3.33778 13.2108 3.43988 13.2108 3.55264C13.2108 3.57251 13.2085 3.59255 13.2045 3.61242C12.9576 4.77298 12.8327 7.36567 12.8327 8.94108C12.8327 11.2297 13.093 14.5526 13.2479 15.6109C13.2498 15.6248 13.251 15.6387 13.251 15.6524Z" fill="url(#paint17_radial_506_14003)"/>
<path d="M16.458 16.847C16.458 16.8402 16.4569 16.8333 16.4551 16.8263L16.458 16.1548C16.4375 16.0855 16.3142 16.0331 16.1714 16.0331L14.2319 16.0331C14.1929 16.0331 14.155 16.0368 14.1191 16.0443L8.74079 16.7659C8.67892 16.7787 8.64047 16.8069 8.64047 16.8397C8.64047 16.885 8.71252 16.9205 8.80461 16.9205L16.1685 16.989C16.2465 16.989 16.3194 16.9741 16.3742 16.9468C16.4284 16.92 16.458 16.8845 16.458 16.847Z" fill="#F4F4F4"/>
<path opacity="0.5" d="M16.458 16.847C16.458 16.8402 16.4569 16.8333 16.4551 16.8263L16.458 16.1548C16.4375 16.0855 16.3142 16.0331 16.1714 16.0331L14.2319 16.0331C14.1929 16.0331 14.155 16.0368 14.1191 16.0443L8.74079 16.7659C8.67892 16.7787 8.64047 16.8069 8.64047 16.8397C8.64047 16.885 8.71252 16.9205 8.80461 16.9205L16.1685 16.989C16.2465 16.989 16.3194 16.9741 16.3742 16.9468C16.4284 16.92 16.458 16.8845 16.458 16.847Z" fill="url(#paint18_linear_506_14003)"/>
<path d="M8.78289 16.8152L14.1613 16.0936C14.1836 16.0889 14.2076 16.0866 14.2318 16.0866L16.1712 16.0866C16.2612 16.0866 16.3374 16.1191 16.3503 16.1627L16.3474 16.8343C16.3634 16.8879 16.2786 16.936 16.1683 16.936L8.80437 16.8675C8.74411 16.8674 8.72748 16.8267 8.78289 16.8152Z" fill="black"/>
<path d="M16.2403 16.8416L16.2432 16.1701C16.2382 16.1526 16.2073 16.1395 16.1714 16.1395L14.2319 16.1395C14.2222 16.1395 14.2128 16.1405 14.2039 16.1423L9.06698 16.8138L16.1685 16.8823C16.1881 16.8823 16.2063 16.8786 16.2201 16.8718C16.2336 16.865 16.2411 16.8562 16.2411 16.8468L16.2403 16.8416Z" fill="#676B86"/>
<path opacity="0.2" d="M16.1742 16.6205L16.2399 16.8417L16.2407 16.847C16.2407 16.8564 16.2333 16.8653 16.2197 16.8721C16.206 16.8789 16.1877 16.8826 16.1682 16.8826L9.06664 16.8141L11.5206 16.6991L16.1742 16.6205Z" fill="black"/>
<path opacity="0.5" d="M16.2403 16.8416L16.2432 16.1701C16.2382 16.1526 16.2073 16.1395 16.1714 16.1395L14.2319 16.1395C14.2222 16.1395 14.2128 16.1405 14.2039 16.1423L9.06698 16.8138L16.1685 16.8823C16.1881 16.8823 16.2063 16.8786 16.2201 16.8718C16.2336 16.865 16.2411 16.8562 16.2411 16.8468L16.2403 16.8416Z" fill="url(#paint19_linear_506_14003)"/>
<path opacity="0.3" d="M16.2403 16.8416L16.2432 16.1701C16.2382 16.1526 16.2073 16.1395 16.1714 16.1395L14.2319 16.1395C14.2222 16.1395 14.2128 16.1405 14.2039 16.1423L9.06698 16.8138L16.1685 16.8823C16.1881 16.8823 16.2063 16.8786 16.2201 16.8718C16.2336 16.865 16.2411 16.8562 16.2411 16.8468L16.2403 16.8416Z" fill="url(#paint20_linear_506_14003)"/>
<path d="M16.4573 2.18222C16.4573 2.189 16.4561 2.19595 16.4544 2.2029L16.4573 2.87445C16.4368 2.94375 16.3135 2.99609 16.1707 2.99609L14.2311 2.99609C14.1922 2.99609 14.1542 2.99238 14.1184 2.98479L8.74006 2.26315C8.67819 2.25023 8.63974 2.22212 8.63974 2.18932C8.63974 2.14409 8.71179 2.10855 8.80387 2.10855L16.1678 2.04005C16.2458 2.04005 16.3187 2.05492 16.3734 2.08206C16.4277 2.1092 16.4573 2.14474 16.4573 2.18222Z" fill="#F4F4F4"/>
<path opacity="0.5" d="M16.4573 2.18222C16.4573 2.189 16.4561 2.19595 16.4544 2.2029L16.4573 2.87445C16.4368 2.94375 16.3135 2.99609 16.1707 2.99609L14.2311 2.99609C14.1922 2.99609 14.1542 2.99238 14.1184 2.98479L8.74006 2.26315C8.67819 2.25023 8.63974 2.22212 8.63974 2.18932C8.63974 2.14409 8.71179 2.10855 8.80387 2.10855L16.1678 2.04005C16.2458 2.04005 16.3187 2.05492 16.3734 2.08206C16.4277 2.1092 16.4573 2.14474 16.4573 2.18222Z" fill="url(#paint21_linear_506_14003)"/>
<path d="M8.78215 2.21404L14.1606 2.93568C14.1829 2.94037 14.2068 2.94263 14.2311 2.94263L16.1704 2.94263C16.2604 2.94263 16.3367 2.91032 16.3496 2.86654L16.3467 2.19498C16.3627 2.14135 16.2779 2.09321 16.1675 2.09321L8.80364 2.1617C8.74338 2.16186 8.72674 2.20241 8.78215 2.21404Z" fill="black"/>
<path d="M16.2395 2.18756L16.2424 2.85912C16.2374 2.87656 16.2066 2.88965 16.1707 2.88965L14.2311 2.88965C14.2215 2.88965 14.2121 2.88868 14.2032 2.8869L9.06625 2.21534L16.1678 2.14685C16.1873 2.14685 16.2056 2.15057 16.2193 2.15735C16.2329 2.16414 16.2403 2.17302 16.2403 2.18239L16.2395 2.18756Z" fill="#676B86"/>
<path opacity="0.2" d="M16.1739 2.40845L16.2397 2.18729L16.2405 2.18196C16.2405 2.17259 16.233 2.1637 16.2195 2.15692C16.2057 2.15013 16.1875 2.14641 16.1679 2.14641L9.06639 2.21491L11.5203 2.32994L16.1739 2.40845Z" fill="black"/>
<path opacity="0.5" d="M16.2395 2.18756L16.2424 2.85912C16.2374 2.87656 16.2066 2.88965 16.1707 2.88965L14.2311 2.88965C14.2215 2.88965 14.2121 2.88868 14.2032 2.8869L9.06625 2.21534L16.1678 2.14685C16.1873 2.14685 16.2056 2.15057 16.2193 2.15735C16.2329 2.16414 16.2403 2.17302 16.2403 2.18239L16.2395 2.18756Z" fill="url(#paint22_linear_506_14003)"/>
<path opacity="0.3" d="M16.2395 2.18756L16.2424 2.85912C16.2374 2.87656 16.2066 2.88965 16.1707 2.88965L14.2311 2.88965C14.2215 2.88965 14.2121 2.88868 14.2032 2.8869L9.06625 2.21534L16.1678 2.14685C16.1873 2.14685 16.2056 2.15057 16.2193 2.15735C16.2329 2.16414 16.2403 2.17302 16.2403 2.18239L16.2395 2.18756Z" fill="url(#paint23_linear_506_14003)"/>
<path d="M9.59163 16.8398L10.2207 18.4719L9.91619 18.4719C9.77289 18.4719 9.6443 18.3837 9.59276 18.25L9.04915 16.8398L9.59163 16.8398Z" fill="#999999"/>
<path opacity="0.4" d="M9.62923 16.8398L10.2583 18.4719L9.95378 18.4719C9.81049 18.4719 9.68189 18.3837 9.6302 18.25L9.08658 16.8398L9.62923 16.8398Z" fill="url(#paint24_linear_506_14003)"/>
<path d="M10.0182 17.3071L10.3537 18.3373C10.3754 18.4037 10.326 18.4717 10.2562 18.4717L9.88154 18.4717L9.47912 17.236L9.92047 17.236C9.9649 17.2362 10.0043 17.2649 10.0182 17.3071Z" fill="#666666"/>
<path opacity="0.3" d="M10.0182 17.3071L10.3537 18.3373C10.3754 18.4037 10.326 18.4717 10.2562 18.4717L9.88154 18.4717L9.47912 17.236L9.92047 17.236C9.9649 17.2362 10.0043 17.2649 10.0182 17.3071Z" fill="url(#paint25_linear_506_14003)"/>
<path d="M9.59139 2.17407L10.2205 0.541952L9.91594 0.541952C9.77265 0.541952 9.64405 0.630156 9.59252 0.763918L9.04891 2.17407L9.59139 2.17407Z" fill="#999999"/>
<path opacity="0.4" d="M9.62899 2.17407L10.2581 0.541952L9.95354 0.541952C9.81025 0.541952 9.68165 0.630156 9.62995 0.763918L9.08634 2.17407L9.62899 2.17407Z" fill="url(#paint26_linear_506_14003)"/>
<path d="M10.018 1.70667L10.3535 0.676474C10.3752 0.610078 10.3257 0.541908 10.2559 0.541908L9.88129 0.541908L9.47887 1.77759L9.92023 1.77759C9.96465 1.77743 10.0041 1.74883 10.018 1.70667Z" fill="#666666"/>
<path opacity="0.3" d="M10.018 1.70667L10.3535 0.676474C10.3752 0.610078 10.3257 0.541908 10.2559 0.541908L9.88129 0.541908L9.47887 1.77759L9.92023 1.77759C9.96465 1.77743 10.0041 1.74883 10.018 1.70667Z" fill="url(#paint27_linear_506_14003)"/>
<path opacity="0.7" d="M16.155 5.39198L16.155 14.1616L15.0768 13.839L15.0768 5.06937L16.155 5.39198Z" fill="url(#paint28_linear_506_14003)"/>
<path d="M15.8896 5.23523L15.8896 13.8344C15.8896 14.0955 15.678 14.3071 15.417 14.3071L14.9142 14.3071C14.6532 14.3071 14.4415 14.0955 14.4415 13.8344L14.4415 5.23523C14.4415 4.97417 14.6532 4.76254 14.9142 4.76254L15.417 4.76254C15.678 4.76254 15.8896 4.97417 15.8896 5.23523Z" fill="#999999"/>
<path d="M14.4417 5.23532L14.4417 8.47339L15.8896 8.47339L15.8896 5.23532C15.8896 4.97426 15.678 4.76263 15.417 4.76263L14.9142 4.76263C14.6533 4.76263 14.4417 4.97425 14.4417 5.23532Z" fill="#5D94FF"/>
<path opacity="0.5" d="M15.5452 8.12842L14.7862 8.12842L14.7862 5.23493C14.7862 5.16449 14.8437 5.10698 14.9145 5.10698L15.4169 5.10698C15.4877 5.10698 15.5452 5.16433 15.5452 5.23493L15.5452 8.12842Z" fill="#5384E4"/>
<path d="M14.4417 13.8344L14.4417 10.5964L15.8896 10.5964L15.8896 13.8344C15.8896 14.0955 15.678 14.3071 15.417 14.3071L14.9142 14.3071C14.6533 14.3071 14.4417 14.0955 14.4417 13.8344Z" fill="#CC0000"/>
<path opacity="0.3" d="M15.5452 13.8345C15.5452 13.9051 15.4877 13.9626 15.4169 13.9626L14.9145 13.9626C14.8437 13.9626 14.7862 13.9053 14.7862 13.8345L14.7862 10.941L15.5452 10.941L15.5452 13.8345Z" fill="#660000"/>
<path opacity="0.5" d="M15.8896 5.23523L15.8896 13.8344C15.8896 14.0955 15.678 14.3071 15.417 14.3071L14.9142 14.3071C14.6532 14.3071 14.4415 14.0955 14.4415 13.8344L14.4415 5.23523C14.4415 4.97417 14.6532 4.76254 14.9142 4.76254L15.417 4.76254C15.678 4.76254 15.8896 4.97417 15.8896 5.23523Z" fill="url(#paint29_radial_506_14003)"/>
<path opacity="0.5" d="M15.8896 5.23523L15.8896 13.8344C15.8896 14.0955 15.678 14.3071 15.417 14.3071L14.9142 14.3071C14.6532 14.3071 14.4415 14.0955 14.4415 13.8344L14.4415 5.23523C14.4415 4.97417 14.6532 4.76254 14.9142 4.76254L15.417 4.76254C15.678 4.76254 15.8896 4.97417 15.8896 5.23523Z" fill="url(#paint30_linear_506_14003)"/>
<path d="M14.5614 5.40875L14.5614 13.6608C14.5614 13.9114 14.747 14.1143 14.9759 14.1143L15.1648 14.1143C14.9359 14.1143 14.7503 13.9112 14.7503 13.6608L14.7503 5.40875C14.7503 5.15835 14.9359 4.95529 15.1648 4.95529L14.9759 4.95529C14.747 4.95529 14.5614 5.15835 14.5614 5.40875Z" fill="url(#paint31_linear_506_14003)"/>
<path d="M15.769 5.40875L15.769 13.6608C15.769 13.9114 15.5834 14.1143 15.3545 14.1143L15.1657 14.1143C15.3946 14.1143 15.5802 13.9112 15.5802 13.6608L15.5802 5.40875C15.5802 5.15835 15.3946 4.95529 15.1657 4.95529L15.3545 4.95529C15.5836 4.95529 15.769 5.15835 15.769 5.40875Z" fill="url(#paint32_linear_506_14003)"/>
<path opacity="0.4" d="M14.5222 14.0974L14.664 13.9784C14.7123 13.9376 14.8049 13.9124 14.9054 13.9123L15.4251 13.9118C15.5259 13.9116 15.6189 13.937 15.6674 13.9779L15.8097 14.0974C15.8315 14.0648 15.8478 14.0286 15.8611 13.991L15.765 13.9102C15.7139 13.8674 15.6163 13.8407 15.5104 13.8409L14.8233 13.8414C14.7181 13.8415 14.6212 13.8678 14.5703 13.9103L14.4713 13.9929C14.4844 14.0297 14.5005 14.0654 14.5222 14.0974Z" fill="white"/>
<path opacity="0.4" d="M14.5222 4.97881L14.664 5.09787C14.7123 5.13858 14.8049 5.16378 14.9054 5.16394L15.4251 5.16443C15.5259 5.16443 15.6189 5.13923 15.6674 5.09835L15.8097 4.97881C15.8315 5.01144 15.8478 5.04763 15.8611 5.08527L15.765 5.16604C15.7139 5.20885 15.6163 5.23551 15.5104 5.23535L14.8233 5.2347C14.7181 5.2347 14.6212 5.20821 14.5703 5.16572L14.4713 5.08317C14.4844 5.04634 14.5005 5.0108 14.5222 4.97881Z" fill="white"/>
<path opacity="0.4" d="M15.1311 13.6177L15.2007 13.6177L15.2007 5.45174L15.1311 5.45174L15.1311 13.6177Z" fill="black"/>
<path d="M40.8826 1.33295L40.8826 17.7366C40.8826 17.9328 40.7234 18.0918 40.5272 18.0918L17.1077 18.0918C16.9114 18.0918 16.7523 17.9327 16.7523 17.7365L16.7523 1.33295C16.7523 1.13667 16.9114 0.977547 17.1077 0.977547L40.5272 0.977549C40.7234 0.977549 40.8826 1.13667 40.8826 1.33295Z" fill="#CC3300"/>
<path d="M40.6421 17.7367C40.6421 17.7997 40.5907 17.8511 40.5279 17.8511L17.1084 17.8511C17.0455 17.8511 16.9942 17.7997 16.9942 17.7367L16.9942 1.33326C16.9942 1.27025 17.0455 1.21904 17.1084 1.21904L40.5279 1.21905C40.5907 1.21905 40.6421 1.27042 40.6421 1.33326L40.6421 17.7367Z" fill="#F5F7EA"/>
<path d="M40.6421 17.7367C40.6421 17.7997 40.5907 17.8511 40.5279 17.8511L17.1084 17.8511C17.0455 17.8511 16.9942 17.7997 16.9942 17.7367L16.9942 1.33326C16.9942 1.27025 17.0455 1.21904 17.1084 1.21904L40.5279 1.21905C40.5907 1.21905 40.6421 1.27042 40.6421 1.33326L40.6421 17.7367Z" fill="url(#paint33_radial_506_14003)"/>
<path opacity="0.2" d="M40.6421 17.7367C40.6421 17.7997 40.5907 17.8511 40.5279 17.8511L17.1084 17.8511C17.0455 17.8511 16.9942 17.7997 16.9942 17.7367L16.9942 1.33326C16.9942 1.27025 17.0455 1.21904 17.1084 1.21904L40.5279 1.21905C40.5907 1.21905 40.6421 1.27042 40.6421 1.33326L40.6421 17.7367Z" fill="url(#paint34_radial_506_14003)"/>
<path d="M41.0039 15.4653L40.8826 15.4653L40.8826 17.1228L41.0039 17.1228C41.1399 17.1228 41.2502 17.0125 41.2502 16.8763L41.2502 15.7117C41.2502 15.5757 41.1399 15.4653 41.0039 15.4653Z" fill="#EF0C0C"/>
<path opacity="0.4" d="M40.924 15.6521L40.924 16.9363C41.0814 16.9363 41.209 16.8087 41.209 16.6513L41.209 15.9371C41.209 15.7798 41.0814 15.6521 40.924 15.6521Z" fill="#660000"/>
<path d="M40.9059 17.0212L40.9059 17.0133C41.0507 16.9815 41.1591 16.8529 41.1591 16.6986L41.1591 15.8901C41.1591 15.7358 41.0507 15.6072 40.9059 15.5754L40.9059 15.5675C41.0841 15.5675 41.2285 15.7119 41.2285 15.8901L41.2285 16.6986C41.2285 16.8768 41.0841 17.0212 40.9059 17.0212Z" fill="url(#paint35_linear_506_14003)"/>
<path opacity="0.6" d="M41.0614 16.014C41.0624 16.1676 41.0634 16.3214 41.0645 16.4751C41.065 16.5432 41.0713 16.6175 41.0579 16.6849C41.0524 16.7122 41.0417 16.7655 41.0057 16.7668C40.9703 16.7681 40.9648 16.7258 40.9647 16.6991C40.9647 16.623 40.9592 15.7562 40.9736 15.7562C41.0065 15.7565 41.0348 15.7828 41.0475 15.8134C41.0603 15.8439 41.0606 15.8778 41.061 15.9108C41.061 15.9452 41.0613 15.9796 41.0614 16.014Z" fill="url(#paint36_linear_506_14003)"/>
<path d="M41.0039 2.28539L40.8826 2.28539L40.8826 3.94287L41.0039 3.94287C41.1399 3.94287 41.2502 3.83253 41.2502 3.69651L41.2502 2.53191C41.2502 2.39588 41.1399 2.28539 41.0039 2.28539Z" fill="#EF0C0C"/>
<path opacity="0.4" d="M40.924 2.47212L40.924 3.7561C41.0814 3.7561 41.209 3.62848 41.209 3.47113L41.209 2.75693C41.209 2.59974 41.0814 2.47212 40.924 2.47212Z" fill="#660000"/>
<path d="M40.9054 3.84082L40.9054 3.8329C41.0502 3.80108 41.1586 3.67249 41.1586 3.51821L41.1586 2.70966C41.1586 2.55538 41.0502 2.42679 40.9054 2.39496L40.9054 2.38705C41.0836 2.38705 41.228 2.53147 41.228 2.70966L41.228 3.51821C41.228 3.69639 41.0836 3.84082 40.9054 3.84082Z" fill="url(#paint37_linear_506_14003)"/>
<path opacity="0.6" d="M41.0614 2.83407C41.0624 2.9877 41.0634 3.1415 41.0645 3.29513C41.065 3.3633 41.0713 3.43762 41.0579 3.50498C41.0524 3.53228 41.0417 3.58559 41.0057 3.58689C40.9703 3.58818 40.9648 3.54585 40.9647 3.5192C40.9647 3.44311 40.9592 2.57624 40.9736 2.57624C41.0065 2.57656 41.0348 2.60289 41.0475 2.63343C41.0603 2.66396 41.0606 2.69788 41.061 2.73084C41.061 2.76541 41.0613 2.79982 41.0614 2.83407Z" fill="url(#paint38_linear_506_14003)"/>
<path d="M31.5567 10.1662L32.838 10.1662C32.8974 10.1662 32.9457 10.2143 32.9457 10.2738L32.9457 11.555C32.9457 11.6145 32.9939 11.6626 33.0533 11.6626L34.1446 11.6626C34.204 11.6626 34.2523 11.6145 34.2523 11.555L34.2523 10.2738C34.2523 10.2143 34.3005 10.1662 34.3599 10.1662L35.6412 10.1662C35.7006 10.1662 35.7488 10.118 35.7488 10.0584L35.7488 8.96717C35.7488 8.90772 35.7006 8.85957 35.6412 8.85957L34.3599 8.85957C34.3005 8.85957 34.2523 8.81143 34.2523 8.75182L34.2523 7.47075C34.2523 7.4113 34.2042 7.36316 34.1446 7.36316L33.0533 7.36316C32.9939 7.36316 32.9457 7.4113 32.9457 7.47075L32.9457 8.75182C32.9457 8.81127 32.8976 8.85957 32.838 8.85957L31.5567 8.85957C31.4973 8.85957 31.4491 8.90772 31.4491 8.96717L31.4491 10.0584C31.4491 10.118 31.4973 10.1662 31.5567 10.1662Z" fill="#CC3300"/>
<path d="M40.8826 4.34956L40.8826 15.0906L41.2052 15.0906L41.2052 4.34956L40.8826 4.34956Z" fill="#F5F7EA"/>
<path opacity="0.5" d="M41.2051 4.34981L41.2051 15.0908L40.8825 15.0908L40.8825 4.34981L41.2051 4.34981Z" fill="url(#paint39_linear_506_14003)"/>
<path opacity="0.5" d="M40.8826 9.67756L40.8826 9.7627L41.2052 9.7627L41.2052 9.67756L40.8826 9.67756Z" fill="#666666"/>
<path d="M41.0932 10.0417L41.0932 14.8498C41.0932 14.9082 41.1404 14.9553 41.1987 14.9553L41.2048 14.9553L41.2048 9.93618L41.1987 9.93618C41.1404 9.93618 41.0932 9.98336 41.0932 10.0417Z" fill="#AAD5F9"/>
<path d="M41.0932 10.0417L41.0932 14.8498C41.0932 14.9082 41.1404 14.9553 41.1987 14.9553L41.2048 14.9553L41.2048 14.9413C41.172 14.9233 41.1489 14.8899 41.1489 14.8498L41.1489 10.0417C41.1489 10.0018 41.172 9.96817 41.2048 9.95024L41.2048 9.93618L41.1987 9.93618C41.1404 9.93618 41.0932 9.98336 41.0932 10.0417Z" fill="white"/>
<path d="M41.0934 4.58415L41.0934 9.39231C41.0934 9.45063 41.1406 9.4978 41.1989 9.4978L41.2051 9.4978L41.2051 4.47866L41.1989 4.47866C41.1406 4.47883 41.0934 4.52599 41.0934 4.58415Z" fill="#AAD5F9"/>
<path d="M41.0934 4.58415L41.0934 9.39231C41.0934 9.45063 41.1406 9.4978 41.1989 9.4978L41.2051 9.4978L41.2051 9.48375C41.1723 9.46582 41.1492 9.43237 41.1492 9.39231L41.1492 4.58415C41.1492 4.54425 41.1723 4.51065 41.2051 4.49271L41.2051 4.47866L41.1989 4.47866C41.1406 4.47883 41.0934 4.52599 41.0934 4.58415Z" fill="white"/>
<path d="M16.9939 0.977779L11.0843 0.977778C10.9098 0.977778 10.7426 1.04708 10.6192 1.17034L10.0429 1.74658L16.9939 1.74658L16.9939 0.977779Z" fill="#CCCCCC"/>
<path d="M16.8728 1.09877L16.8728 1.62671L10.3333 1.62671L10.7037 1.25612C10.8052 1.15466 10.9401 1.09877 11.0835 1.09877L16.8728 1.09877Z" fill="url(#paint40_linear_506_14003)"/>
<path opacity="0.5" d="M16.9939 0.977779L11.0843 0.977778C10.9098 0.977778 10.7426 1.04708 10.6192 1.17034L10.0429 1.74658L16.9939 1.74658L16.9939 0.977779Z" fill="url(#paint41_linear_506_14003)"/>
<path opacity="0.4" d="M16.9939 0.977779L11.0843 0.977778C10.9098 0.977778 10.7426 1.04708 10.6192 1.17034L10.0429 1.74658L16.9939 1.74658L16.9939 0.977779Z" fill="url(#paint42_linear_506_14003)"/>
<mask id="mask1_506_14003" style="mask-type:luminance" maskUnits="userSpaceOnUse" x="10" y="1" width="7" height="1">
<path d="M16.8726 1.09852L16.8726 1.62646L10.333 1.62646L10.7035 1.25587C10.8049 1.15442 10.9398 1.09852 11.0833 1.09852L16.8726 1.09852Z" fill="white"/>
</mask>
<g mask="url(#mask1_506_14003)">
<path d="M16.8215 1.5069C16.796 1.46118 16.7915 1.41498 16.7915 1.41498C16.7915 1.41498 16.8285 1.44293 16.854 1.48865C16.8795 1.53436 16.884 1.58057 16.884 1.58057C16.884 1.58057 16.847 1.55261 16.8215 1.5069Z" fill="#999999"/>
<path d="M16.6125 1.14517C16.587 1.09945 16.5825 1.05341 16.5825 1.05341C16.5825 1.05341 16.6195 1.08136 16.645 1.12707C16.6705 1.17279 16.675 1.21899 16.675 1.21899C16.675 1.21899 16.6381 1.19088 16.6125 1.14517Z" fill="#999999"/>
<path d="M16.7416 1.33201C16.6959 1.35754 16.6498 1.36206 16.6498 1.36206C16.6498 1.36206 16.6778 1.32507 16.7235 1.29954C16.7692 1.27402 16.8154 1.26949 16.8154 1.26949C16.8154 1.26949 16.7873 1.30649 16.7416 1.33201Z" fill="#999999"/>
<path d="M16.6143 1.55931C16.5686 1.58483 16.5224 1.58936 16.5224 1.58936C16.5224 1.58936 16.5503 1.55236 16.5961 1.52684C16.6418 1.50131 16.688 1.49679 16.688 1.49679C16.688 1.49679 16.66 1.53378 16.6143 1.55931Z" fill="#999999"/>
<path d="M16.4064 1.19765C16.3607 1.22318 16.3146 1.22754 16.3146 1.22754C16.3146 1.22754 16.3426 1.19055 16.3883 1.16502C16.434 1.1395 16.4802 1.13513 16.4802 1.13513C16.4802 1.13513 16.4521 1.17213 16.4064 1.19765Z" fill="#999999"/>
<path d="M16.5161 1.35168C16.5416 1.3974 16.5461 1.4436 16.5461 1.4436C16.5461 1.4436 16.5091 1.41566 16.4836 1.36994C16.4581 1.32422 16.4536 1.27818 16.4536 1.27818C16.4536 1.27818 16.4906 1.30613 16.5161 1.35168Z" fill="#999999"/>
<path d="M16.3347 1.63044C16.3092 1.58472 16.3048 1.53852 16.3048 1.53852C16.3048 1.53852 16.3418 1.56646 16.3673 1.61218C16.3929 1.6579 16.3972 1.7041 16.3972 1.7041C16.3972 1.7041 16.3602 1.67615 16.3347 1.63044Z" fill="#999999"/>
<path d="M16.1264 1.26862C16.1009 1.2229 16.0966 1.1767 16.0966 1.1767C16.0966 1.1767 16.1336 1.20465 16.1591 1.25036C16.1846 1.29608 16.189 1.34229 16.189 1.34229C16.189 1.34229 16.152 1.31434 16.1264 1.26862Z" fill="#999999"/>
<path d="M16.2544 1.45604C16.2087 1.48156 16.1625 1.48608 16.1625 1.48608C16.1625 1.48608 16.1904 1.44909 16.2361 1.42357C16.2818 1.39804 16.3279 1.39352 16.3279 1.39352C16.3279 1.39352 16.3001 1.43051 16.2544 1.45604Z" fill="#999999"/>
<path d="M16.1273 1.68284C16.0815 1.70837 16.0353 1.71289 16.0353 1.71289C16.0353 1.71289 16.0633 1.67589 16.109 1.65037C16.1547 1.62484 16.2009 1.62032 16.2009 1.62032C16.2009 1.62032 16.173 1.65732 16.1273 1.68284Z" fill="#999999"/>
<path d="M15.9192 1.32103C15.8734 1.34655 15.8272 1.35107 15.8272 1.35107C15.8272 1.35107 15.8552 1.31408 15.9009 1.28856C15.9466 1.26303 15.9927 1.25867 15.9927 1.25867C15.9927 1.25867 15.9649 1.2955 15.9192 1.32103Z" fill="#999999"/>
<path d="M16.0292 1.47546C16.0547 1.52118 16.0591 1.56738 16.0591 1.56738C16.0591 1.56738 16.0221 1.53944 15.9966 1.49372C15.971 1.448 15.9667 1.4018 15.9667 1.4018C15.9667 1.4018 16.0037 1.42974 16.0292 1.47546Z" fill="#999999"/>
<path d="M15.8435 1.12683C15.869 1.17255 15.8735 1.21875 15.8735 1.21875C15.8735 1.21875 15.8365 1.1908 15.811 1.14508C15.7855 1.09936 15.781 1.05332 15.781 1.05332C15.781 1.05332 15.818 1.08111 15.8435 1.12683Z" fill="#999999"/>
<path d="M15.8021 1.59389C15.7564 1.61942 15.7104 1.62378 15.7104 1.62378C15.7104 1.62378 15.7383 1.58679 15.7841 1.56126C15.8298 1.53574 15.876 1.53121 15.876 1.53121C15.876 1.53121 15.8479 1.56821 15.8021 1.59389Z" fill="#999999"/>
<path d="M15.5943 1.23207C15.5486 1.2576 15.5024 1.26196 15.5024 1.26196C15.5024 1.26196 15.5303 1.22496 15.576 1.19944C15.6218 1.17392 15.668 1.16955 15.668 1.16955C15.668 1.16955 15.64 1.20655 15.5943 1.23207Z" fill="#999999"/>
<path d="M15.7042 1.38733C15.7298 1.43305 15.7341 1.47925 15.7341 1.47925C15.7341 1.47925 15.6971 1.4513 15.6716 1.40558C15.6461 1.35986 15.6417 1.31366 15.6417 1.31366C15.6417 1.31366 15.6787 1.34161 15.7042 1.38733Z" fill="#999999"/>
<path d="M15.5226 1.66421C15.4971 1.61849 15.4926 1.57245 15.4926 1.57245C15.4926 1.57245 15.5295 1.6004 15.5551 1.64612C15.5806 1.69183 15.585 1.73804 15.585 1.73804C15.585 1.73804 15.5481 1.70993 15.5226 1.66421Z" fill="#999999"/>
<path d="M15.3147 1.3024C15.2892 1.25668 15.2846 1.21063 15.2846 1.21063C15.2846 1.21063 15.3216 1.23858 15.3471 1.2843C15.3727 1.33002 15.3772 1.37622 15.3772 1.37622C15.3772 1.37622 15.3402 1.34812 15.3147 1.3024Z" fill="#999999"/>
<path d="M15.4427 1.48948C15.397 1.51501 15.3508 1.51953 15.3508 1.51953C15.3508 1.51953 15.3787 1.48253 15.4244 1.45701C15.4702 1.43148 15.5164 1.42696 15.5164 1.42696C15.5164 1.42696 15.4884 1.46396 15.4427 1.48948Z" fill="#999999"/>
<path d="M15.1072 1.35512C15.0615 1.38065 15.0153 1.38501 15.0153 1.38501C15.0153 1.38501 15.0433 1.34802 15.089 1.32249C15.1347 1.29697 15.1809 1.29261 15.1809 1.29261C15.1809 1.29261 15.153 1.32944 15.1072 1.35512Z" fill="#999999"/>
<path d="M15.2168 1.50989C15.2423 1.5556 15.2468 1.60181 15.2468 1.60181C15.2468 1.60181 15.2098 1.57386 15.1843 1.52814C15.1588 1.48242 15.1543 1.43622 15.1543 1.43622C15.1543 1.43622 15.1913 1.46417 15.2168 1.50989Z" fill="#999999"/>
<path d="M15.0315 1.16101C15.057 1.20673 15.0615 1.25293 15.0615 1.25293C15.0615 1.25293 15.0245 1.22498 14.999 1.17926C14.9735 1.13355 14.9691 1.08734 14.9691 1.08734C14.9691 1.08734 15.006 1.11529 15.0315 1.16101Z" fill="#999999"/>
<path d="M14.9879 1.59389C14.9421 1.61942 14.8959 1.62378 14.8959 1.62378C14.8959 1.62378 14.9239 1.58679 14.9696 1.56126C15.0153 1.53574 15.0615 1.53121 15.0615 1.53121C15.0615 1.53121 15.0336 1.56821 14.9879 1.59389Z" fill="#999999"/>
<path d="M14.7799 1.23207C14.7342 1.2576 14.6882 1.26196 14.6882 1.26196C14.6882 1.26196 14.7161 1.22496 14.7618 1.19944C14.8076 1.17392 14.8538 1.16955 14.8538 1.16955C14.8538 1.16955 14.8257 1.20655 14.7799 1.23207Z" fill="#999999"/>
<path d="M14.8898 1.38733C14.9153 1.43305 14.9197 1.47925 14.9197 1.47925C14.9197 1.47925 14.8827 1.4513 14.8572 1.40558C14.8316 1.35986 14.8273 1.31366 14.8273 1.31366C14.8273 1.31366 14.8643 1.34161 14.8898 1.38733Z" fill="#999999"/>
<path d="M14.7081 1.66421C14.6825 1.61849 14.6782 1.57245 14.6782 1.57245C14.6782 1.57245 14.7152 1.6004 14.7407 1.64612C14.7662 1.69183 14.7708 1.73804 14.7708 1.73804C14.7708 1.73804 14.7336 1.70993 14.7081 1.66421Z" fill="#999999"/>
<path d="M14.5 1.30264C14.4745 1.25692 14.4699 1.21088 14.4699 1.21088C14.4699 1.21088 14.5069 1.23883 14.5325 1.28454C14.558 1.33026 14.5625 1.37646 14.5625 1.37646C14.5625 1.37646 14.5255 1.34836 14.5 1.30264Z" fill="#999999"/>
<path d="M14.6282 1.48973C14.5825 1.51525 14.5363 1.51978 14.5363 1.51978C14.5363 1.51978 14.5643 1.48278 14.61 1.45725C14.6557 1.43173 14.7019 1.42721 14.7019 1.42721C14.7019 1.42721 14.674 1.4642 14.6282 1.48973Z" fill="#999999"/>
<path d="M14.2925 1.35537C14.2467 1.38089 14.2005 1.38525 14.2005 1.38525C14.2005 1.38525 14.2285 1.34826 14.2742 1.32274C14.3199 1.29721 14.366 1.29285 14.366 1.29285C14.366 1.29285 14.3382 1.32968 14.2925 1.35537Z" fill="#999999"/>
<path d="M14.4026 1.50989C14.4281 1.5556 14.4326 1.60181 14.4326 1.60181C14.4326 1.60181 14.3956 1.57386 14.3701 1.52814C14.3446 1.48242 14.34 1.43622 14.34 1.43622C14.34 1.43622 14.377 1.46417 14.4026 1.50989Z" fill="#999999"/>
<path d="M14.2172 1.16125C14.2427 1.20697 14.2471 1.25317 14.2471 1.25317C14.2471 1.25317 14.2101 1.22523 14.1846 1.17951C14.159 1.13379 14.1547 1.08759 14.1547 1.08759C14.1547 1.08759 14.1917 1.11553 14.2172 1.16125Z" fill="#999999"/>
<path d="M14.1736 1.59389C14.1278 1.61942 14.0816 1.62378 14.0816 1.62378C14.0816 1.62378 14.1096 1.58679 14.1553 1.56126C14.201 1.53574 14.2471 1.53121 14.2471 1.53121C14.2471 1.53121 14.2193 1.56821 14.1736 1.59389Z" fill="#999999"/>
<path d="M13.9656 1.23207C13.9199 1.2576 13.8737 1.26196 13.8737 1.26196C13.8737 1.26196 13.9017 1.22496 13.9474 1.19944C13.9931 1.17392 14.0393 1.16955 14.0393 1.16955C14.0393 1.16955 14.0114 1.20655 13.9656 1.23207Z" fill="#999999"/>
<path d="M14.0749 1.38708C14.1005 1.4328 14.105 1.479 14.105 1.479C14.105 1.479 14.068 1.45106 14.0425 1.40534C14.0169 1.35962 14.0126 1.31342 14.0126 1.31342C14.0126 1.31342 14.0494 1.34136 14.0749 1.38708Z" fill="#999999"/>
<path d="M13.894 1.66397C13.8685 1.61825 13.8641 1.57221 13.8641 1.57221C13.8641 1.57221 13.9011 1.60015 13.9267 1.64587C13.9522 1.69159 13.9565 1.73779 13.9565 1.73779C13.9565 1.73779 13.9195 1.70968 13.894 1.66397Z" fill="#999999"/>
<path d="M13.6861 1.30215C13.6606 1.25644 13.6562 1.21039 13.6562 1.21039C13.6562 1.21039 13.6932 1.23834 13.7187 1.28406C13.7443 1.32977 13.7488 1.37598 13.7488 1.37598C13.7488 1.37598 13.7116 1.34787 13.6861 1.30215Z" fill="#999999"/>
<path d="M13.8141 1.48924C13.7684 1.51476 13.7224 1.51929 13.7224 1.51929C13.7224 1.51929 13.7503 1.48229 13.796 1.45676C13.8417 1.43124 13.8879 1.42672 13.8879 1.42672C13.8879 1.42672 13.8598 1.46371 13.8141 1.48924Z" fill="#999999"/>
<path d="M13.4774 1.35537C13.4316 1.38089 13.3854 1.38525 13.3854 1.38525C13.3854 1.38525 13.4134 1.34826 13.4591 1.32274C13.5048 1.29721 13.551 1.29285 13.551 1.29285C13.551 1.29285 13.5231 1.32968 13.4774 1.35537Z" fill="#999999"/>
<path d="M13.5876 1.50989C13.6132 1.5556 13.6177 1.60181 13.6177 1.60181C13.6177 1.60181 13.5807 1.57386 13.5552 1.52814C13.5296 1.48242 13.5251 1.43622 13.5251 1.43622C13.5251 1.43622 13.5621 1.46417 13.5876 1.50989Z" fill="#999999"/>
<path d="M13.402 1.16125C13.4275 1.20697 13.4319 1.25317 13.4319 1.25317C13.4319 1.25317 13.3949 1.22523 13.3694 1.17951C13.3438 1.13379 13.3395 1.08759 13.3395 1.08759C13.3395 1.08759 13.3763 1.11553 13.402 1.16125Z" fill="#999999"/>
<path d="M13.3587 1.59389C13.313 1.61942 13.2668 1.62378 13.2668 1.62378C13.2668 1.62378 13.2947 1.58679 13.3405 1.56126C13.3862 1.53574 13.4324 1.53121 13.4324 1.53121C13.4324 1.53121 13.4044 1.56821 13.3587 1.59389Z" fill="#999999"/>
<path d="M13.1509 1.23207C13.1051 1.2576 13.0589 1.26196 13.0589 1.26196C13.0589 1.26196 13.0869 1.22496 13.1326 1.19944C13.1783 1.17392 13.2244 1.16955 13.2244 1.16955C13.2244 1.16955 13.1966 1.20655 13.1509 1.23207Z" fill="#999999"/>
<path d="M13.2607 1.38733C13.2862 1.43305 13.2908 1.47925 13.2908 1.47925C13.2908 1.47925 13.2538 1.4513 13.2283 1.40558C13.2027 1.35986 13.1984 1.31366 13.1984 1.31366C13.1984 1.31366 13.2352 1.34161 13.2607 1.38733Z" fill="#999999"/>
<path d="M13.0793 1.66397C13.0538 1.61825 13.0494 1.57221 13.0494 1.57221C13.0494 1.57221 13.0864 1.60015 13.112 1.64587C13.1375 1.69159 13.1418 1.73779 13.1418 1.73779C13.1418 1.73779 13.1049 1.70968 13.0793 1.66397Z" fill="#999999"/>
<path d="M12.8721 1.30215C12.8465 1.25644 12.8422 1.21039 12.8422 1.21039C12.8422 1.21039 12.8792 1.23834 12.9047 1.28406C12.9302 1.32977 12.9346 1.37598 12.9346 1.37598C12.9346 1.37598 12.8976 1.34787 12.8721 1.30215Z" fill="#999999"/>
<path d="M12.9993 1.48924C12.9536 1.51476 12.9074 1.51929 12.9074 1.51929C12.9074 1.51929 12.9354 1.48229 12.9811 1.45676C13.0268 1.43124 13.073 1.42672 13.073 1.42672C13.073 1.42672 13.0451 1.46371 12.9993 1.48924Z" fill="#999999"/>
<path d="M12.6641 1.35488C12.6184 1.3804 12.5722 1.38477 12.5722 1.38477C12.5722 1.38477 12.6002 1.34777 12.6459 1.32225C12.6916 1.29672 12.7378 1.29236 12.7378 1.29236C12.7378 1.29236 12.7098 1.32919 12.6641 1.35488Z" fill="#999999"/>
<path d="M12.7748 1.50915C12.8003 1.55487 12.8047 1.60107 12.8047 1.60107C12.8047 1.60107 12.7677 1.57313 12.7422 1.52741C12.7166 1.48169 12.7123 1.43549 12.7123 1.43549C12.7123 1.43549 12.7493 1.46344 12.7748 1.50915Z" fill="#999999"/>
<path d="M12.5885 1.16076C12.614 1.20648 12.6184 1.25269 12.6184 1.25269C12.6184 1.25269 12.5814 1.22474 12.5559 1.17902C12.5304 1.1333 12.526 1.0871 12.526 1.0871C12.526 1.0871 12.5628 1.11505 12.5885 1.16076Z" fill="#999999"/>
<path d="M12.544 1.59389C12.4983 1.61942 12.4521 1.62378 12.4521 1.62378C12.4521 1.62378 12.48 1.58679 12.5258 1.56126C12.5715 1.53574 12.6177 1.53121 12.6177 1.53121C12.6177 1.53121 12.5897 1.56821 12.544 1.59389Z" fill="#999999"/>
<path d="M12.3358 1.23207C12.29 1.2576 12.2438 1.26196 12.2438 1.26196C12.2438 1.26196 12.2718 1.22496 12.3175 1.19944C12.3632 1.17392 12.4094 1.16955 12.4094 1.16955C12.4094 1.16955 12.3815 1.20655 12.3358 1.23207Z" fill="#999999"/>
<path d="M12.4458 1.38733C12.4713 1.43305 12.4758 1.47925 12.4758 1.47925C12.4758 1.47925 12.4388 1.4513 12.4133 1.40558C12.3878 1.35986 12.3833 1.31366 12.3833 1.31366C12.3833 1.31366 12.4203 1.34161 12.4458 1.38733Z" fill="#999999"/>
<path d="M12.2648 1.66421C12.2393 1.61849 12.2347 1.57245 12.2347 1.57245C12.2347 1.57245 12.2717 1.6004 12.2973 1.64612C12.3228 1.69183 12.3271 1.73804 12.3271 1.73804C12.3271 1.73804 12.2903 1.70993 12.2648 1.66421Z" fill="#999999"/>
<path d="M12.0569 1.3024C12.0313 1.25668 12.027 1.21063 12.027 1.21063C12.027 1.21063 12.064 1.23858 12.0895 1.2843C12.115 1.33002 12.1194 1.37622 12.1194 1.37622C12.1194 1.37622 12.0824 1.34812 12.0569 1.3024Z" fill="#999999"/>
<path d="M12.1848 1.48948C12.1391 1.51501 12.0929 1.51953 12.0929 1.51953C12.0929 1.51953 12.1208 1.48253 12.1665 1.45701C12.2123 1.43148 12.2583 1.42696 12.2583 1.42696C12.2583 1.42696 12.2305 1.46396 12.1848 1.48948Z" fill="#999999"/>
<path d="M11.8485 1.35537C11.8027 1.38089 11.7565 1.38525 11.7565 1.38525C11.7565 1.38525 11.7845 1.34826 11.8302 1.32274C11.8759 1.29721 11.9221 1.29285 11.9221 1.29285C11.9221 1.29285 11.8942 1.32968 11.8485 1.35537Z" fill="#999999"/>
<path d="M11.9594 1.50964C11.9849 1.55536 11.9893 1.60156 11.9893 1.60156C11.9893 1.60156 11.9523 1.57362 11.9267 1.5279C11.9012 1.48218 11.8967 1.43598 11.8967 1.43598C11.8967 1.43598 11.9338 1.46392 11.9594 1.50964Z" fill="#999999"/>
<path d="M11.7732 1.16125C11.7987 1.20697 11.8032 1.25317 11.8032 1.25317C11.8032 1.25317 11.7662 1.22523 11.7407 1.17951C11.7152 1.13379 11.7107 1.08759 11.7107 1.08759C11.7107 1.08759 11.7476 1.11553 11.7732 1.16125Z" fill="#999999"/>
<path d="M11.7301 1.59389C11.6844 1.61942 11.6384 1.62378 11.6384 1.62378C11.6384 1.62378 11.6663 1.58679 11.712 1.56126C11.7578 1.53574 11.804 1.53121 11.804 1.53121C11.804 1.53121 11.7758 1.56821 11.7301 1.59389Z" fill="#999999"/>
<path d="M11.5223 1.23207C11.4766 1.2576 11.4304 1.26196 11.4304 1.26196C11.4304 1.26196 11.4583 1.22496 11.504 1.19944C11.5497 1.17392 11.5959 1.16955 11.5959 1.16955C11.5959 1.16955 11.5678 1.20655 11.5223 1.23207Z" fill="#999999"/>
<path d="M11.6323 1.38733C11.6578 1.43305 11.6624 1.47925 11.6624 1.47925C11.6624 1.47925 11.6254 1.4513 11.5998 1.40558C11.5743 1.35986 11.5699 1.31366 11.5699 1.31366C11.5699 1.31366 11.6068 1.34161 11.6323 1.38733Z" fill="#999999"/>
<path d="M11.4507 1.66397C11.4252 1.61825 11.4209 1.57221 11.4209 1.57221C11.4209 1.57221 11.4579 1.60015 11.4834 1.64587C11.5089 1.69159 11.5134 1.73779 11.5134 1.73779C11.5134 1.73779 11.4763 1.70968 11.4507 1.66397Z" fill="#999999"/>
<path d="M11.2428 1.30215C11.2173 1.25644 11.2128 1.21039 11.2128 1.21039C11.2128 1.21039 11.2498 1.23834 11.2753 1.28406C11.3008 1.32977 11.3052 1.37598 11.3052 1.37598C11.3052 1.37598 11.2683 1.34787 11.2428 1.30215Z" fill="#999999"/>
<path d="M11.3715 1.48924C11.3258 1.51476 11.2797 1.51929 11.2797 1.51929C11.2797 1.51929 11.3077 1.48229 11.3534 1.45676C11.3991 1.43124 11.4453 1.42672 11.4453 1.42672C11.4453 1.42672 11.4172 1.46371 11.3715 1.48924Z" fill="#999999"/>
<path d="M11.0353 1.35488C10.9896 1.3804 10.9435 1.38477 10.9435 1.38477C10.9435 1.38477 10.9715 1.34777 11.0172 1.32225C11.0629 1.29672 11.1091 1.29236 11.1091 1.29236C11.1091 1.29236 11.081 1.32919 11.0353 1.35488Z" fill="#999999"/>
<path d="M11.1454 1.50915C11.1709 1.55487 11.1753 1.60107 11.1753 1.60107C11.1753 1.60107 11.1383 1.57313 11.1128 1.52741C11.0872 1.48169 11.0829 1.43549 11.0829 1.43549C11.0829 1.43549 11.1199 1.46344 11.1454 1.50915Z" fill="#999999"/>
<path d="M10.9597 1.16076C10.9852 1.20648 10.9897 1.25269 10.9897 1.25269C10.9897 1.25269 10.9528 1.22474 10.9272 1.17902C10.9017 1.1333 10.8972 1.0871 10.8972 1.0871C10.8972 1.0871 10.9342 1.11505 10.9597 1.16076Z" fill="#999999"/>
<path d="M10.9153 1.59389C10.8696 1.61942 10.8234 1.62378 10.8234 1.62378C10.8234 1.62378 10.8514 1.58679 10.8971 1.56126C10.9428 1.53574 10.989 1.53121 10.989 1.53121C10.989 1.53121 10.9611 1.56821 10.9153 1.59389Z" fill="#999999"/>
<path d="M10.7073 1.23207C10.6616 1.2576 10.6154 1.26196 10.6154 1.26196C10.6154 1.26196 10.6434 1.22496 10.6891 1.19944C10.7348 1.17392 10.781 1.16955 10.781 1.16955C10.781 1.16955 10.7529 1.20655 10.7073 1.23207Z" fill="#999999"/>
<path d="M10.8173 1.38733C10.8428 1.43305 10.8472 1.47925 10.8472 1.47925C10.8472 1.47925 10.8102 1.4513 10.7846 1.40558C10.7591 1.35986 10.7546 1.31366 10.7546 1.31366C10.7546 1.31366 10.7918 1.34161 10.8173 1.38733Z" fill="#999999"/>
<path d="M10.6355 1.66421C10.6099 1.61849 10.6054 1.57245 10.6054 1.57245C10.6054 1.57245 10.6424 1.6004 10.6679 1.64612C10.6935 1.69183 10.698 1.73804 10.698 1.73804C10.698 1.73804 10.661 1.70993 10.6355 1.66421Z" fill="#999999"/>
<path d="M10.428 1.30264C10.4024 1.25692 10.3979 1.21088 10.3979 1.21088C10.3979 1.21088 10.4349 1.23883 10.4604 1.28454C10.486 1.33026 10.4905 1.37646 10.4905 1.37646C10.4905 1.37646 10.4535 1.34836 10.428 1.30264Z" fill="#999999"/>
<path d="M10.5557 1.48948C10.51 1.51501 10.4638 1.51953 10.4638 1.51953C10.4638 1.51953 10.4918 1.48253 10.5375 1.45701C10.5832 1.43148 10.6294 1.42696 10.6294 1.42696C10.6294 1.42696 10.6014 1.46396 10.5557 1.48948Z" fill="#999999"/>
<path d="M10.3291 1.50989C10.3546 1.5556 10.3591 1.60181 10.3591 1.60181C10.3591 1.60181 10.3221 1.57386 10.2966 1.52814C10.2711 1.48242 10.2666 1.43622 10.2666 1.43622C10.2666 1.43622 10.3036 1.46417 10.3291 1.50989Z" fill="#999999"/>
</g>
<defs>
<linearGradient id="paint0_linear_506_14003" x1="18.0455" y1="17.7338" x2="1.01782" y2="17.4124" gradientUnits="userSpaceOnUse">
<stop stop-color="#C7C5C5"/>
<stop offset="0.0359" stop-color="#676767"/>
<stop offset="0.1123" stop-color="white"/>
<stop offset="0.3019" stop-color="#929292"/>
<stop offset="0.492" stop-color="white"/>
<stop offset="0.6257" stop-color="#676767"/>
<stop offset="0.7701" stop-color="#929292"/>
<stop offset="0.8233" stop-color="#C7C5C5"/>
<stop offset="1" stop-color="#343433"/>
</linearGradient>
<linearGradient id="paint1_linear_506_14003" x1="13.5184" y1="17.2765" x2="13.5184" y2="17.4272" gradientUnits="userSpaceOnUse">
<stop offset="0.0051"/>
<stop offset="1" stop-opacity="0"/>
</linearGradient>
<linearGradient id="paint2_linear_506_14003" x1="16.9939" y1="17.6567" x2="16.4647" y2="17.6567" gradientUnits="userSpaceOnUse">
<stop offset="0.0051"/>
<stop offset="1" stop-opacity="0"/>
</linearGradient>
<linearGradient id="paint3_linear_506_14003" x1="1.65825" y1="15.354" x2="1.63552" y2="14.8386" gradientUnits="userSpaceOnUse">
<stop stop-color="#C7C5C5"/>
<stop offset="0.0359" stop-color="#676767"/>
<stop offset="0.1123" stop-color="white"/>
<stop offset="0.3019" stop-color="#929292"/>
<stop offset="0.492" stop-color="white"/>
<stop offset="0.6809" stop-color="#676767"/>
<stop offset="0.7701" stop-color="#929292"/>
<stop offset="0.8233" stop-color="#C7C5C5"/>
<stop offset="1" stop-color="#343433"/>
</linearGradient>
<linearGradient id="paint4_linear_506_14003" x1="1.65817" y1="13.978" x2="1.63559" y2="14.4903" gradientUnits="userSpaceOnUse">
<stop stop-color="#C7C5C5"/>
<stop offset="0.0359" stop-color="#676767"/>
<stop offset="0.1123" stop-color="white"/>
<stop offset="0.3019" stop-color="#929292"/>
<stop offset="0.492" stop-color="white"/>
<stop offset="0.6809" stop-color="#676767"/>
<stop offset="0.7701" stop-color="#929292"/>
<stop offset="0.8233" stop-color="#C7C5C5"/>
<stop offset="1" stop-color="#343433"/>
</linearGradient>
<linearGradient id="paint5_linear_506_14003" x1="1.79956" y1="15.4642" x2="1.79956" y2="12.9721" gradientUnits="userSpaceOnUse">
<stop stop-color="#C7C5C5"/>
<stop offset="0.0359" stop-color="#676767"/>
<stop offset="0.1123" stop-color="white"/>
<stop offset="0.3019" stop-color="#929292"/>
<stop offset="0.492" stop-color="white"/>
<stop offset="0.6257" stop-color="#676767"/>
<stop offset="0.7701" stop-color="#929292"/>
<stop offset="0.8233" stop-color="#C7C5C5"/>
<stop offset="1" stop-color="#343433"/>
</linearGradient>
<linearGradient id="paint6_linear_506_14003" x1="1.65825" y1="5.09468" x2="1.63552" y2="4.57927" gradientUnits="userSpaceOnUse">
<stop stop-color="#C7C5C5"/>
<stop offset="0.0359" stop-color="#676767"/>
<stop offset="0.1123" stop-color="white"/>
<stop offset="0.3019" stop-color="#929292"/>
<stop offset="0.492" stop-color="white"/>
<stop offset="0.6809" stop-color="#676767"/>
<stop offset="0.7701" stop-color="#929292"/>
<stop offset="0.8233" stop-color="#C7C5C5"/>
<stop offset="1" stop-color="#343433"/>
</linearGradient>
<linearGradient id="paint7_linear_506_14003" x1="1.65817" y1="3.71885" x2="1.63559" y2="4.23119" gradientUnits="userSpaceOnUse">
<stop stop-color="#C7C5C5"/>
<stop offset="0.0359" stop-color="#676767"/>
<stop offset="0.1123" stop-color="white"/>
<stop offset="0.3019" stop-color="#929292"/>
<stop offset="0.492" stop-color="white"/>
<stop offset="0.6809" stop-color="#676767"/>
<stop offset="0.7701" stop-color="#929292"/>
<stop offset="0.8233" stop-color="#C7C5C5"/>
<stop offset="1" stop-color="#343433"/>
</linearGradient>
<linearGradient id="paint8_linear_506_14003" x1="1.79956" y1="5.2049" x2="1.79956" y2="2.71276" gradientUnits="userSpaceOnUse">
<stop stop-color="#C7C5C5"/>
<stop offset="0.0359" stop-color="#676767"/>
<stop offset="0.1123" stop-color="white"/>
<stop offset="0.3019" stop-color="#929292"/>
<stop offset="0.492" stop-color="white"/>
<stop offset="0.6257" stop-color="#676767"/>
<stop offset="0.7701" stop-color="#929292"/>
<stop offset="0.8233" stop-color="#C7C5C5"/>
<stop offset="1" stop-color="#343433"/>
</linearGradient>
<linearGradient id="paint9_linear_506_14003" x1="2.90193" y1="18.2228" x2="3.02247" y2="-6.79115" gradientUnits="userSpaceOnUse">
<stop stop-color="#C7C5C5"/>
<stop offset="0.0359" stop-color="#676767"/>
<stop offset="0.1123" stop-color="white"/>
<stop offset="0.3019" stop-color="#929292"/>
<stop offset="0.492" stop-color="white"/>
<stop offset="0.6257" stop-color="#676767"/>
<stop offset="0.7701" stop-color="#929292"/>
<stop offset="0.8233" stop-color="#C7C5C5"/>
<stop offset="1" stop-color="#343433"/>
</linearGradient>
<linearGradient id="paint10_linear_506_14003" x1="2.90193" y1="18.2228" x2="3.02247" y2="-6.79115" gradientUnits="userSpaceOnUse">
<stop stop-color="#C7C5C5"/>
<stop offset="0.0359" stop-color="#676767"/>
<stop offset="0.1123" stop-color="white"/>
<stop offset="0.3019" stop-color="#929292"/>
<stop offset="0.492" stop-color="white"/>
<stop offset="0.6257" stop-color="#676767"/>
<stop offset="0.7701" stop-color="#929292"/>
<stop offset="0.8233" stop-color="#C7C5C5"/>
<stop offset="1" stop-color="#343433"/>
</linearGradient>
<radialGradient id="paint11_radial_506_14003" cx="0" cy="0" r="1" gradientUnits="userSpaceOnUse" gradientTransform="translate(9.07752 19.2095) rotate(-90) scale(18.0444 18.0446)">
<stop offset="0.0102"/>
<stop offset="1" stop-opacity="0"/>
</radialGradient>
<linearGradient id="paint12_linear_506_14003" x1="9.61301" y1="16.8404" x2="9.61301" y2="2.22912" gradientUnits="userSpaceOnUse">
<stop offset="0.3386" stop-color="white" stop-opacity="0"/>
<stop offset="0.6521" stop-color="white"/>
</linearGradient>
<linearGradient id="paint13_linear_506_14003" x1="7.65671" y1="13.3418" x2="7.61941" y2="13.8405" gradientUnits="userSpaceOnUse">
<stop offset="0.0051"/>
<stop offset="1" stop-opacity="0"/>
</linearGradient>
<linearGradient id="paint14_linear_506_14003" x1="7.6567" y1="5.7347" x2="7.61939" y2="5.23599" gradientUnits="userSpaceOnUse">
<stop offset="0.0051" stop-color="#999999"/>
<stop offset="1" stop-color="#999999" stop-opacity="0"/>
</linearGradient>
<linearGradient id="paint15_linear_506_14003" x1="7.2916" y1="9.53465" x2="7.72162" y2="9.53465" gradientUnits="userSpaceOnUse">
<stop offset="0.0051"/>
<stop offset="1" stop-opacity="0"/>
</linearGradient>
<radialGradient id="paint16_radial_506_14003" cx="0" cy="0" r="1" gradientUnits="userSpaceOnUse" gradientTransform="translate(10.2701 16.3663) rotate(-90) scale(11.9321 11.9322)">
<stop stop-color="white" stop-opacity="0"/>
<stop offset="1" stop-color="white"/>
</radialGradient>
<radialGradient id="paint17_radial_506_14003" cx="0" cy="0" r="1" gradientUnits="userSpaceOnUse" gradientTransform="translate(10.951 14.9939) rotate(-90) scale(11.4863 11.4864)">
<stop offset="0.0102"/>
<stop offset="1" stop-opacity="0"/>
</radialGradient>
<linearGradient id="paint18_linear_506_14003" x1="12.5493" y1="16.9962" x2="12.5493" y2="16.9377" gradientUnits="userSpaceOnUse">
<stop offset="0.0051"/>
<stop offset="1" stop-opacity="0"/>
</linearGradient>
<linearGradient id="paint19_linear_506_14003" x1="12.6552" y1="16.8783" x2="12.6552" y2="16.6374" gradientUnits="userSpaceOnUse">
<stop stop-color="white"/>
<stop offset="1" stop-color="white" stop-opacity="0"/>
</linearGradient>
<linearGradient id="paint20_linear_506_14003" x1="12.6552" y1="16.4768" x2="12.6552" y2="16.1515" gradientUnits="userSpaceOnUse">
<stop stop-opacity="0"/>
<stop offset="0.9898"/>
</linearGradient>
<linearGradient id="paint21_linear_506_14003" x1="12.5485" y1="2.03309" x2="12.5485" y2="2.09154" gradientUnits="userSpaceOnUse">
<stop offset="0.0051"/>
<stop offset="1" stop-opacity="0"/>
</linearGradient>
<linearGradient id="paint22_linear_506_14003" x1="12.6545" y1="2.15066" x2="12.6545" y2="2.39161" gradientUnits="userSpaceOnUse">
<stop stop-color="white"/>
<stop offset="1" stop-color="white" stop-opacity="0"/>
</linearGradient>
<linearGradient id="paint23_linear_506_14003" x1="12.6545" y1="2.55219" x2="12.6545" y2="2.87753" gradientUnits="userSpaceOnUse">
<stop stop-opacity="0"/>
<stop offset="0.9898"/>
</linearGradient>
<linearGradient id="paint24_linear_506_14003" x1="9.43275" y1="17.7431" x2="9.55706" y2="17.6979" gradientUnits="userSpaceOnUse">
<stop stop-color="white"/>
<stop offset="1" stop-color="white" stop-opacity="0"/>
</linearGradient>
<linearGradient id="paint25_linear_506_14003" x1="9.61437" y1="17.2889" x2="10.0702" y2="18.1026" gradientUnits="userSpaceOnUse">
<stop offset="0.0051"/>
<stop offset="1" stop-opacity="0"/>
</linearGradient>
<linearGradient id="paint26_linear_506_14003" x1="9.43251" y1="1.27089" x2="9.55682" y2="1.31611" gradientUnits="userSpaceOnUse">
<stop stop-color="white"/>
<stop offset="1" stop-color="white" stop-opacity="0"/>
</linearGradient>
<linearGradient id="paint27_linear_506_14003" x1="9.61412" y1="1.72489" x2="10.07" y2="0.911171" gradientUnits="userSpaceOnUse">
<stop offset="0.0051"/>
<stop offset="1" stop-opacity="0"/>
</linearGradient>
<linearGradient id="paint28_linear_506_14003" x1="16.1584" y1="9.61548" x2="15.7812" y2="9.61548" gradientUnits="userSpaceOnUse">
<stop stop-opacity="0"/>
<stop offset="0.9898"/>
</linearGradient>
<radialGradient id="paint29_radial_506_14003" cx="0" cy="0" r="1" gradientUnits="userSpaceOnUse" gradientTransform="translate(15.1656 9.5348) rotate(-90) scale(3.41311 3.41313)">
<stop stop-color="white" stop-opacity="0"/>
<stop offset="1" stop-color="white"/>
</radialGradient>
<linearGradient id="paint30_linear_506_14003" x1="15.5717" y1="9.5348" x2="15.8809" y2="9.5348" gradientUnits="userSpaceOnUse">
<stop stop-opacity="0"/>
<stop offset="0.9898"/>
</linearGradient>
<linearGradient id="paint31_linear_506_14003" x1="14.8631" y1="14.1143" x2="14.8631" y2="4.9553" gradientUnits="userSpaceOnUse">
<stop stop-color="white" stop-opacity="0"/>
<stop offset="1" stop-color="white"/>
</linearGradient>
<linearGradient id="paint32_linear_506_14003" x1="15.4674" y1="8.0209" x2="15.4674" y2="13.6426" gradientUnits="userSpaceOnUse">
<stop stop-color="white" stop-opacity="0"/>
<stop offset="1" stop-color="white"/>
</linearGradient>
<radialGradient id="paint33_radial_506_14003" cx="0" cy="0" r="1" gradientUnits="userSpaceOnUse" gradientTransform="translate(18.6015 1.69001) rotate(-90) scale(21.8 21.8002)">
<stop stop-color="white" stop-opacity="0"/>
<stop offset="1" stop-color="white"/>
</radialGradient>
<radialGradient id="paint34_radial_506_14003" cx="0" cy="0" r="1" gradientUnits="userSpaceOnUse" gradientTransform="translate(32.505 23.2281) rotate(-90) scale(31.6921 31.6923)">
<stop offset="0.0102"/>
<stop offset="1" stop-opacity="0"/>
</radialGradient>
<linearGradient id="paint35_linear_506_14003" x1="40.923" y1="15.48" x2="41.2093" y2="17.3937" gradientUnits="userSpaceOnUse">
<stop stop-color="white" stop-opacity="0"/>
<stop offset="1" stop-color="white"/>
</linearGradient>
<linearGradient id="paint36_linear_506_14003" x1="40.9636" y1="16.2616" x2="41.0663" y2="16.2616" gradientUnits="userSpaceOnUse">
<stop stop-color="white" stop-opacity="0"/>
<stop offset="1" stop-color="white"/>
</linearGradient>
<linearGradient id="paint37_linear_506_14003" x1="40.9225" y1="2.29962" x2="41.2088" y2="4.21335" gradientUnits="userSpaceOnUse">
<stop stop-color="white" stop-opacity="0"/>
<stop offset="1" stop-color="white"/>
</linearGradient>
<linearGradient id="paint38_linear_506_14003" x1="40.9636" y1="3.08166" x2="41.0663" y2="3.08166" gradientUnits="userSpaceOnUse">
<stop stop-color="white" stop-opacity="0"/>
<stop offset="1" stop-color="white"/>
</linearGradient>
<linearGradient id="paint39_linear_506_14003" x1="41.023" y1="9.7203" x2="40.8823" y2="9.7203" gradientUnits="userSpaceOnUse">
<stop stop-opacity="0"/>
<stop offset="0.9898"/>
</linearGradient>
<linearGradient id="paint40_linear_506_14003" x1="18.0455" y1="1.28583" x2="1.01782" y2="1.60729" gradientUnits="userSpaceOnUse">
<stop stop-color="#C7C5C5"/>
<stop offset="0.0359" stop-color="#676767"/>
<stop offset="0.1123" stop-color="white"/>
<stop offset="0.3019" stop-color="#929292"/>
<stop offset="0.492" stop-color="white"/>
<stop offset="0.6257" stop-color="#676767"/>
<stop offset="0.7701" stop-color="#929292"/>
<stop offset="0.8233" stop-color="#C7C5C5"/>
<stop offset="1" stop-color="#343433"/>
</linearGradient>
<linearGradient id="paint41_linear_506_14003" x1="13.5184" y1="1.74249" x2="13.5184" y2="1.5918" gradientUnits="userSpaceOnUse">
<stop offset="0.0051"/>
<stop offset="1" stop-opacity="0"/>
</linearGradient>
<linearGradient id="paint42_linear_506_14003" x1="16.9939" y1="1.36228" x2="16.4647" y2="1.36228" gradientUnits="userSpaceOnUse">
<stop offset="0.0051"/>
<stop offset="1" stop-opacity="0"/>
</linearGradient>
</defs>
</svg>
