<svg width="19" height="42" viewBox="0 0 19 42" fill="none" xmlns="http://www.w3.org/2000/svg">
<path d="M0.95874 17.4939L0.95874 11.5843C0.95874 11.4098 1.02805 11.2426 1.15131 11.1192L1.72755 10.5429L1.72755 17.4939L0.95874 17.4939Z" fill="#CCCCCC"/>
<path d="M1.0791 17.3728L1.60704 17.3728L1.60704 10.8333L1.23645 11.2037C1.135 11.3052 1.0791 11.4401 1.0791 11.5835L1.0791 17.3728Z" fill="url(#paint0_linear_506_9736)"/>
<path opacity="0.5" d="M0.95874 17.4939L0.95874 11.5843C0.95874 11.4098 1.02805 11.2426 1.15131 11.1192L1.72755 10.5429L1.72755 17.4939L0.95874 17.4939Z" fill="url(#paint1_linear_506_9736)"/>
<path opacity="0.4" d="M0.95874 17.4939L0.95874 11.5843C0.95874 11.4098 1.02805 11.2426 1.15131 11.1192L1.72755 10.5429L1.72755 17.4939L0.95874 17.4939Z" fill="url(#paint2_linear_506_9736)"/>
<mask id="mask0_506_9736" style="mask-type:luminance" maskUnits="userSpaceOnUse" x="1" y="10" width="1" height="8">
<path d="M1.07983 17.3726L1.60777 17.3726L1.60777 10.833L1.23718 11.2035C1.13573 11.3049 1.07983 11.4398 1.07983 11.5833L1.07983 17.3726Z" fill="white"/>
</mask>
<g mask="url(#mask0_506_9736)">
<path d="M1.48694 17.3218C1.44122 17.2962 1.39502 17.2917 1.39502 17.2917C1.39502 17.2917 1.42297 17.3287 1.46868 17.3542C1.5144 17.3798 1.56061 17.3843 1.56061 17.3843C1.56061 17.3843 1.53266 17.3473 1.48694 17.3218Z" fill="#999999"/>
<path d="M1.12537 17.1135C1.07965 17.088 1.03345 17.0835 1.03345 17.0835C1.03345 17.0835 1.06139 17.1205 1.10711 17.146C1.15283 17.1715 1.19903 17.176 1.19903 17.176C1.19903 17.176 1.17109 17.139 1.12537 17.1135Z" fill="#999999"/>
<path d="M1.31252 17.2418C1.33804 17.1961 1.34257 17.1501 1.34257 17.1501C1.34257 17.1501 1.30557 17.178 1.28005 17.2238C1.25452 17.2695 1.25 17.3157 1.25 17.3157C1.25 17.3157 1.28699 17.2876 1.31252 17.2418Z" fill="#999999"/>
<path d="M1.53981 17.1141C1.56534 17.0684 1.56986 17.0222 1.56986 17.0222C1.56986 17.0222 1.53286 17.0501 1.50734 17.0958C1.48181 17.1415 1.47729 17.1877 1.47729 17.1877C1.47729 17.1877 1.51429 17.1598 1.53981 17.1141Z" fill="#999999"/>
<path d="M1.178 16.9062C1.20353 16.8604 1.20789 16.8144 1.20789 16.8144C1.20789 16.8144 1.17089 16.8423 1.14536 16.8881C1.11984 16.9338 1.11548 16.98 1.11548 16.98C1.11548 16.98 1.15248 16.9519 1.178 16.9062Z" fill="#999999"/>
<path d="M1.3327 17.0163C1.37842 17.0419 1.42462 17.0464 1.42462 17.0464C1.42462 17.0464 1.39667 17.0094 1.35095 16.9839C1.30524 16.9583 1.25903 16.9538 1.25903 16.9538C1.25903 16.9538 1.28698 16.9908 1.3327 17.0163Z" fill="#999999"/>
<path d="M1.60982 16.8347C1.56411 16.8092 1.51807 16.8048 1.51807 16.8048C1.51807 16.8048 1.54601 16.8418 1.59173 16.8673C1.63745 16.8929 1.68349 16.8972 1.68349 16.8972C1.68349 16.8972 1.65554 16.8602 1.60982 16.8347Z" fill="#999999"/>
<path d="M1.24817 16.6264C1.20245 16.6009 1.15625 16.5966 1.15625 16.5966C1.15625 16.5966 1.1842 16.6336 1.22991 16.6591C1.27563 16.6846 1.32184 16.689 1.32184 16.689C1.32184 16.689 1.29389 16.652 1.24817 16.6264Z" fill="#999999"/>
<path d="M1.43533 16.7549C1.46085 16.7091 1.46537 16.6629 1.46537 16.6629C1.46537 16.6629 1.42838 16.6909 1.40285 16.7366C1.37733 16.7823 1.3728 16.8284 1.3728 16.8284C1.3728 16.8284 1.4098 16.8006 1.43533 16.7549Z" fill="#999999"/>
<path d="M1.66205 16.6268C1.68757 16.5811 1.69193 16.5348 1.69193 16.5348C1.69193 16.5348 1.65493 16.5628 1.62941 16.6085C1.60388 16.6542 1.59937 16.7004 1.59937 16.7004C1.59937 16.7004 1.63652 16.6725 1.66205 16.6268Z" fill="#999999"/>
<path d="M1.30007 16.4187C1.32559 16.373 1.32995 16.3268 1.32995 16.3268C1.32995 16.3268 1.29296 16.3547 1.26743 16.4004C1.24191 16.4461 1.23755 16.4922 1.23755 16.4922C1.23755 16.4922 1.27454 16.4644 1.30007 16.4187Z" fill="#999999"/>
<path d="M1.45485 16.5287C1.50057 16.5542 1.54677 16.5586 1.54677 16.5586C1.54677 16.5586 1.51882 16.5216 1.47311 16.4961C1.42739 16.4706 1.38135 16.4662 1.38135 16.4662C1.38135 16.4662 1.40913 16.5032 1.45485 16.5287Z" fill="#999999"/>
<path d="M1.1054 16.343C1.15112 16.3685 1.19732 16.373 1.19732 16.373C1.19732 16.373 1.16938 16.336 1.12366 16.3105C1.07794 16.285 1.03174 16.2805 1.03174 16.2805C1.03174 16.2805 1.05969 16.3175 1.1054 16.343Z" fill="#999999"/>
<path d="M1.5735 16.3026C1.59903 16.2569 1.6034 16.2109 1.6034 16.2109C1.6034 16.2109 1.5664 16.2388 1.54087 16.2845C1.51535 16.3303 1.51099 16.3765 1.51099 16.3765C1.51099 16.3765 1.54798 16.3484 1.5735 16.3026Z" fill="#999999"/>
<path d="M1.21169 16.0945C1.23721 16.0488 1.24157 16.0026 1.24157 16.0026C1.24157 16.0026 1.20458 16.0306 1.17906 16.0763C1.15353 16.122 1.14917 16.1682 1.14917 16.1682C1.14917 16.1682 1.18616 16.1403 1.21169 16.0945Z" fill="#999999"/>
<path d="M1.36688 16.2047C1.4126 16.2303 1.4588 16.2346 1.4588 16.2346C1.4588 16.2346 1.43085 16.1976 1.38513 16.1721C1.33942 16.1466 1.29321 16.1422 1.29321 16.1422C1.29321 16.1422 1.32116 16.1792 1.36688 16.2047Z" fill="#999999"/>
<path d="M1.64319 16.0226C1.59747 15.9971 1.55127 15.9926 1.55127 15.9926C1.55127 15.9926 1.57922 16.0295 1.62493 16.0551C1.67065 16.0806 1.71686 16.085 1.71686 16.085C1.71686 16.085 1.68891 16.0481 1.64319 16.0226Z" fill="#999999"/>
<path d="M1.28137 15.8147C1.23566 15.7892 1.18945 15.7846 1.18945 15.7846C1.18945 15.7846 1.2174 15.8216 1.26312 15.8471C1.30884 15.8727 1.35504 15.8772 1.35504 15.8772C1.35504 15.8772 1.32709 15.8402 1.28137 15.8147Z" fill="#999999"/>
<path d="M1.46853 15.9427C1.49405 15.897 1.49857 15.8508 1.49857 15.8508C1.49857 15.8508 1.46158 15.8787 1.43605 15.9244C1.41053 15.9702 1.40601 16.0164 1.40601 16.0164C1.40601 16.0164 1.443 15.9884 1.46853 15.9427Z" fill="#999999"/>
<path d="M1.33327 15.6077C1.35879 15.562 1.36316 15.5158 1.36316 15.5158C1.36316 15.5158 1.32616 15.5438 1.30064 15.5895C1.27511 15.6352 1.27075 15.6814 1.27075 15.6814C1.27075 15.6814 1.30775 15.6534 1.33327 15.6077Z" fill="#999999"/>
<path d="M1.48797 15.7173C1.53369 15.7428 1.57989 15.7473 1.57989 15.7473C1.57989 15.7473 1.55195 15.7103 1.50623 15.6848C1.46051 15.6593 1.41431 15.6547 1.41431 15.6547C1.41431 15.6547 1.44225 15.6917 1.48797 15.7173Z" fill="#999999"/>
<path d="M1.13934 15.532C1.18506 15.5575 1.23126 15.562 1.23126 15.562C1.23126 15.562 1.20331 15.525 1.15759 15.4995C1.11188 15.474 1.06567 15.4696 1.06567 15.4696C1.06567 15.4696 1.09362 15.5064 1.13934 15.532Z" fill="#999999"/>
<path d="M1.5735 15.4879C1.59903 15.4421 1.6034 15.3959 1.6034 15.3959C1.6034 15.3959 1.5664 15.4239 1.54087 15.4696C1.51535 15.5153 1.51099 15.5615 1.51099 15.5615C1.51099 15.5615 1.54798 15.5336 1.5735 15.4879Z" fill="#999999"/>
<path d="M1.21169 15.2799C1.23721 15.2342 1.24157 15.1882 1.24157 15.1882C1.24157 15.1882 1.20458 15.2161 1.17906 15.2618C1.15353 15.3076 1.14917 15.3538 1.14917 15.3538C1.14917 15.3538 1.18616 15.3257 1.21169 15.2799Z" fill="#999999"/>
<path d="M1.36688 15.3895C1.4126 15.4151 1.4588 15.4194 1.4588 15.4194C1.4588 15.4194 1.43085 15.3824 1.38513 15.3569C1.33942 15.3314 1.29321 15.327 1.29321 15.327C1.29321 15.327 1.32116 15.364 1.36688 15.3895Z" fill="#999999"/>
<path d="M1.64343 15.2083C1.59772 15.1828 1.55151 15.1784 1.55151 15.1784C1.55151 15.1784 1.57946 15.2154 1.62518 15.2409C1.6709 15.2665 1.7171 15.271 1.7171 15.271C1.7171 15.271 1.68915 15.2338 1.64343 15.2083Z" fill="#999999"/>
<path d="M1.28137 14.9995C1.23566 14.974 1.18945 14.9694 1.18945 14.9694C1.18945 14.9694 1.2174 15.0064 1.26312 15.032C1.30884 15.0575 1.35504 15.062 1.35504 15.062C1.35504 15.062 1.32709 15.025 1.28137 14.9995Z" fill="#999999"/>
<path d="M1.46853 15.1277C1.49405 15.082 1.49857 15.0358 1.49857 15.0358C1.49857 15.0358 1.46158 15.0638 1.43605 15.1095C1.41053 15.1552 1.40601 15.2014 1.40601 15.2014C1.40601 15.2014 1.443 15.1735 1.46853 15.1277Z" fill="#999999"/>
<path d="M1.33376 14.7927C1.35928 14.747 1.36364 14.7008 1.36364 14.7008C1.36364 14.7008 1.32665 14.7287 1.30113 14.7745C1.2756 14.8202 1.27124 14.8662 1.27124 14.8662C1.27124 14.8662 1.30823 14.8384 1.33376 14.7927Z" fill="#999999"/>
<path d="M1.48822 14.9028C1.53393 14.9283 1.58014 14.9329 1.58014 14.9329C1.58014 14.9329 1.55219 14.8959 1.50647 14.8703C1.46075 14.8448 1.41455 14.8403 1.41455 14.8403C1.41455 14.8403 1.4425 14.8773 1.48822 14.9028Z" fill="#999999"/>
<path d="M1.13958 14.7169C1.1853 14.7425 1.2315 14.7468 1.2315 14.7468C1.2315 14.7468 1.20356 14.7098 1.15784 14.6843C1.11212 14.6588 1.06592 14.6544 1.06592 14.6544C1.06592 14.6544 1.09386 14.6914 1.13958 14.7169Z" fill="#999999"/>
<path d="M1.5735 14.6731C1.59903 14.6274 1.6034 14.5812 1.6034 14.5812C1.6034 14.5812 1.5664 14.6091 1.54087 14.6548C1.51535 14.7005 1.51099 14.7466 1.51099 14.7466C1.51099 14.7466 1.54798 14.7188 1.5735 14.6731Z" fill="#999999"/>
<path d="M1.21169 14.4649C1.23721 14.4192 1.24157 14.373 1.24157 14.373C1.24157 14.373 1.20458 14.4009 1.17906 14.4467C1.15353 14.4924 1.14917 14.5386 1.14917 14.5386C1.14917 14.5386 1.18616 14.5106 1.21169 14.4649Z" fill="#999999"/>
<path d="M1.36688 14.5749C1.4126 14.6005 1.4588 14.605 1.4588 14.605C1.4588 14.605 1.43085 14.568 1.38513 14.5425C1.33942 14.5169 1.29321 14.5126 1.29321 14.5126C1.29321 14.5126 1.32116 14.5494 1.36688 14.5749Z" fill="#999999"/>
<path d="M1.64319 14.3938C1.59747 14.3683 1.55127 14.3639 1.55127 14.3639C1.55127 14.3639 1.57922 14.4009 1.62493 14.4264C1.67065 14.4519 1.71686 14.4563 1.71686 14.4563C1.71686 14.4563 1.68891 14.4193 1.64319 14.3938Z" fill="#999999"/>
<path d="M1.28137 14.1859C1.23566 14.1603 1.18945 14.156 1.18945 14.156C1.18945 14.156 1.2174 14.193 1.26312 14.2185C1.30884 14.244 1.35504 14.2485 1.35504 14.2485C1.35504 14.2485 1.32709 14.2114 1.28137 14.1859Z" fill="#999999"/>
<path d="M1.46853 14.3139C1.49405 14.2681 1.49857 14.2221 1.49857 14.2221C1.49857 14.2221 1.46158 14.2501 1.43605 14.2958C1.41053 14.3415 1.40601 14.3877 1.40601 14.3877C1.40601 14.3877 1.443 14.3596 1.46853 14.3139Z" fill="#999999"/>
<path d="M1.33351 13.9781C1.35904 13.9324 1.3634 13.8862 1.3634 13.8862C1.3634 13.8862 1.32641 13.9141 1.30088 13.9598C1.27536 14.0056 1.271 14.0518 1.271 14.0518C1.271 14.0518 1.30799 14.0238 1.33351 13.9781Z" fill="#999999"/>
<path d="M1.48773 14.0888C1.53345 14.1144 1.57965 14.1189 1.57965 14.1189C1.57965 14.1189 1.5517 14.0819 1.50598 14.0564C1.46027 14.0309 1.41406 14.0263 1.41406 14.0263C1.41406 14.0263 1.44201 14.0633 1.48773 14.0888Z" fill="#999999"/>
<path d="M1.13934 13.9032C1.18506 13.9287 1.23126 13.9331 1.23126 13.9331C1.23126 13.9331 1.20331 13.8961 1.15759 13.8706C1.11188 13.8451 1.06567 13.8407 1.06567 13.8407C1.06567 13.8407 1.09362 13.8775 1.13934 13.9032Z" fill="#999999"/>
<path d="M1.57375 13.8594C1.59927 13.8137 1.60364 13.7675 1.60364 13.7675C1.60364 13.7675 1.56664 13.7955 1.54112 13.8412C1.51559 13.8869 1.51123 13.9331 1.51123 13.9331C1.51123 13.9331 1.54822 13.9052 1.57375 13.8594Z" fill="#999999"/>
<path d="M1.21193 13.6516C1.23746 13.6059 1.24182 13.5597 1.24182 13.5597C1.24182 13.5597 1.20482 13.5876 1.1793 13.6333C1.15378 13.6791 1.14941 13.7251 1.14941 13.7251C1.14941 13.7251 1.18641 13.6973 1.21193 13.6516Z" fill="#999999"/>
<path d="M1.36712 13.7612C1.41284 13.7867 1.45904 13.7913 1.45904 13.7913C1.45904 13.7913 1.4311 13.7543 1.38538 13.7287C1.33966 13.7032 1.29346 13.6989 1.29346 13.6989C1.29346 13.6989 1.3214 13.7357 1.36712 13.7612Z" fill="#999999"/>
<path d="M1.64343 13.5796C1.59772 13.554 1.55151 13.5497 1.55151 13.5497C1.55151 13.5497 1.57946 13.5867 1.62518 13.6122C1.6709 13.6377 1.7171 13.6421 1.7171 13.6421C1.7171 13.6421 1.68915 13.6051 1.64343 13.5796Z" fill="#999999"/>
<path d="M1.28162 13.3716C1.2359 13.346 1.1897 13.3417 1.1897 13.3417C1.1897 13.3417 1.21764 13.3787 1.26336 13.4042C1.30908 13.4297 1.35528 13.4341 1.35528 13.4341C1.35528 13.4341 1.32734 13.3971 1.28162 13.3716Z" fill="#999999"/>
<path d="M1.46877 13.4996C1.4943 13.4539 1.49882 13.4077 1.49882 13.4077C1.49882 13.4077 1.46182 13.4356 1.4363 13.4813C1.41077 13.527 1.40625 13.5732 1.40625 13.5732C1.40625 13.5732 1.44325 13.5453 1.46877 13.4996Z" fill="#999999"/>
<path d="M1.33376 13.1632C1.35928 13.1174 1.36364 13.0712 1.36364 13.0712C1.36364 13.0712 1.32665 13.0992 1.30113 13.1449C1.2756 13.1906 1.27124 13.2368 1.27124 13.2368C1.27124 13.2368 1.30823 13.2089 1.33376 13.1632Z" fill="#999999"/>
<path d="M1.48822 13.2743C1.53393 13.2998 1.58014 13.3042 1.58014 13.3042C1.58014 13.3042 1.55219 13.2672 1.50647 13.2417C1.46075 13.2162 1.41455 13.2118 1.41455 13.2118C1.41455 13.2118 1.4425 13.2488 1.48822 13.2743Z" fill="#999999"/>
<path d="M1.13958 13.0883C1.1853 13.1138 1.2315 13.1182 1.2315 13.1182C1.2315 13.1182 1.20356 13.0812 1.15784 13.0556C1.11212 13.0301 1.06592 13.0258 1.06592 13.0258C1.06592 13.0258 1.09386 13.0626 1.13958 13.0883Z" fill="#999999"/>
<path d="M1.5735 13.044C1.59903 12.9983 1.6034 12.9521 1.6034 12.9521C1.6034 12.9521 1.5664 12.98 1.54087 13.0258C1.51535 13.0715 1.51099 13.1177 1.51099 13.1177C1.51099 13.1177 1.54798 13.0897 1.5735 13.044Z" fill="#999999"/>
<path d="M1.21169 12.8358C1.23721 12.79 1.24157 12.7438 1.24157 12.7438C1.24157 12.7438 1.20458 12.7718 1.17906 12.8175C1.15353 12.8632 1.14917 12.9094 1.14917 12.9094C1.14917 12.9094 1.18616 12.8815 1.21169 12.8358Z" fill="#999999"/>
<path d="M1.36688 12.946C1.4126 12.9716 1.4588 12.9761 1.4588 12.9761C1.4588 12.9761 1.43085 12.9391 1.38513 12.9136C1.33942 12.888 1.29321 12.8835 1.29321 12.8835C1.29321 12.8835 1.32116 12.9205 1.36688 12.946Z" fill="#999999"/>
<path d="M1.64343 12.7645C1.59772 12.739 1.55151 12.7345 1.55151 12.7345C1.55151 12.7345 1.57946 12.7715 1.62518 12.797C1.6709 12.8225 1.7171 12.8269 1.7171 12.8269C1.7171 12.8269 1.68915 12.7901 1.64343 12.7645Z" fill="#999999"/>
<path d="M1.28162 12.5566C1.2359 12.5311 1.1897 12.5267 1.1897 12.5267C1.1897 12.5267 1.21764 12.5637 1.26336 12.5893C1.30908 12.6148 1.35528 12.6191 1.35528 12.6191C1.35528 12.6191 1.32734 12.5821 1.28162 12.5566Z" fill="#999999"/>
<path d="M1.46877 12.6848C1.4943 12.6391 1.49882 12.5929 1.49882 12.5929C1.49882 12.5929 1.46182 12.6208 1.4363 12.6665C1.41077 12.7123 1.40625 12.7583 1.40625 12.7583C1.40625 12.7583 1.44325 12.7305 1.46877 12.6848Z" fill="#999999"/>
<path d="M1.33376 12.3489C1.35928 12.3032 1.36364 12.257 1.36364 12.257C1.36364 12.257 1.32665 12.285 1.30113 12.3307C1.2756 12.3764 1.27124 12.4226 1.27124 12.4226C1.27124 12.4226 1.30823 12.3947 1.33376 12.3489Z" fill="#999999"/>
<path d="M1.48797 12.4586C1.53369 12.4842 1.57989 12.4885 1.57989 12.4885C1.57989 12.4885 1.55195 12.4515 1.50623 12.426C1.46051 12.4005 1.41431 12.396 1.41431 12.396C1.41431 12.396 1.44225 12.4331 1.48797 12.4586Z" fill="#999999"/>
<path d="M1.13958 12.2739C1.1853 12.2994 1.2315 12.304 1.2315 12.304C1.2315 12.304 1.20356 12.267 1.15784 12.2414C1.11212 12.2159 1.06592 12.2114 1.06592 12.2114C1.06592 12.2114 1.09386 12.2484 1.13958 12.2739Z" fill="#999999"/>
<path d="M1.5735 12.2296C1.59903 12.1839 1.6034 12.1379 1.6034 12.1379C1.6034 12.1379 1.5664 12.1658 1.54087 12.2115C1.51535 12.2573 1.51099 12.3035 1.51099 12.3035C1.51099 12.3035 1.54798 12.2754 1.5735 12.2296Z" fill="#999999"/>
<path d="M1.21169 12.0215C1.23721 11.9758 1.24157 11.9296 1.24157 11.9296C1.24157 11.9296 1.20458 11.9576 1.17906 12.0033C1.15353 12.049 1.14917 12.0952 1.14917 12.0952C1.14917 12.0952 1.18616 12.0671 1.21169 12.0215Z" fill="#999999"/>
<path d="M1.36663 12.1321C1.41235 12.1576 1.45855 12.1621 1.45855 12.1621C1.45855 12.1621 1.43061 12.1251 1.38489 12.0996C1.33917 12.0741 1.29297 12.0697 1.29297 12.0697C1.29297 12.0697 1.32092 12.1065 1.36663 12.1321Z" fill="#999999"/>
<path d="M1.64319 11.9505C1.59747 11.925 1.55127 11.9206 1.55127 11.9206C1.55127 11.9206 1.57922 11.9576 1.62493 11.9831C1.67065 12.0087 1.71686 12.0132 1.71686 12.0132C1.71686 12.0132 1.68891 11.976 1.64319 11.9505Z" fill="#999999"/>
<path d="M1.28137 11.7426C1.23566 11.717 1.18945 11.7125 1.18945 11.7125C1.18945 11.7125 1.2174 11.7495 1.26312 11.775C1.30884 11.8006 1.35504 11.8049 1.35504 11.8049C1.35504 11.8049 1.32709 11.7681 1.28137 11.7426Z" fill="#999999"/>
<path d="M1.46853 11.8705C1.49405 11.8248 1.49857 11.7787 1.49857 11.7787C1.49857 11.7787 1.46158 11.8067 1.43605 11.8524C1.41053 11.8981 1.40601 11.9443 1.40601 11.9443C1.40601 11.9443 1.443 11.9162 1.46853 11.8705Z" fill="#999999"/>
<path d="M1.33351 11.5355C1.35904 11.4898 1.3634 11.4438 1.3634 11.4438C1.3634 11.4438 1.32641 11.4717 1.30088 11.5175C1.27536 11.5632 1.271 11.6094 1.271 11.6094C1.271 11.6094 1.30799 11.5813 1.33351 11.5355Z" fill="#999999"/>
<path d="M1.48797 11.6449C1.53369 11.6704 1.57989 11.6748 1.57989 11.6748C1.57989 11.6748 1.55195 11.6378 1.50623 11.6123C1.46051 11.5868 1.41431 11.5824 1.41431 11.5824C1.41431 11.5824 1.44225 11.6194 1.48797 11.6449Z" fill="#999999"/>
<path d="M1.13934 11.4592C1.18506 11.4847 1.23126 11.4893 1.23126 11.4893C1.23126 11.4893 1.20331 11.4523 1.15759 11.4267C1.11188 11.4012 1.06567 11.3967 1.06567 11.3967C1.06567 11.3967 1.09362 11.4337 1.13934 11.4592Z" fill="#999999"/>
<path d="M1.57375 11.4156C1.59927 11.3699 1.60364 11.3237 1.60364 11.3237C1.60364 11.3237 1.56664 11.3516 1.54112 11.3973C1.51559 11.4431 1.51123 11.4893 1.51123 11.4893C1.51123 11.4893 1.54822 11.4613 1.57375 11.4156Z" fill="#999999"/>
<path d="M1.21169 11.2081C1.23721 11.1623 1.24157 11.1161 1.24157 11.1161C1.24157 11.1161 1.20458 11.1441 1.17906 11.1898C1.15353 11.2355 1.14917 11.2817 1.14917 11.2817C1.14917 11.2817 1.18616 11.2536 1.21169 11.2081Z" fill="#999999"/>
<path d="M1.36712 11.3175C1.41284 11.3431 1.45904 11.3474 1.45904 11.3474C1.45904 11.3474 1.4311 11.3104 1.38538 11.2849C1.33966 11.2594 1.29346 11.2548 1.29346 11.2548C1.29346 11.2548 1.3214 11.292 1.36712 11.3175Z" fill="#999999"/>
<path d="M1.64343 11.1355C1.59772 11.1099 1.55151 11.1054 1.55151 11.1054C1.55151 11.1054 1.57946 11.1424 1.62518 11.1679C1.6709 11.1935 1.7171 11.198 1.7171 11.198C1.7171 11.198 1.68915 11.161 1.64343 11.1355Z" fill="#999999"/>
<path d="M1.28162 10.9275C1.2359 10.9019 1.1897 10.8974 1.1897 10.8974C1.1897 10.8974 1.21764 10.9344 1.26336 10.9599C1.30908 10.9855 1.35528 10.99 1.35528 10.99C1.35528 10.99 1.32734 10.953 1.28162 10.9275Z" fill="#999999"/>
<path d="M1.46877 11.0557C1.4943 11.01 1.49882 10.9638 1.49882 10.9638C1.49882 10.9638 1.46182 10.9918 1.4363 11.0375C1.41077 11.0832 1.40625 11.1294 1.40625 11.1294C1.40625 11.1294 1.44325 11.1014 1.46877 11.0557Z" fill="#999999"/>
<path d="M1.48797 10.8296C1.53369 10.8551 1.57989 10.8596 1.57989 10.8596C1.57989 10.8596 1.55195 10.8226 1.50623 10.7971C1.46051 10.7716 1.41431 10.7671 1.41431 10.7671C1.41431 10.7671 1.44225 10.804 1.48797 10.8296Z" fill="#999999"/>
</g>
<path d="M4.10181 2.24927L3.84866 2.24927C3.82072 2.24927 3.7981 2.22665 3.7981 2.1987L3.7981 2.08869C3.7981 2.06074 3.82072 2.03812 3.84866 2.03812L4.10181 2.03812C4.12975 2.03812 4.15237 2.06074 4.15237 2.08869L4.15237 2.1987C4.15221 2.22665 4.12959 2.24927 4.10181 2.24927Z" fill="url(#paint3_linear_506_9736)"/>
<path d="M4.5931 2.24927L4.79649 2.24927C4.83817 2.24927 4.87177 2.2155 4.87177 2.17398L4.87177 2.11373C4.87177 2.07205 4.83801 2.03845 4.79649 2.03845L4.5931 2.03845C4.55142 2.03845 4.51782 2.07221 4.51782 2.11373L4.51782 2.17399C4.51766 2.2155 4.55142 2.24927 4.5931 2.24927Z" fill="url(#paint4_linear_506_9736)"/>
<path d="M4.4521 2.84912L4.25291 2.84847C4.1311 2.84799 4.03272 2.74895 4.0332 2.62715L4.03563 1.9698C4.03611 1.84799 4.13514 1.74961 4.25695 1.7501L4.45613 1.75074C4.57794 1.75123 4.67633 1.85026 4.67584 1.97206L4.67342 2.62941C4.67293 2.75122 4.5739 2.8496 4.4521 2.84912Z" fill="url(#paint5_linear_506_9736)"/>
<path d="M14.3611 2.24927L14.1079 2.24927C14.0801 2.24927 14.0574 2.22665 14.0574 2.1987L14.0574 2.08869C14.0574 2.06074 14.08 2.03812 14.1079 2.03812L14.3611 2.03812C14.389 2.03812 14.4116 2.06074 14.4116 2.08869L14.4116 2.1987C14.4116 2.22665 14.389 2.24927 14.3611 2.24927Z" fill="url(#paint6_linear_506_9736)"/>
<path d="M14.8521 2.24927L15.0555 2.24927C15.0972 2.24927 15.1308 2.2155 15.1308 2.17398L15.1308 2.11373C15.1308 2.07205 15.097 2.03845 15.0555 2.03845L14.8521 2.03845C14.8105 2.03845 14.7769 2.07221 14.7769 2.11373L14.7769 2.17399C14.7769 2.2155 14.8106 2.24927 14.8521 2.24927Z" fill="url(#paint7_linear_506_9736)"/>
<path d="M14.7114 2.84912L14.5122 2.84847C14.3904 2.84799 14.292 2.74895 14.2925 2.62715L14.2949 1.9698C14.2954 1.84799 14.3944 1.74961 14.5162 1.7501L14.7154 1.75074C14.8372 1.75123 14.9356 1.85026 14.9351 1.97206L14.9327 2.62941C14.9324 2.75122 14.8332 2.8496 14.7114 2.84912Z" fill="url(#paint8_linear_506_9736)"/>
<path d="M17.2532 17.2527L1.67749 17.2527L1.67749 3.35605C1.67749 2.80952 2.12045 2.36672 2.66681 2.36672L16.2637 2.36672C16.8102 2.36672 17.2531 2.80969 17.2531 3.35605L17.2532 17.2527Z" fill="#E1E2DD"/>
<path d="M15.7764 2.36636L3.15404 2.36636C2.33854 2.36636 1.67749 3.02742 1.67749 3.84292L1.67749 4.51416L17.2532 4.51416L17.2532 3.84292C17.2532 3.02742 16.5919 2.36636 15.7764 2.36636Z" fill="url(#paint9_linear_506_9736)"/>
<path d="M15.7764 2.36636L3.15404 2.36636C2.33854 2.36636 1.67749 3.02742 1.67749 3.84292L1.67749 4.51416L17.2532 4.51416L17.2532 3.84292C17.2532 3.02742 16.5919 2.36636 15.7764 2.36636Z" fill="url(#paint10_linear_506_9736)"/>
<path opacity="0.2" d="M15.5647 2.7313L3.36535 2.7313C2.57715 2.7313 1.93823 3.39236 1.93823 4.20786L1.93823 4.51416L16.9916 4.51416L16.9916 4.20786C16.9918 3.39236 16.3528 2.7313 15.5647 2.7313Z" fill="black"/>
<path d="M2.15967 16.9553L2.15967 3.93703C2.15967 3.56902 2.45805 3.27063 2.82605 3.27063L16.1047 3.27063C16.4727 3.27063 16.7711 3.56901 16.7711 3.93702L16.7711 16.9553L2.15967 16.9553Z" fill="#F5F7EA"/>
<g opacity="0.1">
<path d="M2.15967 16.9553L2.15967 3.93703C2.15967 3.56902 2.45805 3.27063 2.82605 3.27063L16.1047 3.27063C16.4727 3.27063 16.7711 3.56901 16.7711 3.93702L16.7711 16.9553L2.15967 16.9553Z" fill="url(#paint11_radial_506_9736)"/>
</g>
<g opacity="0.5">
<path d="M2.15967 16.9553L2.15967 3.93703C2.15967 3.56902 2.45805 3.27063 2.82605 3.27063L16.1047 3.27063C16.4727 3.27063 16.7711 3.56901 16.7711 3.93702L16.7711 16.9553L2.15967 16.9553Z" fill="url(#paint12_linear_506_9736)"/>
</g>
<path d="M5.75354 3.8894L5.46471 3.8894L5.41528 4.21986L5.06401 4.21986L5.01457 3.8894L4.75177 3.8894L5.04319 5.71081L5.46211 5.71081L5.75354 3.8894ZM5.10043 4.46705L5.37625 4.46705L5.23834 5.38816L5.10043 4.46705ZM6.49309 4.41761L6.68825 5.71081L7.08635 5.71081L7.08635 3.8894L6.81574 3.8894L6.81574 5.19561L6.61799 3.8894L6.34738 3.8894L6.13402 5.1774L6.13402 3.8894L5.88423 3.8894L5.88423 5.71081L6.28233 5.71081L6.49309 4.41761ZM7.72648 5.71081C7.87567 5.71081 7.98322 5.67611 8.04913 5.60673C8.11678 5.53734 8.15061 5.43239 8.15061 5.29188L8.15061 5.22683C8.15061 5.13316 8.13587 5.05597 8.10638 4.99525C8.07689 4.93454 8.03005 4.88944 7.96587 4.85995C8.04393 4.83046 8.09857 4.78189 8.12979 4.71424C8.16275 4.64832 8.17923 4.56679 8.17923 4.46965L8.17923 4.32134C8.17923 4.18083 8.1428 4.07328 8.06995 3.99869C7.99709 3.92583 7.88868 3.8894 7.7447 3.8894L7.29455 3.8894L7.29455 5.71081L7.72648 5.71081ZM7.58077 4.70903L7.58077 4.1496L7.7447 4.1496C7.79327 4.1496 7.8297 4.16261 7.85398 4.18863C7.88 4.21465 7.89301 4.26149 7.89301 4.32914L7.89301 4.48786C7.89301 4.57286 7.87827 4.63097 7.84878 4.6622C7.82102 4.69342 7.77419 4.70903 7.70827 4.70903L7.58077 4.70903ZM7.58077 5.45061L7.58077 4.96923L7.69266 4.96923C7.74643 4.96923 7.78807 4.98311 7.81755 5.01087C7.84878 5.03862 7.86439 5.08893 7.86439 5.16178L7.86439 5.26326C7.86439 5.32918 7.85225 5.37688 7.82796 5.40637C7.80541 5.43586 7.76898 5.45061 7.71868 5.45061L7.58077 5.45061ZM8.62483 5.71081L8.62483 4.30572C8.62483 4.23981 8.63784 4.19384 8.66386 4.16782C8.69161 4.1418 8.72804 4.12879 8.77314 4.12879C8.81824 4.12879 8.8538 4.1418 8.87982 4.16782C8.90758 4.19384 8.92145 4.23981 8.92145 4.30572L8.92145 5.71081L9.19206 5.71081L9.19206 4.32394C9.19206 4.17649 9.15563 4.06287 9.08278 3.98308C9.01166 3.90502 8.90584 3.86599 8.76533 3.86599C8.62483 3.86599 8.51814 3.90502 8.44529 3.98308C8.37417 4.06287 8.33861 4.17649 8.33861 4.32394L8.33861 5.71081L8.62483 5.71081ZM9.38835 5.71081L9.67457 5.71081L9.67457 4.1496L10.1455 4.1496L10.1455 3.8894L9.38835 3.8894L9.38835 5.71081ZM11.1964 3.8894L10.9076 3.8894L10.8581 4.21986L10.5069 4.21986L10.4574 3.8894L10.1946 3.8894L10.486 5.71081L10.905 5.71081L11.1964 3.8894ZM10.5433 4.46705L10.8191 4.46705L10.6812 5.38816L10.5433 4.46705ZM5.08222 2.20862L5.08222 0.889404L4.82462 0.889404L4.82462 2.71081L5.1837 2.71081L5.47772 1.62057L5.47772 2.71081L5.73272 2.71081L5.73272 0.889404L5.43869 0.889404L5.08222 2.20862ZM6.76769 1.56853L6.76769 1.32654C6.76769 1.17909 6.73126 1.06547 6.6584 0.985678C6.58728 0.907618 6.48147 0.868588 6.34096 0.868588C6.20045 0.868588 6.09377 0.907618 6.02091 0.985678C5.94979 1.06547 5.91423 1.17909 5.91423 1.32654L5.91423 2.27367C5.91423 2.42112 5.94979 2.53387 6.02091 2.61193C6.09377 2.69172 6.20045 2.73162 6.34096 2.73162C6.48147 2.73162 6.58728 2.69172 6.6584 2.61193C6.73126 2.53387 6.76769 2.42112 6.76769 2.27367L6.76769 2.09673L6.49708 2.09673L6.49708 2.29188C6.49708 2.3578 6.4832 2.40377 6.45545 2.42979C6.42943 2.45754 6.39387 2.47142 6.34877 2.47142C6.30366 2.47142 6.26724 2.45754 6.23948 2.42979C6.21346 2.40377 6.20045 2.3578 6.20045 2.29188L6.20045 1.30833C6.20045 1.24241 6.21346 1.19644 6.23948 1.17042C6.26724 1.1444 6.30366 1.13139 6.34877 1.13139C6.39387 1.13139 6.42943 1.1444 6.45545 1.17042C6.4832 1.19644 6.49708 1.24241 6.49708 1.30833L6.49708 1.56853L6.76769 1.56853ZM7.22757 1.94321L7.62047 1.94321L7.62047 1.68301L7.22757 1.68301L7.22757 1.1496L7.72195 1.1496L7.72195 0.889404L6.94135 0.889404L6.94135 2.71081L7.72195 2.71081L7.72195 2.45061L7.22757 2.45061L7.22757 1.94321Z" fill="#CC3300"/>
<path opacity="0.3" d="M6.00398 3.2709L5.15342 3.2709L4.4187 12.9757L5.26925 13.0393L6.00398 3.2709Z" fill="url(#paint13_linear_506_9736)"/>
<path opacity="0.3" d="M12.9194 3.2709L13.77 3.2709L14.5047 12.9757L13.6542 13.0393L12.9194 3.2709Z" fill="url(#paint14_linear_506_9736)"/>
<path d="M15.7764 2.84932L3.154 2.84932C2.6057 2.84932 2.15967 3.2952 2.15967 3.84366L2.15967 4.26562C2.15967 3.71652 2.60489 3.27113 3.154 3.27113L15.7764 3.27113C16.3257 3.27113 16.7709 3.71636 16.7709 4.26562L16.7709 3.84366C16.7709 3.2952 16.3249 2.84932 15.7764 2.84932Z" fill="#CCCCCC"/>
<path opacity="0.4" d="M12.8604 2.89624L6.00464 2.89624L6.00464 2.95133L12.8604 2.95133L12.8604 2.89624Z" fill="#666666"/>
<path opacity="0.4" d="M12.8604 2.99048L6.00464 2.99048L6.00464 3.04557L12.8604 3.04557L12.8604 2.99048Z" fill="#666666"/>
<path opacity="0.4" d="M12.8604 3.08374L6.00464 3.08374L6.00464 3.13883L12.8604 3.13883L12.8604 3.08374Z" fill="#666666"/>
<path opacity="0.4" d="M12.8607 3.17725L6.00488 3.17725L6.00488 3.23233L12.8607 3.23233L12.8607 3.17725Z" fill="#666666"/>
<path d="M3.15553 2.84835L3.15375 2.84835C2.60546 2.84835 2.15942 3.29422 2.15942 3.84268L2.15942 4.26465C2.15942 3.71554 2.60465 3.27015 3.15375 3.27015L3.15553 3.27015L3.15553 2.84835Z" fill="#FF6600"/>
<path d="M5.96563 3.27026L3.15356 3.27026L3.15356 2.8483L6.24446 2.8483L5.96563 3.27026Z" fill="#DCFFFE"/>
<path d="M3.15534 3.23267L5.99051 3.23267L6.05271 3.13864L3.15534 3.13864L3.15356 3.13864L3.15356 3.23267L3.15534 3.23267Z" fill="white"/>
<path opacity="0.4" d="M3.15375 3.13853C2.60546 3.13853 2.15942 3.58441 2.15942 4.13287L2.15942 4.22705C2.15942 3.67875 2.60546 3.23271 3.15375 3.23271L3.15553 3.23271L3.15553 3.13853L3.15375 3.13853Z" fill="white"/>
<path d="M2.15931 4.22705L2.0606 4.22705C2.03492 4.22705 2.01392 4.19474 2.01392 4.155L2.01392 3.8773C2.01392 3.83756 2.03476 3.80525 2.0606 3.80525L2.15931 3.80525L2.15931 4.22705Z" fill="#FF6600"/>
<path d="M15.7573 2.84835L15.7591 2.84835C16.3074 2.84835 16.7534 3.29422 16.7534 3.84268L16.7534 4.26465C16.7534 3.71554 16.3082 3.27015 15.7591 3.27015L15.7573 3.27015L15.7573 2.84835Z" fill="#FF6600"/>
<path d="M12.9469 3.27026L15.759 3.27026L15.759 2.8483L12.6682 2.8483L12.9469 3.27026Z" fill="#DCFFFE"/>
<path d="M15.7572 3.23267L12.9221 3.23267L12.8599 3.13864L15.7572 3.13864L15.759 3.13864L15.759 3.23267L15.7572 3.23267Z" fill="white"/>
<path opacity="0.4" d="M15.7591 3.13853C16.3074 3.13853 16.7534 3.58441 16.7534 4.13287L16.7534 4.22705C16.7534 3.67875 16.3074 3.23271 15.7591 3.23271L15.7573 3.23271L15.7573 3.13853L15.7591 3.13853Z" fill="white"/>
<path d="M16.7532 4.22705L16.8519 4.22705C16.8776 4.22705 16.8986 4.19474 16.8986 4.155L16.8986 3.8773C16.8986 3.83756 16.8777 3.80525 16.8519 3.80525L16.7532 3.80525L16.7532 4.22705Z" fill="#FF6600"/>
<path d="M3.4525 14.1828C5.00788 13.9548 11.8982 13.412 15.2961 14.1341C15.6334 14.2059 15.973 14.0303 16.1101 13.7139L16.7245 9.51867C16.8657 9.19299 16.6954 8.81755 16.3563 8.71238C14.626 8.17539 9.44254 6.94422 2.5929 8.77248C2.24928 8.86424 2.06673 9.24048 2.20001 9.5702L2.6761 13.7359C2.8013 14.0461 3.12132 14.2312 3.4525 14.1828Z" fill="#F4F4F4"/>
<path opacity="0.5" d="M3.4525 14.1828C5.00788 13.9548 11.8982 13.412 15.2961 14.1341C15.6334 14.2059 15.973 14.0303 16.1101 13.7139L16.7245 9.51867C16.8657 9.19299 16.6954 8.81755 16.3563 8.71238C14.626 8.17539 9.44254 6.94422 2.5929 8.77248C2.24928 8.86424 2.06673 9.24048 2.20001 9.5702L2.6761 13.7359C2.8013 14.0461 3.12132 14.2312 3.4525 14.1828Z" fill="url(#paint15_linear_506_9736)"/>
<path d="M3.34756 13.8979C3.17131 13.8979 3.01445 13.7913 2.94773 13.6265L2.47164 9.46083C2.43885 9.37941 2.44256 9.28749 2.48182 9.20898C2.52027 9.13208 2.58666 9.07748 2.66873 9.05535C5.04494 8.4211 7.44587 8.09946 9.8048 8.09946C12.9275 8.09946 15.1957 8.65874 16.2698 8.99218C16.3525 9.01787 16.4179 9.07506 16.454 9.15373C16.4905 9.23321 16.4913 9.32126 16.4561 9.40251L15.8417 13.5976C15.7732 13.7555 15.6184 13.8576 15.4473 13.8576C15.4173 13.8576 15.3871 13.8543 15.357 13.8479C14.2065 13.6034 11.6242 13.4795 10.0589 13.4795C7.77947 13.4795 4.46466 13.7387 3.41024 13.8933C3.38908 13.8965 3.36824 13.8979 3.34756 13.8979Z" fill="black"/>
<path d="M3.34756 13.751C3.23125 13.751 3.1277 13.6804 3.08359 13.5712L2.60751 9.40546C2.58408 9.34746 2.60073 9.29819 2.61284 9.27396C2.62674 9.24617 2.6542 9.21047 2.70654 9.19642C5.07047 8.5654 7.45864 8.24537 9.8048 8.24537C12.9083 8.24537 15.1603 8.80062 16.2263 9.13147C16.2839 9.14924 16.3103 9.19092 16.321 9.21418C16.3318 9.23825 16.3465 9.28656 16.3218 9.34375L15.7075 13.5392C15.6622 13.6432 15.5601 13.7108 15.4474 13.7108C15.4275 13.7108 15.4075 13.7085 15.3876 13.7045C14.227 13.4576 11.6343 13.3327 10.0589 13.3327C7.77026 13.3327 4.44738 13.593 3.38908 13.7479C3.37519 13.7498 3.3613 13.751 3.34756 13.751Z" fill="#676B86"/>
<path opacity="0.2" d="M2.73752 10.543C4.44233 10.1286 6.99302 9.79612 9.46551 9.79612C11.912 9.79612 14.448 10.1363 16.1462 10.543L16.3218 9.34379C16.3465 9.2866 16.3318 9.23829 16.321 9.21422C16.3103 9.19112 16.2838 9.14928 16.2263 9.13151C15.1602 8.80066 12.9083 8.24541 9.80476 8.24541C7.4586 8.24541 5.07043 8.56544 2.7065 9.19646C2.65416 9.21051 2.62669 9.24621 2.6128 9.274C2.60085 9.29823 2.58404 9.3475 2.60747 9.4055L2.73752 10.543Z" fill="black"/>
<path d="M2.64059 9.48779C4.46624 9.03691 6.85214 8.76325 9.46551 8.76325C12.0655 8.76325 14.4402 9.03416 16.2623 9.48085L16.3218 9.34369C16.3465 9.2865 16.3318 9.2382 16.321 9.21413C16.3103 9.19103 16.2838 9.14919 16.2263 9.13142C15.1602 8.80056 12.9083 8.24532 9.80476 8.24532C7.4586 8.24532 5.07043 8.56535 2.7065 9.19636C2.65416 9.21041 2.62669 9.24611 2.6128 9.2739C2.60085 9.29813 2.58404 9.34741 2.60747 9.40541L2.64059 9.48779Z" fill="#333333"/>
<path d="M4.85425 9.41605L6.7631 9.01864L6.78055 9.11411L4.86281 9.46387L4.85425 9.41605Z" fill="black"/>
<path d="M9.42615 8.63084L6.8186 9.10645L6.94751 8.98415L9.4087 8.53537L9.42615 8.63084Z" fill="black"/>
<path d="M4.97431 9.46826L9.52851 8.63919L9.51914 8.5883L4.85815 9.43838L4.97431 9.46826Z" fill="#333333"/>
<path d="M9.41112 8.60946C9.39788 8.53644 9.44618 8.46649 9.5192 8.45325C9.59222 8.44 9.66217 8.4883 9.67542 8.56132C9.68866 8.63435 9.64036 8.70429 9.56734 8.71754C9.49432 8.73079 9.42437 8.68248 9.41112 8.60946Z" fill="black"/>
<path d="M9.4156 8.63332C9.40478 8.57355 9.44436 8.5162 9.50413 8.50537C9.5639 8.49439 9.62125 8.53413 9.63207 8.5939C9.64306 8.65368 9.60332 8.71103 9.54355 8.72185C9.48377 8.73267 9.42642 8.69309 9.4156 8.63332Z" fill="#333333"/>
<path d="M9.08472 9.20194L11.0238 8.99758L11.0317 9.09434L9.08859 9.25024L9.08472 9.20194Z" fill="black"/>
<path d="M13.7124 8.87985L11.0703 9.0918L11.211 8.98324L13.7047 8.78307L13.7124 8.87985Z" fill="black"/>
<path d="M9.19951 9.26562L13.8138 8.89681L13.8096 8.84511L9.08691 9.22427L9.19951 9.26562Z" fill="#333333"/>
<path d="M13.6997 8.8557C13.6937 8.78171 13.7489 8.7171 13.8228 8.71112C13.8967 8.70514 13.9614 8.76039 13.9673 8.83422C13.9733 8.90821 13.9181 8.97283 13.8442 8.9788C13.7704 8.98478 13.7056 8.92969 13.6997 8.8557Z" fill="black"/>
<path d="M13.7013 8.87979C13.6964 8.81921 13.7415 8.76622 13.8021 8.76122C13.8627 8.75637 13.9157 8.8016 13.9205 8.86218C13.9254 8.92277 13.8803 8.97575 13.8197 8.9806C13.7591 8.98545 13.7061 8.94037 13.7013 8.87979Z" fill="#333333"/>
<path opacity="0.5" d="M3.34756 13.751C3.23125 13.751 3.1277 13.6804 3.08359 13.5712L2.60751 9.40546C2.58408 9.34746 2.60073 9.29819 2.61284 9.27396C2.62674 9.24617 2.6542 9.21047 2.70654 9.19642C5.07047 8.5654 7.45864 8.24537 9.8048 8.24537C12.9083 8.24537 15.1603 8.80062 16.2263 9.13147C16.2839 9.14924 16.3103 9.19092 16.321 9.21418C16.3318 9.23825 16.3465 9.28656 16.3218 9.34375L15.7075 13.5392C15.6622 13.6432 15.5601 13.7108 15.4474 13.7108C15.4275 13.7108 15.4075 13.7085 15.3876 13.7045C14.227 13.4576 11.6343 13.3327 10.0589 13.3327C7.77026 13.3327 4.44738 13.593 3.38908 13.7479C3.37519 13.7498 3.3613 13.751 3.34756 13.751Z" fill="url(#paint16_radial_506_9736)"/>
<path opacity="0.3" d="M3.34756 13.751C3.23125 13.751 3.1277 13.6804 3.08359 13.5712L2.60751 9.40546C2.58408 9.34746 2.60073 9.29819 2.61284 9.27396C2.62674 9.24617 2.6542 9.21047 2.70654 9.19642C5.07047 8.5654 7.45864 8.24537 9.8048 8.24537C12.9083 8.24537 15.1603 8.80062 16.2263 9.13147C16.2839 9.14924 16.3103 9.19092 16.321 9.21418C16.3318 9.23825 16.3465 9.28656 16.3218 9.34375L15.7075 13.5392C15.6622 13.6432 15.5601 13.7108 15.4474 13.7108C15.4275 13.7108 15.4075 13.7085 15.3876 13.7045C14.227 13.4576 11.6343 13.3327 10.0589 13.3327C7.77026 13.3327 4.44738 13.593 3.38908 13.7479C3.37519 13.7498 3.3613 13.751 3.34756 13.751Z" fill="url(#paint17_radial_506_9736)"/>
<path d="M2.15299 16.958C2.15977 16.958 2.16672 16.9569 2.17367 16.9551L2.84522 16.958C2.91453 16.9375 2.96687 16.8142 2.96687 16.6714L2.96687 14.7319C2.96687 14.6929 2.96315 14.655 2.95572 14.6191L2.23409 9.24079C2.22132 9.17892 2.19305 9.14047 2.16026 9.14047C2.11502 9.14047 2.07948 9.21252 2.07948 9.30461L2.01099 16.6685C2.01099 16.7465 2.02585 16.8194 2.05315 16.8742C2.07997 16.9284 2.11551 16.958 2.15299 16.958Z" fill="#F4F4F4"/>
<path opacity="0.5" d="M2.15299 16.958C2.15977 16.958 2.16672 16.9569 2.17367 16.9551L2.84522 16.958C2.91453 16.9375 2.96687 16.8142 2.96687 16.6714L2.96687 14.7319C2.96687 14.6929 2.96315 14.655 2.95572 14.6191L2.23409 9.24079C2.22132 9.17892 2.19305 9.14047 2.16026 9.14047C2.11502 9.14047 2.07948 9.21252 2.07948 9.30461L2.01099 16.6685C2.01099 16.7465 2.02585 16.8194 2.05315 16.8742C2.07997 16.9284 2.11551 16.958 2.15299 16.958Z" fill="url(#paint18_linear_506_9736)"/>
<path d="M2.18481 9.28289L2.90644 14.6613C2.91112 14.6836 2.91338 14.7076 2.91338 14.7318L2.91338 16.6712C2.91338 16.7612 2.88091 16.8374 2.83729 16.8503L2.16574 16.8474C2.11211 16.8634 2.06396 16.7786 2.06396 16.6683L2.13246 9.30437C2.13262 9.24411 2.17334 9.22748 2.18481 9.28289Z" fill="black"/>
<path d="M2.15839 16.7403L2.82994 16.7432C2.84739 16.7382 2.86048 16.7073 2.86048 16.6714L2.86048 14.7319C2.86048 14.7222 2.8595 14.7128 2.85773 14.7039L2.18617 9.56698L2.11768 16.6685C2.11768 16.6881 2.12139 16.7063 2.12818 16.7201C2.13496 16.7336 2.14385 16.7411 2.15322 16.7411L2.15839 16.7403Z" fill="#676B86"/>
<path opacity="0.2" d="M2.37946 16.6742L2.1583 16.7399L2.15297 16.7407C2.1436 16.7407 2.13471 16.7333 2.12793 16.7197C2.12114 16.706 2.11743 16.6877 2.11743 16.6682L2.18592 9.56664L2.30095 12.0206L2.37946 16.6742Z" fill="black"/>
<path opacity="0.5" d="M2.15839 16.7403L2.82994 16.7432C2.84739 16.7382 2.86048 16.7073 2.86048 16.6714L2.86048 14.7319C2.86048 14.7222 2.8595 14.7128 2.85773 14.7039L2.18617 9.56698L2.11768 16.6685C2.11768 16.6881 2.12139 16.7063 2.12818 16.7201C2.13496 16.7336 2.14385 16.7411 2.15322 16.7411L2.15839 16.7403Z" fill="url(#paint19_linear_506_9736)"/>
<path opacity="0.3" d="M2.15839 16.7403L2.82994 16.7432C2.84739 16.7382 2.86048 16.7073 2.86048 16.6714L2.86048 14.7319C2.86048 14.7222 2.8595 14.7128 2.85773 14.7039L2.18617 9.56698L2.11768 16.6685C2.11768 16.6881 2.12139 16.7063 2.12818 16.7201C2.13496 16.7336 2.14385 16.7411 2.15322 16.7411L2.15839 16.7403Z" fill="url(#paint20_linear_506_9736)"/>
<path d="M16.8178 16.9573C16.811 16.9573 16.804 16.9561 16.7971 16.9544L16.1256 16.9573C16.0562 16.9368 16.0039 16.8135 16.0039 16.6707L16.0039 14.7311C16.0039 14.6922 16.0076 14.6542 16.0152 14.6184L16.7368 9.24006C16.7498 9.17819 16.7779 9.13974 16.8107 9.13974C16.8559 9.13974 16.8914 9.21179 16.8914 9.30387L16.9599 16.6678C16.9599 16.7458 16.9451 16.8187 16.9179 16.8734C16.8908 16.9277 16.8553 16.9573 16.8178 16.9573Z" fill="#F4F4F4"/>
<path opacity="0.5" d="M16.8178 16.9573C16.811 16.9573 16.804 16.9561 16.7971 16.9544L16.1256 16.9573C16.0562 16.9368 16.0039 16.8135 16.0039 16.6707L16.0039 14.7311C16.0039 14.6922 16.0076 14.6542 16.0152 14.6184L16.7368 9.24006C16.7498 9.17819 16.7779 9.13974 16.8107 9.13974C16.8559 9.13974 16.8914 9.21179 16.8914 9.30387L16.9599 16.6678C16.9599 16.7458 16.9451 16.8187 16.9179 16.8734C16.8908 16.9277 16.8553 16.9573 16.8178 16.9573Z" fill="url(#paint21_linear_506_9736)"/>
<path d="M16.786 9.28215L16.0643 14.6606C16.0596 14.6829 16.0574 14.7068 16.0574 14.7311L16.0574 16.6704C16.0574 16.7604 16.0897 16.8367 16.1335 16.8496L16.805 16.8467C16.8587 16.8627 16.9068 16.7779 16.9068 16.6675L16.8383 9.30364C16.8381 9.24338 16.7976 9.22674 16.786 9.28215Z" fill="black"/>
<path d="M16.8124 16.7395L16.1409 16.7424C16.1234 16.7374 16.1104 16.7066 16.1104 16.6707L16.1104 14.7311C16.1104 14.7215 16.1113 14.7121 16.1131 14.7032L16.7847 9.56625L16.8531 16.6678C16.8531 16.6873 16.8494 16.7056 16.8426 16.7193C16.8359 16.7329 16.827 16.7403 16.8176 16.7403L16.8124 16.7395Z" fill="#676B86"/>
<path opacity="0.2" d="M16.5916 16.6739L16.8127 16.7397L16.818 16.7405C16.8274 16.7405 16.8363 16.733 16.8431 16.7195C16.8499 16.7057 16.8536 16.6875 16.8536 16.6679L16.7851 9.56639L16.6701 12.0203L16.5916 16.6739Z" fill="black"/>
<path opacity="0.5" d="M16.8124 16.7395L16.1409 16.7424C16.1234 16.7374 16.1104 16.7066 16.1104 16.6707L16.1104 14.7311C16.1104 14.7215 16.1113 14.7121 16.1131 14.7032L16.7847 9.56625L16.8531 16.6678C16.8531 16.6873 16.8494 16.7056 16.8426 16.7193C16.8359 16.7329 16.827 16.7403 16.8176 16.7403L16.8124 16.7395Z" fill="url(#paint22_linear_506_9736)"/>
<path opacity="0.3" d="M16.8124 16.7395L16.1409 16.7424C16.1234 16.7374 16.1104 16.7066 16.1104 16.6707L16.1104 14.7311C16.1104 14.7215 16.1113 14.7121 16.1131 14.7032L16.7847 9.56625L16.8531 16.6678C16.8531 16.6873 16.8494 16.7056 16.8426 16.7193C16.8359 16.7329 16.827 16.7403 16.8176 16.7403L16.8124 16.7395Z" fill="url(#paint23_linear_506_9736)"/>
<path d="M2.1602 10.0916L0.528076 10.7207L0.528076 10.4162C0.528076 10.2729 0.61628 10.1443 0.750042 10.0928L2.1602 9.54915L2.1602 10.0916Z" fill="#999999"/>
<path opacity="0.4" d="M2.1602 10.1292L0.528076 10.7583L0.528076 10.4538C0.528076 10.3105 0.61628 10.1819 0.750042 10.1302L2.1602 9.58658L2.1602 10.1292Z" fill="url(#paint24_linear_506_9736)"/>
<path d="M1.69292 10.5182L0.662728 10.8537C0.596332 10.8754 0.52832 10.826 0.52832 10.7562L0.52832 10.3815L1.764 9.97912L1.764 10.4205C1.76384 10.4649 1.73508 10.5043 1.69292 10.5182Z" fill="#666666"/>
<path opacity="0.3" d="M1.69292 10.5182L0.662728 10.8537C0.596332 10.8754 0.52832 10.826 0.52832 10.7562L0.52832 10.3815L1.764 9.97912L1.764 10.4205C1.76384 10.4649 1.73508 10.5043 1.69292 10.5182Z" fill="url(#paint25_linear_506_9736)"/>
<path d="M16.8259 10.0914L18.458 10.7205L18.458 10.4159C18.458 10.2726 18.3698 10.1441 18.2361 10.0925L16.8259 9.54891L16.8259 10.0914Z" fill="#999999"/>
<path opacity="0.4" d="M16.8259 10.129L18.458 10.7581L18.458 10.4535C18.458 10.3102 18.3698 10.1816 18.2361 10.13L16.8259 9.58634L16.8259 10.129Z" fill="url(#paint26_linear_506_9736)"/>
<path d="M17.2933 10.518L18.3235 10.8535C18.3899 10.8752 18.4581 10.8257 18.4581 10.7559L18.4581 10.3813L17.2224 9.97887L17.2224 10.4202C17.2226 10.4647 17.2512 10.5041 17.2933 10.518Z" fill="#666666"/>
<path opacity="0.3" d="M17.2933 10.518L18.3235 10.8535C18.3899 10.8752 18.4581 10.8257 18.4581 10.7559L18.4581 10.3813L17.2224 9.97887L17.2224 10.4202C17.2226 10.4647 17.2512 10.5041 17.2933 10.518Z" fill="url(#paint27_linear_506_9736)"/>
<path opacity="0.7" d="M13.608 16.655L4.83838 16.655L5.16099 15.5768L13.9306 15.5768L13.608 16.655Z" fill="url(#paint28_linear_506_9736)"/>
<path d="M13.7648 16.3896L5.16556 16.3896C4.9045 16.3896 4.69287 16.178 4.69287 15.917L4.69287 15.4142C4.69287 15.1532 4.9045 14.9415 5.16556 14.9415L13.7648 14.9415C14.0258 14.9415 14.2375 15.1531 14.2375 15.4142L14.2375 15.917C14.2375 16.178 14.0258 16.3896 13.7648 16.3896Z" fill="#999999"/>
<path d="M13.7647 14.9417L10.5266 14.9417L10.5266 16.3896L13.7647 16.3896C14.0257 16.3896 14.2374 16.178 14.2374 15.917L14.2374 15.4142C14.2374 15.1533 14.0257 14.9417 13.7647 14.9417Z" fill="#5D94FF"/>
<path opacity="0.5" d="M10.8716 16.0452L10.8716 15.2862L13.7651 15.2862C13.8355 15.2862 13.893 15.3437 13.893 15.4145L13.893 15.9169C13.893 15.9877 13.8357 16.0452 13.7651 16.0452L10.8716 16.0452Z" fill="#5384E4"/>
<path d="M5.16556 14.9417L8.40363 14.9417L8.40363 16.3896L5.16556 16.3896C4.9045 16.3896 4.69287 16.178 4.69287 15.917L4.69287 15.4142C4.69287 15.1533 4.9045 14.9417 5.16556 14.9417Z" fill="#CC0000"/>
<path opacity="0.3" d="M5.16546 16.0452C5.09486 16.0452 5.03735 15.9877 5.03735 15.9169L5.03735 15.4145C5.03735 15.3437 5.0947 15.2862 5.16546 15.2862L8.05895 15.2862L8.05895 16.0452L5.16546 16.0452Z" fill="#660000"/>
<path opacity="0.5" d="M13.7648 16.3896L5.16556 16.3896C4.9045 16.3896 4.69287 16.178 4.69287 15.917L4.69287 15.4142C4.69287 15.1532 4.9045 14.9415 5.16556 14.9415L13.7648 14.9415C14.0258 14.9415 14.2375 15.1531 14.2375 15.4142L14.2375 15.917C14.2375 16.178 14.0258 16.3896 13.7648 16.3896Z" fill="url(#paint29_radial_506_9736)"/>
<path opacity="0.5" d="M13.7648 16.3896L5.16556 16.3896C4.9045 16.3896 4.69287 16.178 4.69287 15.917L4.69287 15.4142C4.69287 15.1532 4.9045 14.9415 5.16556 14.9415L13.7648 14.9415C14.0258 14.9415 14.2375 15.1531 14.2375 15.4142L14.2375 15.917C14.2375 16.178 14.0258 16.3896 13.7648 16.3896Z" fill="url(#paint30_linear_506_9736)"/>
<path d="M13.5912 15.0614L5.33921 15.0614C5.08865 15.0614 4.88574 15.247 4.88574 15.4759L4.88574 15.6648C4.88574 15.4359 5.08881 15.2503 5.33921 15.2503L13.5912 15.2503C13.8416 15.2503 14.0447 15.4359 14.0447 15.6648L14.0447 15.4759C14.0447 15.247 13.8416 15.0614 13.5912 15.0614Z" fill="url(#paint31_linear_506_9736)"/>
<path d="M13.5912 16.269L5.33921 16.269C5.08865 16.269 4.88574 16.0834 4.88574 15.8545L4.88574 15.6657C4.88574 15.8946 5.08881 16.0802 5.33921 16.0802L13.5912 16.0802C13.8416 16.0802 14.0447 15.8946 14.0447 15.6657L14.0447 15.8545C14.0447 16.0836 13.8416 16.269 13.5912 16.269Z" fill="url(#paint32_linear_506_9736)"/>
<path opacity="0.4" d="M4.90259 15.0222L5.02165 15.164C5.06236 15.2123 5.08756 15.3049 5.08772 15.4054L5.08821 15.9251C5.08837 16.0259 5.06301 16.1189 5.02214 16.1674L4.90259 16.3097C4.93522 16.3315 4.97141 16.3478 5.00905 16.3611L5.08982 16.265C5.13263 16.2139 5.15929 16.1163 5.15913 16.0104L5.15865 15.3233C5.15848 15.2181 5.13215 15.1212 5.08966 15.0703L5.00711 14.9713C4.97028 14.9844 4.93457 15.0005 4.90259 15.0222Z" fill="white"/>
<path opacity="0.4" d="M14.0212 15.0222L13.9021 15.164C13.8614 15.2123 13.8362 15.3049 13.8361 15.4054L13.8356 15.9251C13.8356 16.0259 13.8608 16.1189 13.9016 16.1674L14.0212 16.3097C13.9886 16.3315 13.9524 16.3478 13.9147 16.3611L13.834 16.265C13.7911 16.2139 13.7645 16.1163 13.7646 16.0104L13.7653 15.3233C13.7653 15.2181 13.7918 15.1212 13.8343 15.0703L13.9168 14.9713C13.9537 14.9844 13.9892 15.0005 14.0212 15.0222Z" fill="white"/>
<path opacity="0.4" d="M5.38232 15.6311L5.38232 15.7007L13.5483 15.7007L13.5483 15.6311L5.38232 15.6311Z" fill="black"/>
<path d="M17.667 41.3826L1.26345 41.3826C1.06717 41.3826 0.908203 41.2234 0.908203 41.0272L0.908202 17.6077C0.908202 17.4114 1.06733 17.2523 1.26345 17.2523L17.667 17.2523C17.8633 17.2523 18.0225 17.4114 18.0225 17.6077L18.0225 41.0272C18.0225 41.2234 17.8633 41.3826 17.667 41.3826Z" fill="#CC3300"/>
<path d="M1.2633 41.1421C1.2003 41.1421 1.14893 41.0907 1.14893 41.0279L1.14892 17.6084C1.14892 17.5455 1.2003 17.4942 1.2633 17.4942L17.6667 17.4942C17.7297 17.4942 17.781 17.5455 17.781 17.6084L17.781 41.0279C17.781 41.0907 17.7296 41.1421 17.6667 41.1421L1.2633 41.1421Z" fill="#F5F7EA"/>
<path d="M1.2633 41.1421C1.2003 41.1421 1.14893 41.0907 1.14893 41.0279L1.14892 17.6084C1.14892 17.5455 1.2003 17.4942 1.2633 17.4942L17.6667 17.4942C17.7297 17.4942 17.781 17.5455 17.781 17.6084L17.781 41.0279C17.781 41.0907 17.7296 41.1421 17.6667 41.1421L1.2633 41.1421Z" fill="url(#paint33_radial_506_9736)"/>
<path opacity="0.2" d="M1.2633 41.1421C1.2003 41.1421 1.14893 41.0907 1.14893 41.0279L1.14892 17.6084C1.14892 17.5455 1.2003 17.4942 1.2633 17.4942L17.6667 17.4942C17.7297 17.4942 17.781 17.5455 17.781 17.6084L17.781 41.0279C17.781 41.0907 17.7296 41.1421 17.6667 41.1421L1.2633 41.1421Z" fill="url(#paint34_radial_506_9736)"/>
<path d="M3.53468 41.5039L3.53468 41.3826L1.8772 41.3826L1.8772 41.5039C1.8772 41.6399 1.98753 41.7502 2.12372 41.7502L3.28832 41.7502C3.42434 41.7502 3.53468 41.6399 3.53468 41.5039Z" fill="#EF0C0C"/>
<path opacity="0.4" d="M3.34786 41.424L2.06372 41.424C2.06372 41.5814 2.19134 41.709 2.34869 41.709L3.0629 41.709C3.22024 41.709 3.34786 41.5814 3.34786 41.424Z" fill="#660000"/>
<path d="M1.97876 41.4059L1.98668 41.4059C2.0185 41.5507 2.14709 41.6591 2.30137 41.6591L3.10992 41.6591C3.2642 41.6591 3.39279 41.5507 3.42462 41.4059L3.43254 41.4059C3.43254 41.5841 3.28811 41.7285 3.10992 41.7285L2.30137 41.7285C2.12319 41.7285 1.97876 41.5841 1.97876 41.4059Z" fill="url(#paint35_linear_506_9736)"/>
<path opacity="0.6" d="M2.986 41.5614C2.83237 41.5624 2.67857 41.5634 2.52494 41.5645C2.45677 41.565 2.38246 41.5713 2.31509 41.5579C2.28779 41.5524 2.23448 41.5417 2.23318 41.5057C2.23189 41.4703 2.27422 41.4648 2.30087 41.4647C2.37696 41.4647 3.24383 41.4592 3.24383 41.4736C3.24351 41.5065 3.21717 41.5348 3.18664 41.5475C3.15611 41.5603 3.12218 41.5606 3.08923 41.561C3.05482 41.561 3.02041 41.5613 2.986 41.5614Z" fill="url(#paint36_linear_506_9736)"/>
<path d="M16.7146 41.5039L16.7146 41.3826L15.0571 41.3826L15.0571 41.5039C15.0571 41.6399 15.1675 41.7502 15.3035 41.7502L16.4681 41.7502C16.6041 41.7502 16.7146 41.6399 16.7146 41.5039Z" fill="#EF0C0C"/>
<path opacity="0.4" d="M16.5279 41.424L15.2439 41.424C15.2439 41.5814 15.3715 41.709 15.5289 41.709L16.2431 41.709C16.4003 41.709 16.5279 41.5814 16.5279 41.424Z" fill="#660000"/>
<path d="M15.1592 41.4054L15.1671 41.4054C15.1989 41.5502 15.3275 41.6586 15.4818 41.6586L16.2903 41.6586C16.4446 41.6586 16.5732 41.5502 16.605 41.4054L16.613 41.4054C16.613 41.5836 16.4685 41.728 16.2903 41.728L15.4818 41.728C15.3036 41.728 15.1592 41.5836 15.1592 41.4054Z" fill="url(#paint37_linear_506_9736)"/>
<path opacity="0.6" d="M16.1659 41.5614C16.0123 41.5624 15.8585 41.5634 15.7049 41.5645C15.6367 41.565 15.5624 41.5713 15.495 41.5579C15.4677 41.5524 15.4144 41.5417 15.4131 41.5057C15.4118 41.4703 15.4541 41.4648 15.4808 41.4647C15.5569 41.4647 16.4238 41.4592 16.4238 41.4736C16.4234 41.5065 16.3971 41.5348 16.3666 41.5475C16.336 41.5603 16.3021 41.5606 16.2692 41.561C16.2346 41.561 16.2002 41.5613 16.1659 41.5614Z" fill="url(#paint38_linear_506_9736)"/>
<path d="M8.83382 32.0567L8.83382 33.338C8.83382 33.3974 8.78568 33.4457 8.72623 33.4457L7.44499 33.4457C7.38554 33.4457 7.3374 33.4939 7.3374 33.5533L7.3374 34.6446C7.3374 34.704 7.38554 34.7523 7.44499 34.7523L8.72623 34.7523C8.78568 34.7523 8.83382 34.8005 8.83382 34.8599L8.83382 36.1412C8.83382 36.2006 8.88196 36.2488 8.94157 36.2488L10.0328 36.2488C10.0923 36.2488 10.1404 36.2006 10.1404 36.1412L10.1404 34.8599C10.1404 34.8005 10.1886 34.7523 10.2482 34.7523L11.5293 34.7523C11.5887 34.7523 11.6368 34.7042 11.6368 34.6446L11.6368 33.5533C11.6368 33.4939 11.5887 33.4457 11.5293 33.4457L10.2482 33.4457C10.1887 33.4457 10.1404 33.3976 10.1404 33.338L10.1404 32.0567C10.1404 31.9973 10.0923 31.9491 10.0328 31.9491L8.94157 31.9491C8.88196 31.9491 8.83382 31.9973 8.83382 32.0567Z" fill="#CC3300"/>
<path d="M14.6504 41.3826L3.90942 41.3826L3.90942 41.7052L14.6504 41.7052L14.6504 41.3826Z" fill="#F5F7EA"/>
<path opacity="0.5" d="M14.6502 41.7051L3.90918 41.7051L3.90918 41.3825L14.6502 41.3825L14.6502 41.7051Z" fill="url(#paint39_linear_506_9736)"/>
<path opacity="0.5" d="M9.32244 41.3826L9.2373 41.3826L9.2373 41.7052L9.32244 41.7052L9.32244 41.3826Z" fill="#666666"/>
<path d="M8.95832 41.5932L4.15017 41.5932C4.09185 41.5932 4.04468 41.6404 4.04468 41.6987L4.04468 41.7048L9.06382 41.7048L9.06382 41.6987C9.06382 41.6404 9.01664 41.5932 8.95832 41.5932Z" fill="#AAD5F9"/>
<path d="M8.95832 41.5932L4.15017 41.5932C4.09185 41.5932 4.04468 41.6404 4.04468 41.6987L4.04468 41.7048L4.05873 41.7048C4.07667 41.672 4.1101 41.6489 4.15017 41.6489L8.95832 41.6489C8.99823 41.6489 9.03183 41.672 9.04976 41.7048L9.06382 41.7048L9.06382 41.6987C9.06382 41.6404 9.01664 41.5932 8.95832 41.5932Z" fill="white"/>
<path d="M14.4158 41.5934L9.60769 41.5934C9.54937 41.5934 9.5022 41.6406 9.5022 41.6989L9.5022 41.7051L14.5213 41.7051L14.5213 41.6989C14.5212 41.6406 14.474 41.5934 14.4158 41.5934Z" fill="#AAD5F9"/>
<path d="M14.4158 41.5934L9.60769 41.5934C9.54937 41.5934 9.5022 41.6406 9.5022 41.6989L9.5022 41.7051L9.51625 41.7051C9.53418 41.6723 9.56763 41.6492 9.60769 41.6492L14.4158 41.6492C14.4558 41.6492 14.4894 41.6723 14.5073 41.7051L14.5213 41.7051L14.5213 41.6989C14.5212 41.6406 14.474 41.5934 14.4158 41.5934Z" fill="white"/>
<path d="M18.0222 17.4939L18.0222 11.5843C18.0222 11.4098 17.9529 11.2426 17.8297 11.1192L17.2534 10.5429L17.2534 17.4939L18.0222 17.4939Z" fill="#CCCCCC"/>
<path d="M17.9012 17.3728L17.3733 17.3728L17.3733 10.8333L17.7439 11.2037C17.8453 11.3052 17.9012 11.4401 17.9012 11.5835L17.9012 17.3728Z" fill="url(#paint40_linear_506_9736)"/>
<path opacity="0.5" d="M18.0222 17.4939L18.0222 11.5843C18.0222 11.4098 17.9529 11.2426 17.8297 11.1192L17.2534 10.5429L17.2534 17.4939L18.0222 17.4939Z" fill="url(#paint41_linear_506_9736)"/>
<path opacity="0.4" d="M18.0222 17.4939L18.0222 11.5843C18.0222 11.4098 17.9529 11.2426 17.8297 11.1192L17.2534 10.5429L17.2534 17.4939L18.0222 17.4939Z" fill="url(#paint42_linear_506_9736)"/>
<mask id="mask1_506_9736" style="mask-type:luminance" maskUnits="userSpaceOnUse" x="17" y="10" width="1" height="8">
<path d="M17.9015 17.3726L17.3735 17.3726L17.3735 10.833L17.7441 11.2035C17.8456 11.3049 17.9015 11.4398 17.9015 11.5833L17.9015 17.3726Z" fill="white"/>
</mask>
<g mask="url(#mask1_506_9736)">
<path d="M17.4931 17.3215C17.5388 17.296 17.585 17.2915 17.585 17.2915C17.585 17.2915 17.5571 17.3285 17.5114 17.354C17.4656 17.3795 17.4194 17.384 17.4194 17.384C17.4194 17.384 17.4474 17.347 17.4931 17.3215Z" fill="#999999"/>
<path d="M17.8548 17.1125C17.9006 17.087 17.9466 17.0825 17.9466 17.0825C17.9466 17.0825 17.9186 17.1195 17.8729 17.145C17.8272 17.1705 17.781 17.175 17.781 17.175C17.781 17.175 17.8091 17.1381 17.8548 17.1125Z" fill="#999999"/>
<path d="M17.668 17.2416C17.6425 17.1959 17.6379 17.1498 17.6379 17.1498C17.6379 17.1498 17.6749 17.1778 17.7005 17.2235C17.726 17.2692 17.7305 17.3154 17.7305 17.3154C17.7305 17.3154 17.6935 17.2873 17.668 17.2416Z" fill="#999999"/>
<path d="M17.4407 17.1143C17.4152 17.0686 17.4106 17.0224 17.4106 17.0224C17.4106 17.0224 17.4476 17.0503 17.4732 17.0961C17.4987 17.1418 17.5032 17.188 17.5032 17.188C17.5032 17.188 17.4662 17.16 17.4407 17.1143Z" fill="#999999"/>
<path d="M17.8023 16.9064C17.7768 16.8607 17.7725 16.8146 17.7725 16.8146C17.7725 16.8146 17.8095 16.8426 17.835 16.8883C17.8605 16.934 17.8649 16.9802 17.8649 16.9802C17.8649 16.9802 17.8279 16.9521 17.8023 16.9064Z" fill="#999999"/>
<path d="M17.6483 17.0161C17.6026 17.0416 17.5564 17.0461 17.5564 17.0461C17.5564 17.0461 17.5843 17.0091 17.6301 16.9836C17.6758 16.9581 17.7218 16.9536 17.7218 16.9536C17.7218 16.9536 17.6939 16.9906 17.6483 17.0161Z" fill="#999999"/>
<path d="M17.3696 16.8347C17.4153 16.8092 17.4615 16.8048 17.4615 16.8048C17.4615 16.8048 17.4335 16.8418 17.3878 16.8673C17.3421 16.8929 17.2959 16.8972 17.2959 16.8972C17.2959 16.8972 17.3238 16.8602 17.3696 16.8347Z" fill="#999999"/>
<path d="M17.7314 16.6264C17.7771 16.6009 17.8233 16.5966 17.8233 16.5966C17.8233 16.5966 17.7954 16.6336 17.7496 16.6591C17.7039 16.6846 17.6577 16.689 17.6577 16.689C17.6577 16.689 17.6857 16.652 17.7314 16.6264Z" fill="#999999"/>
<path d="M17.544 16.7544C17.5184 16.7087 17.5139 16.6625 17.5139 16.6625C17.5139 16.6625 17.5509 16.6904 17.5764 16.7361C17.602 16.7818 17.6065 16.8279 17.6065 16.8279C17.6065 16.8279 17.5695 16.8001 17.544 16.7544Z" fill="#999999"/>
<path d="M17.3172 16.6273C17.2916 16.5815 17.2871 16.5353 17.2871 16.5353C17.2871 16.5353 17.3241 16.5633 17.3496 16.609C17.3752 16.6547 17.3797 16.7009 17.3797 16.7009C17.3797 16.7009 17.3427 16.673 17.3172 16.6273Z" fill="#999999"/>
<path d="M17.679 16.4192C17.6534 16.3734 17.6489 16.3272 17.6489 16.3272C17.6489 16.3272 17.6859 16.3552 17.7114 16.4009C17.737 16.4466 17.7413 16.4927 17.7413 16.4927C17.7413 16.4927 17.7045 16.4649 17.679 16.4192Z" fill="#999999"/>
<path d="M17.5245 16.5292C17.4788 16.5547 17.4326 16.5591 17.4326 16.5591C17.4326 16.5591 17.4606 16.5221 17.5063 16.4966C17.552 16.471 17.5982 16.4667 17.5982 16.4667C17.5982 16.4667 17.5703 16.5037 17.5245 16.5292Z" fill="#999999"/>
<path d="M17.8732 16.3435C17.8275 16.369 17.7812 16.3735 17.7812 16.3735C17.7812 16.3735 17.8092 16.3365 17.8549 16.311C17.9006 16.2855 17.9467 16.281 17.9467 16.281C17.9467 16.281 17.9189 16.318 17.8732 16.3435Z" fill="#999999"/>
<path d="M17.4061 16.3021C17.3806 16.2564 17.3762 16.2104 17.3762 16.2104C17.3762 16.2104 17.4132 16.2383 17.4387 16.2841C17.4643 16.3298 17.4688 16.376 17.4688 16.376C17.4688 16.376 17.4318 16.3479 17.4061 16.3021Z" fill="#999999"/>
<path d="M17.7679 16.0943C17.7424 16.0486 17.738 16.0024 17.738 16.0024C17.738 16.0024 17.775 16.0303 17.8006 16.076C17.8261 16.1218 17.8304 16.168 17.8304 16.168C17.8304 16.168 17.7935 16.14 17.7679 16.0943Z" fill="#999999"/>
<path d="M17.6127 16.2042C17.567 16.2298 17.5208 16.2341 17.5208 16.2341C17.5208 16.2341 17.5487 16.1971 17.5944 16.1716C17.6401 16.1461 17.6863 16.1417 17.6863 16.1417C17.6863 16.1417 17.6584 16.1787 17.6127 16.2042Z" fill="#999999"/>
<path d="M17.3358 16.0226C17.3815 15.9971 17.4275 15.9926 17.4275 15.9926C17.4275 15.9926 17.3996 16.0295 17.3539 16.0551C17.3082 16.0806 17.262 16.085 17.262 16.085C17.262 16.085 17.2901 16.0481 17.3358 16.0226Z" fill="#999999"/>
<path d="M17.6976 15.8147C17.7433 15.7892 17.7894 15.7846 17.7894 15.7846C17.7894 15.7846 17.7614 15.8216 17.7157 15.8471C17.67 15.8727 17.6238 15.8772 17.6238 15.8772C17.6238 15.8772 17.6519 15.8402 17.6976 15.8147Z" fill="#999999"/>
<path d="M17.5105 15.9427C17.485 15.897 17.4805 15.8508 17.4805 15.8508C17.4805 15.8508 17.5175 15.8787 17.543 15.9244C17.5685 15.9702 17.573 16.0164 17.573 16.0164C17.573 16.0164 17.536 15.9884 17.5105 15.9427Z" fill="#999999"/>
<path d="M17.6449 15.6072C17.6194 15.5615 17.615 15.5153 17.615 15.5153C17.615 15.5153 17.652 15.5433 17.6775 15.589C17.703 15.6347 17.7074 15.6809 17.7074 15.6809C17.7074 15.6809 17.6706 15.653 17.6449 15.6072Z" fill="#999999"/>
<path d="M17.4901 15.7168C17.4444 15.7423 17.3982 15.7468 17.3982 15.7468C17.3982 15.7468 17.4261 15.7098 17.4719 15.6843C17.5176 15.6588 17.5638 15.6543 17.5638 15.6543C17.5638 15.6543 17.5358 15.6913 17.4901 15.7168Z" fill="#999999"/>
<path d="M17.839 15.5315C17.7933 15.557 17.7471 15.5615 17.7471 15.5615C17.7471 15.5615 17.775 15.5245 17.8207 15.499C17.8665 15.4735 17.9127 15.4691 17.9127 15.4691C17.9127 15.4691 17.8847 15.506 17.839 15.5315Z" fill="#999999"/>
<path d="M17.4061 15.4879C17.3806 15.4421 17.3762 15.3959 17.3762 15.3959C17.3762 15.3959 17.4132 15.4239 17.4387 15.4696C17.4643 15.5153 17.4688 15.5615 17.4688 15.5615C17.4688 15.5615 17.4318 15.5336 17.4061 15.4879Z" fill="#999999"/>
<path d="M17.7679 15.2799C17.7424 15.2342 17.738 15.1882 17.738 15.1882C17.738 15.1882 17.775 15.2161 17.8006 15.2618C17.8261 15.3076 17.8304 15.3538 17.8304 15.3538C17.8304 15.3538 17.7935 15.3257 17.7679 15.2799Z" fill="#999999"/>
<path d="M17.6127 15.3898C17.567 15.4153 17.5208 15.4197 17.5208 15.4197C17.5208 15.4197 17.5487 15.3827 17.5944 15.3572C17.6401 15.3316 17.6863 15.3273 17.6863 15.3273C17.6863 15.3273 17.6584 15.3643 17.6127 15.3898Z" fill="#999999"/>
<path d="M17.3358 15.2081C17.3815 15.1825 17.4275 15.1782 17.4275 15.1782C17.4275 15.1782 17.3996 15.2152 17.3539 15.2407C17.3082 15.2662 17.262 15.2708 17.262 15.2708C17.262 15.2708 17.2901 15.2336 17.3358 15.2081Z" fill="#999999"/>
<path d="M17.6974 15C17.7431 14.9745 17.7891 14.9699 17.7891 14.9699C17.7891 14.9699 17.7612 15.0069 17.7155 15.0325C17.6697 15.058 17.6235 15.0625 17.6235 15.0625C17.6235 15.0625 17.6516 15.0255 17.6974 15Z" fill="#999999"/>
<path d="M17.5103 15.1282C17.4847 15.0825 17.4802 15.0363 17.4802 15.0363C17.4802 15.0363 17.5172 15.0643 17.5427 15.11C17.5683 15.1557 17.5728 15.2019 17.5728 15.2019C17.5728 15.2019 17.5358 15.174 17.5103 15.1282Z" fill="#999999"/>
<path d="M17.6446 14.7925C17.6191 14.7467 17.6147 14.7005 17.6147 14.7005C17.6147 14.7005 17.6517 14.7285 17.6773 14.7742C17.7028 14.8199 17.7072 14.866 17.7072 14.866C17.7072 14.866 17.6703 14.8382 17.6446 14.7925Z" fill="#999999"/>
<path d="M17.4901 14.9026C17.4444 14.9281 17.3982 14.9326 17.3982 14.9326C17.3982 14.9326 17.4261 14.8956 17.4719 14.8701C17.5176 14.8446 17.5638 14.84 17.5638 14.84C17.5638 14.84 17.5358 14.877 17.4901 14.9026Z" fill="#999999"/>
<path d="M17.8387 14.7172C17.793 14.7427 17.7468 14.7471 17.7468 14.7471C17.7468 14.7471 17.7748 14.7101 17.8205 14.6846C17.8662 14.659 17.9124 14.6547 17.9124 14.6547C17.9124 14.6547 17.8845 14.6917 17.8387 14.7172Z" fill="#999999"/>
<path d="M17.4061 14.6736C17.3806 14.6278 17.3762 14.5816 17.3762 14.5816C17.3762 14.5816 17.4132 14.6096 17.4387 14.6553C17.4643 14.701 17.4688 14.7471 17.4688 14.7471C17.4688 14.7471 17.4318 14.7193 17.4061 14.6736Z" fill="#999999"/>
<path d="M17.7679 14.4656C17.7424 14.4199 17.738 14.3737 17.738 14.3737C17.738 14.3737 17.775 14.4017 17.8006 14.4474C17.8261 14.4931 17.8304 14.5393 17.8304 14.5393C17.8304 14.5393 17.7935 14.5114 17.7679 14.4656Z" fill="#999999"/>
<path d="M17.6129 14.5749C17.5672 14.6005 17.521 14.605 17.521 14.605C17.521 14.605 17.5489 14.568 17.5947 14.5425C17.6404 14.5169 17.6866 14.5126 17.6866 14.5126C17.6866 14.5126 17.6586 14.5494 17.6129 14.5749Z" fill="#999999"/>
<path d="M17.336 14.394C17.3818 14.3685 17.4278 14.3641 17.4278 14.3641C17.4278 14.3641 17.3998 14.4011 17.3541 14.4267C17.3084 14.4522 17.2622 14.4565 17.2622 14.4565C17.2622 14.4565 17.2903 14.4195 17.336 14.394Z" fill="#999999"/>
<path d="M17.6978 14.1861C17.7436 14.1606 17.7896 14.1562 17.7896 14.1562C17.7896 14.1562 17.7617 14.1932 17.7159 14.2187C17.6702 14.2443 17.624 14.2488 17.624 14.2488C17.624 14.2488 17.6521 14.2116 17.6978 14.1861Z" fill="#999999"/>
<path d="M17.5108 14.3141C17.4852 14.2684 17.4807 14.2224 17.4807 14.2224C17.4807 14.2224 17.5177 14.2503 17.5432 14.296C17.5688 14.3417 17.5733 14.3879 17.5733 14.3879C17.5733 14.3879 17.5363 14.3598 17.5108 14.3141Z" fill="#999999"/>
<path d="M17.6446 13.9774C17.6191 13.9316 17.6147 13.8854 17.6147 13.8854C17.6147 13.8854 17.6517 13.9134 17.6773 13.9591C17.7028 14.0048 17.7072 14.051 17.7072 14.051C17.7072 14.051 17.6703 14.0231 17.6446 13.9774Z" fill="#999999"/>
<path d="M17.4901 14.0876C17.4444 14.1132 17.3982 14.1177 17.3982 14.1177C17.3982 14.1177 17.4261 14.0807 17.4719 14.0552C17.5176 14.0296 17.5638 14.0251 17.5638 14.0251C17.5638 14.0251 17.5358 14.0621 17.4901 14.0876Z" fill="#999999"/>
<path d="M17.8387 13.902C17.793 13.9275 17.7468 13.9319 17.7468 13.9319C17.7468 13.9319 17.7748 13.8949 17.8205 13.8694C17.8662 13.8438 17.9124 13.8395 17.9124 13.8395C17.9124 13.8395 17.8845 13.8763 17.8387 13.902Z" fill="#999999"/>
<path d="M17.4061 13.8587C17.3806 13.813 17.3762 13.7668 17.3762 13.7668C17.3762 13.7668 17.4132 13.7947 17.4387 13.8405C17.4643 13.8862 17.4688 13.9324 17.4688 13.9324C17.4688 13.9324 17.4318 13.9044 17.4061 13.8587Z" fill="#999999"/>
<path d="M17.7679 13.6509C17.7424 13.6051 17.738 13.5589 17.738 13.5589C17.738 13.5589 17.775 13.5869 17.8006 13.6326C17.8261 13.6783 17.8304 13.7244 17.8304 13.7244C17.8304 13.7244 17.7935 13.6966 17.7679 13.6509Z" fill="#999999"/>
<path d="M17.6127 13.7607C17.567 13.7862 17.5208 13.7908 17.5208 13.7908C17.5208 13.7908 17.5487 13.7538 17.5944 13.7283C17.6401 13.7027 17.6863 13.6984 17.6863 13.6984C17.6863 13.6984 17.6584 13.7352 17.6127 13.7607Z" fill="#999999"/>
<path d="M17.336 13.5793C17.3818 13.5538 17.4278 13.5494 17.4278 13.5494C17.4278 13.5494 17.3998 13.5864 17.3541 13.612C17.3084 13.6375 17.2622 13.6418 17.2622 13.6418C17.2622 13.6418 17.2903 13.6049 17.336 13.5793Z" fill="#999999"/>
<path d="M17.6978 13.3721C17.7436 13.3465 17.7896 13.3422 17.7896 13.3422C17.7896 13.3422 17.7617 13.3792 17.7159 13.4047C17.6702 13.4302 17.624 13.4346 17.624 13.4346C17.624 13.4346 17.6521 13.3976 17.6978 13.3721Z" fill="#999999"/>
<path d="M17.5108 13.4993C17.4852 13.4536 17.4807 13.4074 17.4807 13.4074C17.4807 13.4074 17.5177 13.4354 17.5432 13.4811C17.5688 13.5268 17.5733 13.573 17.5733 13.573C17.5733 13.573 17.5363 13.5451 17.5108 13.4993Z" fill="#999999"/>
<path d="M17.6451 13.1641C17.6196 13.1184 17.6152 13.0722 17.6152 13.0722C17.6152 13.0722 17.6522 13.1002 17.6778 13.1459C17.7033 13.1916 17.7076 13.2378 17.7076 13.2378C17.7076 13.2378 17.6708 13.2098 17.6451 13.1641Z" fill="#999999"/>
<path d="M17.4908 13.2748C17.4451 13.3003 17.3989 13.3047 17.3989 13.3047C17.3989 13.3047 17.4269 13.2677 17.4726 13.2422C17.5183 13.2166 17.5645 13.2123 17.5645 13.2123C17.5645 13.2123 17.5366 13.2493 17.4908 13.2748Z" fill="#999999"/>
<path d="M17.8392 13.0885C17.7935 13.114 17.7473 13.1184 17.7473 13.1184C17.7473 13.1184 17.7753 13.0814 17.821 13.0559C17.8667 13.0304 17.9129 13.026 17.9129 13.026C17.9129 13.026 17.885 13.0628 17.8392 13.0885Z" fill="#999999"/>
<path d="M17.4061 13.044C17.3806 12.9983 17.3762 12.9521 17.3762 12.9521C17.3762 12.9521 17.4132 12.98 17.4387 13.0258C17.4643 13.0715 17.4688 13.1177 17.4688 13.1177C17.4688 13.1177 17.4318 13.0897 17.4061 13.044Z" fill="#999999"/>
<path d="M17.7679 12.8358C17.7424 12.79 17.738 12.7438 17.738 12.7438C17.738 12.7438 17.775 12.7718 17.8006 12.8175C17.8261 12.8632 17.8304 12.9094 17.8304 12.9094C17.8304 12.9094 17.7935 12.8815 17.7679 12.8358Z" fill="#999999"/>
<path d="M17.6127 12.9458C17.567 12.9713 17.5208 12.9758 17.5208 12.9758C17.5208 12.9758 17.5487 12.9388 17.5944 12.9133C17.6401 12.8878 17.6863 12.8833 17.6863 12.8833C17.6863 12.8833 17.6584 12.9203 17.6127 12.9458Z" fill="#999999"/>
<path d="M17.3358 12.7648C17.3815 12.7393 17.4275 12.7347 17.4275 12.7347C17.4275 12.7347 17.3996 12.7717 17.3539 12.7973C17.3082 12.8228 17.262 12.8271 17.262 12.8271C17.262 12.8271 17.2901 12.7903 17.3358 12.7648Z" fill="#999999"/>
<path d="M17.6976 12.5569C17.7433 12.5313 17.7894 12.527 17.7894 12.527C17.7894 12.527 17.7614 12.564 17.7157 12.5895C17.67 12.615 17.6238 12.6194 17.6238 12.6194C17.6238 12.6194 17.6519 12.5824 17.6976 12.5569Z" fill="#999999"/>
<path d="M17.5105 12.6848C17.485 12.6391 17.4805 12.5929 17.4805 12.5929C17.4805 12.5929 17.5175 12.6208 17.543 12.6665C17.5685 12.7123 17.573 12.7583 17.573 12.7583C17.573 12.7583 17.536 12.7305 17.5105 12.6848Z" fill="#999999"/>
<path d="M17.6446 12.3485C17.6191 12.3027 17.6147 12.2565 17.6147 12.2565C17.6147 12.2565 17.6517 12.2845 17.6773 12.3302C17.7028 12.3759 17.7072 12.4221 17.7072 12.4221C17.7072 12.4221 17.6703 12.3942 17.6446 12.3485Z" fill="#999999"/>
<path d="M17.4904 12.4594C17.4446 12.4849 17.3984 12.4893 17.3984 12.4893C17.3984 12.4893 17.4264 12.4523 17.4721 12.4267C17.5178 12.4012 17.564 12.3967 17.564 12.3967C17.564 12.3967 17.5361 12.4338 17.4904 12.4594Z" fill="#999999"/>
<path d="M17.8387 12.2732C17.793 12.2987 17.7468 12.3032 17.7468 12.3032C17.7468 12.3032 17.7748 12.2662 17.8205 12.2407C17.8662 12.2152 17.9124 12.2107 17.9124 12.2107C17.9124 12.2107 17.8845 12.2476 17.8387 12.2732Z" fill="#999999"/>
<path d="M17.4061 12.2301C17.3806 12.1844 17.3762 12.1384 17.3762 12.1384C17.3762 12.1384 17.4132 12.1663 17.4387 12.212C17.4643 12.2578 17.4688 12.304 17.4688 12.304C17.4688 12.304 17.4318 12.2758 17.4061 12.2301Z" fill="#999999"/>
<path d="M17.7679 12.0223C17.7424 11.9766 17.738 11.9304 17.738 11.9304C17.738 11.9304 17.775 11.9583 17.8006 12.004C17.8261 12.0497 17.8304 12.0959 17.8304 12.0959C17.8304 12.0959 17.7935 12.0678 17.7679 12.0223Z" fill="#999999"/>
<path d="M17.6127 12.1323C17.567 12.1578 17.5208 12.1624 17.5208 12.1624C17.5208 12.1624 17.5487 12.1254 17.5944 12.0998C17.6401 12.0743 17.6863 12.0699 17.6863 12.0699C17.6863 12.0699 17.6584 12.1068 17.6127 12.1323Z" fill="#999999"/>
<path d="M17.336 11.9507C17.3818 11.9252 17.4278 11.9209 17.4278 11.9209C17.4278 11.9209 17.3998 11.9579 17.3541 11.9834C17.3084 12.0089 17.2622 12.0134 17.2622 12.0134C17.2622 12.0134 17.2903 11.9763 17.336 11.9507Z" fill="#999999"/>
<path d="M17.6978 11.7428C17.7436 11.7173 17.7896 11.7128 17.7896 11.7128C17.7896 11.7128 17.7617 11.7498 17.7159 11.7753C17.6702 11.8008 17.624 11.8052 17.624 11.8052C17.624 11.8052 17.6521 11.7683 17.6978 11.7428Z" fill="#999999"/>
<path d="M17.5108 11.8715C17.4852 11.8258 17.4807 11.7797 17.4807 11.7797C17.4807 11.7797 17.5177 11.8077 17.5432 11.8534C17.5688 11.8991 17.5733 11.9453 17.5733 11.9453C17.5733 11.9453 17.5363 11.9172 17.5108 11.8715Z" fill="#999999"/>
<path d="M17.6451 11.5353C17.6196 11.4896 17.6152 11.4435 17.6152 11.4435C17.6152 11.4435 17.6522 11.4715 17.6778 11.5172C17.7033 11.5629 17.7076 11.6091 17.7076 11.6091C17.7076 11.6091 17.6708 11.581 17.6451 11.5353Z" fill="#999999"/>
<path d="M17.4908 11.6454C17.4451 11.6709 17.3989 11.6753 17.3989 11.6753C17.3989 11.6753 17.4269 11.6383 17.4726 11.6128C17.5183 11.5872 17.5645 11.5829 17.5645 11.5829C17.5645 11.5829 17.5366 11.6199 17.4908 11.6454Z" fill="#999999"/>
<path d="M17.8392 11.4597C17.7935 11.4852 17.7473 11.4897 17.7473 11.4897C17.7473 11.4897 17.7753 11.4528 17.821 11.4272C17.8667 11.4017 17.9129 11.3972 17.9129 11.3972C17.9129 11.3972 17.885 11.4342 17.8392 11.4597Z" fill="#999999"/>
<path d="M17.4061 11.4153C17.3806 11.3696 17.3762 11.3234 17.3762 11.3234C17.3762 11.3234 17.4132 11.3514 17.4387 11.3971C17.4643 11.4428 17.4688 11.489 17.4688 11.489C17.4688 11.489 17.4318 11.4611 17.4061 11.4153Z" fill="#999999"/>
<path d="M17.7679 11.2073C17.7424 11.1616 17.738 11.1154 17.738 11.1154C17.738 11.1154 17.775 11.1434 17.8006 11.1891C17.8261 11.2348 17.8304 11.281 17.8304 11.281C17.8304 11.281 17.7935 11.2529 17.7679 11.2073Z" fill="#999999"/>
<path d="M17.6127 11.3173C17.567 11.3428 17.5208 11.3472 17.5208 11.3472C17.5208 11.3472 17.5487 11.3102 17.5944 11.2846C17.6401 11.2591 17.6863 11.2546 17.6863 11.2546C17.6863 11.2546 17.6584 11.2918 17.6127 11.3173Z" fill="#999999"/>
<path d="M17.3358 11.1355C17.3815 11.1099 17.4275 11.1054 17.4275 11.1054C17.4275 11.1054 17.3996 11.1424 17.3539 11.1679C17.3082 11.1935 17.262 11.198 17.262 11.198C17.262 11.198 17.2901 11.161 17.3358 11.1355Z" fill="#999999"/>
<path d="M17.6974 10.928C17.7431 10.9024 17.7891 10.8979 17.7891 10.8979C17.7891 10.8979 17.7612 10.9349 17.7155 10.9604C17.6697 10.986 17.6235 10.9905 17.6235 10.9905C17.6235 10.9905 17.6516 10.9535 17.6974 10.928Z" fill="#999999"/>
<path d="M17.5105 11.0557C17.485 11.01 17.4805 10.9638 17.4805 10.9638C17.4805 10.9638 17.5175 10.9918 17.543 11.0375C17.5685 11.0832 17.573 11.1294 17.573 11.1294C17.573 11.1294 17.536 11.1014 17.5105 11.0557Z" fill="#999999"/>
<path d="M17.4901 10.8291C17.4444 10.8546 17.3982 10.8591 17.3982 10.8591C17.3982 10.8591 17.4261 10.8221 17.4719 10.7966C17.5176 10.7711 17.5638 10.7666 17.5638 10.7666C17.5638 10.7666 17.5358 10.8036 17.4901 10.8291Z" fill="#999999"/>
</g>
<defs>
<linearGradient id="paint0_linear_506_9736" x1="1.26618" y1="18.5455" x2="1.58763" y2="1.51782" gradientUnits="userSpaceOnUse">
<stop stop-color="#C7C5C5"/>
<stop offset="0.0359" stop-color="#676767"/>
<stop offset="0.1123" stop-color="white"/>
<stop offset="0.3019" stop-color="#929292"/>
<stop offset="0.492" stop-color="white"/>
<stop offset="0.6257" stop-color="#676767"/>
<stop offset="0.7701" stop-color="#929292"/>
<stop offset="0.8233" stop-color="#C7C5C5"/>
<stop offset="1" stop-color="#343433"/>
</linearGradient>
<linearGradient id="paint1_linear_506_9736" x1="1.72349" y1="14.0184" x2="1.57283" y2="14.0184" gradientUnits="userSpaceOnUse">
<stop offset="0.0051"/>
<stop offset="1" stop-opacity="0"/>
</linearGradient>
<linearGradient id="paint2_linear_506_9736" x1="1.34329" y1="17.4939" x2="1.34329" y2="16.9647" gradientUnits="userSpaceOnUse">
<stop offset="0.0051"/>
<stop offset="1" stop-opacity="0"/>
</linearGradient>
<linearGradient id="paint3_linear_506_9736" x1="3.646" y1="2.15825" x2="4.1614" y2="2.13552" gradientUnits="userSpaceOnUse">
<stop stop-color="#C7C5C5"/>
<stop offset="0.0359" stop-color="#676767"/>
<stop offset="0.1123" stop-color="white"/>
<stop offset="0.3019" stop-color="#929292"/>
<stop offset="0.492" stop-color="white"/>
<stop offset="0.6809" stop-color="#676767"/>
<stop offset="0.7701" stop-color="#929292"/>
<stop offset="0.8233" stop-color="#C7C5C5"/>
<stop offset="1" stop-color="#343433"/>
</linearGradient>
<linearGradient id="paint4_linear_506_9736" x1="5.02204" y1="2.15817" x2="4.50973" y2="2.13559" gradientUnits="userSpaceOnUse">
<stop stop-color="#C7C5C5"/>
<stop offset="0.0359" stop-color="#676767"/>
<stop offset="0.1123" stop-color="white"/>
<stop offset="0.3019" stop-color="#929292"/>
<stop offset="0.492" stop-color="white"/>
<stop offset="0.6809" stop-color="#676767"/>
<stop offset="0.7701" stop-color="#929292"/>
<stop offset="0.8233" stop-color="#C7C5C5"/>
<stop offset="1" stop-color="#343433"/>
</linearGradient>
<linearGradient id="paint5_linear_506_9736" x1="3.53578" y1="2.29956" x2="6.02785" y2="2.29956" gradientUnits="userSpaceOnUse">
<stop stop-color="#C7C5C5"/>
<stop offset="0.0359" stop-color="#676767"/>
<stop offset="0.1123" stop-color="white"/>
<stop offset="0.3019" stop-color="#929292"/>
<stop offset="0.492" stop-color="white"/>
<stop offset="0.6257" stop-color="#676767"/>
<stop offset="0.7701" stop-color="#929292"/>
<stop offset="0.8233" stop-color="#C7C5C5"/>
<stop offset="1" stop-color="#343433"/>
</linearGradient>
<linearGradient id="paint6_linear_506_9736" x1="13.9053" y1="2.15825" x2="14.4207" y2="2.13552" gradientUnits="userSpaceOnUse">
<stop stop-color="#C7C5C5"/>
<stop offset="0.0359" stop-color="#676767"/>
<stop offset="0.1123" stop-color="white"/>
<stop offset="0.3019" stop-color="#929292"/>
<stop offset="0.492" stop-color="white"/>
<stop offset="0.6809" stop-color="#676767"/>
<stop offset="0.7701" stop-color="#929292"/>
<stop offset="0.8233" stop-color="#C7C5C5"/>
<stop offset="1" stop-color="#343433"/>
</linearGradient>
<linearGradient id="paint7_linear_506_9736" x1="15.2811" y1="2.15817" x2="14.7688" y2="2.13559" gradientUnits="userSpaceOnUse">
<stop stop-color="#C7C5C5"/>
<stop offset="0.0359" stop-color="#676767"/>
<stop offset="0.1123" stop-color="white"/>
<stop offset="0.3019" stop-color="#929292"/>
<stop offset="0.492" stop-color="white"/>
<stop offset="0.6809" stop-color="#676767"/>
<stop offset="0.7701" stop-color="#929292"/>
<stop offset="0.8233" stop-color="#C7C5C5"/>
<stop offset="1" stop-color="#343433"/>
</linearGradient>
<linearGradient id="paint8_linear_506_9736" x1="13.7951" y1="2.29956" x2="16.2872" y2="2.29956" gradientUnits="userSpaceOnUse">
<stop stop-color="#C7C5C5"/>
<stop offset="0.0359" stop-color="#676767"/>
<stop offset="0.1123" stop-color="white"/>
<stop offset="0.3019" stop-color="#929292"/>
<stop offset="0.492" stop-color="white"/>
<stop offset="0.6257" stop-color="#676767"/>
<stop offset="0.7701" stop-color="#929292"/>
<stop offset="0.8233" stop-color="#C7C5C5"/>
<stop offset="1" stop-color="#343433"/>
</linearGradient>
<linearGradient id="paint9_linear_506_9736" x1="0.777199" y1="3.40193" x2="25.7911" y2="3.52247" gradientUnits="userSpaceOnUse">
<stop stop-color="#C7C5C5"/>
<stop offset="0.0359" stop-color="#676767"/>
<stop offset="0.1123" stop-color="white"/>
<stop offset="0.3019" stop-color="#929292"/>
<stop offset="0.492" stop-color="white"/>
<stop offset="0.6257" stop-color="#676767"/>
<stop offset="0.7701" stop-color="#929292"/>
<stop offset="0.8233" stop-color="#C7C5C5"/>
<stop offset="1" stop-color="#343433"/>
</linearGradient>
<linearGradient id="paint10_linear_506_9736" x1="0.777199" y1="3.40193" x2="25.7911" y2="3.52247" gradientUnits="userSpaceOnUse">
<stop stop-color="#C7C5C5"/>
<stop offset="0.0359" stop-color="#676767"/>
<stop offset="0.1123" stop-color="white"/>
<stop offset="0.3019" stop-color="#929292"/>
<stop offset="0.492" stop-color="white"/>
<stop offset="0.6257" stop-color="#676767"/>
<stop offset="0.7701" stop-color="#929292"/>
<stop offset="0.8233" stop-color="#C7C5C5"/>
<stop offset="1" stop-color="#343433"/>
</linearGradient>
<radialGradient id="paint11_radial_506_9736" cx="0" cy="0" r="1" gradientUnits="userSpaceOnUse" gradientTransform="translate(-0.209548 9.57752) scale(18.0444 18.0446)">
<stop offset="0.0102"/>
<stop offset="1" stop-opacity="0"/>
</radialGradient>
<linearGradient id="paint12_linear_506_9736" x1="2.1596" y1="10.113" x2="16.7709" y2="10.113" gradientUnits="userSpaceOnUse">
<stop offset="0.3386" stop-color="white" stop-opacity="0"/>
<stop offset="0.6521" stop-color="white"/>
</linearGradient>
<linearGradient id="paint13_linear_506_9736" x1="5.65819" y1="8.15671" x2="5.15947" y2="8.11941" gradientUnits="userSpaceOnUse">
<stop offset="0.0051"/>
<stop offset="1" stop-opacity="0"/>
</linearGradient>
<linearGradient id="paint14_linear_506_9736" x1="13.2653" y1="8.1567" x2="13.764" y2="8.11939" gradientUnits="userSpaceOnUse">
<stop offset="0.0051" stop-color="#999999"/>
<stop offset="1" stop-color="#999999" stop-opacity="0"/>
</linearGradient>
<linearGradient id="paint15_linear_506_9736" x1="9.46535" y1="7.7916" x2="9.46535" y2="8.22162" gradientUnits="userSpaceOnUse">
<stop offset="0.0051"/>
<stop offset="1" stop-opacity="0"/>
</linearGradient>
<radialGradient id="paint16_radial_506_9736" cx="0" cy="0" r="1" gradientUnits="userSpaceOnUse" gradientTransform="translate(2.63373 10.7701) scale(11.9321 11.9322)">
<stop stop-color="white" stop-opacity="0"/>
<stop offset="1" stop-color="white"/>
</radialGradient>
<radialGradient id="paint17_radial_506_9736" cx="0" cy="0" r="1" gradientUnits="userSpaceOnUse" gradientTransform="translate(4.00608 11.451) scale(11.4863 11.4864)">
<stop offset="0.0102"/>
<stop offset="1" stop-opacity="0"/>
</radialGradient>
<linearGradient id="paint18_linear_506_9736" x1="2.00385" y1="13.0493" x2="2.06233" y2="13.0493" gradientUnits="userSpaceOnUse">
<stop offset="0.0051"/>
<stop offset="1" stop-opacity="0"/>
</linearGradient>
<linearGradient id="paint19_linear_506_9736" x1="2.12167" y1="13.1552" x2="2.36262" y2="13.1552" gradientUnits="userSpaceOnUse">
<stop stop-color="white"/>
<stop offset="1" stop-color="white" stop-opacity="0"/>
</linearGradient>
<linearGradient id="paint20_linear_506_9736" x1="2.52318" y1="13.1552" x2="2.84852" y2="13.1552" gradientUnits="userSpaceOnUse">
<stop stop-opacity="0"/>
<stop offset="0.9898"/>
</linearGradient>
<linearGradient id="paint21_linear_506_9736" x1="16.9669" y1="13.0485" x2="16.9085" y2="13.0485" gradientUnits="userSpaceOnUse">
<stop offset="0.0051"/>
<stop offset="1" stop-opacity="0"/>
</linearGradient>
<linearGradient id="paint22_linear_506_9736" x1="16.8493" y1="13.1545" x2="16.6084" y2="13.1545" gradientUnits="userSpaceOnUse">
<stop stop-color="white"/>
<stop offset="1" stop-color="white" stop-opacity="0"/>
</linearGradient>
<linearGradient id="paint23_linear_506_9736" x1="16.4478" y1="13.1545" x2="16.1225" y2="13.1545" gradientUnits="userSpaceOnUse">
<stop stop-opacity="0"/>
<stop offset="0.9898"/>
</linearGradient>
<linearGradient id="paint24_linear_506_9736" x1="1.25688" y1="9.93275" x2="1.30209" y2="10.0571" gradientUnits="userSpaceOnUse">
<stop stop-color="white"/>
<stop offset="1" stop-color="white" stop-opacity="0"/>
</linearGradient>
<linearGradient id="paint25_linear_506_9736" x1="1.71114" y1="10.1144" x2="0.897437" y2="10.5702" gradientUnits="userSpaceOnUse">
<stop offset="0.0051"/>
<stop offset="1" stop-opacity="0"/>
</linearGradient>
<linearGradient id="paint26_linear_506_9736" x1="17.7291" y1="9.93251" x2="17.6839" y2="10.0568" gradientUnits="userSpaceOnUse">
<stop stop-color="white"/>
<stop offset="1" stop-color="white" stop-opacity="0"/>
</linearGradient>
<linearGradient id="paint27_linear_506_9736" x1="17.2751" y1="10.1141" x2="18.0888" y2="10.57" gradientUnits="userSpaceOnUse">
<stop offset="0.0051"/>
<stop offset="1" stop-opacity="0"/>
</linearGradient>
<linearGradient id="paint28_linear_506_9736" x1="9.38452" y1="16.6584" x2="9.38452" y2="16.2812" gradientUnits="userSpaceOnUse">
<stop stop-opacity="0"/>
<stop offset="0.9898"/>
</linearGradient>
<radialGradient id="paint29_radial_506_9736" cx="0" cy="0" r="1" gradientUnits="userSpaceOnUse" gradientTransform="translate(9.4652 15.6656) scale(3.41311 3.41313)">
<stop stop-color="white" stop-opacity="0"/>
<stop offset="1" stop-color="white"/>
</radialGradient>
<linearGradient id="paint30_linear_506_9736" x1="9.4652" y1="16.0717" x2="9.4652" y2="16.3809" gradientUnits="userSpaceOnUse">
<stop stop-opacity="0"/>
<stop offset="0.9898"/>
</linearGradient>
<linearGradient id="paint31_linear_506_9736" x1="4.88568" y1="15.3631" x2="14.0447" y2="15.3631" gradientUnits="userSpaceOnUse">
<stop stop-color="white" stop-opacity="0"/>
<stop offset="1" stop-color="white"/>
</linearGradient>
<linearGradient id="paint32_linear_506_9736" x1="10.9791" y1="15.9674" x2="5.35737" y2="15.9674" gradientUnits="userSpaceOnUse">
<stop stop-color="white" stop-opacity="0"/>
<stop offset="1" stop-color="white"/>
</linearGradient>
<radialGradient id="paint33_radial_506_9736" cx="0" cy="0" r="1" gradientUnits="userSpaceOnUse" gradientTransform="translate(17.31 19.1015) scale(21.8 21.8002)">
<stop stop-color="white" stop-opacity="0"/>
<stop offset="1" stop-color="white"/>
</radialGradient>
<radialGradient id="paint34_radial_506_9736" cx="0" cy="0" r="1" gradientUnits="userSpaceOnUse" gradientTransform="translate(-4.22809 33.005) scale(31.6921 31.6923)">
<stop offset="0.0102"/>
<stop offset="1" stop-opacity="0"/>
</radialGradient>
<linearGradient id="paint35_linear_506_9736" x1="3.52" y1="41.423" x2="1.60628" y2="41.7093" gradientUnits="userSpaceOnUse">
<stop stop-color="white" stop-opacity="0"/>
<stop offset="1" stop-color="white"/>
</linearGradient>
<linearGradient id="paint36_linear_506_9736" x1="2.73844" y1="41.4636" x2="2.73844" y2="41.5663" gradientUnits="userSpaceOnUse">
<stop stop-color="white" stop-opacity="0"/>
<stop offset="1" stop-color="white"/>
</linearGradient>
<linearGradient id="paint37_linear_506_9736" x1="16.7004" y1="41.4225" x2="14.7866" y2="41.7088" gradientUnits="userSpaceOnUse">
<stop stop-color="white" stop-opacity="0"/>
<stop offset="1" stop-color="white"/>
</linearGradient>
<linearGradient id="paint38_linear_506_9736" x1="15.9183" y1="41.4636" x2="15.9183" y2="41.5663" gradientUnits="userSpaceOnUse">
<stop stop-color="white" stop-opacity="0"/>
<stop offset="1" stop-color="white"/>
</linearGradient>
<linearGradient id="paint39_linear_506_9736" x1="9.2797" y1="41.523" x2="9.2797" y2="41.3823" gradientUnits="userSpaceOnUse">
<stop stop-opacity="0"/>
<stop offset="0.9898"/>
</linearGradient>
<linearGradient id="paint40_linear_506_9736" x1="17.7142" y1="18.5455" x2="17.3927" y2="1.51782" gradientUnits="userSpaceOnUse">
<stop stop-color="#C7C5C5"/>
<stop offset="0.0359" stop-color="#676767"/>
<stop offset="0.1123" stop-color="white"/>
<stop offset="0.3019" stop-color="#929292"/>
<stop offset="0.492" stop-color="white"/>
<stop offset="0.6257" stop-color="#676767"/>
<stop offset="0.7701" stop-color="#929292"/>
<stop offset="0.8233" stop-color="#C7C5C5"/>
<stop offset="1" stop-color="#343433"/>
</linearGradient>
<linearGradient id="paint41_linear_506_9736" x1="17.2575" y1="14.0184" x2="17.4082" y2="14.0184" gradientUnits="userSpaceOnUse">
<stop offset="0.0051"/>
<stop offset="1" stop-opacity="0"/>
</linearGradient>
<linearGradient id="paint42_linear_506_9736" x1="17.6377" y1="17.4939" x2="17.6377" y2="16.9647" gradientUnits="userSpaceOnUse">
<stop offset="0.0051"/>
<stop offset="1" stop-opacity="0"/>
</linearGradient>
</defs>
</svg>
