<svg width="124" height="123" viewBox="0 0 124 123" fill="none" xmlns="http://www.w3.org/2000/svg">
<g filter="url(#filter0_d_6_5597)">
<path d="M86.7305 77.616V29.8525L55.707 47.7635V95.5275L86.7305 77.616Z" fill="#FAFAFA"/>
<path d="M9.17111 68.66L16.6826 64.4365L13.7726 61.447L9.17162 62.69L8.39862 67.1675L9.17111 68.66Z" fill="#464061"/>
<path d="M12.4617 65.7551L17.2497 62.9641C17.2542 62.9616 17.2582 62.9591 17.2622 62.9566L17.3202 62.9226L17.3187 62.9276C18.4022 62.3126 19.7812 62.2146 21.0262 62.8971C24.8077 64.9691 27.1592 68.9381 27.1592 73.2506V73.8096C27.1592 75.2416 26.4007 76.4026 25.3347 77.0531L25.3462 77.0576L20.3442 79.9576L20.6522 76.5886C17.3797 74.4046 15.3872 70.7401 15.3872 66.7856V66.4281L12.4617 65.7551Z" fill="#2A264B"/>
<path d="M22.124 76.176V76.735C22.124 79.7105 18.8645 81.537 16.3265 79.9835L15.994 79.78C12.489 77.6345 10.3515 73.8205 10.3515 69.711V69.1625C10.3515 66.268 13.452 64.4315 15.9905 65.822C19.7725 67.8945 22.124 71.864 22.124 76.176Z" fill="#464061"/>
<path d="M19.6113 74.7986V75.1191C19.6113 76.8241 17.7433 77.8711 16.2893 76.9806L16.0988 76.8641C14.0903 75.6346 12.8653 73.4491 12.8653 71.0941V70.7801C12.8653 69.1216 14.6423 68.0691 16.0968 68.8661C18.2638 70.0531 19.6113 72.3276 19.6113 74.7986Z" fill="white"/>
<path d="M17.9539 79.4487C19.8069 79.4482 21.3145 77.9417 21.3145 76.0902V75.6262C21.3145 71.9772 19.3264 68.6212 16.1265 66.8677C15.6215 66.5912 15.0804 66.4507 14.5184 66.4507C12.6674 66.4507 11.1615 67.9572 11.1615 69.8087V70.2637C11.1615 73.7152 12.9904 76.9787 15.9344 78.7812L16.2105 78.9502C16.7425 79.2762 17.3454 79.4487 17.9539 79.4487ZM14.5184 66.8392C15.0144 66.8392 15.4925 66.9637 15.9399 67.2082C19.0154 68.8932 20.9265 72.1192 20.9265 75.6262V76.0902C20.9265 77.7277 19.5934 79.0602 17.9549 79.0602C17.4184 79.0602 16.885 78.9077 16.4135 78.6192L16.1375 78.4502C13.308 76.7182 11.5505 73.5812 11.5505 70.2637V69.8087C11.5495 68.1712 12.8814 66.8392 14.5184 66.8392Z" fill="#DAD7D2"/>
<path d="M18.0703 73.954V74.1281C18.0703 75.0546 17.0558 75.6231 16.2653 75.1396L16.1618 75.0761C15.0708 74.4081 14.4053 73.2205 14.4053 71.941V71.7705C14.4053 70.8695 15.3708 70.2975 16.1608 70.7305C17.3383 71.376 18.0703 72.6115 18.0703 73.954Z" fill="#464061"/>
<path d="M24.683 77.6161C24.6385 72.2911 21.7805 67.3796 17.1635 64.7141L16.683 64.4366C13.376 62.5271 9.25704 64.8721 9.17154 68.6606L4.00104 65.6751L4.00154 17.9116L55.707 47.7636V95.5276L24.683 77.6161Z" fill="#F3F3F1"/>
<path d="M29.8541 38.8081L50.5361 50.7491V68.8716L29.8541 56.7196V38.8081Z" fill="#4A93DC"/>
<path d="M49.7588 51.1966L30.6293 40.1526L30.6298 56.2751L49.7588 67.5151V51.1966Z" fill="#74C6F6"/>
<path d="M9.17109 32.8375L14.3421 35.8225V29.8525L19.5136 32.837V38.808L24.6836 41.793V47.869L19.5131 44.932L19.5126 50.749L14.3421 47.7635V41.9945L9.17109 39.057V32.8375Z" fill="#B54719"/>
<path d="M55.707 47.7636L4.00153 17.9116V20.0671L55.707 49.9191V47.7636Z" fill="#B54719"/>
<path d="M63.5916 95.2619L68.3796 92.4709C68.3836 92.4684 68.3881 92.4659 68.3921 92.4634L68.4501 92.4294L68.4486 92.4344C69.5321 91.8194 70.9111 91.7214 72.1561 92.4039C75.9376 94.4759 78.2891 98.4449 78.2891 102.757V103.316C78.2891 104.748 77.5306 105.909 76.4646 106.56L76.4761 106.565L71.4741 109.465L71.7821 106.096C68.5096 103.912 66.5171 100.247 66.5171 96.2929V95.9354L63.5916 95.2619Z" fill="#2A264B"/>
<path d="M73.2539 105.683V106.242C73.2539 109.218 69.9944 111.044 67.4564 109.491L67.1239 109.287C63.6189 107.142 61.4814 103.328 61.4814 99.2183V98.6698C61.4814 95.7753 64.5819 93.9388 67.1204 95.3293C70.9029 97.4018 73.2539 101.371 73.2539 105.683Z" fill="#464061"/>
<path d="M70.7412 104.305V104.626C70.7412 106.331 68.8737 107.378 67.4192 106.487L67.2287 106.371C65.2202 105.141 63.9952 102.956 63.9952 100.601V100.287C63.9952 98.6284 65.7722 97.5759 67.2267 98.3729C69.3937 99.5599 70.7412 101.834 70.7412 104.305Z" fill="white"/>
<path d="M69.0848 108.956C70.9378 108.955 72.4453 107.449 72.4453 105.597V105.133C72.4453 101.485 70.4573 98.128 67.2573 96.3745C66.7523 96.098 66.2113 95.9575 65.6493 95.9575C63.7983 95.9575 62.2923 97.464 62.2923 99.315V99.77C62.2923 103.222 64.1213 106.486 67.0653 108.288L67.3408 108.457C67.8733 108.783 68.4763 108.956 69.0848 108.956ZM65.6488 96.346C66.1448 96.346 66.6228 96.4705 67.0703 96.716C70.1458 98.4005 72.0568 101.626 72.0568 105.133V105.597C72.0568 107.235 70.7238 108.567 69.0848 108.567C68.5478 108.567 68.0148 108.414 67.5433 108.126L67.2678 107.957C64.4383 106.224 62.6808 103.087 62.6808 99.7695V99.3145C62.6803 97.678 64.0118 96.346 65.6488 96.346Z" fill="#DAD7D2"/>
<path d="M69.2002 103.461V103.635C69.2002 104.561 68.1857 105.13 67.3952 104.646L67.2917 104.583C66.2002 103.915 65.5352 102.727 65.5352 101.448V101.277C65.5352 100.376 66.5007 99.8044 67.2907 100.237C68.4682 100.883 69.2002 102.118 69.2002 103.461Z" fill="#464061"/>
<path d="M119.369 88.6645L112.697 84.781L80.0882 103.658L86.8017 107.469L119.369 88.6645Z" fill="#464061"/>
<path d="M108.877 59.6365V64.838C108.877 65.0825 108.746 65.308 108.535 65.43L106.966 66.3355C106.51 66.5985 105.941 66.2695 105.941 65.7435V60.542C105.941 60.2975 106.071 60.072 106.283 59.95L107.851 59.0445C108.307 58.781 108.877 59.11 108.877 59.6365Z" fill="#2A264B"/>
<path d="M117.821 95.465V81.109C117.821 79.14 117.159 77.2285 115.941 75.682L107.844 65.4025L97.0538 41.682L86.7298 35.823L86.7293 77.616L117.821 95.465Z" fill="#FAFAFA"/>
<path d="M117.821 95.4651L86.7983 113.377L76.8218 83.3136L107.844 65.4021L117.821 95.4651Z" fill="#FAFAFA"/>
<path d="M112.583 85.104L91.9015 97.045V101.497L112.583 89.5565V85.104Z" fill="#464061"/>
<path d="M60.8773 98.5124L69.2578 93.8934L63.9948 90.7424L58.2918 95.0239L60.8773 98.5124Z" fill="#464061"/>
<path d="M55.7064 95.5274L60.8769 98.5124C60.9624 94.7239 65.0809 92.3794 68.3884 94.2884L68.8689 94.5659C73.4859 97.2314 76.3444 102.143 76.3884 107.468L86.7979 113.376V99.0199C86.7979 97.0509 86.1354 95.1394 84.9174 93.5929L76.8214 83.3134L66.0309 59.5929L55.7069 53.7339L55.7064 95.5274Z" fill="#F3F3F1"/>
<path d="M55.7064 83.5025V77.616L85.8154 95C86.4539 96.237 86.7979 97.613 86.7979 99.0205V101.424L55.7064 83.5025Z" fill="#B54719"/>
<path d="M4.00007 47.7639L55.7061 77.6159V83.5024L4.00007 53.6994V47.7639Z" fill="#B54719"/>
<path d="M86.7297 35.8225L55.7072 53.7345L66.0307 59.593L97.0537 41.6815L86.7297 35.8225Z" fill="white"/>
<path d="M86.2148 42.5309L84.1448 41.3369L66.5463 51.4814L68.6363 52.6794L86.2148 42.5309Z" fill="#F0B128"/>
<path d="M78.1338 46.2101L77.7643 45.9971L74.6263 47.8061L74.9993 48.0196L78.1338 46.2101Z" fill="white"/>
<path d="M86.2148 42.531V44.024L68.6363 54.1725V52.6795L86.2148 42.531Z" fill="#F19628"/>
<path d="M66.5457 51.4814V52.9749L68.6357 54.1724V52.6794L66.5457 51.4814Z" fill="#F19628"/>
<path d="M78.9883 46.7024L75.8563 48.5109L73.7718 47.3159L76.9128 45.5054L78.9883 46.7024Z" fill="#DA5A25"/>
<path d="M78.9883 48.1959L75.8563 50.0039V48.5109L78.9883 46.7024V48.1959Z" fill="#B54719"/>
<path d="M86.7305 29.8525L55.707 47.7635V49.919L86.7305 32.008V29.8525Z" fill="#DA5A25"/>
<path d="M97.0533 41.6814L107.844 65.4019L76.8213 83.3134L66.0303 59.5929L97.0533 41.6814Z" fill="#FAFAFA"/>
<path d="M105.848 64.7621L96.3487 43.8821L68.0272 60.2336L77.5262 81.1136L105.848 64.7621Z" fill="#4A93DC"/>
<path d="M104.85 64.4424L95.9966 44.9819L69.0261 60.5529L77.8791 80.0134L104.85 64.4424Z" fill="#74C6F6"/>
<path d="M69.0262 60.5528L72.1872 58.7283L87.7646 74.3058L84.0291 76.4628L69.7831 62.2173L69.0262 60.5528Z" fill="#A1D8F9"/>
<path d="M102.873 65.5829L93.42 71.0409L77.842 55.4634L87.2956 50.0054L102.873 65.5829Z" fill="#A1D8F9"/>
<path d="M119.369 88.6646L86.8017 107.469L80.0882 103.658V110.461L86.8017 114.272L119.369 95.4675V88.6646Z" fill="#2A264B"/>
<path d="M107.844 65.4021L115.941 75.6816C117.159 77.2281 117.821 79.1401 117.821 81.1086L86.7983 99.0206C86.7983 97.0516 86.1358 95.1401 84.9178 93.5936L76.8218 83.3141L107.844 65.4021Z" fill="white"/>
<path d="M88.0397 96.7045C88.0732 96.7045 88.1067 96.6955 88.1367 96.6785L116.312 80.4105C116.38 80.372 116.417 80.2966 116.408 80.2191C116.243 78.8661 115.713 77.5875 114.873 76.5215L107.608 67.2985C107.548 67.2225 107.441 67.2021 107.359 67.2506L79.0527 83.5931C79.0037 83.6211 78.9697 83.6696 78.9592 83.7251C78.9487 83.7806 78.9627 83.8371 78.9977 83.8811L85.9852 92.7526C86.8592 93.8626 87.5047 95.1775 87.8512 96.5575C87.8662 96.6165 87.9082 96.665 87.9637 96.6895C87.9882 96.699 88.0142 96.7045 88.0397 96.7045ZM116.006 80.1396L88.1627 96.2155C87.7892 94.8736 87.1452 93.5975 86.2902 92.5131L79.4417 83.8176L107.408 67.6706L114.569 76.7621C115.338 77.7391 115.833 78.9046 116.006 80.1396Z" fill="#DAD7D2"/>
<path d="M75.0469 85.1349L58.0969 75.3384L58.0354 57.7339L64.2239 61.2459L75.0469 85.1349Z" fill="#4A93DC"/>
<path d="M62.1102 60.9394L66.5742 79.3474L58.8727 74.8899L58.8112 59.0674L62.1102 60.9394Z" fill="#74C6F6"/>
<path d="M63.0049 61.4468L63.6219 61.7968L73.3369 83.2513L67.4714 79.8648L63.0049 61.4468Z" fill="#74C6F6"/>
<path d="M117.821 88.6646L86.7296 106.73L80.7206 103.292L80.0882 103.658L86.8017 107.469L119.369 88.6646H117.821Z" fill="#464061"/>
<path d="M76.1537 102.246C76.1652 102.246 76.1767 102.245 76.1887 102.243C76.2807 102.226 76.3477 102.146 76.3477 102.052V83.7206C76.3477 83.6926 76.3417 83.665 76.3302 83.64L65.6052 60.0641C65.5882 60.0271 65.5602 59.9961 65.5247 59.9756L56.5792 54.8986C56.5187 54.8641 56.4452 54.8641 56.3857 54.8996C56.3262 54.9341 56.2892 54.998 56.2892 55.067V95.0786C56.2892 95.1476 56.3262 95.2121 56.3862 95.2471L60.1667 97.4305C60.2192 97.46 60.2832 97.4656 60.3397 97.4406C60.3957 97.4171 60.4377 97.3675 60.4517 97.3086C61.0607 94.8281 63.3492 93.0275 65.8922 93.0275C66.8582 93.0275 67.8222 93.289 68.6797 93.784L69.1602 94.0616C72.2747 95.8596 74.6942 98.7216 75.9712 102.12C76.0007 102.197 76.0742 102.246 76.1537 102.246ZM75.9597 83.7626V101.07C74.5812 97.9901 72.2642 95.4056 69.3552 93.7256L68.8747 93.448C67.9582 92.9195 66.9272 92.64 65.8932 92.64C63.2592 92.64 60.8812 94.4461 60.1427 96.9691L56.6777 94.9675V55.4016L65.2787 60.2831L75.9597 83.7626Z" fill="#DAD7D2"/>
<path d="M62.0179 83.3385C62.1534 83.3385 62.2844 83.268 62.3559 83.1415C62.4614 82.955 62.3959 82.7185 62.2094 82.613L59.5999 81.1345C59.4124 81.0295 59.1769 81.095 59.0709 81.281C58.9654 81.4675 59.0309 81.7045 59.2174 81.81L61.8269 83.288C61.8879 83.3225 61.9534 83.3385 62.0179 83.3385Z" fill="#DAD7D2"/>
<path d="M86.7295 29.852L35.023 0L4.00002 17.911L55.7055 47.763L86.7295 29.852Z" fill="#FAFAFA"/>
<path d="M82.3311 32.3916L81.5551 32.8391L29.8496 2.98656L30.6256 2.53906L82.3311 32.3916Z" fill="#F3F3F1"/>
<path d="M24.4878 6.08252L25.2638 5.63452L76.9678 35.488L76.1918 35.9355L24.4878 6.08252Z" fill="#F3F3F1"/>
<path d="M19.1255 9.17847L19.901 8.73047L71.6064 38.583L70.8309 39.031L19.1255 9.17847Z" fill="#F3F3F1"/>
<path d="M8.39888 15.3716L9.17437 14.9236L60.8809 44.7756L60.1049 45.2231L8.39888 15.3716Z" fill="#F3F3F1"/>
<path d="M13.7727 12.2686L14.5487 11.8206L66.2432 41.6796L65.4672 42.1276L13.7727 12.2686Z" fill="#F3F3F1"/>
<path d="M16.0059 17.6266C16.0059 17.6266 15.4874 14.7466 13.4204 14.7466C11.3534 14.7466 11.3744 17.9811 11.3744 17.9811C11.3744 17.9811 13.0664 19.2181 16.0059 17.6266Z" fill="#F19628"/>
<path d="M13.4208 14.7466C15.4878 14.7466 16.0068 17.6266 16.0068 17.6266C15.4988 17.9016 15.0308 18.0876 14.5993 18.2146C14.5953 17.3676 14.3203 16.5221 13.7908 15.8601C13.4848 15.4771 13.0983 15.1636 12.6698 14.9261C12.8838 14.8156 13.1298 14.7466 13.4208 14.7466Z" fill="#F0B128"/>
<path d="M37.9912 5.33703C37.9912 5.33703 37.4727 2.45703 35.4052 2.45703C33.3382 2.45703 33.3592 5.69153 33.3592 5.69153C33.3592 5.69153 35.0517 6.92853 37.9912 5.33703Z" fill="#F19628"/>
<path d="M35.4062 2.45703C37.4732 2.45703 37.9922 5.33703 37.9922 5.33703C37.4842 5.61203 37.0162 5.79803 36.5847 5.92503C36.5807 5.07803 36.3057 4.23253 35.7762 3.57053C35.4702 3.18803 35.0837 2.87403 34.6552 2.63653C34.8692 2.52653 35.1147 2.45703 35.4062 2.45703Z" fill="#F0B128"/>
<path d="M74.208 77.0815V82.283C74.208 82.5275 74.0775 82.753 73.866 82.875L72.2975 83.7805C71.8415 84.0435 71.272 83.7145 71.272 83.1885V77.987C71.272 77.7425 71.4025 77.517 71.614 77.395L73.1825 76.4895C73.638 76.226 74.208 76.555 74.208 77.0815Z" fill="#2A264B"/>
<path d="M89.8657 73.013C89.9662 72.7455 90.3642 72.727 90.5572 72.904C90.8277 73.152 90.6352 73.3905 90.3597 73.4765C90.0922 73.56 89.7667 73.2755 89.8657 73.013Z" fill="#464061"/>
<path d="M90.1616 73.0615L90.2861 73.2685L88.1401 74.1405C88.1401 74.1405 88.2701 74.5635 88.0366 74.644C87.8026 74.7245 79.1916 77.4965 79.1916 77.4965L79.1496 77.184L90.1616 73.0615Z" fill="#464061"/>
<path d="M96.5005 69.094C96.6025 68.827 97.0005 68.8105 97.1925 68.989C97.4615 69.239 97.2675 69.476 96.992 69.5605C96.7235 69.6425 96.4 69.356 96.5005 69.094Z" fill="#464061"/>
<path d="M96.7959 69.1445L96.9189 69.3525L94.7679 70.212C94.7679 70.212 94.8959 70.636 94.6614 70.715C94.4269 70.794 85.7999 73.5155 85.7999 73.5155L85.76 73.2025L96.7959 69.1445Z" fill="#464061"/>
<path d="M91.901 98.9011C91.967 98.9011 92.0335 98.8846 92.0945 98.8486L112.777 86.9076C112.962 86.8006 113.026 86.5636 112.919 86.3776C112.811 86.1921 112.575 86.1266 112.388 86.2361L91.706 98.1771C91.5205 98.2841 91.4565 98.5211 91.564 98.7071C91.6365 98.8311 91.767 98.9011 91.901 98.9011Z" fill="#2A264B"/>
<path d="M91.901 100.393C91.967 100.393 92.0335 100.377 92.0945 100.341L112.777 88.3999C112.962 88.2929 113.026 88.0559 112.919 87.8699C112.811 87.6849 112.575 87.6199 112.388 87.7284L91.706 99.6694C91.5205 99.7764 91.4565 100.013 91.564 100.199C91.6365 100.323 91.767 100.393 91.901 100.393Z" fill="#2A264B"/>
<path d="M91.9002 101.885C91.9672 101.885 92.0342 101.868 92.0942 101.833L112.777 89.892C112.897 89.823 112.971 89.695 112.971 89.556V85.1035C112.971 84.965 112.897 84.8365 112.777 84.7675C112.657 84.698 112.508 84.698 112.389 84.7675L91.7067 96.7085C91.5867 96.7775 91.5127 96.9055 91.5127 97.0445V101.497C91.5127 101.635 91.5867 101.764 91.7067 101.833C91.7662 101.868 91.8332 101.885 91.9002 101.885ZM112.194 89.332L92.2882 100.825V97.2695L112.194 85.7765V89.332Z" fill="#2A264B"/>
<path d="M65.6864 72.5042L70.7739 77.5916L73.3369 83.2516L70.8709 81.8281L67.0114 77.9687L65.6864 72.5042Z" fill="#A1D8F9"/>
<path d="M49.7588 60.7161L30.6293 41.5861V40.1526L37.0303 43.8486L49.7588 56.5771V60.7161Z" fill="#A1D8F9"/>
<path d="M65.9932 76.95L58.8532 69.81L58.8372 65.655L64.6677 71.486L65.9932 76.95Z" fill="#A1D8F9"/>
<path d="M30.6293 46.7551L49.7588 65.8846V67.5151L43.6753 63.9406L30.6298 50.8946L30.6293 46.7551Z" fill="#A1D8F9"/>
</g>
<defs>
<filter id="filter0_d_6_5597" x="0" y="0" width="123.369" height="122.271" filterUnits="userSpaceOnUse" color-interpolation-filters="sRGB">
<feFlood flood-opacity="0" result="BackgroundImageFix"/>
<feColorMatrix in="SourceAlpha" type="matrix" values="0 0 0 0 0 0 0 0 0 0 0 0 0 0 0 0 0 0 127 0" result="hardAlpha"/>
<feOffset dy="4"/>
<feGaussianBlur stdDeviation="2"/>
<feComposite in2="hardAlpha" operator="out"/>
<feColorMatrix type="matrix" values="0 0 0 0 0 0 0 0 0 0 0 0 0 0 0 0 0 0 0.25 0"/>
<feBlend mode="normal" in2="BackgroundImageFix" result="effect1_dropShadow_6_5597"/>
<feBlend mode="normal" in="SourceGraphic" in2="effect1_dropShadow_6_5597" result="shape"/>
</filter>
</defs>
</svg>
