<svg width="64" height="64" viewBox="0 0 64 64" fill="none" xmlns="http://www.w3.org/2000/svg">
<g clip-path="url(#clip0_311_665)">
<mask id="mask0_311_665" style="mask-type:luminance" maskUnits="userSpaceOnUse" x="0" y="0" width="64" height="64">
<path d="M64 0H0V64H64V0Z" fill="white"/>
</mask>
<g mask="url(#mask0_311_665)">
<path d="M64 0H0V64H64V0Z" fill="white"/>
<path d="M64 32.7075H47.75L41.5337 32.7012L39.565 38.2025C39.4613 38.4912 39.18 38.68 38.8737 38.6688C38.5662 38.6562 38.3025 38.4463 38.2225 38.1488L35.3438 27.455L34.6162 32.1087L34.6138 32.1237L31.7775 47.9837C31.7188 48.3187 31.4262 48.5625 31.085 48.5625C30.7437 48.5625 30.4525 48.3187 30.3925 47.9837L25.4112 20.135L23.2675 32.1225C23.2075 32.4575 22.9163 32.7012 22.575 32.7012H0V31.2975H21.9862L24.72 16.0163C24.78 15.6813 25.0713 15.4375 25.4125 15.4375C25.7537 15.4375 26.045 15.6813 26.105 16.0163L31.0863 43.865L33.23 31.885L34.4688 23.9625C34.52 23.635 34.7938 23.3875 35.1263 23.37C35.4575 23.3513 35.7575 23.5688 35.8438 23.8888L39 35.615L40.3775 31.765C40.4775 31.4862 40.7425 31.2987 41.04 31.2987L47.7788 31.305H64.0013" fill="#404040"/>
<path d="M47.7513 32.7125L41.535 32.7062L39.5662 38.2175C39.4625 38.5075 39.1813 38.6962 38.875 38.6837C38.5675 38.6712 38.3038 38.46 38.2238 38.1637L35.345 27.45L34.6175 32.1112L34.615 32.1262L31.7775 48.015C31.7188 48.35 31.4262 48.5937 31.085 48.5937C30.7437 48.5937 30.4525 48.35 30.3925 48.0137L25.4112 20.1162L23.2675 32.125C23.2075 32.46 22.9163 32.705 22.575 32.705H0V63.9912H64V32.7112H47.75L47.7513 32.7125Z" fill="#20DEA5"/>
</g>
</g>
<defs>
<clipPath id="clip0_311_665">
<rect width="64" height="64" rx="32" fill="white"/>
</clipPath>
</defs>
</svg>
