<svg width="25" height="24" viewBox="0 0 25 24" fill="none" xmlns="http://www.w3.org/2000/svg">
<path d="M15.48 7.02303V3.02303C15.48 2.75781 15.5854 2.50346 15.7729 2.31592C15.9604 2.12839 16.2148 2.02303 16.48 2.02303C16.7452 2.02303 16.9996 2.12839 17.1871 2.31592C17.3746 2.50346 17.48 2.75781 17.48 3.02303V5.63403C18.11 5.00003 22.181 0.90803 22.773 0.31603C22.8652 0.22052 22.9756 0.144338 23.0976 0.091929C23.2196 0.03952 23.3508 0.0119338 23.4836 0.0107799C23.6164 0.00962613 23.7481 0.0349278 23.871 0.0852087C23.9938 0.13549 24.1055 0.209743 24.1994 0.303635C24.2933 0.397528 24.3675 0.50918 24.4178 0.632076C24.4681 0.754973 24.4934 0.886652 24.4922 1.01943C24.4911 1.15221 24.4635 1.28343 24.4111 1.40543C24.3587 1.52744 24.2825 1.63778 24.187 1.73003C23.595 2.32203 19.545 6.39503 18.919 7.02303H21.48C21.7452 7.02303 21.9996 7.12839 22.1871 7.31592C22.3746 7.50346 22.48 7.75781 22.48 8.02303C22.48 8.28825 22.3746 8.5426 22.1871 8.73014C21.9996 8.91767 21.7452 9.02303 21.48 9.02303H17.48C16.9496 9.02303 16.4409 8.81232 16.0658 8.43724C15.6907 8.06217 15.48 7.55346 15.48 7.02303ZM23.575 16.762C24.1545 17.3431 24.4799 18.1303 24.4799 18.951C24.4799 19.7717 24.1545 20.5589 23.575 21.14L22.663 22.19C14.472 30.028 -5.456 10.106 2.263 1.89003L3.413 0.89003C3.99464 0.326576 4.77473 0.0147693 5.5845 0.0220679C6.39427 0.0293665 7.16861 0.355184 7.74 0.92903C7.771 0.95903 9.623 3.36703 9.623 3.36703C10.1709 3.94557 10.4758 4.71241 10.4747 5.50923C10.4736 6.30605 10.1665 7.07203 9.617 7.64903L8.459 9.10503C9.09999 10.6621 10.0423 12.0771 11.2317 13.2689C12.4211 14.4608 13.8343 15.4059 15.39 16.05L16.855 14.885C17.4309 14.334 18.1968 14.026 18.9938 14.0249C19.7908 14.0238 20.5576 14.3297 21.135 14.879C21.135 14.879 23.544 16.732 23.575 16.762ZM22.2 18.216C22.2 18.216 19.807 16.374 19.776 16.344C19.57 16.1398 19.2916 16.0252 19.0015 16.0252C18.7114 16.0252 18.433 16.1398 18.227 16.344C18.2 16.37 16.183 17.978 16.183 17.978C16.0471 18.0862 15.8853 18.1571 15.7136 18.1838C15.542 18.2104 15.3663 18.1919 15.204 18.13C13.1874 17.3798 11.3557 16.2047 9.83309 14.6845C8.31045 13.1642 7.13247 11.3344 6.379 9.31903C6.3122 9.15449 6.29042 8.97512 6.3159 8.79937C6.34139 8.62362 6.41321 8.45783 6.524 8.31903C6.524 8.31903 8.132 6.30503 8.159 6.27903C8.36327 6.07302 8.47788 5.79465 8.47788 5.50453C8.47788 5.21441 8.36327 4.93604 8.159 4.73003C8.129 4.70003 6.287 2.30503 6.287 2.30503C6.0779 2.11754 5.805 2.01713 5.52425 2.02438C5.24349 2.03163 4.97614 2.14599 4.777 2.34403L3.627 3.34403C-2.015 10.127 15.257 26.441 21.2 20.827L22.112 19.776C22.327 19.5787 22.4565 19.3053 22.473 19.0139C22.4894 18.7225 22.3915 18.4363 22.2 18.216Z" fill="#5384E4"/>
</svg>
