<svg width="52" height="52" viewBox="0 0 52 52" fill="none" xmlns="http://www.w3.org/2000/svg">
<circle opacity="0.5" cx="25.9375" cy="26.0625" r="25.5" fill="#FF8282"/>
<path d="M34.4443 30.3813L34.4443 36.291C34.4443 36.4655 34.375 36.6327 34.2518 36.7561L33.6755 37.3323L33.6755 30.3813L34.4443 30.3813Z" fill="#CCCCCC"/>
<path d="M34.324 30.5024L33.796 30.5024L33.796 37.042L34.1666 36.6715C34.2681 36.5701 34.324 36.4352 34.324 36.2917L34.324 30.5024Z" fill="url(#paint0_linear_652_1195)"/>
<path opacity="0.5" d="M34.4443 30.3813L34.4443 36.291C34.4443 36.4655 34.375 36.6327 34.2518 36.7561L33.6755 37.3323L33.6755 30.3813L34.4443 30.3813Z" fill="url(#paint1_linear_652_1195)"/>
<path opacity="0.4" d="M34.4443 30.3813L34.4443 36.291C34.4443 36.4655 34.375 36.6327 34.2518 36.7561L33.6755 37.3323L33.6755 30.3813L34.4443 30.3813Z" fill="url(#paint2_linear_652_1195)"/>
<mask id="mask0_652_1195" style="mask-type:luminance" maskUnits="userSpaceOnUse" x="33" y="30" width="2" height="8">
<path d="M34.3232 30.5024L33.7953 30.5024L33.7953 37.042L34.1659 36.6715C34.2673 36.5701 34.3232 36.4352 34.3232 36.2917L34.3232 30.5024Z" fill="white"/>
</mask>
<g mask="url(#mask0_652_1195)">
<path d="M33.9161 30.5532C33.9619 30.5788 34.0081 30.5833 34.0081 30.5833C34.0081 30.5833 33.9801 30.5463 33.9344 30.5208C33.8887 30.4952 33.8425 30.4907 33.8425 30.4907C33.8425 30.4907 33.8704 30.5277 33.9161 30.5532Z" fill="#999999"/>
<path d="M34.2777 30.7617C34.3234 30.7873 34.3696 30.7918 34.3696 30.7918C34.3696 30.7918 34.3417 30.7548 34.296 30.7293C34.2502 30.7037 34.204 30.6992 34.204 30.6992C34.204 30.6992 34.232 30.7362 34.2777 30.7617Z" fill="#999999"/>
<path d="M34.0906 30.6334C34.065 30.6791 34.0605 30.7252 34.0605 30.7252C34.0605 30.7252 34.0975 30.6972 34.123 30.6515C34.1486 30.6058 34.1531 30.5596 34.1531 30.5596C34.1531 30.5596 34.1161 30.5877 34.0906 30.6334Z" fill="#999999"/>
<path d="M33.8633 30.7612C33.8377 30.8069 33.8332 30.8531 33.8332 30.8531C33.8332 30.8531 33.8702 30.8251 33.8957 30.7794C33.9213 30.7337 33.9258 30.6875 33.9258 30.6875C33.9258 30.6875 33.8888 30.7154 33.8633 30.7612Z" fill="#999999"/>
<path d="M34.2251 30.9693C34.1996 31.0151 34.1952 31.0611 34.1952 31.0611C34.1952 31.0611 34.2322 31.0331 34.2577 30.9874C34.2832 30.9417 34.2876 30.8955 34.2876 30.8955C34.2876 30.8955 34.2506 30.9236 34.2251 30.9693Z" fill="#999999"/>
<path d="M34.0704 30.8587C34.0247 30.8331 33.9785 30.8286 33.9785 30.8286C33.9785 30.8286 34.0064 30.8656 34.0521 30.8911C34.0978 30.9167 34.144 30.9212 34.144 30.9212C34.144 30.9212 34.1161 30.8842 34.0704 30.8587Z" fill="#999999"/>
<path d="M33.7933 31.0401C33.839 31.0656 33.885 31.0699 33.885 31.0699C33.885 31.0699 33.8571 31.033 33.8113 31.0074C33.7656 30.9819 33.7196 30.9775 33.7196 30.9775C33.7196 30.9775 33.7475 31.0145 33.7933 31.0401Z" fill="#999999"/>
<path d="M34.1549 31.2481C34.2006 31.2736 34.2468 31.278 34.2468 31.278C34.2468 31.278 34.2189 31.241 34.1732 31.2154C34.1274 31.1899 34.0812 31.1855 34.0812 31.1855C34.0812 31.1855 34.1092 31.2225 34.1549 31.2481Z" fill="#999999"/>
<path d="M33.9678 31.1199C33.9422 31.1656 33.9377 31.2118 33.9377 31.2118C33.9377 31.2118 33.9747 31.1839 34.0002 31.1381C34.0257 31.0924 34.0303 31.0464 34.0303 31.0464C34.0303 31.0464 33.9933 31.0742 33.9678 31.1199Z" fill="#999999"/>
<path d="M33.741 31.248C33.7155 31.2937 33.7111 31.3399 33.7111 31.3399C33.7111 31.3399 33.7481 31.312 33.7737 31.2662C33.7992 31.2205 33.8037 31.1743 33.8037 31.1743C33.8037 31.1743 33.7666 31.2023 33.741 31.248Z" fill="#999999"/>
<path d="M34.103 31.4558C34.0775 31.5016 34.0731 31.5478 34.0731 31.5478C34.0731 31.5478 34.1101 31.5198 34.1356 31.4741C34.1612 31.4284 34.1655 31.3823 34.1655 31.3823C34.1655 31.3823 34.1285 31.4101 34.103 31.4558Z" fill="#999999"/>
<path d="M33.9482 31.3463C33.9025 31.3208 33.8563 31.3164 33.8563 31.3164C33.8563 31.3164 33.8843 31.3534 33.93 31.3789C33.9757 31.4044 34.0217 31.4088 34.0217 31.4088C34.0217 31.4088 33.9939 31.3718 33.9482 31.3463Z" fill="#999999"/>
<path d="M34.2977 31.532C34.252 31.5065 34.2058 31.502 34.2058 31.502C34.2058 31.502 34.2337 31.539 34.2794 31.5645C34.3251 31.59 34.3713 31.5945 34.3713 31.5945C34.3713 31.5945 34.3434 31.5575 34.2977 31.532Z" fill="#999999"/>
<path d="M33.8296 31.5724C33.804 31.6181 33.7997 31.6641 33.7997 31.6641C33.7997 31.6641 33.8367 31.6362 33.8622 31.5905C33.8877 31.5447 33.8921 31.4985 33.8921 31.4985C33.8921 31.4985 33.8551 31.5266 33.8296 31.5724Z" fill="#999999"/>
<path d="M34.1914 31.7802C34.1659 31.8259 34.1615 31.8721 34.1615 31.8721C34.1615 31.8721 34.1985 31.8442 34.224 31.7985C34.2495 31.7527 34.2539 31.7065 34.2539 31.7065C34.2539 31.7065 34.2169 31.7345 34.1914 31.7802Z" fill="#999999"/>
<path d="M34.0362 31.67C33.9905 31.6445 33.9443 31.6401 33.9443 31.6401C33.9443 31.6401 33.9722 31.6771 34.0179 31.7027C34.0637 31.7282 34.1099 31.7325 34.1099 31.7325C34.1099 31.7325 34.0819 31.6955 34.0362 31.67Z" fill="#999999"/>
<path d="M33.7599 31.8524C33.8056 31.8779 33.8518 31.8824 33.8518 31.8824C33.8518 31.8824 33.8239 31.8455 33.7781 31.8199C33.7324 31.7944 33.6862 31.79 33.6862 31.79C33.6862 31.79 33.7142 31.8269 33.7599 31.8524Z" fill="#999999"/>
<path d="M34.1217 32.0601C34.1674 32.0856 34.2136 32.0901 34.2136 32.0901C34.2136 32.0901 34.1857 32.0531 34.14 32.0276C34.0942 32.0021 34.048 31.9976 34.048 31.9976C34.048 31.9976 34.076 32.0346 34.1217 32.0601Z" fill="#999999"/>
<path d="M33.9345 31.9321C33.909 31.9778 33.9045 32.024 33.9045 32.024C33.9045 32.024 33.9415 31.996 33.967 31.9503C33.9925 31.9046 33.9971 31.8584 33.9971 31.8584C33.9971 31.8584 33.9601 31.8863 33.9345 31.9321Z" fill="#999999"/>
<path d="M34.0698 32.2675C34.0443 32.3132 34.0399 32.3594 34.0399 32.3594C34.0399 32.3594 34.0769 32.3315 34.1024 32.2858C34.128 32.2401 34.1323 32.1938 34.1323 32.1938C34.1323 32.1938 34.0953 32.2218 34.0698 32.2675Z" fill="#999999"/>
<path d="M33.9151 32.1575C33.8694 32.132 33.8232 32.1274 33.8232 32.1274C33.8232 32.1274 33.8511 32.1644 33.8968 32.19C33.9426 32.2155 33.9888 32.22 33.9888 32.22C33.9888 32.22 33.9608 32.183 33.9151 32.1575Z" fill="#999999"/>
<path d="M34.2637 32.343C34.218 32.3175 34.1718 32.313 34.1718 32.313C34.1718 32.313 34.1998 32.35 34.2455 32.3755C34.2912 32.401 34.3374 32.4054 34.3374 32.4054C34.3374 32.4054 34.3095 32.3686 34.2637 32.343Z" fill="#999999"/>
<path d="M33.8296 32.3871C33.804 32.4329 33.7997 32.4791 33.7997 32.4791C33.7997 32.4791 33.8367 32.4511 33.8622 32.4054C33.8877 32.3597 33.8921 32.3135 33.8921 32.3135C33.8921 32.3135 33.8551 32.3414 33.8296 32.3871Z" fill="#999999"/>
<path d="M34.1914 32.5953C34.1659 32.641 34.1615 32.6871 34.1615 32.6871C34.1615 32.6871 34.1985 32.6591 34.224 32.6134C34.2495 32.5677 34.2539 32.5215 34.2539 32.5215C34.2539 32.5215 34.2169 32.5496 34.1914 32.5953Z" fill="#999999"/>
<path d="M34.0362 32.4855C33.9905 32.4599 33.9443 32.4556 33.9443 32.4556C33.9443 32.4556 33.9722 32.4926 34.0179 32.5181C34.0637 32.5436 34.1099 32.548 34.1099 32.548C34.1099 32.548 34.0819 32.511 34.0362 32.4855Z" fill="#999999"/>
<path d="M33.7596 32.6667C33.8054 32.6922 33.8516 32.6966 33.8516 32.6966C33.8516 32.6966 33.8236 32.6596 33.7779 32.6341C33.7322 32.6085 33.686 32.604 33.686 32.604C33.686 32.604 33.7139 32.6412 33.7596 32.6667Z" fill="#999999"/>
<path d="M34.1217 32.8755C34.1674 32.901 34.2136 32.9056 34.2136 32.9056C34.2136 32.9056 34.1857 32.8686 34.14 32.843C34.0942 32.8175 34.048 32.813 34.048 32.813C34.048 32.813 34.076 32.85 34.1217 32.8755Z" fill="#999999"/>
<path d="M33.9345 32.7475C33.909 32.7932 33.9045 32.8394 33.9045 32.8394C33.9045 32.8394 33.9415 32.8115 33.967 32.7657C33.9925 32.72 33.9971 32.6738 33.9971 32.6738C33.9971 32.6738 33.9601 32.7018 33.9345 32.7475Z" fill="#999999"/>
<path d="M34.0693 33.0823C34.0438 33.128 34.0394 33.1742 34.0394 33.1742C34.0394 33.1742 34.0764 33.1463 34.1019 33.1005C34.1275 33.0548 34.1318 33.0088 34.1318 33.0088C34.1318 33.0088 34.0948 33.0366 34.0693 33.0823Z" fill="#999999"/>
<path d="M33.9149 32.9724C33.8691 32.9469 33.8229 32.9424 33.8229 32.9424C33.8229 32.9424 33.8509 32.9794 33.8966 33.0049C33.9423 33.0304 33.9885 33.035 33.9885 33.035C33.9885 33.035 33.9606 32.998 33.9149 32.9724Z" fill="#999999"/>
<path d="M34.2635 33.1583C34.2178 33.1328 34.1716 33.1284 34.1716 33.1284C34.1716 33.1284 34.1995 33.1654 34.2452 33.1909C34.291 33.2165 34.3372 33.2208 34.3372 33.2208C34.3372 33.2208 34.3092 33.1838 34.2635 33.1583Z" fill="#999999"/>
<path d="M33.8296 33.2019C33.804 33.2476 33.7997 33.2938 33.7997 33.2938C33.7997 33.2938 33.8367 33.2659 33.8622 33.2202C33.8877 33.1745 33.8921 33.1284 33.8921 33.1284C33.8921 33.1284 33.8551 33.1562 33.8296 33.2019Z" fill="#999999"/>
<path d="M34.1914 33.4101C34.1659 33.4558 34.1615 33.502 34.1615 33.502C34.1615 33.502 34.1985 33.4741 34.224 33.4283C34.2495 33.3826 34.2539 33.3364 34.2539 33.3364C34.2539 33.3364 34.2169 33.3644 34.1914 33.4101Z" fill="#999999"/>
<path d="M34.0362 33.3001C33.9905 33.2745 33.9443 33.27 33.9443 33.27C33.9443 33.27 33.9722 33.307 34.0179 33.3325C34.0637 33.3581 34.1099 33.3624 34.1099 33.3624C34.1099 33.3624 34.0819 33.3256 34.0362 33.3001Z" fill="#999999"/>
<path d="M33.7599 33.481C33.8056 33.5065 33.8518 33.5109 33.8518 33.5109C33.8518 33.5109 33.8239 33.4739 33.7781 33.4483C33.7324 33.4228 33.6862 33.4185 33.6862 33.4185C33.6862 33.4185 33.7142 33.4555 33.7599 33.481Z" fill="#999999"/>
<path d="M34.1217 33.6891C34.1674 33.7147 34.2136 33.719 34.2136 33.719C34.2136 33.719 34.1857 33.682 34.14 33.6565C34.0942 33.631 34.048 33.6265 34.048 33.6265C34.048 33.6265 34.076 33.6636 34.1217 33.6891Z" fill="#999999"/>
<path d="M33.9345 33.5606C33.909 33.6064 33.9045 33.6524 33.9045 33.6524C33.9045 33.6524 33.9415 33.6245 33.967 33.5787C33.9925 33.533 33.9971 33.4868 33.9971 33.4868C33.9971 33.4868 33.9601 33.5149 33.9345 33.5606Z" fill="#999999"/>
<path d="M34.0696 33.8969C34.044 33.9426 34.0397 33.9888 34.0397 33.9888C34.0397 33.9888 34.0767 33.9609 34.1022 33.9152C34.1277 33.8694 34.1321 33.8232 34.1321 33.8232C34.1321 33.8232 34.0951 33.8512 34.0696 33.8969Z" fill="#999999"/>
<path d="M33.9153 33.7859C33.8696 33.7604 33.8234 33.7559 33.8234 33.7559C33.8234 33.7559 33.8514 33.7929 33.8971 33.8184C33.9428 33.8439 33.989 33.8484 33.989 33.8484C33.989 33.8484 33.9611 33.8114 33.9153 33.7859Z" fill="#999999"/>
<path d="M34.2637 33.9713C34.218 33.9458 34.1718 33.9414 34.1718 33.9414C34.1718 33.9414 34.1998 33.9784 34.2455 34.0039C34.2912 34.0294 34.3374 34.0338 34.3374 34.0338C34.3374 34.0338 34.3095 33.997 34.2637 33.9713Z" fill="#999999"/>
<path d="M33.8293 34.0156C33.8038 34.0613 33.7994 34.1075 33.7994 34.1075C33.7994 34.1075 33.8364 34.0795 33.862 34.0338C33.8875 33.9881 33.8918 33.9419 33.8918 33.9419C33.8918 33.9419 33.8549 33.9698 33.8293 34.0156Z" fill="#999999"/>
<path d="M34.1911 34.2234C34.1656 34.2691 34.1613 34.3153 34.1613 34.3153C34.1613 34.3153 34.1983 34.2874 34.2238 34.2417C34.2493 34.1959 34.2537 34.1499 34.2537 34.1499C34.2537 34.1499 34.2167 34.1777 34.1911 34.2234Z" fill="#999999"/>
<path d="M34.036 34.1135C33.9902 34.088 33.944 34.0835 33.944 34.0835C33.944 34.0835 33.972 34.1205 34.0177 34.146C34.0634 34.1715 34.1096 34.1759 34.1096 34.1759C34.1096 34.1759 34.0817 34.1391 34.036 34.1135Z" fill="#999999"/>
<path d="M33.7596 34.2954C33.8054 34.321 33.8516 34.3253 33.8516 34.3253C33.8516 34.3253 33.8236 34.2883 33.7779 34.2628C33.7322 34.2373 33.686 34.2329 33.686 34.2329C33.686 34.2329 33.7139 34.2699 33.7596 34.2954Z" fill="#999999"/>
<path d="M34.1215 34.5034C34.1672 34.529 34.2134 34.5333 34.2134 34.5333C34.2134 34.5333 34.1854 34.4963 34.1397 34.4708C34.094 34.4453 34.0478 34.4409 34.0478 34.4409C34.0478 34.4409 34.0757 34.4779 34.1215 34.5034Z" fill="#999999"/>
<path d="M33.9343 34.3754C33.9088 34.4211 33.9043 34.4673 33.9043 34.4673C33.9043 34.4673 33.9413 34.4394 33.9668 34.3937C33.9923 34.348 33.9968 34.3018 33.9968 34.3018C33.9968 34.3018 33.9598 34.3297 33.9343 34.3754Z" fill="#999999"/>
<path d="M34.0693 34.7118C34.0438 34.7576 34.0394 34.8038 34.0394 34.8038C34.0394 34.8038 34.0764 34.7758 34.1019 34.7301C34.1275 34.6844 34.1318 34.6382 34.1318 34.6382C34.1318 34.6382 34.0948 34.6661 34.0693 34.7118Z" fill="#999999"/>
<path d="M33.9149 34.6007C33.8691 34.5752 33.8229 34.5708 33.8229 34.5708C33.8229 34.5708 33.8509 34.6078 33.8966 34.6333C33.9423 34.6588 33.9885 34.6632 33.9885 34.6632C33.9885 34.6632 33.9606 34.6262 33.9149 34.6007Z" fill="#999999"/>
<path d="M34.2635 34.7872C34.2178 34.7617 34.1716 34.7573 34.1716 34.7573C34.1716 34.7573 34.1995 34.7943 34.2452 34.8198C34.291 34.8454 34.3372 34.8497 34.3372 34.8497C34.3372 34.8497 34.3092 34.8129 34.2635 34.7872Z" fill="#999999"/>
<path d="M33.8296 34.831C33.804 34.8767 33.7997 34.9229 33.7997 34.9229C33.7997 34.9229 33.8367 34.895 33.8622 34.8492C33.8877 34.8035 33.8921 34.7573 33.8921 34.7573C33.8921 34.7573 33.8551 34.7853 33.8296 34.831Z" fill="#999999"/>
<path d="M34.1914 35.039C34.1659 35.0847 34.1615 35.1309 34.1615 35.1309C34.1615 35.1309 34.1985 35.103 34.224 35.0573C34.2495 35.0115 34.2539 34.9653 34.2539 34.9653C34.2539 34.9653 34.2169 34.9933 34.1914 35.039Z" fill="#999999"/>
<path d="M34.0362 34.929C33.9905 34.9034 33.9443 34.8989 33.9443 34.8989C33.9443 34.8989 33.9722 34.9359 34.0179 34.9614C34.0637 34.987 34.1099 34.9915 34.1099 34.9915C34.1099 34.9915 34.0819 34.9545 34.0362 34.929Z" fill="#999999"/>
<path d="M33.7596 35.1102C33.8054 35.1357 33.8516 35.1403 33.8516 35.1403C33.8516 35.1403 33.8236 35.1033 33.7779 35.0777C33.7322 35.0522 33.686 35.0479 33.686 35.0479C33.686 35.0479 33.7139 35.0847 33.7596 35.1102Z" fill="#999999"/>
<path d="M34.1215 35.3179C34.1672 35.3434 34.2134 35.3478 34.2134 35.3478C34.2134 35.3478 34.1854 35.3108 34.1397 35.2853C34.094 35.2597 34.0478 35.2554 34.0478 35.2554C34.0478 35.2554 34.0757 35.2924 34.1215 35.3179Z" fill="#999999"/>
<path d="M33.9343 35.1902C33.9088 35.2359 33.9043 35.2821 33.9043 35.2821C33.9043 35.2821 33.9413 35.2542 33.9668 35.2085C33.9923 35.1627 33.9968 35.1167 33.9968 35.1167C33.9968 35.1167 33.9598 35.1445 33.9343 35.1902Z" fill="#999999"/>
<path d="M34.0693 35.5258C34.0438 35.5715 34.0394 35.6177 34.0394 35.6177C34.0394 35.6177 34.0764 35.5898 34.1019 35.5441C34.1275 35.4984 34.1318 35.4521 34.1318 35.4521C34.1318 35.4521 34.0948 35.4801 34.0693 35.5258Z" fill="#999999"/>
<path d="M33.9151 35.4161C33.8694 35.3906 33.8232 35.3862 33.8232 35.3862C33.8232 35.3862 33.8511 35.4232 33.8968 35.4487C33.9426 35.4743 33.9888 35.4788 33.9888 35.4788C33.9888 35.4788 33.9608 35.4416 33.9151 35.4161Z" fill="#999999"/>
<path d="M34.2635 35.6008C34.2178 35.5753 34.1716 35.5708 34.1716 35.5708C34.1716 35.5708 34.1995 35.6078 34.2452 35.6333C34.291 35.6588 34.3372 35.6634 34.3372 35.6634C34.3372 35.6634 34.3092 35.6264 34.2635 35.6008Z" fill="#999999"/>
<path d="M33.8296 35.6456C33.804 35.6913 33.7997 35.7374 33.7997 35.7374C33.7997 35.7374 33.8367 35.7094 33.8622 35.6637C33.8877 35.618 33.8921 35.5718 33.8921 35.5718C33.8921 35.5718 33.8551 35.5999 33.8296 35.6456Z" fill="#999999"/>
<path d="M34.1914 35.8539C34.1659 35.8997 34.1615 35.9459 34.1615 35.9459C34.1615 35.9459 34.1985 35.9179 34.224 35.8722C34.2495 35.8265 34.2539 35.7803 34.2539 35.7803C34.2539 35.7803 34.2169 35.8084 34.1914 35.8539Z" fill="#999999"/>
<path d="M34.0364 35.7429C33.9907 35.7174 33.9445 35.7129 33.9445 35.7129C33.9445 35.7129 33.9725 35.7499 34.0182 35.7754C34.0639 35.8009 34.1101 35.8053 34.1101 35.8053C34.1101 35.8053 34.0822 35.7685 34.0364 35.7429Z" fill="#999999"/>
<path d="M33.7599 35.9245C33.8056 35.95 33.8518 35.9544 33.8518 35.9544C33.8518 35.9544 33.8239 35.9174 33.7781 35.8919C33.7324 35.8663 33.6862 35.8618 33.6862 35.8618C33.6862 35.8618 33.7142 35.899 33.7599 35.9245Z" fill="#999999"/>
<path d="M34.1217 36.1322C34.1674 36.1577 34.2136 36.1622 34.2136 36.1622C34.2136 36.1622 34.1857 36.1252 34.14 36.0997C34.0942 36.0742 34.048 36.0698 34.048 36.0698C34.048 36.0698 34.076 36.1067 34.1217 36.1322Z" fill="#999999"/>
<path d="M33.9345 36.0045C33.909 36.0502 33.9045 36.0963 33.9045 36.0963C33.9045 36.0963 33.9415 36.0683 33.967 36.0226C33.9925 35.9769 33.9971 35.9307 33.9971 35.9307C33.9971 35.9307 33.9601 35.9588 33.9345 36.0045Z" fill="#999999"/>
<path d="M34.0696 36.3395C34.044 36.3852 34.0397 36.4312 34.0397 36.4312C34.0397 36.4312 34.0767 36.4033 34.1022 36.3575C34.1277 36.3118 34.1321 36.2656 34.1321 36.2656C34.1321 36.2656 34.0951 36.2937 34.0696 36.3395Z" fill="#999999"/>
<path d="M33.9151 36.2301C33.8694 36.2046 33.8232 36.2002 33.8232 36.2002C33.8232 36.2002 33.8511 36.2372 33.8968 36.2627C33.9426 36.2882 33.9888 36.2926 33.9888 36.2926C33.9888 36.2926 33.9608 36.2556 33.9151 36.2301Z" fill="#999999"/>
<path d="M34.2637 36.4158C34.218 36.3903 34.1718 36.3857 34.1718 36.3857C34.1718 36.3857 34.1998 36.4227 34.2455 36.4483C34.2912 36.4738 34.3374 36.4783 34.3374 36.4783C34.3374 36.4783 34.3095 36.4413 34.2637 36.4158Z" fill="#999999"/>
<path d="M33.8293 36.4594C33.8038 36.5051 33.7994 36.5513 33.7994 36.5513C33.7994 36.5513 33.8364 36.5234 33.862 36.4777C33.8875 36.4319 33.8918 36.3857 33.8918 36.3857C33.8918 36.3857 33.8549 36.4137 33.8293 36.4594Z" fill="#999999"/>
<path d="M34.1914 36.6669C34.1659 36.7127 34.1615 36.7589 34.1615 36.7589C34.1615 36.7589 34.1985 36.7309 34.224 36.6852C34.2495 36.6395 34.2539 36.5933 34.2539 36.5933C34.2539 36.5933 34.2169 36.6214 34.1914 36.6669Z" fill="#999999"/>
<path d="M34.036 36.5577C33.9902 36.5322 33.944 36.5278 33.944 36.5278C33.944 36.5278 33.972 36.5648 34.0177 36.5904C34.0634 36.6159 34.1096 36.6204 34.1096 36.6204C34.1096 36.6204 34.0817 36.5832 34.036 36.5577Z" fill="#999999"/>
<path d="M33.7596 36.7393C33.8054 36.7648 33.8516 36.7693 33.8516 36.7693C33.8516 36.7693 33.8236 36.7323 33.7779 36.7068C33.7322 36.6813 33.686 36.6768 33.686 36.6768C33.686 36.6768 33.7139 36.7138 33.7596 36.7393Z" fill="#999999"/>
<path d="M34.1215 36.9473C34.1672 36.9728 34.2134 36.9773 34.2134 36.9773C34.2134 36.9773 34.1854 36.9403 34.1397 36.9148C34.094 36.8893 34.0478 36.8848 34.0478 36.8848C34.0478 36.8848 34.0757 36.9218 34.1215 36.9473Z" fill="#999999"/>
<path d="M33.9343 36.8193C33.9088 36.865 33.9043 36.9112 33.9043 36.9112C33.9043 36.9112 33.9413 36.8832 33.9668 36.8375C33.9923 36.7918 33.9968 36.7456 33.9968 36.7456C33.9968 36.7456 33.9598 36.7736 33.9343 36.8193Z" fill="#999999"/>
<path d="M33.9151 37.0447C33.8694 37.0192 33.8232 37.0146 33.8232 37.0146C33.8232 37.0146 33.8511 37.0516 33.8968 37.0772C33.9426 37.1027 33.9888 37.1072 33.9888 37.1072C33.9888 37.1072 33.9608 37.0702 33.9151 37.0447Z" fill="#999999"/>
</g>
<path d="M31.3013 45.6255L31.5544 45.6255C31.5824 45.6255 31.605 45.6481 31.605 45.6761L31.605 45.7861C31.605 45.814 31.5824 45.8366 31.5544 45.8366L31.3013 45.8366C31.2733 45.8366 31.2507 45.814 31.2507 45.7861L31.2507 45.6761C31.2509 45.6481 31.2735 45.6255 31.3013 45.6255Z" fill="url(#paint3_linear_652_1195)"/>
<path d="M30.81 45.6255L30.6066 45.6255C30.5649 45.6255 30.5313 45.6593 30.5313 45.7008L30.5313 45.761C30.5313 45.8027 30.5651 45.8363 30.6066 45.8363L30.81 45.8363C30.8517 45.8363 30.8853 45.8025 30.8853 45.761L30.8853 45.7008C30.8854 45.6593 30.8517 45.6255 30.81 45.6255Z" fill="url(#paint4_linear_652_1195)"/>
<path d="M30.951 45.0259L31.1502 45.0265C31.272 45.027 31.3704 45.126 31.3699 45.2479L31.3675 45.9052C31.367 46.027 31.2679 46.1254 31.1461 46.1249L30.9469 46.1243C30.8251 46.1238 30.7267 46.0247 30.7272 45.9029L30.7297 45.2456C30.7301 45.1238 30.8292 45.0254 30.951 45.0259Z" fill="url(#paint5_linear_652_1195)"/>
<path d="M21.042 45.6255L21.2951 45.6255C21.3229 45.6255 21.3457 45.6481 21.3457 45.6761L21.3457 45.7861C21.3457 45.814 21.3231 45.8366 21.2951 45.8366L21.042 45.8366C21.014 45.8366 20.9914 45.814 20.9914 45.7861L20.9914 45.6761C20.9914 45.6481 21.014 45.6255 21.042 45.6255Z" fill="url(#paint6_linear_652_1195)"/>
<path d="M20.5509 45.6255L20.3475 45.6255C20.3059 45.6255 20.2723 45.6593 20.2723 45.7008L20.2723 45.761C20.2723 45.8027 20.306 45.8363 20.3475 45.8363L20.5509 45.8363C20.5926 45.8363 20.6262 45.8025 20.6262 45.761L20.6262 45.7008C20.6262 45.6593 20.5925 45.6255 20.5509 45.6255Z" fill="url(#paint7_linear_652_1195)"/>
<path d="M20.6917 45.0259L20.8909 45.0265C21.0127 45.027 21.1111 45.126 21.1106 45.2479L21.1082 45.9052C21.1077 46.027 21.0087 46.1254 20.8868 46.1249L20.6877 46.1243C20.5659 46.1238 20.4675 46.0247 20.468 45.9029L20.4704 45.2456C20.4707 45.1238 20.5699 45.0254 20.6917 45.0259Z" fill="url(#paint8_linear_652_1195)"/>
<path d="M18.1499 30.6226L33.7256 30.6226L33.7256 44.5192C33.7256 45.0657 33.2826 45.5085 32.7363 45.5085L19.1394 45.5085C18.5929 45.5085 18.1499 45.0656 18.1499 44.5192L18.1499 30.6226Z" fill="#E1E2DD"/>
<path d="M19.6266 45.5086L32.249 45.5086C33.0645 45.5086 33.7256 44.8476 33.7256 44.0321L33.7256 43.3608L18.1499 43.3608L18.1499 44.0321C18.1499 44.8476 18.8111 45.5086 19.6266 45.5086Z" fill="url(#paint9_linear_652_1195)"/>
<path d="M19.6266 45.5086L32.249 45.5086C33.0645 45.5086 33.7256 44.8476 33.7256 44.0321L33.7256 43.3608L18.1499 43.3608L18.1499 44.0321C18.1499 44.8476 18.8111 45.5086 19.6266 45.5086Z" fill="url(#paint10_linear_652_1195)"/>
<path opacity="0.2" d="M19.8384 45.1437L32.0377 45.1437C32.8259 45.1437 33.4648 44.4826 33.4648 43.6671L33.4648 43.3608L18.4115 43.3608L18.4115 43.6671C18.4113 44.4826 19.0502 45.1437 19.8384 45.1437Z" fill="black"/>
<path d="M33.2434 30.9199L33.2434 43.9382C33.2434 44.3062 32.945 44.6046 32.577 44.6046L19.2984 44.6046C18.9304 44.6046 18.632 44.3062 18.632 43.9382L18.632 30.9199L33.2434 30.9199Z" fill="#F5F7EA"/>
<g opacity="0.1">
<path d="M33.2434 30.9199L33.2434 43.9382C33.2434 44.3062 32.945 44.6046 32.577 44.6046L19.2984 44.6046C18.9304 44.6046 18.632 44.3062 18.632 43.9382L18.632 30.9199L33.2434 30.9199Z" fill="url(#paint11_radial_652_1195)"/>
</g>
<g opacity="0.5">
<path d="M33.2434 30.9199L33.2434 43.9382C33.2434 44.3062 32.945 44.6046 32.577 44.6046L19.2984 44.6046C18.9304 44.6046 18.632 44.3062 18.632 43.9382L18.632 30.9199L33.2434 30.9199Z" fill="url(#paint12_linear_652_1195)"/>
</g>
<path opacity="0.3" d="M29.3991 44.6043L30.2497 44.6043L30.9844 34.8996L30.1338 34.8359L29.3991 44.6043Z" fill="url(#paint13_linear_652_1195)"/>
<path opacity="0.3" d="M22.4836 44.6043L21.6331 44.6043L20.8984 34.8996L21.7489 34.8359L22.4836 44.6043Z" fill="url(#paint14_linear_652_1195)"/>
<path d="M19.6267 45.0262L32.2491 45.0262C32.7974 45.0262 33.2434 44.5803 33.2434 44.0318L33.2434 43.6099C33.2434 44.159 32.7982 44.6044 32.2491 44.6044L19.6267 44.6044C19.0774 44.6044 18.6322 44.1591 18.6322 43.6099L18.6322 44.0318C18.6322 44.5803 19.0782 45.0262 19.6267 45.0262Z" fill="#CCCCCC"/>
<path opacity="0.4" d="M22.5427 44.9785L29.3984 44.9785L29.3984 44.9234L22.5427 44.9234L22.5427 44.9785Z" fill="#666666"/>
<path opacity="0.4" d="M22.5427 44.8848L29.3984 44.8848L29.3984 44.8297L22.5427 44.8297L22.5427 44.8848Z" fill="#666666"/>
<path opacity="0.4" d="M22.5427 44.791L29.3984 44.791L29.3984 44.7359L22.5427 44.7359L22.5427 44.791Z" fill="#666666"/>
<path opacity="0.4" d="M22.5424 44.6978L29.3982 44.6978L29.3982 44.6427L22.5424 44.6427L22.5424 44.6978Z" fill="#666666"/>
<path d="M32.2475 45.0267L32.2493 45.0267C32.7976 45.0267 33.2437 44.5808 33.2437 44.0323L33.2437 43.6104C33.2437 44.1595 32.7984 44.6049 32.2493 44.6049L32.2475 44.6049L32.2475 45.0267Z" fill="#FF6600"/>
<path d="M29.4374 44.6045L32.2495 44.6045L32.2495 45.0265L29.1586 45.0265L29.4374 44.6045Z" fill="#DCFFFE"/>
<path d="M32.2477 44.6421L29.4126 44.6421L29.3504 44.7361L32.2477 44.7361L32.2495 44.7361L32.2495 44.6421L32.2477 44.6421Z" fill="white"/>
<path opacity="0.4" d="M32.2493 44.7365C32.7976 44.7365 33.2437 44.2906 33.2437 43.7421L33.2437 43.6479C33.2437 44.1962 32.7976 44.6423 32.2493 44.6423L32.2475 44.6423L32.2475 44.7365L32.2493 44.7365Z" fill="white"/>
<path d="M33.2438 43.6479L33.3425 43.6479C33.3682 43.6479 33.3892 43.6803 33.3892 43.72L33.3892 43.9977C33.3892 44.0374 33.3683 44.0698 33.3425 44.0698L33.2438 44.0698L33.2438 43.6479Z" fill="#FF6600"/>
<path d="M19.6458 45.0267L19.644 45.0267C19.0957 45.0267 18.6496 44.5808 18.6496 44.0323L18.6496 43.6104C18.6496 44.1595 19.0949 44.6049 19.644 44.6049L19.6458 44.6049L19.6458 45.0267Z" fill="#FF6600"/>
<path d="M22.4562 44.6045L19.6441 44.6045L19.6441 45.0265L22.7349 45.0265L22.4562 44.6045Z" fill="#DCFFFE"/>
<path d="M19.6458 44.6421L22.481 44.6421L22.5432 44.7361L19.6458 44.7361L19.6441 44.7361L19.6441 44.6421L19.6458 44.6421Z" fill="white"/>
<path opacity="0.4" d="M19.644 44.7365C19.0957 44.7365 18.6496 44.2906 18.6496 43.7421L18.6496 43.6479C18.6496 44.1962 19.0957 44.6423 19.644 44.6423L19.6458 44.6423L19.6458 44.7365L19.644 44.7365Z" fill="white"/>
<path d="M18.6499 43.6479L18.5512 43.6479C18.5255 43.6479 18.5045 43.6803 18.5045 43.72L18.5045 43.9977C18.5045 44.0374 18.5253 44.0698 18.5512 44.0698L18.6499 44.0698L18.6499 43.6479Z" fill="#FF6600"/>
<path d="M31.9506 33.6927C30.3952 33.9207 23.5048 34.4635 20.107 33.7413C19.7697 33.6696 19.4301 33.8452 19.293 34.1615L18.6786 38.3568C18.5374 38.6825 18.7077 39.0579 19.0468 39.1631C20.7771 39.7001 25.9605 40.9313 32.8102 39.103C33.1538 39.0113 33.3363 38.635 33.2031 38.3053L32.727 34.1396C32.6018 33.8294 32.2818 33.6443 31.9506 33.6927Z" fill="#F4F4F4"/>
<path opacity="0.5" d="M31.9506 33.6927C30.3952 33.9207 23.5048 34.4635 20.107 33.7413C19.7697 33.6696 19.4301 33.8452 19.293 34.1615L18.6786 38.3568C18.5374 38.6825 18.7077 39.0579 19.0468 39.1631C20.7771 39.7001 25.9605 40.9313 32.8102 39.103C33.1538 39.0113 33.3363 38.635 33.2031 38.3053L32.727 34.1396C32.6018 33.8294 32.2818 33.6443 31.9506 33.6927Z" fill="url(#paint15_linear_652_1195)"/>
<path d="M32.0555 33.9775C32.2318 33.9775 32.3886 34.0842 32.4554 34.2489L32.9314 38.4147C32.9642 38.4961 32.9605 38.588 32.9213 38.6665C32.8828 38.7434 32.8164 38.798 32.7343 38.8201C30.3581 39.4544 27.9572 39.776 25.5983 39.776C22.4756 39.776 20.2074 39.2167 19.1333 38.8833C19.0506 38.8576 18.9851 38.8004 18.9491 38.7218C18.9126 38.6423 18.9118 38.5542 18.947 38.473L19.5614 34.2779C19.6299 34.12 19.7846 34.0179 19.9557 34.0179C19.9858 34.0179 20.016 34.0212 20.046 34.0276C21.1966 34.272 23.7789 34.396 25.3442 34.396C27.6236 34.396 30.9384 34.1368 31.9928 33.9822C32.014 33.979 32.0348 33.9775 32.0555 33.9775Z" fill="black"/>
<path d="M32.0555 34.1245C32.1718 34.1245 32.2754 34.1951 32.3195 34.3043L32.7956 38.47C32.819 38.528 32.8023 38.5773 32.7902 38.6015C32.7763 38.6293 32.7489 38.665 32.6965 38.6791C30.3326 39.3101 27.9444 39.6301 25.5983 39.6301C22.4948 39.6301 20.2428 39.0749 19.1767 38.744C19.1192 38.7262 19.0927 38.6846 19.0821 38.6613C19.0712 38.6372 19.0565 38.5889 19.0813 38.5317L19.6956 34.3363C19.7409 34.2323 19.843 34.1647 19.9557 34.1647C19.9756 34.1647 19.9956 34.167 20.0155 34.171C21.1761 34.4179 23.7687 34.5428 25.3442 34.5428C27.6328 34.5428 30.9557 34.2825 32.014 34.1276C32.0279 34.1256 32.0418 34.1245 32.0555 34.1245Z" fill="#676B86"/>
<path opacity="0.2" d="M32.6656 37.3325C30.9607 37.7469 28.4101 38.0794 25.9376 38.0794C23.4911 38.0794 20.9551 37.7391 19.2569 37.3325L19.0813 38.5317C19.0566 38.5889 19.0713 38.6372 19.0821 38.6613C19.0928 38.6844 19.1193 38.7262 19.1768 38.744C20.2428 39.0748 22.4948 39.6301 25.5983 39.6301C27.9445 39.6301 30.3326 39.31 32.6966 38.679C32.7489 38.665 32.7764 38.6293 32.7903 38.6015C32.8022 38.5773 32.819 38.528 32.7956 38.47L32.6656 37.3325Z" fill="black"/>
<path d="M32.7625 38.3877C30.9368 38.8386 28.5509 39.1122 25.9376 39.1122C23.3376 39.1122 20.9629 38.8413 19.1408 38.3946L19.0813 38.5318C19.0566 38.589 19.0713 38.6373 19.0821 38.6614C19.0928 38.6845 19.1193 38.7263 19.1768 38.7441C20.2428 39.0749 22.4948 39.6302 25.5983 39.6302C27.9445 39.6302 30.3326 39.3101 32.6966 38.6791C32.7489 38.6651 32.7764 38.6294 32.7903 38.6016C32.8022 38.5774 32.819 38.5281 32.7956 38.4701L32.7625 38.3877Z" fill="#333333"/>
<path d="M30.5488 38.4594L28.64 38.8569L28.6225 38.7614L30.5403 38.4116L30.5488 38.4594Z" fill="black"/>
<path d="M25.9769 39.2446L28.5845 38.769L28.4556 38.8913L25.9944 39.3401L25.9769 39.2446Z" fill="black"/>
<path d="M30.4288 38.4072L25.8746 39.2363L25.8839 39.2872L30.5449 38.4371L30.4288 38.4072Z" fill="#333333"/>
<path d="M25.992 39.266C26.0052 39.339 25.9569 39.409 25.8839 39.4222C25.8109 39.4355 25.7409 39.3872 25.7277 39.3142C25.7144 39.2411 25.7627 39.1712 25.8357 39.1579C25.9088 39.1447 25.9787 39.193 25.992 39.266Z" fill="black"/>
<path d="M25.9875 39.2422C25.9983 39.3019 25.9587 39.3593 25.8989 39.3701C25.8392 39.3811 25.7818 39.3414 25.771 39.2816C25.76 39.2218 25.7998 39.1645 25.8595 39.1536C25.9193 39.1428 25.9767 39.1824 25.9875 39.2422Z" fill="#333333"/>
<path d="M26.3184 38.6733L24.3793 38.8777L24.3714 38.7809L26.3145 38.625L26.3184 38.6733Z" fill="black"/>
<path d="M21.6906 38.9956L24.3328 38.7837L24.1921 38.8923L21.6984 39.0924L21.6906 38.9956Z" fill="black"/>
<path d="M26.2036 38.6099L21.5893 38.9787L21.5935 39.0304L26.3162 38.6512L26.2036 38.6099Z" fill="#333333"/>
<path d="M21.7034 39.0195C21.7094 39.0935 21.6541 39.1581 21.5803 39.1641C21.5063 39.1701 21.4417 39.1149 21.4357 39.041C21.4298 38.967 21.485 38.9024 21.5588 38.8964C21.6327 38.8905 21.6974 38.9455 21.7034 39.0195Z" fill="black"/>
<path d="M21.7018 38.9957C21.7066 39.0563 21.6616 39.1093 21.601 39.1143C21.5404 39.1191 21.4874 39.0739 21.4826 39.0133C21.4777 38.9527 21.5228 38.8997 21.5834 38.8949C21.644 38.89 21.6969 38.9351 21.7018 38.9957Z" fill="#333333"/>
<path opacity="0.5" d="M32.0555 34.1245C32.1718 34.1245 32.2754 34.1951 32.3195 34.3043L32.7956 38.47C32.819 38.528 32.8023 38.5773 32.7902 38.6015C32.7763 38.6293 32.7489 38.665 32.6965 38.6791C30.3326 39.3101 27.9444 39.6301 25.5983 39.6301C22.4948 39.6301 20.2428 39.0749 19.1767 38.744C19.1192 38.7262 19.0927 38.6846 19.0821 38.6613C19.0712 38.6372 19.0565 38.5889 19.0813 38.5317L19.6956 34.3363C19.7409 34.2323 19.843 34.1647 19.9557 34.1647C19.9756 34.1647 19.9956 34.167 20.0155 34.171C21.1761 34.4179 23.7687 34.5428 25.3442 34.5428C27.6328 34.5428 30.9557 34.2825 32.014 34.1276C32.0279 34.1256 32.0418 34.1245 32.0555 34.1245Z" fill="url(#paint16_radial_652_1195)"/>
<path opacity="0.3" d="M32.0555 34.1245C32.1718 34.1245 32.2754 34.1951 32.3195 34.3043L32.7956 38.47C32.819 38.528 32.8023 38.5773 32.7902 38.6015C32.7763 38.6293 32.7489 38.665 32.6965 38.6791C30.3326 39.3101 27.9444 39.6301 25.5983 39.6301C22.4948 39.6301 20.2428 39.0749 19.1767 38.744C19.1192 38.7262 19.0927 38.6846 19.0821 38.6613C19.0712 38.6372 19.0565 38.5889 19.0813 38.5317L19.6956 34.3363C19.7409 34.2323 19.843 34.1647 19.9557 34.1647C19.9756 34.1647 19.9956 34.167 20.0155 34.171C21.1761 34.4179 23.7687 34.5428 25.3442 34.5428C27.6328 34.5428 30.9557 34.2825 32.014 34.1276C32.0279 34.1256 32.0418 34.1245 32.0555 34.1245Z" fill="url(#paint17_radial_652_1195)"/>
<path d="M33.2501 30.917C33.2433 30.917 33.2364 30.9181 33.2294 30.9199L32.5579 30.917C32.4886 30.9375 32.4362 31.0608 32.4362 31.2036L32.4362 33.1431C32.4362 33.1821 32.4399 33.22 32.4474 33.2559L33.169 38.6342C33.1818 38.6961 33.21 38.7345 33.2428 38.7345C33.2881 38.7345 33.3236 38.6625 33.3236 38.5704L33.3921 31.2065C33.3921 31.1285 33.3772 31.0556 33.3499 31.0008C33.3231 30.9466 33.2876 30.917 33.2501 30.917Z" fill="#F4F4F4"/>
<path opacity="0.5" d="M33.2501 30.917C33.2433 30.917 33.2364 30.9181 33.2294 30.9199L32.5579 30.917C32.4886 30.9375 32.4362 31.0608 32.4362 31.2036L32.4362 33.1431C32.4362 33.1821 32.4399 33.22 32.4474 33.2559L33.169 38.6342C33.1818 38.6961 33.21 38.7345 33.2428 38.7345C33.2881 38.7345 33.3236 38.6625 33.3236 38.5704L33.3921 31.2065C33.3921 31.1285 33.3772 31.0556 33.3499 31.0008C33.3231 30.9466 33.2876 30.917 33.2501 30.917Z" fill="url(#paint18_linear_652_1195)"/>
<path d="M33.2183 38.5919L32.4966 33.2134C32.492 33.1911 32.4897 33.1672 32.4897 33.143L32.4897 31.2036C32.4897 31.1136 32.5222 31.0373 32.5658 31.0244L33.2373 31.0273C33.291 31.0113 33.3391 31.0961 33.3391 31.2065L33.2706 38.5704C33.2705 38.6306 33.2297 38.6473 33.2183 38.5919Z" fill="black"/>
<path d="M33.2447 31.1347L32.5731 31.1318C32.5557 31.1368 32.5426 31.1677 32.5426 31.2036L32.5426 33.1431C32.5426 33.1528 32.5436 33.1622 32.5453 33.1711L33.2169 38.308L33.2854 31.2065C33.2854 31.1869 33.2817 31.1687 33.2749 31.1549C33.2681 31.1414 33.2592 31.1339 33.2499 31.1339L33.2447 31.1347Z" fill="#676B86"/>
<path opacity="0.2" d="M33.0236 31.2008L33.2448 31.1351L33.2501 31.1343C33.2595 31.1343 33.2684 31.1417 33.2751 31.1553C33.2819 31.169 33.2856 31.1873 33.2856 31.2068L33.2172 38.3084L33.1021 35.8544L33.0236 31.2008Z" fill="black"/>
<path opacity="0.5" d="M33.2447 31.1347L32.5731 31.1318C32.5557 31.1368 32.5426 31.1677 32.5426 31.2036L32.5426 33.1431C32.5426 33.1528 32.5436 33.1622 32.5453 33.1711L33.2169 38.308L33.2854 31.2065C33.2854 31.1869 33.2817 31.1687 33.2749 31.1549C33.2681 31.1414 33.2592 31.1339 33.2499 31.1339L33.2447 31.1347Z" fill="url(#paint19_linear_652_1195)"/>
<path opacity="0.3" d="M33.2447 31.1347L32.5731 31.1318C32.5557 31.1368 32.5426 31.1677 32.5426 31.2036L32.5426 33.1431C32.5426 33.1528 32.5436 33.1622 32.5453 33.1711L33.2169 38.308L33.2854 31.2065C33.2854 31.1869 33.2817 31.1687 33.2749 31.1549C33.2681 31.1414 33.2592 31.1339 33.2499 31.1339L33.2447 31.1347Z" fill="url(#paint20_linear_652_1195)"/>
<path d="M18.5853 30.918C18.5921 30.918 18.599 30.9191 18.606 30.9209L19.2775 30.918C19.3468 30.9385 19.3992 31.0618 19.3992 31.2046L19.3992 33.1441C19.3992 33.1831 19.3955 33.221 19.3879 33.2569L18.6662 38.6352C18.6533 38.6971 18.6252 38.7355 18.5924 38.7355C18.5472 38.7355 18.5116 38.6635 18.5116 38.5714L18.4431 31.2075C18.4431 31.1294 18.458 31.0566 18.4851 31.0018C18.5123 30.9475 18.5478 30.918 18.5853 30.918Z" fill="#F4F4F4"/>
<path opacity="0.5" d="M18.5853 30.918C18.5921 30.918 18.599 30.9191 18.606 30.9209L19.2775 30.918C19.3468 30.9385 19.3992 31.0618 19.3992 31.2046L19.3992 33.1441C19.3992 33.1831 19.3955 33.221 19.3879 33.2569L18.6662 38.6352C18.6533 38.6971 18.6252 38.7355 18.5924 38.7355C18.5472 38.7355 18.5116 38.6635 18.5116 38.5714L18.4431 31.2075C18.4431 31.1294 18.458 31.0566 18.4851 31.0018C18.5123 30.9475 18.5478 30.918 18.5853 30.918Z" fill="url(#paint21_linear_652_1195)"/>
<path d="M18.6171 38.5928L19.3388 33.2144C19.3434 33.1921 19.3457 33.1682 19.3457 33.1439L19.3457 31.2046C19.3457 31.1146 19.3134 31.0383 19.2696 31.0254L18.5981 31.0283C18.5444 31.0123 18.4963 31.0971 18.4963 31.2075L18.5648 38.5714C18.5649 38.6316 18.6055 38.6483 18.6171 38.5928Z" fill="black"/>
<path d="M18.5906 31.1357L19.2622 31.1328C19.2796 31.1378 19.2927 31.1687 19.2927 31.2045L19.2927 33.1441C19.2927 33.1538 19.2918 33.1632 19.29 33.172L18.6184 38.309L18.5499 31.2074C18.5499 31.1879 18.5536 31.1696 18.5604 31.1559C18.5672 31.1423 18.5761 31.1349 18.5855 31.1349L18.5906 31.1357Z" fill="#676B86"/>
<path opacity="0.2" d="M18.8115 31.2013L18.5904 31.1356L18.585 31.1348C18.5757 31.1348 18.5668 31.1422 18.56 31.1558C18.5532 31.1695 18.5495 31.1878 18.5495 31.2073L18.618 38.3088L18.733 35.8549L18.8115 31.2013Z" fill="black"/>
<path opacity="0.5" d="M18.5906 31.1357L19.2622 31.1328C19.2796 31.1378 19.2927 31.1687 19.2927 31.2045L19.2927 33.1441C19.2927 33.1538 19.2918 33.1632 19.29 33.172L18.6184 38.309L18.5499 31.2074C18.5499 31.1879 18.5536 31.1696 18.5604 31.1559C18.5672 31.1423 18.5761 31.1349 18.5855 31.1349L18.5906 31.1357Z" fill="url(#paint22_linear_652_1195)"/>
<path opacity="0.3" d="M18.5906 31.1357L19.2622 31.1328C19.2796 31.1378 19.2927 31.1687 19.2927 31.2045L19.2927 33.1441C19.2927 33.1538 19.2918 33.1632 19.29 33.172L18.6184 38.309L18.5499 31.2074C18.5499 31.1879 18.5536 31.1696 18.5604 31.1559C18.5672 31.1423 18.5761 31.1349 18.5855 31.1349L18.5906 31.1357Z" fill="url(#paint23_linear_652_1195)"/>
<path d="M33.2429 37.7839L34.875 37.1548L34.875 37.4593C34.875 37.6026 34.7868 37.7312 34.653 37.7827L33.2429 38.3263L33.2429 37.7839Z" fill="#999999"/>
<path opacity="0.4" d="M33.2429 37.7463L34.875 37.1172L34.875 37.4217C34.875 37.565 34.7868 37.6936 34.653 37.7453L33.2429 38.2889L33.2429 37.7463Z" fill="url(#paint24_linear_652_1195)"/>
<path d="M33.7102 37.3573L34.7403 37.0217C34.8067 37.0001 34.8748 37.0495 34.8748 37.1193L34.8748 37.494L33.6391 37.8964L33.6391 37.455C33.6392 37.4106 33.668 37.3712 33.7102 37.3573Z" fill="#666666"/>
<path opacity="0.3" d="M33.7102 37.3573L34.7403 37.0217C34.8067 37.0001 34.8748 37.0495 34.8748 37.1193L34.8748 37.494L33.6391 37.8964L33.6391 37.455C33.6392 37.4106 33.668 37.3712 33.7102 37.3573Z" fill="url(#paint25_linear_652_1195)"/>
<path d="M18.5771 37.7839L16.945 37.1548L16.945 37.4593C16.945 37.6026 17.0332 37.7312 17.167 37.7827L18.5771 38.3263L18.5771 37.7839Z" fill="#999999"/>
<path opacity="0.4" d="M18.5771 37.7463L16.945 37.1172L16.945 37.4217C16.945 37.565 17.0332 37.6936 17.167 37.7453L18.5771 38.2889L18.5771 37.7463Z" fill="url(#paint26_linear_652_1195)"/>
<path d="M18.1097 37.3573L17.0796 37.0217C17.0132 37.0001 16.945 37.0495 16.945 37.1193L16.945 37.494L18.1807 37.8964L18.1807 37.455C18.1805 37.4106 18.1519 37.3712 18.1097 37.3573Z" fill="#666666"/>
<path opacity="0.3" d="M18.1097 37.3573L17.0796 37.0217C17.0132 37.0001 16.945 37.0495 16.945 37.1193L16.945 37.494L18.1807 37.8964L18.1807 37.455C18.1805 37.4106 18.1519 37.3712 18.1097 37.3573Z" fill="url(#paint27_linear_652_1195)"/>
<path opacity="0.7" d="M21.7951 31.2202L30.5647 31.2202L30.2421 32.2984L21.4724 32.2984L21.7951 31.2202Z" fill="url(#paint28_linear_652_1195)"/>
<path d="M21.6383 31.4858L30.2375 31.4858C30.4986 31.4858 30.7102 31.6975 30.7102 31.9585L30.7102 32.4613C30.7102 32.7223 30.4986 32.934 30.2375 32.934L21.6383 32.934C21.3772 32.934 21.1656 32.7223 21.1656 32.4613L21.1656 31.9585C21.1656 31.6975 21.3772 31.4858 21.6383 31.4858Z" fill="#999999"/>
<path d="M21.6384 32.9338L24.8765 32.9338L24.8765 31.4858L21.6384 31.4858C21.3773 31.4858 21.1657 31.6975 21.1657 31.9585L21.1657 32.4613C21.1657 32.7222 21.3773 32.9338 21.6384 32.9338Z" fill="#5D94FF"/>
<path opacity="0.5" d="M24.5315 31.8306L24.5315 32.5895L21.638 32.5895C21.5676 32.5895 21.5101 32.532 21.5101 32.4613L21.5101 31.9588C21.5101 31.8881 21.5674 31.8306 21.638 31.8306L24.5315 31.8306Z" fill="#5384E4"/>
<path d="M30.2375 32.9338L26.9994 32.9338L26.9994 31.4858L30.2375 31.4858C30.4986 31.4858 30.7102 31.6975 30.7102 31.9585L30.7102 32.4613C30.7102 32.7222 30.4986 32.9338 30.2375 32.9338Z" fill="#CC0000"/>
<path opacity="0.3" d="M30.2376 31.8306C30.3082 31.8306 30.3657 31.8881 30.3657 31.9588L30.3657 32.4613C30.3657 32.532 30.3084 32.5895 30.2376 32.5895L27.3441 32.5895L27.3441 31.8306L30.2376 31.8306Z" fill="#660000"/>
<path opacity="0.5" d="M21.6383 31.4858L30.2375 31.4858C30.4986 31.4858 30.7102 31.6975 30.7102 31.9585L30.7102 32.4613C30.7102 32.7223 30.4986 32.934 30.2375 32.934L21.6383 32.934C21.3772 32.934 21.1656 32.7223 21.1656 32.4613L21.1656 31.9585C21.1656 31.6975 21.3772 31.4858 21.6383 31.4858Z" fill="url(#paint29_radial_652_1195)"/>
<path opacity="0.5" d="M21.6383 31.4858L30.2375 31.4858C30.4986 31.4858 30.7102 31.6975 30.7102 31.9585L30.7102 32.4613C30.7102 32.7223 30.4986 32.934 30.2375 32.934L21.6383 32.934C21.3772 32.934 21.1656 32.7223 21.1656 32.4613L21.1656 31.9585C21.1656 31.6975 21.3772 31.4858 21.6383 31.4858Z" fill="url(#paint30_linear_652_1195)"/>
<path d="M21.8118 32.8138L30.0639 32.8138C30.3144 32.8138 30.5173 32.6282 30.5173 32.3993L30.5173 32.2104C30.5173 32.4394 30.3143 32.625 30.0639 32.625L21.8118 32.625C21.5614 32.625 21.3584 32.4394 21.3584 32.2104L21.3584 32.3993C21.3584 32.6282 21.5614 32.8138 21.8118 32.8138Z" fill="url(#paint31_linear_652_1195)"/>
<path d="M21.8118 31.6064L30.0639 31.6064C30.3144 31.6064 30.5173 31.7921 30.5173 32.021L30.5173 32.2098C30.5173 31.9809 30.3143 31.7953 30.0639 31.7953L21.8118 31.7953C21.5614 31.7953 21.3584 31.9809 21.3584 32.2098L21.3584 32.021C21.3584 31.7919 21.5614 31.6064 21.8118 31.6064Z" fill="url(#paint32_linear_652_1195)"/>
<path opacity="0.4" d="M30.5005 32.8531L30.3814 32.7112C30.3407 32.6629 30.3155 32.5704 30.3154 32.4699L30.3149 31.9502C30.3147 31.8494 30.3401 31.7563 30.3809 31.7079L30.5005 31.5655C30.4679 31.5437 30.4317 31.5274 30.394 31.5142L30.3133 31.6103C30.2704 31.6613 30.2438 31.7589 30.2439 31.8649L30.2444 32.552C30.2446 32.6571 30.2709 32.7541 30.3134 32.8049L30.396 32.904C30.4328 32.8909 30.4685 32.8747 30.5005 32.8531Z" fill="white"/>
<path opacity="0.4" d="M21.3819 32.8531L21.5009 32.7112C21.5417 32.6629 21.5669 32.5704 21.567 32.4699L21.5675 31.9502C21.5675 31.8494 21.5423 31.7563 21.5014 31.7079L21.3819 31.5655C21.4145 31.5437 21.4507 31.5274 21.4883 31.5142L21.5691 31.6103C21.6119 31.6613 21.6386 31.7589 21.6384 31.8649L21.6378 32.552C21.6378 32.6571 21.6113 32.7541 21.5688 32.8049L21.4862 32.904C21.4494 32.8909 21.4139 32.8747 21.3819 32.8531Z" fill="white"/>
<path opacity="0.4" d="M30.0208 32.2444L30.0208 32.1748L21.8548 32.1748L21.8548 32.2444L30.0208 32.2444Z" fill="black"/>
<path d="M17.736 6.49267L34.1396 6.49268C34.3359 6.49268 34.4949 6.6518 34.4949 6.84809L34.4949 30.2676C34.4949 30.4639 34.3357 30.623 34.1396 30.623L17.736 30.623C17.5397 30.623 17.3806 30.4639 17.3806 30.2676L17.3806 6.84808C17.3806 6.6518 17.5397 6.49267 17.736 6.49267Z" fill="#CC3300"/>
<path d="M34.1398 6.7334C34.2028 6.7334 34.2542 6.78477 34.2542 6.84761L34.2541 30.2671C34.2541 30.3299 34.2028 30.3813 34.1398 30.3813L17.7363 30.3813C17.6733 30.3813 17.6221 30.3299 17.6221 30.2671L17.6221 6.84761C17.6221 6.78477 17.6735 6.7334 17.7363 6.7334L34.1398 6.7334Z" fill="#F5F7EA"/>
<path d="M34.1398 6.7334C34.2028 6.7334 34.2542 6.78477 34.2542 6.84761L34.2541 30.2671C34.2541 30.3299 34.2028 30.3813 34.1398 30.3813L17.7363 30.3813C17.6733 30.3813 17.6221 30.3299 17.6221 30.2671L17.6221 6.84761C17.6221 6.78477 17.6735 6.7334 17.7363 6.7334L34.1398 6.7334Z" fill="url(#paint33_radial_652_1195)"/>
<path opacity="0.2" d="M34.1398 6.7334C34.2028 6.7334 34.2542 6.78477 34.2542 6.84761L34.2541 30.2671C34.2541 30.3299 34.2028 30.3813 34.1398 30.3813L17.7363 30.3813C17.6733 30.3813 17.6221 30.3299 17.6221 30.2671L17.6221 6.84761C17.6221 6.78477 17.6735 6.7334 17.7363 6.7334L34.1398 6.7334Z" fill="#FF8282"/>
<path d="M31.8684 6.37136L31.8684 6.49269L33.5259 6.49269L33.5259 6.37136C33.5259 6.23534 33.4155 6.125 33.2794 6.125L32.1148 6.125C31.9787 6.125 31.8684 6.23534 31.8684 6.37136Z" fill="#EF0C0C"/>
<path opacity="0.4" d="M32.0552 6.45148L33.3394 6.45148C33.3394 6.29413 33.2117 6.1665 33.0544 6.1665L32.3402 6.1665C32.1828 6.1665 32.0552 6.29413 32.0552 6.45148Z" fill="#660000"/>
<path d="M33.4243 6.4691L33.4164 6.4691C33.3846 6.32435 33.256 6.21595 33.1017 6.21595L32.2932 6.21595C32.1389 6.21595 32.0103 6.32435 31.9785 6.4691L31.9705 6.4691C31.9705 6.29091 32.115 6.14648 32.2932 6.14648L33.1017 6.14648C33.2799 6.14648 33.4243 6.29091 33.4243 6.4691Z" fill="url(#paint34_linear_652_1195)"/>
<path opacity="0.6" d="M32.4171 6.31405C32.5707 6.31308 32.7245 6.31211 32.8781 6.31098C32.9463 6.3105 33.0206 6.3042 33.088 6.3176C33.1153 6.3231 33.1686 6.33376 33.1699 6.36978C33.1712 6.40516 33.1289 6.41066 33.1022 6.41082C33.0261 6.41082 32.1592 6.41631 32.1592 6.40193C32.1596 6.36898 32.1859 6.34071 32.2164 6.32795C32.247 6.31518 32.2809 6.31486 32.3138 6.31454C32.3483 6.31454 32.3827 6.31421 32.4171 6.31405Z" fill="url(#paint35_linear_652_1195)"/>
<path d="M18.6885 6.37136L18.6885 6.49269L20.3459 6.49269L20.3459 6.37136C20.3459 6.23534 20.2356 6.125 20.0996 6.125L18.935 6.125C18.799 6.125 18.6885 6.23534 18.6885 6.37136Z" fill="#EF0C0C"/>
<path opacity="0.4" d="M18.8752 6.45148L20.1592 6.45148C20.1592 6.29413 20.0316 6.1665 19.8742 6.1665L19.16 6.1665C19.0028 6.1665 18.8752 6.29413 18.8752 6.45148Z" fill="#660000"/>
<path d="M20.2439 6.47007L20.236 6.47007C20.2042 6.32533 20.0756 6.21693 19.9213 6.21693L19.1127 6.21693C18.9585 6.21693 18.8299 6.32533 18.798 6.47007L18.7901 6.47007C18.7901 6.29188 18.9345 6.14746 19.1127 6.14746L19.9213 6.14746C20.0995 6.14746 20.2439 6.29189 20.2439 6.47007Z" fill="url(#paint36_linear_652_1195)"/>
<path opacity="0.6" d="M19.2371 6.31405C19.3908 6.31308 19.5446 6.31211 19.6982 6.31098C19.7664 6.3105 19.8407 6.3042 19.9081 6.3176C19.9354 6.3231 19.9887 6.33376 19.99 6.36978C19.9913 6.40516 19.9489 6.41066 19.9223 6.41082C19.8462 6.41082 18.9793 6.41631 18.9793 6.40193C18.9796 6.36898 19.006 6.34071 19.0365 6.32795C19.067 6.31518 19.101 6.31486 19.1339 6.31454C19.1685 6.31454 19.2029 6.31421 19.2371 6.31405Z" fill="url(#paint37_linear_652_1195)"/>
<path d="M27.0009 21.8823L27.0009 19.7963C27.0009 19.6995 27.0793 19.6208 27.1761 19.6208L29.2621 19.6208C29.3589 19.6208 29.4373 19.5424 29.4373 19.4456L29.4373 17.6689C29.4373 17.5721 29.3589 17.4935 29.2621 17.4935L27.1761 17.4935C27.0793 17.4935 27.0009 17.4151 27.0009 17.3183L27.0009 15.2323C27.0009 15.1355 26.9225 15.0571 26.8255 15.0571L25.0488 15.0571C24.952 15.0571 24.8736 15.1355 24.8736 15.2323L24.8736 17.3183C24.8736 17.4151 24.7952 17.4935 24.6982 17.4935L22.6124 17.4935C22.5156 17.4935 22.4373 17.5719 22.4373 17.6689L22.4373 19.4456C22.4373 19.5424 22.5156 19.6208 22.6124 19.6208L24.6982 19.6208C24.795 19.6208 24.8736 19.6992 24.8736 19.7963L24.8736 21.8823C24.8736 21.9791 24.952 22.0575 25.0488 22.0575L26.8255 22.0575C26.9225 22.0575 27.0009 21.9791 27.0009 21.8823Z" fill="#CC3300"/>
<path d="M20.7526 6.49267L31.4937 6.49268L31.4937 6.17006L20.7526 6.17006L20.7526 6.49267Z" fill="#F5F7EA"/>
<path opacity="0.5" d="M20.7529 6.16992L31.4939 6.16992L31.4939 6.49254L20.7529 6.49253L20.7529 6.16992Z" fill="url(#paint38_linear_652_1195)"/>
<path opacity="0.5" d="M26.0806 6.49268L26.1658 6.49268L26.1658 6.17006L26.0806 6.17006L26.0806 6.49268Z" fill="#666666"/>
<path d="M26.4448 6.28204L31.2529 6.28204C31.3112 6.28204 31.3584 6.23487 31.3584 6.17655L31.3584 6.17041L26.3393 6.17041L26.3393 6.17655C26.3393 6.23487 26.3864 6.28204 26.4448 6.28204Z" fill="#AAD5F9"/>
<path d="M26.4448 6.28204L31.2529 6.28204C31.3112 6.28204 31.3584 6.23487 31.3584 6.17655L31.3584 6.17041L31.3443 6.17041C31.3264 6.2032 31.293 6.22631 31.2529 6.22631L26.4448 6.2263C26.4049 6.2263 26.3712 6.2032 26.3533 6.17041L26.3393 6.17041L26.3393 6.17655C26.3393 6.23487 26.3864 6.28204 26.4448 6.28204Z" fill="white"/>
<path d="M20.9872 6.28155L25.7954 6.28155C25.8537 6.28155 25.9009 6.23438 25.9009 6.17606L25.9009 6.16992L20.8817 6.16992L20.8817 6.17606C20.8819 6.23438 20.9291 6.28155 20.9872 6.28155Z" fill="#AAD5F9"/>
<path d="M20.9872 6.28155L25.7954 6.28155C25.8537 6.28155 25.9009 6.23438 25.9009 6.17606L25.9009 6.16992L25.8868 6.16992C25.8689 6.20272 25.8354 6.22582 25.7954 6.22582L20.9872 6.22582C20.9473 6.22582 20.9137 6.20272 20.8958 6.16992L20.8817 6.16992L20.8817 6.17606C20.8819 6.23438 20.9291 6.28155 20.9872 6.28155Z" fill="white"/>
<path d="M17.3809 30.3813L17.3809 36.291C17.3809 36.4655 17.4502 36.6327 17.5734 36.7561L18.1497 37.3323L18.1497 30.3813L17.3809 30.3813Z" fill="#CCCCCC"/>
<path d="M17.5018 30.5024L18.0298 30.5024L18.0298 37.042L17.6592 36.6715C17.5577 36.5701 17.5018 36.4352 17.5018 36.2917L17.5018 30.5024Z" fill="url(#paint39_linear_652_1195)"/>
<path opacity="0.5" d="M17.3809 30.3813L17.3809 36.291C17.3809 36.4655 17.4502 36.6327 17.5734 36.7561L18.1497 37.3323L18.1497 30.3813L17.3809 30.3813Z" fill="url(#paint40_linear_652_1195)"/>
<path opacity="0.4" d="M17.3809 30.3813L17.3809 36.291C17.3809 36.4655 17.4502 36.6327 17.5734 36.7561L18.1497 37.3323L18.1497 30.3813L17.3809 30.3813Z" fill="url(#paint41_linear_652_1195)"/>
<mask id="mask1_652_1195" style="mask-type:luminance" maskUnits="userSpaceOnUse" x="17" y="30" width="2" height="8">
<path d="M17.5016 30.5024L18.0295 30.5024L18.0295 37.042L17.6589 36.6715C17.5575 36.5701 17.5016 36.4352 17.5016 36.2917L17.5016 30.5024Z" fill="white"/>
</mask>
<g mask="url(#mask1_652_1195)">
<path d="M17.91 30.5537C17.8643 30.5793 17.8181 30.5838 17.8181 30.5838C17.8181 30.5838 17.846 30.5468 17.8917 30.5213C17.9374 30.4957 17.9836 30.4912 17.9836 30.4912C17.9836 30.4912 17.9557 30.5282 17.91 30.5537Z" fill="#999999"/>
<path d="M17.5482 30.7627C17.5025 30.7882 17.4565 30.7928 17.4565 30.7928C17.4565 30.7928 17.4844 30.7558 17.5301 30.7302C17.5759 30.7047 17.6221 30.7002 17.6221 30.7002C17.6221 30.7002 17.594 30.7372 17.5482 30.7627Z" fill="#999999"/>
<path d="M17.7351 30.6334C17.7606 30.6791 17.7651 30.7252 17.7651 30.7252C17.7651 30.7252 17.7281 30.6972 17.7026 30.6515C17.6771 30.6058 17.6726 30.5596 17.6726 30.5596C17.6726 30.5596 17.7096 30.5877 17.7351 30.6334Z" fill="#999999"/>
<path d="M17.9624 30.7612C17.9879 30.8069 17.9924 30.8531 17.9924 30.8531C17.9924 30.8531 17.9554 30.8251 17.9299 30.7794C17.9044 30.7337 17.8999 30.6875 17.8999 30.6875C17.8999 30.6875 17.9369 30.7154 17.9624 30.7612Z" fill="#999999"/>
<path d="M17.6007 30.9693C17.6263 31.0151 17.6306 31.0611 17.6306 31.0611C17.6306 31.0611 17.5936 31.0331 17.5681 30.9874C17.5426 30.9417 17.5382 30.8955 17.5382 30.8955C17.5382 30.8955 17.5752 30.9236 17.6007 30.9693Z" fill="#999999"/>
<path d="M17.7548 30.8596C17.8005 30.8341 17.8467 30.8296 17.8467 30.8296C17.8467 30.8296 17.8187 30.8666 17.773 30.8921C17.7273 30.9176 17.6813 30.9222 17.6813 30.9222C17.6813 30.9222 17.7092 30.8852 17.7548 30.8596Z" fill="#999999"/>
<path d="M18.0335 31.0405C17.9878 31.0661 17.9416 31.0704 17.9416 31.0704C17.9416 31.0704 17.9695 31.0334 18.0153 31.0079C18.061 30.9824 18.1072 30.978 18.1072 30.978C18.1072 30.978 18.0792 31.015 18.0335 31.0405Z" fill="#999999"/>
<path d="M17.6717 31.2486C17.626 31.2741 17.5798 31.2784 17.5798 31.2784C17.5798 31.2784 17.6077 31.2414 17.6534 31.2159C17.6992 31.1904 17.7454 31.186 17.7454 31.186C17.7454 31.186 17.7174 31.223 17.6717 31.2486Z" fill="#999999"/>
<path d="M17.8591 31.1209C17.8846 31.1666 17.8892 31.2128 17.8892 31.2128C17.8892 31.2128 17.8522 31.1848 17.8266 31.1391C17.8011 31.0934 17.7966 31.0474 17.7966 31.0474C17.7966 31.0474 17.8336 31.0751 17.8591 31.1209Z" fill="#999999"/>
<path d="M18.0859 31.248C18.1114 31.2937 18.116 31.3399 18.116 31.3399C18.116 31.3399 18.079 31.312 18.0534 31.2662C18.0279 31.2205 18.0234 31.1743 18.0234 31.1743C18.0234 31.1743 18.0604 31.2023 18.0859 31.248Z" fill="#999999"/>
<path d="M17.7241 31.4558C17.7496 31.5016 17.7542 31.5478 17.7542 31.5478C17.7542 31.5478 17.7172 31.5198 17.6916 31.4741C17.6661 31.4284 17.6617 31.3823 17.6617 31.3823C17.6617 31.3823 17.6986 31.4101 17.7241 31.4558Z" fill="#999999"/>
<path d="M17.8785 31.3463C17.9243 31.3208 17.9705 31.3164 17.9705 31.3164C17.9705 31.3164 17.9425 31.3534 17.8968 31.3789C17.8511 31.4044 17.8049 31.4088 17.8049 31.4088C17.8049 31.4088 17.8328 31.3718 17.8785 31.3463Z" fill="#999999"/>
<path d="M17.5299 31.5315C17.5756 31.506 17.6218 31.5015 17.6218 31.5015C17.6218 31.5015 17.5939 31.5385 17.5482 31.564C17.5024 31.5895 17.4564 31.594 17.4564 31.594C17.4564 31.594 17.4842 31.557 17.5299 31.5315Z" fill="#999999"/>
<path d="M17.997 31.5729C18.0225 31.6186 18.0269 31.6646 18.0269 31.6646C18.0269 31.6646 17.9899 31.6367 17.9643 31.5909C17.9388 31.5452 17.9343 31.499 17.9343 31.499C17.9343 31.499 17.9713 31.5271 17.997 31.5729Z" fill="#999999"/>
<path d="M17.6351 31.7807C17.6607 31.8264 17.665 31.8726 17.665 31.8726C17.665 31.8726 17.628 31.8447 17.6025 31.799C17.577 31.7532 17.5726 31.707 17.5726 31.707C17.5726 31.707 17.6096 31.735 17.6351 31.7807Z" fill="#999999"/>
<path d="M17.7904 31.6705C17.8361 31.645 17.8823 31.6406 17.8823 31.6406C17.8823 31.6406 17.8544 31.6776 17.8087 31.7031C17.7629 31.7287 17.7167 31.733 17.7167 31.733C17.7167 31.733 17.7447 31.696 17.7904 31.6705Z" fill="#999999"/>
<path d="M18.0673 31.8524C18.0216 31.8779 17.9755 31.8824 17.9755 31.8824C17.9755 31.8824 18.0035 31.8455 18.0492 31.8199C18.0949 31.7944 18.1411 31.79 18.1411 31.79C18.1411 31.79 18.113 31.8269 18.0673 31.8524Z" fill="#999999"/>
<path d="M17.7055 32.0601C17.6598 32.0856 17.6137 32.0901 17.6137 32.0901C17.6137 32.0901 17.6417 32.0531 17.6874 32.0276C17.7331 32.0021 17.7793 31.9976 17.7793 31.9976C17.7793 31.9976 17.7512 32.0346 17.7055 32.0601Z" fill="#999999"/>
<path d="M17.8926 31.9321C17.9181 31.9778 17.9226 32.024 17.9226 32.024C17.9226 32.024 17.8856 31.996 17.8601 31.9503C17.8346 31.9046 17.83 31.8584 17.83 31.8584C17.83 31.8584 17.867 31.8863 17.8926 31.9321Z" fill="#999999"/>
<path d="M17.7582 32.268C17.7837 32.3137 17.7881 32.3599 17.7881 32.3599C17.7881 32.3599 17.7511 32.332 17.7256 32.2863C17.7 32.2405 17.6957 32.1943 17.6957 32.1943C17.6957 32.1943 17.7325 32.2223 17.7582 32.268Z" fill="#999999"/>
<path d="M17.913 32.1585C17.9587 32.1329 18.0049 32.1284 18.0049 32.1284C18.0049 32.1284 17.9769 32.1654 17.9312 32.1909C17.8855 32.2165 17.8393 32.221 17.8393 32.221C17.8393 32.221 17.8672 32.184 17.913 32.1585Z" fill="#999999"/>
<path d="M17.5641 32.3435C17.6098 32.318 17.656 32.3135 17.656 32.3135C17.656 32.3135 17.6281 32.3505 17.5823 32.376C17.5366 32.4015 17.4904 32.4059 17.4904 32.4059C17.4904 32.4059 17.5184 32.369 17.5641 32.3435Z" fill="#999999"/>
<path d="M17.997 32.3876C18.0225 32.4333 18.0269 32.4796 18.0269 32.4796C18.0269 32.4796 17.9899 32.4516 17.9643 32.4059C17.9388 32.3602 17.9343 32.314 17.9343 32.314C17.9343 32.314 17.9713 32.3419 17.997 32.3876Z" fill="#999999"/>
<path d="M17.6351 32.5958C17.6607 32.6415 17.665 32.6876 17.665 32.6876C17.665 32.6876 17.628 32.6596 17.6025 32.6139C17.577 32.5682 17.5726 32.522 17.5726 32.522C17.5726 32.522 17.6096 32.5501 17.6351 32.5958Z" fill="#999999"/>
<path d="M17.7904 32.4859C17.8361 32.4604 17.8823 32.4561 17.8823 32.4561C17.8823 32.4561 17.8544 32.493 17.8087 32.5186C17.7629 32.5441 17.7167 32.5485 17.7167 32.5485C17.7167 32.5485 17.7447 32.5115 17.7904 32.4859Z" fill="#999999"/>
<path d="M18.0673 32.6677C18.0216 32.6932 17.9755 32.6975 17.9755 32.6975C17.9755 32.6975 18.0035 32.6606 18.0492 32.635C18.0949 32.6095 18.1411 32.605 18.1411 32.605C18.1411 32.605 18.113 32.6421 18.0673 32.6677Z" fill="#999999"/>
<path d="M17.7057 32.8755C17.66 32.901 17.614 32.9056 17.614 32.9056C17.614 32.9056 17.6419 32.8686 17.6876 32.843C17.7333 32.8175 17.7795 32.813 17.7795 32.813C17.7795 32.813 17.7514 32.85 17.7057 32.8755Z" fill="#999999"/>
<path d="M17.8928 32.7475C17.9183 32.7932 17.9229 32.8394 17.9229 32.8394C17.9229 32.8394 17.8859 32.8115 17.8603 32.7657C17.8348 32.72 17.8303 32.6738 17.8303 32.6738C17.8303 32.6738 17.8673 32.7018 17.8928 32.7475Z" fill="#999999"/>
<path d="M17.7584 33.0833C17.784 33.129 17.7883 33.1752 17.7883 33.1752C17.7883 33.1752 17.7513 33.1472 17.7258 33.1015C17.7003 33.0558 17.6959 33.0098 17.6959 33.0098C17.6959 33.0098 17.7328 33.0375 17.7584 33.0833Z" fill="#999999"/>
<path d="M17.913 32.9734C17.9587 32.9479 18.0049 32.9434 18.0049 32.9434C18.0049 32.9434 17.9769 32.9804 17.9312 33.0059C17.8855 33.0314 17.8393 33.0359 17.8393 33.0359C17.8393 33.0359 17.8672 32.9989 17.913 32.9734Z" fill="#999999"/>
<path d="M17.5643 33.1588C17.61 33.1333 17.6562 33.1289 17.6562 33.1289C17.6562 33.1289 17.6283 33.1659 17.5826 33.1914C17.5369 33.2169 17.4907 33.2213 17.4907 33.2213C17.4907 33.2213 17.5186 33.1843 17.5643 33.1588Z" fill="#999999"/>
<path d="M17.997 33.2019C18.0225 33.2476 18.0269 33.2938 18.0269 33.2938C18.0269 33.2938 17.9899 33.2659 17.9643 33.2202C17.9388 33.1745 17.9343 33.1284 17.9343 33.1284C17.9343 33.1284 17.9713 33.1562 17.997 33.2019Z" fill="#999999"/>
<path d="M17.6351 33.4101C17.6607 33.4558 17.665 33.502 17.665 33.502C17.665 33.502 17.628 33.4741 17.6025 33.4283C17.577 33.3826 17.5726 33.3364 17.5726 33.3364C17.5726 33.3364 17.6096 33.3644 17.6351 33.4101Z" fill="#999999"/>
<path d="M17.7902 33.3006C17.8359 33.275 17.8821 33.2705 17.8821 33.2705C17.8821 33.2705 17.8541 33.3075 17.8084 33.333C17.7627 33.3586 17.7165 33.3629 17.7165 33.3629C17.7165 33.3629 17.7444 33.3261 17.7902 33.3006Z" fill="#999999"/>
<path d="M18.067 33.4815C18.0213 33.507 17.9753 33.5114 17.9753 33.5114C17.9753 33.5114 18.0032 33.4744 18.0489 33.4488C18.0947 33.4233 18.1409 33.4189 18.1409 33.4189C18.1409 33.4189 18.1128 33.4559 18.067 33.4815Z" fill="#999999"/>
<path d="M17.7052 33.6896C17.6595 33.7152 17.6135 33.7195 17.6135 33.7195C17.6135 33.7195 17.6414 33.6825 17.6871 33.657C17.7328 33.6315 17.7791 33.627 17.7791 33.627C17.7791 33.627 17.7509 33.6641 17.7052 33.6896Z" fill="#999999"/>
<path d="M17.8923 33.5611C17.9178 33.6069 17.9224 33.6529 17.9224 33.6529C17.9224 33.6529 17.8854 33.6249 17.8598 33.5792C17.8343 33.5335 17.8298 33.4873 17.8298 33.4873C17.8298 33.4873 17.8668 33.5154 17.8923 33.5611Z" fill="#999999"/>
<path d="M17.7584 33.8979C17.784 33.9436 17.7883 33.9898 17.7883 33.9898C17.7883 33.9898 17.7513 33.9619 17.7258 33.9161C17.7003 33.8704 17.6959 33.8242 17.6959 33.8242C17.6959 33.8242 17.7328 33.8522 17.7584 33.8979Z" fill="#999999"/>
<path d="M17.913 33.7879C17.9587 33.7623 18.0049 33.7578 18.0049 33.7578C18.0049 33.7578 17.9769 33.7948 17.9312 33.8203C17.8855 33.8459 17.8393 33.8504 17.8393 33.8504C17.8393 33.8504 17.8672 33.8134 17.913 33.7879Z" fill="#999999"/>
<path d="M17.5643 33.9732C17.61 33.9477 17.6562 33.9434 17.6562 33.9434C17.6562 33.9434 17.6283 33.9804 17.5826 34.0059C17.5369 34.0314 17.4907 34.0358 17.4907 34.0358C17.4907 34.0358 17.5186 33.9989 17.5643 33.9732Z" fill="#999999"/>
<path d="M17.997 34.0165C18.0225 34.0623 18.0269 34.1085 18.0269 34.1085C18.0269 34.1085 17.9899 34.0805 17.9643 34.0348C17.9388 33.9891 17.9343 33.9429 17.9343 33.9429C17.9343 33.9429 17.9713 33.9708 17.997 34.0165Z" fill="#999999"/>
<path d="M17.6351 34.2244C17.6607 34.2701 17.665 34.3163 17.665 34.3163C17.665 34.3163 17.628 34.2884 17.6025 34.2426C17.577 34.1969 17.5726 34.1509 17.5726 34.1509C17.5726 34.1509 17.6096 34.1787 17.6351 34.2244Z" fill="#999999"/>
<path d="M17.7904 34.1145C17.8361 34.089 17.8823 34.0845 17.8823 34.0845C17.8823 34.0845 17.8544 34.1215 17.8087 34.147C17.7629 34.1725 17.7167 34.1769 17.7167 34.1769C17.7167 34.1769 17.7447 34.14 17.7904 34.1145Z" fill="#999999"/>
<path d="M18.067 34.2959C18.0213 34.3214 17.9753 34.3258 17.9753 34.3258C17.9753 34.3258 18.0032 34.2888 18.0489 34.2633C18.0947 34.2378 18.1409 34.2334 18.1409 34.2334C18.1409 34.2334 18.1128 34.2704 18.067 34.2959Z" fill="#999999"/>
<path d="M17.7052 34.5034C17.6595 34.529 17.6135 34.5333 17.6135 34.5333C17.6135 34.5333 17.6414 34.4963 17.6871 34.4708C17.7328 34.4453 17.7791 34.4409 17.7791 34.4409C17.7791 34.4409 17.7509 34.4779 17.7052 34.5034Z" fill="#999999"/>
<path d="M17.8923 34.3759C17.9178 34.4216 17.9224 34.4678 17.9224 34.4678C17.9224 34.4678 17.8854 34.4399 17.8598 34.3942C17.8343 34.3484 17.8298 34.3022 17.8298 34.3022C17.8298 34.3022 17.8668 34.3302 17.8923 34.3759Z" fill="#999999"/>
<path d="M17.758 34.7114C17.7835 34.7571 17.7878 34.8033 17.7878 34.8033C17.7878 34.8033 17.7508 34.7753 17.7253 34.7296C17.6998 34.6839 17.6954 34.6377 17.6954 34.6377C17.6954 34.6377 17.7323 34.6656 17.758 34.7114Z" fill="#999999"/>
<path d="M17.9122 34.6002C17.9579 34.5747 18.0042 34.5703 18.0042 34.5703C18.0042 34.5703 17.9762 34.6073 17.9305 34.6328C17.8848 34.6584 17.8386 34.6627 17.8386 34.6627C17.8386 34.6627 17.8665 34.6257 17.9122 34.6002Z" fill="#999999"/>
<path d="M17.5638 34.7867C17.6096 34.7612 17.6558 34.7568 17.6558 34.7568C17.6558 34.7568 17.6278 34.7938 17.5821 34.8194C17.5364 34.8449 17.4902 34.8492 17.4902 34.8492C17.4902 34.8492 17.5181 34.8124 17.5638 34.7867Z" fill="#999999"/>
<path d="M17.997 34.831C18.0225 34.8767 18.0269 34.9229 18.0269 34.9229C18.0269 34.9229 17.9899 34.895 17.9643 34.8492C17.9388 34.8035 17.9343 34.7573 17.9343 34.7573C17.9343 34.7573 17.9713 34.7853 17.997 34.831Z" fill="#999999"/>
<path d="M17.6351 35.039C17.6607 35.0847 17.665 35.1309 17.665 35.1309C17.665 35.1309 17.628 35.103 17.6025 35.0573C17.577 35.0115 17.5726 34.9653 17.5726 34.9653C17.5726 34.9653 17.6096 34.9933 17.6351 35.039Z" fill="#999999"/>
<path d="M17.7904 34.9295C17.8361 34.9039 17.8823 34.8994 17.8823 34.8994C17.8823 34.8994 17.8544 34.9364 17.8087 34.9619C17.7629 34.9875 17.7167 34.992 17.7167 34.992C17.7167 34.992 17.7447 34.955 17.7904 34.9295Z" fill="#999999"/>
<path d="M18.0673 35.1102C18.0216 35.1357 17.9755 35.1403 17.9755 35.1403C17.9755 35.1403 18.0035 35.1033 18.0492 35.0777C18.0949 35.0522 18.1411 35.0479 18.1411 35.0479C18.1411 35.0479 18.113 35.0847 18.0673 35.1102Z" fill="#999999"/>
<path d="M17.7055 35.3179C17.6598 35.3434 17.6137 35.3478 17.6137 35.3478C17.6137 35.3478 17.6417 35.3108 17.6874 35.2853C17.7331 35.2597 17.7793 35.2554 17.7793 35.2554C17.7793 35.2554 17.7512 35.2924 17.7055 35.3179Z" fill="#999999"/>
<path d="M17.8926 35.1902C17.9181 35.2359 17.9226 35.2821 17.9226 35.2821C17.9226 35.2821 17.8856 35.2542 17.8601 35.2085C17.8346 35.1627 17.83 35.1167 17.83 35.1167C17.83 35.1167 17.867 35.1445 17.8926 35.1902Z" fill="#999999"/>
<path d="M17.7584 35.5268C17.784 35.5725 17.7883 35.6187 17.7883 35.6187C17.7883 35.6187 17.7513 35.5908 17.7258 35.545C17.7003 35.4993 17.6959 35.4531 17.6959 35.4531C17.6959 35.4531 17.7328 35.4811 17.7584 35.5268Z" fill="#999999"/>
<path d="M17.9127 35.4161C17.9584 35.3906 18.0046 35.3862 18.0046 35.3862C18.0046 35.3862 17.9767 35.4232 17.931 35.4487C17.8853 35.4743 17.8391 35.4788 17.8391 35.4788C17.8391 35.4788 17.867 35.4416 17.9127 35.4161Z" fill="#999999"/>
<path d="M17.5643 35.6023C17.61 35.5768 17.6562 35.5723 17.6562 35.5723C17.6562 35.5723 17.6283 35.6093 17.5826 35.6348C17.5369 35.6603 17.4907 35.6648 17.4907 35.6648C17.4907 35.6648 17.5186 35.6278 17.5643 35.6023Z" fill="#999999"/>
<path d="M17.997 35.6451C18.0225 35.6908 18.0269 35.7369 18.0269 35.7369C18.0269 35.7369 17.9899 35.7089 17.9643 35.6632C17.9388 35.6175 17.9343 35.5713 17.9343 35.5713C17.9343 35.5713 17.9713 35.5994 17.997 35.6451Z" fill="#999999"/>
<path d="M17.6351 35.853C17.6607 35.8987 17.665 35.9449 17.665 35.9449C17.665 35.9449 17.628 35.9169 17.6025 35.8712C17.577 35.8255 17.5726 35.7793 17.5726 35.7793C17.5726 35.7793 17.6096 35.8074 17.6351 35.853Z" fill="#999999"/>
<path d="M17.7904 35.7429C17.8361 35.7174 17.8823 35.7129 17.8823 35.7129C17.8823 35.7129 17.8544 35.7499 17.8087 35.7754C17.7629 35.8009 17.7167 35.8053 17.7167 35.8053C17.7167 35.8053 17.7447 35.7685 17.7904 35.7429Z" fill="#999999"/>
<path d="M18.067 35.9245C18.0213 35.95 17.9753 35.9544 17.9753 35.9544C17.9753 35.9544 18.0032 35.9174 18.0489 35.8919C18.0947 35.8663 18.1409 35.8618 18.1409 35.8618C18.1409 35.8618 18.1128 35.899 18.067 35.9245Z" fill="#999999"/>
<path d="M17.7052 36.1322C17.6595 36.1577 17.6135 36.1622 17.6135 36.1622C17.6135 36.1622 17.6414 36.1252 17.6871 36.0997C17.7328 36.0742 17.7791 36.0698 17.7791 36.0698C17.7791 36.0698 17.7509 36.1067 17.7052 36.1322Z" fill="#999999"/>
<path d="M17.8923 36.004C17.9178 36.0497 17.9224 36.0958 17.9224 36.0958C17.9224 36.0958 17.8854 36.0678 17.8598 36.0221C17.8343 35.9764 17.8298 35.9302 17.8298 35.9302C17.8298 35.9302 17.8668 35.9583 17.8923 36.004Z" fill="#999999"/>
<path d="M17.758 36.3404C17.7835 36.3861 17.7878 36.4322 17.7878 36.4322C17.7878 36.4322 17.7508 36.4042 17.7253 36.3585C17.6998 36.3128 17.6954 36.2666 17.6954 36.2666C17.6954 36.2666 17.7323 36.2947 17.758 36.3404Z" fill="#999999"/>
<path d="M17.9122 36.2301C17.9579 36.2046 18.0042 36.2002 18.0042 36.2002C18.0042 36.2002 17.9762 36.2372 17.9305 36.2627C17.8848 36.2882 17.8386 36.2926 17.8386 36.2926C17.8386 36.2926 17.8665 36.2556 17.9122 36.2301Z" fill="#999999"/>
<path d="M17.5638 36.4158C17.6096 36.3903 17.6558 36.3857 17.6558 36.3857C17.6558 36.3857 17.6278 36.4227 17.5821 36.4483C17.5364 36.4738 17.4902 36.4783 17.4902 36.4783C17.4902 36.4783 17.5181 36.4413 17.5638 36.4158Z" fill="#999999"/>
<path d="M17.997 36.4599C18.0225 36.5056 18.0269 36.5518 18.0269 36.5518C18.0269 36.5518 17.9899 36.5239 17.9643 36.4782C17.9388 36.4324 17.9343 36.3862 17.9343 36.3862C17.9343 36.3862 17.9713 36.4142 17.997 36.4599Z" fill="#999999"/>
<path d="M17.6351 36.6679C17.6607 36.7136 17.665 36.7598 17.665 36.7598C17.665 36.7598 17.628 36.7319 17.6025 36.6862C17.577 36.6404 17.5726 36.5942 17.5726 36.5942C17.5726 36.5942 17.6096 36.6224 17.6351 36.6679Z" fill="#999999"/>
<path d="M17.7904 36.5582C17.8361 36.5327 17.8823 36.5283 17.8823 36.5283C17.8823 36.5283 17.8544 36.5653 17.8087 36.5908C17.7629 36.6164 17.7167 36.6209 17.7167 36.6209C17.7167 36.6209 17.7447 36.5837 17.7904 36.5582Z" fill="#999999"/>
<path d="M18.0673 36.7398C18.0216 36.7653 17.9755 36.7698 17.9755 36.7698C17.9755 36.7698 18.0035 36.7328 18.0492 36.7073C18.0949 36.6818 18.1411 36.6772 18.1411 36.6772C18.1411 36.6772 18.113 36.7142 18.0673 36.7398Z" fill="#999999"/>
<path d="M17.7057 36.9473C17.66 36.9728 17.614 36.9773 17.614 36.9773C17.614 36.9773 17.6419 36.9403 17.6876 36.9148C17.7333 36.8893 17.7795 36.8848 17.7795 36.8848C17.7795 36.8848 17.7514 36.9218 17.7057 36.9473Z" fill="#999999"/>
<path d="M17.8926 36.8198C17.9181 36.8655 17.9226 36.9117 17.9226 36.9117C17.9226 36.9117 17.8856 36.8837 17.8601 36.838C17.8346 36.7923 17.83 36.7461 17.83 36.7461C17.83 36.7461 17.867 36.774 17.8926 36.8198Z" fill="#999999"/>
<path d="M17.913 37.0457C17.9587 37.0201 18.0049 37.0156 18.0049 37.0156C18.0049 37.0156 17.9769 37.0526 17.9312 37.0781C17.8855 37.1037 17.8393 37.1082 17.8393 37.1082C17.8393 37.1082 17.8672 37.0712 17.913 37.0457Z" fill="#999999"/>
</g>
<defs>
<linearGradient id="paint0_linear_652_1195" x1="34.1369" y1="29.3298" x2="33.8154" y2="46.3574" gradientUnits="userSpaceOnUse">
<stop stop-color="#C7C5C5"/>
<stop offset="0.0359" stop-color="#676767"/>
<stop offset="0.1123" stop-color="white"/>
<stop offset="0.3019" stop-color="#929292"/>
<stop offset="0.492" stop-color="white"/>
<stop offset="0.6257" stop-color="#676767"/>
<stop offset="0.7701" stop-color="#929292"/>
<stop offset="0.8233" stop-color="#C7C5C5"/>
<stop offset="1" stop-color="#343433"/>
</linearGradient>
<linearGradient id="paint1_linear_652_1195" x1="33.6796" y1="33.8569" x2="33.8302" y2="33.8569" gradientUnits="userSpaceOnUse">
<stop offset="0.0051"/>
<stop offset="1" stop-opacity="0"/>
</linearGradient>
<linearGradient id="paint2_linear_652_1195" x1="34.0598" y1="30.3814" x2="34.0598" y2="30.9105" gradientUnits="userSpaceOnUse">
<stop offset="0.0051"/>
<stop offset="1" stop-opacity="0"/>
</linearGradient>
<linearGradient id="paint3_linear_652_1195" x1="31.7571" y1="45.7165" x2="31.2417" y2="45.7392" gradientUnits="userSpaceOnUse">
<stop stop-color="#C7C5C5"/>
<stop offset="0.0359" stop-color="#676767"/>
<stop offset="0.1123" stop-color="white"/>
<stop offset="0.3019" stop-color="#929292"/>
<stop offset="0.492" stop-color="white"/>
<stop offset="0.6809" stop-color="#676767"/>
<stop offset="0.7701" stop-color="#929292"/>
<stop offset="0.8233" stop-color="#C7C5C5"/>
<stop offset="1" stop-color="#343433"/>
</linearGradient>
<linearGradient id="paint4_linear_652_1195" x1="30.381" y1="45.7166" x2="30.8933" y2="45.7392" gradientUnits="userSpaceOnUse">
<stop stop-color="#C7C5C5"/>
<stop offset="0.0359" stop-color="#676767"/>
<stop offset="0.1123" stop-color="white"/>
<stop offset="0.3019" stop-color="#929292"/>
<stop offset="0.492" stop-color="white"/>
<stop offset="0.6809" stop-color="#676767"/>
<stop offset="0.7701" stop-color="#929292"/>
<stop offset="0.8233" stop-color="#C7C5C5"/>
<stop offset="1" stop-color="#343433"/>
</linearGradient>
<linearGradient id="paint5_linear_652_1195" x1="31.8673" y1="45.5754" x2="29.3752" y2="45.5754" gradientUnits="userSpaceOnUse">
<stop stop-color="#C7C5C5"/>
<stop offset="0.0359" stop-color="#676767"/>
<stop offset="0.1123" stop-color="white"/>
<stop offset="0.3019" stop-color="#929292"/>
<stop offset="0.492" stop-color="white"/>
<stop offset="0.6257" stop-color="#676767"/>
<stop offset="0.7701" stop-color="#929292"/>
<stop offset="0.8233" stop-color="#C7C5C5"/>
<stop offset="1" stop-color="#343433"/>
</linearGradient>
<linearGradient id="paint6_linear_652_1195" x1="21.4978" y1="45.7165" x2="20.9824" y2="45.7392" gradientUnits="userSpaceOnUse">
<stop stop-color="#C7C5C5"/>
<stop offset="0.0359" stop-color="#676767"/>
<stop offset="0.1123" stop-color="white"/>
<stop offset="0.3019" stop-color="#929292"/>
<stop offset="0.492" stop-color="white"/>
<stop offset="0.6809" stop-color="#676767"/>
<stop offset="0.7701" stop-color="#929292"/>
<stop offset="0.8233" stop-color="#C7C5C5"/>
<stop offset="1" stop-color="#343433"/>
</linearGradient>
<linearGradient id="paint7_linear_652_1195" x1="20.1219" y1="45.7166" x2="20.6343" y2="45.7392" gradientUnits="userSpaceOnUse">
<stop stop-color="#C7C5C5"/>
<stop offset="0.0359" stop-color="#676767"/>
<stop offset="0.1123" stop-color="white"/>
<stop offset="0.3019" stop-color="#929292"/>
<stop offset="0.492" stop-color="white"/>
<stop offset="0.6809" stop-color="#676767"/>
<stop offset="0.7701" stop-color="#929292"/>
<stop offset="0.8233" stop-color="#C7C5C5"/>
<stop offset="1" stop-color="#343433"/>
</linearGradient>
<linearGradient id="paint8_linear_652_1195" x1="21.608" y1="45.5754" x2="19.1158" y2="45.5754" gradientUnits="userSpaceOnUse">
<stop stop-color="#C7C5C5"/>
<stop offset="0.0359" stop-color="#676767"/>
<stop offset="0.1123" stop-color="white"/>
<stop offset="0.3019" stop-color="#929292"/>
<stop offset="0.492" stop-color="white"/>
<stop offset="0.6257" stop-color="#676767"/>
<stop offset="0.7701" stop-color="#929292"/>
<stop offset="0.8233" stop-color="#C7C5C5"/>
<stop offset="1" stop-color="#343433"/>
</linearGradient>
<linearGradient id="paint9_linear_652_1195" x1="34.6259" y1="44.4731" x2="9.61193" y2="44.3525" gradientUnits="userSpaceOnUse">
<stop stop-color="#C7C5C5"/>
<stop offset="0.0359" stop-color="#676767"/>
<stop offset="0.1123" stop-color="white"/>
<stop offset="0.3019" stop-color="#929292"/>
<stop offset="0.492" stop-color="white"/>
<stop offset="0.6257" stop-color="#676767"/>
<stop offset="0.7701" stop-color="#929292"/>
<stop offset="0.8233" stop-color="#C7C5C5"/>
<stop offset="1" stop-color="#343433"/>
</linearGradient>
<linearGradient id="paint10_linear_652_1195" x1="34.6259" y1="44.4731" x2="9.61193" y2="44.3525" gradientUnits="userSpaceOnUse">
<stop stop-color="#C7C5C5"/>
<stop offset="0.0359" stop-color="#676767"/>
<stop offset="0.1123" stop-color="white"/>
<stop offset="0.3019" stop-color="#929292"/>
<stop offset="0.492" stop-color="white"/>
<stop offset="0.6257" stop-color="#676767"/>
<stop offset="0.7701" stop-color="#929292"/>
<stop offset="0.8233" stop-color="#C7C5C5"/>
<stop offset="1" stop-color="#343433"/>
</linearGradient>
<radialGradient id="paint11_radial_652_1195" cx="0" cy="0" r="1" gradientUnits="userSpaceOnUse" gradientTransform="translate(35.6126 38.2977) rotate(-180) scale(18.0444 18.0446)">
<stop offset="0.0102"/>
<stop offset="1" stop-opacity="0"/>
</radialGradient>
<linearGradient id="paint12_linear_652_1195" x1="33.2435" y1="37.7622" x2="18.6322" y2="37.7622" gradientUnits="userSpaceOnUse">
<stop offset="0.3386" stop-color="white" stop-opacity="0"/>
<stop offset="0.6521" stop-color="white"/>
</linearGradient>
<linearGradient id="paint13_linear_652_1195" x1="29.7449" y1="39.7185" x2="30.2436" y2="39.7558" gradientUnits="userSpaceOnUse">
<stop offset="0.0051"/>
<stop offset="1" stop-opacity="0"/>
</linearGradient>
<linearGradient id="paint14_linear_652_1195" x1="22.1378" y1="39.7185" x2="21.6391" y2="39.7559" gradientUnits="userSpaceOnUse">
<stop offset="0.0051" stop-color="#999999"/>
<stop offset="1" stop-color="#999999" stop-opacity="0"/>
</linearGradient>
<linearGradient id="paint15_linear_652_1195" x1="25.9377" y1="40.0839" x2="25.9377" y2="39.6539" gradientUnits="userSpaceOnUse">
<stop offset="0.0051"/>
<stop offset="1" stop-opacity="0"/>
</linearGradient>
<radialGradient id="paint16_radial_652_1195" cx="0" cy="0" r="1" gradientUnits="userSpaceOnUse" gradientTransform="translate(32.7693 37.1054) rotate(-180) scale(11.9321 11.9322)">
<stop stop-color="white" stop-opacity="0"/>
<stop offset="1" stop-color="white"/>
</radialGradient>
<radialGradient id="paint17_radial_652_1195" cx="0" cy="0" r="1" gradientUnits="userSpaceOnUse" gradientTransform="translate(31.397 36.4245) rotate(-180) scale(11.4863 11.4864)">
<stop offset="0.0102"/>
<stop offset="1" stop-opacity="0"/>
</radialGradient>
<linearGradient id="paint18_linear_652_1195" x1="33.3992" y1="34.8257" x2="33.3407" y2="34.8257" gradientUnits="userSpaceOnUse">
<stop offset="0.0051"/>
<stop offset="1" stop-opacity="0"/>
</linearGradient>
<linearGradient id="paint19_linear_652_1195" x1="33.2814" y1="34.7198" x2="33.0405" y2="34.7198" gradientUnits="userSpaceOnUse">
<stop stop-color="white"/>
<stop offset="1" stop-color="white" stop-opacity="0"/>
</linearGradient>
<linearGradient id="paint20_linear_652_1195" x1="32.8799" y1="34.7198" x2="32.5546" y2="34.7198" gradientUnits="userSpaceOnUse">
<stop stop-opacity="0"/>
<stop offset="0.9898"/>
</linearGradient>
<linearGradient id="paint21_linear_652_1195" x1="18.4362" y1="34.8267" x2="18.4946" y2="34.8267" gradientUnits="userSpaceOnUse">
<stop offset="0.0051"/>
<stop offset="1" stop-opacity="0"/>
</linearGradient>
<linearGradient id="paint22_linear_652_1195" x1="18.5537" y1="34.7208" x2="18.7947" y2="34.7208" gradientUnits="userSpaceOnUse">
<stop stop-color="white"/>
<stop offset="1" stop-color="white" stop-opacity="0"/>
</linearGradient>
<linearGradient id="paint23_linear_652_1195" x1="18.9553" y1="34.7208" x2="19.2806" y2="34.7208" gradientUnits="userSpaceOnUse">
<stop stop-opacity="0"/>
<stop offset="0.9898"/>
</linearGradient>
<linearGradient id="paint24_linear_652_1195" x1="34.1462" y1="37.9427" x2="34.101" y2="37.8184" gradientUnits="userSpaceOnUse">
<stop stop-color="white"/>
<stop offset="1" stop-color="white" stop-opacity="0"/>
</linearGradient>
<linearGradient id="paint25_linear_652_1195" x1="33.6919" y1="37.7611" x2="34.5056" y2="37.3053" gradientUnits="userSpaceOnUse">
<stop offset="0.0051"/>
<stop offset="1" stop-opacity="0"/>
</linearGradient>
<linearGradient id="paint26_linear_652_1195" x1="17.674" y1="37.9427" x2="17.7192" y2="37.8184" gradientUnits="userSpaceOnUse">
<stop stop-color="white"/>
<stop offset="1" stop-color="white" stop-opacity="0"/>
</linearGradient>
<linearGradient id="paint27_linear_652_1195" x1="18.128" y1="37.7611" x2="17.3142" y2="37.3053" gradientUnits="userSpaceOnUse">
<stop offset="0.0051"/>
<stop offset="1" stop-opacity="0"/>
</linearGradient>
<linearGradient id="paint28_linear_652_1195" x1="26.0186" y1="31.2169" x2="26.0186" y2="31.594" gradientUnits="userSpaceOnUse">
<stop stop-opacity="0"/>
<stop offset="0.9898"/>
</linearGradient>
<radialGradient id="paint29_radial_652_1195" cx="0" cy="0" r="1" gradientUnits="userSpaceOnUse" gradientTransform="translate(25.9379 32.2099) rotate(-180) scale(3.41311 3.41313)">
<stop stop-color="white" stop-opacity="0"/>
<stop offset="1" stop-color="white"/>
</radialGradient>
<linearGradient id="paint30_linear_652_1195" x1="25.9379" y1="31.8038" x2="25.9379" y2="31.4946" gradientUnits="userSpaceOnUse">
<stop stop-opacity="0"/>
<stop offset="0.9898"/>
</linearGradient>
<linearGradient id="paint31_linear_652_1195" x1="30.5174" y1="32.5121" x2="21.3584" y2="32.5121" gradientUnits="userSpaceOnUse">
<stop stop-color="white" stop-opacity="0"/>
<stop offset="1" stop-color="white"/>
</linearGradient>
<linearGradient id="paint32_linear_652_1195" x1="24.424" y1="31.9081" x2="30.0457" y2="31.9081" gradientUnits="userSpaceOnUse">
<stop stop-color="white" stop-opacity="0"/>
<stop offset="1" stop-color="white"/>
</linearGradient>
<radialGradient id="paint33_radial_652_1195" cx="0" cy="0" r="1" gradientUnits="userSpaceOnUse" gradientTransform="translate(18.0931 28.774) rotate(-180) scale(21.8 21.8002)">
<stop stop-color="white" stop-opacity="0"/>
<stop offset="1" stop-color="white"/>
</radialGradient>
<linearGradient id="paint34_linear_652_1195" x1="31.8831" y1="6.45201" x2="33.7968" y2="6.16571" gradientUnits="userSpaceOnUse">
<stop stop-color="white" stop-opacity="0"/>
<stop offset="1" stop-color="white"/>
</linearGradient>
<linearGradient id="paint35_linear_652_1195" x1="32.6646" y1="6.41193" x2="32.6646" y2="6.30919" gradientUnits="userSpaceOnUse">
<stop stop-color="white" stop-opacity="0"/>
<stop offset="1" stop-color="white"/>
</linearGradient>
<linearGradient id="paint36_linear_652_1195" x1="18.7027" y1="6.45298" x2="20.6164" y2="6.16669" gradientUnits="userSpaceOnUse">
<stop stop-color="white" stop-opacity="0"/>
<stop offset="1" stop-color="white"/>
</linearGradient>
<linearGradient id="paint37_linear_652_1195" x1="19.4847" y1="6.41193" x2="19.4847" y2="6.30919" gradientUnits="userSpaceOnUse">
<stop stop-color="white" stop-opacity="0"/>
<stop offset="1" stop-color="white"/>
</linearGradient>
<linearGradient id="paint38_linear_652_1195" x1="26.1234" y1="6.35197" x2="26.1234" y2="6.4927" gradientUnits="userSpaceOnUse">
<stop stop-opacity="0"/>
<stop offset="0.9898"/>
</linearGradient>
<linearGradient id="paint39_linear_652_1195" x1="17.6889" y1="29.3298" x2="18.0104" y2="46.3574" gradientUnits="userSpaceOnUse">
<stop stop-color="#C7C5C5"/>
<stop offset="0.0359" stop-color="#676767"/>
<stop offset="0.1123" stop-color="white"/>
<stop offset="0.3019" stop-color="#929292"/>
<stop offset="0.492" stop-color="white"/>
<stop offset="0.6257" stop-color="#676767"/>
<stop offset="0.7701" stop-color="#929292"/>
<stop offset="0.8233" stop-color="#C7C5C5"/>
<stop offset="1" stop-color="#343433"/>
</linearGradient>
<linearGradient id="paint40_linear_652_1195" x1="18.1456" y1="33.8569" x2="17.9949" y2="33.8569" gradientUnits="userSpaceOnUse">
<stop offset="0.0051"/>
<stop offset="1" stop-opacity="0"/>
</linearGradient>
<linearGradient id="paint41_linear_652_1195" x1="17.7654" y1="30.3814" x2="17.7654" y2="30.9105" gradientUnits="userSpaceOnUse">
<stop offset="0.0051"/>
<stop offset="1" stop-opacity="0"/>
</linearGradient>
</defs>
</svg>
