<svg width="52" height="52" viewBox="0 0 52 52" fill="none" xmlns="http://www.w3.org/2000/svg">
<circle opacity="0.5" cx="26.4375" cy="26" r="25.5" transform="rotate(-90 26.4375 26)" fill="#FF8282"/>
<path d="M30.7563 17.4932L36.666 17.4932C36.8405 17.4932 37.0077 17.5625 37.1311 17.6857L37.7073 18.262L30.7563 18.262L30.7563 17.4932Z" fill="#CCCCCC"/>
<path d="M30.8774 17.6138L30.8774 18.1417L37.417 18.1417L37.0465 17.7711C36.9451 17.6697 36.8102 17.6138 36.6667 17.6138L30.8774 17.6138Z" fill="url(#paint0_linear_652_2143)"/>
<path opacity="0.5" d="M30.7563 17.4932L36.666 17.4932C36.8405 17.4932 37.0077 17.5625 37.1311 17.6857L37.7073 18.262L30.7563 18.262L30.7563 17.4932Z" fill="url(#paint1_linear_652_2143)"/>
<path opacity="0.4" d="M30.7563 17.4932L36.666 17.4932C36.8405 17.4932 37.0077 17.5625 37.1311 17.6857L37.7073 18.262L30.7563 18.262L30.7563 17.4932Z" fill="url(#paint2_linear_652_2143)"/>
<mask id="mask0_652_2143" style="mask-type:luminance" maskUnits="userSpaceOnUse" x="30" y="17" width="8" height="2">
<path d="M30.8774 17.6143L30.8774 18.1422L37.417 18.1422L37.0465 17.7716C36.9451 17.6702 36.8102 17.6143 36.6667 17.6143L30.8774 17.6143Z" fill="white"/>
</mask>
<g mask="url(#mask0_652_2143)">
<path d="M30.9282 18.0221C30.9538 17.9764 30.9583 17.9302 30.9583 17.9302C30.9583 17.9302 30.9213 17.9581 30.8958 18.0038C30.8702 18.0496 30.8657 18.0958 30.8657 18.0958C30.8657 18.0958 30.9027 18.0678 30.9282 18.0221Z" fill="#999999"/>
<path d="M31.1367 17.6603C31.1623 17.6146 31.1668 17.5684 31.1668 17.5684C31.1668 17.5684 31.1298 17.5963 31.1043 17.642C31.0787 17.6877 31.0742 17.7339 31.0742 17.7339C31.0742 17.7339 31.1112 17.706 31.1367 17.6603Z" fill="#999999"/>
<path d="M31.0084 17.8472C31.0541 17.8727 31.1002 17.8772 31.1002 17.8772C31.1002 17.8772 31.0722 17.8402 31.0265 17.8147C30.9808 17.7892 30.9346 17.7847 30.9346 17.7847C30.9346 17.7847 30.9627 17.8217 31.0084 17.8472Z" fill="#999999"/>
<path d="M31.1362 18.0747C31.1819 18.1002 31.2281 18.1048 31.2281 18.1048C31.2281 18.1048 31.2001 18.0678 31.1544 18.0423C31.1087 18.0167 31.0625 18.0122 31.0625 18.0122C31.0625 18.0122 31.0904 18.0492 31.1362 18.0747Z" fill="#999999"/>
<path d="M31.3443 17.7129C31.3901 17.7384 31.4361 17.7428 31.4361 17.7428C31.4361 17.7428 31.4081 17.7058 31.3624 17.6803C31.3167 17.6548 31.2705 17.6504 31.2705 17.6504C31.2705 17.6504 31.2986 17.6874 31.3443 17.7129Z" fill="#999999"/>
<path d="M31.2337 17.8676C31.2081 17.9133 31.2036 17.9595 31.2036 17.9595C31.2036 17.9595 31.2406 17.9316 31.2661 17.8859C31.2917 17.8401 31.2962 17.7939 31.2962 17.7939C31.2962 17.7939 31.2592 17.8219 31.2337 17.8676Z" fill="#999999"/>
<path d="M31.4151 18.1445C31.4406 18.0988 31.4449 18.0527 31.4449 18.0527C31.4449 18.0527 31.408 18.0807 31.3824 18.1264C31.3569 18.1721 31.3525 18.2182 31.3525 18.2182C31.3525 18.2182 31.3895 18.1902 31.4151 18.1445Z" fill="#999999"/>
<path d="M31.6231 17.7828C31.6486 17.7371 31.653 17.6909 31.653 17.6909C31.653 17.6909 31.616 17.7189 31.5904 17.7646C31.5649 17.8103 31.5605 17.8565 31.5605 17.8565C31.5605 17.8565 31.5975 17.8286 31.6231 17.7828Z" fill="#999999"/>
<path d="M31.4949 17.9702C31.5406 17.9958 31.5868 18.0003 31.5868 18.0003C31.5868 18.0003 31.5589 17.9633 31.5131 17.9378C31.4674 17.9122 31.4214 17.9077 31.4214 17.9077C31.4214 17.9077 31.4492 17.9447 31.4949 17.9702Z" fill="#999999"/>
<path d="M31.623 18.197C31.6687 18.2225 31.7149 18.2268 31.7149 18.2268C31.7149 18.2268 31.687 18.1898 31.6412 18.1643C31.5955 18.1388 31.5493 18.1343 31.5493 18.1343C31.5493 18.1343 31.5773 18.1714 31.623 18.197Z" fill="#999999"/>
<path d="M31.8308 17.8345C31.8766 17.86 31.9228 17.8644 31.9228 17.8644C31.9228 17.8644 31.8948 17.8274 31.8491 17.8019C31.8034 17.7763 31.7573 17.772 31.7573 17.772C31.7573 17.772 31.7851 17.809 31.8308 17.8345Z" fill="#999999"/>
<path d="M31.7213 17.9895C31.6958 18.0352 31.6914 18.0814 31.6914 18.0814C31.6914 18.0814 31.7284 18.0535 31.7539 18.0078C31.7794 17.9621 31.7838 17.916 31.7838 17.916C31.7838 17.916 31.7468 17.9438 31.7213 17.9895Z" fill="#999999"/>
<path d="M31.907 17.6401C31.8815 17.6858 31.877 17.732 31.877 17.732C31.877 17.732 31.914 17.704 31.9395 17.6583C31.965 17.6126 31.9695 17.5664 31.9695 17.5664C31.9695 17.5664 31.9325 17.5944 31.907 17.6401Z" fill="#999999"/>
<path d="M31.9474 18.1079C31.9931 18.1335 32.0391 18.1378 32.0391 18.1378C32.0391 18.1378 32.0112 18.1008 31.9655 18.0753C31.9197 18.0498 31.8735 18.0454 31.8735 18.0454C31.8735 18.0454 31.9016 18.0824 31.9474 18.1079Z" fill="#999999"/>
<path d="M32.1552 17.7461C32.2009 17.7716 32.2471 17.776 32.2471 17.776C32.2471 17.776 32.2192 17.739 32.1735 17.7135C32.1277 17.688 32.0815 17.6836 32.0815 17.6836C32.0815 17.6836 32.1095 17.7206 32.1552 17.7461Z" fill="#999999"/>
<path d="M32.045 17.9013C32.0195 17.947 32.0151 17.9932 32.0151 17.9932C32.0151 17.9932 32.0521 17.9653 32.0777 17.9196C32.1032 17.8738 32.1075 17.8276 32.1075 17.8276C32.1075 17.8276 32.0705 17.8556 32.045 17.9013Z" fill="#999999"/>
<path d="M32.2274 18.1779C32.2529 18.1321 32.2574 18.0859 32.2574 18.0859C32.2574 18.0859 32.2205 18.1139 32.1949 18.1596C32.1694 18.2053 32.165 18.2515 32.165 18.2515C32.165 18.2515 32.2019 18.2236 32.2274 18.1779Z" fill="#999999"/>
<path d="M32.4351 17.816C32.4606 17.7703 32.4651 17.7241 32.4651 17.7241C32.4651 17.7241 32.4281 17.7521 32.4026 17.7978C32.3771 17.8435 32.3726 17.8897 32.3726 17.8897C32.3726 17.8897 32.4096 17.8618 32.4351 17.816Z" fill="#999999"/>
<path d="M32.3071 18.003C32.3528 18.0285 32.399 18.033 32.399 18.033C32.399 18.033 32.371 17.996 32.3253 17.9705C32.2796 17.945 32.2334 17.9404 32.2334 17.9404C32.2334 17.9404 32.2613 17.9774 32.3071 18.003Z" fill="#999999"/>
<path d="M32.6425 17.8677C32.6882 17.8932 32.7344 17.8976 32.7344 17.8976C32.7344 17.8976 32.7065 17.8606 32.6608 17.8351C32.6151 17.8095 32.5688 17.8052 32.5688 17.8052C32.5688 17.8052 32.5968 17.8422 32.6425 17.8677Z" fill="#999999"/>
<path d="M32.5325 18.0224C32.507 18.0681 32.5024 18.1143 32.5024 18.1143C32.5024 18.1143 32.5394 18.0864 32.565 18.0407C32.5905 17.9949 32.595 17.9487 32.595 17.9487C32.595 17.9487 32.558 17.9767 32.5325 18.0224Z" fill="#999999"/>
<path d="M32.718 17.6738C32.6925 17.7195 32.688 17.7657 32.688 17.7657C32.688 17.7657 32.725 17.7377 32.7505 17.692C32.776 17.6463 32.7804 17.6001 32.7804 17.6001C32.7804 17.6001 32.7436 17.628 32.718 17.6738Z" fill="#999999"/>
<path d="M32.7621 18.1084C32.8079 18.1339 32.8541 18.1383 32.8541 18.1383C32.8541 18.1383 32.8261 18.1013 32.7804 18.0758C32.7347 18.0503 32.6885 18.0459 32.6885 18.0459C32.6885 18.0459 32.7164 18.0829 32.7621 18.1084Z" fill="#999999"/>
<path d="M32.9703 17.7466C33.016 17.7721 33.0621 17.7765 33.0621 17.7765C33.0621 17.7765 33.0341 17.7395 32.9884 17.714C32.9427 17.6884 32.8965 17.6841 32.8965 17.6841C32.8965 17.6841 32.9246 17.7211 32.9703 17.7466Z" fill="#999999"/>
<path d="M32.8605 17.9018C32.8349 17.9475 32.8306 17.9937 32.8306 17.9937C32.8306 17.9937 32.8676 17.9658 32.8931 17.92C32.9186 17.8743 32.923 17.8281 32.923 17.8281C32.923 17.8281 32.886 17.8561 32.8605 17.9018Z" fill="#999999"/>
<path d="M33.0417 18.1783C33.0672 18.1326 33.0716 18.0864 33.0716 18.0864C33.0716 18.0864 33.0346 18.1144 33.0091 18.1601C32.9835 18.2058 32.979 18.252 32.979 18.252C32.979 18.252 33.0162 18.2241 33.0417 18.1783Z" fill="#999999"/>
<path d="M33.2505 17.8165C33.276 17.7708 33.2806 17.7246 33.2806 17.7246C33.2806 17.7246 33.2436 17.7526 33.218 17.7983C33.1925 17.844 33.188 17.8902 33.188 17.8902C33.188 17.8902 33.225 17.8622 33.2505 17.8165Z" fill="#999999"/>
<path d="M33.1225 18.0034C33.1682 18.029 33.2144 18.0335 33.2144 18.0335C33.2144 18.0335 33.1865 17.9965 33.1407 17.971C33.095 17.9454 33.0488 17.9409 33.0488 17.9409C33.0488 17.9409 33.0768 17.9779 33.1225 18.0034Z" fill="#999999"/>
<path d="M33.4573 17.8682C33.503 17.8937 33.5492 17.8981 33.5492 17.8981C33.5492 17.8981 33.5213 17.8611 33.4755 17.8356C33.4298 17.81 33.3838 17.8057 33.3838 17.8057C33.3838 17.8057 33.4116 17.8427 33.4573 17.8682Z" fill="#999999"/>
<path d="M33.3474 18.0229C33.3219 18.0686 33.3174 18.1148 33.3174 18.1148C33.3174 18.1148 33.3544 18.0869 33.3799 18.0411C33.4054 17.9954 33.41 17.9492 33.41 17.9492C33.41 17.9492 33.373 17.9772 33.3474 18.0229Z" fill="#999999"/>
<path d="M33.5333 17.6743C33.5078 17.72 33.5034 17.7662 33.5034 17.7662C33.5034 17.7662 33.5404 17.7382 33.5659 17.6925C33.5915 17.6468 33.5958 17.6006 33.5958 17.6006C33.5958 17.6006 33.5588 17.6285 33.5333 17.6743Z" fill="#999999"/>
<path d="M33.5769 18.1079C33.6226 18.1335 33.6688 18.1378 33.6688 18.1378C33.6688 18.1378 33.6409 18.1008 33.5952 18.0753C33.5495 18.0498 33.5034 18.0454 33.5034 18.0454C33.5034 18.0454 33.5312 18.0824 33.5769 18.1079Z" fill="#999999"/>
<path d="M33.7851 17.7461C33.8308 17.7716 33.877 17.776 33.877 17.776C33.877 17.776 33.8491 17.739 33.8033 17.7135C33.7576 17.688 33.7114 17.6836 33.7114 17.6836C33.7114 17.6836 33.7394 17.7206 33.7851 17.7461Z" fill="#999999"/>
<path d="M33.6751 17.9013C33.6495 17.947 33.645 17.9932 33.645 17.9932C33.645 17.9932 33.682 17.9653 33.7075 17.9196C33.7331 17.8738 33.7374 17.8276 33.7374 17.8276C33.7374 17.8276 33.7006 17.8556 33.6751 17.9013Z" fill="#999999"/>
<path d="M33.856 18.1779C33.8815 18.1321 33.8859 18.0859 33.8859 18.0859C33.8859 18.0859 33.8489 18.1139 33.8233 18.1596C33.7978 18.2053 33.7935 18.2515 33.7935 18.2515C33.7935 18.2515 33.8305 18.2236 33.856 18.1779Z" fill="#999999"/>
<path d="M34.0641 17.816C34.0897 17.7703 34.094 17.7241 34.094 17.7241C34.094 17.7241 34.057 17.7521 34.0315 17.7978C34.006 17.8435 34.0015 17.8897 34.0015 17.8897C34.0015 17.8897 34.0386 17.8618 34.0641 17.816Z" fill="#999999"/>
<path d="M33.9356 18.003C33.9814 18.0285 34.0274 18.033 34.0274 18.033C34.0274 18.033 33.9995 17.996 33.9537 17.9705C33.908 17.945 33.8618 17.9404 33.8618 17.9404C33.8618 17.9404 33.8899 17.9774 33.9356 18.003Z" fill="#999999"/>
<path d="M34.2719 17.8677C34.3176 17.8932 34.3638 17.8976 34.3638 17.8976C34.3638 17.8976 34.3359 17.8606 34.2902 17.8351C34.2444 17.8095 34.1982 17.8052 34.1982 17.8052C34.1982 17.8052 34.2262 17.8422 34.2719 17.8677Z" fill="#999999"/>
<path d="M34.1609 18.0224C34.1354 18.0681 34.1309 18.1143 34.1309 18.1143C34.1309 18.1143 34.1679 18.0864 34.1934 18.0407C34.2189 17.9949 34.2234 17.9487 34.2234 17.9487C34.2234 17.9487 34.1864 17.9767 34.1609 18.0224Z" fill="#999999"/>
<path d="M34.3463 17.6738C34.3208 17.7195 34.3164 17.7657 34.3164 17.7657C34.3164 17.7657 34.3534 17.7377 34.3789 17.692C34.4044 17.6463 34.4088 17.6001 34.4088 17.6001C34.4088 17.6001 34.372 17.628 34.3463 17.6738Z" fill="#999999"/>
<path d="M34.3906 18.1084C34.4363 18.1339 34.4825 18.1383 34.4825 18.1383C34.4825 18.1383 34.4545 18.1013 34.4088 18.0758C34.3631 18.0503 34.3169 18.0459 34.3169 18.0459C34.3169 18.0459 34.3448 18.0829 34.3906 18.1084Z" fill="#999999"/>
<path d="M34.5984 17.7466C34.6441 17.7721 34.6903 17.7765 34.6903 17.7765C34.6903 17.7765 34.6624 17.7395 34.6167 17.714C34.5709 17.6884 34.5249 17.6841 34.5249 17.6841C34.5249 17.6841 34.5527 17.7211 34.5984 17.7466Z" fill="#999999"/>
<path d="M34.4885 17.9018C34.463 17.9475 34.4585 17.9937 34.4585 17.9937C34.4585 17.9937 34.4955 17.9658 34.521 17.92C34.5465 17.8743 34.5509 17.8281 34.5509 17.8281C34.5509 17.8281 34.5141 17.8561 34.4885 17.9018Z" fill="#999999"/>
<path d="M34.6704 18.1783C34.696 18.1326 34.7003 18.0864 34.7003 18.0864C34.7003 18.0864 34.6633 18.1144 34.6378 18.1601C34.6123 18.2058 34.6079 18.252 34.6079 18.252C34.6079 18.252 34.6449 18.2241 34.6704 18.1783Z" fill="#999999"/>
<path d="M34.8784 17.8165C34.904 17.7708 34.9083 17.7246 34.9083 17.7246C34.9083 17.7246 34.8713 17.7526 34.8458 17.7983C34.8203 17.844 34.8159 17.8902 34.8159 17.8902C34.8159 17.8902 34.8529 17.8622 34.8784 17.8165Z" fill="#999999"/>
<path d="M34.7504 18.0034C34.7961 18.029 34.8423 18.0335 34.8423 18.0335C34.8423 18.0335 34.8144 17.9965 34.7687 17.971C34.723 17.9454 34.6768 17.9409 34.6768 17.9409C34.6768 17.9409 34.7047 17.9779 34.7504 18.0034Z" fill="#999999"/>
<path d="M35.0868 17.8682C35.1326 17.8937 35.1788 17.8981 35.1788 17.8981C35.1788 17.8981 35.1508 17.8611 35.1051 17.8356C35.0594 17.81 35.0132 17.8057 35.0132 17.8057C35.0132 17.8057 35.0411 17.8427 35.0868 17.8682Z" fill="#999999"/>
<path d="M34.9757 18.0229C34.9502 18.0686 34.9458 18.1148 34.9458 18.1148C34.9458 18.1148 34.9828 18.0869 35.0083 18.0411C35.0338 17.9954 35.0382 17.9492 35.0382 17.9492C35.0382 17.9492 35.0012 17.9772 34.9757 18.0229Z" fill="#999999"/>
<path d="M35.1622 17.6743C35.1367 17.72 35.1323 17.7662 35.1323 17.7662C35.1323 17.7662 35.1693 17.7382 35.1948 17.6925C35.2204 17.6468 35.2247 17.6006 35.2247 17.6006C35.2247 17.6006 35.1879 17.6285 35.1622 17.6743Z" fill="#999999"/>
<path d="M35.206 18.1084C35.2517 18.1339 35.2979 18.1383 35.2979 18.1383C35.2979 18.1383 35.27 18.1013 35.2242 18.0758C35.1785 18.0503 35.1323 18.0459 35.1323 18.0459C35.1323 18.0459 35.1603 18.0829 35.206 18.1084Z" fill="#999999"/>
<path d="M35.414 17.7466C35.4597 17.7721 35.5059 17.7765 35.5059 17.7765C35.5059 17.7765 35.478 17.7395 35.4323 17.714C35.3865 17.6884 35.3403 17.6841 35.3403 17.6841C35.3403 17.6841 35.3683 17.7211 35.414 17.7466Z" fill="#999999"/>
<path d="M35.304 17.9018C35.2784 17.9475 35.2739 17.9937 35.2739 17.9937C35.2739 17.9937 35.3109 17.9658 35.3364 17.92C35.362 17.8743 35.3665 17.8281 35.3665 17.8281C35.3665 17.8281 35.3295 17.8561 35.304 17.9018Z" fill="#999999"/>
<path d="M35.4852 18.1783C35.5107 18.1326 35.5153 18.0864 35.5153 18.0864C35.5153 18.0864 35.4783 18.1144 35.4527 18.1601C35.4272 18.2058 35.4229 18.252 35.4229 18.252C35.4229 18.252 35.4597 18.2241 35.4852 18.1783Z" fill="#999999"/>
<path d="M35.6929 17.8165C35.7184 17.7708 35.7228 17.7246 35.7228 17.7246C35.7228 17.7246 35.6858 17.7526 35.6603 17.7983C35.6347 17.844 35.6304 17.8902 35.6304 17.8902C35.6304 17.8902 35.6674 17.8622 35.6929 17.8165Z" fill="#999999"/>
<path d="M35.5652 18.0034C35.6109 18.029 35.6571 18.0335 35.6571 18.0335C35.6571 18.0335 35.6292 17.9965 35.5835 17.971C35.5377 17.9454 35.4917 17.9409 35.4917 17.9409C35.4917 17.9409 35.5195 17.9779 35.5652 18.0034Z" fill="#999999"/>
<path d="M35.9008 17.8682C35.9465 17.8937 35.9927 17.8981 35.9927 17.8981C35.9927 17.8981 35.9648 17.8611 35.9191 17.8356C35.8734 17.81 35.8271 17.8057 35.8271 17.8057C35.8271 17.8057 35.8551 17.8427 35.9008 17.8682Z" fill="#999999"/>
<path d="M35.7911 18.0224C35.7656 18.0681 35.7612 18.1143 35.7612 18.1143C35.7612 18.1143 35.7982 18.0864 35.8237 18.0407C35.8493 17.9949 35.8538 17.9487 35.8538 17.9487C35.8538 17.9487 35.8166 17.9767 35.7911 18.0224Z" fill="#999999"/>
<path d="M35.9758 17.6743C35.9503 17.72 35.9458 17.7662 35.9458 17.7662C35.9458 17.7662 35.9828 17.7382 36.0083 17.6925C36.0338 17.6468 36.0384 17.6006 36.0384 17.6006C36.0384 17.6006 36.0014 17.6285 35.9758 17.6743Z" fill="#999999"/>
<path d="M36.0206 18.1079C36.0663 18.1335 36.1124 18.1378 36.1124 18.1378C36.1124 18.1378 36.0844 18.1008 36.0387 18.0753C35.993 18.0498 35.9468 18.0454 35.9468 18.0454C35.9468 18.0454 35.9749 18.0824 36.0206 18.1079Z" fill="#999999"/>
<path d="M36.2289 17.7461C36.2747 17.7716 36.3209 17.776 36.3209 17.776C36.3209 17.776 36.2929 17.739 36.2472 17.7135C36.2015 17.688 36.1553 17.6836 36.1553 17.6836C36.1553 17.6836 36.1834 17.7206 36.2289 17.7461Z" fill="#999999"/>
<path d="M36.1179 17.9013C36.0924 17.947 36.0879 17.9932 36.0879 17.9932C36.0879 17.9932 36.1249 17.9653 36.1504 17.9196C36.1759 17.8738 36.1803 17.8276 36.1803 17.8276C36.1803 17.8276 36.1435 17.8556 36.1179 17.9013Z" fill="#999999"/>
<path d="M36.2995 18.1779C36.325 18.1321 36.3294 18.0859 36.3294 18.0859C36.3294 18.0859 36.2924 18.1139 36.2669 18.1596C36.2413 18.2053 36.2368 18.2515 36.2368 18.2515C36.2368 18.2515 36.274 18.2236 36.2995 18.1779Z" fill="#999999"/>
<path d="M36.5072 17.816C36.5327 17.7703 36.5372 17.7241 36.5372 17.7241C36.5372 17.7241 36.5002 17.7521 36.4747 17.7978C36.4492 17.8435 36.4448 17.8897 36.4448 17.8897C36.4448 17.8897 36.4817 17.8618 36.5072 17.816Z" fill="#999999"/>
<path d="M36.3795 18.003C36.4252 18.0285 36.4713 18.033 36.4713 18.033C36.4713 18.033 36.4433 17.996 36.3976 17.9705C36.3519 17.945 36.3057 17.9404 36.3057 17.9404C36.3057 17.9404 36.3338 17.9774 36.3795 18.003Z" fill="#999999"/>
<path d="M36.7145 17.8677C36.7602 17.8932 36.8062 17.8976 36.8062 17.8976C36.8062 17.8976 36.7783 17.8606 36.7325 17.8351C36.6868 17.8095 36.6406 17.8052 36.6406 17.8052C36.6406 17.8052 36.6687 17.8422 36.7145 17.8677Z" fill="#999999"/>
<path d="M36.6051 18.0224C36.5796 18.0681 36.5752 18.1143 36.5752 18.1143C36.5752 18.1143 36.6122 18.0864 36.6377 18.0407C36.6632 17.9949 36.6676 17.9487 36.6676 17.9487C36.6676 17.9487 36.6306 17.9767 36.6051 18.0224Z" fill="#999999"/>
<path d="M36.7908 17.6738C36.7653 17.7195 36.7607 17.7657 36.7607 17.7657C36.7607 17.7657 36.7977 17.7377 36.8233 17.692C36.8488 17.6463 36.8533 17.6001 36.8533 17.6001C36.8533 17.6001 36.8163 17.628 36.7908 17.6738Z" fill="#999999"/>
<path d="M36.8344 18.1089C36.8801 18.1344 36.9263 18.1388 36.9263 18.1388C36.9263 18.1388 36.8984 18.1018 36.8527 18.0763C36.8069 18.0507 36.7607 18.0464 36.7607 18.0464C36.7607 18.0464 36.7887 18.0834 36.8344 18.1089Z" fill="#999999"/>
<path d="M37.0419 17.7471C37.0877 17.7726 37.1339 17.777 37.1339 17.777C37.1339 17.777 37.1059 17.74 37.0602 17.7145C37.0145 17.6889 36.9683 17.6846 36.9683 17.6846C36.9683 17.6846 36.9964 17.7216 37.0419 17.7471Z" fill="#999999"/>
<path d="M36.9327 17.9023C36.9072 17.948 36.9028 17.9942 36.9028 17.9942C36.9028 17.9942 36.9398 17.9663 36.9654 17.9205C36.9909 17.8748 36.9954 17.8286 36.9954 17.8286C36.9954 17.8286 36.9582 17.8566 36.9327 17.9023Z" fill="#999999"/>
<path d="M37.1143 18.1783C37.1398 18.1326 37.1443 18.0864 37.1443 18.0864C37.1443 18.0864 37.1073 18.1144 37.0818 18.1601C37.0563 18.2058 37.0518 18.252 37.0518 18.252C37.0518 18.252 37.0888 18.2241 37.1143 18.1783Z" fill="#999999"/>
<path d="M37.3223 17.8165C37.3478 17.7708 37.3523 17.7246 37.3523 17.7246C37.3523 17.7246 37.3153 17.7526 37.2898 17.7983C37.2643 17.844 37.2598 17.8902 37.2598 17.8902C37.2598 17.8902 37.2968 17.8622 37.3223 17.8165Z" fill="#999999"/>
<path d="M37.1943 18.0034C37.24 18.029 37.2862 18.0335 37.2862 18.0335C37.2862 18.0335 37.2582 17.9965 37.2125 17.971C37.1668 17.9454 37.1206 17.9409 37.1206 17.9409C37.1206 17.9409 37.1486 17.9779 37.1943 18.0034Z" fill="#999999"/>
<path d="M37.4197 18.0229C37.3942 18.0686 37.3896 18.1148 37.3896 18.1148C37.3896 18.1148 37.4266 18.0869 37.4522 18.0411C37.4777 17.9954 37.4822 17.9492 37.4822 17.9492C37.4822 17.9492 37.4452 17.9772 37.4197 18.0229Z" fill="#999999"/>
</g>
<path d="M46.0007 20.6362L46.0007 20.3831C46.0007 20.3551 46.0233 20.3325 46.0513 20.3325L46.1613 20.3325C46.1893 20.3325 46.2119 20.3551 46.2119 20.3831L46.2119 20.6362C46.2119 20.6642 46.1893 20.6868 46.1613 20.6868L46.0513 20.6868C46.0233 20.6866 46.0007 20.664 46.0007 20.6362Z" fill="url(#paint3_linear_652_2143)"/>
<path d="M46.0007 21.1275L46.0007 21.3309C46.0007 21.3726 46.0345 21.4062 46.076 21.4062L46.1363 21.4062C46.178 21.4062 46.2116 21.3724 46.2116 21.3309L46.2116 21.1275C46.2116 21.0858 46.1778 21.0522 46.1363 21.0522L46.076 21.0522C46.0345 21.0521 46.0007 21.0858 46.0007 21.1275Z" fill="url(#paint4_linear_652_2143)"/>
<path d="M45.4011 20.9863L45.4018 20.7871C45.4023 20.6653 45.5013 20.5669 45.6231 20.5674L46.2804 20.5698C46.4023 20.5703 46.5006 20.6693 46.5001 20.7911L46.4995 20.9903C46.499 21.1121 46.4 21.2105 46.2782 21.21L45.6208 21.2076C45.499 21.2071 45.4006 21.1081 45.4011 20.9863Z" fill="url(#paint5_linear_652_2143)"/>
<path d="M46.0007 30.8955L46.0007 30.6424C46.0007 30.6146 46.0233 30.5918 46.0513 30.5918L46.1613 30.5918C46.1893 30.5918 46.2119 30.6144 46.2119 30.6424L46.2119 30.8955C46.2119 30.9235 46.1893 30.9461 46.1613 30.9461L46.0513 30.9461C46.0233 30.9461 46.0007 30.9235 46.0007 30.8955Z" fill="url(#paint6_linear_652_2143)"/>
<path d="M46.0007 31.3868L46.0007 31.5902C46.0007 31.6319 46.0345 31.6655 46.076 31.6655L46.1363 31.6655C46.178 31.6655 46.2116 31.6317 46.2116 31.5902L46.2116 31.3868C46.2116 31.3451 46.1778 31.3115 46.1363 31.3115L46.076 31.3115C46.0345 31.3115 46.0007 31.3453 46.0007 31.3868Z" fill="url(#paint7_linear_652_2143)"/>
<path d="M45.4011 31.2456L45.4018 31.0464C45.4023 30.9246 45.5013 30.8262 45.6231 30.8267L46.2804 30.8291C46.4023 30.8296 46.5006 30.9286 46.5001 31.0504L46.4995 31.2496C46.499 31.3714 46.4 31.4698 46.2782 31.4693L45.6208 31.4669C45.499 31.4666 45.4006 31.3674 45.4011 31.2456Z" fill="url(#paint8_linear_652_2143)"/>
<path d="M30.9976 33.7876L30.9976 18.2119L44.8942 18.2119C45.4407 18.2119 45.8835 18.6549 45.8835 19.2012L45.8835 32.7981C45.8835 33.3446 45.4406 33.7876 44.8942 33.7876L30.9976 33.7876Z" fill="#E1E2DD"/>
<path d="M45.8839 32.3109L45.8839 19.6885C45.8839 18.873 45.2228 18.2119 44.4073 18.2119L43.7361 18.2119L43.7361 33.7876L44.4073 33.7876C45.2228 33.7876 45.8839 33.1264 45.8839 32.3109Z" fill="url(#paint9_linear_652_2143)"/>
<path d="M45.8839 32.3109L45.8839 19.6885C45.8839 18.873 45.2228 18.2119 44.4073 18.2119L43.7361 18.2119L43.7361 33.7876L44.4073 33.7876C45.2228 33.7876 45.8839 33.1264 45.8839 32.3109Z" fill="url(#paint10_linear_652_2143)"/>
<path opacity="0.2" d="M45.5189 32.0991L45.5189 19.8998C45.5189 19.1116 44.8579 18.4727 44.0424 18.4727L43.7361 18.4727L43.7361 33.526L44.0424 33.526C44.8579 33.5262 45.5189 32.8873 45.5189 32.0991Z" fill="black"/>
<path d="M31.2944 18.6938L44.3127 18.6938C44.6807 18.6938 44.9791 18.9922 44.9791 19.3602L44.9791 32.6388C44.9791 33.0069 44.6807 33.3052 44.3127 33.3052L31.2944 33.3052L31.2944 18.6938Z" fill="#F5F7EA"/>
<g opacity="0.1">
<path d="M31.2944 18.6938L44.3127 18.6938C44.6807 18.6938 44.9791 18.9922 44.9791 19.3602L44.9791 32.6388C44.9791 33.0069 44.6807 33.3052 44.3127 33.3052L31.2944 33.3052L31.2944 18.6938Z" fill="url(#paint11_radial_652_2143)"/>
</g>
<g opacity="0.5">
<path d="M31.2944 18.6938L44.3127 18.6938C44.6807 18.6938 44.9791 18.9922 44.9791 19.3602L44.9791 32.6388C44.9791 33.0069 44.6807 33.3052 44.3127 33.3052L31.2944 33.3052L31.2944 18.6938Z" fill="url(#paint12_linear_652_2143)"/>
</g>
<path opacity="0.3" d="M44.9793 22.5384L44.9793 21.6878L35.2746 20.9531L35.2109 21.8037L44.9793 22.5384Z" fill="url(#paint13_linear_652_2143)"/>
<path opacity="0.3" d="M44.9793 29.4536L44.9793 30.3042L35.2746 31.0389L35.2109 30.1883L44.9793 29.4536Z" fill="url(#paint14_linear_652_2143)"/>
<path d="M45.4009 32.3106L45.4009 19.6882C45.4009 19.1399 44.955 18.6938 44.4066 18.6938L43.9846 18.6938C44.5337 18.6938 44.9791 19.1391 44.9791 19.6882L44.9791 32.3106C44.9791 32.8598 44.5339 33.3051 43.9846 33.3051L44.4066 33.3051C44.955 33.3051 45.4009 32.859 45.4009 32.3106Z" fill="#CCCCCC"/>
<path opacity="0.4" d="M45.354 29.3948L45.354 22.5391L45.2989 22.5391L45.2989 29.3948L45.354 29.3948Z" fill="#666666"/>
<path opacity="0.4" d="M45.26 29.3948L45.26 22.5391L45.2049 22.5391L45.2049 29.3948L45.26 29.3948Z" fill="#666666"/>
<path opacity="0.4" d="M45.1665 29.3948L45.1665 22.5391L45.1114 22.5391L45.1114 29.3948L45.1665 29.3948Z" fill="#666666"/>
<path opacity="0.4" d="M45.073 29.3948L45.073 22.5391L45.0179 22.5391L45.0179 29.3948L45.073 29.3948Z" fill="#666666"/>
<path d="M45.4019 19.69L45.4019 19.6882C45.4019 19.1399 44.956 18.6938 44.4076 18.6938L43.9856 18.6938C44.5347 18.6938 44.9801 19.1391 44.9801 19.6882L44.9801 19.69L45.4019 19.69Z" fill="#FF6600"/>
<path d="M44.98 22.5001L44.98 19.688L45.4019 19.688L45.4019 22.7789L44.98 22.5001Z" fill="#DCFFFE"/>
<path d="M45.0176 19.6898L45.0176 22.5249L45.1116 22.5871L45.1116 19.6898L45.1116 19.688L45.0176 19.688L45.0176 19.6898Z" fill="white"/>
<path opacity="0.4" d="M45.1117 19.6882C45.1117 19.1399 44.6658 18.6938 44.1174 18.6938L44.0232 18.6938C44.5715 18.6938 45.0175 19.1399 45.0175 19.6882L45.0175 19.69L45.1117 19.69L45.1117 19.6882Z" fill="white"/>
<path d="M44.0232 18.6937L44.0232 18.595C44.0232 18.5693 44.0555 18.5483 44.0952 18.5483L44.3729 18.5483C44.4127 18.5483 44.445 18.5692 44.445 18.595L44.445 18.6937L44.0232 18.6937Z" fill="#FF6600"/>
<path d="M45.4019 32.292L45.4019 32.2938C45.4019 32.8421 44.956 33.2881 44.4076 33.2881L43.9856 33.2881C44.5347 33.2881 44.9801 32.8429 44.9801 32.2938L44.9801 32.292L45.4019 32.292Z" fill="#FF6600"/>
<path d="M44.9797 29.4813L44.9797 32.2934L45.4017 32.2934L45.4017 29.2026L44.9797 29.4813Z" fill="#DCFFFE"/>
<path d="M45.0173 32.2914L45.0173 29.4562L45.1114 29.394L45.1114 32.2914L45.1114 32.2932L45.0173 32.2932L45.0173 32.2914Z" fill="white"/>
<path opacity="0.4" d="M45.1117 32.2938C45.1117 32.8421 44.6658 33.2881 44.1174 33.2881L44.0232 33.2881C44.5715 33.2881 45.0175 32.8421 45.0175 32.2938L45.0175 32.292L45.1117 32.292L45.1117 32.2938Z" fill="white"/>
<path d="M44.0232 33.2876L44.0232 33.3863C44.0232 33.412 44.0555 33.433 44.0952 33.433L44.3729 33.433C44.4127 33.433 44.445 33.4122 44.445 33.3863L44.445 33.2876L44.0232 33.2876Z" fill="#FF6600"/>
<path d="M34.0672 19.9872C34.2952 21.5426 34.838 28.4329 34.1159 31.8307C34.0441 32.1681 34.2197 32.5076 34.5361 32.6448L38.7313 33.2592C39.057 33.4003 39.4325 33.2301 39.5376 32.891C40.0746 31.1606 41.3058 25.9772 39.4775 19.1276C39.3858 18.784 39.0095 18.6014 38.6798 18.7347L34.5141 19.2108C34.2039 19.336 34.0188 19.656 34.0672 19.9872Z" fill="#F4F4F4"/>
<path opacity="0.5" d="M34.0672 19.9872C34.2952 21.5426 34.838 28.4329 34.1159 31.8307C34.0441 32.1681 34.2197 32.5076 34.5361 32.6448L38.7313 33.2592C39.057 33.4003 39.4325 33.2301 39.5376 32.891C40.0746 31.1606 41.3058 25.9772 39.4775 19.1276C39.3858 18.784 39.0095 18.6014 38.6798 18.7347L34.5141 19.2108C34.2039 19.336 34.0188 19.656 34.0672 19.9872Z" fill="url(#paint15_linear_652_2143)"/>
<path d="M34.3521 19.882C34.3521 19.7057 34.4587 19.5489 34.6235 19.4821L38.7892 19.0061C38.8706 18.9733 38.9625 18.977 39.041 19.0162C39.1179 19.0547 39.1725 19.1211 39.1947 19.2032C39.8289 21.5794 40.1505 23.9803 40.1505 26.3392C40.1505 29.4619 39.5913 31.7301 39.2578 32.8042C39.2321 32.8869 39.1749 32.9524 39.0963 32.9884C39.0168 33.0249 38.9287 33.0257 38.8475 32.9905L34.6524 32.3761C34.4945 32.3076 34.3924 32.1529 34.3924 31.9818C34.3924 31.9517 34.3957 31.9215 34.4021 31.8915C34.6466 30.7409 34.7705 28.1586 34.7705 26.5933C34.7705 24.3139 34.5113 20.9991 34.3567 19.9447C34.3535 19.9235 34.3521 19.9027 34.3521 19.882Z" fill="black"/>
<path d="M34.499 19.8822C34.499 19.7659 34.5696 19.6624 34.6788 19.6183L38.8445 19.1422C38.9025 19.1188 38.9518 19.1354 38.976 19.1475C39.0038 19.1614 39.0395 19.1889 39.0536 19.2412C39.6846 21.6051 40.0046 23.9933 40.0046 26.3395C40.0046 29.443 39.4494 31.695 39.1185 32.761C39.1008 32.8185 39.0591 32.845 39.0358 32.8557C39.0117 32.8665 38.9634 32.8812 38.9063 32.8565L34.7108 32.2421C34.6068 32.1969 34.5392 32.0948 34.5392 31.982C34.5392 31.9622 34.5415 31.9421 34.5455 31.9223C34.7924 30.7617 34.9173 28.169 34.9173 26.5936C34.9173 24.3049 34.657 20.982 34.5021 19.9237C34.5002 19.9099 34.499 19.896 34.499 19.8822Z" fill="#676B86"/>
<path opacity="0.2" d="M37.707 19.2722C38.1214 20.977 38.4539 23.5277 38.4539 26.0002C38.4539 28.4467 38.1137 30.9826 37.707 32.6808L38.9062 32.8564C38.9634 32.8812 39.0117 32.8665 39.0358 32.8556C39.0589 32.845 39.1007 32.8185 39.1185 32.761C39.4493 31.6949 40.0046 29.4429 40.0046 26.3394C40.0046 23.9933 39.6846 21.6051 39.0535 19.2412C39.0395 19.1888 39.0038 19.1614 38.976 19.1475C38.9518 19.1355 38.9025 19.1187 38.8445 19.1421L37.707 19.2722Z" fill="black"/>
<path d="M38.7622 19.1753C39.2131 21.0009 39.4868 23.3868 39.4868 26.0002C39.4868 28.6001 39.2158 30.9749 38.7692 32.797L38.9063 32.8564C38.9635 32.8812 39.0118 32.8665 39.0359 32.8556C39.059 32.845 39.1008 32.8185 39.1186 32.761C39.4494 31.6949 40.0047 29.4429 40.0047 26.3394C40.0047 23.9933 39.6847 21.6051 39.0536 19.2412C39.0396 19.1888 39.0039 19.1614 38.9761 19.1475C38.9519 19.1355 38.9026 19.1187 38.8446 19.1421L38.7622 19.1753Z" fill="#333333"/>
<path d="M38.834 21.3887L39.2314 23.2975L39.1359 23.315L38.7861 21.3972L38.834 21.3887Z" fill="black"/>
<path d="M39.6192 25.9606L39.1436 23.353L39.2659 23.4819L39.7146 25.9431L39.6192 25.9606Z" fill="black"/>
<path d="M38.7817 21.5087L39.6108 26.0629L39.6617 26.0536L38.8116 21.3926L38.7817 21.5087Z" fill="#333333"/>
<path d="M39.6405 25.9455C39.7136 25.9323 39.7835 25.9806 39.7968 26.0536C39.81 26.1266 39.7617 26.1966 39.6887 26.2098C39.6157 26.2231 39.5457 26.1748 39.5325 26.1018C39.5192 26.0287 39.5675 25.9588 39.6405 25.9455Z" fill="black"/>
<path d="M39.6167 25.95C39.6765 25.9392 39.7338 25.9788 39.7446 26.0386C39.7556 26.0983 39.7159 26.1557 39.6561 26.1665C39.5963 26.1775 39.539 26.1377 39.5281 26.078C39.5173 26.0182 39.5569 25.9608 39.6167 25.95Z" fill="#333333"/>
<path d="M39.0481 25.6191L39.2524 27.5582L39.1557 27.5661L38.9998 25.623L39.0481 25.6191Z" fill="black"/>
<path d="M39.3702 30.2466L39.1582 27.6045L39.2668 27.7452L39.4669 30.2389L39.3702 30.2466Z" fill="black"/>
<path d="M38.9844 25.7337L39.3532 30.348L39.4049 30.3438L39.0257 25.6211L38.9844 25.7337Z" fill="#333333"/>
<path d="M39.3941 30.2343C39.468 30.2284 39.5327 30.2836 39.5386 30.3574C39.5446 30.4314 39.4894 30.496 39.4155 30.502C39.3415 30.508 39.2769 30.4527 39.271 30.3789C39.265 30.3051 39.3201 30.2403 39.3941 30.2343Z" fill="black"/>
<path d="M39.3702 30.2357C39.4308 30.2309 39.4838 30.2759 39.4888 30.3365C39.4936 30.3971 39.4484 30.4501 39.3878 30.4549C39.3272 30.4598 39.2742 30.4147 39.2694 30.3541C39.2646 30.2935 39.3096 30.2406 39.3702 30.2357Z" fill="#333333"/>
<path opacity="0.5" d="M34.499 19.8822C34.499 19.7659 34.5696 19.6624 34.6788 19.6183L38.8445 19.1422C38.9025 19.1188 38.9518 19.1354 38.976 19.1475C39.0038 19.1614 39.0395 19.1889 39.0536 19.2412C39.6846 21.6051 40.0046 23.9933 40.0046 26.3395C40.0046 29.443 39.4494 31.695 39.1185 32.761C39.1008 32.8185 39.0591 32.845 39.0358 32.8557C39.0117 32.8665 38.9634 32.8812 38.9063 32.8565L34.7108 32.2421C34.6068 32.1969 34.5392 32.0948 34.5392 31.982C34.5392 31.9622 34.5415 31.9421 34.5455 31.9223C34.7924 30.7617 34.9173 28.169 34.9173 26.5936C34.9173 24.3049 34.657 20.982 34.5021 19.9237C34.5002 19.9099 34.499 19.896 34.499 19.8822Z" fill="url(#paint16_radial_652_2143)"/>
<path opacity="0.3" d="M34.499 19.8822C34.499 19.7659 34.5696 19.6624 34.6788 19.6183L38.8445 19.1422C38.9025 19.1188 38.9518 19.1354 38.976 19.1475C39.0038 19.1614 39.0395 19.1889 39.0536 19.2412C39.6846 21.6051 40.0046 23.9933 40.0046 26.3395C40.0046 29.443 39.4494 31.695 39.1185 32.761C39.1008 32.8185 39.0591 32.845 39.0358 32.8557C39.0117 32.8665 38.9634 32.8812 38.9063 32.8565L34.7108 32.2421C34.6068 32.1969 34.5392 32.0948 34.5392 31.982C34.5392 31.9622 34.5415 31.9421 34.5455 31.9223C34.7924 30.7617 34.9173 28.169 34.9173 26.5936C34.9173 24.3049 34.657 20.982 34.5021 19.9237C34.5002 19.9099 34.499 19.896 34.499 19.8822Z" fill="url(#paint17_radial_652_2143)"/>
<path d="M31.292 18.6874C31.292 18.6942 31.2931 18.7011 31.2949 18.7081L31.292 19.3796C31.3125 19.4489 31.4358 19.5013 31.5786 19.5013L33.5181 19.5013C33.5571 19.5013 33.595 19.4976 33.6309 19.4901L39.0092 18.7685C39.0711 18.7557 39.1095 18.7275 39.1095 18.6947C39.1095 18.6494 39.0375 18.6139 38.9454 18.6139L31.5815 18.5454C31.5035 18.5454 31.4306 18.5603 31.3758 18.5876C31.3216 18.6144 31.292 18.6499 31.292 18.6874Z" fill="#F4F4F4"/>
<path opacity="0.5" d="M31.292 18.6874C31.292 18.6942 31.2931 18.7011 31.2949 18.7081L31.292 19.3796C31.3125 19.4489 31.4358 19.5013 31.5786 19.5013L33.5181 19.5013C33.5571 19.5013 33.595 19.4976 33.6309 19.4901L39.0092 18.7685C39.0711 18.7557 39.1095 18.7275 39.1095 18.6947C39.1095 18.6494 39.0375 18.6139 38.9454 18.6139L31.5815 18.5454C31.5035 18.5454 31.4306 18.5603 31.3758 18.5876C31.3216 18.6144 31.292 18.6499 31.292 18.6874Z" fill="url(#paint18_linear_652_2143)"/>
<path d="M38.9669 18.719L33.5884 19.4406C33.5661 19.4453 33.5422 19.4476 33.518 19.4476L31.5786 19.4476C31.4886 19.4476 31.4123 19.4151 31.3994 19.3715L31.4023 18.6999C31.3863 18.6463 31.4711 18.5981 31.5815 18.5981L38.9454 18.6666C39.0056 18.6668 39.0223 18.7075 38.9669 18.719Z" fill="black"/>
<path d="M31.5097 18.6926L31.5068 19.3641C31.5118 19.3816 31.5427 19.3947 31.5786 19.3947L33.5181 19.3947C33.5278 19.3947 33.5372 19.3937 33.5461 19.3919L38.683 18.7204L31.5815 18.6519C31.5619 18.6519 31.5437 18.6556 31.5299 18.6624C31.5164 18.6691 31.5089 18.678 31.5089 18.6874L31.5097 18.6926Z" fill="#676B86"/>
<path opacity="0.2" d="M31.5758 18.9139L31.5101 18.6927L31.5093 18.6874C31.5093 18.678 31.5167 18.6691 31.5303 18.6624C31.544 18.6556 31.5623 18.6519 31.5818 18.6519L38.6834 18.7203L36.2294 18.8354L31.5758 18.9139Z" fill="black"/>
<path opacity="0.5" d="M31.5097 18.6926L31.5068 19.3641C31.5118 19.3816 31.5427 19.3947 31.5786 19.3947L33.5181 19.3947C33.5278 19.3947 33.5372 19.3937 33.5461 19.3919L38.683 18.7204L31.5815 18.6519C31.5619 18.6519 31.5437 18.6556 31.5299 18.6624C31.5164 18.6691 31.5089 18.678 31.5089 18.6874L31.5097 18.6926Z" fill="url(#paint19_linear_652_2143)"/>
<path opacity="0.3" d="M31.5097 18.6926L31.5068 19.3641C31.5118 19.3816 31.5427 19.3947 31.5786 19.3947L33.5181 19.3947C33.5278 19.3947 33.5372 19.3937 33.5461 19.3919L38.683 18.7204L31.5815 18.6519C31.5619 18.6519 31.5437 18.6556 31.5299 18.6624C31.5164 18.6691 31.5089 18.678 31.5089 18.6874L31.5097 18.6926Z" fill="url(#paint20_linear_652_2143)"/>
<path d="M31.2925 33.3525C31.2925 33.3457 31.2936 33.3387 31.2954 33.3318L31.2925 32.6602C31.313 32.5909 31.4363 32.5386 31.5791 32.5386L33.5186 32.5386C33.5576 32.5386 33.5955 32.5423 33.6314 32.5499L39.0097 33.2715C39.0716 33.2844 39.11 33.3125 39.11 33.3453C39.11 33.3906 39.038 33.4261 38.9459 33.4261L31.582 33.4946C31.504 33.4946 31.4311 33.4798 31.3763 33.4526C31.322 33.4255 31.2925 33.3899 31.2925 33.3525Z" fill="#F4F4F4"/>
<path opacity="0.5" d="M31.2925 33.3525C31.2925 33.3457 31.2936 33.3387 31.2954 33.3318L31.2925 32.6602C31.313 32.5909 31.4363 32.5386 31.5791 32.5386L33.5186 32.5386C33.5576 32.5386 33.5955 32.5423 33.6314 32.5499L39.0097 33.2715C39.0716 33.2844 39.11 33.3125 39.11 33.3453C39.11 33.3906 39.038 33.4261 38.9459 33.4261L31.582 33.4946C31.504 33.4946 31.4311 33.4798 31.3763 33.4526C31.322 33.4255 31.2925 33.3899 31.2925 33.3525Z" fill="url(#paint21_linear_652_2143)"/>
<path d="M38.9674 33.3209L33.5889 32.5992C33.5666 32.5945 33.5427 32.5923 33.5185 32.5923L31.5791 32.5923C31.4891 32.5923 31.4128 32.6246 31.3999 32.6684L31.4028 33.3399C31.3868 33.3936 31.4716 33.4417 31.582 33.4417L38.9459 33.3732C39.0061 33.3731 39.0228 33.3325 38.9674 33.3209Z" fill="black"/>
<path d="M31.5102 33.3471L31.5073 32.6756C31.5123 32.6581 31.5432 32.645 31.5791 32.645L33.5186 32.645C33.5283 32.645 33.5377 32.646 33.5466 32.6478L38.6835 33.3193L31.582 33.3878C31.5624 33.3878 31.5442 33.3841 31.5304 33.3773C31.5169 33.3705 31.5094 33.3616 31.5094 33.3523L31.5102 33.3471Z" fill="#676B86"/>
<path opacity="0.2" d="M31.5758 33.126L31.5101 33.3471L31.5093 33.3525C31.5093 33.3618 31.5167 33.3707 31.5303 33.3775C31.544 33.3843 31.5623 33.388 31.5818 33.388L38.6834 33.3195L36.2294 33.2045L31.5758 33.126Z" fill="black"/>
<path opacity="0.5" d="M31.5102 33.3471L31.5073 32.6756C31.5123 32.6581 31.5432 32.645 31.5791 32.645L33.5186 32.645C33.5283 32.645 33.5377 32.646 33.5466 32.6478L38.6835 33.3193L31.582 33.3878C31.5624 33.3878 31.5442 33.3841 31.5304 33.3773C31.5169 33.3705 31.5094 33.3616 31.5094 33.3523L31.5102 33.3471Z" fill="url(#paint22_linear_652_2143)"/>
<path opacity="0.3" d="M31.5102 33.3471L31.5073 32.6756C31.5123 32.6581 31.5432 32.645 31.5791 32.645L33.5186 32.645C33.5283 32.645 33.5377 32.646 33.5466 32.6478L38.6835 33.3193L31.582 33.3878C31.5624 33.3878 31.5442 33.3841 31.5304 33.3773C31.5169 33.3705 31.5094 33.3616 31.5094 33.3523L31.5102 33.3471Z" fill="url(#paint23_linear_652_2143)"/>
<path d="M38.1589 18.6946L37.5298 17.0625L37.8343 17.0625C37.9776 17.0625 38.1062 17.1507 38.1577 17.2845L38.7013 18.6946L38.1589 18.6946Z" fill="#999999"/>
<path opacity="0.4" d="M38.1213 18.6946L37.4922 17.0625L37.7967 17.0625C37.94 17.0625 38.0686 17.1507 38.1203 17.2845L38.6639 18.6946L38.1213 18.6946Z" fill="url(#paint24_linear_652_2143)"/>
<path d="M37.7323 18.2271L37.3967 17.1969C37.3751 17.1305 37.4245 17.0625 37.4943 17.0625L37.869 17.0625L38.2714 18.2982L37.83 18.2982C37.7856 18.298 37.7462 18.2693 37.7323 18.2271Z" fill="#666666"/>
<path opacity="0.3" d="M37.7323 18.2271L37.3967 17.1969C37.3751 17.1305 37.4245 17.0625 37.4943 17.0625L37.869 17.0625L38.2714 18.2982L37.83 18.2982C37.7856 18.298 37.7462 18.2693 37.7323 18.2271Z" fill="url(#paint25_linear_652_2143)"/>
<path d="M38.1584 33.3604L37.5293 34.9925L37.8338 34.9925C37.9771 34.9925 38.1057 34.9043 38.1572 34.7705L38.7009 33.3604L38.1584 33.3604Z" fill="#999999"/>
<path opacity="0.4" d="M38.1208 33.3604L37.4917 34.9925L37.7962 34.9925C37.9395 34.9925 38.0681 34.9043 38.1198 34.7705L38.6634 33.3604L38.1208 33.3604Z" fill="url(#paint26_linear_652_2143)"/>
<path d="M37.7318 33.8278L37.3963 34.8579C37.3746 34.9243 37.424 34.9925 37.4938 34.9925L37.8685 34.9925L38.2709 33.7568L37.8295 33.7568C37.7851 33.757 37.7457 33.7856 37.7318 33.8278Z" fill="#666666"/>
<path opacity="0.3" d="M37.7318 33.8278L37.3963 34.8579C37.3746 34.9243 37.424 34.9925 37.4938 34.9925L37.8685 34.9925L38.2709 33.7568L37.8295 33.7568C37.7851 33.757 37.7457 33.7856 37.7318 33.8278Z" fill="url(#paint27_linear_652_2143)"/>
<path opacity="0.7" d="M31.5947 30.1422L31.5947 21.3726L32.6729 21.6952L32.6729 30.4648L31.5947 30.1422Z" fill="url(#paint28_linear_652_2143)"/>
<path d="M31.8604 30.2989L31.8604 21.6997C31.8604 21.4387 32.072 21.2271 32.333 21.2271L32.8358 21.2271C33.0968 21.2271 33.3085 21.4387 33.3085 21.6997L33.3085 30.2989C33.3085 30.56 33.0968 30.7716 32.8358 30.7716L32.333 30.7716C32.072 30.7716 31.8604 30.56 31.8604 30.2989Z" fill="#999999"/>
<path d="M33.3083 30.2986L33.3083 27.0605L31.8604 27.0605L31.8604 30.2986C31.8604 30.5597 32.072 30.7713 32.333 30.7713L32.8358 30.7713C33.0967 30.7713 33.3083 30.5597 33.3083 30.2986Z" fill="#5D94FF"/>
<path opacity="0.5" d="M32.2051 27.4058L32.964 27.4058L32.964 30.2993C32.964 30.3697 32.9065 30.4272 32.8358 30.4272L32.3333 30.4272C32.2626 30.4272 32.2051 30.3698 32.2051 30.2993L32.2051 27.4058Z" fill="#5384E4"/>
<path d="M33.3083 21.6997L33.3083 24.9378L31.8604 24.9378L31.8604 21.6997C31.8604 21.4387 32.072 21.2271 32.333 21.2271L32.8358 21.2271C33.0967 21.2271 33.3083 21.4387 33.3083 21.6997Z" fill="#CC0000"/>
<path opacity="0.3" d="M32.2051 21.6999C32.2051 21.6293 32.2626 21.5718 32.3333 21.5718L32.8358 21.5718C32.9065 21.5718 32.964 21.6291 32.964 21.6999L32.964 24.5934L32.2051 24.5934L32.2051 21.6999Z" fill="#660000"/>
<path opacity="0.5" d="M31.8604 30.2989L31.8604 21.6997C31.8604 21.4387 32.072 21.2271 32.333 21.2271L32.8358 21.2271C33.0968 21.2271 33.3085 21.4387 33.3085 21.6997L33.3085 30.2989C33.3085 30.56 33.0968 30.7716 32.8358 30.7716L32.333 30.7716C32.072 30.7716 31.8604 30.56 31.8604 30.2989Z" fill="url(#paint29_radial_652_2143)"/>
<path opacity="0.5" d="M31.8604 30.2989L31.8604 21.6997C31.8604 21.4387 32.072 21.2271 32.333 21.2271L32.8358 21.2271C33.0968 21.2271 33.3085 21.4387 33.3085 21.6997L33.3085 30.2989C33.3085 30.56 33.0968 30.7716 32.8358 30.7716L32.333 30.7716C32.072 30.7716 31.8604 30.56 31.8604 30.2989Z" fill="url(#paint30_linear_652_2143)"/>
<path d="M33.1883 30.1254L33.1883 21.8734C33.1883 21.6228 33.0027 21.4199 32.7738 21.4199L32.585 21.4199C32.8139 21.4199 32.9995 21.623 32.9995 21.8734L32.9995 30.1254C32.9995 30.3758 32.8139 30.5789 32.585 30.5789L32.7738 30.5789C33.0027 30.5789 33.1883 30.3758 33.1883 30.1254Z" fill="url(#paint31_linear_652_2143)"/>
<path d="M31.981 30.1254L31.981 21.8734C31.981 21.6228 32.1666 21.4199 32.3955 21.4199L32.5843 21.4199C32.3554 21.4199 32.1698 21.623 32.1698 21.8734L32.1698 30.1254C32.1698 30.3758 32.3554 30.5789 32.5843 30.5789L32.3955 30.5789C32.1664 30.5789 31.981 30.3758 31.981 30.1254Z" fill="url(#paint32_linear_652_2143)"/>
<path opacity="0.4" d="M33.2276 21.4365L33.0858 21.5556C33.0375 21.5963 32.9449 21.6215 32.8444 21.6217L32.3247 21.6221C32.2239 21.6223 32.1308 21.5969 32.0824 21.5561L31.94 21.4365C31.9182 21.4692 31.9019 21.5053 31.8887 21.543L31.9848 21.6238C32.0358 21.6666 32.1334 21.6932 32.2394 21.6931L32.9265 21.6926C33.0316 21.6924 33.1286 21.6661 33.1795 21.6236L33.2785 21.541C33.2654 21.5042 33.2492 21.4685 33.2276 21.4365Z" fill="white"/>
<path opacity="0.4" d="M33.2276 30.5554L33.0858 30.4363C33.0375 30.3956 32.9449 30.3704 32.8444 30.3702L32.3247 30.3697C32.2239 30.3697 32.1308 30.395 32.0824 30.4358L31.94 30.5554C31.9182 30.5227 31.9019 30.4866 31.8887 30.4489L31.9848 30.3681C32.0358 30.3253 32.1334 30.2987 32.2394 30.2988L32.9265 30.2995C33.0316 30.2995 33.1286 30.326 33.1795 30.3685L33.2785 30.451C33.2654 30.4878 33.2492 30.5234 33.2276 30.5554Z" fill="white"/>
<path opacity="0.4" d="M32.6189 21.9165L32.5493 21.9165L32.5493 30.0824L32.6189 30.0824L32.6189 21.9165Z" fill="black"/>
<path d="M6.86767 34.2017L6.86768 17.7981C6.86768 17.6018 7.0268 17.4429 7.22309 17.4429L30.6426 17.4429C30.8389 17.4429 30.998 17.602 30.998 17.7981L30.998 34.2017C30.998 34.398 30.8389 34.5571 30.6426 34.5571L7.22309 34.5571C7.0268 34.5571 6.86767 34.398 6.86767 34.2017Z" fill="#CC3300"/>
<path d="M7.10791 17.798C7.10791 17.735 7.15928 17.6836 7.22213 17.6836L30.6416 17.6836C30.7045 17.6836 30.7558 17.735 30.7558 17.798L30.7558 34.2014C30.7558 34.2644 30.7045 34.3156 30.6416 34.3156L7.22212 34.3156C7.15928 34.3156 7.10791 34.2642 7.10791 34.2014L7.10791 17.798Z" fill="#F5F7EA"/>
<path d="M7.10791 17.798C7.10791 17.735 7.15928 17.6836 7.22213 17.6836L30.6416 17.6836C30.7045 17.6836 30.7558 17.735 30.7558 17.798L30.7558 34.2014C30.7558 34.2644 30.7045 34.3156 30.6416 34.3156L7.22212 34.3156C7.15928 34.3156 7.10791 34.2642 7.10791 34.2014L7.10791 17.798Z" fill="url(#paint33_radial_652_2143)"/>
<path opacity="0.2" d="M7.10791 17.798C7.10791 17.735 7.15928 17.6836 7.22213 17.6836L30.6416 17.6836C30.7045 17.6836 30.7558 17.735 30.7558 17.798L30.7558 34.2014C30.7558 34.2644 30.7045 34.3156 30.6416 34.3156L7.22212 34.3156C7.15928 34.3156 7.10791 34.2642 7.10791 34.2014L7.10791 17.798Z" fill="#FF8282"/>
<path d="M6.74636 20.0696L6.86769 20.0696L6.86769 18.4121L6.74636 18.4121C6.61034 18.4121 6.5 18.5224 6.5 18.6586L6.5 19.8232C6.5 19.9593 6.61034 20.0696 6.74636 20.0696Z" fill="#EF0C0C"/>
<path opacity="0.4" d="M6.82648 19.8828L6.82648 18.5986C6.66913 18.5986 6.5415 18.7263 6.5415 18.8836L6.5415 19.5978C6.5415 19.7552 6.66913 19.8828 6.82648 19.8828Z" fill="#660000"/>
<path d="M6.8441 18.5137L6.8441 18.5216C6.69935 18.5534 6.59095 18.682 6.59095 18.8363L6.59095 19.6448C6.59095 19.7991 6.69935 19.9277 6.8441 19.9595L6.8441 19.9674C6.66591 19.9674 6.52148 19.823 6.52148 19.6448L6.52148 18.8363C6.52148 18.6581 6.66591 18.5137 6.8441 18.5137Z" fill="url(#paint34_linear_652_2143)"/>
<path opacity="0.6" d="M6.68905 19.5209C6.68808 19.3673 6.68711 19.2135 6.68598 19.0599C6.6855 18.9917 6.6792 18.9174 6.6926 18.85C6.6981 18.8227 6.70876 18.7694 6.74478 18.7681C6.78016 18.7668 6.78566 18.8091 6.78582 18.8358C6.78582 18.9119 6.79131 19.7787 6.77693 19.7787C6.74398 19.7784 6.71571 19.7521 6.70295 19.7216C6.69018 19.691 6.68986 19.6571 6.68954 19.6241C6.68954 19.5897 6.68921 19.5553 6.68905 19.5209Z" fill="url(#paint35_linear_652_2143)"/>
<path d="M6.74636 33.2498L6.86769 33.2498L6.86769 31.5923L6.74636 31.5923C6.61034 31.5923 6.5 31.7026 6.5 31.8387L6.5 33.0032C6.5 33.1393 6.61034 33.2498 6.74636 33.2498Z" fill="#EF0C0C"/>
<path opacity="0.4" d="M6.82599 33.0628L6.82599 31.7788C6.66864 31.7788 6.54102 31.9064 6.54102 32.0638L6.54102 32.778C6.54102 32.9352 6.66864 33.0628 6.82599 33.0628Z" fill="#660000"/>
<path d="M6.84507 31.6943L6.84507 31.7023C6.70033 31.7341 6.59193 31.8627 6.59193 32.0169L6.59193 32.8255C6.59193 32.9798 6.70033 33.1084 6.84507 33.1402L6.84507 33.1481C6.66689 33.1481 6.52246 33.0037 6.52246 32.8255L6.52246 32.0169C6.52246 31.8388 6.66689 31.6943 6.84507 31.6943Z" fill="url(#paint36_linear_652_2143)"/>
<path opacity="0.6" d="M6.68905 32.7011C6.68808 32.5475 6.68711 32.3937 6.68598 32.24C6.6855 32.1719 6.6792 32.0975 6.6926 32.0302C6.6981 32.0029 6.70876 31.9496 6.74478 31.9483C6.78016 31.947 6.78566 31.9893 6.78582 32.016C6.78582 32.092 6.79131 32.9589 6.77693 32.9589C6.74398 32.9586 6.71571 32.9323 6.70295 32.9017C6.69018 32.8712 6.68986 32.8373 6.68954 32.8043C6.68954 32.7697 6.68921 32.7353 6.68905 32.7011Z" fill="url(#paint37_linear_652_2143)"/>
<path d="M22.2573 24.9368L20.1713 24.9368C20.0745 24.9368 19.9958 24.8585 19.9958 24.7617L19.9958 22.6757C19.9958 22.5789 19.9174 22.5005 19.8206 22.5005L18.0439 22.5005C17.9471 22.5005 17.8685 22.5789 17.8685 22.6757L17.8685 24.7617C17.8685 24.8585 17.7901 24.9368 17.6933 24.9368L15.6073 24.9368C15.5105 24.9368 15.4321 25.0152 15.4321 25.1123L15.4321 26.889C15.4321 26.9858 15.5105 27.0641 15.6073 27.0641L17.6933 27.0641C17.7901 27.0641 17.8685 27.1425 17.8685 27.2396L17.8685 29.3253C17.8685 29.4221 17.9469 29.5005 18.0439 29.5005L19.8206 29.5005C19.9174 29.5005 19.9958 29.4221 19.9958 29.3253L19.9958 27.2396C19.9958 27.1428 20.0742 27.0641 20.1713 27.0641L22.2573 27.0641C22.3541 27.0641 22.4325 26.9858 22.4325 26.889L22.4325 25.1123C22.4325 25.0152 22.3541 24.9368 22.2573 24.9368Z" fill="#CC3300"/>
<path d="M6.86768 31.1853L6.86768 20.4443L6.54506 20.4443L6.54506 31.1853L6.86768 31.1853Z" fill="#F5F7EA"/>
<path opacity="0.5" d="M6.54492 31.1849L6.54492 20.4438L6.86754 20.4438L6.86753 31.1849L6.54492 31.1849Z" fill="url(#paint38_linear_652_2143)"/>
<path opacity="0.5" d="M6.86768 25.8571L6.86768 25.772L6.54506 25.772L6.54506 25.8571L6.86768 25.8571Z" fill="#666666"/>
<path d="M6.65704 25.4932L6.65704 20.6851C6.65704 20.6268 6.60987 20.5796 6.55155 20.5796L6.54541 20.5796L6.54541 25.5987L6.55155 25.5987C6.60987 25.5987 6.65704 25.5516 6.65704 25.4932Z" fill="#AAD5F9"/>
<path d="M6.65704 25.4932L6.65704 20.6851C6.65704 20.6268 6.60987 20.5796 6.55155 20.5796L6.54541 20.5796L6.54541 20.5936C6.5782 20.6116 6.60131 20.645 6.60131 20.6851L6.6013 25.4932C6.6013 25.5331 6.5782 25.5667 6.54541 25.5847L6.54541 25.5987L6.55155 25.5987C6.60987 25.5987 6.65704 25.5516 6.65704 25.4932Z" fill="white"/>
<path d="M6.65655 30.9508L6.65655 26.1426C6.65655 26.0843 6.60938 26.0371 6.55106 26.0371L6.54492 26.0371L6.54492 31.0562L6.55106 31.0562C6.60938 31.0561 6.65655 31.0089 6.65655 30.9508Z" fill="#AAD5F9"/>
<path d="M6.65655 30.9508L6.65655 26.1426C6.65655 26.0843 6.60938 26.0371 6.55106 26.0371L6.54492 26.0371L6.54492 26.0512C6.57772 26.0691 6.60082 26.1025 6.60082 26.1426L6.60082 30.9508C6.60082 30.9907 6.57772 31.0243 6.54492 31.0422L6.54492 31.0562L6.55106 31.0562C6.60938 31.0561 6.65655 31.0089 6.65655 30.9508Z" fill="white"/>
<path d="M30.7563 34.5564L36.666 34.5564C36.8405 34.5564 37.0077 34.4871 37.1311 34.3638L37.7073 33.7876L30.7563 33.7876L30.7563 34.5564Z" fill="#CCCCCC"/>
<path d="M30.8774 34.4357L30.8774 33.9077L37.417 33.9077L37.0465 34.2783C36.9451 34.3798 36.8102 34.4357 36.6667 34.4357L30.8774 34.4357Z" fill="url(#paint39_linear_652_2143)"/>
<path opacity="0.5" d="M30.7563 34.5564L36.666 34.5564C36.8405 34.5564 37.0077 34.4871 37.1311 34.3638L37.7073 33.7876L30.7563 33.7876L30.7563 34.5564Z" fill="url(#paint40_linear_652_2143)"/>
<path opacity="0.4" d="M30.7563 34.5564L36.666 34.5564C36.8405 34.5564 37.0077 34.4871 37.1311 34.3638L37.7073 33.7876L30.7563 33.7876L30.7563 34.5564Z" fill="url(#paint41_linear_652_2143)"/>
<mask id="mask1_652_2143" style="mask-type:luminance" maskUnits="userSpaceOnUse" x="30" y="33" width="8" height="2">
<path d="M30.8774 34.4357L30.8774 33.9077L37.417 33.9077L37.0465 34.2783C36.9451 34.3798 36.8102 34.4357 36.6667 34.4357L30.8774 34.4357Z" fill="white"/>
</mask>
<g mask="url(#mask1_652_2143)">
<path d="M30.9287 34.0273C30.9543 34.073 30.9588 34.1192 30.9588 34.1192C30.9588 34.1192 30.9218 34.0913 30.8963 34.0455C30.8707 33.9998 30.8662 33.9536 30.8662 33.9536C30.8662 33.9536 30.9032 33.9816 30.9287 34.0273Z" fill="#999999"/>
<path d="M31.1377 34.3893C31.1632 34.435 31.1678 34.481 31.1678 34.481C31.1678 34.481 31.1308 34.4531 31.1052 34.4074C31.0797 34.3616 31.0752 34.3154 31.0752 34.3154C31.0752 34.3154 31.1122 34.3435 31.1377 34.3893Z" fill="#999999"/>
<path d="M31.0084 34.2019C31.0541 34.1764 31.1002 34.1719 31.1002 34.1719C31.1002 34.1719 31.0722 34.2089 31.0265 34.2344C30.9808 34.2599 30.9346 34.2644 30.9346 34.2644C30.9346 34.2644 30.9627 34.2274 31.0084 34.2019Z" fill="#999999"/>
<path d="M31.1362 33.9749C31.1819 33.9493 31.2281 33.9448 31.2281 33.9448C31.2281 33.9448 31.2001 33.9818 31.1544 34.0073C31.1087 34.0329 31.0625 34.0374 31.0625 34.0374C31.0625 34.0374 31.0904 34.0004 31.1362 33.9749Z" fill="#999999"/>
<path d="M31.3443 34.3365C31.3901 34.311 31.4361 34.3066 31.4361 34.3066C31.4361 34.3066 31.4081 34.3436 31.3624 34.3692C31.3167 34.3947 31.2705 34.399 31.2705 34.399C31.2705 34.399 31.2986 34.3621 31.3443 34.3365Z" fill="#999999"/>
<path d="M31.2346 34.1823C31.2091 34.1365 31.2046 34.0903 31.2046 34.0903C31.2046 34.0903 31.2416 34.1183 31.2671 34.164C31.2926 34.2097 31.2972 34.2558 31.2972 34.2558C31.2972 34.2558 31.2602 34.2278 31.2346 34.1823Z" fill="#999999"/>
<path d="M31.4155 33.9037C31.4411 33.9495 31.4454 33.9957 31.4454 33.9957C31.4454 33.9957 31.4084 33.9677 31.3829 33.922C31.3574 33.8763 31.353 33.8301 31.353 33.8301C31.353 33.8301 31.39 33.858 31.4155 33.9037Z" fill="#999999"/>
<path d="M31.6236 34.2656C31.6491 34.3113 31.6534 34.3575 31.6534 34.3575C31.6534 34.3575 31.6164 34.3295 31.5909 34.2838C31.5654 34.2381 31.561 34.1919 31.561 34.1919C31.561 34.1919 31.598 34.2198 31.6236 34.2656Z" fill="#999999"/>
<path d="M31.4959 34.0784C31.5416 34.0529 31.5878 34.0483 31.5878 34.0483C31.5878 34.0483 31.5598 34.0853 31.5141 34.1109C31.4684 34.1364 31.4224 34.1409 31.4224 34.1409C31.4224 34.1409 31.4501 34.1039 31.4959 34.0784Z" fill="#999999"/>
<path d="M31.623 33.8513C31.6687 33.8258 31.7149 33.8213 31.7149 33.8213C31.7149 33.8213 31.687 33.8583 31.6412 33.8838C31.5955 33.9093 31.5493 33.9139 31.5493 33.9139C31.5493 33.9139 31.5773 33.8769 31.623 33.8513Z" fill="#999999"/>
<path d="M31.8308 34.2132C31.8766 34.1876 31.9228 34.1831 31.9228 34.1831C31.9228 34.1831 31.8948 34.2201 31.8491 34.2456C31.8034 34.2711 31.7573 34.2755 31.7573 34.2755C31.7573 34.2755 31.7851 34.2387 31.8308 34.2132Z" fill="#999999"/>
<path d="M31.7213 34.0587C31.6958 34.013 31.6914 33.9668 31.6914 33.9668C31.6914 33.9668 31.7284 33.9947 31.7539 34.0405C31.7794 34.0862 31.7838 34.1324 31.7838 34.1324C31.7838 34.1324 31.7468 34.1044 31.7213 34.0587Z" fill="#999999"/>
<path d="M31.9065 34.4074C31.881 34.3616 31.8765 34.3154 31.8765 34.3154C31.8765 34.3154 31.9135 34.3434 31.939 34.3891C31.9645 34.4348 31.969 34.4809 31.969 34.4809C31.969 34.4809 31.932 34.4531 31.9065 34.4074Z" fill="#999999"/>
<path d="M31.9479 33.9405C31.9936 33.915 32.0396 33.9106 32.0396 33.9106C32.0396 33.9106 32.0117 33.9476 31.9659 33.9732C31.9202 33.9987 31.874 34.0032 31.874 34.0032C31.874 34.0032 31.9021 33.9662 31.9479 33.9405Z" fill="#999999"/>
<path d="M32.1557 34.3024C32.2014 34.2768 32.2476 34.2725 32.2476 34.2725C32.2476 34.2725 32.2197 34.3095 32.174 34.335C32.1282 34.3605 32.082 34.3649 32.082 34.3649C32.082 34.3649 32.11 34.3279 32.1557 34.3024Z" fill="#999999"/>
<path d="M32.0455 34.1471C32.02 34.1014 32.0156 34.0552 32.0156 34.0552C32.0156 34.0552 32.0526 34.0831 32.0781 34.1288C32.1037 34.1746 32.108 34.2208 32.108 34.2208C32.108 34.2208 32.071 34.1928 32.0455 34.1471Z" fill="#999999"/>
<path d="M32.2274 33.8702C32.2529 33.9159 32.2574 33.962 32.2574 33.962C32.2574 33.962 32.2205 33.934 32.1949 33.8883C32.1694 33.8426 32.165 33.7964 32.165 33.7964C32.165 33.7964 32.2019 33.8245 32.2274 33.8702Z" fill="#999999"/>
<path d="M32.4351 34.232C32.4606 34.2777 32.4651 34.3238 32.4651 34.3238C32.4651 34.3238 32.4281 34.2958 32.4026 34.2501C32.3771 34.2044 32.3726 34.1582 32.3726 34.1582C32.3726 34.1582 32.4096 34.1863 32.4351 34.232Z" fill="#999999"/>
<path d="M32.3071 34.0452C32.3528 34.0197 32.399 34.0151 32.399 34.0151C32.399 34.0151 32.371 34.0521 32.3253 34.0777C32.2796 34.1032 32.2334 34.1077 32.2334 34.1077C32.2334 34.1077 32.2613 34.0707 32.3071 34.0452Z" fill="#999999"/>
<path d="M32.643 34.1793C32.6887 34.1538 32.7349 34.1494 32.7349 34.1494C32.7349 34.1494 32.707 34.1864 32.6613 34.2119C32.6155 34.2375 32.5693 34.2418 32.5693 34.2418C32.5693 34.2418 32.5973 34.205 32.643 34.1793Z" fill="#999999"/>
<path d="M32.5335 34.0245C32.5079 33.9788 32.5034 33.9326 32.5034 33.9326C32.5034 33.9326 32.5404 33.9606 32.5659 34.0063C32.5915 34.052 32.596 34.0982 32.596 34.0982C32.596 34.0982 32.559 34.0703 32.5335 34.0245Z" fill="#999999"/>
<path d="M32.7185 34.3737C32.693 34.3279 32.6885 34.2817 32.6885 34.2817C32.6885 34.2817 32.7255 34.3097 32.751 34.3554C32.7765 34.4011 32.7809 34.4473 32.7809 34.4473C32.7809 34.4473 32.744 34.4194 32.7185 34.3737Z" fill="#999999"/>
<path d="M32.7626 33.94C32.8083 33.9145 32.8546 33.9102 32.8546 33.9102C32.8546 33.9102 32.8266 33.9471 32.7809 33.9727C32.7352 33.9982 32.689 34.0027 32.689 34.0027C32.689 34.0027 32.7169 33.9657 32.7626 33.94Z" fill="#999999"/>
<path d="M32.9708 34.3019C33.0165 34.2763 33.0626 34.272 33.0626 34.272C33.0626 34.272 33.0346 34.309 32.9889 34.3345C32.9432 34.36 32.897 34.3644 32.897 34.3644C32.897 34.3644 32.9251 34.3274 32.9708 34.3019Z" fill="#999999"/>
<path d="M32.8609 34.1466C32.8354 34.1009 32.8311 34.0547 32.8311 34.0547C32.8311 34.0547 32.868 34.0826 32.8936 34.1284C32.9191 34.1741 32.9235 34.2203 32.9235 34.2203C32.9235 34.2203 32.8865 34.1923 32.8609 34.1466Z" fill="#999999"/>
<path d="M33.0427 33.8697C33.0682 33.9154 33.0725 33.9615 33.0725 33.9615C33.0725 33.9615 33.0356 33.9335 33.01 33.8878C32.9845 33.8421 32.98 33.7959 32.98 33.7959C32.98 33.7959 33.0171 33.824 33.0427 33.8697Z" fill="#999999"/>
<path d="M33.2505 34.231C33.276 34.2768 33.2806 34.3228 33.2806 34.3228C33.2806 34.3228 33.2436 34.2949 33.218 34.2491C33.1925 34.2034 33.188 34.1572 33.188 34.1572C33.188 34.1572 33.225 34.1853 33.2505 34.231Z" fill="#999999"/>
<path d="M33.1225 34.0442C33.1682 34.0187 33.2144 34.0142 33.2144 34.0142C33.2144 34.0142 33.1865 34.0512 33.1407 34.0767C33.095 34.1022 33.0488 34.1067 33.0488 34.1067C33.0488 34.1067 33.0768 34.0697 33.1225 34.0442Z" fill="#999999"/>
<path d="M33.4583 34.1788C33.504 34.1533 33.5502 34.1489 33.5502 34.1489C33.5502 34.1489 33.5222 34.1859 33.4765 34.2114C33.4308 34.237 33.3848 34.2413 33.3848 34.2413C33.3848 34.2413 33.4125 34.2045 33.4583 34.1788Z" fill="#999999"/>
<path d="M33.3484 34.0245C33.3229 33.9788 33.3184 33.9326 33.3184 33.9326C33.3184 33.9326 33.3554 33.9606 33.3809 34.0063C33.4064 34.052 33.4109 34.0982 33.4109 34.0982C33.4109 34.0982 33.3739 34.0703 33.3484 34.0245Z" fill="#999999"/>
<path d="M33.5338 34.3732C33.5083 34.3275 33.5039 34.2812 33.5039 34.2812C33.5039 34.2812 33.5409 34.3092 33.5664 34.3549C33.5919 34.4006 33.5963 34.4468 33.5963 34.4468C33.5963 34.4468 33.5593 34.4189 33.5338 34.3732Z" fill="#999999"/>
<path d="M33.5769 33.9405C33.6226 33.915 33.6688 33.9106 33.6688 33.9106C33.6688 33.9106 33.6409 33.9476 33.5952 33.9732C33.5495 33.9987 33.5034 34.0032 33.5034 34.0032C33.5034 34.0032 33.5312 33.9662 33.5769 33.9405Z" fill="#999999"/>
<path d="M33.7851 34.3024C33.8308 34.2768 33.877 34.2725 33.877 34.2725C33.877 34.2725 33.8491 34.3095 33.8033 34.335C33.7576 34.3605 33.7114 34.3649 33.7114 34.3649C33.7114 34.3649 33.7394 34.3279 33.7851 34.3024Z" fill="#999999"/>
<path d="M33.6756 34.1476C33.65 34.1019 33.6455 34.0557 33.6455 34.0557C33.6455 34.0557 33.6825 34.0836 33.708 34.1293C33.7336 34.175 33.7379 34.2212 33.7379 34.2212C33.7379 34.2212 33.7011 34.1933 33.6756 34.1476Z" fill="#999999"/>
<path d="M33.8565 33.8702C33.882 33.9159 33.8864 33.962 33.8864 33.962C33.8864 33.962 33.8494 33.934 33.8238 33.8883C33.7983 33.8426 33.7939 33.7964 33.7939 33.7964C33.7939 33.7964 33.8309 33.8245 33.8565 33.8702Z" fill="#999999"/>
<path d="M34.0646 34.232C34.0902 34.2777 34.0945 34.3238 34.0945 34.3238C34.0945 34.3238 34.0575 34.2958 34.032 34.2501C34.0065 34.2044 34.002 34.1582 34.002 34.1582C34.002 34.1582 34.0391 34.1863 34.0646 34.232Z" fill="#999999"/>
<path d="M33.9361 34.0452C33.9819 34.0197 34.0279 34.0151 34.0279 34.0151C34.0279 34.0151 33.9999 34.0521 33.9542 34.0777C33.9085 34.1032 33.8623 34.1077 33.8623 34.1077C33.8623 34.1077 33.8904 34.0707 33.9361 34.0452Z" fill="#999999"/>
<path d="M34.2729 34.1788C34.3186 34.1533 34.3648 34.1489 34.3648 34.1489C34.3648 34.1489 34.3369 34.1859 34.2911 34.2114C34.2454 34.237 34.1992 34.2413 34.1992 34.2413C34.1992 34.2413 34.2272 34.2045 34.2729 34.1788Z" fill="#999999"/>
<path d="M34.1629 34.0245C34.1373 33.9788 34.1328 33.9326 34.1328 33.9326C34.1328 33.9326 34.1698 33.9606 34.1953 34.0063C34.2209 34.052 34.2254 34.0982 34.2254 34.0982C34.2254 34.0982 34.1884 34.0703 34.1629 34.0245Z" fill="#999999"/>
<path d="M34.3482 34.3732C34.3227 34.3275 34.3184 34.2812 34.3184 34.2812C34.3184 34.2812 34.3554 34.3092 34.3809 34.3549C34.4064 34.4006 34.4108 34.4468 34.4108 34.4468C34.4108 34.4468 34.3739 34.4189 34.3482 34.3732Z" fill="#999999"/>
<path d="M34.3915 33.94C34.4373 33.9145 34.4835 33.9102 34.4835 33.9102C34.4835 33.9102 34.4555 33.9471 34.4098 33.9727C34.3641 33.9982 34.3179 34.0027 34.3179 34.0027C34.3179 34.0027 34.3458 33.9657 34.3915 33.94Z" fill="#999999"/>
<path d="M34.5994 34.3019C34.6451 34.2763 34.6913 34.272 34.6913 34.272C34.6913 34.272 34.6634 34.309 34.6176 34.3345C34.5719 34.36 34.5259 34.3644 34.5259 34.3644C34.5259 34.3644 34.5537 34.3274 34.5994 34.3019Z" fill="#999999"/>
<path d="M34.4895 34.1466C34.464 34.1009 34.4595 34.0547 34.4595 34.0547C34.4595 34.0547 34.4965 34.0826 34.522 34.1284C34.5475 34.1741 34.5519 34.2203 34.5519 34.2203C34.5519 34.2203 34.515 34.1923 34.4895 34.1466Z" fill="#999999"/>
<path d="M34.6709 33.8697C34.6964 33.9154 34.7008 33.9615 34.7008 33.9615C34.7008 33.9615 34.6638 33.9335 34.6383 33.8878C34.6128 33.8421 34.6084 33.7959 34.6084 33.7959C34.6084 33.7959 34.6454 33.824 34.6709 33.8697Z" fill="#999999"/>
<path d="M34.8784 34.2315C34.904 34.2773 34.9083 34.3233 34.9083 34.3233C34.9083 34.3233 34.8713 34.2954 34.8458 34.2496C34.8203 34.2039 34.8159 34.1577 34.8159 34.1577C34.8159 34.1577 34.8529 34.1858 34.8784 34.2315Z" fill="#999999"/>
<path d="M34.7509 34.0447C34.7966 34.0192 34.8428 34.0146 34.8428 34.0146C34.8428 34.0146 34.8149 34.0516 34.7692 34.0772C34.7234 34.1027 34.6772 34.1072 34.6772 34.1072C34.6772 34.1072 34.7052 34.0702 34.7509 34.0447Z" fill="#999999"/>
<path d="M35.0864 34.1788C35.1321 34.1533 35.1783 34.1489 35.1783 34.1489C35.1783 34.1489 35.1503 34.1859 35.1046 34.2114C35.0589 34.237 35.0127 34.2413 35.0127 34.2413C35.0127 34.2413 35.0406 34.2045 35.0864 34.1788Z" fill="#999999"/>
<path d="M34.9752 34.0245C34.9497 33.9788 34.9453 33.9326 34.9453 33.9326C34.9453 33.9326 34.9823 33.9606 35.0078 34.0063C35.0334 34.052 35.0377 34.0982 35.0377 34.0982C35.0377 34.0982 35.0007 34.0703 34.9752 34.0245Z" fill="#999999"/>
<path d="M35.1617 34.3732C35.1362 34.3275 35.1318 34.2812 35.1318 34.2812C35.1318 34.2812 35.1688 34.3092 35.1944 34.3549C35.2199 34.4006 35.2242 34.4468 35.2242 34.4468C35.2242 34.4468 35.1874 34.4189 35.1617 34.3732Z" fill="#999999"/>
<path d="M35.206 33.9405C35.2517 33.915 35.2979 33.9106 35.2979 33.9106C35.2979 33.9106 35.27 33.9476 35.2242 33.9732C35.1785 33.9987 35.1323 34.0032 35.1323 34.0032C35.1323 34.0032 35.1603 33.9662 35.206 33.9405Z" fill="#999999"/>
<path d="M35.414 34.3024C35.4597 34.2768 35.5059 34.2725 35.5059 34.2725C35.5059 34.2725 35.478 34.3095 35.4323 34.335C35.3865 34.3605 35.3403 34.3649 35.3403 34.3649C35.3403 34.3649 35.3683 34.3279 35.414 34.3024Z" fill="#999999"/>
<path d="M35.3045 34.1471C35.2789 34.1014 35.2744 34.0552 35.2744 34.0552C35.2744 34.0552 35.3114 34.0831 35.3369 34.1288C35.3625 34.1746 35.367 34.2208 35.367 34.2208C35.367 34.2208 35.33 34.1928 35.3045 34.1471Z" fill="#999999"/>
<path d="M35.4852 33.8702C35.5107 33.9159 35.5153 33.962 35.5153 33.962C35.5153 33.962 35.4783 33.934 35.4527 33.8883C35.4272 33.8426 35.4229 33.7964 35.4229 33.7964C35.4229 33.7964 35.4597 33.8245 35.4852 33.8702Z" fill="#999999"/>
<path d="M35.6929 34.232C35.7184 34.2777 35.7228 34.3238 35.7228 34.3238C35.7228 34.3238 35.6858 34.2958 35.6603 34.2501C35.6347 34.2044 35.6304 34.1582 35.6304 34.1582C35.6304 34.1582 35.6674 34.1863 35.6929 34.232Z" fill="#999999"/>
<path d="M35.5652 34.0452C35.6109 34.0197 35.6571 34.0151 35.6571 34.0151C35.6571 34.0151 35.6292 34.0521 35.5835 34.0777C35.5377 34.1032 35.4917 34.1077 35.4917 34.1077C35.4917 34.1077 35.5195 34.0707 35.5652 34.0452Z" fill="#999999"/>
<path d="M35.9018 34.1788C35.9475 34.1533 35.9937 34.1489 35.9937 34.1489C35.9937 34.1489 35.9658 34.1859 35.92 34.2114C35.8743 34.237 35.8281 34.2413 35.8281 34.2413C35.8281 34.2413 35.8561 34.2045 35.9018 34.1788Z" fill="#999999"/>
<path d="M35.7911 34.025C35.7656 33.9793 35.7612 33.9331 35.7612 33.9331C35.7612 33.9331 35.7982 33.9611 35.8237 34.0068C35.8493 34.0525 35.8538 34.0987 35.8538 34.0987C35.8538 34.0987 35.8166 34.0707 35.7911 34.025Z" fill="#999999"/>
<path d="M35.9773 34.3732C35.9518 34.3275 35.9473 34.2812 35.9473 34.2812C35.9473 34.2812 35.9843 34.3092 36.0098 34.3549C36.0353 34.4006 36.0398 34.4468 36.0398 34.4468C36.0398 34.4468 36.0028 34.4189 35.9773 34.3732Z" fill="#999999"/>
<path d="M36.0201 33.94C36.0658 33.9145 36.1119 33.9102 36.1119 33.9102C36.1119 33.9102 36.0839 33.9471 36.0382 33.9727C35.9925 33.9982 35.9463 34.0027 35.9463 34.0027C35.9463 34.0027 35.9744 33.9657 36.0201 33.94Z" fill="#999999"/>
<path d="M36.228 34.3019C36.2737 34.2763 36.3199 34.272 36.3199 34.272C36.3199 34.272 36.2919 34.309 36.2462 34.3345C36.2005 34.36 36.1543 34.3644 36.1543 34.3644C36.1543 34.3644 36.1824 34.3274 36.228 34.3019Z" fill="#999999"/>
<path d="M36.1179 34.1466C36.0924 34.1009 36.0879 34.0547 36.0879 34.0547C36.0879 34.0547 36.1249 34.0826 36.1504 34.1284C36.1759 34.1741 36.1803 34.2203 36.1803 34.2203C36.1803 34.2203 36.1435 34.1923 36.1179 34.1466Z" fill="#999999"/>
<path d="M36.2995 33.8697C36.325 33.9154 36.3294 33.9615 36.3294 33.9615C36.3294 33.9615 36.2924 33.9335 36.2669 33.8878C36.2413 33.8421 36.2368 33.7959 36.2368 33.7959C36.2368 33.7959 36.274 33.824 36.2995 33.8697Z" fill="#999999"/>
<path d="M36.5072 34.2315C36.5327 34.2773 36.5372 34.3233 36.5372 34.3233C36.5372 34.3233 36.5002 34.2954 36.4747 34.2496C36.4492 34.2039 36.4448 34.1577 36.4448 34.1577C36.4448 34.1577 36.4817 34.1858 36.5072 34.2315Z" fill="#999999"/>
<path d="M36.379 34.0447C36.4247 34.0192 36.4708 34.0146 36.4708 34.0146C36.4708 34.0146 36.4428 34.0516 36.3971 34.0772C36.3514 34.1027 36.3052 34.1072 36.3052 34.1072C36.3052 34.1072 36.3333 34.0702 36.379 34.0447Z" fill="#999999"/>
<path d="M36.7154 34.1788C36.7611 34.1533 36.8072 34.1489 36.8072 34.1489C36.8072 34.1489 36.7792 34.1859 36.7335 34.2114C36.6878 34.237 36.6416 34.2413 36.6416 34.2413C36.6416 34.2413 36.6697 34.2045 36.7154 34.1788Z" fill="#999999"/>
<path d="M36.6051 34.0245C36.5796 33.9788 36.5752 33.9326 36.5752 33.9326C36.5752 33.9326 36.6122 33.9606 36.6377 34.0063C36.6632 34.052 36.6676 34.0982 36.6676 34.0982C36.6676 34.0982 36.6306 34.0703 36.6051 34.0245Z" fill="#999999"/>
<path d="M36.7908 34.3732C36.7653 34.3275 36.7607 34.2812 36.7607 34.2812C36.7607 34.2812 36.7977 34.3092 36.8233 34.3549C36.8488 34.4006 36.8533 34.4468 36.8533 34.4468C36.8533 34.4468 36.8163 34.4189 36.7908 34.3732Z" fill="#999999"/>
<path d="M36.8349 33.9405C36.8806 33.915 36.9268 33.9106 36.9268 33.9106C36.9268 33.9106 36.8989 33.9476 36.8532 33.9732C36.8074 33.9987 36.7612 34.0032 36.7612 34.0032C36.7612 34.0032 36.7892 33.9662 36.8349 33.9405Z" fill="#999999"/>
<path d="M37.0429 34.3024C37.0886 34.2768 37.1348 34.2725 37.1348 34.2725C37.1348 34.2725 37.1069 34.3095 37.0612 34.335C37.0154 34.3605 36.9692 34.3649 36.9692 34.3649C36.9692 34.3649 36.9974 34.3279 37.0429 34.3024Z" fill="#999999"/>
<path d="M36.9332 34.1471C36.9077 34.1014 36.9033 34.0552 36.9033 34.0552C36.9033 34.0552 36.9403 34.0831 36.9658 34.1288C36.9914 34.1746 36.9959 34.2208 36.9959 34.2208C36.9959 34.2208 36.9587 34.1928 36.9332 34.1471Z" fill="#999999"/>
<path d="M37.1148 33.8702C37.1403 33.9159 37.1448 33.962 37.1448 33.962C37.1448 33.962 37.1078 33.934 37.0823 33.8883C37.0568 33.8426 37.0522 33.7964 37.0522 33.7964C37.0522 33.7964 37.0892 33.8245 37.1148 33.8702Z" fill="#999999"/>
<path d="M37.3223 34.2315C37.3478 34.2773 37.3523 34.3233 37.3523 34.3233C37.3523 34.3233 37.3153 34.2954 37.2898 34.2496C37.2643 34.2039 37.2598 34.1577 37.2598 34.1577C37.2598 34.1577 37.2968 34.1858 37.3223 34.2315Z" fill="#999999"/>
<path d="M37.1948 34.0452C37.2405 34.0197 37.2867 34.0151 37.2867 34.0151C37.2867 34.0151 37.2587 34.0521 37.213 34.0777C37.1673 34.1032 37.1211 34.1077 37.1211 34.1077C37.1211 34.1077 37.149 34.0707 37.1948 34.0452Z" fill="#999999"/>
<path d="M37.4207 34.0245C37.3951 33.9788 37.3906 33.9326 37.3906 33.9326C37.3906 33.9326 37.4276 33.9606 37.4531 34.0063C37.4787 34.052 37.4832 34.0982 37.4832 34.0982C37.4832 34.0982 37.4462 34.0703 37.4207 34.0245Z" fill="#999999"/>
</g>
<defs>
<linearGradient id="paint0_linear_652_2143" x1="29.7048" y1="17.8008" x2="46.7324" y2="18.1223" gradientUnits="userSpaceOnUse">
<stop stop-color="#C7C5C5"/>
<stop offset="0.0359" stop-color="#676767"/>
<stop offset="0.1123" stop-color="white"/>
<stop offset="0.3019" stop-color="#929292"/>
<stop offset="0.492" stop-color="white"/>
<stop offset="0.6257" stop-color="#676767"/>
<stop offset="0.7701" stop-color="#929292"/>
<stop offset="0.8233" stop-color="#C7C5C5"/>
<stop offset="1" stop-color="#343433"/>
</linearGradient>
<linearGradient id="paint1_linear_652_2143" x1="34.2319" y1="18.2579" x2="34.2319" y2="18.1073" gradientUnits="userSpaceOnUse">
<stop offset="0.0051"/>
<stop offset="1" stop-opacity="0"/>
</linearGradient>
<linearGradient id="paint2_linear_652_2143" x1="30.7564" y1="17.8777" x2="31.2855" y2="17.8777" gradientUnits="userSpaceOnUse">
<stop offset="0.0051"/>
<stop offset="1" stop-opacity="0"/>
</linearGradient>
<linearGradient id="paint3_linear_652_2143" x1="46.0917" y1="20.1804" x2="46.1145" y2="20.6958" gradientUnits="userSpaceOnUse">
<stop stop-color="#C7C5C5"/>
<stop offset="0.0359" stop-color="#676767"/>
<stop offset="0.1123" stop-color="white"/>
<stop offset="0.3019" stop-color="#929292"/>
<stop offset="0.492" stop-color="white"/>
<stop offset="0.6809" stop-color="#676767"/>
<stop offset="0.7701" stop-color="#929292"/>
<stop offset="0.8233" stop-color="#C7C5C5"/>
<stop offset="1" stop-color="#343433"/>
</linearGradient>
<linearGradient id="paint4_linear_652_2143" x1="46.0918" y1="21.5565" x2="46.1144" y2="21.0442" gradientUnits="userSpaceOnUse">
<stop stop-color="#C7C5C5"/>
<stop offset="0.0359" stop-color="#676767"/>
<stop offset="0.1123" stop-color="white"/>
<stop offset="0.3019" stop-color="#929292"/>
<stop offset="0.492" stop-color="white"/>
<stop offset="0.6809" stop-color="#676767"/>
<stop offset="0.7701" stop-color="#929292"/>
<stop offset="0.8233" stop-color="#C7C5C5"/>
<stop offset="1" stop-color="#343433"/>
</linearGradient>
<linearGradient id="paint5_linear_652_2143" x1="45.9507" y1="20.07" x2="45.9507" y2="22.562" gradientUnits="userSpaceOnUse">
<stop stop-color="#C7C5C5"/>
<stop offset="0.0359" stop-color="#676767"/>
<stop offset="0.1123" stop-color="white"/>
<stop offset="0.3019" stop-color="#929292"/>
<stop offset="0.492" stop-color="white"/>
<stop offset="0.6257" stop-color="#676767"/>
<stop offset="0.7701" stop-color="#929292"/>
<stop offset="0.8233" stop-color="#C7C5C5"/>
<stop offset="1" stop-color="#343433"/>
</linearGradient>
<linearGradient id="paint6_linear_652_2143" x1="46.0917" y1="30.4397" x2="46.1145" y2="30.9551" gradientUnits="userSpaceOnUse">
<stop stop-color="#C7C5C5"/>
<stop offset="0.0359" stop-color="#676767"/>
<stop offset="0.1123" stop-color="white"/>
<stop offset="0.3019" stop-color="#929292"/>
<stop offset="0.492" stop-color="white"/>
<stop offset="0.6809" stop-color="#676767"/>
<stop offset="0.7701" stop-color="#929292"/>
<stop offset="0.8233" stop-color="#C7C5C5"/>
<stop offset="1" stop-color="#343433"/>
</linearGradient>
<linearGradient id="paint7_linear_652_2143" x1="46.0918" y1="31.8158" x2="46.1144" y2="31.3035" gradientUnits="userSpaceOnUse">
<stop stop-color="#C7C5C5"/>
<stop offset="0.0359" stop-color="#676767"/>
<stop offset="0.1123" stop-color="white"/>
<stop offset="0.3019" stop-color="#929292"/>
<stop offset="0.492" stop-color="white"/>
<stop offset="0.6809" stop-color="#676767"/>
<stop offset="0.7701" stop-color="#929292"/>
<stop offset="0.8233" stop-color="#C7C5C5"/>
<stop offset="1" stop-color="#343433"/>
</linearGradient>
<linearGradient id="paint8_linear_652_2143" x1="45.9507" y1="30.3293" x2="45.9507" y2="32.8214" gradientUnits="userSpaceOnUse">
<stop stop-color="#C7C5C5"/>
<stop offset="0.0359" stop-color="#676767"/>
<stop offset="0.1123" stop-color="white"/>
<stop offset="0.3019" stop-color="#929292"/>
<stop offset="0.492" stop-color="white"/>
<stop offset="0.6257" stop-color="#676767"/>
<stop offset="0.7701" stop-color="#929292"/>
<stop offset="0.8233" stop-color="#C7C5C5"/>
<stop offset="1" stop-color="#343433"/>
</linearGradient>
<linearGradient id="paint9_linear_652_2143" x1="44.8483" y1="17.3116" x2="44.7278" y2="42.3256" gradientUnits="userSpaceOnUse">
<stop stop-color="#C7C5C5"/>
<stop offset="0.0359" stop-color="#676767"/>
<stop offset="0.1123" stop-color="white"/>
<stop offset="0.3019" stop-color="#929292"/>
<stop offset="0.492" stop-color="white"/>
<stop offset="0.6257" stop-color="#676767"/>
<stop offset="0.7701" stop-color="#929292"/>
<stop offset="0.8233" stop-color="#C7C5C5"/>
<stop offset="1" stop-color="#343433"/>
</linearGradient>
<linearGradient id="paint10_linear_652_2143" x1="44.8483" y1="17.3116" x2="44.7278" y2="42.3256" gradientUnits="userSpaceOnUse">
<stop stop-color="#C7C5C5"/>
<stop offset="0.0359" stop-color="#676767"/>
<stop offset="0.1123" stop-color="white"/>
<stop offset="0.3019" stop-color="#929292"/>
<stop offset="0.492" stop-color="white"/>
<stop offset="0.6257" stop-color="#676767"/>
<stop offset="0.7701" stop-color="#929292"/>
<stop offset="0.8233" stop-color="#C7C5C5"/>
<stop offset="1" stop-color="#343433"/>
</linearGradient>
<radialGradient id="paint11_radial_652_2143" cx="0" cy="0" r="1" gradientUnits="userSpaceOnUse" gradientTransform="translate(38.6722 16.3246) rotate(90) scale(18.0444 18.0446)">
<stop offset="0.0102"/>
<stop offset="1" stop-opacity="0"/>
</radialGradient>
<linearGradient id="paint12_linear_652_2143" x1="38.1367" y1="18.6938" x2="38.1367" y2="33.3051" gradientUnits="userSpaceOnUse">
<stop offset="0.3386" stop-color="white" stop-opacity="0"/>
<stop offset="0.6521" stop-color="white"/>
</linearGradient>
<linearGradient id="paint13_linear_652_2143" x1="40.0935" y1="22.1926" x2="40.1308" y2="21.6939" gradientUnits="userSpaceOnUse">
<stop offset="0.0051"/>
<stop offset="1" stop-opacity="0"/>
</linearGradient>
<linearGradient id="paint14_linear_652_2143" x1="40.0935" y1="29.7995" x2="40.1309" y2="30.2982" gradientUnits="userSpaceOnUse">
<stop offset="0.0051" stop-color="#999999"/>
<stop offset="1" stop-color="#999999" stop-opacity="0"/>
</linearGradient>
<linearGradient id="paint15_linear_652_2143" x1="40.4584" y1="26" x2="40.0284" y2="26" gradientUnits="userSpaceOnUse">
<stop offset="0.0051"/>
<stop offset="1" stop-opacity="0"/>
</linearGradient>
<radialGradient id="paint16_radial_652_2143" cx="0" cy="0" r="1" gradientUnits="userSpaceOnUse" gradientTransform="translate(37.4799 19.1684) rotate(90) scale(11.9321 11.9322)">
<stop stop-color="white" stop-opacity="0"/>
<stop offset="1" stop-color="white"/>
</radialGradient>
<radialGradient id="paint17_radial_652_2143" cx="0" cy="0" r="1" gradientUnits="userSpaceOnUse" gradientTransform="translate(36.799 20.5407) rotate(90) scale(11.4863 11.4864)">
<stop offset="0.0102"/>
<stop offset="1" stop-opacity="0"/>
</radialGradient>
<linearGradient id="paint18_linear_652_2143" x1="35.2007" y1="18.5383" x2="35.2007" y2="18.5968" gradientUnits="userSpaceOnUse">
<stop offset="0.0051"/>
<stop offset="1" stop-opacity="0"/>
</linearGradient>
<linearGradient id="paint19_linear_652_2143" x1="35.0948" y1="18.6558" x2="35.0948" y2="18.8968" gradientUnits="userSpaceOnUse">
<stop stop-color="white"/>
<stop offset="1" stop-color="white" stop-opacity="0"/>
</linearGradient>
<linearGradient id="paint20_linear_652_2143" x1="35.0948" y1="19.0574" x2="35.0948" y2="19.3827" gradientUnits="userSpaceOnUse">
<stop stop-opacity="0"/>
<stop offset="0.9898"/>
</linearGradient>
<linearGradient id="paint21_linear_652_2143" x1="35.2012" y1="33.5016" x2="35.2012" y2="33.4431" gradientUnits="userSpaceOnUse">
<stop offset="0.0051"/>
<stop offset="1" stop-opacity="0"/>
</linearGradient>
<linearGradient id="paint22_linear_652_2143" x1="35.0953" y1="33.384" x2="35.0953" y2="33.1431" gradientUnits="userSpaceOnUse">
<stop stop-color="white"/>
<stop offset="1" stop-color="white" stop-opacity="0"/>
</linearGradient>
<linearGradient id="paint23_linear_652_2143" x1="35.0953" y1="32.9825" x2="35.0953" y2="32.6571" gradientUnits="userSpaceOnUse">
<stop stop-opacity="0"/>
<stop offset="0.9898"/>
</linearGradient>
<linearGradient id="paint24_linear_652_2143" x1="38.3177" y1="17.7913" x2="38.1934" y2="17.8365" gradientUnits="userSpaceOnUse">
<stop stop-color="white"/>
<stop offset="1" stop-color="white" stop-opacity="0"/>
</linearGradient>
<linearGradient id="paint25_linear_652_2143" x1="38.1361" y1="18.2453" x2="37.6803" y2="17.4316" gradientUnits="userSpaceOnUse">
<stop offset="0.0051"/>
<stop offset="1" stop-opacity="0"/>
</linearGradient>
<linearGradient id="paint26_linear_652_2143" x1="38.3172" y1="34.2635" x2="38.1929" y2="34.2183" gradientUnits="userSpaceOnUse">
<stop stop-color="white"/>
<stop offset="1" stop-color="white" stop-opacity="0"/>
</linearGradient>
<linearGradient id="paint27_linear_652_2143" x1="38.1356" y1="33.8095" x2="37.6798" y2="34.6233" gradientUnits="userSpaceOnUse">
<stop offset="0.0051"/>
<stop offset="1" stop-opacity="0"/>
</linearGradient>
<linearGradient id="paint28_linear_652_2143" x1="31.5914" y1="25.9187" x2="31.9685" y2="25.9187" gradientUnits="userSpaceOnUse">
<stop stop-opacity="0"/>
<stop offset="0.9898"/>
</linearGradient>
<radialGradient id="paint29_radial_652_2143" cx="0" cy="0" r="1" gradientUnits="userSpaceOnUse" gradientTransform="translate(32.5844 25.9994) rotate(90) scale(3.41311 3.41313)">
<stop stop-color="white" stop-opacity="0"/>
<stop offset="1" stop-color="white"/>
</radialGradient>
<linearGradient id="paint30_linear_652_2143" x1="32.1783" y1="25.9994" x2="31.8691" y2="25.9994" gradientUnits="userSpaceOnUse">
<stop stop-opacity="0"/>
<stop offset="0.9898"/>
</linearGradient>
<linearGradient id="paint31_linear_652_2143" x1="32.8866" y1="21.4199" x2="32.8866" y2="30.5789" gradientUnits="userSpaceOnUse">
<stop stop-color="white" stop-opacity="0"/>
<stop offset="1" stop-color="white"/>
</linearGradient>
<linearGradient id="paint32_linear_652_2143" x1="32.2826" y1="27.5133" x2="32.2826" y2="21.8915" gradientUnits="userSpaceOnUse">
<stop stop-color="white" stop-opacity="0"/>
<stop offset="1" stop-color="white"/>
</linearGradient>
<radialGradient id="paint33_radial_652_2143" cx="0" cy="0" r="1" gradientUnits="userSpaceOnUse" gradientTransform="translate(29.1485 33.8447) rotate(90) scale(21.8 21.8002)">
<stop stop-color="white" stop-opacity="0"/>
<stop offset="1" stop-color="white"/>
</radialGradient>
<linearGradient id="paint34_linear_652_2143" x1="6.82701" y1="20.0549" x2="6.54071" y2="18.1412" gradientUnits="userSpaceOnUse">
<stop stop-color="white" stop-opacity="0"/>
<stop offset="1" stop-color="white"/>
</linearGradient>
<linearGradient id="paint35_linear_652_2143" x1="6.78693" y1="19.2734" x2="6.68419" y2="19.2734" gradientUnits="userSpaceOnUse">
<stop stop-color="white" stop-opacity="0"/>
<stop offset="1" stop-color="white"/>
</linearGradient>
<linearGradient id="paint36_linear_652_2143" x1="6.82798" y1="33.2355" x2="6.54169" y2="31.3218" gradientUnits="userSpaceOnUse">
<stop stop-color="white" stop-opacity="0"/>
<stop offset="1" stop-color="white"/>
</linearGradient>
<linearGradient id="paint37_linear_652_2143" x1="6.78693" y1="32.4535" x2="6.68419" y2="32.4535" gradientUnits="userSpaceOnUse">
<stop stop-color="white" stop-opacity="0"/>
<stop offset="1" stop-color="white"/>
</linearGradient>
<linearGradient id="paint38_linear_652_2143" x1="6.72697" y1="25.8144" x2="6.8677" y2="25.8144" gradientUnits="userSpaceOnUse">
<stop stop-opacity="0"/>
<stop offset="0.9898"/>
</linearGradient>
<linearGradient id="paint39_linear_652_2143" x1="29.7048" y1="34.2486" x2="46.7324" y2="33.9271" gradientUnits="userSpaceOnUse">
<stop stop-color="#C7C5C5"/>
<stop offset="0.0359" stop-color="#676767"/>
<stop offset="0.1123" stop-color="white"/>
<stop offset="0.3019" stop-color="#929292"/>
<stop offset="0.492" stop-color="white"/>
<stop offset="0.6257" stop-color="#676767"/>
<stop offset="0.7701" stop-color="#929292"/>
<stop offset="0.8233" stop-color="#C7C5C5"/>
<stop offset="1" stop-color="#343433"/>
</linearGradient>
<linearGradient id="paint40_linear_652_2143" x1="34.2319" y1="33.7917" x2="34.2319" y2="33.9424" gradientUnits="userSpaceOnUse">
<stop offset="0.0051"/>
<stop offset="1" stop-opacity="0"/>
</linearGradient>
<linearGradient id="paint41_linear_652_2143" x1="30.7564" y1="34.1719" x2="31.2855" y2="34.1719" gradientUnits="userSpaceOnUse">
<stop offset="0.0051"/>
<stop offset="1" stop-opacity="0"/>
</linearGradient>
</defs>
</svg>
