<svg width="18" height="41" viewBox="0 0 18 41" fill="none" xmlns="http://www.w3.org/2000/svg">
<path d="M0.430664 15.771L0.430664 9.86135C0.430664 9.68688 0.499971 9.51968 0.623232 9.39625L1.19947 8.82001L1.19947 15.771L0.430664 15.771Z" fill="#CCCCCC"/>
<path d="M0.55127 15.6499L1.07921 15.6499L1.07921 9.11038L0.708617 9.48081C0.607165 9.58227 0.55127 9.71716 0.55127 9.86062L0.55127 15.6499Z" fill="url(#paint0_linear_580_1668)"/>
<path opacity="0.5" d="M0.430664 15.771L0.430664 9.86135C0.430664 9.68688 0.499971 9.51968 0.623232 9.39625L1.19947 8.82001L1.19947 15.771L0.430664 15.771Z" fill="url(#paint1_linear_580_1668)"/>
<path opacity="0.4" d="M0.430664 15.771L0.430664 9.86135C0.430664 9.68688 0.499971 9.51968 0.623232 9.39625L1.19947 8.82001L1.19947 15.771L0.430664 15.771Z" fill="url(#paint2_linear_580_1668)"/>
<mask id="mask0_580_1668" style="mask-type:luminance" maskUnits="userSpaceOnUse" x="0" y="9" width="2" height="7">
<path d="M0.551758 15.6499L1.0797 15.6499L1.0797 9.11038L0.709106 9.48081C0.607653 9.58227 0.551758 9.71716 0.551758 9.86062L0.551758 15.6499Z" fill="white"/>
</mask>
<g mask="url(#mask0_580_1668)">
<path d="M0.959597 15.5991C0.913879 15.5736 0.867676 15.5691 0.867676 15.5691C0.867676 15.5691 0.895623 15.606 0.941341 15.6316C0.987059 15.6571 1.03326 15.6616 1.03326 15.6616C1.03326 15.6616 1.00531 15.6246 0.959597 15.5991Z" fill="#999999"/>
<path d="M0.59778 15.3906C0.552062 15.3651 0.505859 15.3606 0.505859 15.3606C0.505859 15.3606 0.533806 15.3976 0.579524 15.4231C0.625242 15.4486 0.671445 15.4531 0.671445 15.4531C0.671445 15.4531 0.643498 15.4161 0.59778 15.3906Z" fill="#999999"/>
<path d="M0.784686 15.5189C0.810211 15.4732 0.814735 15.4272 0.814735 15.4272C0.814735 15.4272 0.777741 15.4551 0.752217 15.5009C0.726692 15.5466 0.722168 15.5928 0.722168 15.5928C0.722168 15.5928 0.759161 15.5647 0.784686 15.5189Z" fill="#999999"/>
<path d="M1.01223 15.3912C1.03775 15.3455 1.04227 15.2993 1.04227 15.2993C1.04227 15.2993 1.00528 15.3272 0.979751 15.3729C0.954226 15.4186 0.949707 15.4648 0.949707 15.4648C0.949707 15.4648 0.9867 15.4369 1.01223 15.3912Z" fill="#999999"/>
<path d="M0.650414 15.183C0.675938 15.1373 0.6803 15.0912 0.6803 15.0912C0.6803 15.0912 0.643301 15.1192 0.617777 15.1649C0.592252 15.2106 0.587891 15.2568 0.587891 15.2568C0.587891 15.2568 0.624889 15.2287 0.650414 15.183Z" fill="#999999"/>
<path d="M0.80511 15.2937C0.850828 15.3192 0.897031 15.3237 0.897031 15.3237C0.897031 15.3237 0.869084 15.2867 0.823366 15.2612C0.777648 15.2357 0.731445 15.2312 0.731445 15.2312C0.731445 15.2312 0.759392 15.2682 0.80511 15.2937Z" fill="#999999"/>
<path d="M1.08199 15.1123C1.03627 15.0868 0.990234 15.0824 0.990234 15.0824C0.990234 15.0824 1.01818 15.1194 1.0639 15.1449C1.10962 15.1704 1.15566 15.1748 1.15566 15.1748C1.15566 15.1748 1.12771 15.1378 1.08199 15.1123Z" fill="#999999"/>
<path d="M0.720339 14.9043C0.674621 14.8788 0.628418 14.8744 0.628418 14.8744C0.628418 14.8744 0.656365 14.9114 0.702083 14.9369C0.747801 14.9624 0.794004 14.9668 0.794004 14.9668C0.794004 14.9668 0.766057 14.9298 0.720339 14.9043Z" fill="#999999"/>
<path d="M0.907738 15.0325C0.933262 14.9867 0.937787 14.9405 0.937787 14.9405C0.937787 14.9405 0.900788 14.9685 0.875264 15.0142C0.849739 15.0599 0.845215 15.106 0.845215 15.106C0.845215 15.106 0.882213 15.0782 0.907738 15.0325Z" fill="#999999"/>
<path d="M1.13446 14.9044C1.15998 14.8586 1.16434 14.8124 1.16434 14.8124C1.16434 14.8124 1.12735 14.8404 1.10182 14.8861C1.0763 14.9318 1.07178 14.978 1.07178 14.978C1.07178 14.978 1.10893 14.9501 1.13446 14.9044Z" fill="#999999"/>
<path d="M0.771991 14.6965C0.797515 14.6508 0.801877 14.6046 0.801877 14.6046C0.801877 14.6046 0.764883 14.6325 0.739359 14.6783C0.713834 14.724 0.709473 14.77 0.709473 14.77C0.709473 14.77 0.746466 14.7422 0.771991 14.6965Z" fill="#999999"/>
<path d="M0.927018 14.8061C0.972736 14.8316 1.01894 14.8359 1.01894 14.8359C1.01894 14.8359 0.990992 14.7989 0.945274 14.7734C0.899556 14.7479 0.853516 14.7435 0.853516 14.7435C0.853516 14.7435 0.8813 14.7805 0.927018 14.8061Z" fill="#999999"/>
<path d="M0.577571 14.6203C0.623289 14.6459 0.669492 14.6504 0.669492 14.6504C0.669492 14.6504 0.641545 14.6134 0.595827 14.5879C0.550109 14.5623 0.503906 14.5578 0.503906 14.5578C0.503906 14.5578 0.531853 14.5948 0.577571 14.6203Z" fill="#999999"/>
<path d="M1.04543 14.58C1.07095 14.5343 1.07532 14.4882 1.07532 14.4882C1.07532 14.4882 1.03832 14.5162 1.0128 14.5619C0.987272 14.6076 0.98291 14.6538 0.98291 14.6538C0.98291 14.6538 1.0199 14.6257 1.04543 14.58Z" fill="#999999"/>
<path d="M0.683612 14.3721C0.709136 14.3264 0.713498 14.2802 0.713498 14.2802C0.713498 14.2802 0.676504 14.3082 0.65098 14.3539C0.625455 14.3996 0.621094 14.4458 0.621094 14.4458C0.621094 14.4458 0.658087 14.4179 0.683612 14.3721Z" fill="#999999"/>
<path d="M0.838802 14.4823C0.88452 14.5078 0.930723 14.5122 0.930723 14.5122C0.930723 14.5122 0.902776 14.4752 0.857058 14.4497C0.81134 14.4242 0.765137 14.4198 0.765137 14.4198C0.765137 14.4198 0.793084 14.4568 0.838802 14.4823Z" fill="#999999"/>
<path d="M1.11536 14.2999C1.06964 14.2744 1.02344 14.2699 1.02344 14.2699C1.02344 14.2699 1.05138 14.3069 1.0971 14.3324C1.14282 14.3579 1.18902 14.3623 1.18902 14.3623C1.18902 14.3623 1.16108 14.3255 1.11536 14.2999Z" fill="#999999"/>
<path d="M0.753542 14.0923C0.707824 14.0667 0.661621 14.0622 0.661621 14.0622C0.661621 14.0622 0.689568 14.0992 0.735286 14.1247C0.781004 14.1503 0.827207 14.1548 0.827207 14.1548C0.827207 14.1548 0.79926 14.1178 0.753542 14.0923Z" fill="#999999"/>
<path d="M0.940453 14.2203C0.965977 14.1746 0.970496 14.1284 0.970496 14.1284C0.970496 14.1284 0.933503 14.1563 0.907978 14.202C0.882454 14.2477 0.87793 14.2939 0.87793 14.2939C0.87793 14.2939 0.914928 14.266 0.940453 14.2203Z" fill="#999999"/>
<path d="M0.805194 13.8848C0.830718 13.8391 0.83508 13.7929 0.83508 13.7929C0.83508 13.7929 0.798086 13.8209 0.772562 13.8666C0.747037 13.9123 0.742676 13.9585 0.742676 13.9585C0.742676 13.9585 0.779669 13.9305 0.805194 13.8848Z" fill="#999999"/>
<path d="M0.959895 13.9949C1.00561 14.0204 1.05182 14.0249 1.05182 14.0249C1.05182 14.0249 1.02387 13.9879 0.978151 13.9624C0.932433 13.9369 0.88623 13.9323 0.88623 13.9323C0.88623 13.9323 0.914177 13.9693 0.959895 13.9949Z" fill="#999999"/>
<path d="M0.611263 13.8093C0.656981 13.8348 0.703184 13.8394 0.703184 13.8394C0.703184 13.8394 0.675237 13.8024 0.629519 13.7768C0.5838 13.7513 0.537598 13.747 0.537598 13.747C0.537598 13.747 0.565544 13.7838 0.611263 13.8093Z" fill="#999999"/>
<path d="M1.04592 13.7652C1.07144 13.7195 1.07581 13.6733 1.07581 13.6733C1.07581 13.6733 1.03881 13.7012 1.01328 13.7469C0.98776 13.7927 0.983398 13.8389 0.983398 13.8389C0.983398 13.8389 1.02039 13.8109 1.04592 13.7652Z" fill="#999999"/>
<path d="M0.6841 13.557C0.709625 13.5113 0.713986 13.4653 0.713986 13.4653C0.713986 13.4653 0.676993 13.4932 0.651468 13.5389C0.625943 13.5847 0.621582 13.6309 0.621582 13.6309C0.621582 13.6309 0.658575 13.6027 0.6841 13.557Z" fill="#999999"/>
<path d="M0.83929 13.6669C0.885008 13.6924 0.931211 13.6968 0.931211 13.6968C0.931211 13.6968 0.903264 13.6598 0.857546 13.6343C0.811828 13.6087 0.765625 13.6044 0.765625 13.6044C0.765625 13.6044 0.793572 13.6414 0.83929 13.6669Z" fill="#999999"/>
<path d="M1.11585 13.4857C1.07013 13.4601 1.02393 13.4558 1.02393 13.4558C1.02393 13.4558 1.05187 13.4928 1.09759 13.5183C1.14331 13.5438 1.18951 13.5483 1.18951 13.5483C1.18951 13.5483 1.16156 13.5112 1.11585 13.4857Z" fill="#999999"/>
<path d="M0.75403 13.2768C0.708312 13.2513 0.662109 13.2468 0.662109 13.2468C0.662109 13.2468 0.690056 13.2838 0.735774 13.3093C0.781492 13.3348 0.827695 13.3394 0.827695 13.3394C0.827695 13.3394 0.799748 13.3024 0.75403 13.2768Z" fill="#999999"/>
<path d="M0.940941 13.4048C0.966466 13.3591 0.970985 13.3129 0.970985 13.3129C0.970985 13.3129 0.933991 13.3409 0.908467 13.3866C0.882942 13.4323 0.878418 13.4785 0.878418 13.4785C0.878418 13.4785 0.915416 13.4506 0.940941 13.4048Z" fill="#999999"/>
<path d="M0.805682 13.0701C0.831207 13.0243 0.835568 12.9781 0.835568 12.9781C0.835568 12.9781 0.798575 13.0061 0.77305 13.0518C0.747525 13.0975 0.743164 13.1436 0.743164 13.1436C0.743164 13.1436 0.780158 13.1158 0.805682 13.0701Z" fill="#999999"/>
<path d="M0.960384 13.1799C1.0061 13.2054 1.0523 13.21 1.0523 13.21C1.0523 13.21 1.02436 13.173 0.97864 13.1474C0.932922 13.1219 0.886719 13.1174 0.886719 13.1174C0.886719 13.1174 0.914666 13.1544 0.960384 13.1799Z" fill="#999999"/>
<path d="M0.611751 12.994C0.657469 13.0196 0.703672 13.0239 0.703672 13.0239C0.703672 13.0239 0.675725 12.9869 0.630007 12.9614C0.584289 12.9359 0.538086 12.9315 0.538086 12.9315C0.538086 12.9315 0.566033 12.9685 0.611751 12.994Z" fill="#999999"/>
<path d="M1.04543 12.9504C1.07095 12.9047 1.07532 12.8585 1.07532 12.8585C1.07532 12.8585 1.03832 12.8864 1.0128 12.9322C0.987272 12.9779 0.98291 13.0239 0.98291 13.0239C0.98291 13.0239 1.0199 12.9961 1.04543 12.9504Z" fill="#999999"/>
<path d="M0.683612 12.7423C0.709136 12.6965 0.713498 12.6503 0.713498 12.6503C0.713498 12.6503 0.676504 12.6783 0.65098 12.724C0.625455 12.7697 0.621094 12.8159 0.621094 12.8159C0.621094 12.8159 0.658087 12.788 0.683612 12.7423Z" fill="#999999"/>
<path d="M0.838802 12.8523C0.88452 12.8778 0.930723 12.8823 0.930723 12.8823C0.930723 12.8823 0.902776 12.8453 0.857058 12.8198C0.81134 12.7943 0.765137 12.7899 0.765137 12.7899C0.765137 12.7899 0.793084 12.8268 0.838802 12.8523Z" fill="#999999"/>
<path d="M1.11536 12.6714C1.06964 12.6458 1.02344 12.6415 1.02344 12.6415C1.02344 12.6415 1.05138 12.6785 1.0971 12.704C1.14282 12.7295 1.18902 12.7339 1.18902 12.7339C1.18902 12.7339 1.16108 12.6969 1.11536 12.6714Z" fill="#999999"/>
<path d="M0.753542 12.4632C0.707824 12.4377 0.661621 12.4333 0.661621 12.4333C0.661621 12.4333 0.689568 12.4703 0.735286 12.4958C0.781004 12.5214 0.827207 12.5259 0.827207 12.5259C0.827207 12.5259 0.79926 12.4887 0.753542 12.4632Z" fill="#999999"/>
<path d="M0.940453 12.5917C0.965977 12.546 0.970496 12.4999 0.970496 12.4999C0.970496 12.4999 0.933503 12.5279 0.907978 12.5736C0.882454 12.6193 0.87793 12.6655 0.87793 12.6655C0.87793 12.6655 0.914928 12.6374 0.940453 12.5917Z" fill="#999999"/>
<path d="M0.805194 12.2554C0.830718 12.2097 0.83508 12.1635 0.83508 12.1635C0.83508 12.1635 0.798086 12.1915 0.772562 12.2372C0.747037 12.2829 0.742676 12.3291 0.742676 12.3291C0.742676 12.3291 0.779669 12.3011 0.805194 12.2554Z" fill="#999999"/>
<path d="M0.959895 12.3664C1.00561 12.392 1.05182 12.3965 1.05182 12.3965C1.05182 12.3965 1.02387 12.3595 0.978151 12.334C0.932433 12.3084 0.88623 12.3039 0.88623 12.3039C0.88623 12.3039 0.914177 12.3409 0.959895 12.3664Z" fill="#999999"/>
<path d="M0.611263 12.1811C0.656981 12.2066 0.703184 12.2109 0.703184 12.2109C0.703184 12.2109 0.675237 12.1739 0.629519 12.1484C0.5838 12.1229 0.537598 12.1185 0.537598 12.1185C0.537598 12.1185 0.565544 12.1554 0.611263 12.1811Z" fill="#999999"/>
<path d="M1.04592 12.1368C1.07144 12.0911 1.07581 12.0449 1.07581 12.0449C1.07581 12.0449 1.03881 12.0728 1.01328 12.1185C0.98776 12.1642 0.983398 12.2104 0.983398 12.2104C0.983398 12.2104 1.02039 12.1825 1.04592 12.1368Z" fill="#999999"/>
<path d="M0.6841 11.9289C0.709625 11.8832 0.713986 11.837 0.713986 11.837C0.713986 11.837 0.676993 11.865 0.651468 11.9107C0.625943 11.9564 0.621582 12.0024 0.621582 12.0024C0.621582 12.0024 0.658575 11.9747 0.6841 11.9289Z" fill="#999999"/>
<path d="M0.83929 12.0388C0.885008 12.0643 0.931211 12.0688 0.931211 12.0688C0.931211 12.0688 0.903264 12.0319 0.857546 12.0063C0.811828 11.9808 0.765625 11.9764 0.765625 11.9764C0.765625 11.9764 0.793572 12.0133 0.83929 12.0388Z" fill="#999999"/>
<path d="M1.11585 11.8569C1.07013 11.8314 1.02393 11.827 1.02393 11.827C1.02393 11.827 1.05187 11.864 1.09759 11.8895C1.14331 11.9151 1.18951 11.9194 1.18951 11.9194C1.18951 11.9194 1.16156 11.8824 1.11585 11.8569Z" fill="#999999"/>
<path d="M0.75403 11.6489C0.708312 11.6234 0.662109 11.619 0.662109 11.619C0.662109 11.619 0.690056 11.656 0.735774 11.6815C0.781492 11.7071 0.827695 11.7114 0.827695 11.7114C0.827695 11.7114 0.799748 11.6744 0.75403 11.6489Z" fill="#999999"/>
<path d="M0.940941 11.7769C0.966466 11.7312 0.970985 11.685 0.970985 11.685C0.970985 11.685 0.933991 11.7129 0.908467 11.7587C0.882942 11.8044 0.878418 11.8506 0.878418 11.8506C0.878418 11.8506 0.915416 11.8226 0.940941 11.7769Z" fill="#999999"/>
<path d="M0.805682 11.4405C0.831207 11.3948 0.835568 11.3486 0.835568 11.3486C0.835568 11.3486 0.798575 11.3765 0.77305 11.4222C0.747525 11.468 0.743164 11.5142 0.743164 11.5142C0.743164 11.5142 0.780158 11.4862 0.805682 11.4405Z" fill="#999999"/>
<path d="M0.960384 11.5517C1.0061 11.5772 1.0523 11.5815 1.0523 11.5815C1.0523 11.5815 1.02436 11.5445 0.97864 11.519C0.932922 11.4935 0.886719 11.4891 0.886719 11.4891C0.886719 11.4891 0.914666 11.5261 0.960384 11.5517Z" fill="#999999"/>
<path d="M0.611751 11.3651C0.657469 11.3907 0.703672 11.395 0.703672 11.395C0.703672 11.395 0.675725 11.358 0.630007 11.3325C0.584289 11.307 0.538086 11.3026 0.538086 11.3026C0.538086 11.3026 0.566033 11.3394 0.611751 11.3651Z" fill="#999999"/>
<path d="M1.04592 11.3213C1.07144 11.2756 1.07581 11.2294 1.07581 11.2294C1.07581 11.2294 1.03881 11.2574 1.01328 11.3031C0.98776 11.3488 0.983398 11.395 0.983398 11.395C0.983398 11.395 1.02039 11.3671 1.04592 11.3213Z" fill="#999999"/>
<path d="M0.6841 11.1133C0.709625 11.0676 0.713986 11.0214 0.713986 11.0214C0.713986 11.0214 0.676993 11.0494 0.651468 11.0951C0.625943 11.1408 0.621582 11.187 0.621582 11.187C0.621582 11.187 0.658575 11.1591 0.6841 11.1133Z" fill="#999999"/>
<path d="M0.83929 11.2234C0.885008 11.2489 0.931211 11.2534 0.931211 11.2534C0.931211 11.2534 0.903264 11.2164 0.857546 11.1909C0.811828 11.1654 0.765625 11.1609 0.765625 11.1609C0.765625 11.1609 0.793572 11.1978 0.83929 11.2234Z" fill="#999999"/>
<path d="M1.11585 11.0421C1.07013 11.0166 1.02393 11.0121 1.02393 11.0121C1.02393 11.0121 1.05187 11.0491 1.09759 11.0746C1.14331 11.1001 1.18951 11.1045 1.18951 11.1045C1.18951 11.1045 1.16156 11.0677 1.11585 11.0421Z" fill="#999999"/>
<path d="M0.75403 10.8345C0.708312 10.8089 0.662109 10.8046 0.662109 10.8046C0.662109 10.8046 0.690056 10.8416 0.735774 10.8671C0.781492 10.8926 0.827695 10.897 0.827695 10.897C0.827695 10.897 0.799748 10.86 0.75403 10.8345Z" fill="#999999"/>
<path d="M0.940941 10.9621C0.966466 10.9164 0.970985 10.8702 0.970985 10.8702C0.970985 10.8702 0.933991 10.8982 0.908467 10.9439C0.882942 10.9896 0.878418 11.0356 0.878418 11.0356C0.878418 11.0356 0.915416 11.0079 0.940941 10.9621Z" fill="#999999"/>
<path d="M0.805682 10.6265C0.831207 10.5808 0.835568 10.5346 0.835568 10.5346C0.835568 10.5346 0.798575 10.5626 0.77305 10.6083C0.747525 10.654 0.743164 10.7002 0.743164 10.7002C0.743164 10.7002 0.780158 10.6722 0.805682 10.6265Z" fill="#999999"/>
<path d="M0.959895 10.7362C1.00561 10.7618 1.05182 10.7661 1.05182 10.7661C1.05182 10.7661 1.02387 10.7291 0.978151 10.7036C0.932433 10.6781 0.88623 10.6735 0.88623 10.6735C0.88623 10.6735 0.914177 10.7107 0.959895 10.7362Z" fill="#999999"/>
<path d="M0.611751 10.5515C0.657469 10.577 0.703672 10.5815 0.703672 10.5815C0.703672 10.5815 0.675725 10.5445 0.630007 10.519C0.584289 10.4935 0.538086 10.489 0.538086 10.489C0.538086 10.489 0.566033 10.526 0.611751 10.5515Z" fill="#999999"/>
<path d="M1.04543 10.5067C1.07095 10.461 1.07532 10.415 1.07532 10.415C1.07532 10.415 1.03832 10.4429 1.0128 10.4886C0.987272 10.5344 0.98291 10.5806 0.98291 10.5806C0.98291 10.5806 1.0199 10.5525 1.04543 10.5067Z" fill="#999999"/>
<path d="M0.683612 10.2984C0.709136 10.2527 0.713498 10.2065 0.713498 10.2065C0.713498 10.2065 0.676504 10.2344 0.65098 10.2801C0.625455 10.3259 0.621094 10.3721 0.621094 10.3721C0.621094 10.3721 0.658087 10.344 0.683612 10.2984Z" fill="#999999"/>
<path d="M0.838802 10.4094C0.88452 10.4349 0.930723 10.4395 0.930723 10.4395C0.930723 10.4395 0.902776 10.4025 0.857058 10.3769C0.81134 10.3514 0.765137 10.347 0.765137 10.347C0.765137 10.347 0.793084 10.3839 0.838802 10.4094Z" fill="#999999"/>
<path d="M1.11536 10.2278C1.06964 10.2023 1.02344 10.198 1.02344 10.198C1.02344 10.198 1.05138 10.235 1.0971 10.2605C1.14282 10.286 1.18902 10.2905 1.18902 10.2905C1.18902 10.2905 1.16108 10.2534 1.11536 10.2278Z" fill="#999999"/>
<path d="M0.753542 10.0202C0.707824 9.99463 0.661621 9.99011 0.661621 9.99011C0.661621 9.99011 0.689568 10.0271 0.735286 10.0526C0.781004 10.0782 0.827207 10.0825 0.827207 10.0825C0.827207 10.0825 0.79926 10.0457 0.753542 10.0202Z" fill="#999999"/>
<path d="M0.940453 10.1479C0.965977 10.1021 0.970496 10.0561 0.970496 10.0561C0.970496 10.0561 0.933503 10.084 0.907978 10.1298C0.882454 10.1755 0.87793 10.2217 0.87793 10.2217C0.87793 10.2217 0.914928 10.1936 0.940453 10.1479Z" fill="#999999"/>
<path d="M0.805194 9.81289C0.830718 9.76717 0.83508 9.72113 0.83508 9.72113C0.83508 9.72113 0.798086 9.74908 0.772562 9.7948C0.747037 9.84052 0.742676 9.88672 0.742676 9.88672C0.742676 9.88672 0.779669 9.85861 0.805194 9.81289Z" fill="#999999"/>
<path d="M0.959895 9.92226C1.00561 9.94779 1.05182 9.95215 1.05182 9.95215C1.05182 9.95215 1.02387 9.91515 0.978151 9.88963C0.932433 9.86411 0.88623 9.85974 0.88623 9.85974C0.88623 9.85974 0.914177 9.89674 0.959895 9.92226Z" fill="#999999"/>
<path d="M0.611263 9.73655C0.656981 9.76208 0.703184 9.7666 0.703184 9.7666C0.703184 9.7666 0.675237 9.72961 0.629519 9.70408C0.5838 9.67856 0.537598 9.67403 0.537598 9.67403C0.537598 9.67403 0.565544 9.71103 0.611263 9.73655Z" fill="#999999"/>
<path d="M1.0464 9.69294C1.07193 9.64722 1.0763 9.60101 1.0763 9.60101C1.0763 9.60101 1.0393 9.62896 1.01377 9.67468C0.988248 9.7204 0.983887 9.7666 0.983887 9.7666C0.983887 9.7666 1.02088 9.73865 1.0464 9.69294Z" fill="#999999"/>
<path d="M0.684588 9.48541C0.710113 9.43969 0.714474 9.39349 0.714474 9.39349C0.714474 9.39349 0.677481 9.42144 0.651956 9.46716C0.626432 9.51288 0.62207 9.55908 0.62207 9.55908C0.62207 9.55908 0.659064 9.53097 0.684588 9.48541Z" fill="#999999"/>
<path d="M0.839778 9.59463C0.885496 9.62015 0.931699 9.62451 0.931699 9.62451C0.931699 9.62451 0.903752 9.58752 0.858034 9.56199C0.812316 9.53647 0.766113 9.53194 0.766113 9.53194C0.766113 9.53194 0.79406 9.5691 0.839778 9.59463Z" fill="#999999"/>
<path d="M1.11585 9.41306C1.07013 9.38754 1.02393 9.38302 1.02393 9.38302C1.02393 9.38302 1.05187 9.42001 1.09759 9.44554C1.14331 9.47106 1.18951 9.47559 1.18951 9.47559C1.18951 9.47559 1.16156 9.43859 1.11585 9.41306Z" fill="#999999"/>
<path d="M0.75403 9.20506C0.708312 9.17953 0.662109 9.17501 0.662109 9.17501C0.662109 9.17501 0.690056 9.212 0.735774 9.23753C0.781492 9.26305 0.827695 9.26758 0.827695 9.26758C0.827695 9.26758 0.799748 9.23058 0.75403 9.20506Z" fill="#999999"/>
<path d="M0.940941 9.33307C0.966466 9.28735 0.970985 9.24115 0.970985 9.24115C0.970985 9.24115 0.933991 9.2691 0.908467 9.31482C0.882942 9.36054 0.878418 9.40674 0.878418 9.40674C0.878418 9.40674 0.915416 9.37879 0.940941 9.33307Z" fill="#999999"/>
<path d="M0.960384 9.10765C1.0061 9.13317 1.0523 9.1377 1.0523 9.1377C1.0523 9.1377 1.02436 9.1007 0.97864 9.07518C0.932922 9.04965 0.886719 9.04513 0.886719 9.04513C0.886719 9.04513 0.914666 9.08212 0.960384 9.10765Z" fill="#999999"/>
</g>
<path d="M3.57373 0.526855L3.32059 0.526855C3.29264 0.526855 3.27002 0.50424 3.27002 0.476292L3.27002 0.366277C3.27002 0.338329 3.29264 0.315709 3.32059 0.315709L3.57373 0.315709C3.60168 0.315709 3.62429 0.338329 3.62429 0.366277L3.62429 0.476292C3.62413 0.50424 3.60152 0.526855 3.57373 0.526855Z" fill="url(#paint3_linear_580_1668)"/>
<path d="M4.06502 0.526855L4.26841 0.526855C4.31009 0.526855 4.3437 0.493091 4.3437 0.451573L4.3437 0.391317C4.3437 0.349638 4.30993 0.316035 4.26841 0.316035L4.06502 0.316035C4.02334 0.316035 3.98975 0.349799 3.98975 0.391317L3.98975 0.451573C3.98959 0.493091 4.02334 0.526855 4.06502 0.526855Z" fill="url(#paint4_linear_580_1668)"/>
<path d="M3.92378 1.12646L3.72459 1.12582C3.60278 1.12533 3.5044 1.0263 3.50488 0.90449L3.50731 0.247146C3.50779 0.125338 3.60682 0.0269563 3.72863 0.027441L3.92781 0.0280869C4.04962 0.0285715 4.14801 0.1276 4.14752 0.249409L4.1451 0.906753C4.14461 1.02856 4.04558 1.12695 3.92378 1.12646Z" fill="url(#paint5_linear_580_1668)"/>
<path d="M13.833 0.526855L13.5799 0.526855C13.5521 0.526855 13.5293 0.50424 13.5293 0.476292L13.5293 0.366277C13.5293 0.338329 13.5519 0.315709 13.5799 0.315709L13.833 0.315709C13.861 0.315709 13.8836 0.338329 13.8836 0.366277L13.8836 0.476292C13.8836 0.50424 13.861 0.526855 13.833 0.526855Z" fill="url(#paint6_linear_580_1668)"/>
<path d="M14.3243 0.526855L14.5277 0.526855C14.5694 0.526855 14.603 0.493091 14.603 0.451573L14.603 0.391317C14.603 0.349638 14.5692 0.316035 14.5277 0.316035L14.3243 0.316035C14.2826 0.316035 14.249 0.349799 14.249 0.391317L14.249 0.451573C14.249 0.493091 14.2828 0.526855 14.3243 0.526855Z" fill="url(#paint7_linear_580_1668)"/>
<path d="M14.1831 1.12646L13.9839 1.12582C13.8621 1.12533 13.7637 1.0263 13.7642 0.90449L13.7666 0.247146C13.7671 0.125338 13.8661 0.0269563 13.9879 0.027441L14.1871 0.0280869C14.3089 0.0285715 14.4073 0.1276 14.4068 0.249409L14.4044 0.906753C14.4041 1.02856 14.3049 1.12695 14.1831 1.12646Z" fill="url(#paint8_linear_580_1668)"/>
<path d="M16.7251 15.5298L1.14941 15.5298L1.14941 1.63315C1.14941 1.08662 1.59238 0.643819 2.13873 0.643819L15.7356 0.643819C16.2821 0.643819 16.7251 1.08679 16.7251 1.63315L16.7251 15.5298Z" fill="#E1E2DD"/>
<path d="M15.2484 0.643708L2.62596 0.643708C1.81047 0.643708 1.14941 1.30477 1.14941 2.12027L1.14941 2.7915L16.7251 2.7915L16.7251 2.12027C16.7251 1.30477 16.0639 0.643708 15.2484 0.643708Z" fill="url(#paint9_linear_580_1668)"/>
<path d="M15.2484 0.643708L2.62596 0.643708C1.81047 0.643708 1.14941 1.30477 1.14941 2.12027L1.14941 2.7915L16.7251 2.7915L16.7251 2.12027C16.7251 1.30477 16.0639 0.643708 15.2484 0.643708Z" fill="url(#paint10_linear_580_1668)"/>
<path opacity="0.2" d="M15.0366 1.00865L2.83727 1.00865C2.04908 1.00865 1.41016 1.66971 1.41016 2.48521L1.41016 2.7915L16.4635 2.7915L16.4635 2.48521C16.4637 1.66971 15.8248 1.00865 15.0366 1.00865Z" fill="black"/>
<path d="M1.63135 15.2324L1.63135 2.21412C1.63135 1.84612 1.92973 1.54773 2.29773 1.54773L15.5763 1.54773C15.9444 1.54773 16.2427 1.84612 16.2427 2.21412L16.2427 15.2324L1.63135 15.2324Z" fill="#F5F7EA"/>
<g opacity="0.1">
<path d="M1.63135 15.2324L1.63135 2.21412C1.63135 1.84612 1.92973 1.54773 2.29773 1.54773L15.5763 1.54773C15.9444 1.54773 16.2427 1.84612 16.2427 2.21412L16.2427 15.2324L1.63135 15.2324Z" fill="url(#paint11_radial_580_1668)"/>
</g>
<g opacity="0.5">
<path d="M1.63135 15.2324L1.63135 2.21412C1.63135 1.84612 1.92973 1.54773 2.29773 1.54773L15.5763 1.54773C15.9444 1.54773 16.2427 1.84612 16.2427 2.21412L16.2427 15.2324L1.63135 15.2324Z" fill="url(#paint12_linear_580_1668)"/>
</g>
<path opacity="0.3" d="M5.4759 1.548L4.62535 1.548L3.89063 11.2528L4.74118 11.3164L5.4759 1.548Z" fill="url(#paint13_linear_580_1668)"/>
<path opacity="0.3" d="M12.3911 1.548L13.2417 1.548L13.9764 11.2528L13.1258 11.3164L12.3911 1.548Z" fill="url(#paint14_linear_580_1668)"/>
<path d="M15.2481 1.12618L2.62568 1.12618C2.07738 1.12618 1.63135 1.57205 1.63135 2.12051L1.63135 2.54248C1.63135 1.99337 2.07657 1.54798 2.62568 1.54798L15.2481 1.54798C15.7973 1.54798 16.2426 1.99321 16.2426 2.54248L16.2426 2.12051C16.2426 1.57205 15.7965 1.12618 15.2481 1.12618Z" fill="#CCCCCC"/>
<path opacity="0.4" d="M12.3323 1.17383L5.47656 1.17383L5.47656 1.22892L12.3323 1.22892L12.3323 1.17383Z" fill="#666666"/>
<path opacity="0.4" d="M12.3323 1.26758L5.47656 1.26758L5.47656 1.32267L12.3323 1.32267L12.3323 1.26758Z" fill="#666666"/>
<path opacity="0.4" d="M12.3323 1.36133L5.47656 1.36133L5.47656 1.41642L12.3323 1.41642L12.3323 1.36133Z" fill="#666666"/>
<path opacity="0.4" d="M12.3323 1.45459L5.47656 1.45459L5.47656 1.50968L12.3323 1.50968L12.3323 1.45459Z" fill="#666666"/>
<path d="M2.62746 1.12569L2.62568 1.12569C2.07738 1.12569 1.63135 1.57157 1.63135 2.12003L1.63135 2.54199C1.63135 1.99289 2.07657 1.54749 2.62568 1.54749L2.62746 1.54749L2.62746 1.12569Z" fill="#FF6600"/>
<path d="M5.43756 1.54785L2.62549 1.54785L2.62549 1.12588L5.71639 1.12588L5.43756 1.54785Z" fill="#DCFFFE"/>
<path d="M2.62727 1.51025L5.46244 1.51025L5.52463 1.41623L2.62727 1.41623L2.62549 1.41623L2.62549 1.51025L2.62727 1.51025Z" fill="white"/>
<path opacity="0.4" d="M2.62568 1.41587C2.07738 1.41587 1.63135 1.86175 1.63135 2.41021L1.63135 2.50439C1.63135 1.9561 2.07738 1.51006 2.62568 1.51006L2.62746 1.51006L2.62746 1.41587L2.62568 1.41587Z" fill="white"/>
<path d="M1.63123 2.50439L1.53253 2.50439C1.50684 2.50439 1.48584 2.47209 1.48584 2.43235L1.48584 2.15464C1.48584 2.1149 1.50668 2.08259 1.53253 2.08259L1.63123 2.08259L1.63123 2.50439Z" fill="#FF6600"/>
<path d="M15.2295 1.12569L15.2313 1.12569C15.7796 1.12569 16.2256 1.57157 16.2256 2.12003L16.2256 2.54199C16.2256 1.99289 15.7804 1.54749 15.2313 1.54749L15.2295 1.54749L15.2295 1.12569Z" fill="#FF6600"/>
<path d="M12.4188 1.54785L15.2309 1.54785L15.2309 1.12588L12.1401 1.12588L12.4188 1.54785Z" fill="#DCFFFE"/>
<path d="M15.2289 1.51025L12.3937 1.51025L12.3315 1.41623L15.2289 1.41623L15.2307 1.41623L15.2307 1.51025L15.2289 1.51025Z" fill="white"/>
<path opacity="0.4" d="M15.2313 1.41587C15.7796 1.41587 16.2256 1.86175 16.2256 2.41021L16.2256 2.50439C16.2256 1.9561 15.7796 1.51006 15.2313 1.51006L15.2295 1.51006L15.2295 1.41587L15.2313 1.41587Z" fill="white"/>
<path d="M16.2251 2.50439L16.3238 2.50439C16.3495 2.50439 16.3705 2.47209 16.3705 2.43235L16.3705 2.15464C16.3705 2.1149 16.3497 2.08259 16.3238 2.08259L16.2251 2.08259L16.2251 2.50439Z" fill="#FF6600"/>
<path d="M2.92467 12.4596C4.48005 12.2317 11.3704 11.6889 14.7682 12.411C15.1056 12.4827 15.4451 12.3071 15.5823 11.9908L16.1967 7.79553C16.3378 7.46984 16.1676 7.0944 15.8285 6.98923C14.0981 6.45224 8.91471 5.22108 2.06507 7.04933C1.72145 7.14109 1.5389 7.51734 1.67218 7.84706L2.14827 12.0128C2.27347 12.3229 2.59349 12.5081 2.92467 12.4596Z" fill="#F4F4F4"/>
<path opacity="0.5" d="M2.92467 12.4596C4.48005 12.2317 11.3704 11.6889 14.7682 12.411C15.1056 12.4827 15.4451 12.3071 15.5823 11.9908L16.1967 7.79553C16.3378 7.46984 16.1676 7.0944 15.8285 6.98923C14.0981 6.45224 8.91471 5.22108 2.06507 7.04933C1.72145 7.14109 1.5389 7.51734 1.67218 7.84706L2.14827 12.0128C2.27347 12.3229 2.59349 12.5081 2.92467 12.4596Z" fill="url(#paint15_linear_580_1668)"/>
<path d="M2.81948 12.1748C2.64323 12.1748 2.48637 12.0682 2.41965 11.9034L1.94357 7.73769C1.91077 7.65627 1.91449 7.56435 1.95374 7.48583C1.99219 7.40894 2.05859 7.35434 2.14065 7.3322C4.51686 6.69796 6.91779 6.37632 9.27672 6.37632C12.3994 6.37632 14.6676 6.9356 15.7417 7.26904C15.8244 7.29473 15.8899 7.35191 15.9259 7.43059C15.9624 7.51007 15.9632 7.59811 15.928 7.67937L15.3136 11.8745C15.2451 12.0323 15.0904 12.1344 14.9193 12.1344C14.8892 12.1344 14.859 12.1312 14.829 12.1247C13.6784 11.8803 11.0961 11.7564 9.53083 11.7564C7.25139 11.7564 3.93659 12.0155 2.88216 12.1701C2.861 12.1734 2.84016 12.1748 2.81948 12.1748Z" fill="black"/>
<path d="M2.81973 12.0278C2.70342 12.0278 2.59986 11.9572 2.55576 11.848L2.07968 7.68231C2.05625 7.62432 2.07289 7.57504 2.08501 7.55081C2.0989 7.52303 2.12636 7.48733 2.17871 7.47327C4.54264 6.84226 6.93081 6.52223 9.27697 6.52223C12.3805 6.52223 14.6325 7.07747 15.6985 7.40833C15.756 7.4261 15.7825 7.46778 15.7932 7.49104C15.804 7.51511 15.8187 7.56341 15.794 7.6206L15.1796 11.816C15.1344 11.9201 15.0323 11.9876 14.9195 11.9876C14.8997 11.9876 14.8796 11.9853 14.8598 11.9813C13.6992 11.7345 11.1065 11.6096 9.53108 11.6096C7.24243 11.6096 3.91955 11.8698 2.86125 12.0248C2.84735 12.0267 2.83346 12.0278 2.81973 12.0278Z" fill="#676B86"/>
<path opacity="0.2" d="M2.20968 8.81982C3.9145 8.40545 6.46519 8.07298 8.93768 8.07298C11.3842 8.07298 13.9201 8.4132 15.6183 8.81982L15.7939 7.62064C15.8187 7.56345 15.804 7.51515 15.7931 7.49108C15.7825 7.46798 15.756 7.42614 15.6985 7.40837C14.6324 7.07751 12.3804 6.52227 9.27693 6.52227C6.93076 6.52227 4.5426 6.8423 2.17866 7.47331C2.12632 7.48737 2.09886 7.52307 2.08497 7.55085C2.07301 7.57508 2.05621 7.62436 2.07963 7.68235L2.20968 8.81982Z" fill="black"/>
<path d="M2.11275 7.76465C3.93841 7.31376 6.32431 7.0401 8.93768 7.0401C11.5376 7.0401 13.9124 7.31102 15.7345 7.7577L15.7939 7.62055C15.8187 7.56336 15.804 7.51505 15.7931 7.49098C15.7825 7.46788 15.756 7.42604 15.6985 7.40827C14.6324 7.07742 12.3804 6.52218 9.27693 6.52218C6.93076 6.52218 4.5426 6.8422 2.17866 7.47322C2.12632 7.48727 2.09886 7.52297 2.08497 7.55076C2.07301 7.57499 2.05621 7.62427 2.07963 7.68226L2.11275 7.76465Z" fill="#333333"/>
<path d="M4.32617 7.6929L6.23503 7.29549L6.25247 7.39097L4.33474 7.74072L4.32617 7.6929Z" fill="black"/>
<path d="M8.89807 6.9077L6.29053 7.3833L6.41944 7.261L8.88063 6.81222L8.89807 6.9077Z" fill="black"/>
<path d="M4.44623 7.74512L9.00044 6.91605L8.99107 6.86516L4.33008 7.71523L4.44623 7.74512Z" fill="#333333"/>
<path d="M8.88305 6.88632C8.8698 6.8133 8.9181 6.74335 8.99112 6.7301C9.06414 6.71686 9.13409 6.76516 9.14734 6.83818C9.16059 6.9112 9.11228 6.98115 9.03926 6.9944C8.96624 7.00764 8.89629 6.95934 8.88305 6.88632Z" fill="black"/>
<path d="M8.88752 6.91018C8.8767 6.8504 8.91628 6.79305 8.97605 6.78223C9.03583 6.77124 9.09317 6.81099 9.104 6.87076C9.11498 6.93053 9.07524 6.98788 9.01547 6.99871C8.9557 7.00953 8.89835 6.96995 8.88752 6.91018Z" fill="#333333"/>
<path d="M8.55664 7.47904L10.4957 7.27468L10.5036 7.37144L8.56052 7.52734L8.55664 7.47904Z" fill="black"/>
<path d="M13.1841 7.1567L10.542 7.36865L10.6827 7.26009L13.1764 7.05993L13.1841 7.1567Z" fill="black"/>
<path d="M8.67119 7.54248L13.2855 7.17367L13.2813 7.12197L8.55859 7.50113L8.67119 7.54248Z" fill="#333333"/>
<path d="M13.1718 7.1328C13.1659 7.05881 13.2211 6.9942 13.2949 6.98822C13.3689 6.98224 13.4335 7.03749 13.4395 7.11132C13.4455 7.18531 13.3902 7.24993 13.3164 7.2559C13.2426 7.26188 13.1778 7.20679 13.1718 7.1328Z" fill="black"/>
<path d="M13.1732 7.15664C13.1684 7.09606 13.2134 7.04308 13.274 7.03807C13.3346 7.03322 13.3876 7.07846 13.3924 7.13904C13.3973 7.19962 13.3522 7.25261 13.2916 7.25746C13.231 7.2623 13.1781 7.21723 13.1732 7.15664Z" fill="#333333"/>
<path opacity="0.5" d="M2.81973 12.0278C2.70342 12.0278 2.59986 11.9572 2.55576 11.848L2.07968 7.68231C2.05625 7.62432 2.07289 7.57504 2.08501 7.55081C2.0989 7.52303 2.12636 7.48733 2.17871 7.47327C4.54264 6.84226 6.93081 6.52223 9.27697 6.52223C12.3805 6.52223 14.6325 7.07747 15.6985 7.40833C15.756 7.4261 15.7825 7.46778 15.7932 7.49104C15.804 7.51511 15.8187 7.56341 15.794 7.6206L15.1796 11.816C15.1344 11.9201 15.0323 11.9876 14.9195 11.9876C14.8997 11.9876 14.8796 11.9853 14.8598 11.9813C13.6992 11.7345 11.1065 11.6096 9.53108 11.6096C7.24243 11.6096 3.91955 11.8698 2.86125 12.0248C2.84735 12.0267 2.83346 12.0278 2.81973 12.0278Z" fill="url(#paint16_radial_580_1668)"/>
<path opacity="0.3" d="M2.81973 12.0278C2.70342 12.0278 2.59986 11.9572 2.55576 11.848L2.07968 7.68231C2.05625 7.62432 2.07289 7.57504 2.08501 7.55081C2.0989 7.52303 2.12636 7.48733 2.17871 7.47327C4.54264 6.84226 6.93081 6.52223 9.27697 6.52223C12.3805 6.52223 14.6325 7.07747 15.6985 7.40833C15.756 7.4261 15.7825 7.46778 15.7932 7.49104C15.804 7.51511 15.8187 7.56341 15.794 7.6206L15.1796 11.816C15.1344 11.9201 15.0323 11.9876 14.9195 11.9876C14.8997 11.9876 14.8796 11.9853 14.8598 11.9813C13.6992 11.7345 11.1065 11.6096 9.53108 11.6096C7.24243 11.6096 3.91955 11.8698 2.86125 12.0248C2.84735 12.0267 2.83346 12.0278 2.81973 12.0278Z" fill="url(#paint17_radial_580_1668)"/>
<path d="M1.62491 15.2354C1.6317 15.2354 1.63865 15.2342 1.64559 15.2324L2.31714 15.2354C2.38645 15.2148 2.43879 15.0916 2.43879 14.9488L2.43879 13.0092C2.43879 12.9703 2.43508 12.9323 2.42765 12.8964L1.70601 7.51813C1.69325 7.45626 1.66498 7.41781 1.63218 7.41781C1.58695 7.41781 1.55141 7.48987 1.55141 7.58195L1.48291 14.9459C1.48291 15.0239 1.49778 15.0967 1.52508 15.1515C1.55189 15.2058 1.58743 15.2354 1.62491 15.2354Z" fill="#F4F4F4"/>
<path opacity="0.5" d="M1.62491 15.2354C1.6317 15.2354 1.63865 15.2342 1.64559 15.2324L2.31714 15.2354C2.38645 15.2148 2.43879 15.0916 2.43879 14.9488L2.43879 13.0092C2.43879 12.9703 2.43508 12.9323 2.42765 12.8964L1.70601 7.51813C1.69325 7.45626 1.66498 7.41781 1.63218 7.41781C1.58695 7.41781 1.55141 7.48987 1.55141 7.58195L1.48291 14.9459C1.48291 15.0239 1.49778 15.0967 1.52508 15.1515C1.55189 15.2058 1.58743 15.2354 1.62491 15.2354Z" fill="url(#paint18_linear_580_1668)"/>
<path d="M1.65649 7.56047L2.37812 12.9389C2.3828 12.9612 2.38506 12.9851 2.38506 13.0094L2.38506 14.9488C2.38506 15.0388 2.35259 15.115 2.30897 15.1279L1.63742 15.125C1.58379 15.141 1.53564 15.0562 1.53564 14.9459L1.60414 7.58196C1.6043 7.5217 1.64502 7.50506 1.65649 7.56047Z" fill="black"/>
<path d="M1.63007 15.0176L2.30162 15.0205C2.31907 15.0155 2.33216 14.9846 2.33216 14.9488L2.33216 13.0092C2.33216 12.9995 2.33118 12.9902 2.32941 12.9813L1.65785 7.84432L1.58936 14.9459C1.58936 14.9654 1.59307 14.9837 1.59986 14.9974C1.60664 15.011 1.61553 15.0184 1.6249 15.0184L1.63007 15.0176Z" fill="#676B86"/>
<path opacity="0.2" d="M1.85138 14.9515L1.63023 15.0173L1.62489 15.0181C1.61552 15.0181 1.60664 15.0106 1.59985 14.9971C1.59307 14.9833 1.58936 14.9651 1.58936 14.9455L1.65785 7.84398L1.77287 10.2979L1.85138 14.9515Z" fill="black"/>
<path opacity="0.5" d="M1.63007 15.0176L2.30162 15.0205C2.31907 15.0155 2.33216 14.9846 2.33216 14.9488L2.33216 13.0092C2.33216 12.9995 2.33118 12.9902 2.32941 12.9813L1.65785 7.84432L1.58936 14.9459C1.58936 14.9654 1.59307 14.9837 1.59986 14.9974C1.60664 15.011 1.61553 15.0184 1.6249 15.0184L1.63007 15.0176Z" fill="url(#paint19_linear_580_1668)"/>
<path opacity="0.3" d="M1.63007 15.0176L2.30162 15.0205C2.31907 15.0155 2.33216 14.9846 2.33216 14.9488L2.33216 13.0092C2.33216 12.9995 2.33118 12.9902 2.32941 12.9813L1.65785 7.84432L1.58936 14.9459C1.58936 14.9654 1.59307 14.9837 1.59986 14.9974C1.60664 15.011 1.61553 15.0184 1.6249 15.0184L1.63007 15.0176Z" fill="url(#paint20_linear_580_1668)"/>
<path d="M16.29 15.2344C16.2832 15.2344 16.2762 15.2332 16.2693 15.2315L15.5977 15.2344C15.5284 15.2139 15.4761 15.0906 15.4761 14.9478L15.4761 13.0082C15.4761 12.9693 15.4798 12.9313 15.4874 12.8955L16.209 7.51716C16.2219 7.45528 16.25 7.41684 16.2828 7.41684C16.3281 7.41684 16.3636 7.48889 16.3636 7.58097L16.4321 14.9449C16.4321 15.0229 16.4173 15.0958 16.3901 15.1505C16.363 15.2048 16.3274 15.2344 16.29 15.2344Z" fill="#F4F4F4"/>
<path opacity="0.5" d="M16.29 15.2344C16.2832 15.2344 16.2762 15.2332 16.2693 15.2315L15.5977 15.2344C15.5284 15.2139 15.4761 15.0906 15.4761 14.9478L15.4761 13.0082C15.4761 12.9693 15.4798 12.9313 15.4874 12.8955L16.209 7.51716C16.2219 7.45528 16.25 7.41684 16.2828 7.41684C16.3281 7.41684 16.3636 7.48889 16.3636 7.58097L16.4321 14.9449C16.4321 15.0229 16.4173 15.0958 16.3901 15.1505C16.363 15.2048 16.3274 15.2344 16.29 15.2344Z" fill="url(#paint21_linear_580_1668)"/>
<path d="M16.2584 7.5595L15.5367 12.938C15.532 12.9603 15.5298 12.9842 15.5298 13.0084L15.5298 14.9478C15.5298 15.0378 15.5621 15.114 15.6059 15.127L16.2774 15.124C16.3311 15.14 16.3792 15.0552 16.3792 14.9449L16.3107 7.58098C16.3105 7.52073 16.27 7.50409 16.2584 7.5595Z" fill="black"/>
<path d="M16.2846 15.0166L15.6131 15.0195C15.5956 15.0145 15.5825 14.9837 15.5825 14.9478L15.5825 13.0082C15.5825 12.9986 15.5835 12.9892 15.5853 12.9803L16.2568 7.84335L16.3253 14.9449C16.3253 14.9644 16.3216 14.9827 16.3148 14.9964C16.308 15.01 16.2991 15.0174 16.2898 15.0174L16.2846 15.0166Z" fill="#676B86"/>
<path opacity="0.2" d="M16.0635 14.951L16.2846 15.0168L16.29 15.0176C16.2993 15.0176 16.3082 15.0101 16.315 14.9966C16.3218 14.9828 16.3255 14.9646 16.3255 14.945L16.257 7.84349L16.142 10.2974L16.0635 14.951Z" fill="black"/>
<path opacity="0.5" d="M16.2846 15.0166L15.6131 15.0195C15.5956 15.0145 15.5825 14.9837 15.5825 14.9478L15.5825 13.0082C15.5825 12.9986 15.5835 12.9892 15.5853 12.9803L16.2568 7.84335L16.3253 14.9449C16.3253 14.9644 16.3216 14.9827 16.3148 14.9964C16.308 15.01 16.2991 15.0174 16.2898 15.0174L16.2846 15.0166Z" fill="url(#paint22_linear_580_1668)"/>
<path opacity="0.3" d="M16.2846 15.0166L15.6131 15.0195C15.5956 15.0145 15.5825 14.9837 15.5825 14.9478L15.5825 13.0082C15.5825 12.9986 15.5835 12.9892 15.5853 12.9803L16.2568 7.84335L16.3253 14.9449C16.3253 14.9644 16.3216 14.9827 16.3148 14.9964C16.308 15.01 16.2991 15.0174 16.2898 15.0174L16.2846 15.0166Z" fill="url(#paint23_linear_580_1668)"/>
<path d="M1.63212 8.36849L0 8.99756L3.63133e-09 8.69304C5.3401e-09 8.54975 0.0882041 8.42115 0.221966 8.36962L1.63212 7.82601L1.63212 8.36849Z" fill="#999999"/>
<path opacity="0.4" d="M1.63212 8.40609L0 9.03516L3.63133e-09 8.73064C5.3401e-09 8.58734 0.0882041 8.45875 0.221966 8.40705L1.63212 7.86344L1.63212 8.40609Z" fill="url(#paint24_linear_580_1668)"/>
<path d="M1.1646 8.79506L0.134408 9.1306C0.0680119 9.15225 3.92652e-10 9.10282 1.22488e-09 9.03303L5.69234e-09 8.65839L1.23568 8.25597L1.23568 8.69733C1.23552 8.74175 1.20676 8.78117 1.1646 8.79506Z" fill="#666666"/>
<path opacity="0.3" d="M1.1646 8.79506L0.134408 9.1306C0.0680119 9.15225 3.92652e-10 9.10282 1.22488e-09 9.03303L5.69234e-09 8.65839L1.23568 8.25597L1.23568 8.69733C1.23552 8.74175 1.20676 8.78117 1.1646 8.79506Z" fill="url(#paint25_linear_580_1668)"/>
<path d="M16.2979 8.36849L17.93 8.99756L17.93 8.69304C17.93 8.54975 17.8418 8.42115 17.708 8.36962L16.2979 7.82601L16.2979 8.36849Z" fill="#999999"/>
<path opacity="0.4" d="M16.2979 8.40609L17.93 9.03516L17.93 8.73064C17.93 8.58734 17.8418 8.45875 17.708 8.40705L16.2979 7.86344L16.2979 8.40609Z" fill="url(#paint26_linear_580_1668)"/>
<path d="M16.7653 8.79506L17.7954 9.1306C17.8618 9.15225 17.93 9.10282 17.93 9.03303L17.93 8.65839L16.6943 8.25597L16.6943 8.69733C16.6945 8.74175 16.7231 8.78117 16.7653 8.79506Z" fill="#666666"/>
<path opacity="0.3" d="M16.7653 8.79506L17.7954 9.1306C17.8618 9.15225 17.93 9.10282 17.93 9.03303L17.93 8.65839L16.6943 8.25597L16.6943 8.69733C16.6945 8.74175 16.7231 8.78117 16.7653 8.79506Z" fill="url(#paint27_linear_580_1668)"/>
<path opacity="0.7" d="M13.0797 14.9321L4.31006 14.9321L4.63267 13.8539L13.4023 13.8539L13.0797 14.9321Z" fill="url(#paint28_linear_580_1668)"/>
<path d="M13.2364 14.6665L4.63724 14.6665C4.37618 14.6665 4.16455 14.4549 4.16455 14.1938L4.16455 13.6911C4.16455 13.43 4.37618 13.2184 4.63724 13.2184L13.2364 13.2184C13.4975 13.2184 13.7091 13.43 13.7091 13.6911L13.7091 14.1938C13.7091 14.4549 13.4975 14.6665 13.2364 14.6665Z" fill="#999999"/>
<path d="M13.2361 13.2185L9.99805 13.2185L9.99805 14.6665L13.2361 14.6665C13.4972 14.6665 13.7088 14.4549 13.7088 14.1938L13.7088 13.6911C13.7088 13.4302 13.4972 13.2185 13.2361 13.2185Z" fill="#5D94FF"/>
<path opacity="0.5" d="M10.3433 14.3218L10.3433 13.5628L13.2368 13.5628C13.3072 13.5628 13.3647 13.6203 13.3647 13.6911L13.3647 14.1935C13.3647 14.2643 13.3073 14.3218 13.2368 14.3218L10.3433 14.3218Z" fill="#5384E4"/>
<path d="M4.63724 13.2185L7.87531 13.2185L7.87531 14.6665L4.63724 14.6665C4.37618 14.6665 4.16455 14.4549 4.16455 14.1938L4.16455 13.6911C4.16455 13.4302 4.37618 13.2185 4.63724 13.2185Z" fill="#CC0000"/>
<path opacity="0.3" d="M4.63738 14.3218C4.56679 14.3218 4.50928 14.2643 4.50928 14.1935L4.50928 13.6911C4.50928 13.6203 4.56663 13.5628 4.63738 13.5628L7.53088 13.5628L7.53088 14.3218L4.63738 14.3218Z" fill="#660000"/>
<path opacity="0.5" d="M13.2364 14.6665L4.63724 14.6665C4.37618 14.6665 4.16455 14.4549 4.16455 14.1938L4.16455 13.6911C4.16455 13.43 4.37618 13.2184 4.63724 13.2184L13.2364 13.2184C13.4975 13.2184 13.7091 13.43 13.7091 13.6911L13.7091 14.1938C13.7091 14.4549 13.4975 14.6665 13.2364 14.6665Z" fill="url(#paint29_radial_580_1668)"/>
<path opacity="0.5" d="M13.2364 14.6665L4.63724 14.6665C4.37618 14.6665 4.16455 14.4549 4.16455 14.1938L4.16455 13.6911C4.16455 13.43 4.37618 13.2184 4.63724 13.2184L13.2364 13.2184C13.4975 13.2184 13.7091 13.43 13.7091 13.6911L13.7091 14.1938C13.7091 14.4549 13.4975 14.6665 13.2364 14.6665Z" fill="url(#paint30_linear_580_1668)"/>
<path d="M13.0629 13.3385L4.81089 13.3385C4.56033 13.3385 4.35742 13.5241 4.35742 13.753L4.35742 13.9419C4.35742 13.713 4.56049 13.5274 4.81089 13.5274L13.0629 13.5274C13.3133 13.5274 13.5164 13.713 13.5164 13.9419L13.5164 13.753C13.5164 13.5241 13.3133 13.3385 13.0629 13.3385Z" fill="url(#paint31_linear_580_1668)"/>
<path d="M13.0629 14.5459L4.81089 14.5459C4.56033 14.5459 4.35742 14.3603 4.35742 14.1314L4.35742 13.9425C4.35742 14.1714 4.56049 14.357 4.81089 14.357L13.0629 14.357C13.3133 14.357 13.5164 14.1714 13.5164 13.9425L13.5164 14.1314C13.5164 14.3604 13.3133 14.5459 13.0629 14.5459Z" fill="url(#paint32_linear_580_1668)"/>
<path opacity="0.4" d="M4.37402 13.2993L4.49308 13.4411C4.53379 13.4894 4.559 13.582 4.55916 13.6825L4.55965 14.2022C4.55981 14.303 4.53444 14.396 4.49357 14.4445L4.37402 14.5868C4.40666 14.6086 4.44284 14.6249 4.48048 14.6382L4.56126 14.5421C4.60407 14.491 4.63073 14.3934 4.63056 14.2875L4.63008 13.6004C4.62992 13.4952 4.60359 13.3983 4.5611 13.3474L4.47855 13.2484C4.44171 13.2615 4.40601 13.2776 4.37402 13.2993Z" fill="white"/>
<path opacity="0.4" d="M13.4929 13.2993L13.3738 13.4411C13.3331 13.4894 13.3079 13.582 13.3077 13.6825L13.3072 14.2022C13.3072 14.303 13.3325 14.396 13.3733 14.4445L13.4929 14.5868C13.4602 14.6086 13.4241 14.6249 13.3864 14.6382L13.3056 14.5421C13.2628 14.491 13.2362 14.3934 13.2363 14.2875L13.237 13.6004C13.237 13.4952 13.2635 13.3983 13.306 13.3474L13.3885 13.2484C13.4253 13.2615 13.4609 13.2776 13.4929 13.2993Z" fill="white"/>
<path opacity="0.4" d="M4.854 13.9079L4.854 13.9775L13.0199 13.9775L13.0199 13.9079L4.854 13.9079Z" fill="black"/>
<path d="M17.1392 39.6597L0.735616 39.6597C0.539335 39.6597 0.380371 39.5005 0.380371 39.3043L0.380371 15.8848C0.380371 15.6885 0.539497 15.5294 0.735617 15.5294L17.1392 15.5294C17.3355 15.5294 17.4946 15.6885 17.4946 15.8848L17.4946 39.3043C17.4946 39.5005 17.3355 39.6597 17.1392 39.6597Z" fill="#CC3300"/>
<path d="M0.735471 39.4189C0.672467 39.4189 0.621094 39.3676 0.621094 39.3047L0.621094 15.8852C0.621094 15.8224 0.672468 15.771 0.735471 15.771L17.1389 15.771C17.2019 15.771 17.2531 15.8224 17.2531 15.8852L17.2531 39.3047C17.2531 39.3676 17.2017 39.4189 17.1389 39.4189L0.735471 39.4189Z" fill="#F5F7EA"/>
<path d="M0.735471 39.4189C0.672467 39.4189 0.621094 39.3676 0.621094 39.3047L0.621094 15.8852C0.621094 15.8224 0.672468 15.771 0.735471 15.771L17.1389 15.771C17.2019 15.771 17.2531 15.8224 17.2531 15.8852L17.2531 39.3047C17.2531 39.3676 17.2017 39.4189 17.1389 39.4189L0.735471 39.4189Z" fill="url(#paint33_radial_580_1668)"/>
<path opacity="0.2" d="M0.735471 39.4189C0.672467 39.4189 0.621094 39.3676 0.621094 39.3047L0.621094 15.8852C0.621094 15.8224 0.672468 15.771 0.735471 15.771L17.1389 15.771C17.2019 15.771 17.2531 15.8224 17.2531 15.8852L17.2531 39.3047C17.2531 39.3676 17.2017 39.4189 17.1389 39.4189L0.735471 39.4189Z" fill="#FF8282"/>
<path d="M3.00709 39.781L3.00709 39.6597L1.34961 39.6597L1.34961 39.781C1.34961 39.917 1.45995 40.0273 1.59613 40.0273L2.76073 40.0273C2.89675 40.0273 3.00709 39.917 3.00709 39.781Z" fill="#EF0C0C"/>
<path opacity="0.4" d="M2.82027 39.7009L1.53613 39.7009C1.53613 39.8582 1.66375 39.9858 1.8211 39.9858L2.53531 39.9858C2.69266 39.9858 2.82027 39.8582 2.82027 39.7009Z" fill="#660000"/>
<path d="M1.45117 39.6832L1.45909 39.6832C1.49091 39.828 1.61951 39.9364 1.77378 39.9364L2.58233 39.9364C2.73661 39.9364 2.8652 39.828 2.89703 39.6832L2.90495 39.6832C2.90495 39.8614 2.76052 40.0059 2.58233 40.0059L1.77378 40.0059C1.5956 40.0059 1.45117 39.8614 1.45117 39.6832Z" fill="url(#paint34_linear_580_1668)"/>
<path opacity="0.6" d="M2.45841 39.8383C2.30478 39.8393 2.15098 39.8402 1.99735 39.8414C1.92918 39.8418 1.85487 39.8481 1.7875 39.8347C1.7602 39.8292 1.70689 39.8186 1.7056 39.7826C1.7043 39.7472 1.74663 39.7417 1.77329 39.7415C1.84937 39.7415 2.71624 39.736 2.71624 39.7504C2.71592 39.7834 2.68959 39.8116 2.65905 39.8244C2.62852 39.8372 2.5946 39.8375 2.56164 39.8378C2.52723 39.8378 2.49282 39.8381 2.45841 39.8383Z" fill="url(#paint35_linear_580_1668)"/>
<path d="M16.1873 39.781L16.1873 39.6597L14.5298 39.6597L14.5298 39.781C14.5298 39.917 14.6401 40.0273 14.7762 40.0273L15.9407 40.0273C16.0768 40.0273 16.1873 39.917 16.1873 39.781Z" fill="#EF0C0C"/>
<path opacity="0.4" d="M16.0003 39.7009L14.7163 39.7009C14.7163 39.8582 14.8439 39.9858 15.0013 39.9858L15.7155 39.9858C15.8727 39.9858 16.0003 39.8582 16.0003 39.7009Z" fill="#660000"/>
<path d="M14.6318 39.6823L14.6398 39.6823C14.6716 39.827 14.8002 39.9354 14.9544 39.9354L15.763 39.9354C15.9173 39.9354 16.0459 39.827 16.0777 39.6823L16.0856 39.6823C16.0856 39.8605 15.9412 40.0049 15.763 40.0049L14.9544 40.0049C14.7763 40.0049 14.6318 39.8605 14.6318 39.6823Z" fill="url(#paint36_linear_580_1668)"/>
<path opacity="0.6" d="M15.6386 39.8383C15.485 39.8393 15.3312 39.8402 15.1775 39.8414C15.1094 39.8418 15.035 39.8481 14.9677 39.8347C14.9404 39.8292 14.8871 39.8186 14.8858 39.7826C14.8845 39.7472 14.9268 39.7417 14.9535 39.7415C15.0295 39.7415 15.8964 39.736 15.8964 39.7504C15.8961 39.7834 15.8698 39.8116 15.8392 39.8244C15.8087 39.8372 15.7748 39.8375 15.7418 39.8378C15.7072 39.8378 15.6728 39.8381 15.6386 39.8383Z" fill="url(#paint37_linear_580_1668)"/>
<path d="M7.87434 24.2701L7.87434 26.3561C7.87434 26.4529 7.79596 26.5315 7.69916 26.5315L5.61316 26.5315C5.51636 26.5315 5.43799 26.6099 5.43799 26.7067L5.43799 28.4834C5.43799 28.5802 5.51636 28.6588 5.61316 28.6588L7.69916 28.6588C7.79596 28.6588 7.87434 28.7372 7.87434 28.834L7.87434 30.92C7.87434 31.0168 7.95272 31.0952 8.04977 31.0952L9.82647 31.0952C9.92326 31.0952 10.0016 31.0168 10.0016 30.92L10.0016 28.834C10.0016 28.7372 10.08 28.6588 10.1771 28.6588L12.2628 28.6588C12.3596 28.6588 12.438 28.5805 12.438 28.4834L12.438 26.7067C12.438 26.6099 12.3596 26.5315 12.2628 26.5315L10.1771 26.5315C10.0803 26.5315 10.0016 26.4531 10.0016 26.3561L10.0016 24.2701C10.0016 24.1733 9.92326 24.0949 9.82647 24.0949L8.04977 24.0949C7.95272 24.0949 7.87434 24.1733 7.87434 24.2701Z" fill="#CC3300"/>
<path d="M14.1228 39.6597L3.38184 39.6597L3.38184 39.9823L14.1228 39.9823L14.1228 39.6597Z" fill="#F5F7EA"/>
<path opacity="0.5" d="M14.1224 39.9824L3.38135 39.9824L3.38135 39.6598L14.1224 39.6598L14.1224 39.9824Z" fill="url(#paint38_linear_580_1668)"/>
<path opacity="0.5" d="M8.79461 39.6597L8.70947 39.6597L8.70947 39.9823L8.79461 39.9823L8.79461 39.6597Z" fill="#666666"/>
<path d="M8.43074 39.8703L3.62258 39.8703C3.56426 39.8703 3.51709 39.9175 3.51709 39.9758L3.51709 39.9819L8.53623 39.9819L8.53623 39.9758C8.53623 39.9175 8.48905 39.8703 8.43074 39.8703Z" fill="#AAD5F9"/>
<path d="M8.43074 39.8703L3.62258 39.8703C3.56426 39.8703 3.51709 39.9175 3.51709 39.9758L3.51709 39.9819L3.53115 39.9819C3.54908 39.9491 3.58251 39.926 3.62258 39.926L8.43074 39.926C8.47064 39.926 8.50424 39.9491 8.52217 39.9819L8.53623 39.9819L8.53623 39.9758C8.53623 39.9175 8.48905 39.8703 8.43074 39.8703Z" fill="white"/>
<path d="M13.8883 39.8708L9.0801 39.8708C9.02178 39.8708 8.97461 39.918 8.97461 39.9763L8.97461 39.9824L13.9937 39.9824L13.9937 39.9763C13.9936 39.918 13.9464 39.8708 13.8883 39.8708Z" fill="#AAD5F9"/>
<path d="M13.8883 39.8708L9.0801 39.8708C9.02178 39.8708 8.97461 39.918 8.97461 39.9763L8.97461 39.9824L8.98866 39.9824C9.0066 39.9496 9.04004 39.9265 9.0801 39.9265L13.8883 39.9265C13.9282 39.9265 13.9618 39.9496 13.9797 39.9824L13.9937 39.9824L13.9937 39.9763C13.9936 39.918 13.9464 39.8708 13.8883 39.8708Z" fill="white"/>
<path d="M17.4939 15.771L17.4939 9.86135C17.4939 9.68688 17.4246 9.51968 17.3013 9.39625L16.7251 8.82001L16.7251 15.771L17.4939 15.771Z" fill="#CCCCCC"/>
<path d="M17.3732 15.6499L16.8452 15.6499L16.8452 9.11038L17.2158 9.48081C17.3173 9.58227 17.3732 9.71716 17.3732 9.86062L17.3732 15.6499Z" fill="url(#paint39_linear_580_1668)"/>
<path opacity="0.5" d="M17.4939 15.771L17.4939 9.86135C17.4939 9.68688 17.4246 9.51968 17.3013 9.39625L16.7251 8.82001L16.7251 15.771L17.4939 15.771Z" fill="url(#paint40_linear_580_1668)"/>
<path opacity="0.4" d="M17.4939 15.771L17.4939 9.86135C17.4939 9.68688 17.4246 9.51968 17.3013 9.39625L16.7251 8.82001L16.7251 15.771L17.4939 15.771Z" fill="url(#paint41_linear_580_1668)"/>
<mask id="mask1_580_1668" style="mask-type:luminance" maskUnits="userSpaceOnUse" x="16" y="9" width="2" height="7">
<path d="M17.3732 15.6499L16.8452 15.6499L16.8452 9.11038L17.2158 9.48081C17.3173 9.58227 17.3732 9.71716 17.3732 9.86062L17.3732 15.6499Z" fill="white"/>
</mask>
<g mask="url(#mask1_580_1668)">
<path d="M16.9648 15.5986C17.0105 15.5731 17.0567 15.5686 17.0567 15.5686C17.0567 15.5686 17.0288 15.6056 16.983 15.6311C16.9373 15.6566 16.8911 15.6611 16.8911 15.6611C16.8911 15.6611 16.9191 15.6241 16.9648 15.5986Z" fill="#999999"/>
<path d="M17.3268 15.3896C17.3725 15.3641 17.4185 15.3596 17.4185 15.3596C17.4185 15.3596 17.3906 15.3966 17.3449 15.4221C17.2991 15.4476 17.2529 15.4521 17.2529 15.4521C17.2529 15.4521 17.281 15.4151 17.3268 15.3896Z" fill="#999999"/>
<path d="M17.1394 15.5189C17.1139 15.4732 17.1094 15.4272 17.1094 15.4272C17.1094 15.4272 17.1464 15.4551 17.1719 15.5009C17.1974 15.5466 17.2019 15.5928 17.2019 15.5928C17.2019 15.5928 17.1649 15.5647 17.1394 15.5189Z" fill="#999999"/>
<path d="M16.9124 15.3912C16.8868 15.3455 16.8823 15.2993 16.8823 15.2993C16.8823 15.2993 16.9193 15.3272 16.9448 15.3729C16.9704 15.4186 16.9749 15.4648 16.9749 15.4648C16.9749 15.4648 16.9379 15.4369 16.9124 15.3912Z" fill="#999999"/>
<path d="M17.274 15.183C17.2485 15.1373 17.2441 15.0912 17.2441 15.0912C17.2441 15.0912 17.2811 15.1192 17.3067 15.1649C17.3322 15.2106 17.3365 15.2568 17.3365 15.2568C17.3365 15.2568 17.2996 15.2287 17.274 15.183Z" fill="#999999"/>
<path d="M17.1198 15.2927C17.074 15.3182 17.0278 15.3228 17.0278 15.3228C17.0278 15.3228 17.0558 15.2858 17.1015 15.2602C17.1472 15.2347 17.1933 15.2302 17.1933 15.2302C17.1933 15.2302 17.1653 15.2672 17.1198 15.2927Z" fill="#999999"/>
<path d="M16.8412 15.1118C16.887 15.0863 16.9332 15.0819 16.9332 15.0819C16.9332 15.0819 16.9052 15.1189 16.8595 15.1444C16.8138 15.17 16.7676 15.1743 16.7676 15.1743C16.7676 15.1743 16.7955 15.1373 16.8412 15.1118Z" fill="#999999"/>
<path d="M17.2031 14.9038C17.2488 14.8783 17.295 14.8739 17.295 14.8739C17.295 14.8739 17.267 14.9109 17.2213 14.9364C17.1756 14.9619 17.1294 14.9663 17.1294 14.9663C17.1294 14.9663 17.1573 14.9293 17.2031 14.9038Z" fill="#999999"/>
<path d="M17.0159 15.0315C16.9904 14.9858 16.9858 14.9396 16.9858 14.9396C16.9858 14.9396 17.0228 14.9675 17.0484 15.0132C17.0739 15.0589 17.0784 15.105 17.0784 15.105C17.0784 15.105 17.0414 15.0772 17.0159 15.0315Z" fill="#999999"/>
<path d="M16.7888 14.9044C16.7633 14.8586 16.7588 14.8124 16.7588 14.8124C16.7588 14.8124 16.7958 14.8404 16.8213 14.8861C16.8468 14.9318 16.8514 14.978 16.8514 14.978C16.8514 14.978 16.8144 14.9501 16.7888 14.9044Z" fill="#999999"/>
<path d="M17.1507 14.6965C17.1251 14.6508 17.1206 14.6046 17.1206 14.6046C17.1206 14.6046 17.1576 14.6325 17.1831 14.6783C17.2086 14.724 17.213 14.77 17.213 14.77C17.213 14.77 17.1762 14.7422 17.1507 14.6965Z" fill="#999999"/>
<path d="M16.9962 14.8061C16.9505 14.8316 16.9043 14.8359 16.9043 14.8359C16.9043 14.8359 16.9322 14.7989 16.978 14.7734C17.0237 14.7479 17.0699 14.7435 17.0699 14.7435C17.0699 14.7435 17.0419 14.7805 16.9962 14.8061Z" fill="#999999"/>
<path d="M17.3449 14.6208C17.2991 14.6464 17.2529 14.6509 17.2529 14.6509C17.2529 14.6509 17.2809 14.6139 17.3266 14.5884C17.3723 14.5628 17.4184 14.5583 17.4184 14.5583C17.4184 14.5583 17.3906 14.5953 17.3449 14.6208Z" fill="#999999"/>
<path d="M16.878 14.5795C16.8525 14.5338 16.8481 14.4877 16.8481 14.4877C16.8481 14.4877 16.8851 14.5157 16.9107 14.5614C16.9362 14.6071 16.9407 14.6533 16.9407 14.6533C16.9407 14.6533 16.9037 14.6252 16.878 14.5795Z" fill="#999999"/>
<path d="M17.2399 14.3716C17.2143 14.3259 17.21 14.2797 17.21 14.2797C17.21 14.2797 17.247 14.3077 17.2725 14.3534C17.298 14.3991 17.3024 14.4453 17.3024 14.4453C17.3024 14.4453 17.2654 14.4174 17.2399 14.3716Z" fill="#999999"/>
<path d="M17.0846 14.4818C17.0389 14.5074 16.9927 14.5117 16.9927 14.5117C16.9927 14.5117 17.0206 14.4747 17.0663 14.4492C17.1121 14.4237 17.1583 14.4193 17.1583 14.4193C17.1583 14.4193 17.1303 14.4563 17.0846 14.4818Z" fill="#999999"/>
<path d="M16.8077 14.2999C16.8534 14.2744 16.8995 14.2699 16.8995 14.2699C16.8995 14.2699 16.8715 14.3069 16.8258 14.3324C16.7801 14.3579 16.7339 14.3623 16.7339 14.3623C16.7339 14.3623 16.762 14.3255 16.8077 14.2999Z" fill="#999999"/>
<path d="M17.1695 14.0923C17.2152 14.0667 17.2613 14.0622 17.2613 14.0622C17.2613 14.0622 17.2333 14.0992 17.1876 14.1247C17.1419 14.1503 17.0957 14.1548 17.0957 14.1548C17.0957 14.1548 17.1238 14.1178 17.1695 14.0923Z" fill="#999999"/>
<path d="M16.9827 14.2203C16.9572 14.1746 16.9526 14.1284 16.9526 14.1284C16.9526 14.1284 16.9896 14.1563 17.0152 14.202C17.0407 14.2477 17.0452 14.2939 17.0452 14.2939C17.0452 14.2939 17.0082 14.266 16.9827 14.2203Z" fill="#999999"/>
<path d="M17.1168 13.8843C17.0913 13.8386 17.0869 13.7924 17.0869 13.7924C17.0869 13.7924 17.1239 13.8204 17.1494 13.8661C17.175 13.9118 17.1793 13.958 17.1793 13.958C17.1793 13.958 17.1425 13.9301 17.1168 13.8843Z" fill="#999999"/>
<path d="M16.962 13.9939C16.9163 14.0194 16.8701 14.0239 16.8701 14.0239C16.8701 14.0239 16.8981 13.9869 16.9438 13.9614C16.9895 13.9359 17.0357 13.9314 17.0357 13.9314C17.0357 13.9314 17.0078 13.9684 16.962 13.9939Z" fill="#999999"/>
<path d="M17.3112 13.8088C17.2654 13.8343 17.2192 13.8389 17.2192 13.8389C17.2192 13.8389 17.2472 13.8019 17.2929 13.7763C17.3386 13.7508 17.3848 13.7465 17.3848 13.7465C17.3848 13.7465 17.3569 13.7833 17.3112 13.8088Z" fill="#999999"/>
<path d="M16.8775 13.7647C16.852 13.719 16.8477 13.6728 16.8477 13.6728C16.8477 13.6728 16.8846 13.7007 16.9102 13.7465C16.9357 13.7922 16.9402 13.8384 16.9402 13.8384C16.9402 13.8384 16.9032 13.8104 16.8775 13.7647Z" fill="#999999"/>
<path d="M17.2394 13.5565C17.2138 13.5108 17.2095 13.4648 17.2095 13.4648C17.2095 13.4648 17.2465 13.4927 17.272 13.5384C17.2975 13.5842 17.3019 13.6304 17.3019 13.6304C17.3019 13.6304 17.2649 13.6023 17.2394 13.5565Z" fill="#999999"/>
<path d="M17.0841 13.6664C17.0384 13.6919 16.9922 13.6963 16.9922 13.6963C16.9922 13.6963 17.0201 13.6593 17.0659 13.6338C17.1116 13.6082 17.1578 13.6039 17.1578 13.6039C17.1578 13.6039 17.1298 13.6409 17.0841 13.6664Z" fill="#999999"/>
<path d="M16.8072 13.4847C16.8529 13.4592 16.899 13.4548 16.899 13.4548C16.899 13.4548 16.871 13.4918 16.8253 13.5173C16.7796 13.5428 16.7334 13.5474 16.7334 13.5474C16.7334 13.5474 16.7615 13.5102 16.8072 13.4847Z" fill="#999999"/>
<path d="M17.1685 13.2768C17.2143 13.2513 17.2603 13.2468 17.2603 13.2468C17.2603 13.2468 17.2324 13.2838 17.1866 13.3093C17.1409 13.3348 17.0947 13.3394 17.0947 13.3394C17.0947 13.3394 17.1228 13.3024 17.1685 13.2768Z" fill="#999999"/>
<path d="M16.9817 13.4048C16.9562 13.3591 16.9517 13.3129 16.9517 13.3129C16.9517 13.3129 16.9887 13.3409 17.0142 13.3866C17.0397 13.4323 17.0442 13.4785 17.0442 13.4785C17.0442 13.4785 17.0072 13.4506 16.9817 13.4048Z" fill="#999999"/>
<path d="M17.1163 13.0691C17.0908 13.0234 17.0864 12.9772 17.0864 12.9772C17.0864 12.9772 17.1234 13.0051 17.1489 13.0508C17.1745 13.0965 17.1788 13.1426 17.1788 13.1426C17.1788 13.1426 17.142 13.1148 17.1163 13.0691Z" fill="#999999"/>
<path d="M16.962 13.1789C16.9163 13.2045 16.8701 13.209 16.8701 13.209C16.8701 13.209 16.8981 13.172 16.9438 13.1465C16.9895 13.1209 17.0357 13.1164 17.0357 13.1164C17.0357 13.1164 17.0078 13.1534 16.962 13.1789Z" fill="#999999"/>
<path d="M17.3107 12.9936C17.265 13.0191 17.2188 13.0234 17.2188 13.0234C17.2188 13.0234 17.2467 12.9864 17.2924 12.9609C17.3381 12.9354 17.3843 12.931 17.3843 12.931C17.3843 12.931 17.3564 12.968 17.3107 12.9936Z" fill="#999999"/>
<path d="M16.878 12.9504C16.8525 12.9047 16.8481 12.8585 16.8481 12.8585C16.8481 12.8585 16.8851 12.8864 16.9107 12.9322C16.9362 12.9779 16.9407 13.0239 16.9407 13.0239C16.9407 13.0239 16.9037 12.9961 16.878 12.9504Z" fill="#999999"/>
<path d="M17.2399 12.7423C17.2143 12.6965 17.21 12.6503 17.21 12.6503C17.21 12.6503 17.247 12.6783 17.2725 12.724C17.298 12.7697 17.3024 12.8159 17.3024 12.8159C17.3024 12.8159 17.2654 12.788 17.2399 12.7423Z" fill="#999999"/>
<path d="M17.0851 12.8518C17.0394 12.8773 16.9932 12.8818 16.9932 12.8818C16.9932 12.8818 17.0211 12.8448 17.0668 12.8193C17.1125 12.7938 17.1587 12.7894 17.1587 12.7894C17.1587 12.7894 17.1308 12.8263 17.0851 12.8518Z" fill="#999999"/>
<path d="M16.8077 12.6709C16.8534 12.6454 16.8995 12.641 16.8995 12.641C16.8995 12.641 16.8715 12.678 16.8258 12.7035C16.7801 12.729 16.7339 12.7334 16.7339 12.7334C16.7339 12.7334 16.762 12.6964 16.8077 12.6709Z" fill="#999999"/>
<path d="M17.1695 12.4627C17.2152 12.4372 17.2613 12.4328 17.2613 12.4328C17.2613 12.4328 17.2333 12.4698 17.1876 12.4953C17.1419 12.5209 17.0957 12.5254 17.0957 12.5254C17.0957 12.5254 17.1238 12.4882 17.1695 12.4627Z" fill="#999999"/>
<path d="M16.9827 12.5912C16.9572 12.5455 16.9526 12.4995 16.9526 12.4995C16.9526 12.4995 16.9896 12.5274 17.0152 12.5731C17.0407 12.6188 17.0452 12.665 17.0452 12.665C17.0452 12.665 17.0082 12.6369 16.9827 12.5912Z" fill="#999999"/>
<path d="M17.1163 12.2545C17.0908 12.2087 17.0864 12.1625 17.0864 12.1625C17.0864 12.1625 17.1234 12.1905 17.1489 12.2362C17.1745 12.2819 17.1788 12.3281 17.1788 12.3281C17.1788 12.3281 17.142 12.3002 17.1163 12.2545Z" fill="#999999"/>
<path d="M16.962 12.3645C16.9163 12.39 16.8701 12.3945 16.8701 12.3945C16.8701 12.3945 16.8981 12.3575 16.9438 12.332C16.9895 12.3065 17.0357 12.302 17.0357 12.302C17.0357 12.302 17.0078 12.339 16.962 12.3645Z" fill="#999999"/>
<path d="M17.3107 12.1791C17.265 12.2046 17.2188 12.209 17.2188 12.209C17.2188 12.209 17.2467 12.172 17.2924 12.1465C17.3381 12.1209 17.3843 12.1166 17.3843 12.1166C17.3843 12.1166 17.3564 12.1534 17.3107 12.1791Z" fill="#999999"/>
<path d="M16.8775 12.1358C16.852 12.0901 16.8477 12.0439 16.8477 12.0439C16.8477 12.0439 16.8846 12.0718 16.9102 12.1176C16.9357 12.1633 16.9402 12.2095 16.9402 12.2095C16.9402 12.2095 16.9032 12.1815 16.8775 12.1358Z" fill="#999999"/>
<path d="M17.2394 11.928C17.2138 11.8822 17.2095 11.836 17.2095 11.836C17.2095 11.836 17.2465 11.864 17.272 11.9097C17.2975 11.9554 17.3019 12.0015 17.3019 12.0015C17.3019 12.0015 17.2649 11.9737 17.2394 11.928Z" fill="#999999"/>
<path d="M17.0841 12.0378C17.0384 12.0633 16.9922 12.0679 16.9922 12.0679C16.9922 12.0679 17.0201 12.0309 17.0659 12.0054C17.1116 11.9798 17.1578 11.9755 17.1578 11.9755C17.1578 11.9755 17.1298 12.0123 17.0841 12.0378Z" fill="#999999"/>
<path d="M16.8072 11.8564C16.8529 11.8309 16.899 11.8265 16.899 11.8265C16.899 11.8265 16.871 11.8635 16.8253 11.8891C16.7796 11.9146 16.7334 11.9189 16.7334 11.9189C16.7334 11.9189 16.7615 11.882 16.8072 11.8564Z" fill="#999999"/>
<path d="M17.169 11.6489C17.2148 11.6234 17.2608 11.619 17.2608 11.619C17.2608 11.619 17.2329 11.656 17.1871 11.6815C17.1414 11.7071 17.0952 11.7114 17.0952 11.7114C17.0952 11.7114 17.1233 11.6744 17.169 11.6489Z" fill="#999999"/>
<path d="M16.9822 11.7764C16.9567 11.7307 16.9521 11.6845 16.9521 11.6845C16.9521 11.6845 16.9891 11.7125 17.0147 11.7582C17.0402 11.8039 17.0447 11.8501 17.0447 11.8501C17.0447 11.8501 17.0077 11.8222 16.9822 11.7764Z" fill="#999999"/>
<path d="M17.1163 11.441C17.0908 11.3953 17.0864 11.3491 17.0864 11.3491C17.0864 11.3491 17.1234 11.377 17.1489 11.4227C17.1745 11.4684 17.1788 11.5146 17.1788 11.5146C17.1788 11.5146 17.142 11.4867 17.1163 11.441Z" fill="#999999"/>
<path d="M16.962 11.5521C16.9163 11.5777 16.8701 11.582 16.8701 11.582C16.8701 11.582 16.8981 11.545 16.9438 11.5195C16.9895 11.494 17.0357 11.4896 17.0357 11.4896C17.0357 11.4896 17.0078 11.5266 16.962 11.5521Z" fill="#999999"/>
<path d="M17.3107 11.3656C17.265 11.3911 17.2188 11.3955 17.2188 11.3955C17.2188 11.3955 17.2467 11.3585 17.2924 11.333C17.3381 11.3075 17.3843 11.3031 17.3843 11.3031C17.3843 11.3031 17.3564 11.3399 17.3107 11.3656Z" fill="#999999"/>
<path d="M16.878 11.3213C16.8525 11.2756 16.8481 11.2294 16.8481 11.2294C16.8481 11.2294 16.8851 11.2574 16.9107 11.3031C16.9362 11.3488 16.9407 11.395 16.9407 11.395C16.9407 11.395 16.9037 11.3671 16.878 11.3213Z" fill="#999999"/>
<path d="M17.2399 11.1133C17.2143 11.0676 17.21 11.0214 17.21 11.0214C17.21 11.0214 17.247 11.0494 17.2725 11.0951C17.298 11.1408 17.3024 11.187 17.3024 11.187C17.3024 11.187 17.2654 11.1591 17.2399 11.1133Z" fill="#999999"/>
<path d="M17.0846 11.2229C17.0389 11.2484 16.9927 11.2529 16.9927 11.2529C16.9927 11.2529 17.0206 11.2159 17.0663 11.1904C17.1121 11.1649 17.1583 11.1604 17.1583 11.1604C17.1583 11.1604 17.1303 11.1974 17.0846 11.2229Z" fill="#999999"/>
<path d="M16.8077 11.0421C16.8534 11.0166 16.8995 11.0121 16.8995 11.0121C16.8995 11.0121 16.8715 11.0491 16.8258 11.0746C16.7801 11.1001 16.7339 11.1045 16.7339 11.1045C16.7339 11.1045 16.762 11.0677 16.8077 11.0421Z" fill="#999999"/>
<path d="M17.1695 10.8345C17.2152 10.8089 17.2613 10.8046 17.2613 10.8046C17.2613 10.8046 17.2333 10.8416 17.1876 10.8671C17.1419 10.8926 17.0957 10.897 17.0957 10.897C17.0957 10.897 17.1238 10.86 17.1695 10.8345Z" fill="#999999"/>
<path d="M16.9827 10.9621C16.9572 10.9164 16.9526 10.8702 16.9526 10.8702C16.9526 10.8702 16.9896 10.8982 17.0152 10.9439C17.0407 10.9896 17.0452 11.0356 17.0452 11.0356C17.0452 11.0356 17.0082 11.0079 16.9827 10.9621Z" fill="#999999"/>
<path d="M17.1163 10.6256C17.0908 10.5798 17.0864 10.5336 17.0864 10.5336C17.0864 10.5336 17.1234 10.5616 17.1489 10.6073C17.1745 10.653 17.1788 10.6992 17.1788 10.6992C17.1788 10.6992 17.142 10.6713 17.1163 10.6256Z" fill="#999999"/>
<path d="M16.9625 10.7362C16.9168 10.7618 16.8706 10.7661 16.8706 10.7661C16.8706 10.7661 16.8986 10.7291 16.9443 10.7036C16.99 10.6781 17.0362 10.6735 17.0362 10.6735C17.0362 10.6735 17.0082 10.7107 16.9625 10.7362Z" fill="#999999"/>
<path d="M17.3107 10.55C17.265 10.5756 17.2188 10.5801 17.2188 10.5801C17.2188 10.5801 17.2467 10.5431 17.2924 10.5176C17.3381 10.492 17.3843 10.4875 17.3843 10.4875C17.3843 10.4875 17.3564 10.5245 17.3107 10.55Z" fill="#999999"/>
<path d="M16.8775 10.5072C16.852 10.4615 16.8477 10.4155 16.8477 10.4155C16.8477 10.4155 16.8846 10.4434 16.9102 10.4891C16.9357 10.5349 16.9402 10.5811 16.9402 10.5811C16.9402 10.5811 16.9032 10.5529 16.8775 10.5072Z" fill="#999999"/>
<path d="M17.2394 10.2994C17.2138 10.2537 17.2095 10.2075 17.2095 10.2075C17.2095 10.2075 17.2465 10.2354 17.272 10.2811C17.2975 10.3268 17.3019 10.373 17.3019 10.373C17.3019 10.373 17.2649 10.3449 17.2394 10.2994Z" fill="#999999"/>
<path d="M17.0841 10.4094C17.0384 10.4349 16.9922 10.4395 16.9922 10.4395C16.9922 10.4395 17.0201 10.4025 17.0659 10.3769C17.1116 10.3514 17.1578 10.347 17.1578 10.347C17.1578 10.347 17.1298 10.3839 17.0841 10.4094Z" fill="#999999"/>
<path d="M16.8072 10.2278C16.8529 10.2023 16.899 10.198 16.899 10.198C16.899 10.198 16.871 10.235 16.8253 10.2605C16.7796 10.286 16.7334 10.2905 16.7334 10.2905C16.7334 10.2905 16.7615 10.2534 16.8072 10.2278Z" fill="#999999"/>
<path d="M17.169 10.0202C17.2148 9.99463 17.2608 9.99011 17.2608 9.99011C17.2608 9.99011 17.2329 10.0271 17.1871 10.0526C17.1414 10.0782 17.0952 10.0825 17.0952 10.0825C17.0952 10.0825 17.1233 10.0457 17.169 10.0202Z" fill="#999999"/>
<path d="M16.9822 10.1483C16.9567 10.1026 16.9521 10.0566 16.9521 10.0566C16.9521 10.0566 16.9891 10.0845 17.0147 10.1302C17.0402 10.176 17.0447 10.2222 17.0447 10.2222C17.0447 10.2222 17.0077 10.1941 16.9822 10.1483Z" fill="#999999"/>
<path d="M17.1163 9.81191C17.0908 9.7662 17.0864 9.72015 17.0864 9.72015C17.0864 9.72015 17.1234 9.7481 17.1489 9.79382C17.1745 9.83954 17.1788 9.88574 17.1788 9.88574C17.1788 9.88574 17.142 9.85763 17.1163 9.81191Z" fill="#999999"/>
<path d="M16.962 9.92226C16.9163 9.94779 16.8701 9.95215 16.8701 9.95215C16.8701 9.95215 16.8981 9.91515 16.9438 9.88963C16.9895 9.86411 17.0357 9.85974 17.0357 9.85974C17.0357 9.85974 17.0078 9.89674 16.962 9.92226Z" fill="#999999"/>
<path d="M17.3107 9.73655C17.265 9.76208 17.2188 9.7666 17.2188 9.7666C17.2188 9.7666 17.2467 9.72961 17.2924 9.70408C17.3381 9.67856 17.3843 9.67403 17.3843 9.67403C17.3843 9.67403 17.3564 9.71103 17.3107 9.73655Z" fill="#999999"/>
<path d="M16.878 9.69245C16.8525 9.64673 16.8481 9.60053 16.8481 9.60053C16.8481 9.60053 16.8851 9.62847 16.9107 9.67419C16.9362 9.71991 16.9407 9.76611 16.9407 9.76611C16.9407 9.76611 16.9037 9.73817 16.878 9.69245Z" fill="#999999"/>
<path d="M17.2399 9.48444C17.2143 9.43872 17.21 9.39251 17.21 9.39251C17.21 9.39251 17.247 9.42047 17.2725 9.46618C17.298 9.5119 17.3024 9.55811 17.3024 9.55811C17.3024 9.55811 17.2654 9.52999 17.2399 9.48444Z" fill="#999999"/>
<path d="M17.0846 9.59414C17.0389 9.61966 16.9927 9.62402 16.9927 9.62402C16.9927 9.62402 17.0206 9.58703 17.0663 9.5615C17.1121 9.53598 17.1583 9.53146 17.1583 9.53146C17.1583 9.53146 17.1303 9.56861 17.0846 9.59414Z" fill="#999999"/>
<path d="M16.8077 9.41257C16.8534 9.38705 16.8995 9.38253 16.8995 9.38253C16.8995 9.38253 16.8715 9.41952 16.8258 9.44505C16.7801 9.47057 16.7339 9.4751 16.7339 9.4751C16.7339 9.4751 16.762 9.4381 16.8077 9.41257Z" fill="#999999"/>
<path d="M17.169 9.20506C17.2148 9.17953 17.2608 9.17501 17.2608 9.17501C17.2608 9.17501 17.2329 9.212 17.1871 9.23753C17.1414 9.26305 17.0952 9.26758 17.0952 9.26758C17.0952 9.26758 17.1233 9.23058 17.169 9.20506Z" fill="#999999"/>
<path d="M16.9827 9.33258C16.9572 9.28687 16.9526 9.24066 16.9526 9.24066C16.9526 9.24066 16.9896 9.26861 17.0152 9.31433C17.0407 9.36005 17.0452 9.40625 17.0452 9.40625C17.0452 9.40625 17.0082 9.3783 16.9827 9.33258Z" fill="#999999"/>
<path d="M16.962 9.10667C16.9163 9.13219 16.8701 9.13672 16.8701 9.13672C16.8701 9.13672 16.8981 9.09973 16.9438 9.0742C16.9895 9.04868 17.0357 9.04415 17.0357 9.04415C17.0357 9.04415 17.0078 9.08115 16.962 9.10667Z" fill="#999999"/>
</g>
<defs>
<linearGradient id="paint0_linear_580_1668" x1="0.738343" y1="16.8226" x2="1.0598" y2="-0.205076" gradientUnits="userSpaceOnUse">
<stop stop-color="#C7C5C5"/>
<stop offset="0.0359" stop-color="#676767"/>
<stop offset="0.1123" stop-color="white"/>
<stop offset="0.3019" stop-color="#929292"/>
<stop offset="0.492" stop-color="white"/>
<stop offset="0.6257" stop-color="#676767"/>
<stop offset="0.7701" stop-color="#929292"/>
<stop offset="0.8233" stop-color="#C7C5C5"/>
<stop offset="1" stop-color="#343433"/>
</linearGradient>
<linearGradient id="paint1_linear_580_1668" x1="1.19542" y1="12.2955" x2="1.04476" y2="12.2955" gradientUnits="userSpaceOnUse">
<stop offset="0.0051"/>
<stop offset="1" stop-opacity="0"/>
</linearGradient>
<linearGradient id="paint2_linear_580_1668" x1="0.815214" y1="15.771" x2="0.815214" y2="15.2418" gradientUnits="userSpaceOnUse">
<stop offset="0.0051"/>
<stop offset="1" stop-opacity="0"/>
</linearGradient>
<linearGradient id="paint3_linear_580_1668" x1="3.11792" y1="0.435838" x2="3.63332" y2="0.413109" gradientUnits="userSpaceOnUse">
<stop stop-color="#C7C5C5"/>
<stop offset="0.0359" stop-color="#676767"/>
<stop offset="0.1123" stop-color="white"/>
<stop offset="0.3019" stop-color="#929292"/>
<stop offset="0.492" stop-color="white"/>
<stop offset="0.6809" stop-color="#676767"/>
<stop offset="0.7701" stop-color="#929292"/>
<stop offset="0.8233" stop-color="#C7C5C5"/>
<stop offset="1" stop-color="#343433"/>
</linearGradient>
<linearGradient id="paint4_linear_580_1668" x1="4.49397" y1="0.435758" x2="3.98165" y2="0.413174" gradientUnits="userSpaceOnUse">
<stop stop-color="#C7C5C5"/>
<stop offset="0.0359" stop-color="#676767"/>
<stop offset="0.1123" stop-color="white"/>
<stop offset="0.3019" stop-color="#929292"/>
<stop offset="0.492" stop-color="white"/>
<stop offset="0.6809" stop-color="#676767"/>
<stop offset="0.7701" stop-color="#929292"/>
<stop offset="0.8233" stop-color="#C7C5C5"/>
<stop offset="1" stop-color="#343433"/>
</linearGradient>
<linearGradient id="paint5_linear_580_1668" x1="3.00746" y1="0.576904" x2="5.49953" y2="0.576904" gradientUnits="userSpaceOnUse">
<stop stop-color="#C7C5C5"/>
<stop offset="0.0359" stop-color="#676767"/>
<stop offset="0.1123" stop-color="white"/>
<stop offset="0.3019" stop-color="#929292"/>
<stop offset="0.492" stop-color="white"/>
<stop offset="0.6257" stop-color="#676767"/>
<stop offset="0.7701" stop-color="#929292"/>
<stop offset="0.8233" stop-color="#C7C5C5"/>
<stop offset="1" stop-color="#343433"/>
</linearGradient>
<linearGradient id="paint6_linear_580_1668" x1="13.3772" y1="0.435838" x2="13.8926" y2="0.413109" gradientUnits="userSpaceOnUse">
<stop stop-color="#C7C5C5"/>
<stop offset="0.0359" stop-color="#676767"/>
<stop offset="0.1123" stop-color="white"/>
<stop offset="0.3019" stop-color="#929292"/>
<stop offset="0.492" stop-color="white"/>
<stop offset="0.6809" stop-color="#676767"/>
<stop offset="0.7701" stop-color="#929292"/>
<stop offset="0.8233" stop-color="#C7C5C5"/>
<stop offset="1" stop-color="#343433"/>
</linearGradient>
<linearGradient id="paint7_linear_580_1668" x1="14.7533" y1="0.435758" x2="14.241" y2="0.413174" gradientUnits="userSpaceOnUse">
<stop stop-color="#C7C5C5"/>
<stop offset="0.0359" stop-color="#676767"/>
<stop offset="0.1123" stop-color="white"/>
<stop offset="0.3019" stop-color="#929292"/>
<stop offset="0.492" stop-color="white"/>
<stop offset="0.6809" stop-color="#676767"/>
<stop offset="0.7701" stop-color="#929292"/>
<stop offset="0.8233" stop-color="#C7C5C5"/>
<stop offset="1" stop-color="#343433"/>
</linearGradient>
<linearGradient id="paint8_linear_580_1668" x1="13.2668" y1="0.576904" x2="15.7589" y2="0.576904" gradientUnits="userSpaceOnUse">
<stop stop-color="#C7C5C5"/>
<stop offset="0.0359" stop-color="#676767"/>
<stop offset="0.1123" stop-color="white"/>
<stop offset="0.3019" stop-color="#929292"/>
<stop offset="0.492" stop-color="white"/>
<stop offset="0.6257" stop-color="#676767"/>
<stop offset="0.7701" stop-color="#929292"/>
<stop offset="0.8233" stop-color="#C7C5C5"/>
<stop offset="1" stop-color="#343433"/>
</linearGradient>
<linearGradient id="paint9_linear_580_1668" x1="0.249123" y1="1.67927" x2="25.2631" y2="1.79982" gradientUnits="userSpaceOnUse">
<stop stop-color="#C7C5C5"/>
<stop offset="0.0359" stop-color="#676767"/>
<stop offset="0.1123" stop-color="white"/>
<stop offset="0.3019" stop-color="#929292"/>
<stop offset="0.492" stop-color="white"/>
<stop offset="0.6257" stop-color="#676767"/>
<stop offset="0.7701" stop-color="#929292"/>
<stop offset="0.8233" stop-color="#C7C5C5"/>
<stop offset="1" stop-color="#343433"/>
</linearGradient>
<linearGradient id="paint10_linear_580_1668" x1="0.249123" y1="1.67927" x2="25.2631" y2="1.79982" gradientUnits="userSpaceOnUse">
<stop stop-color="#C7C5C5"/>
<stop offset="0.0359" stop-color="#676767"/>
<stop offset="0.1123" stop-color="white"/>
<stop offset="0.3019" stop-color="#929292"/>
<stop offset="0.492" stop-color="white"/>
<stop offset="0.6257" stop-color="#676767"/>
<stop offset="0.7701" stop-color="#929292"/>
<stop offset="0.8233" stop-color="#C7C5C5"/>
<stop offset="1" stop-color="#343433"/>
</linearGradient>
<radialGradient id="paint11_radial_580_1668" cx="0" cy="0" r="1" gradientUnits="userSpaceOnUse" gradientTransform="translate(-0.737868 7.85462) scale(18.0444 18.0446)">
<stop offset="0.0102"/>
<stop offset="1" stop-opacity="0"/>
</radialGradient>
<linearGradient id="paint12_linear_580_1668" x1="1.63128" y1="8.39011" x2="16.2426" y2="8.39011" gradientUnits="userSpaceOnUse">
<stop offset="0.3386" stop-color="white" stop-opacity="0"/>
<stop offset="0.6521" stop-color="white"/>
</linearGradient>
<linearGradient id="paint13_linear_580_1668" x1="5.13011" y1="6.43381" x2="4.63139" y2="6.39651" gradientUnits="userSpaceOnUse">
<stop offset="0.0051"/>
<stop offset="1" stop-opacity="0"/>
</linearGradient>
<linearGradient id="paint14_linear_580_1668" x1="12.737" y1="6.4338" x2="13.2357" y2="6.39649" gradientUnits="userSpaceOnUse">
<stop offset="0.0051" stop-color="#999999"/>
<stop offset="1" stop-color="#999999" stop-opacity="0"/>
</linearGradient>
<linearGradient id="paint15_linear_580_1668" x1="8.93752" y1="6.06845" x2="8.93752" y2="6.49848" gradientUnits="userSpaceOnUse">
<stop offset="0.0051"/>
<stop offset="1" stop-opacity="0"/>
</linearGradient>
<radialGradient id="paint16_radial_580_1668" cx="0" cy="0" r="1" gradientUnits="userSpaceOnUse" gradientTransform="translate(2.1059 9.04699) scale(11.9321 11.9322)">
<stop stop-color="white" stop-opacity="0"/>
<stop offset="1" stop-color="white"/>
</radialGradient>
<radialGradient id="paint17_radial_580_1668" cx="0" cy="0" r="1" gradientUnits="userSpaceOnUse" gradientTransform="translate(3.47825 9.72787) scale(11.4863 11.4864)">
<stop offset="0.0102"/>
<stop offset="1" stop-opacity="0"/>
</radialGradient>
<linearGradient id="paint18_linear_580_1668" x1="1.47577" y1="11.3266" x2="1.53425" y2="11.3266" gradientUnits="userSpaceOnUse">
<stop offset="0.0051"/>
<stop offset="1" stop-opacity="0"/>
</linearGradient>
<linearGradient id="paint19_linear_580_1668" x1="1.59335" y1="11.4326" x2="1.8343" y2="11.4326" gradientUnits="userSpaceOnUse">
<stop stop-color="white"/>
<stop offset="1" stop-color="white" stop-opacity="0"/>
</linearGradient>
<linearGradient id="paint20_linear_580_1668" x1="1.99486" y1="11.4326" x2="2.3202" y2="11.4326" gradientUnits="userSpaceOnUse">
<stop stop-opacity="0"/>
<stop offset="0.9898"/>
</linearGradient>
<linearGradient id="paint21_linear_580_1668" x1="16.4391" y1="11.3256" x2="16.3806" y2="11.3256" gradientUnits="userSpaceOnUse">
<stop offset="0.0051"/>
<stop offset="1" stop-opacity="0"/>
</linearGradient>
<linearGradient id="paint22_linear_580_1668" x1="16.3215" y1="11.4316" x2="16.0806" y2="11.4316" gradientUnits="userSpaceOnUse">
<stop stop-color="white"/>
<stop offset="1" stop-color="white" stop-opacity="0"/>
</linearGradient>
<linearGradient id="paint23_linear_580_1668" x1="15.92" y1="11.4316" x2="15.5946" y2="11.4316" gradientUnits="userSpaceOnUse">
<stop stop-opacity="0"/>
<stop offset="0.9898"/>
</linearGradient>
<linearGradient id="paint24_linear_580_1668" x1="0.728808" y1="8.20961" x2="0.77401" y2="8.33392" gradientUnits="userSpaceOnUse">
<stop stop-color="white"/>
<stop offset="1" stop-color="white" stop-opacity="0"/>
</linearGradient>
<linearGradient id="paint25_linear_580_1668" x1="1.18282" y1="8.39122" x2="0.369117" y2="8.84706" gradientUnits="userSpaceOnUse">
<stop offset="0.0051"/>
<stop offset="1" stop-opacity="0"/>
</linearGradient>
<linearGradient id="paint26_linear_580_1668" x1="17.201" y1="8.20961" x2="17.1558" y2="8.33392" gradientUnits="userSpaceOnUse">
<stop stop-color="white"/>
<stop offset="1" stop-color="white" stop-opacity="0"/>
</linearGradient>
<linearGradient id="paint27_linear_580_1668" x1="16.747" y1="8.39122" x2="17.5608" y2="8.84706" gradientUnits="userSpaceOnUse">
<stop offset="0.0051"/>
<stop offset="1" stop-opacity="0"/>
</linearGradient>
<linearGradient id="paint28_linear_580_1668" x1="8.8562" y1="14.9355" x2="8.8562" y2="14.5583" gradientUnits="userSpaceOnUse">
<stop stop-opacity="0"/>
<stop offset="0.9898"/>
</linearGradient>
<radialGradient id="paint29_radial_580_1668" cx="0" cy="0" r="1" gradientUnits="userSpaceOnUse" gradientTransform="translate(8.93688 13.9425) scale(3.41311 3.41313)">
<stop stop-color="white" stop-opacity="0"/>
<stop offset="1" stop-color="white"/>
</radialGradient>
<linearGradient id="paint30_linear_580_1668" x1="8.93688" y1="14.3485" x2="8.93688" y2="14.6578" gradientUnits="userSpaceOnUse">
<stop stop-opacity="0"/>
<stop offset="0.9898"/>
</linearGradient>
<linearGradient id="paint31_linear_580_1668" x1="4.35736" y1="13.6402" x2="13.5164" y2="13.6402" gradientUnits="userSpaceOnUse">
<stop stop-color="white" stop-opacity="0"/>
<stop offset="1" stop-color="white"/>
</linearGradient>
<linearGradient id="paint32_linear_580_1668" x1="10.4508" y1="14.2443" x2="4.82905" y2="14.2443" gradientUnits="userSpaceOnUse">
<stop stop-color="white" stop-opacity="0"/>
<stop offset="1" stop-color="white"/>
</linearGradient>
<radialGradient id="paint33_radial_580_1668" cx="0" cy="0" r="1" gradientUnits="userSpaceOnUse" gradientTransform="translate(16.7822 17.3784) scale(21.8 21.8002)">
<stop stop-color="white" stop-opacity="0"/>
<stop offset="1" stop-color="white"/>
</radialGradient>
<linearGradient id="paint34_linear_580_1668" x1="2.99241" y1="39.7003" x2="1.07869" y2="39.9866" gradientUnits="userSpaceOnUse">
<stop stop-color="white" stop-opacity="0"/>
<stop offset="1" stop-color="white"/>
</linearGradient>
<linearGradient id="paint35_linear_580_1668" x1="2.21085" y1="39.7404" x2="2.21085" y2="39.8432" gradientUnits="userSpaceOnUse">
<stop stop-color="white" stop-opacity="0"/>
<stop offset="1" stop-color="white"/>
</linearGradient>
<linearGradient id="paint36_linear_580_1668" x1="16.173" y1="39.6994" x2="14.2593" y2="39.9857" gradientUnits="userSpaceOnUse">
<stop stop-color="white" stop-opacity="0"/>
<stop offset="1" stop-color="white"/>
</linearGradient>
<linearGradient id="paint37_linear_580_1668" x1="15.391" y1="39.7404" x2="15.391" y2="39.8432" gradientUnits="userSpaceOnUse">
<stop stop-color="white" stop-opacity="0"/>
<stop offset="1" stop-color="white"/>
</linearGradient>
<linearGradient id="paint38_linear_580_1668" x1="8.75187" y1="39.8004" x2="8.75187" y2="39.6596" gradientUnits="userSpaceOnUse">
<stop stop-opacity="0"/>
<stop offset="0.9898"/>
</linearGradient>
<linearGradient id="paint39_linear_580_1668" x1="17.1861" y1="16.8226" x2="16.8646" y2="-0.205077" gradientUnits="userSpaceOnUse">
<stop stop-color="#C7C5C5"/>
<stop offset="0.0359" stop-color="#676767"/>
<stop offset="0.1123" stop-color="white"/>
<stop offset="0.3019" stop-color="#929292"/>
<stop offset="0.492" stop-color="white"/>
<stop offset="0.6257" stop-color="#676767"/>
<stop offset="0.7701" stop-color="#929292"/>
<stop offset="0.8233" stop-color="#C7C5C5"/>
<stop offset="1" stop-color="#343433"/>
</linearGradient>
<linearGradient id="paint40_linear_580_1668" x1="16.7292" y1="12.2955" x2="16.8799" y2="12.2955" gradientUnits="userSpaceOnUse">
<stop offset="0.0051"/>
<stop offset="1" stop-opacity="0"/>
</linearGradient>
<linearGradient id="paint41_linear_580_1668" x1="17.1094" y1="15.771" x2="17.1094" y2="15.2418" gradientUnits="userSpaceOnUse">
<stop offset="0.0051"/>
<stop offset="1" stop-opacity="0"/>
</linearGradient>
</defs>
</svg>
