<svg width="41" height="19" viewBox="0 0 41 19" fill="none" xmlns="http://www.w3.org/2000/svg">
<path d="M24.7212 1.02051L30.6308 1.02051C30.8053 1.02051 30.9725 1.08981 31.0959 1.21308L31.6722 1.78932L24.7212 1.78932L24.7212 1.02051Z" fill="#CCCCCC"/>
<path d="M24.8423 1.14111L24.8423 1.66905L31.3818 1.66905L31.0114 1.29846C30.9099 1.19701 30.775 1.14111 30.6316 1.14111L24.8423 1.14111Z" fill="url(#paint0_linear_580_4992)"/>
<path opacity="0.5" d="M24.7212 1.02051L30.6308 1.02051C30.8053 1.02051 30.9725 1.08981 31.0959 1.21308L31.6722 1.78932L24.7212 1.78932L24.7212 1.02051Z" fill="url(#paint1_linear_580_4992)"/>
<path opacity="0.4" d="M24.7212 1.02051L30.6308 1.02051C30.8053 1.02051 30.9725 1.08981 31.0959 1.21308L31.6722 1.78932L24.7212 1.78932L24.7212 1.02051Z" fill="url(#paint2_linear_580_4992)"/>
<mask id="mask0_580_4992" style="mask-type:luminance" maskUnits="userSpaceOnUse" x="24" y="1" width="8" height="1">
<path d="M24.8423 1.1416L24.8423 1.66954L31.3818 1.66954L31.0114 1.29895C30.9099 1.1975 30.775 1.1416 30.6316 1.1416L24.8423 1.1416Z" fill="white"/>
</mask>
<g mask="url(#mask0_580_4992)">
<path d="M24.8931 1.54944C24.9186 1.50372 24.9231 1.45752 24.9231 1.45752C24.9231 1.45752 24.8861 1.48547 24.8606 1.53118C24.8351 1.5769 24.8306 1.62311 24.8306 1.62311C24.8306 1.62311 24.8676 1.59516 24.8931 1.54944Z" fill="#999999"/>
<path d="M25.1016 1.18762C25.1271 1.14191 25.1316 1.0957 25.1316 1.0957C25.1316 1.0957 25.0946 1.12365 25.0691 1.16937C25.0436 1.21509 25.0391 1.26129 25.0391 1.26129C25.0391 1.26129 25.0761 1.23334 25.1016 1.18762Z" fill="#999999"/>
<path d="M24.9732 1.37453C25.019 1.40005 25.065 1.40458 25.065 1.40458C25.065 1.40458 25.0371 1.36759 24.9913 1.34206C24.9456 1.31654 24.8994 1.31201 24.8994 1.31201C24.8994 1.31201 24.9275 1.34901 24.9732 1.37453Z" fill="#999999"/>
<path d="M25.101 1.60207C25.1467 1.62759 25.1929 1.63212 25.1929 1.63212C25.1929 1.63212 25.165 1.59512 25.1193 1.56959C25.0735 1.54407 25.0273 1.53955 25.0273 1.53955C25.0273 1.53955 25.0553 1.57654 25.101 1.60207Z" fill="#999999"/>
<path d="M25.3092 1.24026C25.3549 1.26578 25.4009 1.27014 25.4009 1.27014C25.4009 1.27014 25.373 1.23314 25.3273 1.20762C25.2816 1.1821 25.2354 1.17773 25.2354 1.17773C25.2354 1.17773 25.2635 1.21473 25.3092 1.24026Z" fill="#999999"/>
<path d="M25.1985 1.39495C25.173 1.44067 25.1685 1.48687 25.1685 1.48687C25.1685 1.48687 25.2055 1.45893 25.231 1.41321C25.2565 1.36749 25.261 1.32129 25.261 1.32129C25.261 1.32129 25.224 1.34924 25.1985 1.39495Z" fill="#999999"/>
<path d="M25.3799 1.67184C25.4054 1.62612 25.4098 1.58008 25.4098 1.58008C25.4098 1.58008 25.3728 1.60802 25.3473 1.65374C25.3217 1.69946 25.3174 1.7455 25.3174 1.7455C25.3174 1.7455 25.3544 1.71755 25.3799 1.67184Z" fill="#999999"/>
<path d="M25.5879 1.31018C25.6134 1.26446 25.6178 1.21826 25.6178 1.21826C25.6178 1.21826 25.5808 1.24621 25.5553 1.29193C25.5298 1.33764 25.5254 1.38385 25.5254 1.38385C25.5254 1.38385 25.5624 1.3559 25.5879 1.31018Z" fill="#999999"/>
<path d="M25.4597 1.49758C25.5055 1.52311 25.5517 1.52763 25.5517 1.52763C25.5517 1.52763 25.5237 1.49063 25.478 1.46511C25.4323 1.43958 25.3862 1.43506 25.3862 1.43506C25.3862 1.43506 25.414 1.47206 25.4597 1.49758Z" fill="#999999"/>
<path d="M25.5878 1.7243C25.6335 1.74983 25.6798 1.75419 25.6798 1.75419C25.6798 1.75419 25.6518 1.71719 25.6061 1.69166C25.5604 1.66614 25.5142 1.66162 25.5142 1.66162C25.5142 1.66162 25.5421 1.69878 25.5878 1.7243Z" fill="#999999"/>
<path d="M25.7957 1.36183C25.8414 1.38736 25.8876 1.39172 25.8876 1.39172C25.8876 1.39172 25.8597 1.35473 25.8139 1.3292C25.7682 1.30368 25.7222 1.29932 25.7222 1.29932C25.7222 1.29932 25.75 1.33631 25.7957 1.36183Z" fill="#999999"/>
<path d="M25.6861 1.51686C25.6606 1.56258 25.6563 1.60878 25.6563 1.60878C25.6563 1.60878 25.6932 1.58084 25.7188 1.53512C25.7443 1.4894 25.7487 1.44336 25.7487 1.44336C25.7487 1.44336 25.7117 1.47114 25.6861 1.51686Z" fill="#999999"/>
<path d="M25.8718 1.16741C25.8463 1.21313 25.8418 1.25934 25.8418 1.25934C25.8418 1.25934 25.8788 1.23139 25.9043 1.18567C25.9298 1.13995 25.9344 1.09375 25.9344 1.09375C25.9344 1.09375 25.8974 1.1217 25.8718 1.16741Z" fill="#999999"/>
<path d="M25.9122 1.63527C25.9579 1.6608 26.004 1.66516 26.004 1.66516C26.004 1.66516 25.976 1.62816 25.9303 1.60264C25.8846 1.57712 25.8384 1.57275 25.8384 1.57275C25.8384 1.57275 25.8665 1.60975 25.9122 1.63527Z" fill="#999999"/>
<path d="M26.1201 1.27346C26.1658 1.29898 26.212 1.30334 26.212 1.30334C26.212 1.30334 26.184 1.26635 26.1383 1.24082C26.0926 1.2153 26.0464 1.21094 26.0464 1.21094C26.0464 1.21094 26.0743 1.24793 26.1201 1.27346Z" fill="#999999"/>
<path d="M26.0099 1.42865C25.9843 1.47436 25.98 1.52057 25.98 1.52057C25.98 1.52057 26.017 1.49262 26.0425 1.4469C26.068 1.40118 26.0724 1.35498 26.0724 1.35498C26.0724 1.35498 26.0354 1.38293 26.0099 1.42865Z" fill="#999999"/>
<path d="M26.1922 1.7052C26.2178 1.65948 26.2223 1.61328 26.2223 1.61328C26.2223 1.61328 26.1853 1.64123 26.1598 1.68695C26.1342 1.73266 26.1299 1.77887 26.1299 1.77887C26.1299 1.77887 26.1667 1.75092 26.1922 1.7052Z" fill="#999999"/>
<path d="M26.3999 1.34339C26.4254 1.29767 26.43 1.25146 26.43 1.25146C26.43 1.25146 26.393 1.27941 26.3675 1.32513C26.3419 1.37085 26.3374 1.41705 26.3374 1.41705C26.3374 1.41705 26.3744 1.3891 26.3999 1.34339Z" fill="#999999"/>
<path d="M26.2719 1.5303C26.3176 1.55582 26.3638 1.56034 26.3638 1.56034C26.3638 1.56034 26.3359 1.52335 26.2902 1.49782C26.2444 1.4723 26.1982 1.46777 26.1982 1.46777C26.1982 1.46777 26.2262 1.50477 26.2719 1.5303Z" fill="#999999"/>
<path d="M26.6074 1.39504C26.6531 1.42056 26.6993 1.42492 26.6993 1.42492C26.6993 1.42492 26.6713 1.38793 26.6256 1.36241C26.5799 1.33688 26.5337 1.33252 26.5337 1.33252C26.5337 1.33252 26.5616 1.36951 26.6074 1.39504Z" fill="#999999"/>
<path d="M26.4973 1.54974C26.4718 1.59546 26.4673 1.64166 26.4673 1.64166C26.4673 1.64166 26.5043 1.61371 26.5298 1.568C26.5553 1.52228 26.5599 1.47607 26.5599 1.47607C26.5599 1.47607 26.5229 1.50402 26.4973 1.54974Z" fill="#999999"/>
<path d="M26.6829 1.20111C26.6574 1.24682 26.6528 1.29303 26.6528 1.29303C26.6528 1.29303 26.6898 1.26508 26.7154 1.21936C26.7409 1.17364 26.7452 1.12744 26.7452 1.12744C26.7452 1.12744 26.7084 1.15539 26.6829 1.20111Z" fill="#999999"/>
<path d="M26.727 1.63576C26.7727 1.66128 26.8189 1.66565 26.8189 1.66565C26.8189 1.66565 26.791 1.62865 26.7452 1.60313C26.6995 1.5776 26.6533 1.57324 26.6533 1.57324C26.6533 1.57324 26.6813 1.61024 26.727 1.63576Z" fill="#999999"/>
<path d="M26.9352 1.27394C26.9809 1.29947 27.0269 1.30383 27.0269 1.30383C27.0269 1.30383 26.999 1.26684 26.9532 1.24131C26.9075 1.21579 26.8613 1.21143 26.8613 1.21143C26.8613 1.21143 26.8894 1.24842 26.9352 1.27394Z" fill="#999999"/>
<path d="M26.8253 1.42913C26.7998 1.47485 26.7954 1.52105 26.7954 1.52105C26.7954 1.52105 26.8324 1.49311 26.8579 1.44739C26.8835 1.40167 26.8878 1.35547 26.8878 1.35547C26.8878 1.35547 26.8508 1.38342 26.8253 1.42913Z" fill="#999999"/>
<path d="M27.0065 1.70569C27.0321 1.65997 27.0364 1.61377 27.0364 1.61377C27.0364 1.61377 26.9994 1.64172 26.9739 1.68743C26.9484 1.73315 26.9438 1.77936 26.9438 1.77936C26.9438 1.77936 26.981 1.75141 27.0065 1.70569Z" fill="#999999"/>
<path d="M27.2154 1.34387C27.2409 1.29816 27.2454 1.25195 27.2454 1.25195C27.2454 1.25195 27.2084 1.2799 27.1829 1.32562C27.1574 1.37134 27.1528 1.41754 27.1528 1.41754C27.1528 1.41754 27.1898 1.38959 27.2154 1.34387Z" fill="#999999"/>
<path d="M27.0873 1.53078C27.1331 1.55631 27.1793 1.56083 27.1793 1.56083C27.1793 1.56083 27.1513 1.52384 27.1056 1.49831C27.0599 1.47279 27.0137 1.46826 27.0137 1.46826C27.0137 1.46826 27.0416 1.50526 27.0873 1.53078Z" fill="#999999"/>
<path d="M27.4221 1.39553C27.4679 1.42105 27.5141 1.42541 27.5141 1.42541C27.5141 1.42541 27.4861 1.38842 27.4404 1.36289C27.3947 1.33737 27.3486 1.33301 27.3486 1.33301C27.3486 1.33301 27.3764 1.37 27.4221 1.39553Z" fill="#999999"/>
<path d="M27.3123 1.55023C27.2868 1.59595 27.2822 1.64215 27.2822 1.64215C27.2822 1.64215 27.3192 1.6142 27.3448 1.56848C27.3703 1.52277 27.3748 1.47656 27.3748 1.47656C27.3748 1.47656 27.3378 1.50451 27.3123 1.55023Z" fill="#999999"/>
<path d="M27.4981 1.20159C27.4726 1.24731 27.4683 1.29352 27.4683 1.29352C27.4683 1.29352 27.5053 1.26557 27.5308 1.21985C27.5563 1.17413 27.5607 1.12793 27.5607 1.12793C27.5607 1.12793 27.5237 1.15588 27.4981 1.20159Z" fill="#999999"/>
<path d="M27.5418 1.63527C27.5875 1.6608 27.6337 1.66516 27.6337 1.66516C27.6337 1.66516 27.6057 1.62816 27.56 1.60264C27.5143 1.57712 27.4683 1.57275 27.4683 1.57275C27.4683 1.57275 27.496 1.60975 27.5418 1.63527Z" fill="#999999"/>
<path d="M27.7499 1.27346C27.7957 1.29898 27.8419 1.30334 27.8419 1.30334C27.8419 1.30334 27.8139 1.26635 27.7682 1.24082C27.7225 1.2153 27.6763 1.21094 27.6763 1.21094C27.6763 1.21094 27.7042 1.24793 27.7499 1.27346Z" fill="#999999"/>
<path d="M27.6399 1.42865C27.6144 1.47436 27.6099 1.52057 27.6099 1.52057C27.6099 1.52057 27.6469 1.49262 27.6724 1.4469C27.6979 1.40118 27.7023 1.35498 27.7023 1.35498C27.7023 1.35498 27.6654 1.38293 27.6399 1.42865Z" fill="#999999"/>
<path d="M27.8208 1.7052C27.8463 1.65948 27.8507 1.61328 27.8507 1.61328C27.8507 1.61328 27.8137 1.64123 27.7882 1.68695C27.7627 1.73266 27.7583 1.77887 27.7583 1.77887C27.7583 1.77887 27.7953 1.75092 27.8208 1.7052Z" fill="#999999"/>
<path d="M28.029 1.34339C28.0545 1.29767 28.0589 1.25146 28.0589 1.25146C28.0589 1.25146 28.0219 1.27941 27.9964 1.32513C27.9708 1.37085 27.9663 1.41705 27.9663 1.41705C27.9663 1.41705 28.0035 1.3891 28.029 1.34339Z" fill="#999999"/>
<path d="M27.9005 1.5303C27.9462 1.55582 27.9922 1.56034 27.9922 1.56034C27.9922 1.56034 27.9643 1.52335 27.9186 1.49782C27.8729 1.4723 27.8267 1.46777 27.8267 1.46777C27.8267 1.46777 27.8548 1.50477 27.9005 1.5303Z" fill="#999999"/>
<path d="M28.2368 1.39504C28.2825 1.42056 28.3287 1.42492 28.3287 1.42492C28.3287 1.42492 28.3007 1.38793 28.255 1.36241C28.2093 1.33688 28.1631 1.33252 28.1631 1.33252C28.1631 1.33252 28.191 1.36951 28.2368 1.39504Z" fill="#999999"/>
<path d="M28.1258 1.54974C28.1002 1.59546 28.0957 1.64166 28.0957 1.64166C28.0957 1.64166 28.1327 1.61371 28.1582 1.568C28.1837 1.52228 28.1883 1.47607 28.1883 1.47607C28.1883 1.47607 28.1513 1.50402 28.1258 1.54974Z" fill="#999999"/>
<path d="M28.3111 1.20111C28.2856 1.24682 28.2813 1.29303 28.2813 1.29303C28.2813 1.29303 28.3182 1.26508 28.3438 1.21936C28.3693 1.17364 28.3737 1.12744 28.3737 1.12744C28.3737 1.12744 28.3368 1.15539 28.3111 1.20111Z" fill="#999999"/>
<path d="M28.3554 1.63576C28.4011 1.66128 28.4473 1.66565 28.4473 1.66565C28.4473 1.66565 28.4194 1.62865 28.3737 1.60313C28.3279 1.5776 28.2817 1.57324 28.2817 1.57324C28.2817 1.57324 28.3097 1.61024 28.3554 1.63576Z" fill="#999999"/>
<path d="M28.5633 1.27394C28.609 1.29947 28.6552 1.30383 28.6552 1.30383C28.6552 1.30383 28.6272 1.26684 28.5815 1.24131C28.5358 1.21579 28.4897 1.21143 28.4897 1.21143C28.4897 1.21143 28.5175 1.24842 28.5633 1.27394Z" fill="#999999"/>
<path d="M28.4534 1.42913C28.4279 1.47485 28.4233 1.52105 28.4233 1.52105C28.4233 1.52105 28.4603 1.49311 28.4859 1.44739C28.5114 1.40167 28.5157 1.35547 28.5157 1.35547C28.5157 1.35547 28.4789 1.38342 28.4534 1.42913Z" fill="#999999"/>
<path d="M28.6353 1.70569C28.6608 1.65997 28.6652 1.61377 28.6652 1.61377C28.6652 1.61377 28.6282 1.64172 28.6026 1.68743C28.5771 1.73315 28.5728 1.77936 28.5728 1.77936C28.5728 1.77936 28.6097 1.75141 28.6353 1.70569Z" fill="#999999"/>
<path d="M28.8433 1.34387C28.8688 1.29816 28.8732 1.25195 28.8732 1.25195C28.8732 1.25195 28.8362 1.2799 28.8106 1.32562C28.7851 1.37134 28.7808 1.41754 28.7808 1.41754C28.7808 1.41754 28.8178 1.38959 28.8433 1.34387Z" fill="#999999"/>
<path d="M28.7153 1.53078C28.761 1.55631 28.8072 1.56083 28.8072 1.56083C28.8072 1.56083 28.7792 1.52384 28.7335 1.49831C28.6878 1.47279 28.6416 1.46826 28.6416 1.46826C28.6416 1.46826 28.6695 1.50526 28.7153 1.53078Z" fill="#999999"/>
<path d="M29.0517 1.39553C29.0974 1.42105 29.1436 1.42541 29.1436 1.42541C29.1436 1.42541 29.1157 1.38842 29.0699 1.36289C29.0242 1.33737 28.978 1.33301 28.978 1.33301C28.978 1.33301 29.006 1.37 29.0517 1.39553Z" fill="#999999"/>
<path d="M28.9405 1.55023C28.915 1.59595 28.9106 1.64215 28.9106 1.64215C28.9106 1.64215 28.9476 1.6142 28.9732 1.56848C28.9987 1.52277 29.003 1.47656 29.003 1.47656C29.003 1.47656 28.9661 1.50451 28.9405 1.55023Z" fill="#999999"/>
<path d="M29.1271 1.20159C29.1015 1.24731 29.0972 1.29352 29.0972 1.29352C29.0972 1.29352 29.1342 1.26557 29.1597 1.21985C29.1852 1.17413 29.1896 1.12793 29.1896 1.12793C29.1896 1.12793 29.1527 1.15588 29.1271 1.20159Z" fill="#999999"/>
<path d="M29.1708 1.63576C29.2166 1.66128 29.2628 1.66565 29.2628 1.66565C29.2628 1.66565 29.2348 1.62865 29.1891 1.60313C29.1434 1.5776 29.0972 1.57324 29.0972 1.57324C29.0972 1.57324 29.1251 1.61024 29.1708 1.63576Z" fill="#999999"/>
<path d="M29.3788 1.27394C29.4246 1.29947 29.4708 1.30383 29.4708 1.30383C29.4708 1.30383 29.4428 1.26684 29.3971 1.24131C29.3514 1.21579 29.3052 1.21143 29.3052 1.21143C29.3052 1.21143 29.3331 1.24842 29.3788 1.27394Z" fill="#999999"/>
<path d="M29.2688 1.42913C29.2433 1.47485 29.2388 1.52105 29.2388 1.52105C29.2388 1.52105 29.2758 1.49311 29.3013 1.44739C29.3268 1.40167 29.3313 1.35547 29.3313 1.35547C29.3313 1.35547 29.2943 1.38342 29.2688 1.42913Z" fill="#999999"/>
<path d="M29.4501 1.70569C29.4756 1.65997 29.4801 1.61377 29.4801 1.61377C29.4801 1.61377 29.4431 1.64172 29.4176 1.68743C29.3921 1.73315 29.3877 1.77936 29.3877 1.77936C29.3877 1.77936 29.4245 1.75141 29.4501 1.70569Z" fill="#999999"/>
<path d="M29.6577 1.34387C29.6833 1.29816 29.6876 1.25195 29.6876 1.25195C29.6876 1.25195 29.6506 1.2799 29.6251 1.32562C29.5996 1.37134 29.5952 1.41754 29.5952 1.41754C29.5952 1.41754 29.6322 1.38959 29.6577 1.34387Z" fill="#999999"/>
<path d="M29.53 1.53078C29.5758 1.55631 29.622 1.56083 29.622 1.56083C29.622 1.56083 29.594 1.52384 29.5483 1.49831C29.5026 1.47279 29.4565 1.46826 29.4565 1.46826C29.4565 1.46826 29.4843 1.50526 29.53 1.53078Z" fill="#999999"/>
<path d="M29.8657 1.39553C29.9114 1.42105 29.9576 1.42541 29.9576 1.42541C29.9576 1.42541 29.9296 1.38842 29.8839 1.36289C29.8382 1.33737 29.792 1.33301 29.792 1.33301C29.792 1.33301 29.8199 1.37 29.8657 1.39553Z" fill="#999999"/>
<path d="M29.756 1.54974C29.7304 1.59546 29.7261 1.64166 29.7261 1.64166C29.7261 1.64166 29.7631 1.61371 29.7886 1.568C29.8141 1.52228 29.8186 1.47607 29.8186 1.47607C29.8186 1.47607 29.7815 1.50402 29.756 1.54974Z" fill="#999999"/>
<path d="M29.9407 1.20159C29.9152 1.24731 29.9106 1.29352 29.9106 1.29352C29.9106 1.29352 29.9476 1.26557 29.9732 1.21985C29.9987 1.17413 30.0032 1.12793 30.0032 1.12793C30.0032 1.12793 29.9662 1.15588 29.9407 1.20159Z" fill="#999999"/>
<path d="M29.9854 1.63527C30.0312 1.6608 30.0772 1.66516 30.0772 1.66516C30.0772 1.66516 30.0493 1.62816 30.0035 1.60264C29.9578 1.57712 29.9116 1.57275 29.9116 1.57275C29.9116 1.57275 29.9397 1.60975 29.9854 1.63527Z" fill="#999999"/>
<path d="M30.1938 1.27346C30.2395 1.29898 30.2857 1.30334 30.2857 1.30334C30.2857 1.30334 30.2578 1.26635 30.212 1.24082C30.1663 1.2153 30.1201 1.21094 30.1201 1.21094C30.1201 1.21094 30.1482 1.24793 30.1938 1.27346Z" fill="#999999"/>
<path d="M30.0828 1.42865C30.0573 1.47436 30.0527 1.52057 30.0527 1.52057C30.0527 1.52057 30.0897 1.49262 30.1153 1.4469C30.1408 1.40118 30.1451 1.35498 30.1451 1.35498C30.1451 1.35498 30.1083 1.38293 30.0828 1.42865Z" fill="#999999"/>
<path d="M30.2643 1.7052C30.2899 1.65948 30.2942 1.61328 30.2942 1.61328C30.2942 1.61328 30.2572 1.64123 30.2317 1.68695C30.2062 1.73266 30.2017 1.77887 30.2017 1.77887C30.2017 1.77887 30.2388 1.75092 30.2643 1.7052Z" fill="#999999"/>
<path d="M30.472 1.34339C30.4976 1.29767 30.5021 1.25146 30.5021 1.25146C30.5021 1.25146 30.4651 1.27941 30.4396 1.32513C30.414 1.37085 30.4097 1.41705 30.4097 1.41705C30.4097 1.41705 30.4465 1.3891 30.472 1.34339Z" fill="#999999"/>
<path d="M30.3443 1.5303C30.3901 1.55582 30.4361 1.56034 30.4361 1.56034C30.4361 1.56034 30.4081 1.52335 30.3624 1.49782C30.3167 1.4723 30.2705 1.46777 30.2705 1.46777C30.2705 1.46777 30.2986 1.50477 30.3443 1.5303Z" fill="#999999"/>
<path d="M30.6793 1.39504C30.725 1.42056 30.7711 1.42492 30.7711 1.42492C30.7711 1.42492 30.7431 1.38793 30.6974 1.36241C30.6517 1.33688 30.6055 1.33252 30.6055 1.33252C30.6055 1.33252 30.6336 1.36951 30.6793 1.39504Z" fill="#999999"/>
<path d="M30.5699 1.54974C30.5444 1.59546 30.54 1.64166 30.54 1.64166C30.54 1.64166 30.577 1.61371 30.6026 1.568C30.6281 1.52228 30.6324 1.47607 30.6324 1.47607C30.6324 1.47607 30.5955 1.50402 30.5699 1.54974Z" fill="#999999"/>
<path d="M30.7556 1.20111C30.7301 1.24682 30.7256 1.29303 30.7256 1.29303C30.7256 1.29303 30.7626 1.26508 30.7881 1.21936C30.8136 1.17364 30.8182 1.12744 30.8182 1.12744C30.8182 1.12744 30.7812 1.15539 30.7556 1.20111Z" fill="#999999"/>
<path d="M30.7993 1.63625C30.845 1.66177 30.8912 1.66614 30.8912 1.66614C30.8912 1.66614 30.8632 1.62914 30.8175 1.60362C30.7718 1.57809 30.7256 1.57373 30.7256 1.57373C30.7256 1.57373 30.7535 1.61072 30.7993 1.63625Z" fill="#999999"/>
<path d="M31.0068 1.27443C31.0525 1.29996 31.0987 1.30432 31.0987 1.30432C31.0987 1.30432 31.0707 1.26732 31.025 1.2418C30.9793 1.21628 30.9331 1.21191 30.9331 1.21191C30.9331 1.21191 30.9612 1.24891 31.0068 1.27443Z" fill="#999999"/>
<path d="M30.8976 1.42962C30.872 1.47534 30.8677 1.52154 30.8677 1.52154C30.8677 1.52154 30.9047 1.4936 30.9302 1.44788C30.9557 1.40216 30.9602 1.35596 30.9602 1.35596C30.9602 1.35596 30.9231 1.3839 30.8976 1.42962Z" fill="#999999"/>
<path d="M31.0791 1.70569C31.1046 1.65997 31.1092 1.61377 31.1092 1.61377C31.1092 1.61377 31.0722 1.64172 31.0467 1.68743C31.0211 1.73315 31.0166 1.77936 31.0166 1.77936C31.0166 1.77936 31.0536 1.75141 31.0791 1.70569Z" fill="#999999"/>
<path d="M31.2871 1.34387C31.3127 1.29816 31.3172 1.25195 31.3172 1.25195C31.3172 1.25195 31.2802 1.2799 31.2547 1.32562C31.2291 1.37134 31.2246 1.41754 31.2246 1.41754C31.2246 1.41754 31.2616 1.38959 31.2871 1.34387Z" fill="#999999"/>
<path d="M31.1591 1.53078C31.2048 1.55631 31.251 1.56083 31.251 1.56083C31.251 1.56083 31.2231 1.52384 31.1774 1.49831C31.1317 1.47279 31.0854 1.46826 31.0854 1.46826C31.0854 1.46826 31.1134 1.50526 31.1591 1.53078Z" fill="#999999"/>
<path d="M31.3845 1.55023C31.359 1.59595 31.3545 1.64215 31.3545 1.64215C31.3545 1.64215 31.3915 1.6142 31.417 1.56848C31.4425 1.52277 31.4471 1.47656 31.4471 1.47656C31.4471 1.47656 31.4101 1.50451 31.3845 1.55023Z" fill="#999999"/>
</g>
<path d="M39.9653 4.16357L39.9653 3.91043C39.9653 3.88248 39.9879 3.85986 40.0159 3.85986L40.1259 3.85986C40.1539 3.85986 40.1765 3.88248 40.1765 3.91043L40.1765 4.16357C40.1765 4.19152 40.1539 4.21414 40.1259 4.21414H40.0159C39.9879 4.21398 39.9653 4.19136 39.9653 4.16357Z" fill="url(#paint3_linear_580_4992)"/>
<path d="M39.9653 4.65487L39.9653 4.85826C39.9653 4.89994 39.9991 4.93354 40.0406 4.93354H40.1009C40.1425 4.93354 40.1762 4.89977 40.1762 4.85826L40.1762 4.65487C40.1762 4.61319 40.1424 4.57959 40.1009 4.57959H40.0406C39.9991 4.57943 39.9653 4.61319 39.9653 4.65487Z" fill="url(#paint4_linear_580_4992)"/>
<path d="M39.3657 4.51362L39.3664 4.31443C39.3669 4.19262 39.4659 4.09424 39.5877 4.09473L40.245 4.09715C40.3668 4.09763 40.4652 4.19666 40.4647 4.31847L40.4641 4.51766C40.4636 4.63947 40.3646 4.73785 40.2428 4.73737L39.5854 4.73494C39.4636 4.73446 39.3652 4.63543 39.3657 4.51362Z" fill="url(#paint5_linear_580_4992)"/>
<path d="M39.9653 14.4229L39.9653 14.1697C39.9653 14.1419 39.9879 14.1191 40.0159 14.1191H40.1259C40.1539 14.1191 40.1765 14.1418 40.1765 14.1697L40.1765 14.4229C40.1765 14.4508 40.1539 14.4734 40.1259 14.4734H40.0159C39.9879 14.4734 39.9653 14.4508 39.9653 14.4229Z" fill="url(#paint6_linear_580_4992)"/>
<path d="M39.9653 14.9141L39.9653 15.1175C39.9653 15.1592 39.9991 15.1928 40.0406 15.1928H40.1009C40.1425 15.1928 40.1762 15.1591 40.1762 15.1175L40.1762 14.9141C40.1762 14.8725 40.1424 14.8389 40.1009 14.8389H40.0406C39.9991 14.8389 39.9653 14.8726 39.9653 14.9141Z" fill="url(#paint7_linear_580_4992)"/>
<path d="M39.3657 14.7729L39.3664 14.5737C39.3669 14.4519 39.4659 14.3535 39.5877 14.354L40.245 14.3564C40.3668 14.3569 40.4652 14.4559 40.4647 14.5778L40.4641 14.7769C40.4636 14.8987 40.3646 14.9971 40.2428 14.9966L39.5854 14.9942C39.4636 14.9939 39.3652 14.8947 39.3657 14.7729Z" fill="url(#paint8_linear_580_4992)"/>
<path d="M24.9624 17.3149L24.9624 1.73926L38.859 1.73926C39.4056 1.73926 39.8484 2.18222 39.8484 2.72858L39.8484 16.3254C39.8484 16.872 39.4054 17.3149 38.859 17.3149L24.9624 17.3149Z" fill="#E1E2DD"/>
<path d="M39.8485 15.8382L39.8485 3.21581C39.8485 2.40031 39.1874 1.73926 38.3719 1.73926L37.7007 1.73926L37.7007 17.3149H38.3719C39.1874 17.3149 39.8485 16.6537 39.8485 15.8382Z" fill="url(#paint9_linear_580_4992)"/>
<path d="M39.8485 15.8382L39.8485 3.21581C39.8485 2.40031 39.1874 1.73926 38.3719 1.73926L37.7007 1.73926L37.7007 17.3149H38.3719C39.1874 17.3149 39.8485 16.6537 39.8485 15.8382Z" fill="url(#paint10_linear_580_4992)"/>
<path opacity="0.2" d="M39.4835 15.6264L39.4835 3.42711C39.4835 2.63892 38.8225 2 38.007 2L37.7007 2L37.7007 17.0534H38.007C38.8225 17.0535 39.4835 16.4146 39.4835 15.6264Z" fill="black"/>
<path d="M25.2598 2.22119L38.2781 2.22119C38.6461 2.22119 38.9445 2.51957 38.9445 2.88758L38.9445 16.1662C38.9445 16.5342 38.6461 16.8326 38.2781 16.8326L25.2598 16.8326L25.2598 2.22119Z" fill="#F5F7EA"/>
<g opacity="0.1">
<path d="M25.2598 2.22119L38.2781 2.22119C38.6461 2.22119 38.9445 2.51957 38.9445 2.88758L38.9445 16.1662C38.9445 16.5342 38.6461 16.8326 38.2781 16.8326L25.2598 16.8326L25.2598 2.22119Z" fill="url(#paint11_radial_580_4992)"/>
</g>
<g opacity="0.5">
<path d="M25.2598 2.22119L38.2781 2.22119C38.6461 2.22119 38.9445 2.51957 38.9445 2.88758L38.9445 16.1662C38.9445 16.5342 38.6461 16.8326 38.2781 16.8326L25.2598 16.8326L25.2598 2.22119Z" fill="url(#paint12_linear_580_4992)"/>
</g>
<path opacity="0.3" d="M38.9442 6.06574L38.9442 5.21519L29.2394 4.48047L29.1758 5.33102L38.9442 6.06574Z" fill="url(#paint13_linear_580_4992)"/>
<path opacity="0.3" d="M38.9442 12.981L38.9442 13.8315L29.2394 14.5662L29.1758 13.7157L38.9442 12.981Z" fill="url(#paint14_linear_580_4992)"/>
<path d="M39.366 15.8379L39.366 3.21552C39.366 2.66723 38.9201 2.22119 38.3717 2.22119L37.9497 2.22119C38.4988 2.22119 38.9442 2.66642 38.9442 3.21552L38.9442 15.8379C38.9442 16.3872 38.499 16.8324 37.9497 16.8324H38.3717C38.9201 16.8324 39.366 16.3864 39.366 15.8379Z" fill="#CCCCCC"/>
<path opacity="0.4" d="M39.3184 12.9222L39.3184 6.06641H39.2633L39.2633 12.9222H39.3184Z" fill="#666666"/>
<path opacity="0.4" d="M39.2246 12.9222L39.2246 6.06641H39.1695L39.1695 12.9222H39.2246Z" fill="#666666"/>
<path opacity="0.4" d="M39.1309 12.9222L39.1309 6.06641H39.0758L39.0758 12.9222H39.1309Z" fill="#666666"/>
<path opacity="0.4" d="M39.0376 12.9222L39.0376 6.06641H38.9825L38.9825 12.9222H39.0376Z" fill="#666666"/>
<path d="M39.3665 3.2173V3.21552C39.3665 2.66723 38.9206 2.22119 38.3722 2.22119L37.9502 2.22119C38.4993 2.22119 38.9447 2.66642 38.9447 3.21552V3.2173L39.3665 3.2173Z" fill="#FF6600"/>
<path d="M38.9443 6.0274L38.9443 3.21533L39.3663 3.21533L39.3663 6.30623L38.9443 6.0274Z" fill="#DCFFFE"/>
<path d="M38.9819 3.21711L38.9819 6.05228L39.076 6.11448L39.076 3.21711V3.21533H38.9819V3.21711Z" fill="white"/>
<path opacity="0.4" d="M39.0763 3.21552C39.0763 2.66723 38.6304 2.22119 38.082 2.22119H37.9878C38.5361 2.22119 38.9821 2.66723 38.9821 3.21552V3.2173H39.0763V3.21552Z" fill="white"/>
<path d="M37.9878 2.22108L37.9878 2.12237C37.9878 2.09669 38.0201 2.07568 38.0598 2.07568L38.3375 2.07568C38.3773 2.07568 38.4096 2.09652 38.4096 2.12237L38.4096 2.22108L37.9878 2.22108Z" fill="#FF6600"/>
<path d="M39.3665 15.8193V15.8211C39.3665 16.3694 38.9206 16.8154 38.3722 16.8154H37.9502C38.4993 16.8154 38.9447 16.3702 38.9447 15.8211V15.8193H39.3665Z" fill="#FF6600"/>
<path d="M38.9443 13.0087L38.9443 15.8207H39.3663L39.3663 12.73L38.9443 13.0087Z" fill="#DCFFFE"/>
<path d="M38.9819 15.8188L38.9819 12.9836L39.076 12.9214L39.076 15.8188V15.8205H38.9819V15.8188Z" fill="white"/>
<path opacity="0.4" d="M39.0763 15.8211C39.0763 16.3694 38.6304 16.8154 38.082 16.8154H37.9878C38.5361 16.8154 38.9821 16.3694 38.9821 15.8211V15.8193H39.0763V15.8211Z" fill="white"/>
<path d="M37.9878 16.8149L37.9878 16.9137C37.9878 16.9393 38.0201 16.9603 38.0598 16.9603H38.3375C38.3773 16.9603 38.4096 16.9395 38.4096 16.9137L38.4096 16.8149H37.9878Z" fill="#FF6600"/>
<path d="M28.0326 3.51451C28.2605 5.0699 28.8033 11.9602 28.0812 15.3581C28.0095 15.6954 28.1851 16.035 28.5014 16.1721L32.6967 16.7865C33.0223 16.9277 33.3978 16.7574 33.503 16.4183C34.0399 14.688 35.2711 9.50455 33.4429 2.65491C33.3511 2.3113 32.9749 2.12875 32.6451 2.26202L28.4794 2.73811C28.1692 2.86331 27.9841 3.18334 28.0326 3.51451Z" fill="#F4F4F4"/>
<path opacity="0.5" d="M28.0326 3.51451C28.2605 5.0699 28.8033 11.9602 28.0812 15.3581C28.0095 15.6954 28.1851 16.035 28.5014 16.1721L32.6967 16.7865C33.0223 16.9277 33.3978 16.7574 33.503 16.4183C34.0399 14.688 35.2711 9.50455 33.4429 2.65491C33.3511 2.3113 32.9749 2.12875 32.6451 2.26202L28.4794 2.73811C28.1692 2.86331 27.9841 3.18334 28.0326 3.51451Z" fill="url(#paint15_linear_580_4992)"/>
<path d="M28.3174 3.40933C28.3174 3.23308 28.424 3.07621 28.5888 3.00949L32.7545 2.53341C32.8359 2.50062 32.9278 2.50433 33.0064 2.54359C33.0833 2.58204 33.1379 2.64843 33.16 2.7305C33.7942 5.10671 34.1159 7.50764 34.1159 9.86656C34.1159 12.9893 33.5566 15.2574 33.2231 16.3316C33.1975 16.4143 33.1403 16.4797 33.0616 16.5157C32.9821 16.5522 32.8941 16.553 32.8128 16.5178L28.6177 15.9035C28.4599 15.835 28.3578 15.6802 28.3578 15.5091C28.3578 15.4791 28.361 15.4489 28.3675 15.4188C28.6119 14.2683 28.7358 11.6859 28.7358 10.1207C28.7358 7.84123 28.4767 4.52643 28.3221 3.47201C28.3188 3.45084 28.3174 3.43 28.3174 3.40933Z" fill="black"/>
<path d="M28.4644 3.40958C28.4644 3.29326 28.535 3.18971 28.6442 3.14561L32.8099 2.66952C32.8679 2.6461 32.9171 2.66274 32.9414 2.67485C32.9692 2.68875 33.0049 2.71621 33.0189 2.76855C33.6499 5.13248 33.97 7.52065 33.97 9.86681C33.97 12.9703 33.4147 15.2223 33.0839 16.2884C33.0661 16.3459 33.0244 16.3724 33.0011 16.383C32.9771 16.3938 32.9288 16.4085 32.8716 16.3838L28.6761 15.7695C28.5721 15.7242 28.5046 15.6221 28.5046 15.5094C28.5046 15.4895 28.5068 15.4695 28.5109 15.4496C28.7577 14.289 28.8826 11.6963 28.8826 10.1209C28.8826 7.83228 28.6224 4.50939 28.4674 3.45109C28.4655 3.4372 28.4644 3.42331 28.4644 3.40958Z" fill="#676B86"/>
<path opacity="0.2" d="M31.6724 2.79953C32.0867 4.50435 32.4192 7.05503 32.4192 9.52752C32.4192 11.974 32.079 14.51 31.6724 16.2082L32.8715 16.3838C32.9287 16.4085 32.977 16.3938 33.0011 16.383C33.0242 16.3723 33.066 16.3458 33.0838 16.2883C33.4147 15.2223 33.9699 12.9703 33.9699 9.86677C33.9699 7.52061 33.6499 5.13244 33.0189 2.76851C33.0048 2.71617 32.9691 2.68871 32.9413 2.67481C32.9171 2.66286 32.8678 2.64605 32.8098 2.66948L31.6724 2.79953Z" fill="black"/>
<path d="M32.7275 2.7026C33.1784 4.52825 33.4521 6.91416 33.4521 9.52752C33.4521 12.1275 33.1812 14.5022 32.7345 16.3243L32.8716 16.3838C32.9288 16.4085 32.9771 16.3938 33.0012 16.383C33.0243 16.3723 33.0661 16.3458 33.0839 16.2883C33.4148 15.2223 33.97 12.9703 33.97 9.86677C33.97 7.52061 33.65 5.13244 33.019 2.76851C33.0049 2.71617 32.9692 2.68871 32.9414 2.67481C32.9172 2.66286 32.8679 2.64605 32.8099 2.66948L32.7275 2.7026Z" fill="#333333"/>
<path d="M32.7993 4.91602L33.1967 6.82487L33.1012 6.84232L32.7515 4.92458L32.7993 4.91602Z" fill="black"/>
<path d="M33.5845 9.48792L33.1089 6.88037L33.2312 7.00928L33.68 9.47047L33.5845 9.48792Z" fill="black"/>
<path d="M32.7471 5.03607L33.5761 9.59028L33.627 9.58091L32.777 4.91992L32.7471 5.03607Z" fill="#333333"/>
<path d="M33.6059 9.47289C33.6789 9.45964 33.7488 9.50795 33.7621 9.58097C33.7753 9.65399 33.727 9.72394 33.654 9.73719C33.581 9.75043 33.511 9.70213 33.4978 9.62911C33.4845 9.55609 33.5328 9.48614 33.6059 9.47289Z" fill="black"/>
<path d="M33.582 9.47737C33.6418 9.46654 33.6991 9.50612 33.71 9.5659C33.7209 9.62567 33.6812 9.68302 33.6214 9.69384C33.5617 9.70483 33.5043 9.66509 33.4935 9.60531C33.4827 9.54554 33.5222 9.48819 33.582 9.47737Z" fill="#333333"/>
<path d="M33.0131 9.14648L33.2175 11.0855L33.1207 11.0935L32.9648 9.15036L33.0131 9.14648Z" fill="black"/>
<path d="M33.3355 13.774L33.1235 11.1318L33.2321 11.2725L33.4323 13.7662L33.3355 13.774Z" fill="black"/>
<path d="M32.9497 9.26104L33.3185 13.8753L33.3702 13.8711L32.9911 9.14844L32.9497 9.26104Z" fill="#333333"/>
<path d="M33.3594 13.7617C33.4334 13.7557 33.498 13.8109 33.504 13.8848C33.5099 13.9588 33.4547 14.0234 33.3809 14.0294C33.3069 14.0353 33.2423 13.9801 33.2363 13.9063C33.2303 13.8324 33.2854 13.7677 33.3594 13.7617Z" fill="black"/>
<path d="M33.3355 13.7631C33.3961 13.7582 33.4491 13.8033 33.4541 13.8639C33.459 13.9244 33.4137 13.9774 33.3531 13.9823C33.2926 13.9871 33.2396 13.942 33.2347 13.8815C33.2299 13.8209 33.275 13.7679 33.3355 13.7631Z" fill="#333333"/>
<path opacity="0.5" d="M28.4644 3.40958C28.4644 3.29326 28.535 3.18971 28.6442 3.14561L32.8099 2.66952C32.8679 2.6461 32.9171 2.66274 32.9414 2.67485C32.9692 2.68875 33.0049 2.71621 33.0189 2.76855C33.6499 5.13248 33.97 7.52065 33.97 9.86681C33.97 12.9703 33.4147 15.2223 33.0839 16.2884C33.0661 16.3459 33.0244 16.3724 33.0011 16.383C32.9771 16.3938 32.9288 16.4085 32.8716 16.3838L28.6761 15.7695C28.5721 15.7242 28.5046 15.6221 28.5046 15.5094C28.5046 15.4895 28.5068 15.4695 28.5109 15.4496C28.7577 14.289 28.8826 11.6963 28.8826 10.1209C28.8826 7.83228 28.6224 4.50939 28.4674 3.45109C28.4655 3.4372 28.4644 3.42331 28.4644 3.40958Z" fill="url(#paint16_radial_580_4992)"/>
<path opacity="0.3" d="M28.4644 3.40958C28.4644 3.29326 28.535 3.18971 28.6442 3.14561L32.8099 2.66952C32.8679 2.6461 32.9171 2.66274 32.9414 2.67485C32.9692 2.68875 33.0049 2.71621 33.0189 2.76855C33.6499 5.13248 33.97 7.52065 33.97 9.86681C33.97 12.9703 33.4147 15.2223 33.0839 16.2884C33.0661 16.3459 33.0244 16.3724 33.0011 16.383C32.9771 16.3938 32.9288 16.4085 32.8716 16.3838L28.6761 15.7695C28.5721 15.7242 28.5046 15.6221 28.5046 15.5094C28.5046 15.4895 28.5068 15.4695 28.5109 15.4496C28.7577 14.289 28.8826 11.6963 28.8826 10.1209C28.8826 7.83228 28.6224 4.50939 28.4674 3.45109C28.4655 3.4372 28.4644 3.42331 28.4644 3.40958Z" fill="url(#paint17_radial_580_4992)"/>
<path d="M25.2568 2.21475C25.2568 2.22154 25.258 2.22849 25.2597 2.23544L25.2568 2.90699C25.2774 2.97629 25.4006 3.02864 25.5434 3.02864L27.483 3.02864C27.5219 3.02864 27.5599 3.02492 27.5957 3.01749L32.9741 2.29585C33.0359 2.28309 33.0744 2.25482 33.0744 2.22203C33.0744 2.17679 33.0023 2.14125 32.9102 2.14125L25.5463 2.07275C25.4683 2.07275 25.3954 2.08762 25.3407 2.11492C25.2864 2.14174 25.2568 2.17728 25.2568 2.21475Z" fill="#F4F4F4"/>
<path opacity="0.5" d="M25.2568 2.21475C25.2568 2.22154 25.258 2.22849 25.2597 2.23544L25.2568 2.90699C25.2774 2.97629 25.4006 3.02864 25.5434 3.02864L27.483 3.02864C27.5219 3.02864 27.5599 3.02492 27.5957 3.01749L32.9741 2.29585C33.0359 2.28309 33.0744 2.25482 33.0744 2.22203C33.0744 2.17679 33.0023 2.14125 32.9102 2.14125L25.5463 2.07275C25.4683 2.07275 25.3954 2.08762 25.3407 2.11492C25.2864 2.14174 25.2568 2.17728 25.2568 2.21475Z" fill="url(#paint18_linear_580_4992)"/>
<path d="M32.9317 2.24633L27.5532 2.96796C27.531 2.97265 27.507 2.97491 27.4828 2.97491L25.5434 2.97491C25.4534 2.97491 25.3772 2.94244 25.3643 2.89882L25.3672 2.22726C25.3512 2.17363 25.436 2.12549 25.5463 2.12549L32.9102 2.19399C32.9705 2.19415 32.9871 2.23486 32.9317 2.24633Z" fill="black"/>
<path d="M25.4746 2.21991L25.4717 2.89146C25.4767 2.90891 25.5075 2.922 25.5434 2.922L27.483 2.922C27.4927 2.922 27.502 2.92103 27.5109 2.91925L32.6479 2.2477L25.5463 2.1792C25.5268 2.1792 25.5085 2.18292 25.4948 2.1897C25.4812 2.19649 25.4738 2.20537 25.4738 2.21474L25.4746 2.21991Z" fill="#676B86"/>
<path opacity="0.2" d="M25.5407 2.44123L25.4749 2.22007L25.4741 2.21474C25.4741 2.20537 25.4816 2.19648 25.4951 2.1897C25.5089 2.18291 25.5271 2.1792 25.5467 2.1792L32.6482 2.24769L30.1943 2.36272L25.5407 2.44123Z" fill="black"/>
<path opacity="0.5" d="M25.4746 2.21991L25.4717 2.89146C25.4767 2.90891 25.5075 2.922 25.5434 2.922L27.483 2.922C27.4927 2.922 27.502 2.92103 27.5109 2.91925L32.6479 2.2477L25.5463 2.1792C25.5268 2.1792 25.5085 2.18292 25.4948 2.1897C25.4812 2.19649 25.4738 2.20537 25.4738 2.21474L25.4746 2.21991Z" fill="url(#paint19_linear_580_4992)"/>
<path opacity="0.3" d="M25.4746 2.21991L25.4717 2.89146C25.4767 2.90891 25.5075 2.922 25.5434 2.922L27.483 2.922C27.4927 2.922 27.502 2.92103 27.5109 2.91925L32.6479 2.2477L25.5463 2.1792C25.5268 2.1792 25.5085 2.18292 25.4948 2.1897C25.4812 2.19649 25.4738 2.20537 25.4738 2.21474L25.4746 2.21991Z" fill="url(#paint20_linear_580_4992)"/>
<path d="M25.2578 16.8798C25.2578 16.873 25.2589 16.8661 25.2607 16.8591L25.2578 16.1876C25.2783 16.1183 25.4016 16.0659 25.5444 16.0659L27.484 16.0659C27.5229 16.0659 27.5609 16.0696 27.5967 16.0772L32.975 16.7989C33.0369 16.8118 33.0754 16.8399 33.0754 16.8727C33.0754 16.9179 33.0033 16.9535 32.9112 16.9535L25.5473 17.022C25.4693 17.022 25.3964 17.0071 25.3417 16.98C25.2874 16.9528 25.2578 16.9173 25.2578 16.8798Z" fill="#F4F4F4"/>
<path opacity="0.5" d="M25.2578 16.8798C25.2578 16.873 25.2589 16.8661 25.2607 16.8591L25.2578 16.1876C25.2783 16.1183 25.4016 16.0659 25.5444 16.0659L27.484 16.0659C27.5229 16.0659 27.5609 16.0696 27.5967 16.0772L32.975 16.7989C33.0369 16.8118 33.0754 16.8399 33.0754 16.8727C33.0754 16.9179 33.0033 16.9535 32.9112 16.9535L25.5473 17.022C25.4693 17.022 25.3964 17.0071 25.3417 16.98C25.2874 16.9528 25.2578 16.9173 25.2578 16.8798Z" fill="url(#paint21_linear_580_4992)"/>
<path d="M32.9327 16.8482L27.5542 16.1266C27.5319 16.1219 27.508 16.1196 27.4838 16.1196L25.5444 16.1196C25.4544 16.1196 25.3782 16.1519 25.3652 16.1957L25.3681 16.8673C25.3521 16.9209 25.437 16.969 25.5473 16.969L32.9112 16.9006C32.9715 16.9004 32.9881 16.8598 32.9327 16.8482Z" fill="black"/>
<path d="M25.4756 16.8745L25.4727 16.2029C25.4777 16.1854 25.5085 16.1724 25.5444 16.1724L27.4839 16.1724C27.4936 16.1724 27.503 16.1733 27.5119 16.1751L32.6488 16.8467L25.5473 16.9152C25.5277 16.9152 25.5095 16.9114 25.4958 16.9047C25.4822 16.8979 25.4748 16.889 25.4748 16.8796L25.4756 16.8745Z" fill="#676B86"/>
<path opacity="0.2" d="M25.5412 16.6533L25.4754 16.8745L25.4746 16.8798C25.4746 16.8892 25.482 16.8981 25.4956 16.9049C25.5093 16.9116 25.5276 16.9154 25.5471 16.9154L32.6487 16.8469L30.1948 16.7318L25.5412 16.6533Z" fill="black"/>
<path opacity="0.5" d="M25.4756 16.8745L25.4727 16.2029C25.4777 16.1854 25.5085 16.1724 25.5444 16.1724L27.4839 16.1724C27.4936 16.1724 27.503 16.1733 27.5119 16.1751L32.6488 16.8467L25.5473 16.9152C25.5277 16.9152 25.5095 16.9114 25.4958 16.9047C25.4822 16.8979 25.4748 16.889 25.4748 16.8796L25.4756 16.8745Z" fill="url(#paint22_linear_580_4992)"/>
<path opacity="0.3" d="M25.4756 16.8745L25.4727 16.2029C25.4777 16.1854 25.5085 16.1724 25.5444 16.1724L27.4839 16.1724C27.4936 16.1724 27.503 16.1733 27.5119 16.1751L32.6488 16.8467L25.5473 16.9152C25.5277 16.9152 25.5095 16.9114 25.4958 16.9047C25.4822 16.8979 25.4748 16.889 25.4748 16.8796L25.4756 16.8745Z" fill="url(#paint23_linear_580_4992)"/>
<path d="M32.1237 2.22196L31.4946 0.589844L31.7991 0.589844C31.9424 0.589844 32.071 0.678048 32.1226 0.81181L32.6662 2.22196L32.1237 2.22196Z" fill="#999999"/>
<path opacity="0.4" d="M32.0861 2.22196L31.457 0.589844L31.7615 0.589844C31.9048 0.589844 32.0334 0.678048 32.0851 0.81181L32.6287 2.22196L32.0861 2.22196Z" fill="url(#paint24_linear_580_4992)"/>
<path d="M31.6971 1.75444L31.3616 0.724252C31.3399 0.657856 31.3894 0.589844 31.4592 0.589844L31.8338 0.589844L32.2362 1.82552L31.7949 1.82552C31.7504 1.82536 31.711 1.79661 31.6971 1.75444Z" fill="#666666"/>
<path opacity="0.3" d="M31.6971 1.75444L31.3616 0.724252C31.3399 0.657856 31.3894 0.589844 31.4592 0.589844L31.8338 0.589844L32.2362 1.82552L31.7949 1.82552C31.7504 1.82536 31.711 1.79661 31.6971 1.75444Z" fill="url(#paint25_linear_580_4992)"/>
<path d="M32.1237 16.8877L31.4946 18.5198H31.7991C31.9424 18.5198 32.071 18.4316 32.1226 18.2978L32.6662 16.8877L32.1237 16.8877Z" fill="#999999"/>
<path opacity="0.4" d="M32.0861 16.8877L31.457 18.5198H31.7615C31.9048 18.5198 32.0334 18.4316 32.0851 18.2978L32.6287 16.8877L32.0861 16.8877Z" fill="url(#paint26_linear_580_4992)"/>
<path d="M31.6971 17.3551L31.3616 18.3853C31.3399 18.4517 31.3894 18.5199 31.4592 18.5199H31.8338L32.2362 17.2842H31.7949C31.7504 17.2843 31.711 17.3129 31.6971 17.3551Z" fill="#666666"/>
<path opacity="0.3" d="M31.6971 17.3551L31.3616 18.3853C31.3399 18.4517 31.3894 18.5199 31.4592 18.5199H31.8338L32.2362 17.2842H31.7949C31.7504 17.2843 31.711 17.3129 31.6971 17.3551Z" fill="url(#paint27_linear_580_4992)"/>
<path opacity="0.7" d="M25.5601 13.6695L25.5601 4.8999L26.6382 5.22252L26.6382 13.9922L25.5601 13.6695Z" fill="url(#paint28_linear_580_4992)"/>
<path d="M25.8257 13.8263L25.8257 5.22708C25.8257 4.96602 26.0373 4.75439 26.2984 4.75439L26.8011 4.75439C27.0622 4.75439 27.2738 4.96602 27.2738 5.22708L27.2738 13.8263C27.2738 14.0874 27.0622 14.299 26.8011 14.299L26.2984 14.299C26.0373 14.299 25.8257 14.0874 25.8257 13.8263Z" fill="#999999"/>
<path d="M27.2736 13.826L27.2736 10.5879L25.8257 10.5879L25.8257 13.826C25.8257 14.087 26.0373 14.2987 26.2984 14.2987L26.8011 14.2987C27.062 14.2987 27.2736 14.087 27.2736 13.826Z" fill="#5D94FF"/>
<path opacity="0.5" d="M26.1704 10.9331L26.9294 10.9331L26.9294 13.8266C26.9294 13.897 26.8719 13.9545 26.8011 13.9545H26.2987C26.2279 13.9545 26.1704 13.8972 26.1704 13.8266L26.1704 10.9331Z" fill="#5384E4"/>
<path d="M27.2736 5.22708L27.2736 8.46516L25.8257 8.46516L25.8257 5.22708C25.8257 4.96602 26.0373 4.75439 26.2984 4.75439L26.8011 4.75439C27.062 4.75439 27.2736 4.96602 27.2736 5.22708Z" fill="#CC0000"/>
<path opacity="0.3" d="M26.1704 5.22723C26.1704 5.15663 26.2279 5.09912 26.2987 5.09912L26.8011 5.09912C26.8719 5.09912 26.9294 5.15647 26.9294 5.22723L26.9294 8.12072L26.1704 8.12072L26.1704 5.22723Z" fill="#660000"/>
<path opacity="0.5" d="M25.8257 13.8263L25.8257 5.22708C25.8257 4.96602 26.0373 4.75439 26.2984 4.75439L26.8011 4.75439C27.0622 4.75439 27.2738 4.96602 27.2738 5.22708L27.2738 13.8263C27.2738 14.0874 27.0622 14.299 26.8011 14.299L26.2984 14.299C26.0373 14.299 25.8257 14.0874 25.8257 13.8263Z" fill="url(#paint29_radial_580_4992)"/>
<path opacity="0.5" d="M25.8257 13.8263L25.8257 5.22708C25.8257 4.96602 26.0373 4.75439 26.2984 4.75439L26.8011 4.75439C27.0622 4.75439 27.2738 4.96602 27.2738 5.22708L27.2738 13.8263C27.2738 14.0874 27.0622 14.299 26.8011 14.299L26.2984 14.299C26.0373 14.299 25.8257 14.0874 25.8257 13.8263Z" fill="url(#paint30_linear_580_4992)"/>
<path d="M27.1537 13.6528L27.1537 5.40073C27.1537 5.15017 26.9681 4.94727 26.7391 4.94727H26.5503C26.7792 4.94727 26.9648 5.15033 26.9648 5.40073L26.9648 13.6528C26.9648 13.9032 26.7792 14.1062 26.5503 14.1062H26.7391C26.9681 14.1062 27.1537 13.9032 27.1537 13.6528Z" fill="url(#paint31_linear_580_4992)"/>
<path d="M25.9463 13.6528L25.9463 5.40073C25.9463 5.15017 26.1319 4.94727 26.3608 4.94727H26.5497C26.3208 4.94727 26.1351 5.15033 26.1351 5.40073L26.1351 13.6528C26.1351 13.9032 26.3208 14.1062 26.5497 14.1062L26.3608 14.1062C26.1317 14.1062 25.9463 13.9032 25.9463 13.6528Z" fill="url(#paint32_linear_580_4992)"/>
<path opacity="0.4" d="M27.1929 4.96387L27.0511 5.08293C27.0028 5.12364 26.9102 5.14884 26.8097 5.149L26.29 5.14949C26.1892 5.14965 26.0962 5.12429 26.0477 5.08342L25.9054 4.96387C25.8836 4.9965 25.8673 5.03269 25.854 5.07033L25.9501 5.1511C26.0012 5.19391 26.0988 5.22057 26.2047 5.22041L26.8918 5.21992C26.997 5.21976 27.0939 5.19343 27.1448 5.15094L27.2438 5.06839C27.2307 5.03156 27.2146 4.99585 27.1929 4.96387Z" fill="white"/>
<path opacity="0.4" d="M27.1929 14.0827L27.0511 13.9637C27.0028 13.9229 26.9102 13.8977 26.8097 13.8976L26.29 13.8971C26.1892 13.8971 26.0962 13.9223 26.0477 13.9632L25.9054 14.0827C25.8836 14.0501 25.8673 14.0139 25.854 13.9763L25.9501 13.8955C26.0012 13.8527 26.0988 13.826 26.2047 13.8262L26.8918 13.8268C26.997 13.8268 27.0939 13.8533 27.1448 13.8958L27.2438 13.9784C27.2307 14.0152 27.2146 14.0507 27.1929 14.0827Z" fill="white"/>
<path opacity="0.4" d="M26.5843 5.44385H26.5146L26.5146 13.6098H26.5843L26.5843 5.44385Z" fill="black"/>
<path d="M0.83252 17.7291L0.83252 1.32546C0.83252 1.12918 0.991648 0.970215 1.18793 0.970215L24.6074 0.970215C24.8037 0.970215 24.9628 1.12934 24.9628 1.32546L24.9628 17.7291C24.9628 17.9253 24.8037 18.0845 24.6074 18.0845L1.18793 18.0845C0.991648 18.0845 0.83252 17.9253 0.83252 17.7291Z" fill="#CC3300"/>
<path d="M1.07324 1.32531C1.07324 1.26231 1.12462 1.21094 1.18746 1.21094L24.6069 1.21094C24.6698 1.21094 24.7212 1.26231 24.7212 1.32531L24.7212 17.7288C24.7212 17.7918 24.6698 17.843 24.6069 17.843L1.18746 17.843C1.12462 17.843 1.07324 17.7916 1.07324 17.7288L1.07324 1.32531Z" fill="#F5F7EA"/>
<path d="M1.07324 1.32531C1.07324 1.26231 1.12462 1.21094 1.18746 1.21094L24.6069 1.21094C24.6698 1.21094 24.7212 1.26231 24.7212 1.32531L24.7212 17.7288C24.7212 17.7918 24.6698 17.843 24.6069 17.843L1.18746 17.843C1.12462 17.843 1.07324 17.7916 1.07324 17.7288L1.07324 1.32531Z" fill="url(#paint33_radial_580_4992)"/>
<path opacity="0.2" d="M1.07324 1.32531C1.07324 1.26231 1.12462 1.21094 1.18746 1.21094L24.6069 1.21094C24.6698 1.21094 24.7212 1.26231 24.7212 1.32531L24.7212 17.7288C24.7212 17.7918 24.6698 17.843 24.6069 17.843L1.18746 17.843C1.12462 17.843 1.07324 17.7916 1.07324 17.7288L1.07324 1.32531Z" fill="#FF8282"/>
<path d="M0.711208 3.59693L0.83253 3.59693L0.83253 1.93945L0.711208 1.93945C0.575183 1.93945 0.464844 2.04979 0.464844 2.18598L0.464844 3.35057C0.464844 3.4866 0.575183 3.59693 0.711208 3.59693Z" fill="#EF0C0C"/>
<path opacity="0.4" d="M0.79132 3.41012L0.79132 2.12598C0.63397 2.12598 0.506348 2.2536 0.506348 2.41094L0.506348 3.12515C0.506348 3.2825 0.63397 3.41012 0.79132 3.41012Z" fill="#660000"/>
<path d="M0.808941 2.04102L0.808941 2.04893C0.664193 2.08076 0.555793 2.20935 0.555793 2.36363L0.555793 3.17218C0.555793 3.32646 0.664193 3.45505 0.808941 3.48687L0.808941 3.49479C0.630752 3.49479 0.486328 3.35037 0.486328 3.17218L0.486328 2.36363C0.486328 2.18544 0.630752 2.04102 0.808941 2.04102Z" fill="url(#paint34_linear_580_4992)"/>
<path opacity="0.6" d="M0.653894 3.04825C0.652924 2.89462 0.651956 2.74083 0.650825 2.58719C0.65034 2.51902 0.64404 2.44471 0.657448 2.37735C0.662941 2.35005 0.673603 2.29673 0.709628 2.29544C0.745008 2.29415 0.750502 2.33647 0.750664 2.36313C0.750664 2.43922 0.756155 3.30609 0.741778 3.30609C0.708821 3.30576 0.680552 3.27943 0.667789 3.2489C0.655027 3.21836 0.654702 3.18444 0.654379 3.15148C0.654379 3.11707 0.654055 3.08266 0.653894 3.04825Z" fill="url(#paint35_linear_580_4992)"/>
<path d="M0.711208 16.7771H0.83253L0.83253 15.1196H0.711208C0.575183 15.1196 0.464844 15.23 0.464844 15.366L0.464844 16.5306C0.464844 16.6666 0.575183 16.7771 0.711208 16.7771Z" fill="#EF0C0C"/>
<path opacity="0.4" d="M0.79132 16.5901L0.79132 15.3062C0.63397 15.3062 0.506348 15.4338 0.506348 15.5911L0.506348 16.3053C0.506348 16.4625 0.63397 16.5901 0.79132 16.5901Z" fill="#660000"/>
<path d="M0.809918 15.2217L0.809918 15.2296C0.66517 15.2614 0.55677 15.39 0.55677 15.5443L0.55677 16.3528C0.55677 16.5071 0.66517 16.6357 0.809918 16.6675L0.809918 16.6755C0.631729 16.6755 0.487305 16.531 0.487305 16.3528L0.487305 15.5443C0.487305 15.3661 0.631729 15.2217 0.809918 15.2217Z" fill="url(#paint36_linear_580_4992)"/>
<path opacity="0.6" d="M0.653894 16.2284C0.652924 16.0748 0.651956 15.921 0.650825 15.7674C0.65034 15.6992 0.64404 15.6249 0.657448 15.5575C0.662941 15.5302 0.673603 15.4769 0.709628 15.4756C0.745008 15.4743 0.750502 15.5166 0.750664 15.5433C0.750664 15.6194 0.756155 16.4863 0.741778 16.4863C0.708821 16.4859 0.680552 16.4596 0.667789 16.4291C0.655027 16.3985 0.654702 16.3646 0.654379 16.3317C0.654379 16.2971 0.654055 16.2627 0.653894 16.2284Z" fill="url(#paint37_linear_580_4992)"/>
<path d="M16.2221 8.46418L14.1361 8.46418C14.0393 8.46418 13.9607 8.3858 13.9607 8.28901L13.9607 6.203C13.9607 6.10621 13.8823 6.02783 13.7855 6.02783L12.0088 6.02783C11.912 6.02783 11.8333 6.10621 11.8333 6.203L11.8333 8.28901C11.8333 8.3858 11.755 8.46418 11.6582 8.46418L9.57215 8.46418C9.47535 8.46418 9.39697 8.54256 9.39697 8.63962L9.39697 10.4163C9.39697 10.5131 9.47535 10.5915 9.57215 10.5915L11.6582 10.5915C11.755 10.5915 11.8333 10.6699 11.8333 10.7669L11.8333 12.8527C11.8333 12.9495 11.9117 13.0278 12.0088 13.0278L13.7855 13.0278C13.8823 13.0278 13.9607 12.9495 13.9607 12.8527L13.9607 10.7669C13.9607 10.6701 14.039 10.5915 14.1361 10.5915L16.2221 10.5915C16.3189 10.5915 16.3973 10.5131 16.3973 10.4163L16.3973 8.63962C16.3973 8.54256 16.3189 8.46418 16.2221 8.46418Z" fill="#CC3300"/>
<path d="M0.83252 14.7127L0.83252 3.97168L0.509904 3.97168L0.509904 14.7127H0.83252Z" fill="#F5F7EA"/>
<path opacity="0.5" d="M0.509766 14.7122L0.509766 3.97119L0.832379 3.97119L0.832379 14.7122H0.509766Z" fill="url(#paint38_linear_580_4992)"/>
<path opacity="0.5" d="M0.83252 9.38445L0.83252 9.29932H0.509904L0.509904 9.38445H0.83252Z" fill="#666666"/>
<path d="M0.621884 9.02058L0.621884 4.21242C0.621884 4.1541 0.574711 4.10693 0.516392 4.10693H0.510254L0.510254 9.12607H0.516392C0.574711 9.12607 0.621884 9.0789 0.621884 9.02058Z" fill="#AAD5F9"/>
<path d="M0.621884 9.02058L0.621884 4.21242C0.621884 4.1541 0.574711 4.10693 0.516392 4.10693H0.510254L0.510254 4.12099C0.543048 4.13892 0.566149 4.17236 0.566149 4.21242L0.566149 9.02058C0.566149 9.06048 0.543048 9.09409 0.510254 9.11202L0.510254 9.12607H0.516392C0.574711 9.12607 0.621884 9.0789 0.621884 9.02058Z" fill="white"/>
<path d="M0.621395 14.4781L0.621395 9.66995C0.621395 9.61163 0.574223 9.56445 0.515904 9.56445H0.509766L0.509766 14.5836H0.515904C0.574223 14.5834 0.621395 14.5363 0.621395 14.4781Z" fill="#AAD5F9"/>
<path d="M0.621395 14.4781L0.621395 9.66995C0.621395 9.61163 0.574223 9.56445 0.515904 9.56445H0.509766L0.509766 9.57851C0.54256 9.59644 0.565661 9.62988 0.565661 9.66995L0.565661 14.4781C0.565661 14.518 0.54256 14.5516 0.509766 14.5695L0.509766 14.5836H0.515904C0.574223 14.5834 0.621395 14.5363 0.621395 14.4781Z" fill="white"/>
<path d="M24.7212 18.0837L30.6308 18.0837C30.8053 18.0837 30.9725 18.0144 31.0959 17.8912L31.6722 17.3149L24.7212 17.3149L24.7212 18.0837Z" fill="#CCCCCC"/>
<path d="M24.8423 17.963L24.8423 17.4351L31.3818 17.4351L31.0114 17.8057C30.9099 17.9071 30.775 17.963 30.6316 17.963L24.8423 17.963Z" fill="url(#paint39_linear_580_4992)"/>
<path opacity="0.5" d="M24.7212 18.0837L30.6308 18.0837C30.8053 18.0837 30.9725 18.0144 31.0959 17.8912L31.6722 17.3149L24.7212 17.3149L24.7212 18.0837Z" fill="url(#paint40_linear_580_4992)"/>
<path opacity="0.4" d="M24.7212 18.0837L30.6308 18.0837C30.8053 18.0837 30.9725 18.0144 31.0959 17.8912L31.6722 17.3149L24.7212 17.3149L24.7212 18.0837Z" fill="url(#paint41_linear_580_4992)"/>
<mask id="mask1_580_4992" style="mask-type:luminance" maskUnits="userSpaceOnUse" x="24" y="17" width="8" height="1">
<path d="M24.8423 17.963L24.8423 17.4351L31.3818 17.4351L31.0114 17.8057C30.9099 17.9071 30.775 17.963 30.6316 17.963L24.8423 17.963Z" fill="white"/>
</mask>
<g mask="url(#mask1_580_4992)">
<path d="M24.8936 17.5546C24.9191 17.6003 24.9236 17.6465 24.9236 17.6465C24.9236 17.6465 24.8866 17.6186 24.8611 17.5729C24.8356 17.5272 24.8311 17.481 24.8311 17.481C24.8311 17.481 24.8681 17.5089 24.8936 17.5546Z" fill="#999999"/>
<path d="M25.1026 17.9166C25.1281 17.9623 25.1326 18.0084 25.1326 18.0084C25.1326 18.0084 25.0956 17.9804 25.0701 17.9347C25.0446 17.889 25.04 17.8428 25.04 17.8428C25.04 17.8428 25.077 17.8709 25.1026 17.9166Z" fill="#999999"/>
<path d="M24.9732 17.7293C25.019 17.7037 25.065 17.6992 25.065 17.6992C25.065 17.6992 25.0371 17.7362 24.9913 17.7617C24.9456 17.7873 24.8994 17.7918 24.8994 17.7918C24.8994 17.7918 24.9275 17.7548 24.9732 17.7293Z" fill="#999999"/>
<path d="M25.101 17.5022C25.1467 17.4767 25.1929 17.4722 25.1929 17.4722C25.1929 17.4722 25.165 17.5092 25.1193 17.5347C25.0735 17.5602 25.0273 17.5647 25.0273 17.5647C25.0273 17.5647 25.0553 17.5277 25.101 17.5022Z" fill="#999999"/>
<path d="M25.3092 17.8639C25.3549 17.8383 25.4009 17.834 25.4009 17.834C25.4009 17.834 25.373 17.871 25.3273 17.8965C25.2816 17.922 25.2354 17.9264 25.2354 17.9264C25.2354 17.9264 25.2635 17.8894 25.3092 17.8639Z" fill="#999999"/>
<path d="M25.1995 17.7096C25.174 17.6639 25.1694 17.6177 25.1694 17.6177C25.1694 17.6177 25.2064 17.6456 25.232 17.6913C25.2575 17.7371 25.262 17.7831 25.262 17.7831C25.262 17.7831 25.225 17.7552 25.1995 17.7096Z" fill="#999999"/>
<path d="M25.3804 17.4311C25.4059 17.4768 25.4103 17.523 25.4103 17.523C25.4103 17.523 25.3733 17.4951 25.3478 17.4493C25.3222 17.4036 25.3179 17.3574 25.3179 17.3574C25.3179 17.3574 25.3549 17.3854 25.3804 17.4311Z" fill="#999999"/>
<path d="M25.5884 17.7929C25.6139 17.8386 25.6183 17.8848 25.6183 17.8848C25.6183 17.8848 25.5813 17.8569 25.5558 17.8112C25.5302 17.7654 25.5259 17.7192 25.5259 17.7192C25.5259 17.7192 25.5629 17.7472 25.5884 17.7929Z" fill="#999999"/>
<path d="M25.4607 17.6057C25.5064 17.5802 25.5526 17.5757 25.5526 17.5757C25.5526 17.5757 25.5247 17.6127 25.479 17.6382C25.4332 17.6637 25.3872 17.6683 25.3872 17.6683C25.3872 17.6683 25.415 17.6313 25.4607 17.6057Z" fill="#999999"/>
<path d="M25.5878 17.3787C25.6335 17.3532 25.6798 17.3486 25.6798 17.3486C25.6798 17.3486 25.6518 17.3856 25.6061 17.4112C25.5604 17.4367 25.5142 17.4412 25.5142 17.4412C25.5142 17.4412 25.5421 17.4042 25.5878 17.3787Z" fill="#999999"/>
<path d="M25.7957 17.7405C25.8414 17.715 25.8876 17.7104 25.8876 17.7104C25.8876 17.7104 25.8597 17.7474 25.8139 17.773C25.7682 17.7985 25.7222 17.8029 25.7222 17.8029C25.7222 17.8029 25.75 17.766 25.7957 17.7405Z" fill="#999999"/>
<path d="M25.6861 17.5861C25.6606 17.5403 25.6562 17.4941 25.6562 17.4941C25.6562 17.4941 25.6932 17.5221 25.7188 17.5678C25.7443 17.6135 25.7487 17.6597 25.7487 17.6597C25.7487 17.6597 25.7117 17.6318 25.6861 17.5861Z" fill="#999999"/>
<path d="M25.8714 17.9347C25.8458 17.889 25.8413 17.8428 25.8413 17.8428C25.8413 17.8428 25.8783 17.8707 25.9038 17.9164C25.9294 17.9622 25.9339 18.0082 25.9339 18.0082C25.9339 18.0082 25.8969 17.9804 25.8714 17.9347Z" fill="#999999"/>
<path d="M25.9127 17.4679C25.9584 17.4423 26.0045 17.438 26.0045 17.438C26.0045 17.438 25.9765 17.475 25.9308 17.5005C25.8851 17.526 25.8389 17.5306 25.8389 17.5306C25.8389 17.5306 25.867 17.4936 25.9127 17.4679Z" fill="#999999"/>
<path d="M26.1205 17.8297C26.1663 17.8042 26.2125 17.7998 26.2125 17.7998C26.2125 17.7998 26.1845 17.8368 26.1388 17.8623C26.0931 17.8879 26.0469 17.8922 26.0469 17.8922C26.0469 17.8922 26.0748 17.8552 26.1205 17.8297Z" fill="#999999"/>
<path d="M26.0104 17.6744C25.9848 17.6287 25.9805 17.5825 25.9805 17.5825C25.9805 17.5825 26.0175 17.6105 26.043 17.6562C26.0685 17.7019 26.0729 17.7481 26.0729 17.7481C26.0729 17.7481 26.0359 17.7202 26.0104 17.6744Z" fill="#999999"/>
<path d="M26.1922 17.3976C26.2178 17.4433 26.2223 17.4893 26.2223 17.4893C26.2223 17.4893 26.1853 17.4614 26.1598 17.4157C26.1342 17.3699 26.1299 17.3237 26.1299 17.3237C26.1299 17.3237 26.1667 17.3518 26.1922 17.3976Z" fill="#999999"/>
<path d="M26.3999 17.7594C26.4254 17.8051 26.43 17.8511 26.43 17.8511C26.43 17.8511 26.393 17.8232 26.3675 17.7775C26.3419 17.7317 26.3374 17.6855 26.3374 17.6855C26.3374 17.6855 26.3744 17.7137 26.3999 17.7594Z" fill="#999999"/>
<path d="M26.2719 17.5725C26.3176 17.547 26.3638 17.5425 26.3638 17.5425C26.3638 17.5425 26.3359 17.5795 26.2902 17.605C26.2444 17.6305 26.1982 17.635 26.1982 17.635C26.1982 17.635 26.2262 17.5981 26.2719 17.5725Z" fill="#999999"/>
<path d="M26.6078 17.7066C26.6536 17.6811 26.6998 17.6768 26.6998 17.6768C26.6998 17.6768 26.6718 17.7138 26.6261 17.7393C26.5804 17.7648 26.5342 17.7692 26.5342 17.7692C26.5342 17.7692 26.5621 17.7323 26.6078 17.7066Z" fill="#999999"/>
<path d="M26.4983 17.5519C26.4728 17.5062 26.4683 17.46 26.4683 17.46C26.4683 17.46 26.5053 17.4879 26.5308 17.5336C26.5563 17.5793 26.5608 17.6255 26.5608 17.6255C26.5608 17.6255 26.5238 17.5976 26.4983 17.5519Z" fill="#999999"/>
<path d="M26.6834 17.901C26.6578 17.8553 26.6533 17.8091 26.6533 17.8091C26.6533 17.8091 26.6903 17.837 26.7158 17.8827C26.7414 17.9285 26.7457 17.9747 26.7457 17.9747C26.7457 17.9747 26.7089 17.9467 26.6834 17.901Z" fill="#999999"/>
<path d="M26.7275 17.4674C26.7732 17.4419 26.8194 17.4375 26.8194 17.4375C26.8194 17.4375 26.7914 17.4745 26.7457 17.5C26.7 17.5255 26.6538 17.5301 26.6538 17.5301C26.6538 17.5301 26.6818 17.4931 26.7275 17.4674Z" fill="#999999"/>
<path d="M26.9356 17.8292C26.9814 17.8037 27.0274 17.7993 27.0274 17.7993C27.0274 17.7993 26.9995 17.8363 26.9537 17.8618C26.908 17.8874 26.8618 17.8917 26.8618 17.8917C26.8618 17.8917 26.8899 17.8547 26.9356 17.8292Z" fill="#999999"/>
<path d="M26.8258 17.674C26.8003 17.6282 26.7959 17.582 26.7959 17.582C26.7959 17.582 26.8329 17.61 26.8584 17.6557C26.8839 17.7014 26.8883 17.7476 26.8883 17.7476C26.8883 17.7476 26.8513 17.7197 26.8258 17.674Z" fill="#999999"/>
<path d="M27.0075 17.3971C27.033 17.4428 27.0374 17.4888 27.0374 17.4888C27.0374 17.4888 27.0004 17.4609 26.9749 17.4152C26.9493 17.3694 26.9448 17.3232 26.9448 17.3232C26.9448 17.3232 26.982 17.3514 27.0075 17.3971Z" fill="#999999"/>
<path d="M27.2154 17.7584C27.2409 17.8041 27.2454 17.8502 27.2454 17.8502C27.2454 17.8502 27.2084 17.8222 27.1829 17.7765C27.1574 17.7308 27.1528 17.6846 27.1528 17.6846C27.1528 17.6846 27.1898 17.7127 27.2154 17.7584Z" fill="#999999"/>
<path d="M27.0873 17.5716C27.1331 17.546 27.1793 17.5415 27.1793 17.5415C27.1793 17.5415 27.1513 17.5785 27.1056 17.604C27.0599 17.6296 27.0137 17.6341 27.0137 17.6341C27.0137 17.6341 27.0416 17.5971 27.0873 17.5716Z" fill="#999999"/>
<path d="M27.4231 17.7062C27.4688 17.6806 27.515 17.6763 27.515 17.6763C27.515 17.6763 27.4871 17.7133 27.4414 17.7388C27.3956 17.7643 27.3496 17.7687 27.3496 17.7687C27.3496 17.7687 27.3774 17.7318 27.4231 17.7062Z" fill="#999999"/>
<path d="M27.3133 17.5519C27.2877 17.5062 27.2832 17.46 27.2832 17.46C27.2832 17.46 27.3202 17.4879 27.3457 17.5336C27.3713 17.5793 27.3758 17.6255 27.3758 17.6255C27.3758 17.6255 27.3388 17.5976 27.3133 17.5519Z" fill="#999999"/>
<path d="M27.4986 17.9005C27.4731 17.8548 27.4688 17.8086 27.4688 17.8086C27.4688 17.8086 27.5057 17.8365 27.5313 17.8823C27.5568 17.928 27.5612 17.9742 27.5612 17.9742C27.5612 17.9742 27.5242 17.9462 27.4986 17.9005Z" fill="#999999"/>
<path d="M27.5418 17.4679C27.5875 17.4423 27.6337 17.438 27.6337 17.438C27.6337 17.438 27.6057 17.475 27.56 17.5005C27.5143 17.526 27.4683 17.5306 27.4683 17.5306C27.4683 17.5306 27.496 17.4936 27.5418 17.4679Z" fill="#999999"/>
<path d="M27.7499 17.8297C27.7957 17.8042 27.8419 17.7998 27.8419 17.7998C27.8419 17.7998 27.8139 17.8368 27.7682 17.8623C27.7225 17.8879 27.6763 17.8922 27.6763 17.8922C27.6763 17.8922 27.7042 17.8552 27.7499 17.8297Z" fill="#999999"/>
<path d="M27.6404 17.6749C27.6149 17.6292 27.6104 17.583 27.6104 17.583C27.6104 17.583 27.6474 17.611 27.6729 17.6567C27.6984 17.7024 27.7028 17.7486 27.7028 17.7486C27.7028 17.7486 27.6659 17.7206 27.6404 17.6749Z" fill="#999999"/>
<path d="M27.8213 17.3976C27.8468 17.4433 27.8512 17.4893 27.8512 17.4893C27.8512 17.4893 27.8142 17.4614 27.7887 17.4157C27.7632 17.3699 27.7588 17.3237 27.7588 17.3237C27.7588 17.3237 27.7958 17.3518 27.8213 17.3976Z" fill="#999999"/>
<path d="M28.0295 17.7594C28.055 17.8051 28.0594 17.8511 28.0594 17.8511C28.0594 17.8511 28.0224 17.8232 27.9968 17.7775C27.9713 17.7317 27.9668 17.6855 27.9668 17.6855C27.9668 17.6855 28.004 17.7137 28.0295 17.7594Z" fill="#999999"/>
<path d="M27.901 17.5725C27.9467 17.547 27.9927 17.5425 27.9927 17.5425C27.9927 17.5425 27.9648 17.5795 27.9191 17.605C27.8734 17.6305 27.8271 17.635 27.8271 17.635C27.8271 17.635 27.8553 17.5981 27.901 17.5725Z" fill="#999999"/>
<path d="M28.2377 17.7062C28.2835 17.6806 28.3297 17.6763 28.3297 17.6763C28.3297 17.6763 28.3017 17.7133 28.256 17.7388C28.2103 17.7643 28.1641 17.7687 28.1641 17.7687C28.1641 17.7687 28.192 17.7318 28.2377 17.7062Z" fill="#999999"/>
<path d="M28.1277 17.5519C28.1022 17.5062 28.0977 17.46 28.0977 17.46C28.0977 17.46 28.1346 17.4879 28.1602 17.5336C28.1857 17.5793 28.1902 17.6255 28.1902 17.6255C28.1902 17.6255 28.1532 17.5976 28.1277 17.5519Z" fill="#999999"/>
<path d="M28.3131 17.9005C28.2876 17.8548 28.2832 17.8086 28.2832 17.8086C28.2832 17.8086 28.3202 17.8365 28.3457 17.8823C28.3712 17.928 28.3756 17.9742 28.3756 17.9742C28.3756 17.9742 28.3388 17.9462 28.3131 17.9005Z" fill="#999999"/>
<path d="M28.3564 17.4674C28.4021 17.4419 28.4483 17.4375 28.4483 17.4375C28.4483 17.4375 28.4204 17.4745 28.3746 17.5C28.3289 17.5255 28.2827 17.5301 28.2827 17.5301C28.2827 17.5301 28.3107 17.4931 28.3564 17.4674Z" fill="#999999"/>
<path d="M28.5642 17.8292C28.6099 17.8037 28.6562 17.7993 28.6562 17.7993C28.6562 17.7993 28.6282 17.8363 28.5825 17.8618C28.5368 17.8874 28.4907 17.8917 28.4907 17.8917C28.4907 17.8917 28.5185 17.8547 28.5642 17.8292Z" fill="#999999"/>
<path d="M28.4544 17.674C28.4288 17.6282 28.4243 17.582 28.4243 17.582C28.4243 17.582 28.4613 17.61 28.4868 17.6557C28.5124 17.7014 28.5167 17.7476 28.5167 17.7476C28.5167 17.7476 28.4799 17.7197 28.4544 17.674Z" fill="#999999"/>
<path d="M28.6358 17.3971C28.6613 17.4428 28.6656 17.4888 28.6656 17.4888C28.6656 17.4888 28.6287 17.4609 28.6031 17.4152C28.5776 17.3694 28.5732 17.3232 28.5732 17.3232C28.5732 17.3232 28.6102 17.3514 28.6358 17.3971Z" fill="#999999"/>
<path d="M28.8433 17.7589C28.8688 17.8046 28.8732 17.8506 28.8732 17.8506C28.8732 17.8506 28.8362 17.8227 28.8106 17.777C28.7851 17.7313 28.7808 17.6851 28.7808 17.6851C28.7808 17.6851 28.8178 17.7132 28.8433 17.7589Z" fill="#999999"/>
<path d="M28.7158 17.572C28.7615 17.5465 28.8077 17.542 28.8077 17.542C28.8077 17.542 28.7797 17.579 28.734 17.6045C28.6883 17.63 28.6421 17.6346 28.6421 17.6346C28.6421 17.6346 28.67 17.5976 28.7158 17.572Z" fill="#999999"/>
<path d="M29.0512 17.7062C29.0969 17.6806 29.1431 17.6763 29.1431 17.6763C29.1431 17.6763 29.1152 17.7133 29.0695 17.7388C29.0237 17.7643 28.9775 17.7687 28.9775 17.7687C28.9775 17.7687 29.0055 17.7318 29.0512 17.7062Z" fill="#999999"/>
<path d="M28.94 17.5519C28.9145 17.5062 28.9102 17.46 28.9102 17.46C28.9102 17.46 28.9471 17.4879 28.9727 17.5336C28.9982 17.5793 29.0026 17.6255 29.0026 17.6255C29.0026 17.6255 28.9656 17.5976 28.94 17.5519Z" fill="#999999"/>
<path d="M29.1266 17.9005C29.101 17.8548 29.0967 17.8086 29.0967 17.8086C29.0967 17.8086 29.1337 17.8365 29.1592 17.8823C29.1847 17.928 29.1891 17.9742 29.1891 17.9742C29.1891 17.9742 29.1523 17.9462 29.1266 17.9005Z" fill="#999999"/>
<path d="M29.1708 17.4679C29.2166 17.4423 29.2628 17.438 29.2628 17.438C29.2628 17.438 29.2348 17.475 29.1891 17.5005C29.1434 17.526 29.0972 17.5306 29.0972 17.5306C29.0972 17.5306 29.1251 17.4936 29.1708 17.4679Z" fill="#999999"/>
<path d="M29.3788 17.8297C29.4246 17.8042 29.4708 17.7998 29.4708 17.7998C29.4708 17.7998 29.4428 17.8368 29.3971 17.8623C29.3514 17.8879 29.3052 17.8922 29.3052 17.8922C29.3052 17.8922 29.3331 17.8552 29.3788 17.8297Z" fill="#999999"/>
<path d="M29.2693 17.6744C29.2438 17.6287 29.2393 17.5825 29.2393 17.5825C29.2393 17.5825 29.2763 17.6105 29.3018 17.6562C29.3273 17.7019 29.3318 17.7481 29.3318 17.7481C29.3318 17.7481 29.2948 17.7202 29.2693 17.6744Z" fill="#999999"/>
<path d="M29.4501 17.3976C29.4756 17.4433 29.4801 17.4893 29.4801 17.4893C29.4801 17.4893 29.4431 17.4614 29.4176 17.4157C29.3921 17.3699 29.3877 17.3237 29.3877 17.3237C29.3877 17.3237 29.4245 17.3518 29.4501 17.3976Z" fill="#999999"/>
<path d="M29.6577 17.7594C29.6833 17.8051 29.6876 17.8511 29.6876 17.8511C29.6876 17.8511 29.6506 17.8232 29.6251 17.7775C29.5996 17.7317 29.5952 17.6855 29.5952 17.6855C29.5952 17.6855 29.6322 17.7137 29.6577 17.7594Z" fill="#999999"/>
<path d="M29.53 17.5725C29.5758 17.547 29.622 17.5425 29.622 17.5425C29.622 17.5425 29.594 17.5795 29.5483 17.605C29.5026 17.6305 29.4565 17.635 29.4565 17.635C29.4565 17.635 29.4843 17.5981 29.53 17.5725Z" fill="#999999"/>
<path d="M29.8666 17.7062C29.9124 17.6806 29.9586 17.6763 29.9586 17.6763C29.9586 17.6763 29.9306 17.7133 29.8849 17.7388C29.8392 17.7643 29.793 17.7687 29.793 17.7687C29.793 17.7687 29.8209 17.7318 29.8666 17.7062Z" fill="#999999"/>
<path d="M29.756 17.5524C29.7304 17.5067 29.7261 17.4604 29.7261 17.4604C29.7261 17.4604 29.7631 17.4884 29.7886 17.5341C29.8141 17.5798 29.8186 17.626 29.8186 17.626C29.8186 17.626 29.7815 17.5981 29.756 17.5524Z" fill="#999999"/>
<path d="M29.9422 17.9005C29.9166 17.8548 29.9121 17.8086 29.9121 17.8086C29.9121 17.8086 29.9491 17.8365 29.9746 17.8823C30.0002 17.928 30.0047 17.9742 30.0047 17.9742C30.0047 17.9742 29.9677 17.9462 29.9422 17.9005Z" fill="#999999"/>
<path d="M29.985 17.4674C30.0307 17.4419 30.0767 17.4375 30.0767 17.4375C30.0767 17.4375 30.0488 17.4745 30.0031 17.5C29.9573 17.5255 29.9111 17.5301 29.9111 17.5301C29.9111 17.5301 29.9392 17.4931 29.985 17.4674Z" fill="#999999"/>
<path d="M30.1928 17.8292C30.2385 17.8037 30.2847 17.7993 30.2847 17.7993C30.2847 17.7993 30.2568 17.8363 30.2111 17.8618C30.1653 17.8874 30.1191 17.8917 30.1191 17.8917C30.1191 17.8917 30.1472 17.8547 30.1928 17.8292Z" fill="#999999"/>
<path d="M30.0828 17.674C30.0573 17.6282 30.0527 17.582 30.0527 17.582C30.0527 17.582 30.0897 17.61 30.1153 17.6557C30.1408 17.7014 30.1451 17.7476 30.1451 17.7476C30.1451 17.7476 30.1083 17.7197 30.0828 17.674Z" fill="#999999"/>
<path d="M30.2643 17.3971C30.2899 17.4428 30.2942 17.4888 30.2942 17.4888C30.2942 17.4888 30.2572 17.4609 30.2317 17.4152C30.2062 17.3694 30.2017 17.3232 30.2017 17.3232C30.2017 17.3232 30.2388 17.3514 30.2643 17.3971Z" fill="#999999"/>
<path d="M30.472 17.7589C30.4976 17.8046 30.5021 17.8506 30.5021 17.8506C30.5021 17.8506 30.4651 17.8227 30.4396 17.777C30.414 17.7313 30.4097 17.6851 30.4097 17.6851C30.4097 17.6851 30.4465 17.7132 30.472 17.7589Z" fill="#999999"/>
<path d="M30.3438 17.572C30.3896 17.5465 30.4356 17.542 30.4356 17.542C30.4356 17.542 30.4077 17.579 30.3619 17.6045C30.3162 17.63 30.27 17.6346 30.27 17.6346C30.27 17.6346 30.2981 17.5976 30.3438 17.572Z" fill="#999999"/>
<path d="M30.6803 17.7062C30.726 17.6806 30.772 17.6763 30.772 17.6763C30.772 17.6763 30.7441 17.7133 30.6984 17.7388C30.6526 17.7643 30.6064 17.7687 30.6064 17.7687C30.6064 17.7687 30.6346 17.7318 30.6803 17.7062Z" fill="#999999"/>
<path d="M30.5699 17.5519C30.5444 17.5062 30.54 17.46 30.54 17.46C30.54 17.46 30.577 17.4879 30.6026 17.5336C30.6281 17.5793 30.6324 17.6255 30.6324 17.6255C30.6324 17.6255 30.5955 17.5976 30.5699 17.5519Z" fill="#999999"/>
<path d="M30.7556 17.9005C30.7301 17.8548 30.7256 17.8086 30.7256 17.8086C30.7256 17.8086 30.7626 17.8365 30.7881 17.8823C30.8136 17.928 30.8182 17.9742 30.8182 17.9742C30.8182 17.9742 30.7812 17.9462 30.7556 17.9005Z" fill="#999999"/>
<path d="M30.7997 17.4679C30.8455 17.4423 30.8917 17.438 30.8917 17.438C30.8917 17.438 30.8637 17.475 30.818 17.5005C30.7723 17.526 30.7261 17.5306 30.7261 17.5306C30.7261 17.5306 30.754 17.4936 30.7997 17.4679Z" fill="#999999"/>
<path d="M31.0078 17.8297C31.0535 17.8042 31.0997 17.7998 31.0997 17.7998C31.0997 17.7998 31.0717 17.8368 31.026 17.8623C30.9803 17.8879 30.9341 17.8922 30.9341 17.8922C30.9341 17.8922 30.9622 17.8552 31.0078 17.8297Z" fill="#999999"/>
<path d="M30.8981 17.6744C30.8725 17.6287 30.8682 17.5825 30.8682 17.5825C30.8682 17.5825 30.9052 17.6105 30.9307 17.6562C30.9562 17.7019 30.9607 17.7481 30.9607 17.7481C30.9607 17.7481 30.9236 17.7202 30.8981 17.6744Z" fill="#999999"/>
<path d="M31.0796 17.3976C31.1051 17.4433 31.1097 17.4893 31.1097 17.4893C31.1097 17.4893 31.0727 17.4614 31.0471 17.4157C31.0216 17.3699 31.0171 17.3237 31.0171 17.3237C31.0171 17.3237 31.0541 17.3518 31.0796 17.3976Z" fill="#999999"/>
<path d="M31.2871 17.7589C31.3127 17.8046 31.3172 17.8506 31.3172 17.8506C31.3172 17.8506 31.2802 17.8227 31.2547 17.777C31.2291 17.7313 31.2246 17.6851 31.2246 17.6851C31.2246 17.6851 31.2616 17.7132 31.2871 17.7589Z" fill="#999999"/>
<path d="M31.1596 17.5725C31.2053 17.547 31.2515 17.5425 31.2515 17.5425C31.2515 17.5425 31.2236 17.5795 31.1779 17.605C31.1321 17.6305 31.0859 17.635 31.0859 17.635C31.0859 17.635 31.1139 17.5981 31.1596 17.5725Z" fill="#999999"/>
<path d="M31.3855 17.5519C31.36 17.5062 31.3555 17.46 31.3555 17.46C31.3555 17.46 31.3925 17.4879 31.418 17.5336C31.4435 17.5793 31.448 17.6255 31.448 17.6255C31.448 17.6255 31.411 17.5976 31.3855 17.5519Z" fill="#999999"/>
</g>
<defs>
<linearGradient id="paint0_linear_580_4992" x1="23.6696" y1="1.32819" x2="40.6973" y2="1.64964" gradientUnits="userSpaceOnUse">
<stop stop-color="#C7C5C5"/>
<stop offset="0.0359" stop-color="#676767"/>
<stop offset="0.1123" stop-color="white"/>
<stop offset="0.3019" stop-color="#929292"/>
<stop offset="0.492" stop-color="white"/>
<stop offset="0.6257" stop-color="#676767"/>
<stop offset="0.7701" stop-color="#929292"/>
<stop offset="0.8233" stop-color="#C7C5C5"/>
<stop offset="1" stop-color="#343433"/>
</linearGradient>
<linearGradient id="paint1_linear_580_4992" x1="28.1967" y1="1.78526" x2="28.1967" y2="1.6346" gradientUnits="userSpaceOnUse">
<stop offset="0.0051"/>
<stop offset="1" stop-opacity="0"/>
</linearGradient>
<linearGradient id="paint2_linear_580_4992" x1="24.7212" y1="1.40506" x2="25.2504" y2="1.40506" gradientUnits="userSpaceOnUse">
<stop offset="0.0051"/>
<stop offset="1" stop-opacity="0"/>
</linearGradient>
<linearGradient id="paint3_linear_580_4992" x1="40.0563" y1="3.70777" x2="40.0791" y2="4.22317" gradientUnits="userSpaceOnUse">
<stop stop-color="#C7C5C5"/>
<stop offset="0.0359" stop-color="#676767"/>
<stop offset="0.1123" stop-color="white"/>
<stop offset="0.3019" stop-color="#929292"/>
<stop offset="0.492" stop-color="white"/>
<stop offset="0.6809" stop-color="#676767"/>
<stop offset="0.7701" stop-color="#929292"/>
<stop offset="0.8233" stop-color="#C7C5C5"/>
<stop offset="1" stop-color="#343433"/>
</linearGradient>
<linearGradient id="paint4_linear_580_4992" x1="40.0564" y1="5.08381" x2="40.079" y2="4.5715" gradientUnits="userSpaceOnUse">
<stop stop-color="#C7C5C5"/>
<stop offset="0.0359" stop-color="#676767"/>
<stop offset="0.1123" stop-color="white"/>
<stop offset="0.3019" stop-color="#929292"/>
<stop offset="0.492" stop-color="white"/>
<stop offset="0.6809" stop-color="#676767"/>
<stop offset="0.7701" stop-color="#929292"/>
<stop offset="0.8233" stop-color="#C7C5C5"/>
<stop offset="1" stop-color="#343433"/>
</linearGradient>
<linearGradient id="paint5_linear_580_4992" x1="39.9153" y1="3.59731" x2="39.9153" y2="6.08938" gradientUnits="userSpaceOnUse">
<stop stop-color="#C7C5C5"/>
<stop offset="0.0359" stop-color="#676767"/>
<stop offset="0.1123" stop-color="white"/>
<stop offset="0.3019" stop-color="#929292"/>
<stop offset="0.492" stop-color="white"/>
<stop offset="0.6257" stop-color="#676767"/>
<stop offset="0.7701" stop-color="#929292"/>
<stop offset="0.8233" stop-color="#C7C5C5"/>
<stop offset="1" stop-color="#343433"/>
</linearGradient>
<linearGradient id="paint6_linear_580_4992" x1="40.0563" y1="13.9671" x2="40.0791" y2="14.4825" gradientUnits="userSpaceOnUse">
<stop stop-color="#C7C5C5"/>
<stop offset="0.0359" stop-color="#676767"/>
<stop offset="0.1123" stop-color="white"/>
<stop offset="0.3019" stop-color="#929292"/>
<stop offset="0.492" stop-color="white"/>
<stop offset="0.6809" stop-color="#676767"/>
<stop offset="0.7701" stop-color="#929292"/>
<stop offset="0.8233" stop-color="#C7C5C5"/>
<stop offset="1" stop-color="#343433"/>
</linearGradient>
<linearGradient id="paint7_linear_580_4992" x1="40.0564" y1="15.3432" x2="40.079" y2="14.8308" gradientUnits="userSpaceOnUse">
<stop stop-color="#C7C5C5"/>
<stop offset="0.0359" stop-color="#676767"/>
<stop offset="0.1123" stop-color="white"/>
<stop offset="0.3019" stop-color="#929292"/>
<stop offset="0.492" stop-color="white"/>
<stop offset="0.6809" stop-color="#676767"/>
<stop offset="0.7701" stop-color="#929292"/>
<stop offset="0.8233" stop-color="#C7C5C5"/>
<stop offset="1" stop-color="#343433"/>
</linearGradient>
<linearGradient id="paint8_linear_580_4992" x1="39.9153" y1="13.8566" x2="39.9153" y2="16.3488" gradientUnits="userSpaceOnUse">
<stop stop-color="#C7C5C5"/>
<stop offset="0.0359" stop-color="#676767"/>
<stop offset="0.1123" stop-color="white"/>
<stop offset="0.3019" stop-color="#929292"/>
<stop offset="0.492" stop-color="white"/>
<stop offset="0.6257" stop-color="#676767"/>
<stop offset="0.7701" stop-color="#929292"/>
<stop offset="0.8233" stop-color="#C7C5C5"/>
<stop offset="1" stop-color="#343433"/>
</linearGradient>
<linearGradient id="paint9_linear_580_4992" x1="38.8129" y1="0.838966" x2="38.6924" y2="25.8529" gradientUnits="userSpaceOnUse">
<stop stop-color="#C7C5C5"/>
<stop offset="0.0359" stop-color="#676767"/>
<stop offset="0.1123" stop-color="white"/>
<stop offset="0.3019" stop-color="#929292"/>
<stop offset="0.492" stop-color="white"/>
<stop offset="0.6257" stop-color="#676767"/>
<stop offset="0.7701" stop-color="#929292"/>
<stop offset="0.8233" stop-color="#C7C5C5"/>
<stop offset="1" stop-color="#343433"/>
</linearGradient>
<linearGradient id="paint10_linear_580_4992" x1="38.8129" y1="0.838966" x2="38.6924" y2="25.8529" gradientUnits="userSpaceOnUse">
<stop stop-color="#C7C5C5"/>
<stop offset="0.0359" stop-color="#676767"/>
<stop offset="0.1123" stop-color="white"/>
<stop offset="0.3019" stop-color="#929292"/>
<stop offset="0.492" stop-color="white"/>
<stop offset="0.6257" stop-color="#676767"/>
<stop offset="0.7701" stop-color="#929292"/>
<stop offset="0.8233" stop-color="#C7C5C5"/>
<stop offset="1" stop-color="#343433"/>
</linearGradient>
<radialGradient id="paint11_radial_580_4992" cx="0" cy="0" r="1" gradientUnits="userSpaceOnUse" gradientTransform="translate(32.6376 -0.148024) rotate(90) scale(18.0444 18.0446)">
<stop offset="0.0102"/>
<stop offset="1" stop-opacity="0"/>
</radialGradient>
<linearGradient id="paint12_linear_580_4992" x1="32.1021" y1="2.22113" x2="32.1021" y2="16.8324" gradientUnits="userSpaceOnUse">
<stop offset="0.3386" stop-color="white" stop-opacity="0"/>
<stop offset="0.6521" stop-color="white"/>
</linearGradient>
<linearGradient id="paint13_linear_580_4992" x1="34.0584" y1="5.71995" x2="34.0957" y2="5.22123" gradientUnits="userSpaceOnUse">
<stop offset="0.0051"/>
<stop offset="1" stop-opacity="0"/>
</linearGradient>
<linearGradient id="paint14_linear_580_4992" x1="34.0584" y1="13.3268" x2="34.0957" y2="13.8255" gradientUnits="userSpaceOnUse">
<stop offset="0.0051" stop-color="#999999"/>
<stop offset="1" stop-color="#999999" stop-opacity="0"/>
</linearGradient>
<linearGradient id="paint15_linear_580_4992" x1="34.4237" y1="9.52736" x2="33.9937" y2="9.52736" gradientUnits="userSpaceOnUse">
<stop offset="0.0051"/>
<stop offset="1" stop-opacity="0"/>
</linearGradient>
<radialGradient id="paint16_radial_580_4992" cx="0" cy="0" r="1" gradientUnits="userSpaceOnUse" gradientTransform="translate(31.4452 2.69574) rotate(90) scale(11.9321 11.9322)">
<stop stop-color="white" stop-opacity="0"/>
<stop offset="1" stop-color="white"/>
</radialGradient>
<radialGradient id="paint17_radial_580_4992" cx="0" cy="0" r="1" gradientUnits="userSpaceOnUse" gradientTransform="translate(30.7643 4.06809) rotate(90) scale(11.4863 11.4864)">
<stop offset="0.0102"/>
<stop offset="1" stop-opacity="0"/>
</radialGradient>
<linearGradient id="paint18_linear_580_4992" x1="29.1656" y1="2.06561" x2="29.1656" y2="2.12409" gradientUnits="userSpaceOnUse">
<stop offset="0.0051"/>
<stop offset="1" stop-opacity="0"/>
</linearGradient>
<linearGradient id="paint19_linear_580_4992" x1="29.0596" y1="2.18319" x2="29.0596" y2="2.42414" gradientUnits="userSpaceOnUse">
<stop stop-color="white"/>
<stop offset="1" stop-color="white" stop-opacity="0"/>
</linearGradient>
<linearGradient id="paint20_linear_580_4992" x1="29.0596" y1="2.5847" x2="29.0596" y2="2.91005" gradientUnits="userSpaceOnUse">
<stop stop-opacity="0"/>
<stop offset="0.9898"/>
</linearGradient>
<linearGradient id="paint21_linear_580_4992" x1="29.1666" y1="17.0289" x2="29.1666" y2="16.9705" gradientUnits="userSpaceOnUse">
<stop offset="0.0051"/>
<stop offset="1" stop-opacity="0"/>
</linearGradient>
<linearGradient id="paint22_linear_580_4992" x1="29.0606" y1="16.9113" x2="29.0606" y2="16.6704" gradientUnits="userSpaceOnUse">
<stop stop-color="white"/>
<stop offset="1" stop-color="white" stop-opacity="0"/>
</linearGradient>
<linearGradient id="paint23_linear_580_4992" x1="29.0606" y1="16.5098" x2="29.0606" y2="16.1845" gradientUnits="userSpaceOnUse">
<stop stop-opacity="0"/>
<stop offset="0.9898"/>
</linearGradient>
<linearGradient id="paint24_linear_580_4992" x1="32.2826" y1="1.31865" x2="32.1583" y2="1.36385" gradientUnits="userSpaceOnUse">
<stop stop-color="white"/>
<stop offset="1" stop-color="white" stop-opacity="0"/>
</linearGradient>
<linearGradient id="paint25_linear_580_4992" x1="32.101" y1="1.77266" x2="31.6451" y2="0.958961" gradientUnits="userSpaceOnUse">
<stop offset="0.0051"/>
<stop offset="1" stop-opacity="0"/>
</linearGradient>
<linearGradient id="paint26_linear_580_4992" x1="32.2826" y1="17.7909" x2="32.1583" y2="17.7457" gradientUnits="userSpaceOnUse">
<stop stop-color="white"/>
<stop offset="1" stop-color="white" stop-opacity="0"/>
</linearGradient>
<linearGradient id="paint27_linear_580_4992" x1="32.101" y1="17.3369" x2="31.6451" y2="18.1506" gradientUnits="userSpaceOnUse">
<stop offset="0.0051"/>
<stop offset="1" stop-opacity="0"/>
</linearGradient>
<linearGradient id="paint28_linear_580_4992" x1="25.5567" y1="9.44605" x2="25.9339" y2="9.44605" gradientUnits="userSpaceOnUse">
<stop stop-opacity="0"/>
<stop offset="0.9898"/>
</linearGradient>
<radialGradient id="paint29_radial_580_4992" cx="0" cy="0" r="1" gradientUnits="userSpaceOnUse" gradientTransform="translate(26.5497 9.52672) rotate(90) scale(3.41311 3.41313)">
<stop stop-color="white" stop-opacity="0"/>
<stop offset="1" stop-color="white"/>
</radialGradient>
<linearGradient id="paint30_linear_580_4992" x1="26.1436" y1="9.52672" x2="25.8344" y2="9.52672" gradientUnits="userSpaceOnUse">
<stop stop-opacity="0"/>
<stop offset="0.9898"/>
</linearGradient>
<linearGradient id="paint31_linear_580_4992" x1="26.852" y1="4.9472" x2="26.852" y2="14.1062" gradientUnits="userSpaceOnUse">
<stop stop-color="white" stop-opacity="0"/>
<stop offset="1" stop-color="white"/>
</linearGradient>
<linearGradient id="paint32_linear_580_4992" x1="26.2479" y1="11.0406" x2="26.2479" y2="5.41889" gradientUnits="userSpaceOnUse">
<stop stop-color="white" stop-opacity="0"/>
<stop offset="1" stop-color="white"/>
</linearGradient>
<radialGradient id="paint33_radial_580_4992" cx="0" cy="0" r="1" gradientUnits="userSpaceOnUse" gradientTransform="translate(23.1138 17.372) rotate(90) scale(21.8 21.8002)">
<stop stop-color="white" stop-opacity="0"/>
<stop offset="1" stop-color="white"/>
</radialGradient>
<linearGradient id="paint34_linear_580_4992" x1="0.791849" y1="3.58225" x2="0.505554" y2="1.66853" gradientUnits="userSpaceOnUse">
<stop stop-color="white" stop-opacity="0"/>
<stop offset="1" stop-color="white"/>
</linearGradient>
<linearGradient id="paint35_linear_580_4992" x1="0.751778" y1="2.8007" x2="0.649031" y2="2.8007" gradientUnits="userSpaceOnUse">
<stop stop-color="white" stop-opacity="0"/>
<stop offset="1" stop-color="white"/>
</linearGradient>
<linearGradient id="paint36_linear_580_4992" x1="0.792826" y1="16.7629" x2="0.506532" y2="14.8491" gradientUnits="userSpaceOnUse">
<stop stop-color="white" stop-opacity="0"/>
<stop offset="1" stop-color="white"/>
</linearGradient>
<linearGradient id="paint37_linear_580_4992" x1="0.751778" y1="15.9808" x2="0.649031" y2="15.9808" gradientUnits="userSpaceOnUse">
<stop stop-color="white" stop-opacity="0"/>
<stop offset="1" stop-color="white"/>
</linearGradient>
<linearGradient id="paint38_linear_580_4992" x1="0.691815" y1="9.34171" x2="0.83254" y2="9.34171" gradientUnits="userSpaceOnUse">
<stop stop-opacity="0"/>
<stop offset="0.9898"/>
</linearGradient>
<linearGradient id="paint39_linear_580_4992" x1="23.6696" y1="17.7759" x2="40.6973" y2="17.4545" gradientUnits="userSpaceOnUse">
<stop stop-color="#C7C5C5"/>
<stop offset="0.0359" stop-color="#676767"/>
<stop offset="0.1123" stop-color="white"/>
<stop offset="0.3019" stop-color="#929292"/>
<stop offset="0.492" stop-color="white"/>
<stop offset="0.6257" stop-color="#676767"/>
<stop offset="0.7701" stop-color="#929292"/>
<stop offset="0.8233" stop-color="#C7C5C5"/>
<stop offset="1" stop-color="#343433"/>
</linearGradient>
<linearGradient id="paint40_linear_580_4992" x1="28.1967" y1="17.319" x2="28.1967" y2="17.4697" gradientUnits="userSpaceOnUse">
<stop offset="0.0051"/>
<stop offset="1" stop-opacity="0"/>
</linearGradient>
<linearGradient id="paint41_linear_580_4992" x1="24.7212" y1="17.6992" x2="25.2504" y2="17.6992" gradientUnits="userSpaceOnUse">
<stop offset="0.0051"/>
<stop offset="1" stop-opacity="0"/>
</linearGradient>
</defs>
</svg>
