<svg width="52" height="52" viewBox="0 0 52 52" fill="none" xmlns="http://www.w3.org/2000/svg">
<circle opacity="0.5" cx="26.4375" cy="26" r="25.5" transform="rotate(90 26.4375 26)" fill="#FF8282"/>
<path d="M22.1187 34.5068L16.209 34.5068C16.0345 34.5068 15.8673 34.4375 15.7439 34.3143L15.1677 33.738L22.1187 33.738L22.1187 34.5068Z" fill="#CCCCCC"/>
<path d="M21.9976 34.3862L21.9976 33.8583L15.458 33.8583L15.8285 34.2289C15.9299 34.3303 16.0648 34.3862 16.2083 34.3862L21.9976 34.3862Z" fill="url(#paint0_linear_652_1669)"/>
<path opacity="0.5" d="M22.1187 34.5068L16.209 34.5068C16.0345 34.5068 15.8673 34.4375 15.7439 34.3143L15.1677 33.738L22.1187 33.738L22.1187 34.5068Z" fill="url(#paint1_linear_652_1669)"/>
<path opacity="0.4" d="M22.1187 34.5068L16.209 34.5068C16.0345 34.5068 15.8673 34.4375 15.7439 34.3143L15.1677 33.738L22.1187 33.738L22.1187 34.5068Z" fill="url(#paint2_linear_652_1669)"/>
<mask id="mask0_652_1669" style="mask-type:luminance" maskUnits="userSpaceOnUse" x="15" y="33" width="7" height="2">
<path d="M21.9976 34.3857L21.9976 33.8578L15.458 33.8578L15.8285 34.2284C15.9299 34.3298 16.0648 34.3857 16.2083 34.3857L21.9976 34.3857Z" fill="white"/>
</mask>
<g mask="url(#mask0_652_1669)">
<path d="M21.9468 33.9779C21.9212 34.0236 21.9167 34.0698 21.9167 34.0698C21.9167 34.0698 21.9537 34.0419 21.9792 33.9962C22.0048 33.9504 22.0093 33.9042 22.0093 33.9042C22.0093 33.9042 21.9723 33.9322 21.9468 33.9779Z" fill="#999999"/>
<path d="M21.7383 34.3397C21.7127 34.3854 21.7082 34.4316 21.7082 34.4316C21.7082 34.4316 21.7452 34.4037 21.7707 34.358C21.7963 34.3123 21.8008 34.2661 21.8008 34.2661C21.8008 34.2661 21.7638 34.294 21.7383 34.3397Z" fill="#999999"/>
<path d="M21.8666 34.1528C21.8209 34.1273 21.7748 34.1228 21.7748 34.1228C21.7748 34.1228 21.8028 34.1598 21.8485 34.1853C21.8942 34.2108 21.9404 34.2153 21.9404 34.2153C21.9404 34.2153 21.9123 34.1783 21.8666 34.1528Z" fill="#999999"/>
<path d="M21.7388 33.9253C21.6931 33.8998 21.6469 33.8952 21.6469 33.8952C21.6469 33.8952 21.6749 33.9322 21.7206 33.9577C21.7663 33.9833 21.8125 33.9878 21.8125 33.9878C21.8125 33.9878 21.7846 33.9508 21.7388 33.9253Z" fill="#999999"/>
<path d="M21.5307 34.2871C21.4849 34.2616 21.4389 34.2572 21.4389 34.2572C21.4389 34.2572 21.4669 34.2942 21.5126 34.3197C21.5583 34.3452 21.6045 34.3496 21.6045 34.3496C21.6045 34.3496 21.5764 34.3126 21.5307 34.2871Z" fill="#999999"/>
<path d="M21.6413 34.1324C21.6669 34.0867 21.6714 34.0405 21.6714 34.0405C21.6714 34.0405 21.6344 34.0684 21.6089 34.1141C21.5833 34.1599 21.5788 34.2061 21.5788 34.2061C21.5788 34.2061 21.6158 34.1781 21.6413 34.1324Z" fill="#999999"/>
<path d="M21.4599 33.8555C21.4344 33.9012 21.4301 33.9473 21.4301 33.9473C21.4301 33.9473 21.467 33.9193 21.4926 33.8736C21.5181 33.8279 21.5225 33.7818 21.5225 33.7818C21.5225 33.7818 21.4855 33.8098 21.4599 33.8555Z" fill="#999999"/>
<path d="M21.2519 34.2172C21.2264 34.2629 21.222 34.3091 21.222 34.3091C21.222 34.3091 21.259 34.2811 21.2846 34.2354C21.3101 34.1897 21.3145 34.1435 21.3145 34.1435C21.3145 34.1435 21.2775 34.1714 21.2519 34.2172Z" fill="#999999"/>
<path d="M21.3801 34.0298C21.3344 34.0042 21.2882 33.9997 21.2882 33.9997C21.2882 33.9997 21.3161 34.0367 21.3619 34.0622C21.4076 34.0878 21.4536 34.0923 21.4536 34.0923C21.4536 34.0923 21.4258 34.0553 21.3801 34.0298Z" fill="#999999"/>
<path d="M21.252 33.803C21.2063 33.7775 21.1601 33.7732 21.1601 33.7732C21.1601 33.7732 21.188 33.8102 21.2338 33.8357C21.2795 33.8612 21.3257 33.8657 21.3257 33.8657C21.3257 33.8657 21.2977 33.8286 21.252 33.803Z" fill="#999999"/>
<path d="M21.0442 34.1655C20.9984 34.14 20.9522 34.1356 20.9522 34.1356C20.9522 34.1356 20.9802 34.1726 21.0259 34.1981C21.0716 34.2237 21.1177 34.228 21.1177 34.228C21.1177 34.228 21.0899 34.191 21.0442 34.1655Z" fill="#999999"/>
<path d="M21.1537 34.0105C21.1792 33.9648 21.1836 33.9186 21.1836 33.9186C21.1836 33.9186 21.1466 33.9465 21.1211 33.9922C21.0956 34.0379 21.0912 34.084 21.0912 34.084C21.0912 34.084 21.1282 34.0562 21.1537 34.0105Z" fill="#999999"/>
<path d="M20.968 34.3599C20.9935 34.3142 20.998 34.268 20.998 34.268C20.998 34.268 20.961 34.296 20.9355 34.3417C20.91 34.3874 20.9055 34.4336 20.9055 34.4336C20.9055 34.4336 20.9425 34.4056 20.968 34.3599Z" fill="#999999"/>
<path d="M20.9276 33.8921C20.8819 33.8665 20.8359 33.8622 20.8359 33.8622C20.8359 33.8622 20.8638 33.8992 20.9095 33.9247C20.9553 33.9502 21.0015 33.9546 21.0015 33.9546C21.0015 33.9546 20.9734 33.9176 20.9276 33.8921Z" fill="#999999"/>
<path d="M20.7198 34.2539C20.6741 34.2284 20.6279 34.224 20.6279 34.224C20.6279 34.224 20.6558 34.261 20.7015 34.2865C20.7473 34.312 20.7935 34.3164 20.7935 34.3164C20.7935 34.3164 20.7655 34.2794 20.7198 34.2539Z" fill="#999999"/>
<path d="M20.83 34.0987C20.8555 34.053 20.8599 34.0068 20.8599 34.0068C20.8599 34.0068 20.8229 34.0347 20.7973 34.0804C20.7718 34.1262 20.7675 34.1724 20.7675 34.1724C20.7675 34.1724 20.8045 34.1444 20.83 34.0987Z" fill="#999999"/>
<path d="M20.6476 33.8221C20.6221 33.8679 20.6176 33.9141 20.6176 33.9141C20.6176 33.9141 20.6545 33.8861 20.6801 33.8404C20.7056 33.7947 20.71 33.7485 20.71 33.7485C20.71 33.7485 20.6731 33.7764 20.6476 33.8221Z" fill="#999999"/>
<path d="M20.4399 34.184C20.4144 34.2297 20.4099 34.2759 20.4099 34.2759C20.4099 34.2759 20.4469 34.2479 20.4724 34.2022C20.4979 34.1565 20.5024 34.1103 20.5024 34.1103C20.5024 34.1103 20.4654 34.1382 20.4399 34.184Z" fill="#999999"/>
<path d="M20.5679 33.997C20.5222 33.9715 20.476 33.967 20.476 33.967C20.476 33.967 20.504 34.004 20.5497 34.0295C20.5954 34.055 20.6416 34.0596 20.6416 34.0596C20.6416 34.0596 20.6137 34.0226 20.5679 33.997Z" fill="#999999"/>
<path d="M20.2325 34.1323C20.1868 34.1068 20.1406 34.1024 20.1406 34.1024C20.1406 34.1024 20.1685 34.1394 20.2142 34.1649C20.2599 34.1905 20.3062 34.1948 20.3062 34.1948C20.3062 34.1948 20.2782 34.1578 20.2325 34.1323Z" fill="#999999"/>
<path d="M20.3425 33.9776C20.368 33.9319 20.3726 33.8857 20.3726 33.8857C20.3726 33.8857 20.3356 33.9136 20.31 33.9593C20.2845 34.0051 20.28 34.0513 20.28 34.0513C20.28 34.0513 20.317 34.0233 20.3425 33.9776Z" fill="#999999"/>
<path d="M20.157 34.3262C20.1825 34.2805 20.187 34.2343 20.187 34.2343C20.187 34.2343 20.15 34.2623 20.1245 34.308C20.099 34.3537 20.0946 34.3999 20.0946 34.3999C20.0946 34.3999 20.1314 34.372 20.157 34.3262Z" fill="#999999"/>
<path d="M20.1129 33.8916C20.0671 33.8661 20.0209 33.8617 20.0209 33.8617C20.0209 33.8617 20.0489 33.8987 20.0946 33.9242C20.1403 33.9497 20.1865 33.9541 20.1865 33.9541C20.1865 33.9541 20.1586 33.9171 20.1129 33.8916Z" fill="#999999"/>
<path d="M19.9047 34.2534C19.859 34.2279 19.8129 34.2235 19.8129 34.2235C19.8129 34.2235 19.8409 34.2605 19.8866 34.286C19.9323 34.3116 19.9785 34.3159 19.9785 34.3159C19.9785 34.3159 19.9504 34.2789 19.9047 34.2534Z" fill="#999999"/>
<path d="M20.0145 34.0982C20.0401 34.0525 20.0444 34.0063 20.0444 34.0063C20.0444 34.0063 20.0074 34.0342 19.9819 34.08C19.9564 34.1257 19.952 34.1719 19.952 34.1719C19.952 34.1719 19.989 34.1439 20.0145 34.0982Z" fill="#999999"/>
<path d="M19.8333 33.8217C19.8078 33.8674 19.8034 33.9136 19.8034 33.9136C19.8034 33.9136 19.8404 33.8856 19.8659 33.8399C19.8915 33.7942 19.896 33.748 19.896 33.748C19.896 33.748 19.8588 33.7759 19.8333 33.8217Z" fill="#999999"/>
<path d="M19.6245 34.1835C19.599 34.2292 19.5944 34.2754 19.5944 34.2754C19.5944 34.2754 19.6314 34.2474 19.657 34.2017C19.6825 34.156 19.687 34.1098 19.687 34.1098C19.687 34.1098 19.65 34.1378 19.6245 34.1835Z" fill="#999999"/>
<path d="M19.7525 33.9966C19.7068 33.971 19.6606 33.9665 19.6606 33.9665C19.6606 33.9665 19.6885 34.0035 19.7343 34.029C19.78 34.0546 19.8262 34.0591 19.8262 34.0591C19.8262 34.0591 19.7982 34.0221 19.7525 33.9966Z" fill="#999999"/>
<path d="M19.4177 34.1318C19.372 34.1063 19.3258 34.1019 19.3258 34.1019C19.3258 34.1019 19.3537 34.1389 19.3995 34.1644C19.4452 34.19 19.4912 34.1943 19.4912 34.1943C19.4912 34.1943 19.4634 34.1573 19.4177 34.1318Z" fill="#999999"/>
<path d="M19.5276 33.9771C19.5531 33.9314 19.5576 33.8852 19.5576 33.8852C19.5576 33.8852 19.5206 33.9131 19.4951 33.9589C19.4696 34.0046 19.465 34.0508 19.465 34.0508C19.465 34.0508 19.502 34.0228 19.5276 33.9771Z" fill="#999999"/>
<path d="M19.3417 34.3257C19.3672 34.28 19.3716 34.2338 19.3716 34.2338C19.3716 34.2338 19.3346 34.2618 19.3091 34.3075C19.2835 34.3532 19.2792 34.3994 19.2792 34.3994C19.2792 34.3994 19.3162 34.3715 19.3417 34.3257Z" fill="#999999"/>
<path d="M19.2981 33.8921C19.2524 33.8665 19.2062 33.8622 19.2062 33.8622C19.2062 33.8622 19.2341 33.8992 19.2798 33.9247C19.3255 33.9502 19.3716 33.9546 19.3716 33.9546C19.3716 33.9546 19.3438 33.9176 19.2981 33.8921Z" fill="#999999"/>
<path d="M19.0899 34.2539C19.0442 34.2284 18.998 34.224 18.998 34.224C18.998 34.224 19.0259 34.261 19.0717 34.2865C19.1174 34.312 19.1636 34.3164 19.1636 34.3164C19.1636 34.3164 19.1356 34.2794 19.0899 34.2539Z" fill="#999999"/>
<path d="M19.1999 34.0987C19.2255 34.053 19.23 34.0068 19.23 34.0068C19.23 34.0068 19.193 34.0347 19.1675 34.0804C19.1419 34.1262 19.1376 34.1724 19.1376 34.1724C19.1376 34.1724 19.1744 34.1444 19.1999 34.0987Z" fill="#999999"/>
<path d="M19.019 33.8221C18.9935 33.8679 18.9891 33.9141 18.9891 33.9141C18.9891 33.9141 19.0261 33.8861 19.0517 33.8404C19.0772 33.7947 19.0815 33.7485 19.0815 33.7485C19.0815 33.7485 19.0445 33.7764 19.019 33.8221Z" fill="#999999"/>
<path d="M18.8109 34.184C18.7853 34.2297 18.781 34.2759 18.781 34.2759C18.781 34.2759 18.818 34.2479 18.8435 34.2022C18.869 34.1565 18.8735 34.1103 18.8735 34.1103C18.8735 34.1103 18.8364 34.1382 18.8109 34.184Z" fill="#999999"/>
<path d="M18.9394 33.997C18.8936 33.9715 18.8476 33.967 18.8476 33.967C18.8476 33.967 18.8755 34.004 18.9213 34.0295C18.967 34.055 19.0132 34.0596 19.0132 34.0596C19.0132 34.0596 18.9851 34.0226 18.9394 33.997Z" fill="#999999"/>
<path d="M18.6031 34.1323C18.5574 34.1068 18.5112 34.1024 18.5112 34.1024C18.5112 34.1024 18.5391 34.1394 18.5848 34.1649C18.6306 34.1905 18.6768 34.1948 18.6768 34.1948C18.6768 34.1948 18.6488 34.1578 18.6031 34.1323Z" fill="#999999"/>
<path d="M18.7141 33.9776C18.7396 33.9319 18.7441 33.8857 18.7441 33.8857C18.7441 33.8857 18.7071 33.9136 18.6816 33.9593C18.6561 34.0051 18.6516 34.0513 18.6516 34.0513C18.6516 34.0513 18.6886 34.0233 18.7141 33.9776Z" fill="#999999"/>
<path d="M18.5287 34.3262C18.5542 34.2805 18.5586 34.2343 18.5586 34.2343C18.5586 34.2343 18.5216 34.2623 18.4961 34.308C18.4706 34.3537 18.4662 34.3999 18.4662 34.3999C18.4662 34.3999 18.503 34.372 18.5287 34.3262Z" fill="#999999"/>
<path d="M18.4844 33.8916C18.4387 33.8661 18.3925 33.8617 18.3925 33.8617C18.3925 33.8617 18.4205 33.8987 18.4662 33.9242C18.5119 33.9497 18.5581 33.9541 18.5581 33.9541C18.5581 33.9541 18.5302 33.9171 18.4844 33.8916Z" fill="#999999"/>
<path d="M18.2766 34.2534C18.2309 34.2279 18.1847 34.2235 18.1847 34.2235C18.1847 34.2235 18.2126 34.2605 18.2583 34.286C18.3041 34.3116 18.3501 34.3159 18.3501 34.3159C18.3501 34.3159 18.3223 34.2789 18.2766 34.2534Z" fill="#999999"/>
<path d="M18.3865 34.0982C18.412 34.0525 18.4165 34.0063 18.4165 34.0063C18.4165 34.0063 18.3795 34.0342 18.354 34.08C18.3285 34.1257 18.3241 34.1719 18.3241 34.1719C18.3241 34.1719 18.3609 34.1439 18.3865 34.0982Z" fill="#999999"/>
<path d="M18.2046 33.8217C18.179 33.8674 18.1747 33.9136 18.1747 33.9136C18.1747 33.9136 18.2117 33.8856 18.2372 33.8399C18.2627 33.7942 18.2671 33.748 18.2671 33.748C18.2671 33.748 18.2301 33.7759 18.2046 33.8217Z" fill="#999999"/>
<path d="M17.9966 34.1835C17.971 34.2292 17.9667 34.2754 17.9667 34.2754C17.9667 34.2754 18.0037 34.2474 18.0292 34.2017C18.0547 34.156 18.0591 34.1098 18.0591 34.1098C18.0591 34.1098 18.0221 34.1378 17.9966 34.1835Z" fill="#999999"/>
<path d="M18.1246 33.9966C18.0789 33.971 18.0327 33.9665 18.0327 33.9665C18.0327 33.9665 18.0606 34.0035 18.1063 34.029C18.152 34.0546 18.1982 34.0591 18.1982 34.0591C18.1982 34.0591 18.1703 34.0221 18.1246 33.9966Z" fill="#999999"/>
<path d="M17.7882 34.1318C17.7424 34.1063 17.6962 34.1019 17.6962 34.1019C17.6962 34.1019 17.7242 34.1389 17.7699 34.1644C17.8156 34.19 17.8618 34.1943 17.8618 34.1943C17.8618 34.1943 17.8339 34.1573 17.7882 34.1318Z" fill="#999999"/>
<path d="M17.8993 33.9771C17.9248 33.9314 17.9292 33.8852 17.9292 33.8852C17.9292 33.8852 17.8922 33.9131 17.8667 33.9589C17.8412 34.0046 17.8368 34.0508 17.8368 34.0508C17.8368 34.0508 17.8738 34.0228 17.8993 33.9771Z" fill="#999999"/>
<path d="M17.7128 34.3257C17.7383 34.28 17.7427 34.2338 17.7427 34.2338C17.7427 34.2338 17.7057 34.2618 17.6802 34.3075C17.6546 34.3532 17.6503 34.3994 17.6503 34.3994C17.6503 34.3994 17.6871 34.3715 17.7128 34.3257Z" fill="#999999"/>
<path d="M17.669 33.8916C17.6233 33.8661 17.5771 33.8617 17.5771 33.8617C17.5771 33.8617 17.605 33.8987 17.6508 33.9242C17.6965 33.9497 17.7427 33.9541 17.7427 33.9541C17.7427 33.9541 17.7147 33.9171 17.669 33.8916Z" fill="#999999"/>
<path d="M17.461 34.2534C17.4153 34.2279 17.3691 34.2235 17.3691 34.2235C17.3691 34.2235 17.397 34.2605 17.4427 34.286C17.4885 34.3116 17.5347 34.3159 17.5347 34.3159C17.5347 34.3159 17.5067 34.2789 17.461 34.2534Z" fill="#999999"/>
<path d="M17.571 34.0982C17.5966 34.0525 17.6011 34.0063 17.6011 34.0063C17.6011 34.0063 17.5641 34.0342 17.5386 34.08C17.513 34.1257 17.5085 34.1719 17.5085 34.1719C17.5085 34.1719 17.5455 34.1439 17.571 34.0982Z" fill="#999999"/>
<path d="M17.3898 33.8217C17.3643 33.8674 17.3597 33.9136 17.3597 33.9136C17.3597 33.9136 17.3967 33.8856 17.4223 33.8399C17.4478 33.7942 17.4521 33.748 17.4521 33.748C17.4521 33.748 17.4153 33.7759 17.3898 33.8217Z" fill="#999999"/>
<path d="M17.1821 34.1835C17.1566 34.2292 17.1522 34.2754 17.1522 34.2754C17.1522 34.2754 17.1892 34.2474 17.2147 34.2017C17.2403 34.156 17.2446 34.1098 17.2446 34.1098C17.2446 34.1098 17.2076 34.1378 17.1821 34.1835Z" fill="#999999"/>
<path d="M17.3098 33.9966C17.2641 33.971 17.2179 33.9665 17.2179 33.9665C17.2179 33.9665 17.2458 34.0035 17.2915 34.029C17.3373 34.0546 17.3833 34.0591 17.3833 34.0591C17.3833 34.0591 17.3555 34.0221 17.3098 33.9966Z" fill="#999999"/>
<path d="M16.9742 34.1318C16.9285 34.1063 16.8823 34.1019 16.8823 34.1019C16.8823 34.1019 16.9102 34.1389 16.9559 34.1644C17.0016 34.19 17.0479 34.1943 17.0479 34.1943C17.0479 34.1943 17.0199 34.1573 16.9742 34.1318Z" fill="#999999"/>
<path d="M17.0839 33.9776C17.1094 33.9319 17.1138 33.8857 17.1138 33.8857C17.1138 33.8857 17.0768 33.9136 17.0513 33.9593C17.0257 34.0051 17.0212 34.0513 17.0212 34.0513C17.0212 34.0513 17.0584 34.0233 17.0839 33.9776Z" fill="#999999"/>
<path d="M16.8992 34.3257C16.9247 34.28 16.9292 34.2338 16.9292 34.2338C16.9292 34.2338 16.8922 34.2618 16.8667 34.3075C16.8412 34.3532 16.8366 34.3994 16.8366 34.3994C16.8366 34.3994 16.8736 34.3715 16.8992 34.3257Z" fill="#999999"/>
<path d="M16.8544 33.8921C16.8087 33.8665 16.7626 33.8622 16.7626 33.8622C16.7626 33.8622 16.7906 33.8992 16.8363 33.9247C16.882 33.9502 16.9282 33.9546 16.9282 33.9546C16.9282 33.9546 16.9001 33.9176 16.8544 33.8921Z" fill="#999999"/>
<path d="M16.6461 34.2539C16.6003 34.2284 16.5541 34.224 16.5541 34.224C16.5541 34.224 16.5821 34.261 16.6278 34.2865C16.6735 34.312 16.7197 34.3164 16.7197 34.3164C16.7197 34.3164 16.6916 34.2794 16.6461 34.2539Z" fill="#999999"/>
<path d="M16.7571 34.0987C16.7826 34.053 16.7871 34.0068 16.7871 34.0068C16.7871 34.0068 16.7501 34.0347 16.7246 34.0804C16.6991 34.1262 16.6947 34.1724 16.6947 34.1724C16.6947 34.1724 16.7315 34.1444 16.7571 34.0987Z" fill="#999999"/>
<path d="M16.5755 33.8221C16.55 33.8679 16.5456 33.9141 16.5456 33.9141C16.5456 33.9141 16.5826 33.8861 16.6081 33.8404C16.6337 33.7947 16.6382 33.7485 16.6382 33.7485C16.6382 33.7485 16.601 33.7764 16.5755 33.8221Z" fill="#999999"/>
<path d="M16.3678 34.184C16.3423 34.2297 16.3378 34.2759 16.3378 34.2759C16.3378 34.2759 16.3748 34.2479 16.4003 34.2022C16.4258 34.1565 16.4302 34.1103 16.4302 34.1103C16.4302 34.1103 16.3933 34.1382 16.3678 34.184Z" fill="#999999"/>
<path d="M16.4955 33.997C16.4498 33.9715 16.4037 33.967 16.4037 33.967C16.4037 33.967 16.4317 34.004 16.4774 34.0295C16.5231 34.055 16.5693 34.0596 16.5693 34.0596C16.5693 34.0596 16.5412 34.0226 16.4955 33.997Z" fill="#999999"/>
<path d="M16.1605 34.1323C16.1148 34.1068 16.0688 34.1024 16.0688 34.1024C16.0688 34.1024 16.0967 34.1394 16.1425 34.1649C16.1882 34.1905 16.2344 34.1948 16.2344 34.1948C16.2344 34.1948 16.2063 34.1578 16.1605 34.1323Z" fill="#999999"/>
<path d="M16.2699 33.9776C16.2954 33.9319 16.2998 33.8857 16.2998 33.8857C16.2998 33.8857 16.2628 33.9136 16.2373 33.9593C16.2118 34.0051 16.2074 34.0513 16.2074 34.0513C16.2074 34.0513 16.2444 34.0233 16.2699 33.9776Z" fill="#999999"/>
<path d="M16.0842 34.3262C16.1097 34.2805 16.1143 34.2343 16.1143 34.2343C16.1143 34.2343 16.0773 34.2623 16.0517 34.308C16.0262 34.3537 16.0217 34.3999 16.0217 34.3999C16.0217 34.3999 16.0587 34.372 16.0842 34.3262Z" fill="#999999"/>
<path d="M16.0406 33.8911C15.9949 33.8656 15.9487 33.8612 15.9487 33.8612C15.9487 33.8612 15.9766 33.8982 16.0223 33.9237C16.0681 33.9493 16.1143 33.9536 16.1143 33.9536C16.1143 33.9536 16.0863 33.9166 16.0406 33.8911Z" fill="#999999"/>
<path d="M15.8331 34.2529C15.7873 34.2274 15.7411 34.223 15.7411 34.223C15.7411 34.223 15.7691 34.26 15.8148 34.2855C15.8605 34.3111 15.9067 34.3154 15.9067 34.3154C15.9067 34.3154 15.8786 34.2784 15.8331 34.2529Z" fill="#999999"/>
<path d="M15.9423 34.0977C15.9678 34.052 15.9722 34.0058 15.9722 34.0058C15.9722 34.0058 15.9352 34.0337 15.9096 34.0795C15.8841 34.1252 15.8796 34.1714 15.8796 34.1714C15.8796 34.1714 15.9168 34.1434 15.9423 34.0977Z" fill="#999999"/>
<path d="M15.7607 33.8217C15.7352 33.8674 15.7307 33.9136 15.7307 33.9136C15.7307 33.9136 15.7677 33.8856 15.7932 33.8399C15.8187 33.7942 15.8232 33.748 15.8232 33.748C15.8232 33.748 15.7862 33.7759 15.7607 33.8217Z" fill="#999999"/>
<path d="M15.5527 34.1835C15.5272 34.2292 15.5227 34.2754 15.5227 34.2754C15.5227 34.2754 15.5597 34.2474 15.5852 34.2017C15.6107 34.156 15.6152 34.1098 15.6152 34.1098C15.6152 34.1098 15.5782 34.1378 15.5527 34.1835Z" fill="#999999"/>
<path d="M15.6807 33.9966C15.635 33.971 15.5888 33.9665 15.5888 33.9665C15.5888 33.9665 15.6168 34.0035 15.6625 34.029C15.7082 34.0546 15.7544 34.0591 15.7544 34.0591C15.7544 34.0591 15.7264 34.0221 15.6807 33.9966Z" fill="#999999"/>
<path d="M15.4553 33.9771C15.4808 33.9314 15.4854 33.8852 15.4854 33.8852C15.4854 33.8852 15.4484 33.9131 15.4228 33.9589C15.3973 34.0046 15.3928 34.0508 15.3928 34.0508C15.3928 34.0508 15.4298 34.0228 15.4553 33.9771Z" fill="#999999"/>
</g>
<path d="M6.87451 31.3638L6.87451 31.6169C6.87451 31.6449 6.8519 31.6675 6.82395 31.6675L6.71393 31.6675C6.68599 31.6675 6.66337 31.6449 6.66337 31.6169L6.66337 31.3638C6.66337 31.3358 6.68599 31.3132 6.71393 31.3132L6.82395 31.3132C6.8519 31.3134 6.87451 31.336 6.87451 31.3638Z" fill="url(#paint3_linear_652_1669)"/>
<path d="M6.87451 30.8725L6.87451 30.6691C6.87451 30.6274 6.84075 30.5938 6.79923 30.5938L6.73897 30.5938C6.69729 30.5938 6.66369 30.6276 6.66369 30.6691L6.66369 30.8725C6.66369 30.9142 6.69746 30.9478 6.73897 30.9478L6.79923 30.9478C6.84075 30.9479 6.87451 30.9142 6.87451 30.8725Z" fill="url(#paint4_linear_652_1669)"/>
<path d="M7.47412 31.0137L7.47347 31.2129C7.47299 31.3347 7.37395 31.4331 7.25215 31.4326L6.5948 31.4302C6.47299 31.4297 6.37461 31.3307 6.3751 31.2089L6.37574 31.0097C6.37623 30.8879 6.47526 30.7895 6.59707 30.79L7.25441 30.7924C7.37622 30.7929 7.4746 30.8919 7.47412 31.0137Z" fill="url(#paint5_linear_652_1669)"/>
<path d="M6.87451 21.1045L6.87451 21.3576C6.87451 21.3854 6.8519 21.4082 6.82395 21.4082L6.71393 21.4082C6.68599 21.4082 6.66337 21.3856 6.66337 21.3576L6.66337 21.1045C6.66337 21.0765 6.68599 21.0539 6.71393 21.0539L6.82395 21.0539C6.8519 21.0539 6.87451 21.0765 6.87451 21.1045Z" fill="url(#paint6_linear_652_1669)"/>
<path d="M6.87451 20.6132L6.87451 20.4098C6.87451 20.3681 6.84075 20.3345 6.79923 20.3345L6.73897 20.3345C6.69729 20.3345 6.66369 20.3683 6.66369 20.4098L6.66369 20.6132C6.66369 20.6549 6.69746 20.6885 6.73897 20.6885L6.79923 20.6885C6.84075 20.6885 6.87451 20.6547 6.87451 20.6132Z" fill="url(#paint7_linear_652_1669)"/>
<path d="M7.47412 20.7544L7.47347 20.9536C7.47299 21.0754 7.37395 21.1738 7.25215 21.1733L6.5948 21.1709C6.47299 21.1704 6.37461 21.0714 6.3751 20.9496L6.37574 20.7504C6.37623 20.6286 6.47526 20.5302 6.59707 20.5307L7.25441 20.5331C7.37622 20.5334 7.4746 20.6326 7.47412 20.7544Z" fill="url(#paint8_linear_652_1669)"/>
<path d="M21.8774 18.2124L21.8774 33.7881L7.9808 33.7881C7.43428 33.7881 6.99148 33.3451 6.99148 32.7988L6.99147 19.2019C6.99147 18.6554 7.43444 18.2124 7.9808 18.2124L21.8774 18.2124Z" fill="#E1E2DD"/>
<path d="M6.99136 19.6891L6.99136 32.3115C6.99136 33.127 7.65242 33.7881 8.46792 33.7881L9.13916 33.7881L9.13916 18.2124L8.46792 18.2124C7.65242 18.2124 6.99136 18.8736 6.99136 19.6891Z" fill="url(#paint9_linear_652_1669)"/>
<path d="M6.99136 19.6891L6.99136 32.3115C6.99136 33.127 7.65242 33.7881 8.46792 33.7881L9.13916 33.7881L9.13916 18.2124L8.46792 18.2124C7.65242 18.2124 6.99136 18.8736 6.99136 19.6891Z" fill="url(#paint10_linear_652_1669)"/>
<path opacity="0.2" d="M7.3563 19.9009L7.3563 32.1002C7.3563 32.8884 8.01736 33.5273 8.83286 33.5273L9.13916 33.5273L9.13916 18.474L8.83286 18.474C8.01736 18.4738 7.3563 19.1127 7.3563 19.9009Z" fill="black"/>
<path d="M21.5806 33.3062L8.56227 33.3062C8.19426 33.3062 7.89588 33.0078 7.89588 32.6398L7.89588 19.3612C7.89588 18.9931 8.19426 18.6948 8.56227 18.6948L21.5806 18.6948L21.5806 33.3062Z" fill="#F5F7EA"/>
<g opacity="0.1">
<path d="M21.5806 33.3062L8.56227 33.3062C8.19426 33.3062 7.89588 33.0078 7.89588 32.6398L7.89588 19.3612C7.89588 18.9931 8.19426 18.6948 8.56227 18.6948L21.5806 18.6948L21.5806 33.3062Z" fill="url(#paint11_radial_652_1669)"/>
</g>
<g opacity="0.5">
<path d="M21.5806 33.3062L8.56227 33.3062C8.19426 33.3062 7.89588 33.0078 7.89588 32.6398L7.89588 19.3612C7.89588 18.9931 8.19426 18.6948 8.56227 18.6948L21.5806 18.6948L21.5806 33.3062Z" fill="url(#paint12_linear_652_1669)"/>
</g>
<path opacity="0.3" d="M7.89565 29.4616L7.89565 30.3122L17.6004 31.0469L17.6641 30.1963L7.89565 29.4616Z" fill="url(#paint13_linear_652_1669)"/>
<path opacity="0.3" d="M7.89565 22.5464L7.89565 21.6958L17.6004 20.9611L17.6641 21.8117L7.89565 22.5464Z" fill="url(#paint14_linear_652_1669)"/>
<path d="M7.47432 19.6894L7.47432 32.3118C7.47432 32.8601 7.9202 33.3062 8.46866 33.3062L8.89062 33.3062C8.34152 33.3062 7.89613 32.8609 7.89613 32.3118L7.89613 19.6894C7.89613 19.1402 8.34136 18.6949 8.89062 18.6949L8.46866 18.6949C7.9202 18.6949 7.47432 19.141 7.47432 19.6894Z" fill="#CCCCCC"/>
<path opacity="0.4" d="M7.52148 22.6052L7.52148 29.4609L7.57657 29.4609L7.57657 22.6052L7.52148 22.6052Z" fill="#666666"/>
<path opacity="0.4" d="M7.61523 22.6052L7.61523 29.4609L7.67032 29.4609L7.67032 22.6052L7.61523 22.6052Z" fill="#666666"/>
<path opacity="0.4" d="M7.70898 22.6052L7.70898 29.4609L7.76407 29.4609L7.76407 22.6052L7.70898 22.6052Z" fill="#666666"/>
<path opacity="0.4" d="M7.80225 22.6052L7.80225 29.4609L7.85733 29.4609L7.85733 22.6052L7.80225 22.6052Z" fill="#666666"/>
<path d="M7.47335 32.31L7.47335 32.3118C7.47335 32.8601 7.91922 33.3062 8.46768 33.3062L8.88965 33.3062C8.34054 33.3062 7.89515 32.8609 7.89515 32.3118L7.89515 32.31L7.47335 32.31Z" fill="#FF6600"/>
<path d="M7.89551 29.4999L7.89551 32.312L7.47354 32.312L7.47354 29.2211L7.89551 29.4999Z" fill="#DCFFFE"/>
<path d="M7.85791 32.3102L7.85791 29.4751L7.76389 29.4129L7.76389 32.3102L7.76389 32.312L7.85791 32.312L7.85791 32.3102Z" fill="white"/>
<path opacity="0.4" d="M7.76353 32.3118C7.76353 32.8601 8.20941 33.3062 8.75787 33.3062L8.85205 33.3062C8.30375 33.3062 7.85771 32.8601 7.85771 32.3118L7.85771 32.31L7.76353 32.31L7.76353 32.3118Z" fill="white"/>
<path d="M8.85205 33.3063L8.85205 33.405C8.85205 33.4307 8.81974 33.4517 8.78 33.4517L8.5023 33.4517C8.46256 33.4517 8.43025 33.4308 8.43025 33.405L8.43025 33.3063L8.85205 33.3063Z" fill="#FF6600"/>
<path d="M7.47335 19.708L7.47335 19.7062C7.47335 19.1579 7.91922 18.7119 8.46768 18.7119L8.88965 18.7119C8.34054 18.7119 7.89515 19.1571 7.89515 19.7062L7.89515 19.708L7.47335 19.708Z" fill="#FF6600"/>
<path d="M7.89551 22.5187L7.89551 19.7066L7.47354 19.7066L7.47354 22.7974L7.89551 22.5187Z" fill="#DCFFFE"/>
<path d="M7.85791 19.7086L7.85791 22.5438L7.76389 22.606L7.76389 19.7086L7.76389 19.7068L7.85791 19.7068L7.85791 19.7086Z" fill="white"/>
<path opacity="0.4" d="M7.76353 19.7062C7.76353 19.1579 8.20941 18.7119 8.75787 18.7119L8.85205 18.7119C8.30375 18.7119 7.85771 19.1579 7.85771 19.7062L7.85771 19.708L7.76353 19.708L7.76353 19.7062Z" fill="white"/>
<path d="M8.85205 18.7124L8.85205 18.6137C8.85205 18.588 8.81974 18.567 8.78 18.567L8.5023 18.567C8.46256 18.567 8.43025 18.5878 8.43025 18.6137L8.43025 18.7124L8.85205 18.7124Z" fill="#FF6600"/>
<path d="M18.8078 32.0128C18.5798 30.4574 18.037 23.5671 18.7591 20.1693C18.8309 19.8319 18.6553 19.4924 18.3389 19.3552L14.1437 18.7408C13.818 18.5997 13.4425 18.7699 13.3374 19.109C12.8004 20.8394 11.5692 26.0228 13.3975 32.8724C13.4892 33.216 13.8655 33.3986 14.1952 33.2653L18.3609 32.7892C18.6711 32.664 18.8562 32.344 18.8078 32.0128Z" fill="#F4F4F4"/>
<path opacity="0.5" d="M18.8078 32.0128C18.5798 30.4574 18.037 23.5671 18.7591 20.1693C18.8309 19.8319 18.6553 19.4924 18.3389 19.3552L14.1437 18.7408C13.818 18.5997 13.4425 18.7699 13.3374 19.109C12.8004 20.8394 11.5692 26.0228 13.3975 32.8724C13.4892 33.216 13.8655 33.3986 14.1952 33.2653L18.3609 32.7892C18.6711 32.664 18.8562 32.344 18.8078 32.0128Z" fill="url(#paint15_linear_652_1669)"/>
<path d="M18.5229 32.118C18.5229 32.2943 18.4163 32.4511 18.2515 32.5179L14.0858 32.9939C14.0044 33.0267 13.9125 33.023 13.834 32.9838C13.7571 32.9453 13.7025 32.8789 13.6803 32.7968C13.0461 30.4206 12.7245 28.0197 12.7245 25.6608C12.7245 22.5381 13.2837 20.2699 13.6172 19.1958C13.6429 19.1131 13.7001 19.0476 13.7787 19.0116C13.8582 18.9751 13.9463 18.9743 14.0275 19.0095L18.2226 19.6239C18.3805 19.6924 18.4826 19.8471 18.4826 20.0182C18.4826 20.0483 18.4793 20.0785 18.4729 20.1085C18.2284 21.2591 18.1045 23.8414 18.1045 25.4067C18.1045 27.6861 18.3637 31.0009 18.5183 32.0553C18.5215 32.0765 18.5229 32.0973 18.5229 32.118Z" fill="black"/>
<path d="M18.376 32.1178C18.376 32.2341 18.3054 32.3376 18.1962 32.3817L14.0305 32.8578C13.9725 32.8812 13.9232 32.8646 13.899 32.8525C13.8712 32.8386 13.8355 32.8111 13.8214 32.7588C13.1904 30.3949 12.8704 28.0067 12.8704 25.6605C12.8704 22.557 13.4256 20.305 13.7565 19.239C13.7742 19.1815 13.8159 19.155 13.8392 19.1443C13.8633 19.1335 13.9116 19.1188 13.9687 19.1435L18.1642 19.7579C18.2682 19.8031 18.3358 19.9052 18.3358 20.018C18.3358 20.0378 18.3335 20.0579 18.3295 20.0777C18.0826 21.2383 17.9577 23.831 17.9577 25.4064C17.9577 27.6951 18.218 31.018 18.3729 32.0763C18.3748 32.0901 18.376 32.104 18.376 32.1178Z" fill="#676B86"/>
<path opacity="0.2" d="M15.168 32.7278C14.7536 31.023 14.4211 28.4723 14.4211 25.9998C14.4211 23.5533 14.7613 21.0174 15.168 19.3192L13.9688 19.1436C13.9116 19.1188 13.8633 19.1335 13.8392 19.1444C13.8161 19.155 13.7743 19.1815 13.7565 19.239C13.4257 20.3051 12.8704 22.5571 12.8704 25.6606C12.8704 28.0067 13.1904 30.3949 13.8215 32.7588C13.8355 32.8112 13.8712 32.8386 13.899 32.8525C13.9232 32.8645 13.9725 32.8813 14.0305 32.8579L15.168 32.7278Z" fill="black"/>
<path d="M14.1128 32.8247C13.6619 30.9991 13.3882 28.6132 13.3882 25.9998C13.3882 23.3999 13.6592 21.0251 14.1058 19.203L13.9687 19.1436C13.9115 19.1188 13.8632 19.1335 13.8391 19.1444C13.816 19.155 13.7742 19.1815 13.7564 19.239C13.4256 20.3051 12.8703 22.5571 12.8703 25.6606C12.8703 28.0067 13.1903 30.3949 13.8214 32.7588C13.8354 32.8112 13.8711 32.8386 13.8989 32.8525C13.9231 32.8645 13.9724 32.8813 14.0304 32.8579L14.1128 32.8247Z" fill="#333333"/>
<path d="M14.041 30.6113L13.6436 28.7025L13.7391 28.685L14.0889 30.6028L14.041 30.6113Z" fill="black"/>
<path d="M13.2558 26.0394L13.7314 28.647L13.6091 28.5181L13.1604 26.0569L13.2558 26.0394Z" fill="black"/>
<path d="M14.0933 30.4913L13.2642 25.9371L13.2133 25.9464L14.0634 30.6074L14.0933 30.4913Z" fill="#333333"/>
<path d="M13.2345 26.0545C13.1614 26.0677 13.0915 26.0194 13.0782 25.9464C13.065 25.8734 13.1133 25.8034 13.1863 25.7902C13.2593 25.7769 13.3293 25.8252 13.3425 25.8982C13.3558 25.9713 13.3075 26.0412 13.2345 26.0545Z" fill="black"/>
<path d="M13.2583 26.05C13.1985 26.0608 13.1412 26.0212 13.1304 25.9614C13.1194 25.9017 13.1591 25.8443 13.2189 25.8335C13.2787 25.8225 13.336 25.8623 13.3469 25.922C13.3577 25.9818 13.3181 26.0392 13.2583 26.05Z" fill="#333333"/>
<path d="M13.8272 26.3809L13.6228 24.4418L13.7196 24.4339L13.8755 26.377L13.8272 26.3809Z" fill="black"/>
<path d="M13.5048 21.7534L13.7168 24.3955L13.6082 24.2548L13.4081 21.7611L13.5048 21.7534Z" fill="black"/>
<path d="M13.8906 26.2663L13.5218 21.652L13.4701 21.6562L13.8493 26.3789L13.8906 26.2663Z" fill="#333333"/>
<path d="M13.4809 21.7657C13.407 21.7716 13.3423 21.7164 13.3364 21.6426C13.3304 21.5686 13.3856 21.504 13.4595 21.498C13.5335 21.492 13.5981 21.5473 13.604 21.6211C13.61 21.6949 13.5549 21.7597 13.4809 21.7657Z" fill="black"/>
<path d="M13.5048 21.7643C13.4442 21.7691 13.3912 21.7241 13.3862 21.6635C13.3814 21.6029 13.4266 21.5499 13.4872 21.5451C13.5478 21.5402 13.6008 21.5853 13.6056 21.6459C13.6104 21.7065 13.5654 21.7594 13.5048 21.7643Z" fill="#333333"/>
<path opacity="0.5" d="M18.376 32.1178C18.376 32.2341 18.3054 32.3376 18.1962 32.3817L14.0305 32.8578C13.9725 32.8812 13.9232 32.8646 13.899 32.8525C13.8712 32.8386 13.8355 32.8111 13.8214 32.7588C13.1904 30.3949 12.8704 28.0067 12.8704 25.6605C12.8704 22.557 13.4256 20.305 13.7565 19.239C13.7742 19.1815 13.8159 19.155 13.8392 19.1443C13.8633 19.1335 13.9116 19.1188 13.9687 19.1435L18.1642 19.7579C18.2682 19.8031 18.3358 19.9052 18.3358 20.018C18.3358 20.0378 18.3335 20.0579 18.3295 20.0777C18.0826 21.2383 17.9577 23.831 17.9577 25.4064C17.9577 27.6951 18.218 31.018 18.3729 32.0763C18.3748 32.0901 18.376 32.104 18.376 32.1178Z" fill="url(#paint16_radial_652_1669)"/>
<path opacity="0.3" d="M18.376 32.1178C18.376 32.2341 18.3054 32.3376 18.1962 32.3817L14.0305 32.8578C13.9725 32.8812 13.9232 32.8646 13.899 32.8525C13.8712 32.8386 13.8355 32.8111 13.8214 32.7588C13.1904 30.3949 12.8704 28.0067 12.8704 25.6605C12.8704 22.557 13.4256 20.305 13.7565 19.239C13.7742 19.1815 13.8159 19.155 13.8392 19.1443C13.8633 19.1335 13.9116 19.1188 13.9687 19.1435L18.1642 19.7579C18.2682 19.8031 18.3358 19.9052 18.3358 20.018C18.3358 20.0378 18.3335 20.0579 18.3295 20.0777C18.0826 21.2383 17.9577 23.831 17.9577 25.4064C17.9577 27.6951 18.218 31.018 18.3729 32.0763C18.3748 32.0901 18.376 32.104 18.376 32.1178Z" fill="url(#paint17_radial_652_1669)"/>
<path d="M21.583 33.3126C21.583 33.3058 21.5819 33.2989 21.5801 33.2919L21.583 32.6204C21.5625 32.5511 21.4392 32.4987 21.2964 32.4987L19.3569 32.4987C19.3179 32.4987 19.28 32.5024 19.2441 32.5099L13.8658 33.2315C13.8039 33.2443 13.7655 33.2725 13.7655 33.3053C13.7655 33.3506 13.8375 33.3861 13.9296 33.3861L21.2935 33.4546C21.3715 33.4546 21.4444 33.4397 21.4992 33.4124C21.5534 33.3856 21.583 33.3501 21.583 33.3126Z" fill="#F4F4F4"/>
<path opacity="0.5" d="M21.583 33.3126C21.583 33.3058 21.5819 33.2989 21.5801 33.2919L21.583 32.6204C21.5625 32.5511 21.4392 32.4987 21.2964 32.4987L19.3569 32.4987C19.3179 32.4987 19.28 32.5024 19.2441 32.5099L13.8658 33.2315C13.8039 33.2443 13.7655 33.2725 13.7655 33.3053C13.7655 33.3506 13.8375 33.3861 13.9296 33.3861L21.2935 33.4546C21.3715 33.4546 21.4444 33.4397 21.4992 33.4124C21.5534 33.3856 21.583 33.3501 21.583 33.3126Z" fill="url(#paint18_linear_652_1669)"/>
<path d="M13.9081 33.281L19.2866 32.5594C19.3089 32.5547 19.3328 32.5524 19.357 32.5524L21.2964 32.5524C21.3864 32.5524 21.4627 32.5849 21.4756 32.6285L21.4727 33.3001C21.4887 33.3537 21.4039 33.4019 21.2935 33.4019L13.9296 33.3334C13.8694 33.3332 13.8527 33.2925 13.9081 33.281Z" fill="black"/>
<path d="M21.3653 33.3074L21.3682 32.6359C21.3632 32.6184 21.3323 32.6053 21.2964 32.6053L19.3569 32.6053C19.3472 32.6053 19.3378 32.6063 19.3289 32.6081L14.192 33.2796L21.2935 33.3481C21.3131 33.3481 21.3313 33.3444 21.3451 33.3376C21.3586 33.3309 21.3661 33.322 21.3661 33.3126L21.3653 33.3074Z" fill="#676B86"/>
<path opacity="0.2" d="M21.2992 33.0861L21.3649 33.3073L21.3657 33.3126C21.3657 33.322 21.3583 33.3309 21.3447 33.3376C21.331 33.3444 21.3127 33.3481 21.2932 33.3481L14.1916 33.2797L16.6456 33.1646L21.2992 33.0861Z" fill="black"/>
<path opacity="0.5" d="M21.3653 33.3074L21.3682 32.6359C21.3632 32.6184 21.3323 32.6053 21.2964 32.6053L19.3569 32.6053C19.3472 32.6053 19.3378 32.6063 19.3289 32.6081L14.192 33.2796L21.2935 33.3481C21.3131 33.3481 21.3313 33.3444 21.3451 33.3376C21.3586 33.3309 21.3661 33.322 21.3661 33.3126L21.3653 33.3074Z" fill="url(#paint19_linear_652_1669)"/>
<path opacity="0.3" d="M21.3653 33.3074L21.3682 32.6359C21.3632 32.6184 21.3323 32.6053 21.2964 32.6053L19.3569 32.6053C19.3472 32.6053 19.3378 32.6063 19.3289 32.6081L14.192 33.2796L21.2935 33.3481C21.3131 33.3481 21.3313 33.3444 21.3451 33.3376C21.3586 33.3309 21.3661 33.322 21.3661 33.3126L21.3653 33.3074Z" fill="url(#paint20_linear_652_1669)"/>
<path d="M21.5825 18.6475C21.5825 18.6543 21.5814 18.6613 21.5796 18.6682L21.5825 19.3398C21.562 19.4091 21.4387 19.4614 21.2959 19.4614L19.3564 19.4614C19.3174 19.4614 19.2795 19.4577 19.2436 19.4501L13.8653 18.7285C13.8034 18.7156 13.765 18.6875 13.765 18.6547C13.765 18.6094 13.837 18.5739 13.9291 18.5739L21.293 18.5054C21.371 18.5054 21.4439 18.5202 21.4987 18.5474C21.553 18.5745 21.5825 18.6101 21.5825 18.6475Z" fill="#F4F4F4"/>
<path opacity="0.5" d="M21.5825 18.6475C21.5825 18.6543 21.5814 18.6613 21.5796 18.6682L21.5825 19.3398C21.562 19.4091 21.4387 19.4614 21.2959 19.4614L19.3564 19.4614C19.3174 19.4614 19.2795 19.4577 19.2436 19.4501L13.8653 18.7285C13.8034 18.7156 13.765 18.6875 13.765 18.6547C13.765 18.6094 13.837 18.5739 13.9291 18.5739L21.293 18.5054C21.371 18.5054 21.4439 18.5202 21.4987 18.5474C21.553 18.5745 21.5825 18.6101 21.5825 18.6475Z" fill="url(#paint21_linear_652_1669)"/>
<path d="M13.9076 18.6791L19.2861 19.4008C19.3084 19.4055 19.3323 19.4077 19.3565 19.4077L21.2959 19.4077C21.3859 19.4077 21.4622 19.3754 21.4751 19.3316L21.4722 18.6601C21.4882 18.6064 21.4034 18.5583 21.293 18.5583L13.9291 18.6268C13.8689 18.627 13.8522 18.6675 13.9076 18.6791Z" fill="black"/>
<path d="M21.3648 18.6529L21.3677 19.3244C21.3627 19.3419 21.3318 19.355 21.2959 19.355L19.3564 19.355C19.3467 19.355 19.3373 19.354 19.3284 19.3522L14.1915 18.6807L21.293 18.6122C21.3126 18.6122 21.3308 18.6159 21.3446 18.6227C21.3581 18.6295 21.3656 18.6384 21.3656 18.6477L21.3648 18.6529Z" fill="#676B86"/>
<path opacity="0.2" d="M21.2992 18.874L21.3649 18.6529L21.3657 18.6475C21.3657 18.6382 21.3583 18.6293 21.3447 18.6225C21.331 18.6157 21.3127 18.612 21.2932 18.612L14.1916 18.6805L16.6456 18.7955L21.2992 18.874Z" fill="black"/>
<path opacity="0.5" d="M21.3648 18.6529L21.3677 19.3244C21.3627 19.3419 21.3318 19.355 21.2959 19.355L19.3564 19.355C19.3467 19.355 19.3373 19.354 19.3284 19.3522L14.1915 18.6807L21.293 18.6122C21.3126 18.6122 21.3308 18.6159 21.3446 18.6227C21.3581 18.6295 21.3656 18.6384 21.3656 18.6477L21.3648 18.6529Z" fill="url(#paint22_linear_652_1669)"/>
<path opacity="0.3" d="M21.3648 18.6529L21.3677 19.3244C21.3627 19.3419 21.3318 19.355 21.2959 19.355L19.3564 19.355C19.3467 19.355 19.3373 19.354 19.3284 19.3522L14.1915 18.6807L21.293 18.6122C21.3126 18.6122 21.3308 18.6159 21.3446 18.6227C21.3581 18.6295 21.3656 18.6384 21.3656 18.6477L21.3648 18.6529Z" fill="url(#paint23_linear_652_1669)"/>
<path d="M14.7166 33.3054L15.3457 34.9375L15.0412 34.9375C14.8979 34.9375 14.7693 34.8493 14.7178 34.7155L14.1741 33.3054L14.7166 33.3054Z" fill="#999999"/>
<path opacity="0.4" d="M14.7542 33.3054L15.3833 34.9375L15.0788 34.9375C14.9355 34.9375 14.8069 34.8493 14.7552 34.7155L14.2116 33.3054L14.7542 33.3054Z" fill="url(#paint24_linear_652_1669)"/>
<path d="M15.1432 33.7729L15.4787 34.8031C15.5004 34.8695 15.451 34.9375 15.3812 34.9375L15.0065 34.9375L14.6041 33.7018L15.0455 33.7018C15.0899 33.702 15.1293 33.7307 15.1432 33.7729Z" fill="#666666"/>
<path opacity="0.3" d="M15.1432 33.7729L15.4787 34.8031C15.5004 34.8695 15.451 34.9375 15.3812 34.9375L15.0065 34.9375L14.6041 33.7018L15.0455 33.7018C15.0899 33.702 15.1293 33.7307 15.1432 33.7729Z" fill="url(#paint25_linear_652_1669)"/>
<path d="M14.7166 18.6396L15.3457 17.0075L15.0412 17.0075C14.8979 17.0075 14.7693 17.0957 14.7178 17.2295L14.1741 18.6396L14.7166 18.6396Z" fill="#999999"/>
<path opacity="0.4" d="M14.7542 18.6396L15.3833 17.0075L15.0788 17.0075C14.9355 17.0075 14.8069 17.0957 14.7552 17.2295L14.2116 18.6396L14.7542 18.6396Z" fill="url(#paint26_linear_652_1669)"/>
<path d="M15.1432 18.1722L15.4787 17.1421C15.5004 17.0757 15.451 17.0075 15.3812 17.0075L15.0065 17.0075L14.6041 18.2432L15.0455 18.2432C15.0899 18.243 15.1293 18.2144 15.1432 18.1722Z" fill="#666666"/>
<path opacity="0.3" d="M15.1432 18.1722L15.4787 17.1421C15.5004 17.0757 15.451 17.0075 15.3812 17.0075L15.0065 17.0075L14.6041 18.2432L15.0455 18.2432C15.0899 18.243 15.1293 18.2144 15.1432 18.1722Z" fill="url(#paint27_linear_652_1669)"/>
<path opacity="0.7" d="M21.2803 21.8578L21.2803 30.6274L20.2021 30.3048L20.2021 21.5352L21.2803 21.8578Z" fill="url(#paint28_linear_652_1669)"/>
<path d="M21.0146 21.7011L21.0146 30.3003C21.0146 30.5613 20.803 30.7729 20.542 30.7729L20.0392 30.7729C19.7782 30.7729 19.5665 30.5613 19.5665 30.3003L19.5665 21.7011C19.5665 21.44 19.7782 21.2284 20.0392 21.2284L20.542 21.2284C20.803 21.2284 21.0146 21.44 21.0146 21.7011Z" fill="#999999"/>
<path d="M19.5667 21.7014L19.5667 24.9395L21.0146 24.9395L21.0146 21.7014C21.0146 21.4403 20.803 21.2287 20.542 21.2287L20.0392 21.2287C19.7783 21.2287 19.5667 21.4403 19.5667 21.7014Z" fill="#5D94FF"/>
<path opacity="0.5" d="M20.6699 24.5942L19.911 24.5942L19.911 21.7007C19.911 21.6303 19.9685 21.5728 20.0392 21.5728L20.5417 21.5728C20.6124 21.5728 20.6699 21.6302 20.6699 21.7007L20.6699 24.5942Z" fill="#5384E4"/>
<path d="M19.5667 30.3003L19.5667 27.0622L21.0146 27.0622L21.0146 30.3003C21.0146 30.5613 20.803 30.7729 20.542 30.7729L20.0392 30.7729C19.7783 30.7729 19.5667 30.5613 19.5667 30.3003Z" fill="#CC0000"/>
<path opacity="0.3" d="M20.6699 30.3001C20.6699 30.3707 20.6124 30.4282 20.5417 30.4282L20.0392 30.4282C19.9685 30.4282 19.911 30.3709 19.911 30.3001L19.911 27.4066L20.6699 27.4066L20.6699 30.3001Z" fill="#660000"/>
<path opacity="0.5" d="M21.0146 21.7011L21.0146 30.3003C21.0146 30.5613 20.803 30.7729 20.542 30.7729L20.0392 30.7729C19.7782 30.7729 19.5665 30.5613 19.5665 30.3003L19.5665 21.7011C19.5665 21.44 19.7782 21.2284 20.0392 21.2284L20.542 21.2284C20.803 21.2284 21.0146 21.44 21.0146 21.7011Z" fill="url(#paint29_radial_652_1669)"/>
<path opacity="0.5" d="M21.0146 21.7011L21.0146 30.3003C21.0146 30.5613 20.803 30.7729 20.542 30.7729L20.0392 30.7729C19.7782 30.7729 19.5665 30.5613 19.5665 30.3003L19.5665 21.7011C19.5665 21.44 19.7782 21.2284 20.0392 21.2284L20.542 21.2284C20.803 21.2284 21.0146 21.44 21.0146 21.7011Z" fill="url(#paint30_linear_652_1669)"/>
<path d="M19.6867 21.8746L19.6867 30.1266C19.6867 30.3772 19.8723 30.5801 20.1012 30.5801L20.29 30.5801C20.0611 30.5801 19.8755 30.377 19.8755 30.1266L19.8755 21.8746C19.8755 21.6242 20.0611 21.4211 20.29 21.4211L20.1012 21.4211C19.8723 21.4211 19.6867 21.6242 19.6867 21.8746Z" fill="url(#paint31_linear_652_1669)"/>
<path d="M20.894 21.8746L20.894 30.1266C20.894 30.3772 20.7084 30.5801 20.4795 30.5801L20.2907 30.5801C20.5196 30.5801 20.7052 30.377 20.7052 30.1266L20.7052 21.8746C20.7052 21.6242 20.5196 21.4211 20.2907 21.4211L20.4795 21.4211C20.7086 21.4211 20.894 21.6242 20.894 21.8746Z" fill="url(#paint32_linear_652_1669)"/>
<path opacity="0.4" d="M19.6474 30.5635L19.7892 30.4444C19.8375 30.4037 19.9301 30.3785 20.0306 30.3783L20.5503 30.3779C20.6511 30.3777 20.7442 30.4031 20.7926 30.4439L20.935 30.5635C20.9568 30.5308 20.9731 30.4947 20.9863 30.457L20.8902 30.3762C20.8392 30.3334 20.7416 30.3068 20.6356 30.3069L19.9485 30.3074C19.8434 30.3076 19.7464 30.3339 19.6955 30.3764L19.5965 30.459C19.6096 30.4958 19.6258 30.5315 19.6474 30.5635Z" fill="white"/>
<path opacity="0.4" d="M19.6474 21.4446L19.7892 21.5637C19.8375 21.6044 19.9301 21.6296 20.0306 21.6298L20.5503 21.6303C20.6511 21.6303 20.7442 21.605 20.7926 21.5642L20.935 21.4446C20.9568 21.4773 20.9731 21.5134 20.9863 21.5511L20.8902 21.6319C20.8392 21.6747 20.7416 21.7013 20.6356 21.7012L19.9485 21.7005C19.8434 21.7005 19.7464 21.674 19.6955 21.6315L19.5965 21.549C19.6096 21.5122 19.6258 21.4766 19.6474 21.4446Z" fill="white"/>
<path opacity="0.4" d="M20.2561 30.0835L20.3257 30.0835L20.3257 21.9176L20.2561 21.9176L20.2561 30.0835Z" fill="black"/>
<path d="M46.0076 17.7983L46.0076 34.2019C46.0076 34.3982 45.8484 34.5571 45.6522 34.5571L22.2327 34.5571C22.0364 34.5571 21.8773 34.398 21.8773 34.2019L21.8773 17.7983C21.8773 17.602 22.0364 17.4429 22.2327 17.4429L45.6522 17.4429C45.8484 17.4429 46.0076 17.602 46.0076 17.7983Z" fill="#CC3300"/>
<path d="M45.7671 34.202C45.7671 34.265 45.7157 34.3164 45.6529 34.3164L22.2334 34.3164C22.1705 34.3164 22.1192 34.265 22.1192 34.202L22.1192 17.7986C22.1192 17.7356 22.1705 17.6844 22.2334 17.6844L45.6529 17.6844C45.7157 17.6844 45.7671 17.7358 45.7671 17.7986L45.7671 34.202Z" fill="#F5F7EA"/>
<path d="M45.7671 34.202C45.7671 34.265 45.7157 34.3164 45.6529 34.3164L22.2334 34.3164C22.1705 34.3164 22.1192 34.265 22.1192 34.202L22.1192 17.7986C22.1192 17.7356 22.1705 17.6844 22.2334 17.6844L45.6529 17.6844C45.7157 17.6844 45.7671 17.7358 45.7671 17.7986L45.7671 34.202Z" fill="url(#paint33_radial_652_1669)"/>
<path opacity="0.2" d="M45.7671 34.202C45.7671 34.265 45.7157 34.3164 45.6529 34.3164L22.2334 34.3164C22.1705 34.3164 22.1192 34.265 22.1192 34.202L22.1192 17.7986C22.1192 17.7356 22.1705 17.6844 22.2334 17.6844L45.6529 17.6844C45.7157 17.6844 45.7671 17.7358 45.7671 17.7986L45.7671 34.202Z" fill="#FF8282"/>
<path d="M46.1289 31.9304L46.0076 31.9304L46.0076 33.5879L46.1289 33.5879C46.2649 33.5879 46.3752 33.4776 46.3752 33.3414L46.3752 32.1768C46.3752 32.0407 46.2649 31.9304 46.1289 31.9304Z" fill="#EF0C0C"/>
<path opacity="0.4" d="M46.049 32.1172L46.049 33.4014C46.2064 33.4014 46.334 33.2737 46.334 33.1164L46.334 32.4022C46.334 32.2448 46.2064 32.1172 46.049 32.1172Z" fill="#660000"/>
<path d="M46.0309 33.4863L46.0309 33.4784C46.1757 33.4466 46.2841 33.318 46.2841 33.1637L46.2841 32.3552C46.2841 32.2009 46.1757 32.0723 46.0309 32.0405L46.0309 32.0326C46.2091 32.0326 46.3535 32.177 46.3535 32.3552L46.3535 33.1637C46.3535 33.3419 46.2091 33.4863 46.0309 33.4863Z" fill="url(#paint34_linear_652_1669)"/>
<path opacity="0.6" d="M46.1864 32.4791C46.1874 32.6327 46.1884 32.7865 46.1895 32.9401C46.19 33.0083 46.1963 33.0826 46.1829 33.15C46.1774 33.1773 46.1667 33.2306 46.1307 33.2319C46.0953 33.2332 46.0898 33.1909 46.0897 33.1642C46.0897 33.0881 46.0842 32.2213 46.0986 32.2213C46.1315 32.2216 46.1598 32.2479 46.1725 32.2784C46.1853 32.309 46.1856 32.3429 46.186 32.3759C46.186 32.4103 46.1863 32.4447 46.1864 32.4791Z" fill="url(#paint35_linear_652_1669)"/>
<path d="M46.1289 18.7502L46.0076 18.7502L46.0076 20.4077L46.1289 20.4077C46.2649 20.4077 46.3752 20.2974 46.3752 20.1613L46.3752 18.9968C46.3752 18.8607 46.2649 18.7502 46.1289 18.7502Z" fill="#EF0C0C"/>
<path opacity="0.4" d="M46.049 18.9372L46.049 20.2212C46.2064 20.2212 46.334 20.0936 46.334 19.9362L46.334 19.222C46.334 19.0648 46.2064 18.9372 46.049 18.9372Z" fill="#660000"/>
<path d="M46.0304 20.3057L46.0304 20.2977C46.1752 20.2659 46.2836 20.1373 46.2836 19.9831L46.2836 19.1745C46.2836 19.0202 46.1752 18.8916 46.0304 18.8598L46.0304 18.8519C46.2086 18.8519 46.353 18.9963 46.353 19.1745L46.353 19.9831C46.353 20.1612 46.2086 20.3057 46.0304 20.3057Z" fill="url(#paint36_linear_652_1669)"/>
<path opacity="0.6" d="M46.1864 19.2989C46.1874 19.4525 46.1884 19.6063 46.1895 19.76C46.19 19.8281 46.1963 19.9025 46.1829 19.9698C46.1774 19.9971 46.1667 20.0504 46.1307 20.0517C46.0953 20.053 46.0898 20.0107 46.0897 19.984C46.0897 19.908 46.0842 19.0411 46.0986 19.0411C46.1315 19.0414 46.1598 19.0677 46.1725 19.0983C46.1853 19.1288 46.1856 19.1627 46.186 19.1957C46.186 19.2303 46.1863 19.2647 46.1864 19.2989Z" fill="url(#paint37_linear_652_1669)"/>
<path d="M30.6182 27.0632L32.7042 27.0632C32.801 27.0632 32.8797 27.1415 32.8797 27.2383L32.8797 29.3243C32.8797 29.4211 32.958 29.4995 33.0548 29.4995L34.8316 29.4995C34.9283 29.4995 35.007 29.4211 35.007 29.3243L35.007 27.2383C35.007 27.1415 35.0854 27.0632 35.1822 27.0632L37.2682 27.0632C37.365 27.0632 37.4434 26.9848 37.4434 26.8877L37.4434 25.111C37.4434 25.0142 37.365 24.9359 37.2682 24.9359L35.1822 24.9359C35.0854 24.9359 35.007 24.8575 35.007 24.7604L35.007 22.6747C35.007 22.5779 34.9286 22.4995 34.8316 22.4995L33.0548 22.4995C32.958 22.4995 32.8797 22.5779 32.8797 22.6747L32.8797 24.7604C32.8797 24.8572 32.8013 24.9359 32.7042 24.9359L30.6182 24.9359C30.5214 24.9359 30.443 25.0142 30.443 25.111L30.443 26.8877C30.443 26.9848 30.5214 27.0632 30.6182 27.0632Z" fill="#CC3300"/>
<path d="M46.0076 20.8147L46.0076 31.5557L46.3302 31.5557L46.3302 20.8147L46.0076 20.8147Z" fill="#F5F7EA"/>
<path opacity="0.5" d="M46.3301 20.8151L46.3301 31.5562L46.0075 31.5562L46.0075 20.8151L46.3301 20.8151Z" fill="url(#paint38_linear_652_1669)"/>
<path opacity="0.5" d="M46.0076 26.1429L46.0076 26.228L46.3302 26.228L46.3302 26.1429L46.0076 26.1429Z" fill="#666666"/>
<path d="M46.2182 26.5068L46.2182 31.3149C46.2182 31.3732 46.2654 31.4204 46.3237 31.4204L46.3298 31.4204L46.3298 26.4013L46.3237 26.4013C46.2654 26.4013 46.2182 26.4484 46.2182 26.5068Z" fill="#AAD5F9"/>
<path d="M46.2182 26.5068L46.2182 31.3149C46.2182 31.3732 46.2654 31.4204 46.3237 31.4204L46.3298 31.4204L46.3298 31.4064C46.297 31.3884 46.2739 31.355 46.2739 31.3149L46.2739 26.5068C46.2739 26.4669 46.297 26.4333 46.3298 26.4153L46.3298 26.4013L46.3237 26.4013C46.2654 26.4013 46.2182 26.4484 46.2182 26.5068Z" fill="white"/>
<path d="M46.2184 21.0492L46.2184 25.8574C46.2184 25.9157 46.2656 25.9629 46.3239 25.9629L46.3301 25.9629L46.3301 20.9438L46.3239 20.9438C46.2656 20.9439 46.2184 20.9911 46.2184 21.0492Z" fill="#AAD5F9"/>
<path d="M46.2184 21.0492L46.2184 25.8574C46.2184 25.9157 46.2656 25.9629 46.3239 25.9629L46.3301 25.9629L46.3301 25.9488C46.2973 25.9309 46.2742 25.8975 46.2742 25.8574L46.2742 21.0492C46.2742 21.0093 46.2973 20.9757 46.3301 20.9578L46.3301 20.9438L46.3239 20.9438C46.2656 20.9439 46.2184 20.9911 46.2184 21.0492Z" fill="white"/>
<path d="M22.1187 17.4436L16.209 17.4436C16.0345 17.4436 15.8673 17.5129 15.7439 17.6362L15.1677 18.2124L22.1187 18.2124L22.1187 17.4436Z" fill="#CCCCCC"/>
<path d="M21.9976 17.5643L21.9976 18.0923L15.458 18.0923L15.8285 17.7217C15.9299 17.6202 16.0648 17.5643 16.2083 17.5643L21.9976 17.5643Z" fill="url(#paint39_linear_652_1669)"/>
<path opacity="0.5" d="M22.1187 17.4436L16.209 17.4436C16.0345 17.4436 15.8673 17.5129 15.7439 17.6362L15.1677 18.2124L22.1187 18.2124L22.1187 17.4436Z" fill="url(#paint40_linear_652_1669)"/>
<path opacity="0.4" d="M22.1187 17.4436L16.209 17.4436C16.0345 17.4436 15.8673 17.5129 15.7439 17.6362L15.1677 18.2124L22.1187 18.2124L22.1187 17.4436Z" fill="url(#paint41_linear_652_1669)"/>
<mask id="mask1_652_1669" style="mask-type:luminance" maskUnits="userSpaceOnUse" x="15" y="17" width="7" height="2">
<path d="M21.9976 17.5643L21.9976 18.0923L15.458 18.0923L15.8285 17.7217C15.9299 17.6202 16.0648 17.5643 16.2083 17.5643L21.9976 17.5643Z" fill="white"/>
</mask>
<g mask="url(#mask1_652_1669)">
<path d="M21.9463 17.9727C21.9207 17.927 21.9162 17.8808 21.9162 17.8808C21.9162 17.8808 21.9532 17.9087 21.9787 17.9545C22.0043 18.0002 22.0088 18.0464 22.0088 18.0464C22.0088 18.0464 21.9718 18.0184 21.9463 17.9727Z" fill="#999999"/>
<path d="M21.7373 17.6107C21.7118 17.565 21.7072 17.519 21.7072 17.519C21.7072 17.519 21.7442 17.5469 21.7698 17.5926C21.7953 17.6384 21.7998 17.6846 21.7998 17.6846C21.7998 17.6846 21.7628 17.6565 21.7373 17.6107Z" fill="#999999"/>
<path d="M21.8666 17.7981C21.8209 17.8236 21.7748 17.8281 21.7748 17.8281C21.7748 17.8281 21.8028 17.7911 21.8485 17.7656C21.8942 17.7401 21.9404 17.7356 21.9404 17.7356C21.9404 17.7356 21.9123 17.7726 21.8666 17.7981Z" fill="#999999"/>
<path d="M21.7388 18.0251C21.6931 18.0507 21.6469 18.0552 21.6469 18.0552C21.6469 18.0552 21.6749 18.0182 21.7206 17.9927C21.7663 17.9671 21.8125 17.9626 21.8125 17.9626C21.8125 17.9626 21.7846 17.9996 21.7388 18.0251Z" fill="#999999"/>
<path d="M21.5307 17.6635C21.4849 17.689 21.4389 17.6934 21.4389 17.6934C21.4389 17.6934 21.4669 17.6564 21.5126 17.6308C21.5583 17.6053 21.6045 17.601 21.6045 17.601C21.6045 17.601 21.5764 17.6379 21.5307 17.6635Z" fill="#999999"/>
<path d="M21.6404 17.8177C21.6659 17.8635 21.6704 17.9097 21.6704 17.9097C21.6704 17.9097 21.6334 17.8817 21.6079 17.836C21.5824 17.7903 21.5778 17.7442 21.5778 17.7442C21.5778 17.7442 21.6148 17.7722 21.6404 17.8177Z" fill="#999999"/>
<path d="M21.4595 18.0963C21.4339 18.0505 21.4296 18.0043 21.4296 18.0043C21.4296 18.0043 21.4666 18.0323 21.4921 18.078C21.5176 18.1237 21.522 18.1699 21.522 18.1699C21.522 18.1699 21.485 18.142 21.4595 18.0963Z" fill="#999999"/>
<path d="M21.2514 17.7344C21.2259 17.6887 21.2216 17.6425 21.2216 17.6425C21.2216 17.6425 21.2586 17.6705 21.2841 17.7162C21.3096 17.7619 21.314 17.8081 21.314 17.8081C21.314 17.8081 21.277 17.7802 21.2514 17.7344Z" fill="#999999"/>
<path d="M21.3791 17.9216C21.3334 17.9471 21.2872 17.9517 21.2872 17.9517C21.2872 17.9517 21.3152 17.9147 21.3609 17.8891C21.4066 17.8636 21.4526 17.8591 21.4526 17.8591C21.4526 17.8591 21.4249 17.8961 21.3791 17.9216Z" fill="#999999"/>
<path d="M21.252 18.1487C21.2063 18.1742 21.1601 18.1787 21.1601 18.1787C21.1601 18.1787 21.188 18.1417 21.2338 18.1162C21.2795 18.0907 21.3257 18.0861 21.3257 18.0861C21.3257 18.0861 21.2977 18.1231 21.252 18.1487Z" fill="#999999"/>
<path d="M21.0442 17.7868C20.9984 17.8124 20.9522 17.8169 20.9522 17.8169C20.9522 17.8169 20.9802 17.7799 21.0259 17.7544C21.0716 17.7289 21.1177 17.7245 21.1177 17.7245C21.1177 17.7245 21.0899 17.7613 21.0442 17.7868Z" fill="#999999"/>
<path d="M21.1537 17.9413C21.1792 17.987 21.1836 18.0332 21.1836 18.0332C21.1836 18.0332 21.1466 18.0053 21.1211 17.9595C21.0956 17.9138 21.0912 17.8676 21.0912 17.8676C21.0912 17.8676 21.1282 17.8956 21.1537 17.9413Z" fill="#999999"/>
<path d="M20.9685 17.5926C20.994 17.6384 20.9985 17.6846 20.9985 17.6846C20.9985 17.6846 20.9615 17.6566 20.936 17.6109C20.9105 17.5652 20.906 17.5191 20.906 17.5191C20.906 17.5191 20.943 17.5469 20.9685 17.5926Z" fill="#999999"/>
<path d="M20.9271 18.0595C20.8814 18.085 20.8354 18.0894 20.8354 18.0894C20.8354 18.0894 20.8633 18.0524 20.9091 18.0268C20.9548 18.0013 21.001 17.9968 21.001 17.9968C21.001 17.9968 20.9729 18.0338 20.9271 18.0595Z" fill="#999999"/>
<path d="M20.7193 17.6976C20.6736 17.7232 20.6274 17.7275 20.6274 17.7275C20.6274 17.7275 20.6553 17.6905 20.701 17.665C20.7468 17.6395 20.793 17.6351 20.793 17.6351C20.793 17.6351 20.765 17.6721 20.7193 17.6976Z" fill="#999999"/>
<path d="M20.8295 17.8529C20.855 17.8986 20.8594 17.9448 20.8594 17.9448C20.8594 17.9448 20.8224 17.9169 20.7969 17.8712C20.7713 17.8254 20.767 17.7792 20.767 17.7792C20.767 17.7792 20.804 17.8072 20.8295 17.8529Z" fill="#999999"/>
<path d="M20.6476 18.1298C20.6221 18.0841 20.6176 18.038 20.6176 18.038C20.6176 18.038 20.6545 18.066 20.6801 18.1117C20.7056 18.1574 20.71 18.2036 20.71 18.2036C20.71 18.2036 20.6731 18.1755 20.6476 18.1298Z" fill="#999999"/>
<path d="M20.4399 17.768C20.4144 17.7223 20.4099 17.6762 20.4099 17.6762C20.4099 17.6762 20.4469 17.7042 20.4724 17.7499C20.4979 17.7956 20.5024 17.8418 20.5024 17.8418C20.5024 17.8418 20.4654 17.8137 20.4399 17.768Z" fill="#999999"/>
<path d="M20.5679 17.9548C20.5222 17.9803 20.476 17.9849 20.476 17.9849C20.476 17.9849 20.504 17.9479 20.5497 17.9223C20.5954 17.8968 20.6416 17.8923 20.6416 17.8923C20.6416 17.8923 20.6137 17.9293 20.5679 17.9548Z" fill="#999999"/>
<path d="M20.232 17.8207C20.1863 17.8462 20.1401 17.8506 20.1401 17.8506C20.1401 17.8506 20.168 17.8136 20.2137 17.7881C20.2595 17.7625 20.3057 17.7582 20.3057 17.7582C20.3057 17.7582 20.2777 17.795 20.232 17.8207Z" fill="#999999"/>
<path d="M20.3415 17.9755C20.3671 18.0212 20.3716 18.0674 20.3716 18.0674C20.3716 18.0674 20.3346 18.0394 20.3091 17.9937C20.2835 17.948 20.279 17.9018 20.279 17.9018C20.279 17.9018 20.316 17.9297 20.3415 17.9755Z" fill="#999999"/>
<path d="M20.1565 17.6263C20.182 17.6721 20.1865 17.7183 20.1865 17.7183C20.1865 17.7183 20.1495 17.6903 20.124 17.6446C20.0985 17.5989 20.0941 17.5527 20.0941 17.5527C20.0941 17.5527 20.131 17.5806 20.1565 17.6263Z" fill="#999999"/>
<path d="M20.1124 18.06C20.0667 18.0855 20.0204 18.0898 20.0204 18.0898C20.0204 18.0898 20.0484 18.0529 20.0941 18.0273C20.1398 18.0018 20.186 17.9973 20.186 17.9973C20.186 17.9973 20.1581 18.0343 20.1124 18.06Z" fill="#999999"/>
<path d="M19.9042 17.6981C19.8585 17.7237 19.8124 17.728 19.8124 17.728C19.8124 17.728 19.8404 17.691 19.8861 17.6655C19.9318 17.64 19.978 17.6356 19.978 17.6356C19.978 17.6356 19.9499 17.6726 19.9042 17.6981Z" fill="#999999"/>
<path d="M20.0141 17.8534C20.0396 17.8991 20.0439 17.9453 20.0439 17.9453C20.0439 17.9453 20.007 17.9174 19.9814 17.8716C19.9559 17.8259 19.9515 17.7797 19.9515 17.7797C19.9515 17.7797 19.9885 17.8077 20.0141 17.8534Z" fill="#999999"/>
<path d="M19.8323 18.1303C19.8068 18.0846 19.8025 18.0385 19.8025 18.0385C19.8025 18.0385 19.8394 18.0665 19.865 18.1122C19.8905 18.1579 19.895 18.2041 19.895 18.2041C19.895 18.2041 19.8579 18.176 19.8323 18.1303Z" fill="#999999"/>
<path d="M19.6245 17.769C19.599 17.7232 19.5944 17.6772 19.5944 17.6772C19.5944 17.6772 19.6314 17.7051 19.657 17.7509C19.6825 17.7966 19.687 17.8428 19.687 17.8428C19.687 17.8428 19.65 17.8147 19.6245 17.769Z" fill="#999999"/>
<path d="M19.7525 17.9558C19.7068 17.9813 19.6606 17.9858 19.6606 17.9858C19.6606 17.9858 19.6885 17.9488 19.7343 17.9233C19.78 17.8978 19.8262 17.8933 19.8262 17.8933C19.8262 17.8933 19.7982 17.9303 19.7525 17.9558Z" fill="#999999"/>
<path d="M19.4167 17.8212C19.371 17.8467 19.3248 17.8511 19.3248 17.8511C19.3248 17.8511 19.3528 17.8141 19.3985 17.7886C19.4442 17.763 19.4902 17.7587 19.4902 17.7587C19.4902 17.7587 19.4625 17.7955 19.4167 17.8212Z" fill="#999999"/>
<path d="M19.5266 17.9755C19.5521 18.0212 19.5566 18.0674 19.5566 18.0674C19.5566 18.0674 19.5196 18.0394 19.4941 17.9937C19.4686 17.948 19.4641 17.9018 19.4641 17.9018C19.4641 17.9018 19.5011 17.9297 19.5266 17.9755Z" fill="#999999"/>
<path d="M19.3412 17.6268C19.3667 17.6725 19.3711 17.7188 19.3711 17.7188C19.3711 17.7188 19.3341 17.6908 19.3086 17.6451C19.2831 17.5994 19.2787 17.5532 19.2787 17.5532C19.2787 17.5532 19.3157 17.5811 19.3412 17.6268Z" fill="#999999"/>
<path d="M19.2981 18.0595C19.2524 18.085 19.2062 18.0894 19.2062 18.0894C19.2062 18.0894 19.2341 18.0524 19.2798 18.0268C19.3255 18.0013 19.3716 17.9968 19.3716 17.9968C19.3716 17.9968 19.3438 18.0338 19.2981 18.0595Z" fill="#999999"/>
<path d="M19.0899 17.6976C19.0442 17.7232 18.998 17.7275 18.998 17.7275C18.998 17.7275 19.0259 17.6905 19.0717 17.665C19.1174 17.6395 19.1636 17.6351 19.1636 17.6351C19.1636 17.6351 19.1356 17.6721 19.0899 17.6976Z" fill="#999999"/>
<path d="M19.1994 17.8524C19.225 17.8981 19.2295 17.9443 19.2295 17.9443C19.2295 17.9443 19.1925 17.9164 19.167 17.8707C19.1414 17.825 19.1371 17.7788 19.1371 17.7788C19.1371 17.7788 19.1739 17.8067 19.1994 17.8524Z" fill="#999999"/>
<path d="M19.0185 18.1298C18.993 18.0841 18.9886 18.038 18.9886 18.038C18.9886 18.038 19.0256 18.066 19.0512 18.1117C19.0767 18.1574 19.0811 18.2036 19.0811 18.2036C19.0811 18.2036 19.0441 18.1755 19.0185 18.1298Z" fill="#999999"/>
<path d="M18.8104 17.768C18.7848 17.7223 18.7805 17.6762 18.7805 17.6762C18.7805 17.6762 18.8175 17.7042 18.843 17.7499C18.8685 17.7956 18.873 17.8418 18.873 17.8418C18.873 17.8418 18.8359 17.8137 18.8104 17.768Z" fill="#999999"/>
<path d="M18.9389 17.9548C18.8931 17.9803 18.8471 17.9849 18.8471 17.9849C18.8471 17.9849 18.8751 17.9479 18.9208 17.9223C18.9665 17.8968 19.0127 17.8923 19.0127 17.8923C19.0127 17.8923 18.9846 17.9293 18.9389 17.9548Z" fill="#999999"/>
<path d="M18.6021 17.8212C18.5564 17.8467 18.5102 17.8511 18.5102 17.8511C18.5102 17.8511 18.5381 17.8141 18.5839 17.7886C18.6296 17.763 18.6758 17.7587 18.6758 17.7587C18.6758 17.7587 18.6478 17.7955 18.6021 17.8212Z" fill="#999999"/>
<path d="M18.7121 17.9755C18.7377 18.0212 18.7422 18.0674 18.7422 18.0674C18.7422 18.0674 18.7052 18.0394 18.6797 17.9937C18.6541 17.948 18.6496 17.9018 18.6496 17.9018C18.6496 17.9018 18.6866 17.9297 18.7121 17.9755Z" fill="#999999"/>
<path d="M18.5268 17.6268C18.5523 17.6725 18.5566 17.7188 18.5566 17.7188C18.5566 17.7188 18.5196 17.6908 18.4941 17.6451C18.4686 17.5994 18.4642 17.5532 18.4642 17.5532C18.4642 17.5532 18.5011 17.5811 18.5268 17.6268Z" fill="#999999"/>
<path d="M18.4835 18.06C18.4377 18.0855 18.3915 18.0898 18.3915 18.0898C18.3915 18.0898 18.4195 18.0529 18.4652 18.0273C18.5109 18.0018 18.5571 17.9973 18.5571 17.9973C18.5571 17.9973 18.5292 18.0343 18.4835 18.06Z" fill="#999999"/>
<path d="M18.2756 17.6981C18.2299 17.7237 18.1837 17.728 18.1837 17.728C18.1837 17.728 18.2116 17.691 18.2574 17.6655C18.3031 17.64 18.3491 17.6356 18.3491 17.6356C18.3491 17.6356 18.3213 17.6726 18.2756 17.6981Z" fill="#999999"/>
<path d="M18.3855 17.8534C18.411 17.8991 18.4155 17.9453 18.4155 17.9453C18.4155 17.9453 18.3785 17.9174 18.353 17.8716C18.3275 17.8259 18.3231 17.7797 18.3231 17.7797C18.3231 17.7797 18.36 17.8077 18.3855 17.8534Z" fill="#999999"/>
<path d="M18.2041 18.1303C18.1786 18.0846 18.1742 18.0385 18.1742 18.0385C18.1742 18.0385 18.2112 18.0665 18.2367 18.1122C18.2622 18.1579 18.2666 18.2041 18.2666 18.2041C18.2666 18.2041 18.2296 18.176 18.2041 18.1303Z" fill="#999999"/>
<path d="M17.9966 17.7685C17.971 17.7227 17.9667 17.6767 17.9667 17.6767C17.9667 17.6767 18.0037 17.7046 18.0292 17.7504C18.0547 17.7961 18.0591 17.8423 18.0591 17.8423C18.0591 17.8423 18.0221 17.8142 17.9966 17.7685Z" fill="#999999"/>
<path d="M18.1241 17.9553C18.0784 17.9808 18.0322 17.9854 18.0322 17.9854C18.0322 17.9854 18.0601 17.9484 18.1058 17.9228C18.1516 17.8973 18.1978 17.8928 18.1978 17.8928C18.1978 17.8928 18.1698 17.9298 18.1241 17.9553Z" fill="#999999"/>
<path d="M17.7886 17.8212C17.7429 17.8467 17.6967 17.8511 17.6967 17.8511C17.6967 17.8511 17.7247 17.8141 17.7704 17.7886C17.8161 17.763 17.8623 17.7587 17.8623 17.7587C17.8623 17.7587 17.8344 17.7955 17.7886 17.8212Z" fill="#999999"/>
<path d="M17.8998 17.9755C17.9253 18.0212 17.9297 18.0674 17.9297 18.0674C17.9297 18.0674 17.8927 18.0394 17.8672 17.9937C17.8416 17.948 17.8373 17.9018 17.8373 17.9018C17.8373 17.9018 17.8743 17.9297 17.8998 17.9755Z" fill="#999999"/>
<path d="M17.7133 17.6268C17.7388 17.6725 17.7432 17.7188 17.7432 17.7188C17.7432 17.7188 17.7062 17.6908 17.6806 17.6451C17.6551 17.5994 17.6508 17.5532 17.6508 17.5532C17.6508 17.5532 17.6876 17.5811 17.7133 17.6268Z" fill="#999999"/>
<path d="M17.669 18.0595C17.6233 18.085 17.5771 18.0894 17.5771 18.0894C17.5771 18.0894 17.605 18.0524 17.6508 18.0268C17.6965 18.0013 17.7427 17.9968 17.7427 17.9968C17.7427 17.9968 17.7147 18.0338 17.669 18.0595Z" fill="#999999"/>
<path d="M17.461 17.6976C17.4153 17.7232 17.3691 17.7275 17.3691 17.7275C17.3691 17.7275 17.397 17.6905 17.4427 17.665C17.4885 17.6395 17.5347 17.6351 17.5347 17.6351C17.5347 17.6351 17.5067 17.6721 17.461 17.6976Z" fill="#999999"/>
<path d="M17.5705 17.8529C17.5961 17.8986 17.6006 17.9448 17.6006 17.9448C17.6006 17.9448 17.5636 17.9169 17.5381 17.8712C17.5125 17.8254 17.508 17.7792 17.508 17.7792C17.508 17.7792 17.545 17.8072 17.5705 17.8529Z" fill="#999999"/>
<path d="M17.3898 18.1298C17.3643 18.0841 17.3597 18.038 17.3597 18.038C17.3597 18.038 17.3967 18.066 17.4223 18.1117C17.4478 18.1574 17.4521 18.2036 17.4521 18.2036C17.4521 18.2036 17.4153 18.1755 17.3898 18.1298Z" fill="#999999"/>
<path d="M17.1821 17.768C17.1566 17.7223 17.1522 17.6762 17.1522 17.6762C17.1522 17.6762 17.1892 17.7042 17.2147 17.7499C17.2403 17.7956 17.2446 17.8418 17.2446 17.8418C17.2446 17.8418 17.2076 17.8137 17.1821 17.768Z" fill="#999999"/>
<path d="M17.3098 17.9548C17.2641 17.9803 17.2179 17.9849 17.2179 17.9849C17.2179 17.9849 17.2458 17.9479 17.2915 17.9223C17.3373 17.8968 17.3833 17.8923 17.3833 17.8923C17.3833 17.8923 17.3555 17.9293 17.3098 17.9548Z" fill="#999999"/>
<path d="M16.9732 17.8212C16.9275 17.8467 16.8813 17.8511 16.8813 17.8511C16.8813 17.8511 16.9092 17.8141 16.955 17.7886C17.0007 17.763 17.0469 17.7587 17.0469 17.7587C17.0469 17.7587 17.0189 17.7955 16.9732 17.8212Z" fill="#999999"/>
<path d="M17.0839 17.975C17.1094 18.0207 17.1138 18.0669 17.1138 18.0669C17.1138 18.0669 17.0768 18.0389 17.0513 17.9932C17.0257 17.9475 17.0212 17.9013 17.0212 17.9013C17.0212 17.9013 17.0584 17.9293 17.0839 17.975Z" fill="#999999"/>
<path d="M16.8977 17.6268C16.9232 17.6725 16.9277 17.7188 16.9277 17.7188C16.9277 17.7188 16.8907 17.6908 16.8652 17.6451C16.8397 17.5994 16.8352 17.5532 16.8352 17.5532C16.8352 17.5532 16.8722 17.5811 16.8977 17.6268Z" fill="#999999"/>
<path d="M16.8549 18.06C16.8092 18.0855 16.7631 18.0898 16.7631 18.0898C16.7631 18.0898 16.7911 18.0529 16.8368 18.0273C16.8825 18.0018 16.9287 17.9973 16.9287 17.9973C16.9287 17.9973 16.9006 18.0343 16.8549 18.06Z" fill="#999999"/>
<path d="M16.647 17.6981C16.6013 17.7237 16.5551 17.728 16.5551 17.728C16.5551 17.728 16.5831 17.691 16.6288 17.6655C16.6745 17.64 16.7207 17.6356 16.7207 17.6356C16.7207 17.6356 16.6926 17.6726 16.647 17.6981Z" fill="#999999"/>
<path d="M16.7571 17.8534C16.7826 17.8991 16.7871 17.9453 16.7871 17.9453C16.7871 17.9453 16.7501 17.9174 16.7246 17.8716C16.6991 17.8259 16.6947 17.7797 16.6947 17.7797C16.6947 17.7797 16.7315 17.8077 16.7571 17.8534Z" fill="#999999"/>
<path d="M16.5755 18.1303C16.55 18.0846 16.5456 18.0385 16.5456 18.0385C16.5456 18.0385 16.5826 18.0665 16.6081 18.1122C16.6337 18.1579 16.6382 18.2041 16.6382 18.2041C16.6382 18.2041 16.601 18.176 16.5755 18.1303Z" fill="#999999"/>
<path d="M16.3678 17.7685C16.3423 17.7227 16.3378 17.6767 16.3378 17.6767C16.3378 17.6767 16.3748 17.7046 16.4003 17.7504C16.4258 17.7961 16.4302 17.8423 16.4302 17.8423C16.4302 17.8423 16.3933 17.8142 16.3678 17.7685Z" fill="#999999"/>
<path d="M16.496 17.9553C16.4503 17.9808 16.4042 17.9854 16.4042 17.9854C16.4042 17.9854 16.4322 17.9484 16.4779 17.9228C16.5236 17.8973 16.5698 17.8928 16.5698 17.8928C16.5698 17.8928 16.5417 17.9298 16.496 17.9553Z" fill="#999999"/>
<path d="M16.1596 17.8212C16.1139 17.8467 16.0678 17.8511 16.0678 17.8511C16.0678 17.8511 16.0958 17.8141 16.1415 17.7886C16.1872 17.763 16.2334 17.7587 16.2334 17.7587C16.2334 17.7587 16.2053 17.7955 16.1596 17.8212Z" fill="#999999"/>
<path d="M16.2699 17.9755C16.2954 18.0212 16.2998 18.0674 16.2998 18.0674C16.2998 18.0674 16.2628 18.0394 16.2373 17.9937C16.2118 17.948 16.2074 17.9018 16.2074 17.9018C16.2074 17.9018 16.2444 17.9297 16.2699 17.9755Z" fill="#999999"/>
<path d="M16.0842 17.6268C16.1097 17.6725 16.1143 17.7188 16.1143 17.7188C16.1143 17.7188 16.0773 17.6908 16.0517 17.6451C16.0262 17.5994 16.0217 17.5532 16.0217 17.5532C16.0217 17.5532 16.0587 17.5811 16.0842 17.6268Z" fill="#999999"/>
<path d="M16.0401 18.0595C15.9944 18.085 15.9482 18.0894 15.9482 18.0894C15.9482 18.0894 15.9761 18.0524 16.0218 18.0268C16.0676 18.0013 16.1138 17.9968 16.1138 17.9968C16.1138 17.9968 16.0858 18.0338 16.0401 18.0595Z" fill="#999999"/>
<path d="M15.8321 17.6976C15.7864 17.7232 15.7402 17.7275 15.7402 17.7275C15.7402 17.7275 15.7681 17.6905 15.8138 17.665C15.8596 17.6395 15.9058 17.6351 15.9058 17.6351C15.9058 17.6351 15.8776 17.6721 15.8321 17.6976Z" fill="#999999"/>
<path d="M15.9418 17.8529C15.9673 17.8986 15.9717 17.9448 15.9717 17.9448C15.9717 17.9448 15.9347 17.9169 15.9092 17.8712C15.8836 17.8254 15.8791 17.7792 15.8791 17.7792C15.8791 17.7792 15.9163 17.8072 15.9418 17.8529Z" fill="#999999"/>
<path d="M15.7602 18.1298C15.7347 18.0841 15.7302 18.038 15.7302 18.038C15.7302 18.038 15.7672 18.066 15.7927 18.1117C15.8182 18.1574 15.8228 18.2036 15.8228 18.2036C15.8228 18.2036 15.7858 18.1755 15.7602 18.1298Z" fill="#999999"/>
<path d="M15.5527 17.7685C15.5272 17.7227 15.5227 17.6767 15.5227 17.6767C15.5227 17.6767 15.5597 17.7046 15.5852 17.7504C15.6107 17.7961 15.6152 17.8423 15.6152 17.8423C15.6152 17.8423 15.5782 17.8142 15.5527 17.7685Z" fill="#999999"/>
<path d="M15.6802 17.9548C15.6345 17.9803 15.5883 17.9849 15.5883 17.9849C15.5883 17.9849 15.6163 17.9479 15.662 17.9223C15.7077 17.8968 15.7539 17.8923 15.7539 17.8923C15.7539 17.8923 15.726 17.9293 15.6802 17.9548Z" fill="#999999"/>
<path d="M15.4543 17.9755C15.4799 18.0212 15.4844 18.0674 15.4844 18.0674C15.4844 18.0674 15.4474 18.0394 15.4219 17.9937C15.3963 17.948 15.3918 17.9018 15.3918 17.9018C15.3918 17.9018 15.4288 17.9297 15.4543 17.9755Z" fill="#999999"/>
</g>
<defs>
<linearGradient id="paint0_linear_652_1669" x1="23.1702" y1="34.1992" x2="6.14258" y2="33.8777" gradientUnits="userSpaceOnUse">
<stop stop-color="#C7C5C5"/>
<stop offset="0.0359" stop-color="#676767"/>
<stop offset="0.1123" stop-color="white"/>
<stop offset="0.3019" stop-color="#929292"/>
<stop offset="0.492" stop-color="white"/>
<stop offset="0.6257" stop-color="#676767"/>
<stop offset="0.7701" stop-color="#929292"/>
<stop offset="0.8233" stop-color="#C7C5C5"/>
<stop offset="1" stop-color="#343433"/>
</linearGradient>
<linearGradient id="paint1_linear_652_1669" x1="18.6431" y1="33.7421" x2="18.6431" y2="33.8927" gradientUnits="userSpaceOnUse">
<stop offset="0.0051"/>
<stop offset="1" stop-opacity="0"/>
</linearGradient>
<linearGradient id="paint2_linear_652_1669" x1="22.1186" y1="34.1223" x2="21.5895" y2="34.1223" gradientUnits="userSpaceOnUse">
<stop offset="0.0051"/>
<stop offset="1" stop-opacity="0"/>
</linearGradient>
<linearGradient id="paint3_linear_652_1669" x1="6.78349" y1="31.8196" x2="6.76076" y2="31.3042" gradientUnits="userSpaceOnUse">
<stop stop-color="#C7C5C5"/>
<stop offset="0.0359" stop-color="#676767"/>
<stop offset="0.1123" stop-color="white"/>
<stop offset="0.3019" stop-color="#929292"/>
<stop offset="0.492" stop-color="white"/>
<stop offset="0.6809" stop-color="#676767"/>
<stop offset="0.7701" stop-color="#929292"/>
<stop offset="0.8233" stop-color="#C7C5C5"/>
<stop offset="1" stop-color="#343433"/>
</linearGradient>
<linearGradient id="paint4_linear_652_1669" x1="6.78341" y1="30.4435" x2="6.76083" y2="30.9558" gradientUnits="userSpaceOnUse">
<stop stop-color="#C7C5C5"/>
<stop offset="0.0359" stop-color="#676767"/>
<stop offset="0.1123" stop-color="white"/>
<stop offset="0.3019" stop-color="#929292"/>
<stop offset="0.492" stop-color="white"/>
<stop offset="0.6809" stop-color="#676767"/>
<stop offset="0.7701" stop-color="#929292"/>
<stop offset="0.8233" stop-color="#C7C5C5"/>
<stop offset="1" stop-color="#343433"/>
</linearGradient>
<linearGradient id="paint5_linear_652_1669" x1="6.92456" y1="31.93" x2="6.92456" y2="29.438" gradientUnits="userSpaceOnUse">
<stop stop-color="#C7C5C5"/>
<stop offset="0.0359" stop-color="#676767"/>
<stop offset="0.1123" stop-color="white"/>
<stop offset="0.3019" stop-color="#929292"/>
<stop offset="0.492" stop-color="white"/>
<stop offset="0.6257" stop-color="#676767"/>
<stop offset="0.7701" stop-color="#929292"/>
<stop offset="0.8233" stop-color="#C7C5C5"/>
<stop offset="1" stop-color="#343433"/>
</linearGradient>
<linearGradient id="paint6_linear_652_1669" x1="6.78349" y1="21.5603" x2="6.76076" y2="21.0449" gradientUnits="userSpaceOnUse">
<stop stop-color="#C7C5C5"/>
<stop offset="0.0359" stop-color="#676767"/>
<stop offset="0.1123" stop-color="white"/>
<stop offset="0.3019" stop-color="#929292"/>
<stop offset="0.492" stop-color="white"/>
<stop offset="0.6809" stop-color="#676767"/>
<stop offset="0.7701" stop-color="#929292"/>
<stop offset="0.8233" stop-color="#C7C5C5"/>
<stop offset="1" stop-color="#343433"/>
</linearGradient>
<linearGradient id="paint7_linear_652_1669" x1="6.78341" y1="20.1842" x2="6.76083" y2="20.6965" gradientUnits="userSpaceOnUse">
<stop stop-color="#C7C5C5"/>
<stop offset="0.0359" stop-color="#676767"/>
<stop offset="0.1123" stop-color="white"/>
<stop offset="0.3019" stop-color="#929292"/>
<stop offset="0.492" stop-color="white"/>
<stop offset="0.6809" stop-color="#676767"/>
<stop offset="0.7701" stop-color="#929292"/>
<stop offset="0.8233" stop-color="#C7C5C5"/>
<stop offset="1" stop-color="#343433"/>
</linearGradient>
<linearGradient id="paint8_linear_652_1669" x1="6.92456" y1="21.6707" x2="6.92456" y2="19.1786" gradientUnits="userSpaceOnUse">
<stop stop-color="#C7C5C5"/>
<stop offset="0.0359" stop-color="#676767"/>
<stop offset="0.1123" stop-color="white"/>
<stop offset="0.3019" stop-color="#929292"/>
<stop offset="0.492" stop-color="white"/>
<stop offset="0.6257" stop-color="#676767"/>
<stop offset="0.7701" stop-color="#929292"/>
<stop offset="0.8233" stop-color="#C7C5C5"/>
<stop offset="1" stop-color="#343433"/>
</linearGradient>
<linearGradient id="paint9_linear_652_1669" x1="8.02693" y1="34.6884" x2="8.14747" y2="9.67443" gradientUnits="userSpaceOnUse">
<stop stop-color="#C7C5C5"/>
<stop offset="0.0359" stop-color="#676767"/>
<stop offset="0.1123" stop-color="white"/>
<stop offset="0.3019" stop-color="#929292"/>
<stop offset="0.492" stop-color="white"/>
<stop offset="0.6257" stop-color="#676767"/>
<stop offset="0.7701" stop-color="#929292"/>
<stop offset="0.8233" stop-color="#C7C5C5"/>
<stop offset="1" stop-color="#343433"/>
</linearGradient>
<linearGradient id="paint10_linear_652_1669" x1="8.02693" y1="34.6884" x2="8.14747" y2="9.67443" gradientUnits="userSpaceOnUse">
<stop stop-color="#C7C5C5"/>
<stop offset="0.0359" stop-color="#676767"/>
<stop offset="0.1123" stop-color="white"/>
<stop offset="0.3019" stop-color="#929292"/>
<stop offset="0.492" stop-color="white"/>
<stop offset="0.6257" stop-color="#676767"/>
<stop offset="0.7701" stop-color="#929292"/>
<stop offset="0.8233" stop-color="#C7C5C5"/>
<stop offset="1" stop-color="#343433"/>
</linearGradient>
<radialGradient id="paint11_radial_652_1669" cx="0" cy="0" r="1" gradientUnits="userSpaceOnUse" gradientTransform="translate(14.2028 35.6754) rotate(-90) scale(18.0444 18.0446)">
<stop offset="0.0102"/>
<stop offset="1" stop-opacity="0"/>
</radialGradient>
<linearGradient id="paint12_linear_652_1669" x1="14.7383" y1="33.3062" x2="14.7383" y2="18.6949" gradientUnits="userSpaceOnUse">
<stop offset="0.3386" stop-color="white" stop-opacity="0"/>
<stop offset="0.6521" stop-color="white"/>
</linearGradient>
<linearGradient id="paint13_linear_652_1669" x1="12.7815" y1="29.8074" x2="12.7442" y2="30.3061" gradientUnits="userSpaceOnUse">
<stop offset="0.0051"/>
<stop offset="1" stop-opacity="0"/>
</linearGradient>
<linearGradient id="paint14_linear_652_1669" x1="12.7815" y1="22.2005" x2="12.7441" y2="21.7018" gradientUnits="userSpaceOnUse">
<stop offset="0.0051" stop-color="#999999"/>
<stop offset="1" stop-color="#999999" stop-opacity="0"/>
</linearGradient>
<linearGradient id="paint15_linear_652_1669" x1="12.4166" y1="26" x2="12.8466" y2="26" gradientUnits="userSpaceOnUse">
<stop offset="0.0051"/>
<stop offset="1" stop-opacity="0"/>
</linearGradient>
<radialGradient id="paint16_radial_652_1669" cx="0" cy="0" r="1" gradientUnits="userSpaceOnUse" gradientTransform="translate(15.3951 32.8316) rotate(-90) scale(11.9321 11.9322)">
<stop stop-color="white" stop-opacity="0"/>
<stop offset="1" stop-color="white"/>
</radialGradient>
<radialGradient id="paint17_radial_652_1669" cx="0" cy="0" r="1" gradientUnits="userSpaceOnUse" gradientTransform="translate(16.076 31.4593) rotate(-90) scale(11.4863 11.4864)">
<stop offset="0.0102"/>
<stop offset="1" stop-opacity="0"/>
</radialGradient>
<linearGradient id="paint18_linear_652_1669" x1="17.6743" y1="33.4617" x2="17.6743" y2="33.4032" gradientUnits="userSpaceOnUse">
<stop offset="0.0051"/>
<stop offset="1" stop-opacity="0"/>
</linearGradient>
<linearGradient id="paint19_linear_652_1669" x1="17.7802" y1="33.3442" x2="17.7802" y2="33.1032" gradientUnits="userSpaceOnUse">
<stop stop-color="white"/>
<stop offset="1" stop-color="white" stop-opacity="0"/>
</linearGradient>
<linearGradient id="paint20_linear_652_1669" x1="17.7802" y1="32.9426" x2="17.7802" y2="32.6173" gradientUnits="userSpaceOnUse">
<stop stop-opacity="0"/>
<stop offset="0.9898"/>
</linearGradient>
<linearGradient id="paint21_linear_652_1669" x1="17.6738" y1="18.4984" x2="17.6738" y2="18.5569" gradientUnits="userSpaceOnUse">
<stop offset="0.0051"/>
<stop offset="1" stop-opacity="0"/>
</linearGradient>
<linearGradient id="paint22_linear_652_1669" x1="17.7797" y1="18.616" x2="17.7797" y2="18.8569" gradientUnits="userSpaceOnUse">
<stop stop-color="white"/>
<stop offset="1" stop-color="white" stop-opacity="0"/>
</linearGradient>
<linearGradient id="paint23_linear_652_1669" x1="17.7797" y1="19.0175" x2="17.7797" y2="19.3429" gradientUnits="userSpaceOnUse">
<stop stop-opacity="0"/>
<stop offset="0.9898"/>
</linearGradient>
<linearGradient id="paint24_linear_652_1669" x1="14.5578" y1="34.2087" x2="14.6821" y2="34.1635" gradientUnits="userSpaceOnUse">
<stop stop-color="white"/>
<stop offset="1" stop-color="white" stop-opacity="0"/>
</linearGradient>
<linearGradient id="paint25_linear_652_1669" x1="14.7394" y1="33.7547" x2="15.1952" y2="34.5684" gradientUnits="userSpaceOnUse">
<stop offset="0.0051"/>
<stop offset="1" stop-opacity="0"/>
</linearGradient>
<linearGradient id="paint26_linear_652_1669" x1="14.5578" y1="17.7365" x2="14.6821" y2="17.7817" gradientUnits="userSpaceOnUse">
<stop stop-color="white"/>
<stop offset="1" stop-color="white" stop-opacity="0"/>
</linearGradient>
<linearGradient id="paint27_linear_652_1669" x1="14.7394" y1="18.1905" x2="15.1952" y2="17.3767" gradientUnits="userSpaceOnUse">
<stop offset="0.0051"/>
<stop offset="1" stop-opacity="0"/>
</linearGradient>
<linearGradient id="paint28_linear_652_1669" x1="21.2836" y1="26.0813" x2="20.9065" y2="26.0813" gradientUnits="userSpaceOnUse">
<stop stop-opacity="0"/>
<stop offset="0.9898"/>
</linearGradient>
<radialGradient id="paint29_radial_652_1669" cx="0" cy="0" r="1" gradientUnits="userSpaceOnUse" gradientTransform="translate(20.2906 26.0006) rotate(-90) scale(3.41311 3.41313)">
<stop stop-color="white" stop-opacity="0"/>
<stop offset="1" stop-color="white"/>
</radialGradient>
<linearGradient id="paint30_linear_652_1669" x1="20.6967" y1="26.0006" x2="21.0059" y2="26.0006" gradientUnits="userSpaceOnUse">
<stop stop-opacity="0"/>
<stop offset="0.9898"/>
</linearGradient>
<linearGradient id="paint31_linear_652_1669" x1="19.9884" y1="30.5801" x2="19.9884" y2="21.4211" gradientUnits="userSpaceOnUse">
<stop stop-color="white" stop-opacity="0"/>
<stop offset="1" stop-color="white"/>
</linearGradient>
<linearGradient id="paint32_linear_652_1669" x1="20.5924" y1="24.4867" x2="20.5924" y2="30.1085" gradientUnits="userSpaceOnUse">
<stop stop-color="white" stop-opacity="0"/>
<stop offset="1" stop-color="white"/>
</linearGradient>
<radialGradient id="paint33_radial_652_1669" cx="0" cy="0" r="1" gradientUnits="userSpaceOnUse" gradientTransform="translate(23.7265 18.1553) rotate(-90) scale(21.8 21.8002)">
<stop stop-color="white" stop-opacity="0"/>
<stop offset="1" stop-color="white"/>
</radialGradient>
<linearGradient id="paint34_linear_652_1669" x1="46.048" y1="31.9451" x2="46.3343" y2="33.8588" gradientUnits="userSpaceOnUse">
<stop stop-color="white" stop-opacity="0"/>
<stop offset="1" stop-color="white"/>
</linearGradient>
<linearGradient id="paint35_linear_652_1669" x1="46.0886" y1="32.7266" x2="46.1913" y2="32.7266" gradientUnits="userSpaceOnUse">
<stop stop-color="white" stop-opacity="0"/>
<stop offset="1" stop-color="white"/>
</linearGradient>
<linearGradient id="paint36_linear_652_1669" x1="46.0475" y1="18.7645" x2="46.3338" y2="20.6782" gradientUnits="userSpaceOnUse">
<stop stop-color="white" stop-opacity="0"/>
<stop offset="1" stop-color="white"/>
</linearGradient>
<linearGradient id="paint37_linear_652_1669" x1="46.0886" y1="19.5465" x2="46.1913" y2="19.5465" gradientUnits="userSpaceOnUse">
<stop stop-color="white" stop-opacity="0"/>
<stop offset="1" stop-color="white"/>
</linearGradient>
<linearGradient id="paint38_linear_652_1669" x1="46.148" y1="26.1856" x2="46.0073" y2="26.1856" gradientUnits="userSpaceOnUse">
<stop stop-opacity="0"/>
<stop offset="0.9898"/>
</linearGradient>
<linearGradient id="paint39_linear_652_1669" x1="23.1702" y1="17.7514" x2="6.14258" y2="18.0729" gradientUnits="userSpaceOnUse">
<stop stop-color="#C7C5C5"/>
<stop offset="0.0359" stop-color="#676767"/>
<stop offset="0.1123" stop-color="white"/>
<stop offset="0.3019" stop-color="#929292"/>
<stop offset="0.492" stop-color="white"/>
<stop offset="0.6257" stop-color="#676767"/>
<stop offset="0.7701" stop-color="#929292"/>
<stop offset="0.8233" stop-color="#C7C5C5"/>
<stop offset="1" stop-color="#343433"/>
</linearGradient>
<linearGradient id="paint40_linear_652_1669" x1="18.6431" y1="18.2083" x2="18.6431" y2="18.0576" gradientUnits="userSpaceOnUse">
<stop offset="0.0051"/>
<stop offset="1" stop-opacity="0"/>
</linearGradient>
<linearGradient id="paint41_linear_652_1669" x1="22.1186" y1="17.8281" x2="21.5895" y2="17.8281" gradientUnits="userSpaceOnUse">
<stop offset="0.0051"/>
<stop offset="1" stop-opacity="0"/>
</linearGradient>
</defs>
</svg>
