<svg width="18" height="41" viewBox="0 0 18 41" fill="none" xmlns="http://www.w3.org/2000/svg">
<path d="M17.4995 24.2837L17.4995 30.1933C17.4995 30.3678 17.4302 30.535 17.3069 30.6584L16.7307 31.2347L16.7307 24.2837L17.4995 24.2837Z" fill="#CCCCCC"/>
<path d="M17.3789 24.4048L16.851 24.4048L16.851 30.9443L17.2216 30.5739C17.323 30.4724 17.3789 30.3375 17.3789 30.1941L17.3789 24.4048Z" fill="url(#paint0_linear_580_3100)"/>
<path opacity="0.5" d="M17.4995 24.2837L17.4995 30.1933C17.4995 30.3678 17.4302 30.535 17.3069 30.6584L16.7307 31.2347L16.7307 24.2837L17.4995 24.2837Z" fill="url(#paint1_linear_580_3100)"/>
<path opacity="0.4" d="M17.4995 24.2837L17.4995 30.1933C17.4995 30.3678 17.4302 30.535 17.3069 30.6584L16.7307 31.2347L16.7307 24.2837L17.4995 24.2837Z" fill="url(#paint2_linear_580_3100)"/>
<mask id="mask0_580_3100" style="mask-type:luminance" maskUnits="userSpaceOnUse" x="16" y="24" width="2" height="7">
<path d="M17.3784 24.4048L16.8505 24.4048L16.8505 30.9443L17.2211 30.5739C17.3225 30.4724 17.3784 30.3375 17.3784 30.1941L17.3784 24.4048Z" fill="white"/>
</mask>
<g mask="url(#mask0_580_3100)">
<path d="M16.9706 24.4556C17.0163 24.4811 17.0625 24.4856 17.0625 24.4856C17.0625 24.4856 17.0346 24.4486 16.9888 24.4231C16.9431 24.3976 16.8969 24.3931 16.8969 24.3931C16.8969 24.3931 16.9249 24.4301 16.9706 24.4556Z" fill="#999999"/>
<path d="M17.3324 24.6641C17.3781 24.6896 17.4243 24.6941 17.4243 24.6941C17.4243 24.6941 17.3964 24.6571 17.3507 24.6316C17.3049 24.6061 17.2587 24.6016 17.2587 24.6016C17.2587 24.6016 17.2867 24.6386 17.3324 24.6641Z" fill="#999999"/>
<path d="M17.1455 24.5357C17.12 24.5815 17.1154 24.6275 17.1154 24.6275C17.1154 24.6275 17.1524 24.5996 17.178 24.5538C17.2035 24.5081 17.208 24.4619 17.208 24.4619C17.208 24.4619 17.171 24.49 17.1455 24.5357Z" fill="#999999"/>
<path d="M16.918 24.6635C16.8924 24.7092 16.8879 24.7554 16.8879 24.7554C16.8879 24.7554 16.9249 24.7275 16.9504 24.6818C16.9759 24.636 16.9805 24.5898 16.9805 24.5898C16.9805 24.5898 16.9435 24.6178 16.918 24.6635Z" fill="#999999"/>
<path d="M17.2798 24.8717C17.2542 24.9174 17.2499 24.9634 17.2499 24.9634C17.2499 24.9634 17.2869 24.9355 17.3124 24.8898C17.3379 24.8441 17.3423 24.7979 17.3423 24.7979C17.3423 24.7979 17.3053 24.826 17.2798 24.8717Z" fill="#999999"/>
<path d="M17.1251 24.761C17.0793 24.7355 17.0331 24.731 17.0331 24.731C17.0331 24.731 17.0611 24.768 17.1068 24.7935C17.1525 24.819 17.1987 24.8235 17.1987 24.8235C17.1987 24.8235 17.1708 24.7865 17.1251 24.761Z" fill="#999999"/>
<path d="M16.8482 24.9424C16.8939 24.9679 16.9399 24.9723 16.9399 24.9723C16.9399 24.9723 16.912 24.9353 16.8663 24.9098C16.8206 24.8842 16.7745 24.8799 16.7745 24.8799C16.7745 24.8799 16.8025 24.9169 16.8482 24.9424Z" fill="#999999"/>
<path d="M17.2098 25.1504C17.2556 25.1759 17.3018 25.1803 17.3018 25.1803C17.3018 25.1803 17.2738 25.1433 17.2281 25.1178C17.1824 25.0923 17.1362 25.0879 17.1362 25.0879C17.1362 25.0879 17.1641 25.1249 17.2098 25.1504Z" fill="#999999"/>
<path d="M17.0224 25.0222C16.9969 25.068 16.9924 25.1142 16.9924 25.1142C16.9924 25.1142 17.0294 25.0862 17.0549 25.0405C17.0804 24.9948 17.085 24.9487 17.085 24.9487C17.085 24.9487 17.048 24.9765 17.0224 25.0222Z" fill="#999999"/>
<path d="M16.7957 25.1503C16.7702 25.196 16.7658 25.2423 16.7658 25.2423C16.7658 25.2423 16.8028 25.2143 16.8284 25.1686C16.8539 25.1229 16.8584 25.0767 16.8584 25.0767C16.8584 25.0767 16.8212 25.1046 16.7957 25.1503Z" fill="#999999"/>
<path d="M17.1582 25.3582C17.1327 25.4039 17.1283 25.4501 17.1283 25.4501C17.1283 25.4501 17.1653 25.4222 17.1908 25.3764C17.2163 25.3307 17.2207 25.2847 17.2207 25.2847C17.2207 25.2847 17.1837 25.3125 17.1582 25.3582Z" fill="#999999"/>
<path d="M17.0032 25.2486C16.9574 25.2231 16.9112 25.2187 16.9112 25.2187C16.9112 25.2187 16.9392 25.2557 16.9849 25.2813C17.0306 25.3068 17.0767 25.3112 17.0767 25.3112C17.0767 25.3112 17.0489 25.2742 17.0032 25.2486Z" fill="#999999"/>
<path d="M17.3526 25.4343C17.3069 25.4088 17.2607 25.4043 17.2607 25.4043C17.2607 25.4043 17.2886 25.4413 17.3343 25.4668C17.3801 25.4923 17.4263 25.4969 17.4263 25.4969C17.4263 25.4969 17.3983 25.4599 17.3526 25.4343Z" fill="#999999"/>
<path d="M16.8847 25.4747C16.8592 25.5204 16.8549 25.5665 16.8549 25.5665C16.8549 25.5665 16.8919 25.5385 16.9174 25.4928C16.9429 25.4471 16.9473 25.4009 16.9473 25.4009C16.9473 25.4009 16.9103 25.429 16.8847 25.4747Z" fill="#999999"/>
<path d="M17.2466 25.6826C17.221 25.7283 17.2167 25.7745 17.2167 25.7745C17.2167 25.7745 17.2537 25.7465 17.2792 25.7008C17.3047 25.6551 17.3091 25.6089 17.3091 25.6089C17.3091 25.6089 17.2721 25.6368 17.2466 25.6826Z" fill="#999999"/>
<path d="M17.0914 25.5724C17.0457 25.5468 16.9995 25.5425 16.9995 25.5425C16.9995 25.5425 17.0274 25.5795 17.0731 25.605C17.1188 25.6305 17.165 25.6349 17.165 25.6349C17.165 25.6349 17.1371 25.5979 17.0914 25.5724Z" fill="#999999"/>
<path d="M16.8148 25.7547C16.8605 25.7803 16.9067 25.7848 16.9067 25.7848C16.9067 25.7848 16.8788 25.7478 16.8331 25.7223C16.7874 25.6967 16.7412 25.6924 16.7412 25.6924C16.7412 25.6924 16.7691 25.7292 16.8148 25.7547Z" fill="#999999"/>
<path d="M17.1766 25.9624C17.2224 25.9879 17.2686 25.9925 17.2686 25.9925C17.2686 25.9925 17.2406 25.9555 17.1949 25.93C17.1492 25.9044 17.103 25.8999 17.103 25.8999C17.103 25.8999 17.1309 25.9369 17.1766 25.9624Z" fill="#999999"/>
<path d="M16.9897 25.8344C16.9642 25.8801 16.9597 25.9263 16.9597 25.9263C16.9597 25.9263 16.9967 25.8984 17.0222 25.8527C17.0477 25.8069 17.0522 25.7607 17.0522 25.7607C17.0522 25.7607 17.0152 25.7887 16.9897 25.8344Z" fill="#999999"/>
<path d="M17.125 26.1699C17.0995 26.2156 17.0951 26.2618 17.0951 26.2618C17.0951 26.2618 17.1321 26.2338 17.1576 26.1881C17.1831 26.1424 17.1875 26.0962 17.1875 26.0962C17.1875 26.0962 17.1505 26.1241 17.125 26.1699Z" fill="#999999"/>
<path d="M16.9703 26.0598C16.9246 26.0343 16.8784 26.0298 16.8784 26.0298C16.8784 26.0298 16.9063 26.0668 16.952 26.0923C16.9977 26.1178 17.0439 26.1224 17.0439 26.1224C17.0439 26.1224 17.016 26.0854 16.9703 26.0598Z" fill="#999999"/>
<path d="M17.3189 26.2454C17.2732 26.2199 17.227 26.2153 17.227 26.2153C17.227 26.2153 17.2549 26.2523 17.3007 26.2779C17.3464 26.3034 17.3926 26.3077 17.3926 26.3077C17.3926 26.3077 17.3646 26.2709 17.3189 26.2454Z" fill="#999999"/>
<path d="M16.8843 26.2895C16.8587 26.3352 16.8544 26.3814 16.8544 26.3814C16.8544 26.3814 16.8914 26.3535 16.9169 26.3077C16.9424 26.262 16.9468 26.2158 16.9468 26.2158C16.9468 26.2158 16.9098 26.2438 16.8843 26.2895Z" fill="#999999"/>
<path d="M17.2461 26.4977C17.2206 26.5434 17.2162 26.5894 17.2162 26.5894C17.2162 26.5894 17.2532 26.5615 17.2787 26.5157C17.3042 26.47 17.3086 26.4238 17.3086 26.4238C17.3086 26.4238 17.2716 26.4519 17.2461 26.4977Z" fill="#999999"/>
<path d="M17.0909 26.3878C17.0452 26.3623 16.999 26.3579 16.999 26.3579C16.999 26.3579 17.0269 26.3949 17.0726 26.4204C17.1183 26.446 17.1646 26.4503 17.1646 26.4503C17.1646 26.4503 17.1366 26.4133 17.0909 26.3878Z" fill="#999999"/>
<path d="M16.8143 26.569C16.86 26.5946 16.9062 26.5989 16.9062 26.5989C16.9062 26.5989 16.8783 26.5619 16.8326 26.5364C16.7869 26.5109 16.7407 26.5063 16.7407 26.5063C16.7407 26.5063 16.7686 26.5435 16.8143 26.569Z" fill="#999999"/>
<path d="M17.1761 26.7779C17.2219 26.8034 17.2681 26.8079 17.2681 26.8079C17.2681 26.8079 17.2401 26.7709 17.1944 26.7454C17.1487 26.7199 17.1025 26.7153 17.1025 26.7153C17.1025 26.7153 17.1304 26.7523 17.1761 26.7779Z" fill="#999999"/>
<path d="M16.9892 26.6498C16.9637 26.6956 16.9592 26.7418 16.9592 26.7418C16.9592 26.7418 16.9962 26.7138 17.0217 26.6681C17.0472 26.6224 17.0518 26.5762 17.0518 26.5762C17.0518 26.5762 17.0148 26.6041 16.9892 26.6498Z" fill="#999999"/>
<path d="M17.1245 26.9846C17.099 27.0304 17.0946 27.0766 17.0946 27.0766C17.0946 27.0766 17.1316 27.0486 17.1571 27.0029C17.1827 26.9572 17.187 26.9111 17.187 26.9111C17.187 26.9111 17.15 26.9389 17.1245 26.9846Z" fill="#999999"/>
<path d="M16.9698 26.8748C16.9241 26.8493 16.8779 26.8447 16.8779 26.8447C16.8779 26.8447 16.9058 26.8817 16.9515 26.9073C16.9973 26.9328 17.0435 26.9373 17.0435 26.9373C17.0435 26.9373 17.0155 26.9003 16.9698 26.8748Z" fill="#999999"/>
<path d="M17.3184 27.0606C17.2727 27.0351 17.2265 27.0308 17.2265 27.0308C17.2265 27.0308 17.2545 27.0678 17.3002 27.0933C17.3459 27.1188 17.3921 27.1232 17.3921 27.1232C17.3921 27.1232 17.3641 27.0862 17.3184 27.0606Z" fill="#999999"/>
<path d="M16.8847 27.1043C16.8592 27.15 16.8549 27.1962 16.8549 27.1962C16.8549 27.1962 16.8919 27.1682 16.9174 27.1225C16.9429 27.0768 16.9473 27.0308 16.9473 27.0308C16.9473 27.0308 16.9103 27.0585 16.8847 27.1043Z" fill="#999999"/>
<path d="M17.2466 27.3124C17.221 27.3582 17.2167 27.4044 17.2167 27.4044C17.2167 27.4044 17.2537 27.3764 17.2792 27.3307C17.3047 27.285 17.3091 27.2388 17.3091 27.2388C17.3091 27.2388 17.2721 27.2667 17.2466 27.3124Z" fill="#999999"/>
<path d="M17.0914 27.2024C17.0457 27.1769 16.9995 27.1724 16.9995 27.1724C16.9995 27.1724 17.0274 27.2094 17.0731 27.2349C17.1188 27.2604 17.165 27.2648 17.165 27.2648C17.165 27.2648 17.1371 27.2279 17.0914 27.2024Z" fill="#999999"/>
<path d="M16.8148 27.3833C16.8605 27.4088 16.9067 27.4132 16.9067 27.4132C16.9067 27.4132 16.8788 27.3762 16.8331 27.3507C16.7874 27.3252 16.7412 27.3208 16.7412 27.3208C16.7412 27.3208 16.7691 27.3578 16.8148 27.3833Z" fill="#999999"/>
<path d="M17.1766 27.5915C17.2224 27.617 17.2686 27.6214 17.2686 27.6214C17.2686 27.6214 17.2406 27.5844 17.1949 27.5589C17.1492 27.5333 17.103 27.5288 17.103 27.5288C17.103 27.5288 17.1309 27.566 17.1766 27.5915Z" fill="#999999"/>
<path d="M16.9897 27.463C16.9642 27.5087 16.9597 27.5547 16.9597 27.5547C16.9597 27.5547 16.9967 27.5268 17.0222 27.4811C17.0477 27.4354 17.0522 27.3892 17.0522 27.3892C17.0522 27.3892 17.0152 27.4173 16.9897 27.463Z" fill="#999999"/>
<path d="M17.125 27.7993C17.0995 27.845 17.0951 27.8912 17.0951 27.8912C17.0951 27.8912 17.1321 27.8632 17.1576 27.8175C17.1831 27.7718 17.1875 27.7256 17.1875 27.7256C17.1875 27.7256 17.1505 27.7535 17.125 27.7993Z" fill="#999999"/>
<path d="M16.9703 27.6883C16.9246 27.6627 16.8784 27.6582 16.8784 27.6582C16.8784 27.6582 16.9063 27.6952 16.952 27.7207C16.9977 27.7462 17.0439 27.7508 17.0439 27.7508C17.0439 27.7508 17.016 27.7138 16.9703 27.6883Z" fill="#999999"/>
<path d="M17.3189 27.8736C17.2732 27.8481 17.227 27.8437 17.227 27.8437C17.227 27.8437 17.2549 27.8807 17.3007 27.9063C17.3464 27.9318 17.3926 27.9362 17.3926 27.9362C17.3926 27.9362 17.3646 27.8993 17.3189 27.8736Z" fill="#999999"/>
<path d="M16.8843 27.9179C16.8587 27.9636 16.8544 28.0098 16.8544 28.0098C16.8544 28.0098 16.8914 27.9819 16.9169 27.9362C16.9424 27.8904 16.9468 27.8442 16.9468 27.8442C16.9468 27.8442 16.9098 27.8722 16.8843 27.9179Z" fill="#999999"/>
<path d="M17.2461 28.1258C17.2206 28.1715 17.2162 28.2177 17.2162 28.2177C17.2162 28.2177 17.2532 28.1897 17.2787 28.144C17.3042 28.0983 17.3086 28.0522 17.3086 28.0522C17.3086 28.0522 17.2716 28.08 17.2461 28.1258Z" fill="#999999"/>
<path d="M17.0909 28.0159C17.0452 27.9904 16.999 27.9858 16.999 27.9858C16.999 27.9858 17.0269 28.0228 17.0726 28.0484C17.1183 28.0739 17.1646 28.0782 17.1646 28.0782C17.1646 28.0782 17.1366 28.0414 17.0909 28.0159Z" fill="#999999"/>
<path d="M16.8143 28.1978C16.86 28.2233 16.9062 28.2277 16.9062 28.2277C16.9062 28.2277 16.8783 28.1907 16.8326 28.1651C16.7869 28.1396 16.7407 28.1353 16.7407 28.1353C16.7407 28.1353 16.7686 28.1722 16.8143 28.1978Z" fill="#999999"/>
<path d="M17.1761 28.4058C17.2219 28.4313 17.2681 28.4357 17.2681 28.4357C17.2681 28.4357 17.2401 28.3987 17.1944 28.3731C17.1487 28.3476 17.1025 28.3433 17.1025 28.3433C17.1025 28.3433 17.1304 28.3803 17.1761 28.4058Z" fill="#999999"/>
<path d="M16.9892 28.2778C16.9637 28.3235 16.9592 28.3697 16.9592 28.3697C16.9592 28.3697 16.9962 28.3417 17.0217 28.296C17.0472 28.2503 17.0518 28.2041 17.0518 28.2041C17.0518 28.2041 17.0148 28.232 16.9892 28.2778Z" fill="#999999"/>
<path d="M17.1245 28.6142C17.099 28.6599 17.0946 28.7061 17.0946 28.7061C17.0946 28.7061 17.1316 28.6782 17.1571 28.6324C17.1827 28.5867 17.187 28.5405 17.187 28.5405C17.187 28.5405 17.15 28.5685 17.1245 28.6142Z" fill="#999999"/>
<path d="M16.9698 28.503C16.9241 28.4775 16.8779 28.4731 16.8779 28.4731C16.8779 28.4731 16.9058 28.5101 16.9515 28.5357C16.9973 28.5612 17.0435 28.5655 17.0435 28.5655C17.0435 28.5655 17.0155 28.5286 16.9698 28.503Z" fill="#999999"/>
<path d="M17.3184 28.6896C17.2727 28.664 17.2265 28.6597 17.2265 28.6597C17.2265 28.6597 17.2545 28.6967 17.3002 28.7222C17.3459 28.7477 17.3921 28.7521 17.3921 28.7521C17.3921 28.7521 17.3641 28.7152 17.3184 28.6896Z" fill="#999999"/>
<path d="M16.8843 28.7333C16.8587 28.7791 16.8544 28.8253 16.8544 28.8253C16.8544 28.8253 16.8914 28.7973 16.9169 28.7516C16.9424 28.7059 16.9468 28.6597 16.9468 28.6597C16.9468 28.6597 16.9098 28.6876 16.8843 28.7333Z" fill="#999999"/>
<path d="M17.2461 28.9413C17.2206 28.9871 17.2162 29.0333 17.2162 29.0333C17.2162 29.0333 17.2532 29.0053 17.2787 28.9596C17.3042 28.9139 17.3086 28.8677 17.3086 28.8677C17.3086 28.8677 17.2716 28.8956 17.2461 28.9413Z" fill="#999999"/>
<path d="M17.0909 28.8313C17.0452 28.8058 16.999 28.8013 16.999 28.8013C16.999 28.8013 17.0269 28.8383 17.0726 28.8638C17.1183 28.8893 17.1646 28.8938 17.1646 28.8938C17.1646 28.8938 17.1366 28.8568 17.0909 28.8313Z" fill="#999999"/>
<path d="M16.8143 29.0126C16.86 29.0381 16.9062 29.0426 16.9062 29.0426C16.9062 29.0426 16.8783 29.0056 16.8326 28.9801C16.7869 28.9546 16.7407 28.9502 16.7407 28.9502C16.7407 28.9502 16.7686 28.987 16.8143 29.0126Z" fill="#999999"/>
<path d="M17.1761 29.2202C17.2219 29.2458 17.2681 29.2501 17.2681 29.2501C17.2681 29.2501 17.2401 29.2131 17.1944 29.1876C17.1487 29.1621 17.1025 29.1577 17.1025 29.1577C17.1025 29.1577 17.1304 29.1947 17.1761 29.2202Z" fill="#999999"/>
<path d="M16.9892 29.0925C16.9637 29.1383 16.9592 29.1845 16.9592 29.1845C16.9592 29.1845 16.9962 29.1565 17.0217 29.1108C17.0472 29.0651 17.0518 29.019 17.0518 29.019C17.0518 29.019 17.0148 29.0468 16.9892 29.0925Z" fill="#999999"/>
<path d="M17.1245 29.4282C17.099 29.4739 17.0946 29.5201 17.0946 29.5201C17.0946 29.5201 17.1316 29.4921 17.1571 29.4464C17.1827 29.4007 17.187 29.3545 17.187 29.3545C17.187 29.3545 17.15 29.3824 17.1245 29.4282Z" fill="#999999"/>
<path d="M16.9703 29.3185C16.9246 29.2929 16.8784 29.2886 16.8784 29.2886C16.8784 29.2886 16.9063 29.3256 16.952 29.3511C16.9977 29.3766 17.0439 29.3811 17.0439 29.3811C17.0439 29.3811 17.016 29.344 16.9703 29.3185Z" fill="#999999"/>
<path d="M17.3184 29.5032C17.2727 29.4777 17.2265 29.4731 17.2265 29.4731C17.2265 29.4731 17.2545 29.5101 17.3002 29.5357C17.3459 29.5612 17.3921 29.5657 17.3921 29.5657C17.3921 29.5657 17.3641 29.5287 17.3184 29.5032Z" fill="#999999"/>
<path d="M16.8847 29.5479C16.8592 29.5937 16.8549 29.6397 16.8549 29.6397C16.8549 29.6397 16.8919 29.6118 16.9174 29.566C16.9429 29.5203 16.9473 29.4741 16.9473 29.4741C16.9473 29.4741 16.9103 29.5022 16.8847 29.5479Z" fill="#999999"/>
<path d="M17.2466 29.7563C17.221 29.802 17.2167 29.8482 17.2167 29.8482C17.2167 29.8482 17.2537 29.8203 17.2792 29.7745C17.3047 29.7288 17.3091 29.6826 17.3091 29.6826C17.3091 29.6826 17.2721 29.7107 17.2466 29.7563Z" fill="#999999"/>
<path d="M17.0914 29.6453C17.0457 29.6198 16.9995 29.6152 16.9995 29.6152C16.9995 29.6152 17.0274 29.6522 17.0731 29.6778C17.1188 29.7033 17.165 29.7076 17.165 29.7076C17.165 29.7076 17.1371 29.6708 17.0914 29.6453Z" fill="#999999"/>
<path d="M16.8148 29.8268C16.8605 29.8524 16.9067 29.8567 16.9067 29.8567C16.9067 29.8567 16.8788 29.8197 16.8331 29.7942C16.7874 29.7687 16.7412 29.7642 16.7412 29.7642C16.7412 29.7642 16.7691 29.8013 16.8148 29.8268Z" fill="#999999"/>
<path d="M17.1766 30.0345C17.2224 30.0601 17.2686 30.0646 17.2686 30.0646C17.2686 30.0646 17.2406 30.0276 17.1949 30.0021C17.1492 29.9765 17.103 29.9722 17.103 29.9722C17.103 29.9722 17.1309 30.009 17.1766 30.0345Z" fill="#999999"/>
<path d="M16.9897 29.9068C16.9642 29.9526 16.9597 29.9986 16.9597 29.9986C16.9597 29.9986 16.9967 29.9706 17.0222 29.9249C17.0477 29.8792 17.0522 29.833 17.0522 29.833C17.0522 29.833 17.0152 29.8611 16.9897 29.9068Z" fill="#999999"/>
<path d="M17.125 30.2418C17.0995 30.2875 17.0951 30.3336 17.0951 30.3336C17.0951 30.3336 17.1321 30.3056 17.1576 30.2599C17.1831 30.2142 17.1875 30.168 17.1875 30.168C17.1875 30.168 17.1505 30.1961 17.125 30.2418Z" fill="#999999"/>
<path d="M16.9703 30.1324C16.9246 30.1069 16.8784 30.1025 16.8784 30.1025C16.8784 30.1025 16.9063 30.1395 16.952 30.1651C16.9977 30.1906 17.0439 30.1949 17.0439 30.1949C17.0439 30.1949 17.016 30.158 16.9703 30.1324Z" fill="#999999"/>
<path d="M17.3189 30.3181C17.2732 30.2926 17.227 30.2881 17.227 30.2881C17.227 30.2881 17.2549 30.3251 17.3007 30.3506C17.3464 30.3761 17.3926 30.3807 17.3926 30.3807C17.3926 30.3807 17.3646 30.3437 17.3189 30.3181Z" fill="#999999"/>
<path d="M16.8838 30.3618C16.8582 30.4075 16.8539 30.4537 16.8539 30.4537C16.8539 30.4537 16.8909 30.4257 16.9164 30.38C16.9419 30.3343 16.9463 30.2881 16.9463 30.2881C16.9463 30.2881 16.9093 30.316 16.8838 30.3618Z" fill="#999999"/>
<path d="M17.2456 30.5693C17.2201 30.615 17.2157 30.6612 17.2157 30.6612C17.2157 30.6612 17.2527 30.6332 17.2782 30.5875C17.3037 30.5418 17.3081 30.4956 17.3081 30.4956C17.3081 30.4956 17.2711 30.5237 17.2456 30.5693Z" fill="#999999"/>
<path d="M17.0904 30.4601C17.0447 30.4345 16.9985 30.4302 16.9985 30.4302C16.9985 30.4302 17.0264 30.4672 17.0721 30.4927C17.1179 30.5182 17.1641 30.5227 17.1641 30.5227C17.1641 30.5227 17.1361 30.4856 17.0904 30.4601Z" fill="#999999"/>
<path d="M16.8143 30.6416C16.86 30.6671 16.9062 30.6717 16.9062 30.6717C16.9062 30.6717 16.8783 30.6347 16.8326 30.6092C16.7869 30.5836 16.7407 30.5791 16.7407 30.5791C16.7407 30.5791 16.7686 30.6161 16.8143 30.6416Z" fill="#999999"/>
<path d="M17.1761 30.8496C17.2219 30.8752 17.2681 30.8797 17.2681 30.8797C17.2681 30.8797 17.2401 30.8427 17.1944 30.8172C17.1487 30.7916 17.1025 30.7871 17.1025 30.7871C17.1025 30.7871 17.1304 30.8241 17.1761 30.8496Z" fill="#999999"/>
<path d="M16.9892 30.7216C16.9637 30.7673 16.9592 30.8135 16.9592 30.8135C16.9592 30.8135 16.9962 30.7856 17.0217 30.7399C17.0472 30.6942 17.0518 30.6479 17.0518 30.6479C17.0518 30.6479 17.0148 30.6759 16.9892 30.7216Z" fill="#999999"/>
<path d="M16.9698 30.947C16.9241 30.9215 16.8779 30.917 16.8779 30.917C16.8779 30.917 16.9058 30.954 16.9515 30.9795C16.9973 31.005 17.0435 31.0096 17.0435 31.0096C17.0435 31.0096 17.0155 30.9726 16.9698 30.947Z" fill="#999999"/>
</g>
<path d="M14.3564 39.5278L14.6096 39.5278C14.6375 39.5278 14.6602 39.5504 14.6602 39.5784L14.6602 39.6884C14.6602 39.7164 14.6375 39.739 14.6096 39.739L14.3564 39.739C14.3285 39.739 14.3059 39.7164 14.3059 39.6884L14.3059 39.5784C14.306 39.5504 14.3287 39.5278 14.3564 39.5278Z" fill="url(#paint3_linear_580_3100)"/>
<path d="M13.8652 39.5278L13.6618 39.5278C13.6201 39.5278 13.5865 39.5616 13.5865 39.6031L13.5865 39.6634C13.5865 39.705 13.6202 39.7387 13.6618 39.7387L13.8652 39.7387C13.9068 39.7387 13.9404 39.7049 13.9404 39.6634L13.9404 39.6031C13.9406 39.5616 13.9068 39.5278 13.8652 39.5278Z" fill="url(#paint4_linear_580_3100)"/>
<path d="M14.0064 38.9282L14.2056 38.9289C14.3274 38.9294 14.4258 39.0284 14.4253 39.1502L14.4229 39.8075C14.4224 39.9293 14.3234 40.0277 14.2016 40.0272L14.0024 40.0266C13.8806 40.0261 13.7822 39.9271 13.7827 39.8053L13.7851 39.1479C13.7856 39.0261 13.8846 38.9277 14.0064 38.9282Z" fill="url(#paint5_linear_580_3100)"/>
<path d="M4.09717 39.5278L4.35032 39.5278C4.3781 39.5278 4.40088 39.5504 4.40088 39.5784L4.40088 39.6884C4.40088 39.7164 4.37826 39.739 4.35032 39.739L4.09717 39.739C4.06922 39.739 4.0466 39.7164 4.0466 39.6884L4.0466 39.5784C4.0466 39.5504 4.06922 39.5278 4.09717 39.5278Z" fill="url(#paint6_linear_580_3100)"/>
<path d="M3.60587 39.5278L3.40248 39.5278C3.3608 39.5278 3.3272 39.5616 3.3272 39.6031L3.3272 39.6634C3.3272 39.705 3.36096 39.7387 3.40248 39.7387L3.60587 39.7387C3.64755 39.7387 3.68115 39.7049 3.68115 39.6634L3.68115 39.6031C3.68115 39.5616 3.64739 39.5278 3.60587 39.5278Z" fill="url(#paint7_linear_580_3100)"/>
<path d="M3.74712 38.9282L3.94631 38.9289C4.06811 38.9294 4.1665 39.0284 4.16601 39.1502L4.16359 39.8075C4.1631 39.9293 4.06408 40.0277 3.94227 40.0272L3.74308 40.0266C3.62127 40.0261 3.52289 39.9271 3.52337 39.8053L3.5258 39.1479C3.52612 39.0261 3.62531 38.9277 3.74712 38.9282Z" fill="url(#paint8_linear_580_3100)"/>
<path d="M1.2051 24.5249L16.7808 24.5249L16.7808 38.4215C16.7808 38.9681 16.3378 39.4109 15.7914 39.4109L2.19458 39.4109C1.64807 39.4109 1.2051 38.9679 1.2051 38.4215L1.2051 24.5249Z" fill="#E1E2DD"/>
<path d="M2.68181 39.411L15.3042 39.411C16.1197 39.411 16.7808 38.7499 16.7808 37.9344L16.7808 37.2632L1.2051 37.2632L1.2051 37.9344C1.2051 38.7499 1.86632 39.411 2.68181 39.411Z" fill="url(#paint9_linear_580_3100)"/>
<path d="M2.68181 39.411L15.3042 39.411C16.1197 39.411 16.7808 38.7499 16.7808 37.9344L16.7808 37.2632L1.2051 37.2632L1.2051 37.9344C1.2051 38.7499 1.86632 39.411 2.68181 39.411Z" fill="url(#paint10_linear_580_3100)"/>
<path opacity="0.2" d="M2.8936 39.046L15.0929 39.046C15.8811 39.046 16.52 38.385 16.52 37.5695L16.52 37.2632L1.46664 37.2632L1.46664 37.5695C1.46648 38.385 2.1054 39.046 2.8936 39.046Z" fill="black"/>
<path d="M16.2988 24.8223L16.2988 37.8406C16.2988 38.2086 16.0004 38.507 15.6324 38.507L2.35383 38.507C1.98582 38.507 1.68744 38.2086 1.68744 37.8406L1.68744 24.8223L16.2988 24.8223Z" fill="#F5F7EA"/>
<g opacity="0.1">
<path d="M16.2988 24.8223L16.2988 37.8406C16.2988 38.2086 16.0004 38.507 15.6324 38.507L2.35383 38.507C1.98582 38.507 1.68744 38.2086 1.68744 37.8406L1.68744 24.8223L16.2988 24.8223Z" fill="url(#paint11_radial_580_3100)"/>
</g>
<g opacity="0.5">
<path d="M16.2988 24.8223L16.2988 37.8406C16.2988 38.2086 16.0004 38.507 15.6324 38.507L2.35383 38.507C1.98582 38.507 1.68744 38.2086 1.68744 37.8406L1.68744 24.8223L16.2988 24.8223Z" fill="url(#paint12_linear_580_3100)"/>
</g>
<path opacity="0.3" d="M12.4543 38.5067L13.3048 38.5067L14.0396 28.8019L13.189 28.7383L12.4543 38.5067Z" fill="url(#paint13_linear_580_3100)"/>
<path opacity="0.3" d="M5.53906 38.5067L4.68851 38.5067L3.95379 28.8019L4.80434 28.7383L5.53906 38.5067Z" fill="url(#paint14_linear_580_3100)"/>
<path d="M2.6821 38.9285L15.3045 38.9285C15.8528 38.9285 16.2988 38.4826 16.2988 37.9342L16.2988 37.5122C16.2988 38.0613 15.8536 38.5067 15.3045 38.5067L2.6821 38.5067C2.13283 38.5067 1.6876 38.0615 1.6876 37.5122L1.6876 37.9342C1.6876 38.4826 2.13364 38.9285 2.6821 38.9285Z" fill="#CCCCCC"/>
<path opacity="0.4" d="M5.59784 38.8809L12.4536 38.8809L12.4536 38.8258L5.59784 38.8258L5.59784 38.8809Z" fill="#666666"/>
<path opacity="0.4" d="M5.59784 38.7871L12.4536 38.7871L12.4536 38.732L5.59784 38.732L5.59784 38.7871Z" fill="#666666"/>
<path opacity="0.4" d="M5.59783 38.6934L12.4536 38.6934L12.4536 38.6383L5.59783 38.6383L5.59783 38.6934Z" fill="#666666"/>
<path opacity="0.4" d="M5.59784 38.6001L12.4536 38.6001L12.4536 38.545L5.59784 38.545L5.59784 38.6001Z" fill="#666666"/>
<path d="M15.3027 38.929L15.3045 38.929C15.8528 38.929 16.2988 38.4831 16.2988 37.9347L16.2988 37.5127C16.2988 38.0618 15.8536 38.5072 15.3045 38.5072L15.3027 38.5072L15.3027 38.929Z" fill="#FF6600"/>
<path d="M12.4926 38.5068L15.3047 38.5068L15.3047 38.9288L12.2138 38.9288L12.4926 38.5068Z" fill="#DCFFFE"/>
<path d="M15.3029 38.5444L12.4677 38.5444L12.4055 38.6385L15.3029 38.6385L15.3047 38.6385L15.3047 38.5444L15.3029 38.5444Z" fill="white"/>
<path opacity="0.4" d="M15.3045 38.6388C15.8528 38.6388 16.2988 38.1929 16.2988 37.6445L16.2988 37.5503C16.2988 38.0986 15.8528 38.5446 15.3045 38.5446L15.3027 38.5446L15.3027 38.6388L15.3045 38.6388Z" fill="white"/>
<path d="M16.2989 37.5503L16.3976 37.5503C16.4233 37.5503 16.4443 37.5826 16.4443 37.6223L16.4443 37.9C16.4443 37.9398 16.4235 37.9721 16.3976 37.9721L16.2989 37.9721L16.2989 37.5503Z" fill="#FF6600"/>
<path d="M2.70068 38.929L2.6989 38.929C2.15061 38.929 1.70458 38.4831 1.70458 37.9347L1.70458 37.5127C1.70458 38.0618 2.1498 38.5072 2.6989 38.5072L2.70068 38.5072L2.70068 38.929Z" fill="#FF6600"/>
<path d="M5.51137 38.5068L2.6993 38.5068L2.6993 38.9288L5.79004 38.9288L5.51137 38.5068Z" fill="#DCFFFE"/>
<path d="M2.70127 38.5444L5.53644 38.5444L5.59863 38.6385L2.70127 38.6385L2.69949 38.6385L2.69949 38.5444L2.70127 38.5444Z" fill="white"/>
<path opacity="0.4" d="M2.6989 38.6388C2.15061 38.6388 1.70458 38.1929 1.70458 37.6445L1.70458 37.5503C1.70458 38.0986 2.15061 38.5446 2.6989 38.5446L2.70068 38.5446L2.70068 38.6388L2.6989 38.6388Z" fill="white"/>
<path d="M1.70508 37.5503L1.60637 37.5503C1.58068 37.5503 1.55968 37.5826 1.55968 37.6223L1.55968 37.9C1.55968 37.9398 1.58052 37.9721 1.60637 37.9721L1.70508 37.9721L1.70508 37.5503Z" fill="#FF6600"/>
<path d="M15.0055 27.5951C13.4501 27.823 6.55977 28.3658 3.16193 27.6437C2.82462 27.572 2.48505 27.7476 2.34789 28.0639L1.73352 32.2592C1.59233 32.5848 1.7626 32.9603 2.10169 33.0655C3.83204 33.6024 9.01547 34.8336 15.8651 33.0054C16.2087 32.9136 16.3913 32.5374 16.258 32.2076L15.7819 28.0419C15.6567 27.7317 15.3367 27.5466 15.0055 27.5951Z" fill="#F4F4F4"/>
<path opacity="0.5" d="M15.0055 27.5951C13.4501 27.823 6.55977 28.3658 3.16193 27.6437C2.82462 27.572 2.48505 27.7476 2.34789 28.0639L1.73352 32.2592C1.59233 32.5848 1.7626 32.9603 2.10169 33.0655C3.83204 33.6024 9.01547 34.8336 15.8651 33.0054C16.2087 32.9136 16.3913 32.5374 16.258 32.2076L15.7819 28.0419C15.6567 27.7317 15.3367 27.5466 15.0055 27.5951Z" fill="url(#paint15_linear_580_3100)"/>
<path d="M15.1107 27.8799C15.2869 27.8799 15.4438 27.9865 15.5105 28.1513L15.9866 32.317C16.0194 32.3984 16.0157 32.4903 15.9764 32.5689C15.938 32.6458 15.8716 32.7004 15.7895 32.7225C13.4133 33.3567 11.0124 33.6784 8.65346 33.6784C5.53073 33.6784 3.26259 33.1191 2.18846 32.7856C2.10575 32.76 2.04032 32.7028 2.0043 32.6241C1.96779 32.5446 1.96698 32.4566 2.0022 32.3753L2.61656 28.1802C2.68506 28.0224 2.83982 27.9203 3.0109 27.9203C3.04095 27.9203 3.07116 27.9235 3.10121 27.93C4.25175 28.1744 6.8341 28.2983 8.39934 28.2983C10.6788 28.2983 13.9936 28.0392 15.048 27.8846C15.0692 27.8813 15.09 27.8799 15.1107 27.8799Z" fill="black"/>
<path d="M15.1104 28.0269C15.2268 28.0269 15.3303 28.0975 15.3744 28.2067L15.8505 32.3724C15.8739 32.4304 15.8573 32.4796 15.8452 32.5039C15.8313 32.5317 15.8038 32.5674 15.7515 32.5814C13.3875 33.2124 10.9994 33.5325 8.65321 33.5325C5.54971 33.5325 3.29772 32.9772 2.23167 32.6464C2.17416 32.6286 2.14766 32.5869 2.137 32.5636C2.12618 32.5396 2.11148 32.4913 2.13619 32.4341L2.75056 28.2386C2.79579 28.1346 2.89789 28.0671 3.01065 28.0671C3.03052 28.0671 3.05055 28.0693 3.07042 28.0734C4.23099 28.3202 6.82367 28.4451 8.39909 28.4451C10.6877 28.4451 14.0106 28.1849 15.0689 28.0299C15.0828 28.028 15.0967 28.0269 15.1104 28.0269Z" fill="#676B86"/>
<path opacity="0.2" d="M15.7205 31.2349C14.0157 31.6492 11.465 31.9817 8.9925 31.9817C6.54601 31.9817 4.01003 31.6415 2.31184 31.2349L2.13623 32.434C2.11152 32.4912 2.12622 32.5395 2.13704 32.5636C2.14771 32.5867 2.1742 32.6285 2.23171 32.6463C3.29777 32.9772 5.54975 33.5324 8.65325 33.5324C10.9994 33.5324 13.3876 33.2124 15.7515 32.5814C15.8039 32.5673 15.8313 32.5316 15.8452 32.5038C15.8572 32.4796 15.874 32.4303 15.8505 32.3723L15.7205 31.2349Z" fill="black"/>
<path d="M15.8174 32.29C13.9918 32.7409 11.6059 33.0146 8.9925 33.0146C6.39254 33.0146 4.01779 32.7437 2.19569 32.297L2.13623 32.4341C2.11152 32.4913 2.12622 32.5396 2.13704 32.5637C2.14771 32.5868 2.1742 32.6286 2.23171 32.6464C3.29777 32.9773 5.54975 33.5325 8.65325 33.5325C10.9994 33.5325 13.3876 33.2125 15.7515 32.5815C15.8039 32.5674 15.8313 32.5317 15.8452 32.5039C15.8572 32.4797 15.874 32.4304 15.8505 32.3724L15.8174 32.29Z" fill="#333333"/>
<path d="M13.604 32.3618L11.6951 32.7592L11.6777 32.6637L13.5954 32.314L13.604 32.3618Z" fill="black"/>
<path d="M9.0321 33.147L11.6396 32.6714L11.5107 32.7937L9.04955 33.2425L9.0321 33.147Z" fill="black"/>
<path d="M13.4839 32.3096L8.92974 33.1386L8.93911 33.1895L13.6001 32.3395L13.4839 32.3096Z" fill="#333333"/>
<path d="M9.04713 33.1684C9.06038 33.2414 9.01207 33.3113 8.93905 33.3246C8.86603 33.3378 8.79608 33.2895 8.78283 33.2165C8.76959 33.1435 8.81789 33.0735 8.89091 33.0603C8.96393 33.047 9.03388 33.0953 9.04713 33.1684Z" fill="black"/>
<path d="M9.04265 33.1445C9.05347 33.2043 9.01389 33.2616 8.95412 33.2725C8.89435 33.2834 8.837 33.2437 8.82618 33.1839C8.81519 33.1242 8.85493 33.0668 8.91471 33.056C8.97448 33.0452 9.03183 33.0847 9.04265 33.1445Z" fill="#333333"/>
<path d="M9.37354 32.5756L7.43447 32.78L7.42656 32.6832L9.36966 32.5273L9.37354 32.5756Z" fill="black"/>
<path d="M4.74606 32.898L7.38818 32.686L7.24747 32.7946L4.75382 32.9948L4.74606 32.898Z" fill="black"/>
<path d="M9.25898 32.5122L4.64468 32.881L4.64888 32.9327L9.37158 32.5536L9.25898 32.5122Z" fill="#333333"/>
<path d="M4.75835 32.9219C4.76432 32.9959 4.70908 33.0605 4.63525 33.0665C4.56126 33.0724 4.49664 33.0172 4.49066 32.9434C4.48468 32.8694 4.53993 32.8048 4.61376 32.7988C4.68759 32.7928 4.75237 32.8479 4.75835 32.9219Z" fill="black"/>
<path d="M4.75697 32.898C4.76181 32.9586 4.71674 33.0116 4.65616 33.0166C4.59558 33.0215 4.54259 32.9762 4.53775 32.9156C4.5329 32.8551 4.57797 32.8021 4.63855 32.7972C4.69913 32.7924 4.75212 32.8375 4.75697 32.898Z" fill="#333333"/>
<path opacity="0.5" d="M15.1104 28.0269C15.2268 28.0269 15.3303 28.0975 15.3744 28.2067L15.8505 32.3724C15.8739 32.4304 15.8573 32.4796 15.8452 32.5039C15.8313 32.5317 15.8038 32.5674 15.7515 32.5814C13.3875 33.2124 10.9994 33.5325 8.65321 33.5325C5.54971 33.5325 3.29772 32.9772 2.23167 32.6464C2.17416 32.6286 2.14766 32.5869 2.137 32.5636C2.12618 32.5396 2.11148 32.4913 2.13619 32.4341L2.75056 28.2386C2.79579 28.1346 2.89789 28.0671 3.01065 28.0671C3.03052 28.0671 3.05055 28.0693 3.07042 28.0734C4.23099 28.3202 6.82367 28.4451 8.39909 28.4451C10.6877 28.4451 14.0106 28.1849 15.0689 28.0299C15.0828 28.028 15.0967 28.0269 15.1104 28.0269Z" fill="url(#paint16_radial_580_3100)"/>
<path opacity="0.3" d="M15.1104 28.0269C15.2268 28.0269 15.3303 28.0975 15.3744 28.2067L15.8505 32.3724C15.8739 32.4304 15.8573 32.4796 15.8452 32.5039C15.8313 32.5317 15.8038 32.5674 15.7515 32.5814C13.3875 33.2124 10.9994 33.5325 8.65321 33.5325C5.54971 33.5325 3.29772 32.9772 2.23167 32.6464C2.17416 32.6286 2.14766 32.5869 2.137 32.5636C2.12618 32.5396 2.11148 32.4913 2.13619 32.4341L2.75056 28.2386C2.79579 28.1346 2.89789 28.0671 3.01065 28.0671C3.03052 28.0671 3.05055 28.0693 3.07042 28.0734C4.23099 28.3202 6.82367 28.4451 8.39909 28.4451C10.6877 28.4451 14.0106 28.1849 15.0689 28.0299C15.0828 28.028 15.0967 28.0269 15.1104 28.0269Z" fill="url(#paint17_radial_580_3100)"/>
<path d="M16.3053 24.8193C16.2985 24.8193 16.2915 24.8205 16.2846 24.8222L15.613 24.8193C15.5437 24.8399 15.4914 24.9631 15.4914 25.1059L15.4914 27.0455C15.4914 27.0844 15.4951 27.1224 15.5025 27.1582L16.2242 32.5366C16.2369 32.5984 16.2652 32.6369 16.298 32.6369C16.3432 32.6369 16.3788 32.5648 16.3788 32.4727L16.4473 25.1088C16.4473 25.0308 16.4324 24.9579 16.4051 24.9032C16.3783 24.8489 16.3427 24.8193 16.3053 24.8193Z" fill="#F4F4F4"/>
<path opacity="0.5" d="M16.3053 24.8193C16.2985 24.8193 16.2915 24.8205 16.2846 24.8222L15.613 24.8193C15.5437 24.8399 15.4914 24.9631 15.4914 25.1059L15.4914 27.0455C15.4914 27.0844 15.4951 27.1224 15.5025 27.1582L16.2242 32.5366C16.2369 32.5984 16.2652 32.6369 16.298 32.6369C16.3432 32.6369 16.3788 32.5648 16.3788 32.4727L16.4473 25.1088C16.4473 25.0308 16.4324 24.9579 16.4051 24.9032C16.3783 24.8489 16.3427 24.8193 16.3053 24.8193Z" fill="url(#paint18_linear_580_3100)"/>
<path d="M16.2737 32.4942L15.5521 27.1157C15.5474 27.0935 15.5451 27.0695 15.5451 27.0453L15.5451 25.1059C15.5451 25.0159 15.5776 24.9397 15.6212 24.9268L16.2928 24.9297C16.3464 24.9137 16.3945 24.9985 16.3945 25.1088L16.326 32.4727C16.3259 32.533 16.2852 32.5496 16.2737 32.4942Z" fill="black"/>
<path d="M16.3001 25.0371L15.6286 25.0342C15.6111 25.0392 15.598 25.07 15.598 25.1059L15.598 27.0455C15.598 27.0552 15.599 27.0645 15.6008 27.0734L16.2723 32.2104L16.3408 25.1088C16.3408 25.0893 16.3371 25.071 16.3303 25.0573C16.3235 25.0437 16.3146 25.0363 16.3053 25.0363L16.3001 25.0371Z" fill="#676B86"/>
<path opacity="0.2" d="M16.0788 25.1032L16.3 25.0374L16.3053 25.0366C16.3147 25.0366 16.3235 25.0441 16.3303 25.0576C16.3371 25.0714 16.3408 25.0896 16.3408 25.1092L16.2723 32.2107L16.1573 29.7568L16.0788 25.1032Z" fill="black"/>
<path opacity="0.5" d="M16.3001 25.0371L15.6286 25.0342C15.6111 25.0392 15.598 25.07 15.598 25.1059L15.598 27.0455C15.598 27.0552 15.599 27.0645 15.6008 27.0734L16.2723 32.2104L16.3408 25.1088C16.3408 25.0893 16.3371 25.071 16.3303 25.0573C16.3235 25.0437 16.3146 25.0363 16.3053 25.0363L16.3001 25.0371Z" fill="url(#paint19_linear_580_3100)"/>
<path opacity="0.3" d="M16.3001 25.0371L15.6286 25.0342C15.6111 25.0392 15.598 25.07 15.598 25.1059L15.598 27.0455C15.598 27.0552 15.599 27.0645 15.6008 27.0734L16.2723 32.2104L16.3408 25.1088C16.3408 25.0893 16.3371 25.071 16.3303 25.0573C16.3235 25.0437 16.3146 25.0363 16.3053 25.0363L16.3001 25.0371Z" fill="url(#paint20_linear_580_3100)"/>
<path d="M1.64022 24.8203C1.64701 24.8203 1.65396 24.8214 1.6609 24.8232L2.33246 24.8203C2.40176 24.8408 2.4541 24.9641 2.4541 25.1069L2.4541 27.0465C2.4541 27.0854 2.45039 27.1234 2.4428 27.1592L1.72116 32.5375C1.70824 32.5994 1.68013 32.6379 1.64733 32.6379C1.6021 32.6379 1.56656 32.5658 1.56656 32.4737L1.49806 25.1098C1.49806 25.0318 1.51292 24.9589 1.54006 24.9042C1.5672 24.8499 1.60274 24.8203 1.64022 24.8203Z" fill="#F4F4F4"/>
<path opacity="0.5" d="M1.64022 24.8203C1.64701 24.8203 1.65396 24.8214 1.6609 24.8232L2.33246 24.8203C2.40176 24.8408 2.4541 24.9641 2.4541 25.1069L2.4541 27.0465C2.4541 27.0854 2.45039 27.1234 2.4428 27.1592L1.72116 32.5375C1.70824 32.5994 1.68013 32.6379 1.64733 32.6379C1.6021 32.6379 1.56656 32.5658 1.56656 32.4737L1.49806 25.1098C1.49806 25.0318 1.51292 24.9589 1.54006 24.9042C1.5672 24.8499 1.60274 24.8203 1.64022 24.8203Z" fill="url(#paint21_linear_580_3100)"/>
<path d="M1.67181 32.4952L2.39344 27.1167C2.39813 27.0944 2.40039 27.0705 2.40039 27.0463L2.40039 25.1069C2.40039 25.0169 2.36808 24.9407 2.3243 24.9277L1.65275 24.9306C1.59911 24.9146 1.55097 24.9995 1.55097 25.1098L1.61946 32.4737C1.61963 32.534 1.66018 32.5506 1.67181 32.4952Z" fill="black"/>
<path d="M1.64557 25.0381L2.31712 25.0352C2.33457 25.0402 2.34766 25.071 2.34766 25.1069L2.34766 27.0464C2.34766 27.0561 2.34669 27.0655 2.34491 27.0744L1.67335 32.2113L1.60486 25.1098C1.60486 25.0902 1.60858 25.072 1.61536 25.0583C1.62215 25.0447 1.63103 25.0373 1.6404 25.0373L1.64557 25.0381Z" fill="#676B86"/>
<path opacity="0.2" d="M1.8667 25.1037L1.64554 25.0379L1.64021 25.0371C1.63084 25.0371 1.62195 25.0445 1.61517 25.0581C1.60838 25.0718 1.60467 25.0901 1.60467 25.1096L1.67316 32.2112L1.78819 29.7573L1.8667 25.1037Z" fill="black"/>
<path opacity="0.5" d="M1.64557 25.0381L2.31712 25.0352C2.33457 25.0402 2.34766 25.071 2.34766 25.1069L2.34766 27.0464C2.34766 27.0561 2.34669 27.0655 2.34491 27.0744L1.67335 32.2113L1.60486 25.1098C1.60486 25.0902 1.60858 25.072 1.61536 25.0583C1.62215 25.0447 1.63103 25.0373 1.6404 25.0373L1.64557 25.0381Z" fill="url(#paint22_linear_580_3100)"/>
<path opacity="0.3" d="M1.64557 25.0381L2.31712 25.0352C2.33457 25.0402 2.34766 25.071 2.34766 25.1069L2.34766 27.0464C2.34766 27.0561 2.34669 27.0655 2.34491 27.0744L1.67335 32.2113L1.60486 25.1098C1.60486 25.0902 1.60858 25.072 1.61536 25.0583C1.62215 25.0447 1.63103 25.0373 1.6404 25.0373L1.64557 25.0381Z" fill="url(#paint23_linear_580_3100)"/>
<path d="M16.2981 31.6862L17.9302 31.0571L17.9302 31.3616C17.9302 31.5049 17.842 31.6335 17.7082 31.6851L16.2981 32.2287L16.2981 31.6862Z" fill="#999999"/>
<path opacity="0.4" d="M16.2981 31.6486L17.9302 31.0195L17.9302 31.324C17.9302 31.4673 17.842 31.5959 17.7082 31.6476L16.2981 32.1912L16.2981 31.6486Z" fill="url(#paint24_linear_580_3100)"/>
<path d="M16.7656 31.2596L17.7958 30.9241C17.8622 30.9024 17.9302 30.9519 17.9302 31.0217L17.9302 31.3963L16.6945 31.7987L16.6945 31.3574C16.6947 31.3129 16.7234 31.2735 16.7656 31.2596Z" fill="#666666"/>
<path opacity="0.3" d="M16.7656 31.2596L17.7958 30.9241C17.8622 30.9024 17.9302 30.9519 17.9302 31.0217L17.9302 31.3963L16.6945 31.7987L16.6945 31.3574C16.6947 31.3129 16.7234 31.2735 16.7656 31.2596Z" fill="url(#paint25_linear_580_3100)"/>
<path d="M1.63232 31.6862L0.000203848 31.0571L0.000203835 31.3616C0.000203828 31.5049 0.088408 31.6335 0.22217 31.6851L1.63232 32.2287L1.63232 31.6862Z" fill="#999999"/>
<path opacity="0.4" d="M1.63232 31.6486L0.000203848 31.0195L0.000203835 31.324C0.000203828 31.4673 0.088408 31.5959 0.22217 31.6476L1.63232 32.1912L1.63232 31.6486Z" fill="url(#paint26_linear_580_3100)"/>
<path d="M1.16492 31.2596L0.134726 30.9241C0.0683299 30.9024 0.000160216 30.9519 0.000160213 31.0217L0.000160196 31.3963L1.23584 31.7987L1.23584 31.3574C1.23568 31.3129 1.20709 31.2735 1.16492 31.2596Z" fill="#666666"/>
<path opacity="0.3" d="M1.16492 31.2596L0.134726 30.9241C0.0683299 30.9024 0.000160216 30.9519 0.000160213 31.0217L0.000160196 31.3963L1.23584 31.7987L1.23584 31.3574C1.23568 31.3129 1.20709 31.2735 1.16492 31.2596Z" fill="url(#paint27_linear_580_3100)"/>
<path opacity="0.7" d="M4.85048 25.1226L13.6201 25.1226L13.2975 26.2007L4.52786 26.2007L4.85048 25.1226Z" fill="url(#paint28_linear_580_3100)"/>
<path d="M4.69373 25.3882L13.2929 25.3882C13.554 25.3882 13.7656 25.5998 13.7656 25.8609L13.7656 26.3636C13.7656 26.6247 13.554 26.8363 13.2929 26.8363L4.69373 26.8363C4.43266 26.8363 4.22104 26.6247 4.22104 26.3636L4.22104 25.8609C4.22104 25.5998 4.43266 25.3882 4.69373 25.3882Z" fill="#999999"/>
<path d="M4.69406 26.8361L7.93213 26.8361L7.93213 25.3882L4.69406 25.3882C4.433 25.3882 4.22137 25.5998 4.22137 25.8609L4.22137 26.3636C4.22137 26.6245 4.433 26.8361 4.69406 26.8361Z" fill="#5D94FF"/>
<path opacity="0.5" d="M7.58691 25.7329L7.58691 26.4919L4.69342 26.4919C4.62299 26.4919 4.56548 26.4344 4.56548 26.3636L4.56548 25.8612C4.56548 25.7904 4.62283 25.7329 4.69342 25.7329L7.58691 25.7329Z" fill="#5384E4"/>
<path d="M13.2929 26.8361L10.0549 26.8361L10.0549 25.3882L13.2929 25.3882C13.554 25.3882 13.7656 25.5998 13.7656 25.8609L13.7656 26.3636C13.7656 26.6245 13.554 26.8361 13.2929 26.8361Z" fill="#CC0000"/>
<path opacity="0.3" d="M13.2928 25.7329C13.3634 25.7329 13.4209 25.7904 13.4209 25.8612L13.4209 26.3636C13.4209 26.4344 13.3635 26.4919 13.2928 26.4919L10.3993 26.4919L10.3993 25.7329L13.2928 25.7329Z" fill="#660000"/>
<path opacity="0.5" d="M4.69373 25.3882L13.2929 25.3882C13.554 25.3882 13.7656 25.5998 13.7656 25.8609L13.7656 26.3636C13.7656 26.6247 13.554 26.8363 13.2929 26.8363L4.69373 26.8363C4.43266 26.8363 4.22104 26.6247 4.22104 26.3636L4.22104 25.8609C4.22104 25.5998 4.43266 25.3882 4.69373 25.3882Z" fill="url(#paint29_radial_580_3100)"/>
<path opacity="0.5" d="M4.69373 25.3882L13.2929 25.3882C13.554 25.3882 13.7656 25.5998 13.7656 25.8609L13.7656 26.3636C13.7656 26.6247 13.554 26.8363 13.2929 26.8363L4.69373 26.8363C4.43266 26.8363 4.22104 26.6247 4.22104 26.3636L4.22104 25.8609C4.22104 25.5998 4.43266 25.3882 4.69373 25.3882Z" fill="url(#paint30_linear_580_3100)"/>
<path d="M4.86725 26.7162L13.1193 26.7162C13.3698 26.7162 13.5728 26.5306 13.5728 26.3016L13.5728 26.1128C13.5728 26.3417 13.3697 26.5273 13.1193 26.5273L4.86725 26.5273C4.61685 26.5273 4.41378 26.3417 4.41378 26.1128L4.41378 26.3016C4.41378 26.5306 4.61685 26.7162 4.86725 26.7162Z" fill="url(#paint31_linear_580_3100)"/>
<path d="M4.86725 25.5088L13.1193 25.5088C13.3698 25.5088 13.5728 25.6944 13.5728 25.9233L13.5728 26.1122C13.5728 25.8833 13.3697 25.6976 13.1193 25.6976L4.86725 25.6976C4.61685 25.6976 4.41378 25.8833 4.41378 26.1122L4.41378 25.9233C4.41378 25.6942 4.61685 25.5088 4.86725 25.5088Z" fill="url(#paint32_linear_580_3100)"/>
<path opacity="0.4" d="M13.5562 26.7554L13.4371 26.6136C13.3964 26.5653 13.3712 26.4727 13.371 26.3722L13.3705 25.8525C13.3704 25.7517 13.3957 25.6587 13.4366 25.6102L13.5562 25.4679C13.5235 25.4461 13.4873 25.4298 13.4497 25.4165L13.3689 25.5126C13.3261 25.5637 13.2995 25.6613 13.2996 25.7672L13.3001 26.4543C13.3003 26.5595 13.3266 26.6564 13.3691 26.7073L13.4516 26.8063C13.4885 26.7932 13.5242 26.7771 13.5562 26.7554Z" fill="white"/>
<path opacity="0.4" d="M4.43731 26.7554L4.55637 26.6136C4.59708 26.5653 4.62228 26.4727 4.62244 26.3722L4.62293 25.8525C4.62293 25.7517 4.59772 25.6587 4.55685 25.6102L4.43731 25.4679C4.46994 25.4461 4.50613 25.4298 4.54377 25.4165L4.62454 25.5126C4.66735 25.5637 4.69401 25.6613 4.69385 25.7672L4.6932 26.4543C4.6932 26.5595 4.66671 26.6564 4.62422 26.7073L4.54167 26.8063C4.50483 26.7932 4.46929 26.7771 4.43731 26.7554Z" fill="white"/>
<path opacity="0.4" d="M13.0762 26.1468L13.0762 26.0771L4.91024 26.0771L4.91024 26.1468L13.0762 26.1468Z" fill="black"/>
<path d="M0.790958 0.395019L17.1946 0.39502C17.3908 0.39502 17.5498 0.554148 17.5498 0.75043L17.5498 24.1699C17.5498 24.3662 17.3907 24.5253 17.1946 24.5253L0.790957 24.5253C0.594676 24.5253 0.435555 24.3662 0.435555 24.1699L0.435556 0.750429C0.435556 0.554147 0.594677 0.395019 0.790958 0.395019Z" fill="#CC3300"/>
<path d="M17.1947 0.635742C17.2577 0.635742 17.3091 0.687115 17.3091 0.749958L17.3091 24.1694C17.3091 24.2323 17.2577 24.2837 17.1947 24.2837L0.791266 24.2837C0.728263 24.2837 0.677052 24.2323 0.677052 24.1694L0.677053 0.749957C0.677053 0.687114 0.728426 0.635741 0.791267 0.635741L17.1947 0.635742Z" fill="#F5F7EA"/>
<path d="M17.1947 0.635742C17.2577 0.635742 17.3091 0.687115 17.3091 0.749958L17.3091 24.1694C17.3091 24.2323 17.2577 24.2837 17.1947 24.2837L0.791266 24.2837C0.728263 24.2837 0.677052 24.2323 0.677052 24.1694L0.677053 0.749957C0.677053 0.687114 0.728426 0.635741 0.791267 0.635741L17.1947 0.635742Z" fill="url(#paint33_radial_580_3100)"/>
<path opacity="0.2" d="M17.1947 0.635742C17.2577 0.635742 17.3091 0.687115 17.3091 0.749958L17.3091 24.1694C17.3091 24.2323 17.2577 24.2837 17.1947 24.2837L0.791266 24.2837C0.728263 24.2837 0.677052 24.2323 0.677052 24.1694L0.677053 0.749957C0.677053 0.687114 0.728426 0.635741 0.791267 0.635741L17.1947 0.635742Z" fill="#FF8282"/>
<path d="M14.9231 0.273708L14.9231 0.39503L16.5806 0.39503L16.5806 0.273708C16.5806 0.137683 16.4702 0.0273437 16.334 0.0273437L15.1694 0.0273437C15.0334 0.0273437 14.9231 0.137683 14.9231 0.273708Z" fill="#EF0C0C"/>
<path opacity="0.4" d="M15.1099 0.353819L16.394 0.35382C16.394 0.19647 16.2664 0.0688477 16.1091 0.0688476L15.3949 0.0688476C15.2375 0.0688476 15.1099 0.19647 15.1099 0.353819Z" fill="#660000"/>
<path d="M16.479 0.371441L16.4711 0.371441C16.4393 0.226693 16.3107 0.118293 16.1564 0.118293L15.3478 0.118293C15.1936 0.118293 15.065 0.226693 15.0331 0.371441L15.0252 0.371441C15.0252 0.193252 15.1697 0.0488281 15.3478 0.0488281L16.1564 0.0488281C16.3346 0.0488281 16.479 0.193252 16.479 0.371441Z" fill="url(#paint34_linear_580_3100)"/>
<path opacity="0.6" d="M15.4718 0.216394C15.6254 0.215424 15.7792 0.214455 15.9328 0.213325C16.001 0.21284 16.0753 0.20654 16.1427 0.219948C16.17 0.225441 16.2233 0.236103 16.2246 0.272128C16.2259 0.307508 16.1835 0.313002 16.1569 0.313164C16.0808 0.313164 15.2139 0.318655 15.2139 0.304278C15.2143 0.271321 15.2406 0.243051 15.2711 0.230289C15.3017 0.217527 15.3356 0.217202 15.3685 0.216879C15.4029 0.216879 15.4374 0.216555 15.4718 0.216394Z" fill="url(#paint35_linear_580_3100)"/>
<path d="M1.74291 0.273708L1.74291 0.39503L3.40039 0.39503L3.40039 0.273708C3.40039 0.137683 3.29005 0.0273437 3.15403 0.0273437L1.98943 0.0273437C1.8534 0.0273437 1.74291 0.137683 1.74291 0.273708Z" fill="#EF0C0C"/>
<path opacity="0.4" d="M1.92988 0.353819L3.21387 0.35382C3.21387 0.19647 3.08624 0.0688477 2.9289 0.0688476L2.21469 0.0688476C2.05751 0.0688476 1.92988 0.19647 1.92988 0.353819Z" fill="#660000"/>
<path d="M3.29834 0.372418L3.29042 0.372418C3.2586 0.22767 3.13001 0.11927 2.97573 0.11927L2.16718 0.11927C2.0129 0.11927 1.88431 0.22767 1.85248 0.372418L1.84457 0.372418C1.84457 0.194229 1.98899 0.0498046 2.16718 0.0498046L2.97573 0.0498047C3.15391 0.0498047 3.29834 0.194229 3.29834 0.372418Z" fill="url(#paint36_linear_580_3100)"/>
<path opacity="0.6" d="M2.29159 0.216394C2.44522 0.215424 2.59902 0.214455 2.75265 0.213325C2.82082 0.21284 2.89514 0.20654 2.9625 0.219948C2.9898 0.225441 3.04311 0.236103 3.0444 0.272128C3.0457 0.307508 3.00337 0.313002 2.97671 0.313164C2.90063 0.313164 2.03376 0.318655 2.03376 0.304278C2.03408 0.271321 2.06041 0.243051 2.09095 0.230289C2.12148 0.217527 2.1554 0.217202 2.18836 0.216879C2.22293 0.216879 2.25734 0.216555 2.29159 0.216394Z" fill="url(#paint37_linear_580_3100)"/>
<path d="M10.0558 15.7846L10.0558 13.6986C10.0558 13.6018 10.1342 13.5232 10.231 13.5232L12.317 13.5232C12.4138 13.5232 12.4922 13.4448 12.4922 13.348L12.4922 11.5713C12.4922 11.4745 12.4138 11.3958 12.317 11.3958L10.231 11.3958C10.1342 11.3958 10.0558 11.3175 10.0558 11.2207L10.0558 9.13465C10.0558 9.03785 9.97746 8.95947 9.8804 8.95947L8.10371 8.95947C8.00691 8.95947 7.92853 9.03785 7.92853 9.13464L7.92853 11.2207C7.92853 11.3175 7.85015 11.3958 7.7531 11.3958L5.66735 11.3958C5.57056 11.3958 5.49219 11.4742 5.49219 11.5713L5.49219 13.348C5.49219 13.4448 5.57056 13.5232 5.66735 13.5232L7.7531 13.5232C7.84989 13.5232 7.92853 13.6015 7.92853 13.6986L7.92853 15.7846C7.92853 15.8814 8.00691 15.9598 8.10371 15.9598L9.8804 15.9598C9.97746 15.9598 10.0558 15.8814 10.0558 15.7846Z" fill="#CC3300"/>
<path d="M3.80733 0.395019L14.5483 0.39502L14.5483 0.0724039L3.80733 0.0724034L3.80733 0.395019Z" fill="#F5F7EA"/>
<path opacity="0.5" d="M3.80781 0.0722652L14.5488 0.0722656L14.5488 0.394879L3.80781 0.394878L3.80781 0.0722652Z" fill="url(#paint38_linear_580_3100)"/>
<path opacity="0.5" d="M9.13557 0.39502L9.2207 0.39502L9.2207 0.0724039L9.13557 0.0724039L9.13557 0.39502Z" fill="#666666"/>
<path d="M9.49944 0.184383L14.3076 0.184384C14.3659 0.184384 14.4131 0.137211 14.4131 0.0788919L14.4131 0.0727539L9.39395 0.0727537L9.39395 0.0788917C9.39395 0.137211 9.44112 0.184383 9.49944 0.184383Z" fill="#AAD5F9"/>
<path d="M9.49944 0.184383L14.3076 0.184384C14.3659 0.184384 14.4131 0.137211 14.4131 0.0788919L14.4131 0.0727539L14.399 0.0727539C14.3811 0.105548 14.3477 0.128649 14.3076 0.128649L9.49944 0.128649C9.45954 0.128649 9.42593 0.105548 9.408 0.0727537L9.39395 0.0727537L9.39395 0.0788917C9.39395 0.137211 9.44112 0.184383 9.49944 0.184383Z" fill="white"/>
<path d="M4.04192 0.183895L8.85007 0.183895C8.90839 0.183895 8.95557 0.136723 8.95557 0.0784036L8.95557 0.0722656L3.93643 0.0722654L3.93643 0.0784034C3.93659 0.136723 3.98376 0.183895 4.04192 0.183895Z" fill="#AAD5F9"/>
<path d="M4.04192 0.183895L8.85007 0.183895C8.90839 0.183895 8.95557 0.136723 8.95557 0.0784036L8.95557 0.0722656L8.94151 0.0722656C8.92358 0.10506 8.89014 0.128161 8.85007 0.128161L4.04192 0.12816C4.00201 0.12816 3.96841 0.10506 3.95048 0.0722654L3.93643 0.0722654L3.93643 0.0784034C3.93659 0.136723 3.98376 0.183895 4.04192 0.183895Z" fill="white"/>
<path d="M0.436275 24.2837L0.436275 30.1933C0.436275 30.3678 0.505577 30.535 0.628838 30.6584L1.20508 31.2347L1.20508 24.2837L0.436275 24.2837Z" fill="#CCCCCC"/>
<path d="M0.557021 24.4048L1.08496 24.4048L1.08496 30.9443L0.714368 30.5739C0.612916 30.4724 0.557021 30.3375 0.557021 30.1941L0.557021 24.4048Z" fill="url(#paint39_linear_580_3100)"/>
<path opacity="0.5" d="M0.436275 24.2837L0.436275 30.1933C0.436275 30.3678 0.505577 30.535 0.628838 30.6584L1.20508 31.2347L1.20508 24.2837L0.436275 24.2837Z" fill="url(#paint40_linear_580_3100)"/>
<path opacity="0.4" d="M0.436275 24.2837L0.436275 30.1933C0.436275 30.3678 0.505577 30.535 0.628838 30.6584L1.20508 31.2347L1.20508 24.2837L0.436275 24.2837Z" fill="url(#paint41_linear_580_3100)"/>
<mask id="mask1_580_3100" style="mask-type:luminance" maskUnits="userSpaceOnUse" x="0" y="24" width="2" height="7">
<path d="M0.557021 24.4048L1.08496 24.4048L1.08496 30.9443L0.714368 30.5739C0.612916 30.4724 0.557021 30.3375 0.557021 30.1941L0.557021 24.4048Z" fill="white"/>
</mask>
<g mask="url(#mask1_580_3100)">
<path d="M0.965393 24.4561C0.919675 24.4816 0.873472 24.4861 0.873472 24.4861C0.873472 24.4861 0.901423 24.4491 0.947142 24.4236C0.99286 24.3981 1.03906 24.3936 1.03906 24.3936C1.03906 24.3936 1.01111 24.4306 0.965393 24.4561Z" fill="#999999"/>
<path d="M0.603418 24.6651C0.5577 24.6906 0.51166 24.6951 0.51166 24.6951C0.51166 24.6951 0.539607 24.6581 0.585325 24.6326C0.631043 24.6071 0.677246 24.6025 0.677246 24.6025C0.677246 24.6025 0.649137 24.6395 0.603418 24.6651Z" fill="#999999"/>
<path d="M0.790752 24.5357C0.816277 24.5815 0.820801 24.6275 0.820801 24.6275C0.820801 24.6275 0.783807 24.5996 0.758283 24.5538C0.732758 24.5081 0.728234 24.4619 0.728234 24.4619C0.728234 24.4619 0.765227 24.49 0.790752 24.5357Z" fill="#999999"/>
<path d="M1.0178 24.6635C1.04333 24.7092 1.04785 24.7554 1.04785 24.7554C1.04785 24.7554 1.01086 24.7275 0.985333 24.6818C0.959809 24.636 0.955285 24.5898 0.955285 24.5898C0.955285 24.5898 0.992278 24.6178 1.0178 24.6635Z" fill="#999999"/>
<path d="M0.656149 24.8717C0.681674 24.9174 0.686035 24.9634 0.686035 24.9634C0.686035 24.9634 0.649042 24.9355 0.623517 24.8898C0.597992 24.8441 0.593631 24.7979 0.593631 24.7979C0.593631 24.7979 0.630625 24.826 0.656149 24.8717Z" fill="#999999"/>
<path d="M0.810423 24.762C0.856141 24.7365 0.902344 24.7319 0.902344 24.7319C0.902344 24.7319 0.874397 24.7689 0.828679 24.7945C0.782961 24.82 0.736916 24.8245 0.736916 24.8245C0.736916 24.8245 0.764866 24.7875 0.810423 24.762Z" fill="#999999"/>
<path d="M1.08893 24.9429C1.04321 24.9684 0.997012 24.9728 0.997012 24.9728C0.997012 24.9728 1.02496 24.9358 1.07068 24.9103C1.11639 24.8847 1.1626 24.8804 1.1626 24.8804C1.1626 24.8804 1.13465 24.9174 1.08893 24.9429Z" fill="#999999"/>
<path d="M0.727116 25.1509C0.681398 25.1764 0.635195 25.1808 0.635195 25.1808C0.635195 25.1808 0.663142 25.1438 0.70886 25.1183C0.754578 25.0927 0.800781 25.0884 0.800781 25.0884C0.800781 25.0884 0.772834 25.1254 0.727116 25.1509Z" fill="#999999"/>
<path d="M0.914287 25.0232C0.939812 25.0689 0.944336 25.1151 0.944336 25.1151C0.944336 25.1151 0.907342 25.0872 0.881818 25.0415C0.856293 24.9957 0.851769 24.9497 0.851769 24.9497C0.851769 24.9497 0.888763 24.9775 0.914287 25.0232Z" fill="#999999"/>
<path d="M1.14134 25.1503C1.16686 25.196 1.17139 25.2423 1.17139 25.2423C1.17139 25.2423 1.13439 25.2143 1.10886 25.1686C1.08334 25.1229 1.07882 25.0767 1.07882 25.0767C1.07882 25.0767 1.11581 25.1046 1.14134 25.1503Z" fill="#999999"/>
<path d="M0.779522 25.3582C0.805046 25.4039 0.80957 25.4501 0.80957 25.4501C0.80957 25.4501 0.772577 25.4222 0.747052 25.3764C0.721528 25.3307 0.717166 25.2847 0.717166 25.2847C0.717166 25.2847 0.753997 25.3125 0.779522 25.3582Z" fill="#999999"/>
<path d="M0.933958 25.2486C0.979676 25.2231 1.02588 25.2188 1.02588 25.2188C1.02588 25.2188 0.997932 25.2557 0.952214 25.2813C0.906496 25.3068 0.860293 25.3112 0.860293 25.3112C0.860293 25.3112 0.88824 25.2742 0.933958 25.2486Z" fill="#999999"/>
<path d="M0.585325 25.4339C0.631043 25.4083 0.677246 25.4038 0.677246 25.4038C0.677246 25.4038 0.649294 25.4408 0.603576 25.4663C0.557858 25.4919 0.511818 25.4964 0.511818 25.4964C0.511818 25.4964 0.539607 25.4594 0.585325 25.4339Z" fill="#999999"/>
<path d="M1.05215 25.4752C1.07767 25.5209 1.08203 25.567 1.08203 25.567C1.08203 25.567 1.04504 25.539 1.01951 25.4933C0.993989 25.4476 0.989464 25.4014 0.989464 25.4014C0.989464 25.4014 1.02646 25.4295 1.05215 25.4752Z" fill="#999999"/>
<path d="M0.690324 25.683C0.715849 25.7288 0.720215 25.775 0.720215 25.775C0.720215 25.775 0.683216 25.747 0.657692 25.7013C0.632167 25.6556 0.627806 25.6094 0.627806 25.6094C0.627806 25.6094 0.664799 25.6373 0.690324 25.683Z" fill="#999999"/>
<path d="M0.845579 25.5729C0.891297 25.5473 0.9375 25.543 0.9375 25.543C0.9375 25.543 0.909553 25.58 0.863835 25.6055C0.818117 25.631 0.771914 25.6354 0.771914 25.6354C0.771914 25.6354 0.799861 25.5984 0.845579 25.5729Z" fill="#999999"/>
<path d="M1.12246 25.7547C1.07674 25.7803 1.0307 25.7848 1.0307 25.7848C1.0307 25.7848 1.05865 25.7478 1.10437 25.7223C1.15009 25.6967 1.19629 25.6924 1.19629 25.6924C1.19629 25.6924 1.16818 25.7292 1.12246 25.7547Z" fill="#999999"/>
<path d="M0.76065 25.9624C0.714932 25.9879 0.668887 25.9925 0.668887 25.9925C0.668887 25.9925 0.696834 25.9555 0.742552 25.93C0.78827 25.9044 0.834473 25.8999 0.834473 25.8999C0.834473 25.8999 0.806368 25.9369 0.76065 25.9624Z" fill="#999999"/>
<path d="M0.94749 25.8344C0.973015 25.8801 0.977539 25.9263 0.977539 25.9263C0.977539 25.9263 0.940541 25.8984 0.915016 25.8527C0.889491 25.8069 0.884972 25.7607 0.884972 25.7607C0.884972 25.7607 0.921966 25.7887 0.94749 25.8344Z" fill="#999999"/>
<path d="M0.813376 26.1703C0.8389 26.2161 0.843262 26.2623 0.843262 26.2623C0.843262 26.2623 0.806268 26.2343 0.780744 26.1886C0.755219 26.1429 0.750858 26.0967 0.750858 26.0967C0.750858 26.0967 0.78769 26.1246 0.813376 26.1703Z" fill="#999999"/>
<path d="M0.968138 26.0608C1.01386 26.0353 1.06006 26.0308 1.06006 26.0308C1.06006 26.0308 1.03211 26.0678 0.986394 26.0933C0.940676 26.1188 0.894473 26.1233 0.894473 26.1233C0.894473 26.1233 0.92242 26.0863 0.968138 26.0608Z" fill="#999999"/>
<path d="M0.619017 26.2459C0.664735 26.2203 0.710938 26.2158 0.710938 26.2158C0.710938 26.2158 0.682991 26.2528 0.637273 26.2783C0.591554 26.3039 0.545352 26.3082 0.545352 26.3082C0.545352 26.3082 0.573298 26.2714 0.619017 26.2459Z" fill="#999999"/>
<path d="M1.05263 26.29C1.07816 26.3357 1.08252 26.3819 1.08252 26.3819C1.08252 26.3819 1.04553 26.3539 1.02 26.3082C0.994477 26.2625 0.989953 26.2163 0.989953 26.2163C0.989953 26.2163 1.02695 26.2443 1.05263 26.29Z" fill="#999999"/>
<path d="M0.690812 26.4981C0.716337 26.5439 0.720703 26.5899 0.720703 26.5899C0.720703 26.5899 0.683705 26.562 0.65818 26.5162C0.632656 26.4705 0.628294 26.4243 0.628294 26.4243C0.628294 26.4243 0.665288 26.4524 0.690812 26.4981Z" fill="#999999"/>
<path d="M0.846067 26.3883C0.891785 26.3628 0.937988 26.3584 0.937988 26.3584C0.937988 26.3584 0.910041 26.3954 0.864323 26.4209C0.818605 26.4464 0.772402 26.4508 0.772402 26.4508C0.772402 26.4508 0.800349 26.4138 0.846067 26.3883Z" fill="#999999"/>
<path d="M1.12295 26.57C1.07723 26.5955 1.03119 26.5999 1.03119 26.5999C1.03119 26.5999 1.05914 26.5629 1.10486 26.5374C1.15057 26.5118 1.19678 26.5073 1.19678 26.5073C1.19678 26.5073 1.16867 26.5445 1.12295 26.57Z" fill="#999999"/>
<path d="M0.761627 26.7779C0.715908 26.8034 0.669863 26.8079 0.669863 26.8079C0.669863 26.8079 0.69781 26.7709 0.743528 26.7454C0.789246 26.7199 0.835449 26.7153 0.835449 26.7153C0.835449 26.7153 0.807345 26.7523 0.761627 26.7779Z" fill="#999999"/>
<path d="M0.948467 26.6498C0.973992 26.6956 0.978516 26.7418 0.978516 26.7418C0.978516 26.7418 0.941517 26.7138 0.915993 26.6681C0.890468 26.6224 0.885949 26.5762 0.885949 26.5762C0.885949 26.5762 0.922942 26.6041 0.948467 26.6498Z" fill="#999999"/>
<path d="M0.813864 26.9856C0.839389 27.0313 0.84375 27.0775 0.84375 27.0775C0.84375 27.0775 0.806757 27.0496 0.781232 27.0039C0.755707 26.9581 0.751346 26.9121 0.751346 26.9121C0.751346 26.9121 0.788178 26.9399 0.813864 26.9856Z" fill="#999999"/>
<path d="M0.968138 26.8758C1.01386 26.8502 1.06006 26.8457 1.06006 26.8457C1.06006 26.8457 1.03211 26.8827 0.986394 26.9082C0.940676 26.9338 0.894473 26.9383 0.894473 26.9383C0.894473 26.9383 0.92242 26.9013 0.968138 26.8758Z" fill="#999999"/>
<path d="M0.619505 27.0611C0.665223 27.0356 0.711426 27.0312 0.711426 27.0312C0.711426 27.0312 0.683479 27.0682 0.637761 27.0938C0.592043 27.1193 0.54584 27.1237 0.54584 27.1237C0.54584 27.1237 0.573787 27.0867 0.619505 27.0611Z" fill="#999999"/>
<path d="M1.05215 27.1043C1.07767 27.15 1.08203 27.1962 1.08203 27.1962C1.08203 27.1962 1.04504 27.1682 1.01951 27.1225C0.993989 27.0768 0.989464 27.0308 0.989464 27.0308C0.989464 27.0308 1.02646 27.0585 1.05215 27.1043Z" fill="#999999"/>
<path d="M0.690324 27.3124C0.715849 27.3582 0.720215 27.4044 0.720215 27.4044C0.720215 27.4044 0.683216 27.3764 0.657692 27.3307C0.632167 27.285 0.627806 27.2388 0.627806 27.2388C0.627806 27.2388 0.664799 27.2667 0.690324 27.3124Z" fill="#999999"/>
<path d="M0.845091 27.2029C0.890809 27.1774 0.937012 27.1729 0.937012 27.1729C0.937012 27.1729 0.909065 27.2099 0.863347 27.2354C0.817629 27.2609 0.771426 27.2653 0.771426 27.2653C0.771426 27.2653 0.799373 27.2284 0.845091 27.2029Z" fill="#999999"/>
<path d="M1.12246 27.3838C1.07674 27.4093 1.0307 27.4137 1.0307 27.4137C1.0307 27.4137 1.05865 27.3767 1.10437 27.3512C1.15009 27.3257 1.19629 27.3213 1.19629 27.3213C1.19629 27.3213 1.16818 27.3583 1.12246 27.3838Z" fill="#999999"/>
<path d="M0.76065 27.592C0.714932 27.6175 0.668887 27.6219 0.668887 27.6219C0.668887 27.6219 0.696834 27.5849 0.742552 27.5593C0.78827 27.5338 0.834473 27.5293 0.834473 27.5293C0.834473 27.5293 0.806368 27.5665 0.76065 27.592Z" fill="#999999"/>
<path d="M0.94749 27.4635C0.973015 27.5092 0.977539 27.5552 0.977539 27.5552C0.977539 27.5552 0.940541 27.5273 0.915016 27.4816C0.889491 27.4359 0.884972 27.3896 0.884972 27.3896C0.884972 27.3896 0.921966 27.4178 0.94749 27.4635Z" fill="#999999"/>
<path d="M0.813864 27.8002C0.839389 27.846 0.84375 27.8922 0.84375 27.8922C0.84375 27.8922 0.806757 27.8642 0.781232 27.8185C0.755707 27.7728 0.751346 27.7266 0.751346 27.7266C0.751346 27.7266 0.788178 27.7545 0.813864 27.8002Z" fill="#999999"/>
<path d="M0.968138 27.6902C1.01386 27.6647 1.06006 27.6602 1.06006 27.6602C1.06006 27.6602 1.03211 27.6971 0.986394 27.7227C0.940676 27.7482 0.894473 27.7527 0.894473 27.7527C0.894473 27.7527 0.92242 27.7157 0.968138 27.6902Z" fill="#999999"/>
<path d="M0.619505 27.8756C0.665223 27.8501 0.711426 27.8457 0.711426 27.8457C0.711426 27.8457 0.683479 27.8827 0.637761 27.9082C0.592043 27.9337 0.54584 27.9381 0.54584 27.9381C0.54584 27.9381 0.573787 27.9013 0.619505 27.8756Z" fill="#999999"/>
<path d="M1.05263 27.9189C1.07816 27.9646 1.08252 28.0108 1.08252 28.0108C1.08252 28.0108 1.04553 27.9829 1.02 27.9371C0.994477 27.8914 0.989953 27.8452 0.989953 27.8452C0.989953 27.8452 1.02695 27.8732 1.05263 27.9189Z" fill="#999999"/>
<path d="M0.690812 28.1267C0.716337 28.1724 0.720703 28.2187 0.720703 28.2187C0.720703 28.2187 0.683705 28.1907 0.65818 28.145C0.632656 28.0993 0.628294 28.0532 0.628294 28.0532C0.628294 28.0532 0.665288 28.081 0.690812 28.1267Z" fill="#999999"/>
<path d="M0.846067 28.0169C0.891785 27.9913 0.937988 27.9868 0.937988 27.9868C0.937988 27.9868 0.910041 28.0238 0.864323 28.0493C0.818605 28.0749 0.772402 28.0792 0.772402 28.0792C0.772402 28.0792 0.800349 28.0424 0.846067 28.0169Z" fill="#999999"/>
<path d="M1.12295 28.1983C1.07723 28.2238 1.03119 28.2281 1.03119 28.2281C1.03119 28.2281 1.05914 28.1912 1.10486 28.1656C1.15057 28.1401 1.19678 28.1357 1.19678 28.1357C1.19678 28.1357 1.16867 28.1727 1.12295 28.1983Z" fill="#999999"/>
<path d="M0.761138 28.4058C0.71542 28.4313 0.669375 28.4357 0.669375 28.4357C0.669375 28.4357 0.697322 28.3987 0.74304 28.3731C0.788758 28.3476 0.834961 28.3433 0.834961 28.3433C0.834961 28.3433 0.806856 28.3803 0.761138 28.4058Z" fill="#999999"/>
<path d="M0.947979 28.2783C0.973503 28.324 0.978027 28.3702 0.978027 28.3702C0.978027 28.3702 0.941029 28.3422 0.915504 28.2965C0.88998 28.2508 0.885461 28.2046 0.885461 28.2046C0.885461 28.2046 0.922454 28.2325 0.947979 28.2783Z" fill="#999999"/>
<path d="M0.813864 28.6137C0.839389 28.6594 0.84375 28.7056 0.84375 28.7056C0.84375 28.7056 0.806757 28.6777 0.781232 28.632C0.755707 28.5862 0.751346 28.54 0.751346 28.54C0.751346 28.54 0.788178 28.568 0.813864 28.6137Z" fill="#999999"/>
<path d="M0.968138 28.5025C1.01386 28.477 1.06006 28.4727 1.06006 28.4727C1.06006 28.4727 1.03211 28.5096 0.986394 28.5352C0.940676 28.5607 0.894473 28.5651 0.894473 28.5651C0.894473 28.5651 0.92242 28.5281 0.968138 28.5025Z" fill="#999999"/>
<path d="M0.619505 28.6891C0.665223 28.6635 0.711426 28.6592 0.711426 28.6592C0.711426 28.6592 0.683479 28.6962 0.637761 28.7217C0.592043 28.7472 0.54584 28.7516 0.54584 28.7516C0.54584 28.7516 0.573787 28.7148 0.619505 28.6891Z" fill="#999999"/>
<path d="M1.05215 28.7333C1.07767 28.7791 1.08203 28.8253 1.08203 28.8253C1.08203 28.8253 1.04504 28.7973 1.01951 28.7516C0.993989 28.7059 0.989464 28.6597 0.989464 28.6597C0.989464 28.6597 1.02646 28.6876 1.05215 28.7333Z" fill="#999999"/>
<path d="M0.690324 28.9413C0.715849 28.9871 0.720215 29.0333 0.720215 29.0333C0.720215 29.0333 0.683216 29.0053 0.657692 28.9596C0.632167 28.9139 0.627806 28.8677 0.627806 28.8677C0.627806 28.8677 0.664799 28.8956 0.690324 28.9413Z" fill="#999999"/>
<path d="M0.845579 28.8318C0.891297 28.8063 0.9375 28.8018 0.9375 28.8018C0.9375 28.8018 0.909553 28.8388 0.863835 28.8643C0.818117 28.8898 0.771914 28.8943 0.771914 28.8943C0.771914 28.8943 0.799861 28.8573 0.845579 28.8318Z" fill="#999999"/>
<path d="M1.12246 29.0126C1.07674 29.0381 1.0307 29.0426 1.0307 29.0426C1.0307 29.0426 1.05865 29.0056 1.10437 28.9801C1.15009 28.9546 1.19629 28.9502 1.19629 28.9502C1.19629 28.9502 1.16818 28.987 1.12246 29.0126Z" fill="#999999"/>
<path d="M0.76065 29.2202C0.714932 29.2458 0.668887 29.2501 0.668887 29.2501C0.668887 29.2501 0.696834 29.2131 0.742552 29.1876C0.78827 29.1621 0.834473 29.1577 0.834473 29.1577C0.834473 29.1577 0.806368 29.1947 0.76065 29.2202Z" fill="#999999"/>
<path d="M0.94749 29.0925C0.973015 29.1383 0.977539 29.1845 0.977539 29.1845C0.977539 29.1845 0.940541 29.1565 0.915016 29.1108C0.889491 29.0651 0.884972 29.019 0.884972 29.019C0.884972 29.019 0.921966 29.0468 0.94749 29.0925Z" fill="#999999"/>
<path d="M0.813864 29.4291C0.839389 29.4749 0.84375 29.5211 0.84375 29.5211C0.84375 29.5211 0.806757 29.4931 0.781232 29.4474C0.755707 29.4017 0.751346 29.3555 0.751346 29.3555C0.751346 29.3555 0.788178 29.3834 0.813864 29.4291Z" fill="#999999"/>
<path d="M0.967649 29.3185C1.01337 29.2929 1.05957 29.2886 1.05957 29.2886C1.05957 29.2886 1.03162 29.3256 0.985905 29.3511C0.940187 29.3766 0.893984 29.3811 0.893984 29.3811C0.893984 29.3811 0.921931 29.344 0.967649 29.3185Z" fill="#999999"/>
<path d="M0.619505 29.5047C0.665223 29.4791 0.711426 29.4746 0.711426 29.4746C0.711426 29.4746 0.683479 29.5116 0.637761 29.5371C0.592043 29.5627 0.54584 29.5672 0.54584 29.5672C0.54584 29.5672 0.573787 29.5302 0.619505 29.5047Z" fill="#999999"/>
<path d="M1.05263 29.5475C1.07816 29.5932 1.08252 29.6392 1.08252 29.6392C1.08252 29.6392 1.04553 29.6113 1.02 29.5656C0.994477 29.5198 0.989953 29.4736 0.989953 29.4736C0.989953 29.4736 1.02695 29.5017 1.05263 29.5475Z" fill="#999999"/>
<path d="M0.690812 29.7553C0.716337 29.801 0.720703 29.8472 0.720703 29.8472C0.720703 29.8472 0.683705 29.8193 0.65818 29.7736C0.632656 29.7278 0.628294 29.6816 0.628294 29.6816C0.628294 29.6816 0.665288 29.7097 0.690812 29.7553Z" fill="#999999"/>
<path d="M0.846067 29.6453C0.891785 29.6198 0.937988 29.6152 0.937988 29.6152C0.937988 29.6152 0.910041 29.6522 0.864323 29.6778C0.818605 29.7033 0.772402 29.7076 0.772402 29.7076C0.772402 29.7076 0.800349 29.6708 0.846067 29.6453Z" fill="#999999"/>
<path d="M1.12295 29.8268C1.07723 29.8524 1.03119 29.8567 1.03119 29.8567C1.03119 29.8567 1.05914 29.8197 1.10486 29.7942C1.15057 29.7687 1.19678 29.7642 1.19678 29.7642C1.19678 29.7642 1.16867 29.8013 1.12295 29.8268Z" fill="#999999"/>
<path d="M0.761138 30.0345C0.71542 30.0601 0.669375 30.0646 0.669375 30.0646C0.669375 30.0646 0.697322 30.0276 0.74304 30.0021C0.788758 29.9765 0.834961 29.9722 0.834961 29.9722C0.834961 29.9722 0.806856 30.009 0.761138 30.0345Z" fill="#999999"/>
<path d="M0.947979 29.9063C0.973503 29.9521 0.978027 29.9981 0.978027 29.9981C0.978027 29.9981 0.941029 29.9702 0.915504 29.9244C0.88998 29.8787 0.885461 29.8325 0.885461 29.8325C0.885461 29.8325 0.922454 29.8606 0.947979 29.9063Z" fill="#999999"/>
<path d="M0.813864 30.2428C0.839389 30.2885 0.84375 30.3345 0.84375 30.3345C0.84375 30.3345 0.806757 30.3066 0.781232 30.2609C0.755707 30.2151 0.751346 30.1689 0.751346 30.1689C0.751346 30.1689 0.788178 30.1971 0.813864 30.2428Z" fill="#999999"/>
<path d="M0.968138 30.1324C1.01386 30.1069 1.06006 30.1025 1.06006 30.1025C1.06006 30.1025 1.03211 30.1395 0.986394 30.1651C0.940676 30.1906 0.894473 30.1949 0.894473 30.1949C0.894473 30.1949 0.92242 30.158 0.968138 30.1324Z" fill="#999999"/>
<path d="M0.619505 30.3181C0.665223 30.2926 0.711426 30.2881 0.711426 30.2881C0.711426 30.2881 0.683479 30.3251 0.637761 30.3506C0.592043 30.3761 0.54584 30.3807 0.54584 30.3807C0.54584 30.3807 0.573787 30.3437 0.619505 30.3181Z" fill="#999999"/>
<path d="M1.05215 30.3622C1.07767 30.408 1.08203 30.4542 1.08203 30.4542C1.08203 30.4542 1.04504 30.4262 1.01951 30.3805C0.993989 30.3348 0.989464 30.2886 0.989464 30.2886C0.989464 30.2886 1.02646 30.3165 1.05215 30.3622Z" fill="#999999"/>
<path d="M0.690324 30.5703C0.715849 30.616 0.720215 30.6622 0.720215 30.6622C0.720215 30.6622 0.683216 30.6342 0.657692 30.5885C0.632167 30.5428 0.627806 30.4966 0.627806 30.4966C0.627806 30.4966 0.664799 30.5247 0.690324 30.5703Z" fill="#999999"/>
<path d="M0.845579 30.4606C0.891297 30.435 0.9375 30.4307 0.9375 30.4307C0.9375 30.4307 0.909553 30.4677 0.863835 30.4932C0.818117 30.5187 0.771914 30.5232 0.771914 30.5232C0.771914 30.5232 0.799861 30.4861 0.845579 30.4606Z" fill="#999999"/>
<path d="M1.12246 30.6421C1.07674 30.6676 1.0307 30.6722 1.0307 30.6722C1.0307 30.6722 1.05865 30.6352 1.10437 30.6096C1.15009 30.5841 1.19629 30.5796 1.19629 30.5796C1.19629 30.5796 1.16818 30.6166 1.12246 30.6421Z" fill="#999999"/>
<path d="M0.761138 30.8496C0.71542 30.8752 0.669375 30.8797 0.669375 30.8797C0.669375 30.8797 0.697322 30.8427 0.74304 30.8172C0.788758 30.7916 0.834961 30.7871 0.834961 30.7871C0.834961 30.7871 0.806856 30.8241 0.761138 30.8496Z" fill="#999999"/>
<path d="M0.94749 30.7221C0.973015 30.7678 0.977539 30.814 0.977539 30.814C0.977539 30.814 0.940541 30.7861 0.915016 30.7404C0.889491 30.6946 0.884972 30.6484 0.884972 30.6484C0.884972 30.6484 0.921966 30.6764 0.94749 30.7221Z" fill="#999999"/>
<path d="M0.968138 30.948C1.01386 30.9225 1.06006 30.918 1.06006 30.918C1.06006 30.918 1.03211 30.955 0.986394 30.9805C0.940676 31.006 0.894473 31.0105 0.894473 31.0105C0.894473 31.0105 0.92242 30.9735 0.968138 30.948Z" fill="#999999"/>
</g>
<defs>
<linearGradient id="paint0_linear_580_3100" x1="17.1918" y1="23.2321" x2="16.8704" y2="40.2598" gradientUnits="userSpaceOnUse">
<stop stop-color="#C7C5C5"/>
<stop offset="0.0359" stop-color="#676767"/>
<stop offset="0.1123" stop-color="white"/>
<stop offset="0.3019" stop-color="#929292"/>
<stop offset="0.492" stop-color="white"/>
<stop offset="0.6257" stop-color="#676767"/>
<stop offset="0.7701" stop-color="#929292"/>
<stop offset="0.8233" stop-color="#C7C5C5"/>
<stop offset="1" stop-color="#343433"/>
</linearGradient>
<linearGradient id="paint1_linear_580_3100" x1="16.7348" y1="27.7592" x2="16.8854" y2="27.7592" gradientUnits="userSpaceOnUse">
<stop offset="0.0051"/>
<stop offset="1" stop-opacity="0"/>
</linearGradient>
<linearGradient id="paint2_linear_580_3100" x1="17.115" y1="24.2837" x2="17.115" y2="24.8129" gradientUnits="userSpaceOnUse">
<stop offset="0.0051"/>
<stop offset="1" stop-opacity="0"/>
</linearGradient>
<linearGradient id="paint3_linear_580_3100" x1="14.8123" y1="39.6188" x2="14.2969" y2="39.6416" gradientUnits="userSpaceOnUse">
<stop stop-color="#C7C5C5"/>
<stop offset="0.0359" stop-color="#676767"/>
<stop offset="0.1123" stop-color="white"/>
<stop offset="0.3019" stop-color="#929292"/>
<stop offset="0.492" stop-color="white"/>
<stop offset="0.6809" stop-color="#676767"/>
<stop offset="0.7701" stop-color="#929292"/>
<stop offset="0.8233" stop-color="#C7C5C5"/>
<stop offset="1" stop-color="#343433"/>
</linearGradient>
<linearGradient id="paint4_linear_580_3100" x1="13.4362" y1="39.6189" x2="13.9485" y2="39.6415" gradientUnits="userSpaceOnUse">
<stop stop-color="#C7C5C5"/>
<stop offset="0.0359" stop-color="#676767"/>
<stop offset="0.1123" stop-color="white"/>
<stop offset="0.3019" stop-color="#929292"/>
<stop offset="0.492" stop-color="white"/>
<stop offset="0.6809" stop-color="#676767"/>
<stop offset="0.7701" stop-color="#929292"/>
<stop offset="0.8233" stop-color="#C7C5C5"/>
<stop offset="1" stop-color="#343433"/>
</linearGradient>
<linearGradient id="paint5_linear_580_3100" x1="14.9227" y1="39.4778" x2="12.4306" y2="39.4778" gradientUnits="userSpaceOnUse">
<stop stop-color="#C7C5C5"/>
<stop offset="0.0359" stop-color="#676767"/>
<stop offset="0.1123" stop-color="white"/>
<stop offset="0.3019" stop-color="#929292"/>
<stop offset="0.492" stop-color="white"/>
<stop offset="0.6257" stop-color="#676767"/>
<stop offset="0.7701" stop-color="#929292"/>
<stop offset="0.8233" stop-color="#C7C5C5"/>
<stop offset="1" stop-color="#343433"/>
</linearGradient>
<linearGradient id="paint6_linear_580_3100" x1="4.55293" y1="39.6188" x2="4.03753" y2="39.6416" gradientUnits="userSpaceOnUse">
<stop stop-color="#C7C5C5"/>
<stop offset="0.0359" stop-color="#676767"/>
<stop offset="0.1123" stop-color="white"/>
<stop offset="0.3019" stop-color="#929292"/>
<stop offset="0.492" stop-color="white"/>
<stop offset="0.6809" stop-color="#676767"/>
<stop offset="0.7701" stop-color="#929292"/>
<stop offset="0.8233" stop-color="#C7C5C5"/>
<stop offset="1" stop-color="#343433"/>
</linearGradient>
<linearGradient id="paint7_linear_580_3100" x1="3.17686" y1="39.6189" x2="3.6892" y2="39.6415" gradientUnits="userSpaceOnUse">
<stop stop-color="#C7C5C5"/>
<stop offset="0.0359" stop-color="#676767"/>
<stop offset="0.1123" stop-color="white"/>
<stop offset="0.3019" stop-color="#929292"/>
<stop offset="0.492" stop-color="white"/>
<stop offset="0.6809" stop-color="#676767"/>
<stop offset="0.7701" stop-color="#929292"/>
<stop offset="0.8233" stop-color="#C7C5C5"/>
<stop offset="1" stop-color="#343433"/>
</linearGradient>
<linearGradient id="paint8_linear_580_3100" x1="4.66339" y1="39.4778" x2="2.17125" y2="39.4778" gradientUnits="userSpaceOnUse">
<stop stop-color="#C7C5C5"/>
<stop offset="0.0359" stop-color="#676767"/>
<stop offset="0.1123" stop-color="white"/>
<stop offset="0.3019" stop-color="#929292"/>
<stop offset="0.492" stop-color="white"/>
<stop offset="0.6257" stop-color="#676767"/>
<stop offset="0.7701" stop-color="#929292"/>
<stop offset="0.8233" stop-color="#C7C5C5"/>
<stop offset="1" stop-color="#343433"/>
</linearGradient>
<linearGradient id="paint9_linear_580_3100" x1="17.6811" y1="38.3754" x2="-7.33289" y2="38.2549" gradientUnits="userSpaceOnUse">
<stop stop-color="#C7C5C5"/>
<stop offset="0.0359" stop-color="#676767"/>
<stop offset="0.1123" stop-color="white"/>
<stop offset="0.3019" stop-color="#929292"/>
<stop offset="0.492" stop-color="white"/>
<stop offset="0.6257" stop-color="#676767"/>
<stop offset="0.7701" stop-color="#929292"/>
<stop offset="0.8233" stop-color="#C7C5C5"/>
<stop offset="1" stop-color="#343433"/>
</linearGradient>
<linearGradient id="paint10_linear_580_3100" x1="17.6811" y1="38.3754" x2="-7.33289" y2="38.2549" gradientUnits="userSpaceOnUse">
<stop stop-color="#C7C5C5"/>
<stop offset="0.0359" stop-color="#676767"/>
<stop offset="0.1123" stop-color="white"/>
<stop offset="0.3019" stop-color="#929292"/>
<stop offset="0.492" stop-color="white"/>
<stop offset="0.6257" stop-color="#676767"/>
<stop offset="0.7701" stop-color="#929292"/>
<stop offset="0.8233" stop-color="#C7C5C5"/>
<stop offset="1" stop-color="#343433"/>
</linearGradient>
<radialGradient id="paint11_radial_580_3100" cx="0" cy="0" r="1" gradientUnits="userSpaceOnUse" gradientTransform="translate(18.668 32.2001) rotate(-180) scale(18.0444 18.0446)">
<stop offset="0.0102"/>
<stop offset="1" stop-opacity="0"/>
</radialGradient>
<linearGradient id="paint12_linear_580_3100" x1="16.2989" y1="31.6646" x2="1.68762" y2="31.6646" gradientUnits="userSpaceOnUse">
<stop offset="0.3386" stop-color="white" stop-opacity="0"/>
<stop offset="0.6521" stop-color="white"/>
</linearGradient>
<linearGradient id="paint13_linear_580_3100" x1="12.8001" y1="33.6209" x2="13.2988" y2="33.6582" gradientUnits="userSpaceOnUse">
<stop offset="0.0051"/>
<stop offset="1" stop-opacity="0"/>
</linearGradient>
<linearGradient id="paint14_linear_580_3100" x1="5.1932" y1="33.6209" x2="4.69449" y2="33.6582" gradientUnits="userSpaceOnUse">
<stop offset="0.0051" stop-color="#999999"/>
<stop offset="1" stop-color="#999999" stop-opacity="0"/>
</linearGradient>
<linearGradient id="paint15_linear_580_3100" x1="8.99266" y1="33.9862" x2="8.99266" y2="33.5562" gradientUnits="userSpaceOnUse">
<stop offset="0.0051"/>
<stop offset="1" stop-opacity="0"/>
</linearGradient>
<radialGradient id="paint16_radial_580_3100" cx="0" cy="0" r="1" gradientUnits="userSpaceOnUse" gradientTransform="translate(15.8243 31.0077) rotate(-180) scale(11.9321 11.9322)">
<stop stop-color="white" stop-opacity="0"/>
<stop offset="1" stop-color="white"/>
</radialGradient>
<radialGradient id="paint17_radial_580_3100" cx="0" cy="0" r="1" gradientUnits="userSpaceOnUse" gradientTransform="translate(14.4519 30.3268) rotate(-180) scale(11.4863 11.4864)">
<stop offset="0.0102"/>
<stop offset="1" stop-opacity="0"/>
</radialGradient>
<linearGradient id="paint18_linear_580_3100" x1="16.4544" y1="28.7281" x2="16.3959" y2="28.7281" gradientUnits="userSpaceOnUse">
<stop offset="0.0051"/>
<stop offset="1" stop-opacity="0"/>
</linearGradient>
<linearGradient id="paint19_linear_580_3100" x1="16.3368" y1="28.6221" x2="16.0959" y2="28.6221" gradientUnits="userSpaceOnUse">
<stop stop-color="white"/>
<stop offset="1" stop-color="white" stop-opacity="0"/>
</linearGradient>
<linearGradient id="paint20_linear_580_3100" x1="15.9353" y1="28.6221" x2="15.61" y2="28.6221" gradientUnits="userSpaceOnUse">
<stop stop-opacity="0"/>
<stop offset="0.9898"/>
</linearGradient>
<linearGradient id="paint21_linear_580_3100" x1="1.4911" y1="28.7291" x2="1.54955" y2="28.7291" gradientUnits="userSpaceOnUse">
<stop offset="0.0051"/>
<stop offset="1" stop-opacity="0"/>
</linearGradient>
<linearGradient id="paint22_linear_580_3100" x1="1.60867" y1="28.6231" x2="1.84962" y2="28.6231" gradientUnits="userSpaceOnUse">
<stop stop-color="white"/>
<stop offset="1" stop-color="white" stop-opacity="0"/>
</linearGradient>
<linearGradient id="paint23_linear_580_3100" x1="2.0102" y1="28.6231" x2="2.33554" y2="28.6231" gradientUnits="userSpaceOnUse">
<stop stop-opacity="0"/>
<stop offset="0.9898"/>
</linearGradient>
<linearGradient id="paint24_linear_580_3100" x1="17.2014" y1="31.8451" x2="17.1562" y2="31.7208" gradientUnits="userSpaceOnUse">
<stop stop-color="white"/>
<stop offset="1" stop-color="white" stop-opacity="0"/>
</linearGradient>
<linearGradient id="paint25_linear_580_3100" x1="16.7474" y1="31.6635" x2="17.5611" y2="31.2076" gradientUnits="userSpaceOnUse">
<stop offset="0.0051"/>
<stop offset="1" stop-opacity="0"/>
</linearGradient>
<linearGradient id="paint26_linear_580_3100" x1="0.729141" y1="31.8451" x2="0.774359" y2="31.7208" gradientUnits="userSpaceOnUse">
<stop stop-color="white"/>
<stop offset="1" stop-color="white" stop-opacity="0"/>
</linearGradient>
<linearGradient id="paint27_linear_580_3100" x1="1.18314" y1="31.6635" x2="0.369423" y2="31.2076" gradientUnits="userSpaceOnUse">
<stop offset="0.0051"/>
<stop offset="1" stop-opacity="0"/>
</linearGradient>
<linearGradient id="paint28_linear_580_3100" x1="9.07397" y1="25.1192" x2="9.07397" y2="25.4964" gradientUnits="userSpaceOnUse">
<stop stop-opacity="0"/>
<stop offset="0.9898"/>
</linearGradient>
<radialGradient id="paint29_radial_580_3100" cx="0" cy="0" r="1" gradientUnits="userSpaceOnUse" gradientTransform="translate(8.9933 26.1122) rotate(-180) scale(3.41311 3.41313)">
<stop stop-color="white" stop-opacity="0"/>
<stop offset="1" stop-color="white"/>
</radialGradient>
<linearGradient id="paint30_linear_580_3100" x1="8.9933" y1="25.7061" x2="8.9933" y2="25.3969" gradientUnits="userSpaceOnUse">
<stop stop-opacity="0"/>
<stop offset="0.9898"/>
</linearGradient>
<linearGradient id="paint31_linear_580_3100" x1="13.5728" y1="26.4145" x2="4.4138" y2="26.4145" gradientUnits="userSpaceOnUse">
<stop stop-color="white" stop-opacity="0"/>
<stop offset="1" stop-color="white"/>
</linearGradient>
<linearGradient id="paint32_linear_580_3100" x1="7.4794" y1="25.8104" x2="13.1011" y2="25.8104" gradientUnits="userSpaceOnUse">
<stop stop-color="white" stop-opacity="0"/>
<stop offset="1" stop-color="white"/>
</linearGradient>
<radialGradient id="paint33_radial_580_3100" cx="0" cy="0" r="1" gradientUnits="userSpaceOnUse" gradientTransform="translate(1.14801 22.6763) rotate(-180) scale(21.8 21.8002)">
<stop stop-color="white" stop-opacity="0"/>
<stop offset="1" stop-color="white"/>
</radialGradient>
<linearGradient id="paint34_linear_580_3100" x1="14.9378" y1="0.354349" x2="16.8515" y2="0.0680537" gradientUnits="userSpaceOnUse">
<stop stop-color="white" stop-opacity="0"/>
<stop offset="1" stop-color="white"/>
</linearGradient>
<linearGradient id="paint35_linear_580_3100" x1="15.7193" y1="0.314278" x2="15.7193" y2="0.211531" gradientUnits="userSpaceOnUse">
<stop stop-color="white" stop-opacity="0"/>
<stop offset="1" stop-color="white"/>
</linearGradient>
<linearGradient id="paint36_linear_580_3100" x1="1.75714" y1="0.355326" x2="3.67087" y2="0.0690322" gradientUnits="userSpaceOnUse">
<stop stop-color="white" stop-opacity="0"/>
<stop offset="1" stop-color="white"/>
</linearGradient>
<linearGradient id="paint37_linear_580_3100" x1="2.53918" y1="0.314278" x2="2.53918" y2="0.211531" gradientUnits="userSpaceOnUse">
<stop stop-color="white" stop-opacity="0"/>
<stop offset="1" stop-color="white"/>
</linearGradient>
<linearGradient id="paint38_linear_580_3100" x1="9.1783" y1="0.254315" x2="9.1783" y2="0.39504" gradientUnits="userSpaceOnUse">
<stop stop-opacity="0"/>
<stop offset="0.9898"/>
</linearGradient>
<linearGradient id="paint39_linear_580_3100" x1="0.744078" y1="23.2321" x2="1.06555" y2="40.2598" gradientUnits="userSpaceOnUse">
<stop stop-color="#C7C5C5"/>
<stop offset="0.0359" stop-color="#676767"/>
<stop offset="0.1123" stop-color="white"/>
<stop offset="0.3019" stop-color="#929292"/>
<stop offset="0.492" stop-color="white"/>
<stop offset="0.6257" stop-color="#676767"/>
<stop offset="0.7701" stop-color="#929292"/>
<stop offset="0.8233" stop-color="#C7C5C5"/>
<stop offset="1" stop-color="#343433"/>
</linearGradient>
<linearGradient id="paint40_linear_580_3100" x1="1.20099" y1="27.7592" x2="1.0503" y2="27.7592" gradientUnits="userSpaceOnUse">
<stop offset="0.0051"/>
<stop offset="1" stop-opacity="0"/>
</linearGradient>
<linearGradient id="paint41_linear_580_3100" x1="0.820773" y1="24.2837" x2="0.820773" y2="24.8129" gradientUnits="userSpaceOnUse">
<stop offset="0.0051"/>
<stop offset="1" stop-opacity="0"/>
</linearGradient>
</defs>
</svg>
