<svg width="52" height="52" viewBox="0 0 52 52" fill="none" xmlns="http://www.w3.org/2000/svg">
<circle opacity="0.5" cx="25.9375" cy="26.0625" r="25.5" transform="rotate(-180 25.9375 26.0625)" fill="#FF8282"/>
<path d="M17.4307 21.7437L17.4307 15.834C17.4307 15.6595 17.5 15.4923 17.6232 15.3689L18.1995 14.7927L18.1995 21.7437L17.4307 21.7437Z" fill="#CCCCCC"/>
<path d="M17.5513 21.6226L18.0792 21.6226L18.0792 15.083L17.7086 15.4535C17.6072 15.5549 17.5513 15.6898 17.5513 15.8333L17.5513 21.6226Z" fill="url(#paint0_linear_652_1194)"/>
<path opacity="0.5" d="M17.4307 21.7437L17.4307 15.834C17.4307 15.6595 17.5 15.4923 17.6232 15.3689L18.1995 14.7927L18.1995 21.7437L17.4307 21.7437Z" fill="url(#paint1_linear_652_1194)"/>
<path opacity="0.4" d="M17.4307 21.7437L17.4307 15.834C17.4307 15.6595 17.5 15.4923 17.6232 15.3689L18.1995 14.7927L18.1995 21.7437L17.4307 21.7437Z" fill="url(#paint2_linear_652_1194)"/>
<mask id="mask0_652_1194" style="mask-type:luminance" maskUnits="userSpaceOnUse" x="17" y="15" width="2" height="7">
<path d="M17.5518 21.6226L18.0797 21.6226L18.0797 15.083L17.7091 15.4535C17.6077 15.5549 17.5518 15.6898 17.5518 15.8333L17.5518 21.6226Z" fill="white"/>
</mask>
<g mask="url(#mask0_652_1194)">
<path d="M17.9596 21.5718C17.9139 21.5462 17.8677 21.5417 17.8677 21.5417C17.8677 21.5417 17.8956 21.5787 17.9413 21.6042C17.9871 21.6298 18.0333 21.6343 18.0333 21.6343C18.0333 21.6343 18.0053 21.5973 17.9596 21.5718Z" fill="#999999"/>
<path d="M17.5978 21.3633C17.5521 21.3377 17.5059 21.3332 17.5059 21.3332C17.5059 21.3332 17.5338 21.3702 17.5795 21.3957C17.6252 21.4213 17.6714 21.4258 17.6714 21.4258C17.6714 21.4258 17.6435 21.3888 17.5978 21.3633Z" fill="#999999"/>
<path d="M17.7847 21.4916C17.8102 21.4459 17.8147 21.3998 17.8147 21.3998C17.8147 21.3998 17.7777 21.4278 17.7522 21.4735C17.7267 21.5192 17.7222 21.5654 17.7222 21.5654C17.7222 21.5654 17.7592 21.5373 17.7847 21.4916Z" fill="#999999"/>
<path d="M18.0122 21.3638C18.0377 21.3181 18.0423 21.2719 18.0423 21.2719C18.0423 21.2719 18.0053 21.2999 17.9798 21.3456C17.9542 21.3913 17.9497 21.4375 17.9497 21.4375C17.9497 21.4375 17.9867 21.4096 18.0122 21.3638Z" fill="#999999"/>
<path d="M17.6504 21.1557C17.6759 21.1099 17.6803 21.0639 17.6803 21.0639C17.6803 21.0639 17.6433 21.0919 17.6178 21.1376C17.5923 21.1833 17.5879 21.2295 17.5879 21.2295C17.5879 21.2295 17.6249 21.2014 17.6504 21.1557Z" fill="#999999"/>
<path d="M17.8051 21.2663C17.8508 21.2919 17.897 21.2964 17.897 21.2964C17.897 21.2964 17.8691 21.2594 17.8234 21.2339C17.7776 21.2083 17.7314 21.2038 17.7314 21.2038C17.7314 21.2038 17.7594 21.2408 17.8051 21.2663Z" fill="#999999"/>
<path d="M18.082 21.0849C18.0363 21.0594 17.9902 21.0551 17.9902 21.0551C17.9902 21.0551 18.0182 21.092 18.0639 21.1176C18.1096 21.1431 18.1557 21.1475 18.1557 21.1475C18.1557 21.1475 18.1277 21.1105 18.082 21.0849Z" fill="#999999"/>
<path d="M17.7203 20.8769C17.6746 20.8514 17.6284 20.847 17.6284 20.847C17.6284 20.847 17.6564 20.884 17.7021 20.9096C17.7478 20.9351 17.794 20.9395 17.794 20.9395C17.794 20.9395 17.7661 20.9025 17.7203 20.8769Z" fill="#999999"/>
<path d="M17.9077 21.0051C17.9333 20.9594 17.9378 20.9132 17.9378 20.9132C17.9378 20.9132 17.9008 20.9411 17.8753 20.9869C17.8497 21.0326 17.8452 21.0786 17.8452 21.0786C17.8452 21.0786 17.8822 21.0508 17.9077 21.0051Z" fill="#999999"/>
<path d="M18.1345 20.877C18.16 20.8313 18.1643 20.7851 18.1643 20.7851C18.1643 20.7851 18.1273 20.813 18.1018 20.8588C18.0763 20.9045 18.0718 20.9507 18.0718 20.9507C18.0718 20.9507 18.1089 20.9227 18.1345 20.877Z" fill="#999999"/>
<path d="M17.772 20.6692C17.7975 20.6234 17.8019 20.5772 17.8019 20.5772C17.8019 20.5772 17.7649 20.6052 17.7394 20.6509C17.7138 20.6966 17.7095 20.7427 17.7095 20.7427C17.7095 20.7427 17.7465 20.7149 17.772 20.6692Z" fill="#999999"/>
<path d="M17.927 20.7787C17.9727 20.8042 18.0189 20.8086 18.0189 20.8086C18.0189 20.8086 17.991 20.7716 17.9453 20.7461C17.8996 20.7206 17.8535 20.7162 17.8535 20.7162C17.8535 20.7162 17.8813 20.7532 17.927 20.7787Z" fill="#999999"/>
<path d="M17.5776 20.593C17.6233 20.6185 17.6695 20.623 17.6695 20.623C17.6695 20.623 17.6415 20.586 17.5958 20.5605C17.5501 20.535 17.5039 20.5305 17.5039 20.5305C17.5039 20.5305 17.5319 20.5675 17.5776 20.593Z" fill="#999999"/>
<path d="M18.0454 20.5526C18.071 20.5069 18.0753 20.4609 18.0753 20.4609C18.0753 20.4609 18.0383 20.4888 18.0128 20.5345C17.9873 20.5803 17.9829 20.6265 17.9829 20.6265C17.9829 20.6265 18.0199 20.5984 18.0454 20.5526Z" fill="#999999"/>
<path d="M17.6836 20.3448C17.7091 20.2991 17.7135 20.2529 17.7135 20.2529C17.7135 20.2529 17.6765 20.2808 17.651 20.3265C17.6255 20.3723 17.6211 20.4185 17.6211 20.4185C17.6211 20.4185 17.6581 20.3905 17.6836 20.3448Z" fill="#999999"/>
<path d="M17.8388 20.455C17.8845 20.4805 17.9307 20.4849 17.9307 20.4849C17.9307 20.4849 17.9028 20.4479 17.8571 20.4223C17.8113 20.3968 17.7651 20.3925 17.7651 20.3925C17.7651 20.3925 17.7931 20.4295 17.8388 20.455Z" fill="#999999"/>
<path d="M18.1154 20.2726C18.0696 20.2471 18.0234 20.2426 18.0234 20.2426C18.0234 20.2426 18.0514 20.2795 18.0971 20.3051C18.1428 20.3306 18.189 20.335 18.189 20.335C18.189 20.335 18.1611 20.2981 18.1154 20.2726Z" fill="#999999"/>
<path d="M17.7535 20.0649C17.7078 20.0394 17.6616 20.0349 17.6616 20.0349C17.6616 20.0349 17.6896 20.0719 17.7353 20.0974C17.781 20.1229 17.8272 20.1274 17.8272 20.1274C17.8272 20.1274 17.7993 20.0904 17.7535 20.0649Z" fill="#999999"/>
<path d="M17.9405 20.1929C17.966 20.1472 17.9705 20.101 17.9705 20.101C17.9705 20.101 17.9335 20.129 17.908 20.1747C17.8825 20.2204 17.8779 20.2666 17.8779 20.2666C17.8779 20.2666 17.9149 20.2387 17.9405 20.1929Z" fill="#999999"/>
<path d="M17.8052 19.8575C17.8307 19.8118 17.8351 19.7656 17.8351 19.7656C17.8351 19.7656 17.7981 19.7935 17.7726 19.8392C17.747 19.8849 17.7427 19.9312 17.7427 19.9312C17.7427 19.9312 17.7797 19.9032 17.8052 19.8575Z" fill="#999999"/>
<path d="M17.9599 19.9675C18.0056 19.993 18.0518 19.9976 18.0518 19.9976C18.0518 19.9976 18.0239 19.9606 17.9782 19.935C17.9324 19.9095 17.8862 19.905 17.8862 19.905C17.8862 19.905 17.9142 19.942 17.9599 19.9675Z" fill="#999999"/>
<path d="M17.6113 19.782C17.657 19.8075 17.7032 19.812 17.7032 19.812C17.7032 19.812 17.6752 19.775 17.6295 19.7495C17.5838 19.724 17.5376 19.7196 17.5376 19.7196C17.5376 19.7196 17.5655 19.7564 17.6113 19.782Z" fill="#999999"/>
<path d="M18.0459 19.7379C18.0714 19.6921 18.0758 19.6459 18.0758 19.6459C18.0758 19.6459 18.0388 19.6739 18.0133 19.7196C17.9878 19.7653 17.9834 19.8115 17.9834 19.8115C17.9834 19.8115 18.0204 19.7836 18.0459 19.7379Z" fill="#999999"/>
<path d="M17.6841 19.5297C17.7096 19.484 17.714 19.4379 17.714 19.4379C17.714 19.4379 17.677 19.4659 17.6515 19.5116C17.6259 19.5573 17.6216 19.6035 17.6216 19.6035C17.6216 19.6035 17.6586 19.5754 17.6841 19.5297Z" fill="#999999"/>
<path d="M17.8393 19.6395C17.885 19.6651 17.9312 19.6694 17.9312 19.6694C17.9312 19.6694 17.9033 19.6324 17.8575 19.6069C17.8118 19.5814 17.7656 19.577 17.7656 19.577C17.7656 19.577 17.7936 19.614 17.8393 19.6395Z" fill="#999999"/>
<path d="M18.1158 19.4583C18.0701 19.4328 18.0239 19.4284 18.0239 19.4284C18.0239 19.4284 18.0519 19.4654 18.0976 19.4909C18.1433 19.5165 18.1895 19.521 18.1895 19.521C18.1895 19.521 18.1616 19.4838 18.1158 19.4583Z" fill="#999999"/>
<path d="M17.754 19.2495C17.7083 19.224 17.6621 19.2194 17.6621 19.2194C17.6621 19.2194 17.6901 19.2564 17.7358 19.282C17.7815 19.3075 17.8277 19.312 17.8277 19.312C17.8277 19.312 17.7997 19.275 17.754 19.2495Z" fill="#999999"/>
<path d="M17.9409 19.3775C17.9665 19.3318 17.971 19.2856 17.971 19.2856C17.971 19.2856 17.934 19.3135 17.9085 19.3593C17.8829 19.405 17.8784 19.4512 17.8784 19.4512C17.8784 19.4512 17.9154 19.4232 17.9409 19.3775Z" fill="#999999"/>
<path d="M17.8057 19.0427C17.8312 18.997 17.8356 18.9508 17.8356 18.9508C17.8356 18.9508 17.7986 18.9787 17.7731 19.0245C17.7475 19.0702 17.7432 19.1162 17.7432 19.1162C17.7432 19.1162 17.7802 19.0884 17.8057 19.0427Z" fill="#999999"/>
<path d="M17.9604 19.1526C18.0061 19.1781 18.0523 19.1826 18.0523 19.1826C18.0523 19.1826 18.0244 19.1456 17.9786 19.1201C17.9329 19.0946 17.8867 19.09 17.8867 19.09C17.8867 19.09 17.9147 19.127 17.9604 19.1526Z" fill="#999999"/>
<path d="M17.6118 18.9667C17.6575 18.9922 17.7037 18.9966 17.7037 18.9966C17.7037 18.9966 17.6757 18.9596 17.63 18.9341C17.5843 18.9085 17.5381 18.9042 17.5381 18.9042C17.5381 18.9042 17.566 18.9412 17.6118 18.9667Z" fill="#999999"/>
<path d="M18.0454 18.9231C18.071 18.8774 18.0753 18.8312 18.0753 18.8312C18.0753 18.8312 18.0383 18.8591 18.0128 18.9048C17.9873 18.9505 17.9829 18.9966 17.9829 18.9966C17.9829 18.9966 18.0199 18.9688 18.0454 18.9231Z" fill="#999999"/>
<path d="M17.6836 18.7149C17.7091 18.6692 17.7135 18.623 17.7135 18.623C17.7135 18.623 17.6765 18.6509 17.651 18.6967C17.6255 18.7424 17.6211 18.7886 17.6211 18.7886C17.6211 18.7886 17.6581 18.7606 17.6836 18.7149Z" fill="#999999"/>
<path d="M17.8388 18.8249C17.8845 18.8505 17.9307 18.855 17.9307 18.855C17.9307 18.855 17.9028 18.818 17.8571 18.7925C17.8113 18.7669 17.7651 18.7626 17.7651 18.7626C17.7651 18.7626 17.7931 18.7994 17.8388 18.8249Z" fill="#999999"/>
<path d="M18.1154 18.644C18.0696 18.6185 18.0234 18.6141 18.0234 18.6141C18.0234 18.6141 18.0514 18.6511 18.0971 18.6767C18.1428 18.7022 18.189 18.7065 18.189 18.7065C18.189 18.7065 18.1611 18.6695 18.1154 18.644Z" fill="#999999"/>
<path d="M17.7535 18.4359C17.7078 18.4103 17.6616 18.406 17.6616 18.406C17.6616 18.406 17.6896 18.443 17.7353 18.4685C17.781 18.494 17.8272 18.4985 17.8272 18.4985C17.8272 18.4985 17.7993 18.4614 17.7535 18.4359Z" fill="#999999"/>
<path d="M17.9405 18.5644C17.966 18.5186 17.9705 18.4726 17.9705 18.4726C17.9705 18.4726 17.9335 18.5005 17.908 18.5463C17.8825 18.592 17.8779 18.6382 17.8779 18.6382C17.8779 18.6382 17.9149 18.6101 17.9405 18.5644Z" fill="#999999"/>
<path d="M17.8052 18.2281C17.8307 18.1824 17.8351 18.1362 17.8351 18.1362C17.8351 18.1362 17.7981 18.1641 17.7726 18.2098C17.747 18.2556 17.7427 18.3018 17.7427 18.3018C17.7427 18.3018 17.7797 18.2738 17.8052 18.2281Z" fill="#999999"/>
<path d="M17.9599 18.3391C18.0056 18.3646 18.0518 18.3691 18.0518 18.3691C18.0518 18.3691 18.0239 18.3321 17.9782 18.3066C17.9324 18.2811 17.8862 18.2766 17.8862 18.2766C17.8862 18.2766 17.9142 18.3136 17.9599 18.3391Z" fill="#999999"/>
<path d="M17.6113 18.1537C17.657 18.1792 17.7032 18.1836 17.7032 18.1836C17.7032 18.1836 17.6752 18.1466 17.6295 18.1211C17.5838 18.0956 17.5376 18.0912 17.5376 18.0912C17.5376 18.0912 17.5655 18.128 17.6113 18.1537Z" fill="#999999"/>
<path d="M18.0459 18.1094C18.0714 18.0637 18.0758 18.0175 18.0758 18.0175C18.0758 18.0175 18.0388 18.0455 18.0133 18.0912C17.9878 18.1369 17.9834 18.1831 17.9834 18.1831C17.9834 18.1831 18.0204 18.1552 18.0459 18.1094Z" fill="#999999"/>
<path d="M17.6841 17.9016C17.7096 17.8559 17.714 17.8097 17.714 17.8097C17.714 17.8097 17.677 17.8376 17.6515 17.8833C17.6259 17.9291 17.6216 17.9751 17.6216 17.9751C17.6216 17.9751 17.6586 17.9473 17.6841 17.9016Z" fill="#999999"/>
<path d="M17.8393 18.0115C17.885 18.037 17.9312 18.0415 17.9312 18.0415C17.9312 18.0415 17.9033 18.0045 17.8575 17.979C17.8118 17.9535 17.7656 17.9491 17.7656 17.9491C17.7656 17.9491 17.7936 17.9859 17.8393 18.0115Z" fill="#999999"/>
<path d="M18.1158 17.8296C18.0701 17.804 18.0239 17.7997 18.0239 17.7997C18.0239 17.7997 18.0519 17.8367 18.0976 17.8622C18.1433 17.8877 18.1895 17.8921 18.1895 17.8921C18.1895 17.8921 18.1616 17.8551 18.1158 17.8296Z" fill="#999999"/>
<path d="M17.754 17.6216C17.7083 17.596 17.6621 17.5917 17.6621 17.5917C17.6621 17.5917 17.6901 17.6287 17.7358 17.6542C17.7815 17.6797 17.8277 17.6841 17.8277 17.6841C17.8277 17.6841 17.7997 17.6471 17.754 17.6216Z" fill="#999999"/>
<path d="M17.9409 17.7496C17.9665 17.7039 17.971 17.6577 17.971 17.6577C17.971 17.6577 17.934 17.6856 17.9085 17.7313C17.8829 17.777 17.8784 17.8232 17.8784 17.8232C17.8784 17.8232 17.9154 17.7953 17.9409 17.7496Z" fill="#999999"/>
<path d="M17.8057 17.4132C17.8312 17.3674 17.8356 17.3212 17.8356 17.3212C17.8356 17.3212 17.7986 17.3492 17.7731 17.3949C17.7475 17.4406 17.7432 17.4868 17.7432 17.4868C17.7432 17.4868 17.7802 17.4589 17.8057 17.4132Z" fill="#999999"/>
<path d="M17.9604 17.5243C18.0061 17.5498 18.0523 17.5542 18.0523 17.5542C18.0523 17.5542 18.0244 17.5172 17.9786 17.4917C17.9329 17.4662 17.8867 17.4618 17.8867 17.4618C17.8867 17.4618 17.9147 17.4988 17.9604 17.5243Z" fill="#999999"/>
<path d="M17.6118 17.3378C17.6575 17.3633 17.7037 17.3677 17.7037 17.3677C17.7037 17.3677 17.6757 17.3307 17.63 17.3052C17.5843 17.2796 17.5381 17.2753 17.5381 17.2753C17.5381 17.2753 17.566 17.3121 17.6118 17.3378Z" fill="#999999"/>
<path d="M18.0459 17.294C18.0714 17.2483 18.0758 17.2021 18.0758 17.2021C18.0758 17.2021 18.0388 17.23 18.0133 17.2758C17.9878 17.3215 17.9834 17.3677 17.9834 17.3677C17.9834 17.3677 18.0204 17.3397 18.0459 17.294Z" fill="#999999"/>
<path d="M17.6841 17.086C17.7096 17.0403 17.714 16.9941 17.714 16.9941C17.714 16.9941 17.677 17.022 17.6515 17.0677C17.6259 17.1135 17.6216 17.1597 17.6216 17.1597C17.6216 17.1597 17.6586 17.1317 17.6841 17.086Z" fill="#999999"/>
<path d="M17.8393 17.196C17.885 17.2216 17.9312 17.2261 17.9312 17.2261C17.9312 17.2261 17.9033 17.1891 17.8575 17.1636C17.8118 17.138 17.7656 17.1335 17.7656 17.1335C17.7656 17.1335 17.7936 17.1705 17.8393 17.196Z" fill="#999999"/>
<path d="M18.1158 17.0148C18.0701 16.9893 18.0239 16.9847 18.0239 16.9847C18.0239 16.9847 18.0519 17.0217 18.0976 17.0473C18.1433 17.0728 18.1895 17.0771 18.1895 17.0771C18.1895 17.0771 18.1616 17.0403 18.1158 17.0148Z" fill="#999999"/>
<path d="M17.754 16.8071C17.7083 16.7816 17.6621 16.7772 17.6621 16.7772C17.6621 16.7772 17.6901 16.8142 17.7358 16.8397C17.7815 16.8653 17.8277 16.8696 17.8277 16.8696C17.8277 16.8696 17.7997 16.8326 17.754 16.8071Z" fill="#999999"/>
<path d="M17.9409 16.9348C17.9665 16.8891 17.971 16.8429 17.971 16.8429C17.971 16.8429 17.934 16.8708 17.9085 16.9165C17.8829 16.9623 17.8784 17.0083 17.8784 17.0083C17.8784 17.0083 17.9154 16.9805 17.9409 16.9348Z" fill="#999999"/>
<path d="M17.8057 16.5992C17.8312 16.5535 17.8356 16.5073 17.8356 16.5073C17.8356 16.5073 17.7986 16.5352 17.7731 16.5809C17.7475 16.6266 17.7432 16.6729 17.7432 16.6729C17.7432 16.6729 17.7802 16.6449 17.8057 16.5992Z" fill="#999999"/>
<path d="M17.9599 16.7089C18.0056 16.7344 18.0518 16.7388 18.0518 16.7388C18.0518 16.7388 18.0239 16.7018 17.9782 16.6763C17.9324 16.6507 17.8862 16.6462 17.8862 16.6462C17.8862 16.6462 17.9142 16.6834 17.9599 16.7089Z" fill="#999999"/>
<path d="M17.6118 16.5242C17.6575 16.5497 17.7037 16.5542 17.7037 16.5542C17.7037 16.5542 17.6757 16.5172 17.63 16.4917C17.5843 16.4662 17.5381 16.4616 17.5381 16.4616C17.5381 16.4616 17.566 16.4986 17.6118 16.5242Z" fill="#999999"/>
<path d="M18.0454 16.4794C18.071 16.4337 18.0753 16.3876 18.0753 16.3876C18.0753 16.3876 18.0383 16.4156 18.0128 16.4613C17.9873 16.507 17.9829 16.5532 17.9829 16.5532C17.9829 16.5532 18.0199 16.5251 18.0454 16.4794Z" fill="#999999"/>
<path d="M17.6836 16.2711C17.7091 16.2253 17.7135 16.1791 17.7135 16.1791C17.7135 16.1791 17.6765 16.2071 17.651 16.2528C17.6255 16.2985 17.6211 16.3447 17.6211 16.3447C17.6211 16.3447 17.6581 16.3166 17.6836 16.2711Z" fill="#999999"/>
<path d="M17.8388 16.3821C17.8845 16.4076 17.9307 16.4121 17.9307 16.4121C17.9307 16.4121 17.9028 16.3751 17.8571 16.3496C17.8113 16.3241 17.7651 16.3197 17.7651 16.3197C17.7651 16.3197 17.7931 16.3565 17.8388 16.3821Z" fill="#999999"/>
<path d="M18.1154 16.2005C18.0696 16.175 18.0234 16.1706 18.0234 16.1706C18.0234 16.1706 18.0514 16.2076 18.0971 16.2331C18.1428 16.2587 18.189 16.2632 18.189 16.2632C18.189 16.2632 18.1611 16.226 18.1154 16.2005Z" fill="#999999"/>
<path d="M17.7535 15.9928C17.7078 15.9673 17.6616 15.9628 17.6616 15.9628C17.6616 15.9628 17.6896 15.9998 17.7353 16.0253C17.781 16.0508 17.8272 16.0552 17.8272 16.0552C17.8272 16.0552 17.7993 16.0183 17.7535 15.9928Z" fill="#999999"/>
<path d="M17.9405 16.1205C17.966 16.0748 17.9705 16.0287 17.9705 16.0287C17.9705 16.0287 17.9335 16.0567 17.908 16.1024C17.8825 16.1481 17.8779 16.1943 17.8779 16.1943C17.8779 16.1943 17.9149 16.1662 17.9405 16.1205Z" fill="#999999"/>
<path d="M17.8052 15.7855C17.8307 15.7398 17.8351 15.6938 17.8351 15.6938C17.8351 15.6938 17.7981 15.7217 17.7726 15.7675C17.747 15.8132 17.7427 15.8594 17.7427 15.8594C17.7427 15.8594 17.7797 15.8313 17.8052 15.7855Z" fill="#999999"/>
<path d="M17.9599 15.8949C18.0056 15.9204 18.0518 15.9248 18.0518 15.9248C18.0518 15.9248 18.0239 15.8878 17.9782 15.8623C17.9324 15.8368 17.8862 15.8324 17.8862 15.8324C17.8862 15.8324 17.9142 15.8694 17.9599 15.8949Z" fill="#999999"/>
<path d="M17.6113 15.7092C17.657 15.7347 17.7032 15.7393 17.7032 15.7393C17.7032 15.7393 17.6752 15.7023 17.6295 15.6767C17.5838 15.6512 17.5376 15.6467 17.5376 15.6467C17.5376 15.6467 17.5655 15.6837 17.6113 15.7092Z" fill="#999999"/>
<path d="M18.0464 15.6656C18.0719 15.6199 18.0763 15.5737 18.0763 15.5737C18.0763 15.5737 18.0393 15.6016 18.0138 15.6473C17.9882 15.6931 17.9839 15.7393 17.9839 15.7393C17.9839 15.7393 18.0209 15.7113 18.0464 15.6656Z" fill="#999999"/>
<path d="M17.6846 15.4581C17.7101 15.4123 17.7145 15.3661 17.7145 15.3661C17.7145 15.3661 17.6775 15.3941 17.652 15.4398C17.6264 15.4855 17.6221 15.5317 17.6221 15.5317C17.6221 15.5317 17.6591 15.5036 17.6846 15.4581Z" fill="#999999"/>
<path d="M17.8398 15.5673C17.8855 15.5928 17.9317 15.5972 17.9317 15.5972C17.9317 15.5972 17.9038 15.5602 17.858 15.5346C17.8123 15.5091 17.7661 15.5046 17.7661 15.5046C17.7661 15.5046 17.7941 15.5418 17.8398 15.5673Z" fill="#999999"/>
<path d="M18.1158 15.3857C18.0701 15.3602 18.0239 15.3557 18.0239 15.3557C18.0239 15.3557 18.0519 15.3927 18.0976 15.4182C18.1433 15.4437 18.1895 15.4482 18.1895 15.4482C18.1895 15.4482 18.1616 15.4112 18.1158 15.3857Z" fill="#999999"/>
<path d="M17.754 15.1777C17.7083 15.1522 17.6621 15.1477 17.6621 15.1477C17.6621 15.1477 17.6901 15.1847 17.7358 15.2102C17.7815 15.2357 17.8277 15.2402 17.8277 15.2402C17.8277 15.2402 17.7997 15.2032 17.754 15.1777Z" fill="#999999"/>
<path d="M17.9409 15.3057C17.9665 15.26 17.971 15.2138 17.971 15.2138C17.971 15.2138 17.934 15.2418 17.9085 15.2875C17.8829 15.3332 17.8784 15.3794 17.8784 15.3794C17.8784 15.3794 17.9154 15.3514 17.9409 15.3057Z" fill="#999999"/>
<path d="M17.9604 15.0803C18.0061 15.1058 18.0523 15.1104 18.0523 15.1104C18.0523 15.1104 18.0244 15.0734 17.9786 15.0478C17.9329 15.0223 17.8867 15.0178 17.8867 15.0178C17.8867 15.0178 17.9147 15.0548 17.9604 15.0803Z" fill="#999999"/>
</g>
<path d="M20.5737 6.49951L20.3206 6.49951C20.2926 6.49951 20.27 6.4769 20.27 6.44895L20.27 6.33893C20.27 6.31099 20.2926 6.28837 20.3206 6.28837L20.5737 6.28837C20.6017 6.28837 20.6243 6.31099 20.6243 6.33893L20.6243 6.44895C20.6241 6.4769 20.6015 6.49951 20.5737 6.49951Z" fill="url(#paint3_linear_652_1194)"/>
<path d="M21.065 6.49951L21.2684 6.49951C21.3101 6.49951 21.3437 6.46575 21.3437 6.42423L21.3437 6.36397C21.3437 6.32229 21.3099 6.28869 21.2684 6.28869L21.065 6.28869C21.0233 6.28869 20.9897 6.32246 20.9897 6.36397L20.9897 6.42423C20.9896 6.46575 21.0233 6.49951 21.065 6.49951Z" fill="url(#paint4_linear_652_1194)"/>
<path d="M20.9238 7.09912L20.7246 7.09847C20.6028 7.09799 20.5044 6.99895 20.5049 6.87715L20.5073 6.2198C20.5078 6.09799 20.6068 5.99961 20.7286 6.0001L20.9278 6.00074C21.0496 6.00123 21.148 6.10026 21.1475 6.22207L21.1451 6.87941C21.1446 7.00122 21.0456 7.0996 20.9238 7.09912Z" fill="url(#paint5_linear_652_1194)"/>
<path d="M30.833 6.49951L30.5799 6.49951C30.5521 6.49951 30.5293 6.4769 30.5293 6.44895L30.5293 6.33893C30.5293 6.31099 30.5519 6.28837 30.5799 6.28837L30.833 6.28837C30.861 6.28837 30.8836 6.31099 30.8836 6.33893L30.8836 6.44895C30.8836 6.4769 30.861 6.49951 30.833 6.49951Z" fill="url(#paint6_linear_652_1194)"/>
<path d="M31.3243 6.49951L31.5277 6.49951C31.5694 6.49951 31.603 6.46575 31.603 6.42423L31.603 6.36397C31.603 6.32229 31.5692 6.28869 31.5277 6.28869L31.3243 6.28869C31.2826 6.28869 31.249 6.32246 31.249 6.36397L31.249 6.42423C31.249 6.46575 31.2828 6.49951 31.3243 6.49951Z" fill="url(#paint7_linear_652_1194)"/>
<path d="M31.1831 7.09912L30.9839 7.09847C30.8621 7.09799 30.7637 6.99895 30.7642 6.87715L30.7666 6.2198C30.7671 6.09799 30.8661 5.99961 30.9879 6.0001L31.1871 6.00074C31.3089 6.00123 31.4073 6.10026 31.4068 6.22207L31.4044 6.87941C31.4041 7.00122 31.3049 7.0996 31.1831 7.09912Z" fill="url(#paint8_linear_652_1194)"/>
<path d="M33.7251 21.5024L18.1494 21.5024L18.1494 7.6058C18.1494 7.05928 18.5924 6.61648 19.1387 6.61648L32.7356 6.61648C33.2821 6.61648 33.7251 7.05944 33.7251 7.6058L33.7251 21.5024Z" fill="#E1E2DD"/>
<path d="M32.2484 6.61636L19.626 6.61636C18.8105 6.61636 18.1494 7.27742 18.1494 8.09292L18.1494 8.76416L33.7251 8.76416L33.7251 8.09292C33.7251 7.27742 33.0639 6.61636 32.2484 6.61636Z" fill="url(#paint9_linear_652_1194)"/>
<path d="M32.2484 6.61636L19.626 6.61636C18.8105 6.61636 18.1494 7.27742 18.1494 8.09292L18.1494 8.76416L33.7251 8.76416L33.7251 8.09292C33.7251 7.27742 33.0639 6.61636 32.2484 6.61636Z" fill="url(#paint10_linear_652_1194)"/>
<path opacity="0.2" d="M32.0366 6.9813L19.8373 6.9813C19.0491 6.9813 18.4102 7.64236 18.4102 8.45786L18.4102 8.76416L33.4635 8.76416L33.4635 8.45786C33.4637 7.64236 32.8248 6.9813 32.0366 6.9813Z" fill="black"/>
<path d="M18.6313 21.2051L18.6313 8.18678C18.6313 7.81877 18.9297 7.52039 19.2977 7.52039L32.5763 7.52039C32.9444 7.52039 33.2427 7.81877 33.2427 8.18678L33.2427 21.2051L18.6313 21.2051Z" fill="#F5F7EA"/>
<g opacity="0.1">
<path d="M18.6313 21.2051L18.6313 8.18678C18.6313 7.81877 18.9297 7.52039 19.2977 7.52039L32.5763 7.52039C32.9444 7.52039 33.2427 7.81877 33.2427 8.18678L33.2427 21.2051L18.6313 21.2051Z" fill="url(#paint11_radial_652_1194)"/>
</g>
<g opacity="0.5">
<path d="M18.6313 21.2051L18.6313 8.18678C18.6313 7.81877 18.9297 7.52039 19.2977 7.52039L32.5763 7.52039C32.9444 7.52039 33.2427 7.81877 33.2427 8.18678L33.2427 21.2051L18.6313 21.2051Z" fill="url(#paint12_linear_652_1194)"/>
</g>
<path opacity="0.3" d="M22.4759 7.52065L21.6253 7.52065L20.8906 17.2254L21.7412 17.2891L22.4759 7.52065Z" fill="url(#paint13_linear_652_1194)"/>
<path opacity="0.3" d="M29.3911 7.52065L30.2417 7.52065L30.9764 17.2254L30.1258 17.2891L29.3911 7.52065Z" fill="url(#paint14_linear_652_1194)"/>
<path d="M32.2481 7.09883L19.6257 7.09883C19.0774 7.09883 18.6313 7.54471 18.6313 8.09317L18.6313 8.51514C18.6313 7.96603 19.0766 7.52064 19.6257 7.52064L32.2481 7.52064C32.7973 7.52064 33.2426 7.96587 33.2426 8.51514L33.2426 8.09317C33.2426 7.54471 32.7965 7.09883 32.2481 7.09883Z" fill="#CCCCCC"/>
<path opacity="0.4" d="M29.3323 7.14648L22.4766 7.14648L22.4766 7.20157L29.3323 7.20157L29.3323 7.14648Z" fill="#666666"/>
<path opacity="0.4" d="M29.3323 7.24023L22.4766 7.24023L22.4766 7.29532L29.3323 7.29532L29.3323 7.24023Z" fill="#666666"/>
<path opacity="0.4" d="M29.3323 7.33398L22.4766 7.33398L22.4766 7.38907L29.3323 7.38907L29.3323 7.33398Z" fill="#666666"/>
<path opacity="0.4" d="M29.3323 7.42725L22.4766 7.42725L22.4766 7.48233L29.3323 7.48234L29.3323 7.42725Z" fill="#666666"/>
<path d="M19.6275 7.09835L19.6257 7.09835C19.0774 7.09835 18.6313 7.54422 18.6313 8.09268L18.6313 8.51465C18.6313 7.96554 19.0766 7.52015 19.6257 7.52015L19.6275 7.52015L19.6275 7.09835Z" fill="#FF6600"/>
<path d="M22.4376 7.52051L19.6255 7.52051L19.6255 7.09854L22.7164 7.09854L22.4376 7.52051Z" fill="#DCFFFE"/>
<path d="M19.6273 7.48291L22.4624 7.48291L22.5246 7.38889L19.6273 7.38889L19.6255 7.38889L19.6255 7.48291L19.6273 7.48291Z" fill="white"/>
<path opacity="0.4" d="M19.6257 7.38853C19.0774 7.38853 18.6313 7.83441 18.6313 8.38287L18.6313 8.47705C18.6313 7.92875 19.0774 7.48271 19.6257 7.48271L19.6275 7.48271L19.6275 7.38853L19.6257 7.38853Z" fill="white"/>
<path d="M18.6312 8.47705L18.5325 8.47705C18.5068 8.47705 18.4858 8.44474 18.4858 8.405L18.4858 8.1273C18.4858 8.08756 18.5067 8.05525 18.5325 8.05525L18.6312 8.05525L18.6312 8.47705Z" fill="#FF6600"/>
<path d="M32.2295 7.09835L32.2313 7.09835C32.7796 7.09835 33.2256 7.54422 33.2256 8.09268L33.2256 8.51465C33.2256 7.96554 32.7804 7.52015 32.2313 7.52015L32.2295 7.52015L32.2295 7.09835Z" fill="#FF6600"/>
<path d="M29.4188 7.52051L32.2309 7.52051L32.2309 7.09854L29.1401 7.09854L29.4188 7.52051Z" fill="#DCFFFE"/>
<path d="M32.2289 7.48291L29.3937 7.48291L29.3315 7.38889L32.2289 7.38889L32.2307 7.38889L32.2307 7.48291L32.2289 7.48291Z" fill="white"/>
<path opacity="0.4" d="M32.2313 7.38853C32.7796 7.38853 33.2256 7.83441 33.2256 8.38287L33.2256 8.47705C33.2256 7.92875 32.7796 7.48271 32.2313 7.48271L32.2295 7.48271L32.2295 7.38853L32.2313 7.38853Z" fill="white"/>
<path d="M33.2251 8.47705L33.3238 8.47705C33.3495 8.47705 33.3705 8.44474 33.3705 8.405L33.3705 8.1273C33.3705 8.08756 33.3497 8.05525 33.3238 8.05525L33.2251 8.05525L33.2251 8.47705Z" fill="#FF6600"/>
<path d="M19.9247 18.4323C21.4801 18.2043 28.3704 17.6615 31.7682 18.3836C32.1056 18.4554 32.4451 18.2798 32.5823 17.9635L33.1967 13.7682C33.3378 13.4425 33.1676 13.0671 32.8285 12.9619C31.0981 12.4249 25.9147 11.1937 19.0651 13.022C18.7215 13.1137 18.5389 13.49 18.6722 13.8197L19.1483 17.9854C19.2735 18.2956 19.5935 18.4807 19.9247 18.4323Z" fill="#F4F4F4"/>
<path opacity="0.5" d="M19.9247 18.4323C21.4801 18.2043 28.3704 17.6615 31.7682 18.3836C32.1056 18.4554 32.4451 18.2798 32.5823 17.9635L33.1967 13.7682C33.3378 13.4425 33.1676 13.0671 32.8285 12.9619C31.0981 12.4249 25.9147 11.1937 19.0651 13.022C18.7215 13.1137 18.5389 13.49 18.6722 13.8197L19.1483 17.9854C19.2735 18.2956 19.5935 18.4807 19.9247 18.4323Z" fill="url(#paint15_linear_652_1194)"/>
<path d="M19.8195 18.1475C19.6432 18.1475 19.4864 18.0408 19.4196 17.8761L18.9436 13.7103C18.9108 13.6289 18.9145 13.537 18.9537 13.4585C18.9922 13.3816 19.0586 13.327 19.1407 13.3049C21.5169 12.6706 23.9178 12.349 26.2767 12.349C29.3994 12.349 31.6676 12.9083 32.7417 13.2417C32.8244 13.2674 32.8899 13.3246 32.9259 13.4032C32.9624 13.4827 32.9632 13.5708 32.928 13.652L32.3136 17.8471C32.2451 18.005 32.0904 18.1071 31.9193 18.1071C31.8892 18.1071 31.859 18.1038 31.829 18.0974C30.6784 17.853 28.0961 17.729 26.5308 17.729C24.2514 17.729 20.9366 17.9882 19.8822 18.1428C19.861 18.146 19.8402 18.1475 19.8195 18.1475Z" fill="black"/>
<path d="M19.8197 18.0005C19.7034 18.0005 19.5999 17.9299 19.5558 17.8207L19.0797 13.655C19.0563 13.597 19.0729 13.5477 19.085 13.5235C19.0989 13.4957 19.1264 13.46 19.1787 13.4459C21.5426 12.8149 23.9308 12.4949 26.277 12.4949C29.3805 12.4949 31.6325 13.0501 32.6985 13.381C32.756 13.3988 32.7825 13.4404 32.7932 13.4637C32.804 13.4878 32.8187 13.5361 32.794 13.5933L32.1796 17.7887C32.1344 17.8927 32.0323 17.9603 31.9195 17.9603C31.8997 17.9603 31.8796 17.958 31.8598 17.954C30.6992 17.7071 28.1065 17.5822 26.5311 17.5822C24.2424 17.5822 20.9195 17.8425 19.8612 17.9974C19.8474 17.9994 19.8335 18.0005 19.8197 18.0005Z" fill="#676B86"/>
<path opacity="0.2" d="M19.2097 14.7925C20.9145 14.3781 23.4652 14.0456 25.9377 14.0456C28.3842 14.0456 30.9201 14.3859 32.6183 14.7925L32.7939 13.5933C32.8187 13.5361 32.804 13.4878 32.7931 13.4637C32.7825 13.4406 32.756 13.3988 32.6985 13.381C31.6324 13.0502 29.3804 12.4949 26.2769 12.4949C23.9308 12.4949 21.5426 12.815 19.1787 13.446C19.1263 13.46 19.0989 13.4957 19.085 13.5235C19.073 13.5477 19.0562 13.597 19.0796 13.655L19.2097 14.7925Z" fill="black"/>
<path d="M19.1128 13.7373C20.9384 13.2864 23.3243 13.0128 25.9377 13.0128C28.5376 13.0128 30.9124 13.2837 32.7345 13.7304L32.7939 13.5932C32.8187 13.536 32.804 13.4877 32.7931 13.4636C32.7825 13.4405 32.756 13.3987 32.6985 13.3809C31.6324 13.0501 29.3804 12.4948 26.2769 12.4948C23.9308 12.4948 21.5426 12.8149 19.1787 13.4459C19.1263 13.4599 19.0989 13.4956 19.085 13.5234C19.073 13.5476 19.0562 13.5969 19.0796 13.6549L19.1128 13.7373Z" fill="#333333"/>
<path d="M21.3262 13.6656L23.235 13.2681L23.2525 13.3636L21.3347 13.7134L21.3262 13.6656Z" fill="black"/>
<path d="M25.8981 12.8804L23.2905 13.356L23.4194 13.2337L25.8806 12.7849L25.8981 12.8804Z" fill="black"/>
<path d="M21.4462 13.7178L26.0004 12.8887L25.9911 12.8378L21.3301 13.6879L21.4462 13.7178Z" fill="#333333"/>
<path d="M25.883 12.859C25.8698 12.786 25.9181 12.716 25.9911 12.7028C26.0641 12.6895 26.1341 12.7378 26.1473 12.8108C26.1606 12.8839 26.1123 12.9538 26.0393 12.9671C25.9662 12.9803 25.8963 12.932 25.883 12.859Z" fill="black"/>
<path d="M25.8875 12.8828C25.8767 12.8231 25.9163 12.7657 25.9761 12.7549C26.0358 12.7439 26.0932 12.7836 26.104 12.8434C26.115 12.9032 26.0752 12.9605 26.0155 12.9714C25.9557 12.9822 25.8983 12.9426 25.8875 12.8828Z" fill="#333333"/>
<path d="M25.5566 13.4517L27.4957 13.2473L27.5036 13.3441L25.5605 13.5L25.5566 13.4517Z" fill="black"/>
<path d="M30.1841 13.1294L27.542 13.3413L27.6827 13.2327L30.1764 13.0326L30.1841 13.1294Z" fill="black"/>
<path d="M25.6712 13.5151L30.2855 13.1463L30.2813 13.0946L25.5586 13.4738L25.6712 13.5151Z" fill="#333333"/>
<path d="M30.1718 13.1055C30.1659 13.0315 30.2211 12.9669 30.2949 12.9609C30.3689 12.9549 30.4335 13.0101 30.4395 13.084C30.4455 13.158 30.3902 13.2226 30.3164 13.2286C30.2426 13.2345 30.1778 13.1795 30.1718 13.1055Z" fill="black"/>
<path d="M30.1732 13.1293C30.1684 13.0687 30.2134 13.0157 30.274 13.0107C30.3346 13.0059 30.3876 13.0511 30.3924 13.1117C30.3973 13.1723 30.3522 13.2253 30.2916 13.2301C30.231 13.235 30.1781 13.1899 30.1732 13.1293Z" fill="#333333"/>
<path opacity="0.5" d="M19.8197 18.0005C19.7034 18.0005 19.5999 17.9299 19.5558 17.8207L19.0797 13.655C19.0563 13.597 19.0729 13.5477 19.085 13.5235C19.0989 13.4957 19.1264 13.46 19.1787 13.4459C21.5426 12.8149 23.9308 12.4949 26.277 12.4949C29.3805 12.4949 31.6325 13.0501 32.6985 13.381C32.756 13.3988 32.7825 13.4404 32.7932 13.4637C32.804 13.4878 32.8187 13.5361 32.794 13.5933L32.1796 17.7887C32.1344 17.8927 32.0323 17.9603 31.9195 17.9603C31.8997 17.9603 31.8796 17.958 31.8598 17.954C30.6992 17.7071 28.1065 17.5822 26.5311 17.5822C24.2424 17.5822 20.9195 17.8425 19.8612 17.9974C19.8474 17.9994 19.8335 18.0005 19.8197 18.0005Z" fill="url(#paint16_radial_652_1194)"/>
<path opacity="0.3" d="M19.8197 18.0005C19.7034 18.0005 19.5999 17.9299 19.5558 17.8207L19.0797 13.655C19.0563 13.597 19.0729 13.5477 19.085 13.5235C19.0989 13.4957 19.1264 13.46 19.1787 13.4459C21.5426 12.8149 23.9308 12.4949 26.277 12.4949C29.3805 12.4949 31.6325 13.0501 32.6985 13.381C32.756 13.3988 32.7825 13.4404 32.7932 13.4637C32.804 13.4878 32.8187 13.5361 32.794 13.5933L32.1796 17.7887C32.1344 17.8927 32.0323 17.9603 31.9195 17.9603C31.8997 17.9603 31.8796 17.958 31.8598 17.954C30.6992 17.7071 28.1065 17.5822 26.5311 17.5822C24.2424 17.5822 20.9195 17.8425 19.8612 17.9974C19.8474 17.9994 19.8335 18.0005 19.8197 18.0005Z" fill="url(#paint17_radial_652_1194)"/>
<path d="M18.6249 21.208C18.6317 21.208 18.6386 21.2069 18.6456 21.2051L19.3171 21.208C19.3864 21.1875 19.4388 21.0642 19.4388 20.9214L19.4388 18.9819C19.4388 18.9429 19.4351 18.905 19.4276 18.8691L18.706 13.4908C18.6932 13.4289 18.665 13.3905 18.6322 13.3905C18.5869 13.3905 18.5514 13.4625 18.5514 13.5546L18.4829 20.9185C18.4829 20.9965 18.4978 21.0694 18.5251 21.1242C18.5519 21.1784 18.5874 21.208 18.6249 21.208Z" fill="#F4F4F4"/>
<path opacity="0.5" d="M18.6249 21.208C18.6317 21.208 18.6386 21.2069 18.6456 21.2051L19.3171 21.208C19.3864 21.1875 19.4388 21.0642 19.4388 20.9214L19.4388 18.9819C19.4388 18.9429 19.4351 18.905 19.4276 18.8691L18.706 13.4908C18.6932 13.4289 18.665 13.3905 18.6322 13.3905C18.5869 13.3905 18.5514 13.4625 18.5514 13.5546L18.4829 20.9185C18.4829 20.9965 18.4978 21.0694 18.5251 21.1242C18.5519 21.1784 18.5874 21.208 18.6249 21.208Z" fill="url(#paint18_linear_652_1194)"/>
<path d="M18.6565 13.5331L19.3781 18.9116C19.3828 18.9339 19.3851 18.9578 19.3851 18.982L19.3851 20.9214C19.3851 21.0114 19.3526 21.0877 19.309 21.1006L18.6374 21.0977C18.5838 21.1137 18.5356 21.0289 18.5356 20.9185L18.6041 13.5546C18.6043 13.4944 18.645 13.4777 18.6565 13.5331Z" fill="black"/>
<path d="M18.6301 20.9903L19.3016 20.9932C19.3191 20.9882 19.3322 20.9573 19.3322 20.9214L19.3322 18.9819C19.3322 18.9722 19.3312 18.9628 19.3294 18.9539L18.6579 13.817L18.5894 20.9185C18.5894 20.9381 18.5931 20.9563 18.5999 20.9701C18.6066 20.9836 18.6155 20.9911 18.6249 20.9911L18.6301 20.9903Z" fill="#676B86"/>
<path opacity="0.2" d="M18.8514 20.9242L18.6302 20.9899L18.6249 20.9907C18.6155 20.9907 18.6066 20.9833 18.5999 20.9697C18.5931 20.956 18.5894 20.9377 18.5894 20.9182L18.6578 13.8166L18.7729 16.2706L18.8514 20.9242Z" fill="black"/>
<path opacity="0.5" d="M18.6301 20.9903L19.3016 20.9932C19.3191 20.9882 19.3322 20.9573 19.3322 20.9214L19.3322 18.9819C19.3322 18.9722 19.3312 18.9628 19.3294 18.9539L18.6579 13.817L18.5894 20.9185C18.5894 20.9381 18.5931 20.9563 18.5999 20.9701C18.6066 20.9836 18.6155 20.9911 18.6249 20.9911L18.6301 20.9903Z" fill="url(#paint19_linear_652_1194)"/>
<path opacity="0.3" d="M18.6301 20.9903L19.3016 20.9932C19.3191 20.9882 19.3322 20.9573 19.3322 20.9214L19.3322 18.9819C19.3322 18.9722 19.3312 18.9628 19.3294 18.9539L18.6579 13.817L18.5894 20.9185C18.5894 20.9381 18.5931 20.9563 18.5999 20.9701C18.6066 20.9836 18.6155 20.9911 18.6249 20.9911L18.6301 20.9903Z" fill="url(#paint20_linear_652_1194)"/>
<path d="M33.29 21.207C33.2832 21.207 33.2762 21.2059 33.2693 21.2041L32.5977 21.207C32.5284 21.1865 32.4761 21.0632 32.4761 20.9204L32.4761 18.9809C32.4761 18.9419 32.4798 18.904 32.4874 18.8681L33.209 13.4898C33.2219 13.4279 33.25 13.3895 33.2828 13.3895C33.3281 13.3895 33.3636 13.4615 33.3636 13.5536L33.4321 20.9175C33.4321 20.9956 33.4173 21.0684 33.3901 21.1232C33.363 21.1775 33.3274 21.207 33.29 21.207Z" fill="#F4F4F4"/>
<path opacity="0.5" d="M33.29 21.207C33.2832 21.207 33.2762 21.2059 33.2693 21.2041L32.5977 21.207C32.5284 21.1865 32.4761 21.0632 32.4761 20.9204L32.4761 18.9809C32.4761 18.9419 32.4798 18.904 32.4874 18.8681L33.209 13.4898C33.2219 13.4279 33.25 13.3895 33.2828 13.3895C33.3281 13.3895 33.3636 13.4615 33.3636 13.5536L33.4321 20.9175C33.4321 20.9956 33.4173 21.0684 33.3901 21.1232C33.363 21.1775 33.3274 21.207 33.29 21.207Z" fill="url(#paint21_linear_652_1194)"/>
<path d="M33.2584 13.5322L32.5367 18.9106C32.532 18.9329 32.5298 18.9568 32.5298 18.9811L32.5298 20.9204C32.5298 21.0104 32.5621 21.0867 32.6059 21.0996L33.2774 21.0967C33.3311 21.1127 33.3792 21.0279 33.3792 20.9175L33.3107 13.5536C33.3105 13.4934 33.27 13.4767 33.2584 13.5322Z" fill="black"/>
<path d="M33.2846 20.9893L32.6131 20.9922C32.5956 20.9872 32.5825 20.9563 32.5825 20.9205L32.5825 18.9809C32.5825 18.9712 32.5835 18.9618 32.5853 18.953L33.2568 13.816L33.3253 20.9176C33.3253 20.9371 33.3216 20.9554 33.3148 20.9691C33.308 20.9827 33.2991 20.9901 33.2898 20.9901L33.2846 20.9893Z" fill="#676B86"/>
<path opacity="0.2" d="M33.0635 20.9237L33.2846 20.9894L33.29 20.9902C33.2993 20.9902 33.3082 20.9828 33.315 20.9692C33.3218 20.9555 33.3255 20.9372 33.3255 20.9177L33.257 13.8162L33.142 16.2701L33.0635 20.9237Z" fill="black"/>
<path opacity="0.5" d="M33.2846 20.9893L32.6131 20.9922C32.5956 20.9872 32.5825 20.9563 32.5825 20.9205L32.5825 18.9809C32.5825 18.9712 32.5835 18.9618 32.5853 18.953L33.2568 13.816L33.3253 20.9176C33.3253 20.9371 33.3216 20.9554 33.3148 20.9691C33.308 20.9827 33.2991 20.9901 33.2898 20.9901L33.2846 20.9893Z" fill="url(#paint22_linear_652_1194)"/>
<path opacity="0.3" d="M33.2846 20.9893L32.6131 20.9922C32.5956 20.9872 32.5825 20.9563 32.5825 20.9205L32.5825 18.9809C32.5825 18.9712 32.5835 18.9618 32.5853 18.953L33.2568 13.816L33.3253 20.9176C33.3253 20.9371 33.3216 20.9554 33.3148 20.9691C33.308 20.9827 33.2991 20.9901 33.2898 20.9901L33.2846 20.9893Z" fill="url(#paint23_linear_652_1194)"/>
<path d="M18.6321 14.3411L17 14.9702L17 14.6657C17 14.5224 17.0882 14.3938 17.222 14.3423L18.6321 13.7987L18.6321 14.3411Z" fill="#999999"/>
<path opacity="0.4" d="M18.6321 14.3787L17 15.0078L17 14.7033C17 14.56 17.0882 14.4314 17.222 14.3797L18.6321 13.8361L18.6321 14.3787Z" fill="url(#paint24_linear_652_1194)"/>
<path d="M18.1646 14.7677L17.1344 15.1033C17.068 15.1249 17 15.0755 17 15.0057L17 14.631L18.2357 14.2286L18.2357 14.67C18.2355 14.7144 18.2068 14.7538 18.1646 14.7677Z" fill="#666666"/>
<path opacity="0.3" d="M18.1646 14.7677L17.1344 15.1033C17.068 15.1249 17 15.0755 17 15.0057L17 14.631L18.2357 14.2286L18.2357 14.67C18.2355 14.7144 18.2068 14.7538 18.1646 14.7677Z" fill="url(#paint25_linear_652_1194)"/>
<path d="M33.2979 14.3411L34.93 14.9702L34.93 14.6657C34.93 14.5224 34.8418 14.3938 34.708 14.3423L33.2979 13.7987L33.2979 14.3411Z" fill="#999999"/>
<path opacity="0.4" d="M33.2979 14.3787L34.93 15.0078L34.93 14.7033C34.93 14.56 34.8418 14.4314 34.708 14.3797L33.2979 13.8361L33.2979 14.3787Z" fill="url(#paint26_linear_652_1194)"/>
<path d="M33.7653 14.7677L34.7954 15.1033C34.8618 15.1249 34.93 15.0755 34.93 15.0057L34.93 14.631L33.6943 14.2286L33.6943 14.67C33.6945 14.7144 33.7231 14.7538 33.7653 14.7677Z" fill="#666666"/>
<path opacity="0.3" d="M33.7653 14.7677L34.7954 15.1033C34.8618 15.1249 34.93 15.0755 34.93 15.0057L34.93 14.631L33.6943 14.2286L33.6943 14.67C33.6945 14.7144 33.7231 14.7538 33.7653 14.7677Z" fill="url(#paint27_linear_652_1194)"/>
<path opacity="0.7" d="M30.0797 20.9048L21.3101 20.9048L21.6327 19.8266L30.4023 19.8266L30.0797 20.9048Z" fill="url(#paint28_linear_652_1194)"/>
<path d="M30.2364 20.6392L21.6372 20.6392C21.3762 20.6392 21.1646 20.4275 21.1646 20.1665L21.1646 19.6637C21.1646 19.4027 21.3762 19.191 21.6372 19.191L30.2364 19.191C30.4975 19.191 30.7091 19.4027 30.7091 19.6637L30.7091 20.1665C30.7091 20.4275 30.4975 20.6392 30.2364 20.6392Z" fill="#999999"/>
<path d="M30.2361 19.1912L26.998 19.1912L26.998 20.6392L30.2361 20.6392C30.4972 20.6392 30.7088 20.4275 30.7088 20.1665L30.7088 19.6637C30.7088 19.4028 30.4972 19.1912 30.2361 19.1912Z" fill="#5D94FF"/>
<path opacity="0.5" d="M27.3433 20.2944L27.3433 19.5355L30.2368 19.5355C30.3072 19.5355 30.3647 19.593 30.3647 19.6637L30.3647 20.1662C30.3647 20.2369 30.3073 20.2944 30.2368 20.2944L27.3433 20.2944Z" fill="#5384E4"/>
<path d="M21.6372 19.1912L24.8753 19.1912L24.8753 20.6392L21.6372 20.6392C21.3762 20.6392 21.1646 20.4275 21.1646 20.1665L21.1646 19.6637C21.1646 19.4028 21.3762 19.1912 21.6372 19.1912Z" fill="#CC0000"/>
<path opacity="0.3" d="M21.6374 20.2944C21.5668 20.2944 21.5093 20.2369 21.5093 20.1662L21.5093 19.6637C21.5093 19.593 21.5666 19.5355 21.6374 19.5355L24.5309 19.5355L24.5309 20.2944L21.6374 20.2944Z" fill="#660000"/>
<path opacity="0.5" d="M30.2364 20.6392L21.6372 20.6392C21.3762 20.6392 21.1646 20.4275 21.1646 20.1665L21.1646 19.6637C21.1646 19.4027 21.3762 19.191 21.6372 19.191L30.2364 19.191C30.4975 19.191 30.7091 19.4027 30.7091 19.6637L30.7091 20.1665C30.7091 20.4275 30.4975 20.6392 30.2364 20.6392Z" fill="url(#paint29_radial_652_1194)"/>
<path opacity="0.5" d="M30.2364 20.6392L21.6372 20.6392C21.3762 20.6392 21.1646 20.4275 21.1646 20.1665L21.1646 19.6637C21.1646 19.4027 21.3762 19.191 21.6372 19.191L30.2364 19.191C30.4975 19.191 30.7091 19.4027 30.7091 19.6637L30.7091 20.1665C30.7091 20.4275 30.4975 20.6392 30.2364 20.6392Z" fill="url(#paint30_linear_652_1194)"/>
<path d="M30.0629 19.3112L21.8109 19.3112C21.5603 19.3112 21.3574 19.4968 21.3574 19.7257L21.3574 19.9146C21.3574 19.6856 21.5605 19.5 21.8109 19.5L30.0629 19.5C30.3133 19.5 30.5164 19.6856 30.5164 19.9146L30.5164 19.7257C30.5164 19.4968 30.3133 19.3112 30.0629 19.3112Z" fill="url(#paint31_linear_652_1194)"/>
<path d="M30.0629 20.5186L21.8109 20.5186C21.5603 20.5186 21.3574 20.3329 21.3574 20.104L21.3574 19.9152C21.3574 20.1441 21.5605 20.3297 21.8109 20.3297L30.0629 20.3297C30.3133 20.3297 30.5164 20.1441 30.5164 19.9152L30.5164 20.104C30.5164 20.3331 30.3133 20.5186 30.0629 20.5186Z" fill="url(#paint32_linear_652_1194)"/>
<path opacity="0.4" d="M21.374 19.2719L21.4931 19.4138C21.5338 19.4621 21.559 19.5546 21.5592 19.6551L21.5596 20.1748C21.5598 20.2756 21.5344 20.3687 21.4936 20.4171L21.374 20.5595C21.4067 20.5813 21.4428 20.5976 21.4805 20.6108L21.5613 20.5147C21.6041 20.4637 21.6307 20.3661 21.6306 20.2601L21.6301 19.573C21.6299 19.4679 21.6036 19.3709 21.5611 19.3201L21.4785 19.221C21.4417 19.2341 21.406 19.2503 21.374 19.2719Z" fill="white"/>
<path opacity="0.4" d="M30.4929 19.2719L30.3738 19.4138C30.3331 19.4621 30.3079 19.5546 30.3077 19.6551L30.3072 20.1748C30.3072 20.2756 30.3325 20.3687 30.3733 20.4171L30.4929 20.5595C30.4602 20.5813 30.4241 20.5976 30.3864 20.6108L30.3056 20.5147C30.2628 20.4637 30.2362 20.3661 30.2363 20.2601L30.237 19.573C30.237 19.4679 30.2635 19.3709 30.306 19.3201L30.3885 19.221C30.4253 19.2341 30.4609 19.2503 30.4929 19.2719Z" fill="white"/>
<path opacity="0.4" d="M21.854 19.8806L21.854 19.9502L30.0199 19.9502L30.0199 19.8806L21.854 19.8806Z" fill="black"/>
<path d="M34.1392 45.6323L17.7356 45.6323C17.5393 45.6323 17.3804 45.4732 17.3804 45.2769L17.3804 21.8574C17.3804 21.6611 17.5395 21.502 17.7356 21.502L34.1392 21.502C34.3355 21.502 34.4946 21.6611 34.4946 21.8574L34.4946 45.2769C34.4946 45.4732 34.3355 45.6323 34.1392 45.6323Z" fill="#CC3300"/>
<path d="M17.7355 45.3916C17.6725 45.3916 17.6211 45.3402 17.6211 45.2774L17.6211 21.8579C17.6211 21.7951 17.6725 21.7437 17.7355 21.7437L34.1389 21.7437C34.2019 21.7437 34.2531 21.7951 34.2531 21.8579L34.2531 45.2774C34.2531 45.3402 34.2017 45.3916 34.1389 45.3916L17.7355 45.3916Z" fill="#F5F7EA"/>
<path d="M17.7355 45.3916C17.6725 45.3916 17.6211 45.3402 17.6211 45.2774L17.6211 21.8579C17.6211 21.7951 17.6725 21.7437 17.7355 21.7437L34.1389 21.7437C34.2019 21.7437 34.2531 21.7951 34.2531 21.8579L34.2531 45.2774C34.2531 45.3402 34.2017 45.3916 34.1389 45.3916L17.7355 45.3916Z" fill="url(#paint33_radial_652_1194)"/>
<path opacity="0.2" d="M17.7355 45.3916C17.6725 45.3916 17.6211 45.3402 17.6211 45.2774L17.6211 21.8579C17.6211 21.7951 17.6725 21.7437 17.7355 21.7437L34.1389 21.7437C34.2019 21.7437 34.2531 21.7951 34.2531 21.8579L34.2531 45.2774C34.2531 45.3402 34.2017 45.3916 34.1389 45.3916L17.7355 45.3916Z" fill="#FF8282"/>
<path d="M20.0071 45.7536L20.0071 45.6323L18.3496 45.6323L18.3496 45.7536C18.3496 45.8897 18.4599 46 18.5961 46L19.7607 46C19.8968 46 20.0071 45.8897 20.0071 45.7536Z" fill="#EF0C0C"/>
<path opacity="0.4" d="M19.8203 45.6735L18.5361 45.6735C18.5361 45.8309 18.6638 45.9585 18.8211 45.9585L19.5353 45.9585C19.6927 45.9585 19.8203 45.8309 19.8203 45.6735Z" fill="#660000"/>
<path d="M18.4512 45.6559L18.4591 45.6559C18.4909 45.8007 18.6195 45.9091 18.7738 45.9091L19.5823 45.9091C19.7366 45.9091 19.8652 45.8007 19.897 45.6559L19.9049 45.6559C19.9049 45.8341 19.7605 45.9785 19.5823 45.9785L18.7738 45.9785C18.5956 45.9785 18.4512 45.8341 18.4512 45.6559Z" fill="url(#paint34_linear_652_1194)"/>
<path opacity="0.6" d="M19.4584 45.811C19.3048 45.8119 19.151 45.8129 18.9974 45.814C18.9292 45.8145 18.8549 45.8208 18.7875 45.8074C18.7602 45.8019 18.7069 45.7912 18.7056 45.7552C18.7043 45.7198 18.7466 45.7143 18.7733 45.7142C18.8494 45.7142 19.7162 45.7087 19.7162 45.7231C19.7159 45.756 19.6896 45.7843 19.6591 45.7971C19.6285 45.8098 19.5946 45.8101 19.5616 45.8105C19.5272 45.8105 19.4928 45.8108 19.4584 45.811Z" fill="url(#paint35_linear_652_1194)"/>
<path d="M33.1873 45.7536L33.1873 45.6323L31.5298 45.6323L31.5298 45.7536C31.5298 45.8897 31.6401 46 31.7762 46L32.9407 46C33.0768 46 33.1873 45.8897 33.1873 45.7536Z" fill="#EF0C0C"/>
<path opacity="0.4" d="M33.0003 45.6735L31.7163 45.6735C31.7163 45.8309 31.8439 45.9585 32.0013 45.9585L32.7155 45.9585C32.8727 45.9585 33.0003 45.8309 33.0003 45.6735Z" fill="#660000"/>
<path d="M31.6318 45.6549L31.6398 45.6549C31.6716 45.7997 31.8002 45.9081 31.9544 45.9081L32.763 45.9081C32.9173 45.9081 33.0459 45.7997 33.0777 45.6549L33.0856 45.6549C33.0856 45.8331 32.9412 45.9775 32.763 45.9775L31.9544 45.9775C31.7763 45.9775 31.6318 45.8331 31.6318 45.6549Z" fill="url(#paint36_linear_652_1194)"/>
<path opacity="0.6" d="M32.6386 45.811C32.485 45.8119 32.3312 45.8129 32.1775 45.814C32.1094 45.8145 32.035 45.8208 31.9677 45.8074C31.9404 45.8019 31.8871 45.7912 31.8858 45.7552C31.8845 45.7198 31.9268 45.7143 31.9535 45.7142C32.0295 45.7142 32.8964 45.7087 32.8964 45.7231C32.8961 45.756 32.8698 45.7843 32.8392 45.7971C32.8087 45.8098 32.7748 45.8101 32.7418 45.8105C32.7072 45.8105 32.6728 45.8108 32.6386 45.811Z" fill="url(#paint37_linear_652_1194)"/>
<path d="M24.8743 30.2427L24.8743 32.3287C24.8743 32.4255 24.796 32.5042 24.6992 32.5042L22.6132 32.5042C22.5164 32.5042 22.438 32.5826 22.438 32.6794L22.438 34.4561C22.438 34.5529 22.5164 34.6315 22.6132 34.6315L24.6992 34.6315C24.796 34.6315 24.8743 34.7099 24.8743 34.8067L24.8743 36.8927C24.8743 36.9895 24.9527 37.0679 25.0498 37.0679L26.8265 37.0679C26.9233 37.0679 27.0016 36.9895 27.0016 36.8927L27.0016 34.8067C27.0016 34.7099 27.08 34.6315 27.1771 34.6315L29.2628 34.6315C29.3596 34.6315 29.438 34.5531 29.438 34.4561L29.438 32.6794C29.438 32.5826 29.3596 32.5042 29.2628 32.5042L27.1771 32.5042C27.0803 32.5042 27.0016 32.4258 27.0016 32.3287L27.0016 30.2427C27.0016 30.1459 26.9233 30.0675 26.8265 30.0675L25.0498 30.0675C24.9527 30.0675 24.8743 30.1459 24.8743 30.2427Z" fill="#CC3300"/>
<path d="M31.1228 45.6323L20.3818 45.6323L20.3818 45.9549L31.1228 45.9549L31.1228 45.6323Z" fill="#F5F7EA"/>
<path opacity="0.5" d="M31.1224 45.9551L20.3813 45.9551L20.3813 45.6325L31.1224 45.6325L31.1224 45.9551Z" fill="url(#paint38_linear_652_1194)"/>
<path opacity="0.5" d="M25.7946 45.6323L25.7095 45.6323L25.7095 45.9549L25.7946 45.9549L25.7946 45.6323Z" fill="#666666"/>
<path d="M25.4307 45.843L20.6226 45.843C20.5643 45.843 20.5171 45.8901 20.5171 45.9485L20.5171 45.9546L25.5362 45.9546L25.5362 45.9485C25.5362 45.8901 25.4891 45.843 25.4307 45.843Z" fill="#AAD5F9"/>
<path d="M25.4307 45.843L20.6226 45.843C20.5643 45.843 20.5171 45.8901 20.5171 45.9485L20.5171 45.9546L20.5311 45.9546C20.5491 45.9218 20.5825 45.8987 20.6226 45.8987L25.4307 45.8987C25.4706 45.8987 25.5042 45.9218 25.5222 45.9546L25.5362 45.9546L25.5362 45.9485C25.5362 45.8901 25.4891 45.843 25.4307 45.843Z" fill="white"/>
<path d="M30.8883 45.8434L26.0801 45.8434C26.0218 45.8434 25.9746 45.8906 25.9746 45.9489L25.9746 45.9551L30.9937 45.9551L30.9937 45.9489C30.9936 45.8906 30.9464 45.8434 30.8883 45.8434Z" fill="#AAD5F9"/>
<path d="M30.8883 45.8434L26.0801 45.8434C26.0218 45.8434 25.9746 45.8906 25.9746 45.9489L25.9746 45.9551L25.9887 45.9551C26.0066 45.9223 26.04 45.8992 26.0801 45.8992L30.8883 45.8992C30.9282 45.8992 30.9618 45.9223 30.9797 45.9551L30.9937 45.9551L30.9937 45.9489C30.9936 45.8906 30.9464 45.8434 30.8883 45.8434Z" fill="white"/>
<path d="M34.4939 21.7437L34.4939 15.834C34.4939 15.6595 34.4246 15.4923 34.3013 15.3689L33.7251 14.7927L33.7251 21.7437L34.4939 21.7437Z" fill="#CCCCCC"/>
<path d="M34.3732 21.6226L33.8452 21.6226L33.8452 15.083L34.2158 15.4535C34.3173 15.5549 34.3732 15.6898 34.3732 15.8333L34.3732 21.6226Z" fill="url(#paint39_linear_652_1194)"/>
<path opacity="0.5" d="M34.4939 21.7437L34.4939 15.834C34.4939 15.6595 34.4246 15.4923 34.3013 15.3689L33.7251 14.7927L33.7251 21.7437L34.4939 21.7437Z" fill="url(#paint40_linear_652_1194)"/>
<path opacity="0.4" d="M34.4939 21.7437L34.4939 15.834C34.4939 15.6595 34.4246 15.4923 34.3013 15.3689L33.7251 14.7927L33.7251 21.7437L34.4939 21.7437Z" fill="url(#paint41_linear_652_1194)"/>
<mask id="mask1_652_1194" style="mask-type:luminance" maskUnits="userSpaceOnUse" x="33" y="15" width="2" height="7">
<path d="M34.3732 21.6226L33.8452 21.6226L33.8452 15.083L34.2158 15.4535C34.3173 15.5549 34.3732 15.6898 34.3732 15.8333L34.3732 21.6226Z" fill="white"/>
</mask>
<g mask="url(#mask1_652_1194)">
<path d="M33.9648 21.5713C34.0105 21.5457 34.0567 21.5412 34.0567 21.5412C34.0567 21.5412 34.0288 21.5782 33.983 21.6037C33.9373 21.6293 33.8911 21.6338 33.8911 21.6338C33.8911 21.6338 33.9191 21.5968 33.9648 21.5713Z" fill="#999999"/>
<path d="M34.3268 21.3623C34.3725 21.3368 34.4185 21.3322 34.4185 21.3322C34.4185 21.3322 34.3906 21.3692 34.3449 21.3948C34.2991 21.4203 34.2529 21.4248 34.2529 21.4248C34.2529 21.4248 34.281 21.3878 34.3268 21.3623Z" fill="#999999"/>
<path d="M34.1394 21.4916C34.1139 21.4459 34.1094 21.3998 34.1094 21.3998C34.1094 21.3998 34.1464 21.4278 34.1719 21.4735C34.1974 21.5192 34.2019 21.5654 34.2019 21.5654C34.2019 21.5654 34.1649 21.5373 34.1394 21.4916Z" fill="#999999"/>
<path d="M33.9124 21.3638C33.8868 21.3181 33.8823 21.2719 33.8823 21.2719C33.8823 21.2719 33.9193 21.2999 33.9448 21.3456C33.9704 21.3913 33.9749 21.4375 33.9749 21.4375C33.9749 21.4375 33.9379 21.4096 33.9124 21.3638Z" fill="#999999"/>
<path d="M34.274 21.1557C34.2485 21.1099 34.2441 21.0639 34.2441 21.0639C34.2441 21.0639 34.2811 21.0919 34.3067 21.1376C34.3322 21.1833 34.3365 21.2295 34.3365 21.2295C34.3365 21.2295 34.2996 21.2014 34.274 21.1557Z" fill="#999999"/>
<path d="M34.1198 21.2654C34.074 21.2909 34.0278 21.2954 34.0278 21.2954C34.0278 21.2954 34.0558 21.2584 34.1015 21.2329C34.1472 21.2074 34.1933 21.2028 34.1933 21.2028C34.1933 21.2028 34.1653 21.2398 34.1198 21.2654Z" fill="#999999"/>
<path d="M33.8412 21.0845C33.887 21.0589 33.9332 21.0546 33.9332 21.0546C33.9332 21.0546 33.9052 21.0916 33.8595 21.1171C33.8138 21.1426 33.7676 21.147 33.7676 21.147C33.7676 21.147 33.7955 21.11 33.8412 21.0845Z" fill="#999999"/>
<path d="M34.2031 20.8764C34.2488 20.8509 34.295 20.8466 34.295 20.8466C34.295 20.8466 34.267 20.8836 34.2213 20.9091C34.1756 20.9346 34.1294 20.939 34.1294 20.939C34.1294 20.939 34.1573 20.902 34.2031 20.8764Z" fill="#999999"/>
<path d="M34.0159 21.0041C33.9904 20.9584 33.9858 20.9122 33.9858 20.9122C33.9858 20.9122 34.0228 20.9402 34.0484 20.9859C34.0739 21.0316 34.0784 21.0776 34.0784 21.0776C34.0784 21.0776 34.0414 21.0499 34.0159 21.0041Z" fill="#999999"/>
<path d="M33.7888 20.877C33.7633 20.8313 33.7588 20.7851 33.7588 20.7851C33.7588 20.7851 33.7958 20.813 33.8213 20.8588C33.8468 20.9045 33.8514 20.9507 33.8514 20.9507C33.8514 20.9507 33.8144 20.9227 33.7888 20.877Z" fill="#999999"/>
<path d="M34.1507 20.6692C34.1251 20.6234 34.1206 20.5772 34.1206 20.5772C34.1206 20.5772 34.1576 20.6052 34.1831 20.6509C34.2086 20.6966 34.213 20.7427 34.213 20.7427C34.213 20.7427 34.1762 20.7149 34.1507 20.6692Z" fill="#999999"/>
<path d="M33.9962 20.7787C33.9505 20.8042 33.9043 20.8086 33.9043 20.8086C33.9043 20.8086 33.9322 20.7716 33.978 20.7461C34.0237 20.7206 34.0699 20.7162 34.0699 20.7162C34.0699 20.7162 34.0419 20.7532 33.9962 20.7787Z" fill="#999999"/>
<path d="M34.3449 20.5935C34.2991 20.619 34.2529 20.6235 34.2529 20.6235C34.2529 20.6235 34.2809 20.5865 34.3266 20.561C34.3723 20.5355 34.4184 20.531 34.4184 20.531C34.4184 20.531 34.3906 20.568 34.3449 20.5935Z" fill="#999999"/>
<path d="M33.878 20.5521C33.8525 20.5064 33.8481 20.4604 33.8481 20.4604C33.8481 20.4604 33.8851 20.4883 33.9107 20.5341C33.9362 20.5798 33.9407 20.626 33.9407 20.626C33.9407 20.626 33.9037 20.5979 33.878 20.5521Z" fill="#999999"/>
<path d="M34.2399 20.3443C34.2143 20.2986 34.21 20.2524 34.21 20.2524C34.21 20.2524 34.247 20.2803 34.2725 20.326C34.298 20.3718 34.3024 20.418 34.3024 20.418C34.3024 20.418 34.2654 20.39 34.2399 20.3443Z" fill="#999999"/>
<path d="M34.0846 20.4545C34.0389 20.48 33.9927 20.4844 33.9927 20.4844C33.9927 20.4844 34.0206 20.4474 34.0663 20.4219C34.1121 20.3963 34.1583 20.392 34.1583 20.392C34.1583 20.392 34.1303 20.429 34.0846 20.4545Z" fill="#999999"/>
<path d="M33.8077 20.2726C33.8534 20.2471 33.8995 20.2426 33.8995 20.2426C33.8995 20.2426 33.8715 20.2795 33.8258 20.3051C33.7801 20.3306 33.7339 20.335 33.7339 20.335C33.7339 20.335 33.762 20.2981 33.8077 20.2726Z" fill="#999999"/>
<path d="M34.1695 20.0649C34.2152 20.0394 34.2613 20.0349 34.2613 20.0349C34.2613 20.0349 34.2333 20.0719 34.1876 20.0974C34.1419 20.1229 34.0957 20.1274 34.0957 20.1274C34.0957 20.1274 34.1238 20.0904 34.1695 20.0649Z" fill="#999999"/>
<path d="M33.9827 20.1929C33.9572 20.1472 33.9526 20.101 33.9526 20.101C33.9526 20.101 33.9896 20.129 34.0152 20.1747C34.0407 20.2204 34.0452 20.2666 34.0452 20.2666C34.0452 20.2666 34.0082 20.2387 33.9827 20.1929Z" fill="#999999"/>
<path d="M34.1168 19.857C34.0913 19.8113 34.0869 19.7651 34.0869 19.7651C34.0869 19.7651 34.1239 19.793 34.1494 19.8387C34.175 19.8845 34.1793 19.9307 34.1793 19.9307C34.1793 19.9307 34.1425 19.9027 34.1168 19.857Z" fill="#999999"/>
<path d="M33.962 19.9665C33.9163 19.9921 33.8701 19.9966 33.8701 19.9966C33.8701 19.9966 33.8981 19.9596 33.9438 19.9341C33.9895 19.9085 34.0357 19.904 34.0357 19.904C34.0357 19.904 34.0078 19.941 33.962 19.9665Z" fill="#999999"/>
<path d="M34.3112 19.7815C34.2654 19.807 34.2192 19.8115 34.2192 19.8115C34.2192 19.8115 34.2472 19.7745 34.2929 19.749C34.3386 19.7235 34.3848 19.7191 34.3848 19.7191C34.3848 19.7191 34.3569 19.756 34.3112 19.7815Z" fill="#999999"/>
<path d="M33.8775 19.7374C33.852 19.6917 33.8477 19.6454 33.8477 19.6454C33.8477 19.6454 33.8846 19.6734 33.9102 19.7191C33.9357 19.7648 33.9402 19.811 33.9402 19.811C33.9402 19.811 33.9032 19.7831 33.8775 19.7374Z" fill="#999999"/>
<path d="M34.2394 19.5292C34.2138 19.4835 34.2095 19.4374 34.2095 19.4374C34.2095 19.4374 34.2465 19.4654 34.272 19.5111C34.2975 19.5568 34.3019 19.603 34.3019 19.603C34.3019 19.603 34.2649 19.5749 34.2394 19.5292Z" fill="#999999"/>
<path d="M34.0841 19.6391C34.0384 19.6646 33.9922 19.6689 33.9922 19.6689C33.9922 19.6689 34.0201 19.632 34.0659 19.6064C34.1116 19.5809 34.1578 19.5765 34.1578 19.5765C34.1578 19.5765 34.1298 19.6135 34.0841 19.6391Z" fill="#999999"/>
<path d="M33.8072 19.4573C33.8529 19.4318 33.899 19.4275 33.899 19.4275C33.899 19.4275 33.871 19.4644 33.8253 19.49C33.7796 19.5155 33.7334 19.52 33.7334 19.52C33.7334 19.52 33.7615 19.4829 33.8072 19.4573Z" fill="#999999"/>
<path d="M34.1685 19.2495C34.2143 19.224 34.2603 19.2194 34.2603 19.2194C34.2603 19.2194 34.2324 19.2564 34.1866 19.282C34.1409 19.3075 34.0947 19.312 34.0947 19.312C34.0947 19.312 34.1228 19.275 34.1685 19.2495Z" fill="#999999"/>
<path d="M33.9817 19.3775C33.9562 19.3318 33.9517 19.2856 33.9517 19.2856C33.9517 19.2856 33.9887 19.3135 34.0142 19.3593C34.0397 19.405 34.0442 19.4512 34.0442 19.4512C34.0442 19.4512 34.0072 19.4232 33.9817 19.3775Z" fill="#999999"/>
<path d="M34.1163 19.0417C34.0908 18.996 34.0864 18.9498 34.0864 18.9498C34.0864 18.9498 34.1234 18.9778 34.1489 19.0235C34.1745 19.0692 34.1788 19.1152 34.1788 19.1152C34.1788 19.1152 34.142 19.0875 34.1163 19.0417Z" fill="#999999"/>
<path d="M33.962 19.1516C33.9163 19.1771 33.8701 19.1816 33.8701 19.1816C33.8701 19.1816 33.8981 19.1446 33.9438 19.1191C33.9895 19.0936 34.0357 19.0891 34.0357 19.0891C34.0357 19.0891 34.0078 19.1261 33.962 19.1516Z" fill="#999999"/>
<path d="M34.3107 18.9662C34.265 18.9917 34.2188 18.9961 34.2188 18.9961C34.2188 18.9961 34.2467 18.9591 34.2924 18.9336C34.3381 18.9081 34.3843 18.9037 34.3843 18.9037C34.3843 18.9037 34.3564 18.9407 34.3107 18.9662Z" fill="#999999"/>
<path d="M33.878 18.9231C33.8525 18.8774 33.8481 18.8312 33.8481 18.8312C33.8481 18.8312 33.8851 18.8591 33.9107 18.9048C33.9362 18.9505 33.9407 18.9966 33.9407 18.9966C33.9407 18.9966 33.9037 18.9688 33.878 18.9231Z" fill="#999999"/>
<path d="M34.2399 18.7149C34.2143 18.6692 34.21 18.623 34.21 18.623C34.21 18.623 34.247 18.6509 34.2725 18.6967C34.298 18.7424 34.3024 18.7886 34.3024 18.7886C34.3024 18.7886 34.2654 18.7606 34.2399 18.7149Z" fill="#999999"/>
<path d="M34.0851 18.8244C34.0394 18.85 33.9932 18.8545 33.9932 18.8545C33.9932 18.8545 34.0211 18.8175 34.0668 18.792C34.1125 18.7664 34.1587 18.7621 34.1587 18.7621C34.1587 18.7621 34.1308 18.7989 34.0851 18.8244Z" fill="#999999"/>
<path d="M33.8077 18.6435C33.8534 18.618 33.8995 18.6136 33.8995 18.6136C33.8995 18.6136 33.8715 18.6506 33.8258 18.6762C33.7801 18.7017 33.7339 18.7061 33.7339 18.7061C33.7339 18.7061 33.762 18.6691 33.8077 18.6435Z" fill="#999999"/>
<path d="M34.1695 18.4354C34.2152 18.4098 34.2613 18.4055 34.2613 18.4055C34.2613 18.4055 34.2333 18.4425 34.1876 18.468C34.1419 18.4935 34.0957 18.498 34.0957 18.498C34.0957 18.498 34.1238 18.4609 34.1695 18.4354Z" fill="#999999"/>
<path d="M33.9827 18.5639C33.9572 18.5181 33.9526 18.4721 33.9526 18.4721C33.9526 18.4721 33.9896 18.5001 34.0152 18.5458C34.0407 18.5915 34.0452 18.6377 34.0452 18.6377C34.0452 18.6377 34.0082 18.6096 33.9827 18.5639Z" fill="#999999"/>
<path d="M34.1163 18.2271C34.0908 18.1814 34.0864 18.1352 34.0864 18.1352C34.0864 18.1352 34.1234 18.1631 34.1489 18.2089C34.1745 18.2546 34.1788 18.3008 34.1788 18.3008C34.1788 18.3008 34.142 18.2728 34.1163 18.2271Z" fill="#999999"/>
<path d="M33.962 18.3371C33.9163 18.3627 33.8701 18.3672 33.8701 18.3672C33.8701 18.3672 33.8981 18.3302 33.9438 18.3047C33.9895 18.2791 34.0357 18.2746 34.0357 18.2746C34.0357 18.2746 34.0078 18.3116 33.962 18.3371Z" fill="#999999"/>
<path d="M34.3107 18.1518C34.265 18.1773 34.2188 18.1816 34.2188 18.1816C34.2188 18.1816 34.2467 18.1446 34.2924 18.1191C34.3381 18.0936 34.3843 18.0892 34.3843 18.0892C34.3843 18.0892 34.3564 18.1261 34.3107 18.1518Z" fill="#999999"/>
<path d="M33.8775 18.1085C33.852 18.0627 33.8477 18.0165 33.8477 18.0165C33.8477 18.0165 33.8846 18.0445 33.9102 18.0902C33.9357 18.1359 33.9402 18.1821 33.9402 18.1821C33.9402 18.1821 33.9032 18.1542 33.8775 18.1085Z" fill="#999999"/>
<path d="M34.2394 17.9006C34.2138 17.8549 34.2095 17.8087 34.2095 17.8087C34.2095 17.8087 34.2465 17.8366 34.272 17.8824C34.2975 17.9281 34.3019 17.9741 34.3019 17.9741C34.3019 17.9741 34.2649 17.9463 34.2394 17.9006Z" fill="#999999"/>
<path d="M34.0841 18.0105C34.0384 18.036 33.9922 18.0405 33.9922 18.0405C33.9922 18.0405 34.0201 18.0035 34.0659 17.978C34.1116 17.9525 34.1578 17.9481 34.1578 17.9481C34.1578 17.9481 34.1298 17.985 34.0841 18.0105Z" fill="#999999"/>
<path d="M33.8072 17.8291C33.8529 17.8036 33.899 17.7992 33.899 17.7992C33.899 17.7992 33.871 17.8362 33.8253 17.8617C33.7796 17.8872 33.7334 17.8916 33.7334 17.8916C33.7334 17.8916 33.7615 17.8546 33.8072 17.8291Z" fill="#999999"/>
<path d="M34.169 17.6216C34.2148 17.596 34.2608 17.5917 34.2608 17.5917C34.2608 17.5917 34.2329 17.6287 34.1871 17.6542C34.1414 17.6797 34.0952 17.6841 34.0952 17.6841C34.0952 17.6841 34.1233 17.6471 34.169 17.6216Z" fill="#999999"/>
<path d="M33.9822 17.7491C33.9567 17.7034 33.9521 17.6572 33.9521 17.6572C33.9521 17.6572 33.9891 17.6851 34.0147 17.7308C34.0402 17.7766 34.0447 17.8228 34.0447 17.8228C34.0447 17.8228 34.0077 17.7948 33.9822 17.7491Z" fill="#999999"/>
<path d="M34.1163 17.4136C34.0908 17.3679 34.0864 17.3217 34.0864 17.3217C34.0864 17.3217 34.1234 17.3497 34.1489 17.3954C34.1745 17.4411 34.1788 17.4873 34.1788 17.4873C34.1788 17.4873 34.142 17.4594 34.1163 17.4136Z" fill="#999999"/>
<path d="M33.962 17.5248C33.9163 17.5503 33.8701 17.5547 33.8701 17.5547C33.8701 17.5547 33.8981 17.5177 33.9438 17.4922C33.9895 17.4666 34.0357 17.4623 34.0357 17.4623C34.0357 17.4623 34.0078 17.4993 33.962 17.5248Z" fill="#999999"/>
<path d="M34.3107 17.3383C34.265 17.3638 34.2188 17.3682 34.2188 17.3682C34.2188 17.3682 34.2467 17.3312 34.2924 17.3056C34.3381 17.2801 34.3843 17.2758 34.3843 17.2758C34.3843 17.2758 34.3564 17.3126 34.3107 17.3383Z" fill="#999999"/>
<path d="M33.878 17.294C33.8525 17.2483 33.8481 17.2021 33.8481 17.2021C33.8481 17.2021 33.8851 17.23 33.9107 17.2758C33.9362 17.3215 33.9407 17.3677 33.9407 17.3677C33.9407 17.3677 33.9037 17.3397 33.878 17.294Z" fill="#999999"/>
<path d="M34.2399 17.086C34.2143 17.0403 34.21 16.9941 34.21 16.9941C34.21 16.9941 34.247 17.022 34.2725 17.0677C34.298 17.1135 34.3024 17.1597 34.3024 17.1597C34.3024 17.1597 34.2654 17.1317 34.2399 17.086Z" fill="#999999"/>
<path d="M34.0846 17.1955C34.0389 17.2211 33.9927 17.2256 33.9927 17.2256C33.9927 17.2256 34.0206 17.1886 34.0663 17.1631C34.1121 17.1375 34.1583 17.133 34.1583 17.133C34.1583 17.133 34.1303 17.17 34.0846 17.1955Z" fill="#999999"/>
<path d="M33.8077 17.0148C33.8534 16.9893 33.8995 16.9847 33.8995 16.9847C33.8995 16.9847 33.8715 17.0217 33.8258 17.0473C33.7801 17.0728 33.7339 17.0771 33.7339 17.0771C33.7339 17.0771 33.762 17.0403 33.8077 17.0148Z" fill="#999999"/>
<path d="M34.1695 16.8071C34.2152 16.7816 34.2613 16.7772 34.2613 16.7772C34.2613 16.7772 34.2333 16.8142 34.1876 16.8397C34.1419 16.8653 34.0957 16.8696 34.0957 16.8696C34.0957 16.8696 34.1238 16.8326 34.1695 16.8071Z" fill="#999999"/>
<path d="M33.9827 16.9348C33.9572 16.8891 33.9526 16.8429 33.9526 16.8429C33.9526 16.8429 33.9896 16.8708 34.0152 16.9165C34.0407 16.9623 34.0452 17.0083 34.0452 17.0083C34.0452 17.0083 34.0082 16.9805 33.9827 16.9348Z" fill="#999999"/>
<path d="M34.1163 16.5982C34.0908 16.5525 34.0864 16.5063 34.0864 16.5063C34.0864 16.5063 34.1234 16.5342 34.1489 16.58C34.1745 16.6257 34.1788 16.6719 34.1788 16.6719C34.1788 16.6719 34.142 16.6439 34.1163 16.5982Z" fill="#999999"/>
<path d="M33.9625 16.7089C33.9168 16.7344 33.8706 16.7388 33.8706 16.7388C33.8706 16.7388 33.8986 16.7018 33.9443 16.6763C33.99 16.6507 34.0362 16.6462 34.0362 16.6462C34.0362 16.6462 34.0082 16.6834 33.9625 16.7089Z" fill="#999999"/>
<path d="M34.3107 16.5227C34.265 16.5482 34.2188 16.5527 34.2188 16.5527C34.2188 16.5527 34.2467 16.5157 34.2924 16.4902C34.3381 16.4647 34.3843 16.4602 34.3843 16.4602C34.3843 16.4602 34.3564 16.4972 34.3107 16.5227Z" fill="#999999"/>
<path d="M33.8775 16.4799C33.852 16.4342 33.8477 16.3881 33.8477 16.3881C33.8477 16.3881 33.8846 16.4161 33.9102 16.4618C33.9357 16.5075 33.9402 16.5537 33.9402 16.5537C33.9402 16.5537 33.9032 16.5256 33.8775 16.4799Z" fill="#999999"/>
<path d="M34.2394 16.272C34.2138 16.2263 34.2095 16.1801 34.2095 16.1801C34.2095 16.1801 34.2465 16.2081 34.272 16.2538C34.2975 16.2995 34.3019 16.3457 34.3019 16.3457C34.3019 16.3457 34.2649 16.3176 34.2394 16.272Z" fill="#999999"/>
<path d="M34.0841 16.3821C34.0384 16.4076 33.9922 16.4121 33.9922 16.4121C33.9922 16.4121 34.0201 16.3751 34.0659 16.3496C34.1116 16.3241 34.1578 16.3197 34.1578 16.3197C34.1578 16.3197 34.1298 16.3565 34.0841 16.3821Z" fill="#999999"/>
<path d="M33.8072 16.2005C33.8529 16.175 33.899 16.1706 33.899 16.1706C33.899 16.1706 33.871 16.2076 33.8253 16.2331C33.7796 16.2587 33.7334 16.2632 33.7334 16.2632C33.7334 16.2632 33.7615 16.226 33.8072 16.2005Z" fill="#999999"/>
<path d="M34.169 15.9928C34.2148 15.9673 34.2608 15.9628 34.2608 15.9628C34.2608 15.9628 34.2329 15.9998 34.1871 16.0253C34.1414 16.0508 34.0952 16.0552 34.0952 16.0552C34.0952 16.0552 34.1233 16.0183 34.169 15.9928Z" fill="#999999"/>
<path d="M33.9822 16.121C33.9567 16.0753 33.9521 16.0292 33.9521 16.0292C33.9521 16.0292 33.9891 16.0572 34.0147 16.1029C34.0402 16.1486 34.0447 16.1948 34.0447 16.1948C34.0447 16.1948 34.0077 16.1667 33.9822 16.121Z" fill="#999999"/>
<path d="M34.1163 15.7846C34.0908 15.7389 34.0864 15.6928 34.0864 15.6928C34.0864 15.6928 34.1234 15.7208 34.1489 15.7665C34.1745 15.8122 34.1788 15.8584 34.1788 15.8584C34.1788 15.8584 34.142 15.8303 34.1163 15.7846Z" fill="#999999"/>
<path d="M33.962 15.8949C33.9163 15.9204 33.8701 15.9248 33.8701 15.9248C33.8701 15.9248 33.8981 15.8878 33.9438 15.8623C33.9895 15.8368 34.0357 15.8324 34.0357 15.8324C34.0357 15.8324 34.0078 15.8694 33.962 15.8949Z" fill="#999999"/>
<path d="M34.3107 15.7092C34.265 15.7347 34.2188 15.7393 34.2188 15.7393C34.2188 15.7393 34.2467 15.7023 34.2924 15.6767C34.3381 15.6512 34.3843 15.6467 34.3843 15.6467C34.3843 15.6467 34.3564 15.6837 34.3107 15.7092Z" fill="#999999"/>
<path d="M33.878 15.6651C33.8525 15.6194 33.8481 15.5732 33.8481 15.5732C33.8481 15.5732 33.8851 15.6011 33.9107 15.6468C33.9362 15.6926 33.9407 15.7388 33.9407 15.7388C33.9407 15.7388 33.9037 15.7108 33.878 15.6651Z" fill="#999999"/>
<path d="M34.2399 15.4571C34.2143 15.4114 34.21 15.3652 34.21 15.3652C34.21 15.3652 34.247 15.3931 34.2725 15.4388C34.298 15.4846 34.3024 15.5308 34.3024 15.5308C34.3024 15.5308 34.2654 15.5026 34.2399 15.4571Z" fill="#999999"/>
<path d="M34.0846 15.5668C34.0389 15.5923 33.9927 15.5967 33.9927 15.5967C33.9927 15.5967 34.0206 15.5597 34.0663 15.5342C34.1121 15.5086 34.1583 15.5041 34.1583 15.5041C34.1583 15.5041 34.1303 15.5413 34.0846 15.5668Z" fill="#999999"/>
<path d="M33.8077 15.3852C33.8534 15.3597 33.8995 15.3552 33.8995 15.3552C33.8995 15.3552 33.8715 15.3922 33.8258 15.4177C33.7801 15.4432 33.7339 15.4478 33.7339 15.4478C33.7339 15.4478 33.762 15.4108 33.8077 15.3852Z" fill="#999999"/>
<path d="M34.169 15.1777C34.2148 15.1522 34.2608 15.1477 34.2608 15.1477C34.2608 15.1477 34.2329 15.1847 34.1871 15.2102C34.1414 15.2357 34.0952 15.2402 34.0952 15.2402C34.0952 15.2402 34.1233 15.2032 34.169 15.1777Z" fill="#999999"/>
<path d="M33.9827 15.3052C33.9572 15.2595 33.9526 15.2133 33.9526 15.2133C33.9526 15.2133 33.9896 15.2413 34.0152 15.287C34.0407 15.3327 34.0452 15.3789 34.0452 15.3789C34.0452 15.3789 34.0082 15.351 33.9827 15.3052Z" fill="#999999"/>
<path d="M33.962 15.0793C33.9163 15.1049 33.8701 15.1094 33.8701 15.1094C33.8701 15.1094 33.8981 15.0724 33.9438 15.0469C33.9895 15.0213 34.0357 15.0168 34.0357 15.0168C34.0357 15.0168 34.0078 15.0538 33.962 15.0793Z" fill="#999999"/>
</g>
<defs>
<linearGradient id="paint0_linear_652_1194" x1="17.7383" y1="22.7952" x2="18.0598" y2="5.76758" gradientUnits="userSpaceOnUse">
<stop stop-color="#C7C5C5"/>
<stop offset="0.0359" stop-color="#676767"/>
<stop offset="0.1123" stop-color="white"/>
<stop offset="0.3019" stop-color="#929292"/>
<stop offset="0.492" stop-color="white"/>
<stop offset="0.6257" stop-color="#676767"/>
<stop offset="0.7701" stop-color="#929292"/>
<stop offset="0.8233" stop-color="#C7C5C5"/>
<stop offset="1" stop-color="#343433"/>
</linearGradient>
<linearGradient id="paint1_linear_652_1194" x1="18.1954" y1="18.2681" x2="18.0448" y2="18.2681" gradientUnits="userSpaceOnUse">
<stop offset="0.0051"/>
<stop offset="1" stop-opacity="0"/>
</linearGradient>
<linearGradient id="paint2_linear_652_1194" x1="17.8152" y1="21.7436" x2="17.8152" y2="21.2145" gradientUnits="userSpaceOnUse">
<stop offset="0.0051"/>
<stop offset="1" stop-opacity="0"/>
</linearGradient>
<linearGradient id="paint3_linear_652_1194" x1="20.1179" y1="6.40849" x2="20.6333" y2="6.38576" gradientUnits="userSpaceOnUse">
<stop stop-color="#C7C5C5"/>
<stop offset="0.0359" stop-color="#676767"/>
<stop offset="0.1123" stop-color="white"/>
<stop offset="0.3019" stop-color="#929292"/>
<stop offset="0.492" stop-color="white"/>
<stop offset="0.6809" stop-color="#676767"/>
<stop offset="0.7701" stop-color="#929292"/>
<stop offset="0.8233" stop-color="#C7C5C5"/>
<stop offset="1" stop-color="#343433"/>
</linearGradient>
<linearGradient id="paint4_linear_652_1194" x1="21.494" y1="6.40841" x2="20.9817" y2="6.38583" gradientUnits="userSpaceOnUse">
<stop stop-color="#C7C5C5"/>
<stop offset="0.0359" stop-color="#676767"/>
<stop offset="0.1123" stop-color="white"/>
<stop offset="0.3019" stop-color="#929292"/>
<stop offset="0.492" stop-color="white"/>
<stop offset="0.6809" stop-color="#676767"/>
<stop offset="0.7701" stop-color="#929292"/>
<stop offset="0.8233" stop-color="#C7C5C5"/>
<stop offset="1" stop-color="#343433"/>
</linearGradient>
<linearGradient id="paint5_linear_652_1194" x1="20.0075" y1="6.54956" x2="22.4995" y2="6.54956" gradientUnits="userSpaceOnUse">
<stop stop-color="#C7C5C5"/>
<stop offset="0.0359" stop-color="#676767"/>
<stop offset="0.1123" stop-color="white"/>
<stop offset="0.3019" stop-color="#929292"/>
<stop offset="0.492" stop-color="white"/>
<stop offset="0.6257" stop-color="#676767"/>
<stop offset="0.7701" stop-color="#929292"/>
<stop offset="0.8233" stop-color="#C7C5C5"/>
<stop offset="1" stop-color="#343433"/>
</linearGradient>
<linearGradient id="paint6_linear_652_1194" x1="30.3772" y1="6.40849" x2="30.8926" y2="6.38576" gradientUnits="userSpaceOnUse">
<stop stop-color="#C7C5C5"/>
<stop offset="0.0359" stop-color="#676767"/>
<stop offset="0.1123" stop-color="white"/>
<stop offset="0.3019" stop-color="#929292"/>
<stop offset="0.492" stop-color="white"/>
<stop offset="0.6809" stop-color="#676767"/>
<stop offset="0.7701" stop-color="#929292"/>
<stop offset="0.8233" stop-color="#C7C5C5"/>
<stop offset="1" stop-color="#343433"/>
</linearGradient>
<linearGradient id="paint7_linear_652_1194" x1="31.7533" y1="6.40841" x2="31.241" y2="6.38583" gradientUnits="userSpaceOnUse">
<stop stop-color="#C7C5C5"/>
<stop offset="0.0359" stop-color="#676767"/>
<stop offset="0.1123" stop-color="white"/>
<stop offset="0.3019" stop-color="#929292"/>
<stop offset="0.492" stop-color="white"/>
<stop offset="0.6809" stop-color="#676767"/>
<stop offset="0.7701" stop-color="#929292"/>
<stop offset="0.8233" stop-color="#C7C5C5"/>
<stop offset="1" stop-color="#343433"/>
</linearGradient>
<linearGradient id="paint8_linear_652_1194" x1="30.2668" y1="6.54956" x2="32.7589" y2="6.54956" gradientUnits="userSpaceOnUse">
<stop stop-color="#C7C5C5"/>
<stop offset="0.0359" stop-color="#676767"/>
<stop offset="0.1123" stop-color="white"/>
<stop offset="0.3019" stop-color="#929292"/>
<stop offset="0.492" stop-color="white"/>
<stop offset="0.6257" stop-color="#676767"/>
<stop offset="0.7701" stop-color="#929292"/>
<stop offset="0.8233" stop-color="#C7C5C5"/>
<stop offset="1" stop-color="#343433"/>
</linearGradient>
<linearGradient id="paint9_linear_652_1194" x1="17.2491" y1="7.65193" x2="42.2631" y2="7.77247" gradientUnits="userSpaceOnUse">
<stop stop-color="#C7C5C5"/>
<stop offset="0.0359" stop-color="#676767"/>
<stop offset="0.1123" stop-color="white"/>
<stop offset="0.3019" stop-color="#929292"/>
<stop offset="0.492" stop-color="white"/>
<stop offset="0.6257" stop-color="#676767"/>
<stop offset="0.7701" stop-color="#929292"/>
<stop offset="0.8233" stop-color="#C7C5C5"/>
<stop offset="1" stop-color="#343433"/>
</linearGradient>
<linearGradient id="paint10_linear_652_1194" x1="17.2491" y1="7.65193" x2="42.2631" y2="7.77247" gradientUnits="userSpaceOnUse">
<stop stop-color="#C7C5C5"/>
<stop offset="0.0359" stop-color="#676767"/>
<stop offset="0.1123" stop-color="white"/>
<stop offset="0.3019" stop-color="#929292"/>
<stop offset="0.492" stop-color="white"/>
<stop offset="0.6257" stop-color="#676767"/>
<stop offset="0.7701" stop-color="#929292"/>
<stop offset="0.8233" stop-color="#C7C5C5"/>
<stop offset="1" stop-color="#343433"/>
</linearGradient>
<radialGradient id="paint11_radial_652_1194" cx="0" cy="0" r="1" gradientUnits="userSpaceOnUse" gradientTransform="translate(16.2621 13.8273) scale(18.0444 18.0446)">
<stop offset="0.0102"/>
<stop offset="1" stop-opacity="0"/>
</radialGradient>
<linearGradient id="paint12_linear_652_1194" x1="18.6313" y1="14.3628" x2="33.2426" y2="14.3628" gradientUnits="userSpaceOnUse">
<stop offset="0.3386" stop-color="white" stop-opacity="0"/>
<stop offset="0.6521" stop-color="white"/>
</linearGradient>
<linearGradient id="paint13_linear_652_1194" x1="22.1301" y1="12.4065" x2="21.6314" y2="12.3692" gradientUnits="userSpaceOnUse">
<stop offset="0.0051"/>
<stop offset="1" stop-opacity="0"/>
</linearGradient>
<linearGradient id="paint14_linear_652_1194" x1="29.737" y1="12.4065" x2="30.2357" y2="12.3691" gradientUnits="userSpaceOnUse">
<stop offset="0.0051" stop-color="#999999"/>
<stop offset="1" stop-color="#999999" stop-opacity="0"/>
</linearGradient>
<linearGradient id="paint15_linear_652_1194" x1="25.9375" y1="12.0411" x2="25.9375" y2="12.4711" gradientUnits="userSpaceOnUse">
<stop offset="0.0051"/>
<stop offset="1" stop-opacity="0"/>
</linearGradient>
<radialGradient id="paint16_radial_652_1194" cx="0" cy="0" r="1" gradientUnits="userSpaceOnUse" gradientTransform="translate(19.1059 15.0196) scale(11.9321 11.9322)">
<stop stop-color="white" stop-opacity="0"/>
<stop offset="1" stop-color="white"/>
</radialGradient>
<radialGradient id="paint17_radial_652_1194" cx="0" cy="0" r="1" gradientUnits="userSpaceOnUse" gradientTransform="translate(20.4782 15.7005) scale(11.4863 11.4864)">
<stop offset="0.0102"/>
<stop offset="1" stop-opacity="0"/>
</radialGradient>
<linearGradient id="paint18_linear_652_1194" x1="18.4758" y1="17.2993" x2="18.5343" y2="17.2993" gradientUnits="userSpaceOnUse">
<stop offset="0.0051"/>
<stop offset="1" stop-opacity="0"/>
</linearGradient>
<linearGradient id="paint19_linear_652_1194" x1="18.5933" y1="17.4052" x2="18.8343" y2="17.4052" gradientUnits="userSpaceOnUse">
<stop stop-color="white"/>
<stop offset="1" stop-color="white" stop-opacity="0"/>
</linearGradient>
<linearGradient id="paint20_linear_652_1194" x1="18.9949" y1="17.4052" x2="19.3202" y2="17.4052" gradientUnits="userSpaceOnUse">
<stop stop-opacity="0"/>
<stop offset="0.9898"/>
</linearGradient>
<linearGradient id="paint21_linear_652_1194" x1="33.4391" y1="17.2983" x2="33.3806" y2="17.2983" gradientUnits="userSpaceOnUse">
<stop offset="0.0051"/>
<stop offset="1" stop-opacity="0"/>
</linearGradient>
<linearGradient id="paint22_linear_652_1194" x1="33.3215" y1="17.4042" x2="33.0806" y2="17.4042" gradientUnits="userSpaceOnUse">
<stop stop-color="white"/>
<stop offset="1" stop-color="white" stop-opacity="0"/>
</linearGradient>
<linearGradient id="paint23_linear_652_1194" x1="32.92" y1="17.4042" x2="32.5946" y2="17.4042" gradientUnits="userSpaceOnUse">
<stop stop-opacity="0"/>
<stop offset="0.9898"/>
</linearGradient>
<linearGradient id="paint24_linear_652_1194" x1="17.7288" y1="14.1823" x2="17.774" y2="14.3066" gradientUnits="userSpaceOnUse">
<stop stop-color="white"/>
<stop offset="1" stop-color="white" stop-opacity="0"/>
</linearGradient>
<linearGradient id="paint25_linear_652_1194" x1="18.1828" y1="14.3639" x2="17.3691" y2="14.8197" gradientUnits="userSpaceOnUse">
<stop offset="0.0051"/>
<stop offset="1" stop-opacity="0"/>
</linearGradient>
<linearGradient id="paint26_linear_652_1194" x1="34.201" y1="14.1823" x2="34.1558" y2="14.3066" gradientUnits="userSpaceOnUse">
<stop stop-color="white"/>
<stop offset="1" stop-color="white" stop-opacity="0"/>
</linearGradient>
<linearGradient id="paint27_linear_652_1194" x1="33.747" y1="14.3639" x2="34.5608" y2="14.8197" gradientUnits="userSpaceOnUse">
<stop offset="0.0051"/>
<stop offset="1" stop-opacity="0"/>
</linearGradient>
<linearGradient id="paint28_linear_652_1194" x1="25.8562" y1="20.9081" x2="25.8562" y2="20.531" gradientUnits="userSpaceOnUse">
<stop stop-opacity="0"/>
<stop offset="0.9898"/>
</linearGradient>
<radialGradient id="paint29_radial_652_1194" cx="0" cy="0" r="1" gradientUnits="userSpaceOnUse" gradientTransform="translate(25.9369 19.9151) scale(3.41311 3.41313)">
<stop stop-color="white" stop-opacity="0"/>
<stop offset="1" stop-color="white"/>
</radialGradient>
<linearGradient id="paint30_linear_652_1194" x1="25.9369" y1="20.3212" x2="25.9369" y2="20.6304" gradientUnits="userSpaceOnUse">
<stop stop-opacity="0"/>
<stop offset="0.9898"/>
</linearGradient>
<linearGradient id="paint31_linear_652_1194" x1="21.3574" y1="19.6129" x2="30.5164" y2="19.6129" gradientUnits="userSpaceOnUse">
<stop stop-color="white" stop-opacity="0"/>
<stop offset="1" stop-color="white"/>
</linearGradient>
<linearGradient id="paint32_linear_652_1194" x1="27.4508" y1="20.2169" x2="21.829" y2="20.2169" gradientUnits="userSpaceOnUse">
<stop stop-color="white" stop-opacity="0"/>
<stop offset="1" stop-color="white"/>
</linearGradient>
<radialGradient id="paint33_radial_652_1194" cx="0" cy="0" r="1" gradientUnits="userSpaceOnUse" gradientTransform="translate(33.7822 23.351) scale(21.8 21.8002)">
<stop stop-color="white" stop-opacity="0"/>
<stop offset="1" stop-color="white"/>
</radialGradient>
<linearGradient id="paint34_linear_652_1194" x1="19.9924" y1="45.673" x2="18.0787" y2="45.9593" gradientUnits="userSpaceOnUse">
<stop stop-color="white" stop-opacity="0"/>
<stop offset="1" stop-color="white"/>
</linearGradient>
<linearGradient id="paint35_linear_652_1194" x1="19.2109" y1="45.7131" x2="19.2109" y2="45.8158" gradientUnits="userSpaceOnUse">
<stop stop-color="white" stop-opacity="0"/>
<stop offset="1" stop-color="white"/>
</linearGradient>
<linearGradient id="paint36_linear_652_1194" x1="33.173" y1="45.672" x2="31.2593" y2="45.9583" gradientUnits="userSpaceOnUse">
<stop stop-color="white" stop-opacity="0"/>
<stop offset="1" stop-color="white"/>
</linearGradient>
<linearGradient id="paint37_linear_652_1194" x1="32.391" y1="45.7131" x2="32.391" y2="45.8158" gradientUnits="userSpaceOnUse">
<stop stop-color="white" stop-opacity="0"/>
<stop offset="1" stop-color="white"/>
</linearGradient>
<linearGradient id="paint38_linear_652_1194" x1="25.7519" y1="45.773" x2="25.7519" y2="45.6323" gradientUnits="userSpaceOnUse">
<stop stop-opacity="0"/>
<stop offset="0.9898"/>
</linearGradient>
<linearGradient id="paint39_linear_652_1194" x1="34.1861" y1="22.7952" x2="33.8646" y2="5.76758" gradientUnits="userSpaceOnUse">
<stop stop-color="#C7C5C5"/>
<stop offset="0.0359" stop-color="#676767"/>
<stop offset="0.1123" stop-color="white"/>
<stop offset="0.3019" stop-color="#929292"/>
<stop offset="0.492" stop-color="white"/>
<stop offset="0.6257" stop-color="#676767"/>
<stop offset="0.7701" stop-color="#929292"/>
<stop offset="0.8233" stop-color="#C7C5C5"/>
<stop offset="1" stop-color="#343433"/>
</linearGradient>
<linearGradient id="paint40_linear_652_1194" x1="33.7292" y1="18.2681" x2="33.8799" y2="18.2681" gradientUnits="userSpaceOnUse">
<stop offset="0.0051"/>
<stop offset="1" stop-opacity="0"/>
</linearGradient>
<linearGradient id="paint41_linear_652_1194" x1="34.1094" y1="21.7436" x2="34.1094" y2="21.2145" gradientUnits="userSpaceOnUse">
<stop offset="0.0051"/>
<stop offset="1" stop-opacity="0"/>
</linearGradient>
</defs>
</svg>
