<svg width="41" height="19" viewBox="0 0 41 19" fill="none" xmlns="http://www.w3.org/2000/svg">
<path d="M16.209 18.0894L10.2993 18.0894C10.1249 18.0894 9.95767 18.02 9.83424 17.8968L9.258 17.3205L16.209 17.3205L16.209 18.0894Z" fill="#CCCCCC"/>
<path d="M16.0879 17.9688L16.0879 17.4408L9.54837 17.4408L9.9188 17.8114C10.0203 17.9129 10.1552 17.9688 10.2986 17.9688L16.0879 17.9688Z" fill="url(#paint0_linear_580_4520)"/>
<path opacity="0.5" d="M16.209 18.0894L10.2993 18.0894C10.1249 18.0894 9.95767 18.02 9.83424 17.8968L9.258 17.3205L16.209 17.3205L16.209 18.0894Z" fill="url(#paint1_linear_580_4520)"/>
<path opacity="0.4" d="M16.209 18.0894L10.2993 18.0894C10.1249 18.0894 9.95767 18.02 9.83424 17.8968L9.258 17.3205L16.209 17.3205L16.209 18.0894Z" fill="url(#paint2_linear_580_4520)"/>
<mask id="mask0_580_4520" style="mask-type:luminance" maskUnits="userSpaceOnUse" x="9" y="17" width="8" height="1">
<path d="M16.0879 17.9683L16.0879 17.4403L9.54837 17.4403L9.9188 17.8109C10.0203 17.9124 10.1552 17.9683 10.2986 17.9683L16.0879 17.9683Z" fill="white"/>
</mask>
<g mask="url(#mask0_580_4520)">
<path d="M16.0371 17.5604C16.0116 17.6061 16.007 17.6523 16.007 17.6523C16.007 17.6523 16.044 17.6244 16.0696 17.5787C16.0951 17.533 16.0996 17.4868 16.0996 17.4868C16.0996 17.4868 16.0626 17.5147 16.0371 17.5604Z" fill="#999999"/>
<path d="M15.8286 17.9222C15.8031 17.968 15.7985 18.0142 15.7985 18.0142C15.7985 18.0142 15.8355 17.9862 15.8611 17.9405C15.8866 17.8948 15.8911 17.8486 15.8911 17.8486C15.8911 17.8486 15.8541 17.8765 15.8286 17.9222Z" fill="#999999"/>
<path d="M15.9569 17.7353C15.9112 17.7098 15.8652 17.7053 15.8652 17.7053C15.8652 17.7053 15.8931 17.7423 15.9388 17.7678C15.9846 17.7933 16.0308 17.7979 16.0308 17.7979C16.0308 17.7979 16.0027 17.7609 15.9569 17.7353Z" fill="#999999"/>
<path d="M15.8292 17.5078C15.7834 17.4823 15.7372 17.4777 15.7372 17.4777C15.7372 17.4777 15.7652 17.5147 15.8109 17.5403C15.8566 17.5658 15.9028 17.5703 15.9028 17.5703C15.9028 17.5703 15.8749 17.5333 15.8292 17.5078Z" fill="#999999"/>
<path d="M15.621 17.8696C15.5753 17.8441 15.5292 17.8397 15.5292 17.8397C15.5292 17.8397 15.5572 17.8767 15.6029 17.9022C15.6486 17.9278 15.6948 17.9321 15.6948 17.9321C15.6948 17.9321 15.6667 17.8951 15.621 17.8696Z" fill="#999999"/>
<path d="M15.7317 17.7149C15.7572 17.6692 15.7617 17.623 15.7617 17.623C15.7617 17.623 15.7247 17.6509 15.6992 17.6967C15.6737 17.7424 15.6692 17.7886 15.6692 17.7886C15.6692 17.7886 15.7061 17.7606 15.7317 17.7149Z" fill="#999999"/>
<path d="M15.5503 17.438C15.5247 17.4837 15.5204 17.5298 15.5204 17.5298C15.5204 17.5298 15.5574 17.5018 15.5829 17.4561C15.6084 17.4104 15.6128 17.3644 15.6128 17.3644C15.6128 17.3644 15.5758 17.3923 15.5503 17.438Z" fill="#999999"/>
<path d="M15.3423 17.7997C15.3167 17.8454 15.3124 17.8916 15.3124 17.8916C15.3124 17.8916 15.3494 17.8637 15.3749 17.8179C15.4004 17.7722 15.4048 17.726 15.4048 17.726C15.4048 17.726 15.3678 17.754 15.3423 17.7997Z" fill="#999999"/>
<path d="M15.4704 17.6123C15.4247 17.5868 15.3785 17.5822 15.3785 17.5822C15.3785 17.5822 15.4065 17.6192 15.4522 17.6448C15.4979 17.6703 15.5439 17.6748 15.5439 17.6748C15.5439 17.6748 15.5162 17.6378 15.4704 17.6123Z" fill="#999999"/>
<path d="M15.3423 17.3856C15.2966 17.36 15.2504 17.3557 15.2504 17.3557C15.2504 17.3557 15.2784 17.3927 15.3241 17.4182C15.3698 17.4437 15.416 17.4482 15.416 17.4482C15.416 17.4482 15.3881 17.4111 15.3423 17.3856Z" fill="#999999"/>
<path d="M15.1345 17.748C15.0888 17.7225 15.0426 17.7181 15.0426 17.7181C15.0426 17.7181 15.0705 17.7551 15.1162 17.7807C15.162 17.8062 15.208 17.8105 15.208 17.8105C15.208 17.8105 15.1802 17.7736 15.1345 17.748Z" fill="#999999"/>
<path d="M15.244 17.593C15.2696 17.5473 15.2739 17.5011 15.2739 17.5011C15.2739 17.5011 15.2369 17.529 15.2114 17.5747C15.1859 17.6205 15.1815 17.6665 15.1815 17.6665C15.1815 17.6665 15.2185 17.6387 15.244 17.593Z" fill="#999999"/>
<path d="M15.0583 17.9424C15.0839 17.8967 15.0884 17.8505 15.0884 17.8505C15.0884 17.8505 15.0514 17.8785 15.0259 17.9242C15.0003 17.9699 14.9958 18.0161 14.9958 18.0161C14.9958 18.0161 15.0328 17.9882 15.0583 17.9424Z" fill="#999999"/>
<path d="M15.018 17.4746C14.9723 17.4491 14.9262 17.4447 14.9262 17.4447C14.9262 17.4447 14.9542 17.4817 14.9999 17.5072C15.0456 17.5327 15.0918 17.5371 15.0918 17.5371C15.0918 17.5371 15.0637 17.5001 15.018 17.4746Z" fill="#999999"/>
<path d="M14.8101 17.8364C14.7644 17.8109 14.7182 17.8065 14.7182 17.8065C14.7182 17.8065 14.7461 17.8435 14.7919 17.869C14.8376 17.8946 14.8838 17.8989 14.8838 17.8989C14.8838 17.8989 14.8558 17.8619 14.8101 17.8364Z" fill="#999999"/>
<path d="M14.9203 17.6812C14.9458 17.6355 14.9502 17.5893 14.9502 17.5893C14.9502 17.5893 14.9132 17.6172 14.8877 17.663C14.8622 17.7087 14.8578 17.7549 14.8578 17.7549C14.8578 17.7549 14.8948 17.7269 14.9203 17.6812Z" fill="#999999"/>
<path d="M14.7379 17.4047C14.7124 17.4504 14.7079 17.4966 14.7079 17.4966C14.7079 17.4966 14.7449 17.4686 14.7704 17.4229C14.7959 17.3772 14.8003 17.331 14.8003 17.331C14.8003 17.331 14.7635 17.3589 14.7379 17.4047Z" fill="#999999"/>
<path d="M14.5303 17.7665C14.5047 17.8122 14.5002 17.8584 14.5002 17.8584C14.5002 17.8584 14.5372 17.8305 14.5627 17.7847C14.5882 17.739 14.5928 17.6928 14.5928 17.6928C14.5928 17.6928 14.5558 17.7208 14.5303 17.7665Z" fill="#999999"/>
<path d="M14.6583 17.5796C14.6125 17.554 14.5663 17.5495 14.5663 17.5495C14.5663 17.5495 14.5943 17.5865 14.64 17.612C14.6857 17.6376 14.7319 17.6421 14.7319 17.6421C14.7319 17.6421 14.704 17.6051 14.6583 17.5796Z" fill="#999999"/>
<path d="M14.3228 17.7148C14.2771 17.6893 14.2309 17.6849 14.2309 17.6849C14.2309 17.6849 14.2588 17.7219 14.3046 17.7475C14.3503 17.773 14.3965 17.7773 14.3965 17.7773C14.3965 17.7773 14.3685 17.7404 14.3228 17.7148Z" fill="#999999"/>
<path d="M14.4328 17.5601C14.4584 17.5144 14.4629 17.4682 14.4629 17.4682C14.4629 17.4682 14.4259 17.4962 14.4004 17.5419C14.3748 17.5876 14.3703 17.6338 14.3703 17.6338C14.3703 17.6338 14.4073 17.6058 14.4328 17.5601Z" fill="#999999"/>
<path d="M14.2473 17.9088C14.2728 17.863 14.2773 17.8168 14.2773 17.8168C14.2773 17.8168 14.2403 17.8448 14.2148 17.8905C14.1893 17.9362 14.1849 17.9824 14.1849 17.9824C14.1849 17.9824 14.2218 17.9545 14.2473 17.9088Z" fill="#999999"/>
<path d="M14.2032 17.4741C14.1575 17.4486 14.1113 17.4442 14.1113 17.4442C14.1113 17.4442 14.1392 17.4812 14.1849 17.5067C14.2307 17.5323 14.2769 17.5366 14.2769 17.5366C14.2769 17.5366 14.2489 17.4996 14.2032 17.4741Z" fill="#999999"/>
<path d="M13.995 17.8359C13.9493 17.8104 13.9033 17.806 13.9033 17.806C13.9033 17.806 13.9312 17.843 13.9769 17.8686C14.0226 17.8941 14.0688 17.8984 14.0688 17.8984C14.0688 17.8984 14.0407 17.8614 13.995 17.8359Z" fill="#999999"/>
<path d="M14.1049 17.6807C14.1304 17.635 14.1348 17.5888 14.1348 17.5888C14.1348 17.5888 14.0978 17.6168 14.0722 17.6625C14.0467 17.7082 14.0424 17.7544 14.0424 17.7544C14.0424 17.7544 14.0794 17.7264 14.1049 17.6807Z" fill="#999999"/>
<path d="M13.9236 17.4042C13.8981 17.4499 13.8938 17.4961 13.8938 17.4961C13.8938 17.4961 13.9308 17.4681 13.9563 17.4224C13.9818 17.3767 13.9863 17.3305 13.9863 17.3305C13.9863 17.3305 13.9492 17.3585 13.9236 17.4042Z" fill="#999999"/>
<path d="M13.7148 17.766C13.6893 17.8117 13.6848 17.8579 13.6848 17.8579C13.6848 17.8579 13.7218 17.83 13.7473 17.7842C13.7728 17.7385 13.7773 17.6923 13.7773 17.6923C13.7773 17.6923 13.7403 17.7203 13.7148 17.766Z" fill="#999999"/>
<path d="M13.8428 17.5791C13.7971 17.5536 13.7509 17.549 13.7509 17.549C13.7509 17.549 13.7789 17.586 13.8246 17.6116C13.8703 17.6371 13.9165 17.6416 13.9165 17.6416C13.9165 17.6416 13.8886 17.6046 13.8428 17.5791Z" fill="#999999"/>
<path d="M13.508 17.7143C13.4623 17.6888 13.4161 17.6845 13.4161 17.6845C13.4161 17.6845 13.4441 17.7214 13.4898 17.747C13.5355 17.7725 13.5815 17.7769 13.5815 17.7769C13.5815 17.7769 13.5538 17.7399 13.508 17.7143Z" fill="#999999"/>
<path d="M13.6179 17.5596C13.6434 17.5139 13.6479 17.4677 13.6479 17.4677C13.6479 17.4677 13.611 17.4957 13.5854 17.5414C13.5599 17.5871 13.5554 17.6333 13.5554 17.6333C13.5554 17.6333 13.5924 17.6054 13.6179 17.5596Z" fill="#999999"/>
<path d="M13.432 17.9083C13.4576 17.8626 13.4619 17.8163 13.4619 17.8163C13.4619 17.8163 13.4249 17.8443 13.3994 17.89C13.3739 17.9357 13.3695 17.9819 13.3695 17.9819C13.3695 17.9819 13.4065 17.954 13.432 17.9083Z" fill="#999999"/>
<path d="M13.3884 17.4746C13.3427 17.4491 13.2965 17.4447 13.2965 17.4447C13.2965 17.4447 13.3244 17.4817 13.3702 17.5072C13.4159 17.5327 13.4619 17.5371 13.4619 17.5371C13.4619 17.5371 13.4341 17.5001 13.3884 17.4746Z" fill="#999999"/>
<path d="M13.1802 17.8364C13.1345 17.8109 13.0883 17.8065 13.0883 17.8065C13.0883 17.8065 13.1163 17.8435 13.162 17.869C13.2077 17.8946 13.2539 17.8989 13.2539 17.8989C13.2539 17.8989 13.226 17.8619 13.1802 17.8364Z" fill="#999999"/>
<path d="M13.2903 17.6812C13.3158 17.6355 13.3203 17.5893 13.3203 17.5893C13.3203 17.5893 13.2833 17.6172 13.2578 17.663C13.2323 17.7087 13.2279 17.7549 13.2279 17.7549C13.2279 17.7549 13.2647 17.7269 13.2903 17.6812Z" fill="#999999"/>
<path d="M13.1094 17.4047C13.0838 17.4504 13.0795 17.4966 13.0795 17.4966C13.0795 17.4966 13.1165 17.4686 13.142 17.4229C13.1675 17.3772 13.1719 17.331 13.1719 17.331C13.1719 17.331 13.1349 17.3589 13.1094 17.4047Z" fill="#999999"/>
<path d="M12.9012 17.7665C12.8757 17.8122 12.8713 17.8584 12.8713 17.8584C12.8713 17.8584 12.9083 17.8305 12.9338 17.7847C12.9593 17.739 12.9639 17.6928 12.9639 17.6928C12.9639 17.6928 12.9267 17.7208 12.9012 17.7665Z" fill="#999999"/>
<path d="M13.0297 17.5796C12.984 17.554 12.9379 17.5495 12.9379 17.5495C12.9379 17.5495 12.9659 17.5865 13.0116 17.612C13.0573 17.6376 13.1035 17.6421 13.1035 17.6421C13.1035 17.6421 13.0754 17.6051 13.0297 17.5796Z" fill="#999999"/>
<path d="M12.6934 17.7148C12.6477 17.6893 12.6015 17.6849 12.6015 17.6849C12.6015 17.6849 12.6294 17.7219 12.6752 17.7475C12.7209 17.773 12.7671 17.7773 12.7671 17.7773C12.7671 17.7773 12.7391 17.7404 12.6934 17.7148Z" fill="#999999"/>
<path d="M12.8044 17.5601C12.8299 17.5144 12.8345 17.4682 12.8345 17.4682C12.8345 17.4682 12.7975 17.4962 12.772 17.5419C12.7464 17.5876 12.7419 17.6338 12.7419 17.6338C12.7419 17.6338 12.7789 17.6058 12.8044 17.5601Z" fill="#999999"/>
<path d="M12.619 17.9088C12.6446 17.863 12.6489 17.8168 12.6489 17.8168C12.6489 17.8168 12.6119 17.8448 12.5864 17.8905C12.5609 17.9362 12.5565 17.9824 12.5565 17.9824C12.5565 17.9824 12.5934 17.9545 12.619 17.9088Z" fill="#999999"/>
<path d="M12.5748 17.4741C12.5291 17.4486 12.4829 17.4442 12.4829 17.4442C12.4829 17.4442 12.5108 17.4812 12.5565 17.5067C12.6022 17.5323 12.6484 17.5366 12.6484 17.5366C12.6484 17.5366 12.6205 17.4996 12.5748 17.4741Z" fill="#999999"/>
<path d="M12.3669 17.8359C12.3212 17.8104 12.275 17.806 12.275 17.806C12.275 17.806 12.303 17.843 12.3487 17.8686C12.3944 17.8941 12.4404 17.8984 12.4404 17.8984C12.4404 17.8984 12.4126 17.8614 12.3669 17.8359Z" fill="#999999"/>
<path d="M12.4768 17.6807C12.5023 17.635 12.5068 17.5888 12.5068 17.5888C12.5068 17.5888 12.4698 17.6168 12.4443 17.6625C12.4188 17.7082 12.4144 17.7544 12.4144 17.7544C12.4144 17.7544 12.4513 17.7264 12.4768 17.6807Z" fill="#999999"/>
<path d="M12.2949 17.4042C12.2694 17.4499 12.265 17.4961 12.265 17.4961C12.265 17.4961 12.302 17.4681 12.3275 17.4224C12.3531 17.3767 12.3574 17.3305 12.3574 17.3305C12.3574 17.3305 12.3204 17.3585 12.2949 17.4042Z" fill="#999999"/>
<path d="M12.0869 17.766C12.0614 17.8117 12.057 17.8579 12.057 17.8579C12.057 17.8579 12.094 17.83 12.1195 17.7842C12.1451 17.7385 12.1494 17.6923 12.1494 17.6923C12.1494 17.6923 12.1124 17.7203 12.0869 17.766Z" fill="#999999"/>
<path d="M12.2149 17.5791C12.1692 17.5536 12.123 17.549 12.123 17.549C12.123 17.549 12.1509 17.586 12.1967 17.6116C12.2424 17.6371 12.2886 17.6416 12.2886 17.6416C12.2886 17.6416 12.2606 17.6046 12.2149 17.5791Z" fill="#999999"/>
<path d="M11.8785 17.7143C11.8328 17.6888 11.7866 17.6845 11.7866 17.6845C11.7866 17.6845 11.8145 17.7214 11.8602 17.747C11.9059 17.7725 11.9521 17.7769 11.9521 17.7769C11.9521 17.7769 11.9242 17.7399 11.8785 17.7143Z" fill="#999999"/>
<path d="M11.9896 17.5596C12.0152 17.5139 12.0195 17.4677 12.0195 17.4677C12.0195 17.4677 11.9825 17.4957 11.957 17.5414C11.9315 17.5871 11.9271 17.6333 11.9271 17.6333C11.9271 17.6333 11.9641 17.6054 11.9896 17.5596Z" fill="#999999"/>
<path d="M11.8031 17.9083C11.8286 17.8626 11.833 17.8163 11.833 17.8163C11.833 17.8163 11.796 17.8443 11.7705 17.89C11.745 17.9357 11.7406 17.9819 11.7406 17.9819C11.7406 17.9819 11.7774 17.954 11.8031 17.9083Z" fill="#999999"/>
<path d="M11.7593 17.4741C11.7136 17.4486 11.6674 17.4442 11.6674 17.4442C11.6674 17.4442 11.6954 17.4812 11.7411 17.5067C11.7868 17.5323 11.833 17.5366 11.833 17.5366C11.833 17.5366 11.8051 17.4996 11.7593 17.4741Z" fill="#999999"/>
<path d="M11.5513 17.8359C11.5056 17.8104 11.4594 17.806 11.4594 17.806C11.4594 17.806 11.4874 17.843 11.5331 17.8686C11.5788 17.8941 11.625 17.8984 11.625 17.8984C11.625 17.8984 11.5971 17.8614 11.5513 17.8359Z" fill="#999999"/>
<path d="M11.6614 17.6807C11.6869 17.635 11.6914 17.5888 11.6914 17.5888C11.6914 17.5888 11.6544 17.6168 11.6289 17.6625C11.6034 17.7082 11.5988 17.7544 11.5988 17.7544C11.5988 17.7544 11.6358 17.7264 11.6614 17.6807Z" fill="#999999"/>
<path d="M11.4801 17.4042C11.4546 17.4499 11.4501 17.4961 11.4501 17.4961C11.4501 17.4961 11.4871 17.4681 11.5126 17.4224C11.5381 17.3767 11.5425 17.3305 11.5425 17.3305C11.5425 17.3305 11.5056 17.3585 11.4801 17.4042Z" fill="#999999"/>
<path d="M11.2724 17.766C11.2469 17.8117 11.2426 17.8579 11.2426 17.8579C11.2426 17.8579 11.2795 17.83 11.3051 17.7842C11.3306 17.7385 11.335 17.6923 11.335 17.6923C11.335 17.6923 11.298 17.7203 11.2724 17.766Z" fill="#999999"/>
<path d="M11.4001 17.5791C11.3544 17.5536 11.3082 17.549 11.3082 17.549C11.3082 17.549 11.3362 17.586 11.3819 17.6116C11.4276 17.6371 11.4736 17.6416 11.4736 17.6416C11.4736 17.6416 11.4458 17.6046 11.4001 17.5791Z" fill="#999999"/>
<path d="M11.0645 17.7143C11.0188 17.6888 10.9726 17.6845 10.9726 17.6845C10.9726 17.6845 11.0005 17.7214 11.0463 17.747C11.092 17.7725 11.1382 17.7769 11.1382 17.7769C11.1382 17.7769 11.1102 17.7399 11.0645 17.7143Z" fill="#999999"/>
<path d="M11.1742 17.5601C11.1997 17.5144 11.2041 17.4682 11.2041 17.4682C11.2041 17.4682 11.1671 17.4962 11.1416 17.5419C11.1161 17.5876 11.1115 17.6338 11.1115 17.6338C11.1115 17.6338 11.1487 17.6058 11.1742 17.5601Z" fill="#999999"/>
<path d="M10.9895 17.9083C11.015 17.8626 11.0195 17.8163 11.0195 17.8163C11.0195 17.8163 10.9825 17.8443 10.957 17.89C10.9315 17.9357 10.927 17.9819 10.927 17.9819C10.927 17.9819 10.964 17.954 10.9895 17.9083Z" fill="#999999"/>
<path d="M10.9447 17.4746C10.899 17.4491 10.853 17.4447 10.853 17.4447C10.853 17.4447 10.8809 17.4817 10.9266 17.5072C10.9724 17.5327 11.0186 17.5371 11.0186 17.5371C11.0186 17.5371 10.9904 17.5001 10.9447 17.4746Z" fill="#999999"/>
<path d="M10.7364 17.8364C10.6907 17.8109 10.6445 17.8065 10.6445 17.8065C10.6445 17.8065 10.6724 17.8435 10.7181 17.869C10.7639 17.8946 10.8101 17.8989 10.8101 17.8989C10.8101 17.8989 10.782 17.8619 10.7364 17.8364Z" fill="#999999"/>
<path d="M10.8474 17.6812C10.8729 17.6355 10.8774 17.5893 10.8774 17.5893C10.8774 17.5893 10.8404 17.6172 10.8149 17.663C10.7894 17.7087 10.785 17.7549 10.785 17.7549C10.785 17.7549 10.8219 17.7269 10.8474 17.6812Z" fill="#999999"/>
<path d="M10.6658 17.4047C10.6403 17.4504 10.6359 17.4966 10.6359 17.4966C10.6359 17.4966 10.6729 17.4686 10.6985 17.4229C10.724 17.3772 10.7285 17.331 10.7285 17.331C10.7285 17.331 10.6914 17.3589 10.6658 17.4047Z" fill="#999999"/>
<path d="M10.4581 17.7665C10.4326 17.8122 10.4281 17.8584 10.4281 17.8584C10.4281 17.8584 10.4651 17.8305 10.4906 17.7847C10.5161 17.739 10.5205 17.6928 10.5205 17.6928C10.5205 17.6928 10.4837 17.7208 10.4581 17.7665Z" fill="#999999"/>
<path d="M10.5858 17.5796C10.5401 17.554 10.4941 17.5495 10.4941 17.5495C10.4941 17.5495 10.522 17.5865 10.5677 17.612C10.6135 17.6376 10.6597 17.6421 10.6597 17.6421C10.6597 17.6421 10.6316 17.6051 10.5858 17.5796Z" fill="#999999"/>
<path d="M10.2509 17.7148C10.2052 17.6893 10.1591 17.6849 10.1591 17.6849C10.1591 17.6849 10.1871 17.7219 10.2328 17.7475C10.2785 17.773 10.3247 17.7773 10.3247 17.7773C10.3247 17.7773 10.2966 17.7404 10.2509 17.7148Z" fill="#999999"/>
<path d="M10.3603 17.5601C10.3858 17.5144 10.3901 17.4682 10.3901 17.4682C10.3901 17.4682 10.3531 17.4962 10.3276 17.5419C10.3021 17.5876 10.2977 17.6338 10.2977 17.6338C10.2977 17.6338 10.3347 17.6058 10.3603 17.5601Z" fill="#999999"/>
<path d="M10.1745 17.9088C10.2001 17.863 10.2046 17.8168 10.2046 17.8168C10.2046 17.8168 10.1676 17.8448 10.1421 17.8905C10.1165 17.9362 10.112 17.9824 10.112 17.9824C10.112 17.9824 10.149 17.9545 10.1745 17.9088Z" fill="#999999"/>
<path d="M10.1309 17.4736C10.0852 17.4481 10.039 17.4437 10.039 17.4437C10.039 17.4437 10.0669 17.4807 10.1127 17.5062C10.1584 17.5318 10.2046 17.5361 10.2046 17.5361C10.2046 17.5361 10.1766 17.4991 10.1309 17.4736Z" fill="#999999"/>
<path d="M9.9234 17.8354C9.87768 17.8099 9.83148 17.8055 9.83148 17.8055C9.83148 17.8055 9.85943 17.8425 9.90515 17.8681C9.95087 17.8936 9.99707 17.8979 9.99707 17.8979C9.99707 17.8979 9.96896 17.861 9.9234 17.8354Z" fill="#999999"/>
<path d="M10.0326 17.6802C10.0581 17.6345 10.0625 17.5883 10.0625 17.5883C10.0625 17.5883 10.0255 17.6163 9.99998 17.662C9.97446 17.7077 9.96993 17.7539 9.96993 17.7539C9.96993 17.7539 10.0071 17.726 10.0326 17.6802Z" fill="#999999"/>
<path d="M9.85105 17.4042C9.82553 17.4499 9.82101 17.4961 9.82101 17.4961C9.82101 17.4961 9.858 17.4681 9.88353 17.4224C9.90905 17.3767 9.91357 17.3305 9.91357 17.3305C9.91357 17.3305 9.87658 17.3585 9.85105 17.4042Z" fill="#999999"/>
<path d="M9.64305 17.766C9.61752 17.8117 9.613 17.8579 9.613 17.8579C9.613 17.8579 9.64999 17.83 9.67552 17.7842C9.70104 17.7385 9.70557 17.6923 9.70557 17.6923C9.70557 17.6923 9.66857 17.7203 9.64305 17.766Z" fill="#999999"/>
<path d="M9.77106 17.5791C9.72534 17.5536 9.67914 17.549 9.67914 17.549C9.67914 17.549 9.70709 17.586 9.7528 17.6116C9.79852 17.6371 9.84473 17.6416 9.84473 17.6416C9.84473 17.6416 9.81678 17.6046 9.77106 17.5791Z" fill="#999999"/>
<path d="M9.54563 17.5596C9.57116 17.5139 9.57568 17.4677 9.57568 17.4677C9.57568 17.4677 9.53869 17.4957 9.51317 17.5414C9.48764 17.5871 9.48312 17.6333 9.48312 17.6333C9.48312 17.6333 9.52011 17.6054 9.54563 17.5596Z" fill="#999999"/>
</g>
<path d="M0.964844 14.9463L0.964844 15.1994C0.964844 15.2274 0.942229 15.25 0.914281 15.25L0.804266 15.25C0.776318 15.25 0.753698 15.2274 0.753698 15.1994L0.753698 14.9463C0.753698 14.9183 0.776318 14.8957 0.804266 14.8957L0.914281 14.8957C0.942229 14.8959 0.964844 14.9185 0.964844 14.9463Z" fill="url(#paint3_linear_580_4520)"/>
<path d="M0.964844 14.455L0.964844 14.2516C0.964844 14.2099 0.931079 14.1763 0.889561 14.1763L0.829306 14.1763C0.787626 14.1763 0.754023 14.2101 0.754023 14.2516L0.754023 14.455C0.754023 14.4967 0.787787 14.5303 0.829306 14.5303L0.889561 14.5303C0.931079 14.5304 0.964844 14.4967 0.964844 14.455Z" fill="url(#paint4_linear_580_4520)"/>
<path d="M1.56445 14.5962L1.56381 14.7954C1.56332 14.9172 1.46429 15.0156 1.34248 15.0151L0.685134 15.0127C0.563326 15.0122 0.464945 14.9132 0.465429 14.7914L0.466075 14.5922C0.46656 14.4704 0.565589 14.372 0.687397 14.3725L1.34474 14.3749C1.46655 14.3754 1.56494 14.4744 1.56445 14.5962Z" fill="url(#paint5_linear_580_4520)"/>
<path d="M0.964844 4.68701L0.964844 4.94016C0.964844 4.96795 0.942229 4.99072 0.914281 4.99072L0.804266 4.99072C0.776318 4.99072 0.753698 4.96811 0.753698 4.94016L0.753698 4.68701C0.753698 4.65906 0.776318 4.63645 0.804266 4.63645L0.914281 4.63645C0.942229 4.63645 0.964844 4.65906 0.964844 4.68701Z" fill="url(#paint6_linear_580_4520)"/>
<path d="M0.964844 4.19571L0.964844 3.99232C0.964844 3.95065 0.931079 3.91704 0.889561 3.91704L0.829306 3.91704C0.787626 3.91704 0.754023 3.95081 0.754023 3.99232L0.754023 4.19571C0.754023 4.23739 0.787787 4.271 0.829306 4.271L0.889561 4.271C0.931079 4.271 0.964844 4.23723 0.964844 4.19571Z" fill="url(#paint7_linear_580_4520)"/>
<path d="M1.56445 4.33696L1.56381 4.53615C1.56332 4.65796 1.46429 4.75634 1.34248 4.75586L0.685134 4.75343C0.563326 4.75295 0.464945 4.65392 0.465429 4.53211L0.466075 4.33292C0.46656 4.21112 0.565589 4.11273 0.687397 4.11321L1.34474 4.11564C1.46655 4.11596 1.56494 4.21515 1.56445 4.33696Z" fill="url(#paint8_linear_580_4520)"/>
<path d="M15.9678 1.79495L15.9678 17.3706L2.07113 17.3706C1.52461 17.3706 1.08181 16.9276 1.08181 16.3813L1.08181 2.78443C1.08181 2.23791 1.52477 1.79495 2.07113 1.79495L15.9678 1.79495Z" fill="#E1E2DD"/>
<path d="M1.0817 3.27166L1.0817 15.8941C1.0817 16.7096 1.74275 17.3706 2.55825 17.3706L3.22949 17.3706L3.22949 1.79495L2.55825 1.79495C1.74275 1.79495 1.0817 2.45616 1.0817 3.27166Z" fill="url(#paint9_linear_580_4520)"/>
<path d="M1.0817 3.27166L1.0817 15.8941C1.0817 16.7096 1.74275 17.3706 2.55825 17.3706L3.22949 17.3706L3.22949 1.79495L2.55825 1.79495C1.74275 1.79495 1.0817 2.45616 1.0817 3.27166Z" fill="url(#paint10_linear_580_4520)"/>
<path opacity="0.2" d="M1.44664 3.48344L1.44664 15.6827C1.44664 16.4709 2.10769 17.1099 2.9232 17.1099L3.22949 17.1099L3.22949 2.05648L2.92319 2.05648C2.10769 2.05632 1.44664 2.69525 1.44664 3.48344Z" fill="black"/>
<path d="M15.6704 16.8887L2.65211 16.8887C2.2841 16.8887 1.98572 16.5903 1.98572 16.2223L1.98572 2.94367C1.98572 2.57567 2.2841 2.27729 2.65211 2.27729L15.6704 2.27729L15.6704 16.8887Z" fill="#F5F7EA"/>
<g opacity="0.1">
<path d="M15.6704 16.8887L2.65211 16.8887C2.2841 16.8887 1.98572 16.5903 1.98572 16.2223L1.98572 2.94367C1.98572 2.57567 2.2841 2.27729 2.65211 2.27729L15.6704 2.27729L15.6704 16.8887Z" fill="url(#paint11_radial_580_4520)"/>
</g>
<g opacity="0.5">
<path d="M15.6704 16.8887L2.65211 16.8887C2.2841 16.8887 1.98572 16.5903 1.98572 16.2223L1.98572 2.94367C1.98572 2.57567 2.2841 2.27729 2.65211 2.27729L15.6704 2.27729L15.6704 16.8887Z" fill="url(#paint12_linear_580_4520)"/>
</g>
<path opacity="0.3" d="M1.98599 13.0441L1.98599 13.8947L11.6907 14.6294L11.7544 13.7788L1.98599 13.0441Z" fill="url(#paint13_linear_580_4520)"/>
<path opacity="0.3" d="M1.98599 6.12891L1.98599 5.27835L11.6907 4.54363L11.7544 5.39418L1.98599 6.12891Z" fill="url(#paint14_linear_580_4520)"/>
<path d="M1.56417 3.27194L1.56417 15.8943C1.56417 16.4426 2.01004 16.8887 2.5585 16.8887L2.98047 16.8887C2.43136 16.8887 1.98597 16.4434 1.98597 15.8943L1.98597 3.27194C1.98597 2.72268 2.4312 2.27745 2.98047 2.27745L2.5585 2.27745C2.01004 2.27745 1.56417 2.72348 1.56417 3.27194Z" fill="#CCCCCC"/>
<path opacity="0.4" d="M1.61182 6.18768L1.61182 13.0435L1.66691 13.0435L1.66691 6.18768L1.61182 6.18768Z" fill="#666666"/>
<path opacity="0.4" d="M1.70557 6.18768L1.70557 13.0435L1.76066 13.0435L1.76066 6.18768L1.70557 6.18768Z" fill="#666666"/>
<path opacity="0.4" d="M1.79932 6.18767L1.79932 13.0435L1.85441 13.0435L1.85441 6.18767L1.79932 6.18767Z" fill="#666666"/>
<path opacity="0.4" d="M1.89258 6.18768L1.89258 13.0435L1.94767 13.0435L1.94767 6.18768L1.89258 6.18768Z" fill="#666666"/>
<path d="M1.56368 15.8926L1.56368 15.8943C1.56368 16.4426 2.00955 16.8887 2.55801 16.8887L2.97998 16.8887C2.43087 16.8887 1.98548 16.4434 1.98548 15.8943L1.98548 15.8926L1.56368 15.8926Z" fill="#FF6600"/>
<path d="M1.98584 13.0825L1.98584 15.8945L1.56387 15.8945L1.56387 12.8036L1.98584 13.0825Z" fill="#DCFFFE"/>
<path d="M1.94824 15.8928L1.94824 13.0576L1.85422 12.9954L1.85422 15.8928L1.85422 15.8945L1.94824 15.8945L1.94824 15.8928Z" fill="white"/>
<path opacity="0.4" d="M1.85386 15.8943C1.85386 16.4426 2.29974 16.8887 2.8482 16.8887L2.94238 16.8887C2.39408 16.8887 1.94805 16.4426 1.94805 15.8943L1.94805 15.8926L1.85386 15.8926L1.85386 15.8943Z" fill="white"/>
<path d="M2.94238 16.8888L2.94238 16.9875C2.94238 17.0132 2.91008 17.0342 2.87033 17.0342L2.59263 17.0342C2.55289 17.0342 2.52058 17.0133 2.52058 16.9875L2.52058 16.8888L2.94238 16.8888Z" fill="#FF6600"/>
<path d="M1.56368 3.29053L1.56368 3.28875C1.56368 2.74045 2.00955 2.29442 2.55801 2.29442L2.97998 2.29442C2.43087 2.29442 1.98548 2.73965 1.98548 3.28875L1.98548 3.29053L1.56368 3.29053Z" fill="#FF6600"/>
<path d="M1.98584 6.10121L1.98584 3.28914L1.56387 3.28914L1.56387 6.37988L1.98584 6.10121Z" fill="#DCFFFE"/>
<path d="M1.94824 3.29111L1.94824 6.12628L1.85422 6.18848L1.85422 3.29111L1.85422 3.28933L1.94824 3.28933L1.94824 3.29111Z" fill="white"/>
<path opacity="0.4" d="M1.85386 3.28875C1.85386 2.74045 2.29974 2.29442 2.8482 2.29442L2.94238 2.29442C2.39408 2.29442 1.94805 2.74045 1.94805 3.28875L1.94805 3.29053L1.85386 3.29053L1.85386 3.28875Z" fill="white"/>
<path d="M2.94238 2.29492L2.94238 2.19621C2.94238 2.17053 2.91008 2.14952 2.87033 2.14952L2.59263 2.14952C2.55289 2.14952 2.52058 2.17036 2.52058 2.19621L2.52058 2.29492L2.94238 2.29492Z" fill="#FF6600"/>
<path d="M12.8976 15.5954C12.6697 14.04 12.1269 7.14962 12.849 3.75178C12.9207 3.41446 12.7451 3.07489 12.4288 2.93773L8.23351 2.32337C7.90783 2.18217 7.53239 2.35245 7.42722 2.69154C6.89023 4.42188 5.65906 9.60531 7.48732 16.455C7.57908 16.7986 7.95533 16.9811 8.28505 16.8478L12.4508 16.3718C12.7609 16.2466 12.9461 15.9265 12.8976 15.5954Z" fill="#F4F4F4"/>
<path opacity="0.5" d="M12.8976 15.5954C12.6697 14.04 12.1269 7.14962 12.849 3.75178C12.9207 3.41446 12.7451 3.07489 12.4288 2.93773L8.23351 2.32337C7.90783 2.18217 7.53239 2.35245 7.42722 2.69154C6.89023 4.42188 5.65906 9.60531 7.48732 16.455C7.57908 16.7986 7.95533 16.9811 8.28505 16.8478L12.4508 16.3718C12.7609 16.2466 12.9461 15.9265 12.8976 15.5954Z" fill="url(#paint15_linear_580_4520)"/>
<path d="M12.6128 15.7005C12.6128 15.8768 12.5062 16.0337 12.3414 16.1004L8.17568 16.5765C8.09426 16.6092 8.00234 16.6055 7.92382 16.5663C7.84693 16.5278 7.79232 16.4614 7.77019 16.3794C7.13595 14.0032 6.8143 11.6022 6.8143 9.2433C6.8143 6.12058 7.37359 3.85244 7.70703 2.7783C7.73271 2.69559 7.7899 2.63017 7.86858 2.59414C7.94806 2.55763 8.0361 2.55682 8.11736 2.59204L12.3125 3.20641C12.4703 3.2749 12.5724 3.42967 12.5724 3.60075C12.5724 3.63079 12.5692 3.661 12.5627 3.69105C12.3183 4.8416 12.1944 7.42395 12.1944 8.98919C12.1944 11.2686 12.4535 14.5834 12.6081 15.6379C12.6113 15.659 12.6128 15.6799 12.6128 15.7005Z" fill="black"/>
<path d="M12.4658 15.7003C12.4658 15.8166 12.3952 15.9202 12.286 15.9643L8.1203 16.4403C8.0623 16.4638 8.01303 16.4471 7.9888 16.435C7.96101 16.4211 7.92531 16.3937 7.91126 16.3413C7.28025 13.9774 6.96021 11.5892 6.96021 9.24305C6.96021 6.13955 7.51546 3.88757 7.84631 2.82151C7.86409 2.764 7.90576 2.73751 7.92903 2.72684C7.9531 2.71602 8.0014 2.70132 8.05859 2.72604L12.254 3.3404C12.3581 3.38563 12.4256 3.48773 12.4256 3.6005C12.4256 3.62037 12.4233 3.6404 12.4193 3.66027C12.1724 4.82083 12.0476 7.41352 12.0476 8.98894C12.0476 11.2776 12.3078 14.6005 12.4627 15.6588C12.4647 15.6727 12.4658 15.6866 12.4658 15.7003Z" fill="#676B86"/>
<path opacity="0.2" d="M9.25781 16.3103C8.84344 14.6055 8.51097 12.0548 8.51097 9.58234C8.51097 7.13585 8.85119 4.59988 9.25781 2.90168L8.05863 2.72608C8.00144 2.70136 7.95314 2.71606 7.92907 2.72689C7.90597 2.73755 7.86413 2.76404 7.84636 2.82155C7.5155 3.88761 6.96025 6.13959 6.96025 9.24309C6.96025 11.5893 7.28029 13.9774 7.9113 16.3414C7.92535 16.3937 7.96105 16.4212 7.98884 16.4351C8.01307 16.447 8.06234 16.4638 8.12034 16.4404L9.25781 16.3103Z" fill="black"/>
<path d="M8.20264 16.4073C7.75175 14.5816 7.47809 12.1957 7.47809 9.58234C7.47809 6.98239 7.74901 4.60763 8.19569 2.78553L8.05853 2.72608C8.00135 2.70136 7.95304 2.71606 7.92897 2.72689C7.90587 2.73755 7.86403 2.76404 7.84626 2.82155C7.51541 3.88761 6.96016 6.13959 6.96016 9.24309C6.96016 11.5893 7.28019 13.9774 7.9112 16.3414C7.92526 16.3937 7.96096 16.4212 7.98874 16.4351C8.01298 16.447 8.06225 16.4638 8.12025 16.4404L8.20264 16.4073Z" fill="#333333"/>
<path d="M8.13089 14.1938L7.73348 12.285L7.82896 12.2675L8.17871 14.1853L8.13089 14.1938Z" fill="black"/>
<path d="M7.34569 9.62195L7.82129 12.2295L7.69899 12.1006L7.25021 9.63939L7.34569 9.62195Z" fill="black"/>
<path d="M8.18311 14.0738L7.35404 9.51958L7.30315 9.52895L8.15322 14.1899L8.18311 14.0738Z" fill="#333333"/>
<path d="M7.32431 9.63697C7.25129 9.65022 7.18134 9.60192 7.16809 9.5289C7.15484 9.45588 7.20315 9.38593 7.27617 9.37268C7.34919 9.35943 7.41914 9.40774 7.43238 9.48075C7.44563 9.55377 7.39733 9.62373 7.32431 9.63697Z" fill="black"/>
<path d="M7.34816 9.63249C7.28839 9.64332 7.23104 9.60374 7.22022 9.54397C7.20923 9.48419 7.24897 9.42684 7.30875 9.41602C7.36852 9.40504 7.42587 9.44478 7.43669 9.50455C7.44752 9.56432 7.40794 9.62167 7.34816 9.63249Z" fill="#333333"/>
<path d="M7.91703 9.96338L7.71266 8.02432L7.80943 8.0164L7.96533 9.9595L7.91703 9.96338Z" fill="black"/>
<path d="M7.59469 5.33591L7.80664 7.97803L7.69808 7.83732L7.49792 5.34366L7.59469 5.33591Z" fill="black"/>
<path d="M7.98047 9.84883L7.61165 5.23453L7.55996 5.23873L7.93912 9.96143L7.98047 9.84883Z" fill="#333333"/>
<path d="M7.57079 5.34819C7.4968 5.35417 7.43218 5.29892 7.42621 5.22509C7.42023 5.1511 7.47548 5.08648 7.54931 5.0805C7.6233 5.07453 7.68791 5.12978 7.69389 5.20361C7.69987 5.27743 7.64478 5.34221 7.57079 5.34819Z" fill="black"/>
<path d="M7.59463 5.34681C7.53405 5.35166 7.48107 5.30659 7.47606 5.24601C7.47121 5.18543 7.51645 5.13244 7.57703 5.12759C7.63761 5.12274 7.6906 5.16782 7.69544 5.2284C7.70029 5.28898 7.65521 5.34196 7.59463 5.34681Z" fill="#333333"/>
<path opacity="0.5" d="M12.4658 15.7003C12.4658 15.8166 12.3952 15.9202 12.286 15.9643L8.1203 16.4403C8.0623 16.4638 8.01303 16.4471 7.9888 16.435C7.96101 16.4211 7.92531 16.3937 7.91126 16.3413C7.28025 13.9774 6.96021 11.5892 6.96021 9.24305C6.96021 6.13955 7.51546 3.88757 7.84631 2.82151C7.86409 2.764 7.90576 2.73751 7.92903 2.72684C7.9531 2.71602 8.0014 2.70132 8.05859 2.72604L12.254 3.3404C12.3581 3.38563 12.4256 3.48773 12.4256 3.6005C12.4256 3.62037 12.4233 3.6404 12.4193 3.66027C12.1724 4.82083 12.0476 7.41352 12.0476 8.98894C12.0476 11.2776 12.3078 14.6005 12.4627 15.6588C12.4647 15.6727 12.4658 15.6866 12.4658 15.7003Z" fill="url(#paint16_radial_580_4520)"/>
<path opacity="0.3" d="M12.4658 15.7003C12.4658 15.8166 12.3952 15.9202 12.286 15.9643L8.1203 16.4403C8.0623 16.4638 8.01303 16.4471 7.9888 16.435C7.96101 16.4211 7.92531 16.3937 7.91126 16.3413C7.28025 13.9774 6.96021 11.5892 6.96021 9.24305C6.96021 6.13955 7.51546 3.88757 7.84631 2.82151C7.86409 2.764 7.90576 2.73751 7.92903 2.72684C7.9531 2.71602 8.0014 2.70132 8.05859 2.72604L12.254 3.3404C12.3581 3.38563 12.4256 3.48773 12.4256 3.6005C12.4256 3.62037 12.4233 3.6404 12.4193 3.66027C12.1724 4.82083 12.0476 7.41352 12.0476 8.98894C12.0476 11.2776 12.3078 14.6005 12.4627 15.6588C12.4647 15.6727 12.4658 15.6866 12.4658 15.7003Z" fill="url(#paint17_radial_580_4520)"/>
<path d="M15.6733 16.8951C15.6733 16.8883 15.6722 16.8814 15.6704 16.8744L15.6733 16.2029C15.6528 16.1336 15.5296 16.0812 15.3867 16.0812L13.4472 16.0812C13.4083 16.0812 13.3703 16.0849 13.3344 16.0924L7.95612 16.814C7.89425 16.8268 7.8558 16.855 7.8558 16.8878C7.8558 16.9331 7.92786 16.9686 8.01994 16.9686L15.3838 17.0371C15.4619 17.0371 15.5347 17.0222 15.5895 16.9949C15.6438 16.9681 15.6733 16.9326 15.6733 16.8951Z" fill="#F4F4F4"/>
<path opacity="0.5" d="M15.6733 16.8951C15.6733 16.8883 15.6722 16.8814 15.6704 16.8744L15.6733 16.2029C15.6528 16.1336 15.5296 16.0812 15.3867 16.0812L13.4472 16.0812C13.4083 16.0812 13.3703 16.0849 13.3344 16.0924L7.95612 16.814C7.89425 16.8268 7.8558 16.855 7.8558 16.8878C7.8558 16.9331 7.92786 16.9686 8.01994 16.9686L15.3838 17.0371C15.4619 17.0371 15.5347 17.0222 15.5895 16.9949C15.6438 16.9681 15.6733 16.9326 15.6733 16.8951Z" fill="url(#paint18_linear_580_4520)"/>
<path d="M7.99846 16.8635L13.3769 16.1419C13.3992 16.1372 13.4231 16.135 13.4474 16.135L15.3868 16.135C15.4767 16.135 15.553 16.1674 15.5659 16.211L15.563 16.8826C15.579 16.9362 15.4942 16.9844 15.3839 16.9844L8.01995 16.9159C7.95969 16.9157 7.94305 16.875 7.99846 16.8635Z" fill="black"/>
<path d="M15.4556 16.89L15.4585 16.2184C15.4535 16.201 15.4226 16.1879 15.3868 16.1879L13.4472 16.1879C13.4375 16.1879 13.4281 16.1888 13.4193 16.1906L8.28231 16.8622L15.3839 16.9307C15.4034 16.9307 15.4217 16.9269 15.4354 16.9202C15.449 16.9134 15.4564 16.9045 15.4564 16.8951L15.4556 16.89Z" fill="#676B86"/>
<path opacity="0.2" d="M15.3895 16.6686L15.4552 16.8898L15.4561 16.8951C15.4561 16.9045 15.4486 16.9134 15.4351 16.9202C15.4213 16.927 15.4031 16.9307 15.3835 16.9307L8.28197 16.8622L10.7359 16.7471L15.3895 16.6686Z" fill="black"/>
<path opacity="0.5" d="M15.4556 16.89L15.4585 16.2184C15.4535 16.201 15.4226 16.1879 15.3868 16.1879L13.4472 16.1879C13.4375 16.1879 13.4281 16.1888 13.4193 16.1906L8.28231 16.8622L15.3839 16.9307C15.4034 16.9307 15.4217 16.9269 15.4354 16.9202C15.449 16.9134 15.4564 16.9045 15.4564 16.8951L15.4556 16.89Z" fill="url(#paint19_linear_580_4520)"/>
<path opacity="0.3" d="M15.4556 16.89L15.4585 16.2184C15.4535 16.201 15.4226 16.1879 15.3868 16.1879L13.4472 16.1879C13.4375 16.1879 13.4281 16.1888 13.4193 16.1906L8.28231 16.8622L15.3839 16.9307C15.4034 16.9307 15.4217 16.9269 15.4354 16.9202C15.449 16.9134 15.4564 16.9045 15.4564 16.8951L15.4556 16.89Z" fill="url(#paint20_linear_580_4520)"/>
<path d="M15.6724 2.23007C15.6724 2.23685 15.6712 2.2438 15.6695 2.25075L15.6724 2.9223C15.6518 2.99161 15.5286 3.04395 15.3858 3.04395L13.4462 3.04395C13.4073 3.04395 13.3693 3.04023 13.3335 3.03264L7.95515 2.311C7.89327 2.29808 7.85482 2.26997 7.85482 2.23718C7.85482 2.19194 7.92688 2.1564 8.01896 2.1564L15.3829 2.0879C15.4609 2.0879 15.5338 2.10277 15.5885 2.12991C15.6428 2.15705 15.6724 2.19259 15.6724 2.23007Z" fill="#F4F4F4"/>
<path opacity="0.5" d="M15.6724 2.23007C15.6724 2.23685 15.6712 2.2438 15.6695 2.25075L15.6724 2.9223C15.6518 2.99161 15.5286 3.04395 15.3858 3.04395L13.4462 3.04395C13.4073 3.04395 13.3693 3.04023 13.3335 3.03264L7.95515 2.311C7.89327 2.29808 7.85482 2.26997 7.85482 2.23718C7.85482 2.19194 7.92688 2.1564 8.01896 2.1564L15.3829 2.0879C15.4609 2.0879 15.5338 2.10277 15.5885 2.12991C15.6428 2.15705 15.6724 2.19259 15.6724 2.23007Z" fill="url(#paint21_linear_580_4520)"/>
<path d="M7.99749 2.26165L13.3759 2.98329C13.3982 2.98797 13.4222 2.99023 13.4464 2.99023L15.3858 2.99023C15.4758 2.99023 15.552 2.95792 15.5649 2.91414L15.562 2.24259C15.578 2.18896 15.4932 2.14081 15.3829 2.14081L8.01897 2.20931C7.95871 2.20947 7.94207 2.25002 7.99749 2.26165Z" fill="black"/>
<path d="M15.4546 2.23541L15.4575 2.90697C15.4525 2.92442 15.4217 2.9375 15.3858 2.9375L13.4462 2.9375C13.4365 2.9375 13.4272 2.93653 13.4183 2.93475L8.28133 2.2632L15.3829 2.1947C15.4024 2.1947 15.4207 2.19842 15.4344 2.2052C15.448 2.21199 15.4554 2.22087 15.4554 2.23024L15.4546 2.23541Z" fill="#676B86"/>
<path opacity="0.2" d="M15.389 2.45654L15.4548 2.23539L15.4556 2.23005C15.4556 2.22068 15.4481 2.2118 15.4346 2.20501C15.4208 2.19823 15.4026 2.19451 15.383 2.19451L8.28148 2.26301L10.7354 2.37803L15.389 2.45654Z" fill="black"/>
<path opacity="0.5" d="M15.4546 2.23541L15.4575 2.90697C15.4525 2.92442 15.4217 2.9375 15.3858 2.9375L13.4462 2.9375C13.4365 2.9375 13.4272 2.93653 13.4183 2.93475L8.28133 2.2632L15.3829 2.1947C15.4024 2.1947 15.4207 2.19842 15.4344 2.2052C15.448 2.21199 15.4554 2.22087 15.4554 2.23024L15.4546 2.23541Z" fill="url(#paint22_linear_580_4520)"/>
<path opacity="0.3" d="M15.4546 2.23541L15.4575 2.90697C15.4525 2.92442 15.4217 2.9375 15.3858 2.9375L13.4462 2.9375C13.4365 2.9375 13.4272 2.93653 13.4183 2.93475L8.28133 2.2632L15.3829 2.1947C15.4024 2.1947 15.4207 2.19842 15.4344 2.2052C15.448 2.21199 15.4554 2.22087 15.4554 2.23024L15.4546 2.23541Z" fill="url(#paint23_linear_580_4520)"/>
<path d="M8.80648 16.8879L9.43555 18.52L9.13103 18.52C8.98774 18.52 8.85914 18.4318 8.80761 18.2981L8.26399 16.8879L8.80648 16.8879Z" fill="#999999"/>
<path opacity="0.4" d="M8.84407 16.8879L9.47314 18.52L9.16863 18.52C9.02533 18.52 8.89674 18.4318 8.84504 18.2981L8.30143 16.8879L8.84407 16.8879Z" fill="url(#paint24_linear_580_4520)"/>
<path d="M9.23305 17.3554L9.56859 18.3856C9.59024 18.452 9.5408 18.52 9.47101 18.52L9.09638 18.52L8.69396 17.2843L9.13531 17.2843C9.17974 17.2845 9.21916 17.3133 9.23305 17.3554Z" fill="#666666"/>
<path opacity="0.3" d="M9.23305 17.3554L9.56859 18.3856C9.59024 18.452 9.5408 18.52 9.47101 18.52L9.09638 18.52L8.69396 17.2843L9.13531 17.2843C9.17974 17.2845 9.21916 17.3133 9.23305 17.3554Z" fill="url(#paint25_linear_580_4520)"/>
<path d="M8.80648 2.22217L9.43555 0.590048L9.13103 0.590048C8.98774 0.590048 8.85914 0.678252 8.80761 0.812014L8.26399 2.22217L8.80648 2.22217Z" fill="#999999"/>
<path opacity="0.4" d="M8.84407 2.22217L9.47314 0.590048L9.16863 0.590048C9.02533 0.590048 8.89674 0.678252 8.84504 0.812014L8.30143 2.22217L8.84407 2.22217Z" fill="url(#paint26_linear_580_4520)"/>
<path d="M9.23305 1.75476L9.56859 0.72457C9.59024 0.658174 9.5408 0.590004 9.47101 0.590004L9.09638 0.590004L8.69396 1.82568L9.13531 1.82568C9.17974 1.82552 9.21916 1.79693 9.23305 1.75476Z" fill="#666666"/>
<path opacity="0.3" d="M9.23305 1.75476L9.56859 0.72457C9.59024 0.658174 9.5408 0.590004 9.47101 0.590004L9.09638 0.590004L8.69396 1.82568L9.13531 1.82568C9.17974 1.82552 9.21916 1.79693 9.23305 1.75476Z" fill="url(#paint27_linear_580_4520)"/>
<path opacity="0.7" d="M15.3701 5.44032L15.3701 14.21L14.2919 13.8873L14.2919 5.11771L15.3701 5.44032Z" fill="url(#paint28_linear_580_4520)"/>
<path d="M15.1045 5.28357L15.1045 13.8828C15.1045 14.1438 14.8929 14.3555 14.6318 14.3555L14.1291 14.3555C13.868 14.3555 13.6564 14.1438 13.6564 13.8828L13.6564 5.28357C13.6564 5.02251 13.868 4.81088 14.1291 4.81088L14.6318 4.81088C14.8929 4.81088 15.1045 5.02251 15.1045 5.28357Z" fill="#999999"/>
<path d="M13.6565 5.2839L13.6565 8.52197L15.1045 8.52197L15.1045 5.2839C15.1045 5.02284 14.8929 4.81121 14.6318 4.81121L14.1291 4.81121C13.8682 4.81121 13.6565 5.02284 13.6565 5.2839Z" fill="#5D94FF"/>
<path opacity="0.5" d="M14.7598 8.17676L14.0008 8.17676L14.0008 5.28327C14.0008 5.21283 14.0583 5.15532 14.1291 5.15532L14.6315 5.15532C14.7023 5.15532 14.7598 5.21267 14.7598 5.28327L14.7598 8.17676Z" fill="#5384E4"/>
<path d="M13.6565 13.8828L13.6565 10.6447L15.1045 10.6447L15.1045 13.8828C15.1045 14.1438 14.8929 14.3555 14.6318 14.3555L14.1291 14.3555C13.8682 14.3555 13.6565 14.1438 13.6565 13.8828Z" fill="#CC0000"/>
<path opacity="0.3" d="M14.7598 13.8826C14.7598 13.9532 14.7023 14.0107 14.6315 14.0107L14.1291 14.0107C14.0583 14.0107 14.0008 13.9534 14.0008 13.8826L14.0008 10.9891L14.7598 10.9891L14.7598 13.8826Z" fill="#660000"/>
<path opacity="0.5" d="M15.1045 5.28357L15.1045 13.8828C15.1045 14.1438 14.8929 14.3555 14.6318 14.3555L14.1291 14.3555C13.868 14.3555 13.6564 14.1438 13.6564 13.8828L13.6564 5.28357C13.6564 5.02251 13.868 4.81088 14.1291 4.81088L14.6318 4.81088C14.8929 4.81088 15.1045 5.02251 15.1045 5.28357Z" fill="url(#paint29_radial_580_4520)"/>
<path opacity="0.5" d="M15.1045 5.28357L15.1045 13.8828C15.1045 14.1438 14.8929 14.3555 14.6318 14.3555L14.1291 14.3555C13.868 14.3555 13.6564 14.1438 13.6564 13.8828L13.6564 5.28357C13.6564 5.02251 13.868 4.81088 14.1291 4.81088L14.6318 4.81088C14.8929 4.81088 15.1045 5.02251 15.1045 5.28357Z" fill="url(#paint30_linear_580_4520)"/>
<path d="M13.7765 5.45709L13.7765 13.7091C13.7765 13.9597 13.9621 14.1626 14.191 14.1626L14.3799 14.1626C14.151 14.1626 13.9653 13.9595 13.9653 13.7091L13.9653 5.45709C13.9653 5.20669 14.151 5.00362 14.3799 5.00362L14.191 5.00362C13.9621 5.00362 13.7765 5.20669 13.7765 5.45709Z" fill="url(#paint31_linear_580_4520)"/>
<path d="M14.9839 5.45709L14.9839 13.7091C14.9839 13.9597 14.7983 14.1626 14.5693 14.1626L14.3805 14.1626C14.6094 14.1626 14.795 13.9595 14.795 13.7091L14.795 5.45709C14.795 5.20669 14.6094 5.00362 14.3805 5.00362L14.5693 5.00362C14.7984 5.00362 14.9839 5.20669 14.9839 5.45709Z" fill="url(#paint32_linear_580_4520)"/>
<path opacity="0.4" d="M13.7372 14.146L13.8791 14.0269C13.9274 13.9862 14.02 13.961 14.1204 13.9609L14.6401 13.9604C14.741 13.9602 14.834 13.9856 14.8825 14.0264L15.0248 14.146C15.0466 14.1134 15.0629 14.0772 15.0762 14.0395L14.98 13.9588C14.929 13.916 14.8314 13.8893 14.7254 13.8895L14.0384 13.8899C13.9332 13.8901 13.8363 13.9164 13.7854 13.9589L13.6864 14.0415C13.6994 14.0783 13.7156 14.114 13.7372 14.146Z" fill="white"/>
<path opacity="0.4" d="M13.7372 5.02715L13.8791 5.14621C13.9274 5.18692 14.02 5.21212 14.1204 5.21228L14.6401 5.21277C14.741 5.21277 14.834 5.18757 14.8825 5.14669L15.0248 5.02715C15.0466 5.05978 15.0629 5.09597 15.0762 5.13361L14.98 5.21438C14.929 5.25719 14.8314 5.28385 14.7254 5.28369L14.0384 5.28304C13.9332 5.28304 13.8363 5.25655 13.7854 5.21406L13.6864 5.13151C13.6994 5.09468 13.7156 5.05914 13.7372 5.02715Z" fill="white"/>
<path opacity="0.4" d="M14.3459 13.666L14.4155 13.666L14.4155 5.50008L14.3459 5.50008L14.3459 13.666Z" fill="black"/>
<path d="M40.0977 1.3808L40.0977 17.7844C40.0977 17.9807 39.9385 18.1396 39.7422 18.1396L16.3228 18.1396C16.1265 18.1396 15.9673 17.9805 15.9673 17.7844L15.9673 1.3808C15.9673 1.18452 16.1265 1.0254 16.3228 1.0254L39.7422 1.0254C39.9385 1.0254 40.0977 1.18452 40.0977 1.3808Z" fill="#CC3300"/>
<path d="M39.8569 17.7845C39.8569 17.8476 39.8056 17.8989 39.7427 17.8989L16.3232 17.8989C16.2604 17.8989 16.209 17.8476 16.209 17.7845L16.209 1.38111C16.209 1.31811 16.2604 1.2669 16.3232 1.2669L39.7427 1.2669C39.8056 1.2669 39.8569 1.31827 39.8569 1.38111L39.8569 17.7845Z" fill="#F5F7EA"/>
<path d="M39.8569 17.7845C39.8569 17.8476 39.8056 17.8989 39.7427 17.8989L16.3232 17.8989C16.2604 17.8989 16.209 17.8476 16.209 17.7845L16.209 1.38111C16.209 1.31811 16.2604 1.2669 16.3232 1.2669L39.7427 1.2669C39.8056 1.2669 39.8569 1.31827 39.8569 1.38111L39.8569 17.7845Z" fill="url(#paint33_radial_580_4520)"/>
<path opacity="0.2" d="M39.8569 17.7845C39.8569 17.8476 39.8056 17.8989 39.7427 17.8989L16.3232 17.8989C16.2604 17.8989 16.209 17.8476 16.209 17.7845L16.209 1.38111C16.209 1.31811 16.2604 1.2669 16.3232 1.2669L39.7427 1.2669C39.8056 1.2669 39.8569 1.31827 39.8569 1.38111L39.8569 17.7845Z" fill="#FF8282"/>
<path d="M40.219 15.5129L40.0976 15.5129L40.0976 17.1704L40.219 17.1704C40.355 17.1704 40.4653 17.0601 40.4653 16.9239L40.4653 15.7593C40.4653 15.6233 40.355 15.5129 40.219 15.5129Z" fill="#EF0C0C"/>
<path opacity="0.4" d="M40.1389 15.6997L40.1389 16.9839C40.2962 16.9839 40.4238 16.8563 40.4238 16.6989L40.4238 15.9847C40.4238 15.8274 40.2962 15.6997 40.1389 15.6997Z" fill="#660000"/>
<path d="M40.1212 17.0688L40.1212 17.0609C40.266 17.0291 40.3744 16.9005 40.3744 16.7462L40.3744 15.9377C40.3744 15.7834 40.266 15.6548 40.1212 15.623L40.1212 15.6151C40.2994 15.6151 40.4438 15.7595 40.4438 15.9377L40.4438 16.7462C40.4438 16.9244 40.2994 17.0688 40.1212 17.0688Z" fill="url(#paint34_linear_580_4520)"/>
<path opacity="0.6" d="M40.2763 16.0616C40.2773 16.2152 40.2782 16.369 40.2794 16.5227C40.2798 16.5908 40.2861 16.6652 40.2727 16.7325C40.2672 16.7598 40.2566 16.8131 40.2205 16.8144C40.1852 16.8157 40.1797 16.7734 40.1795 16.7467C40.1795 16.6706 40.174 15.8038 40.1884 15.8038C40.2214 15.8041 40.2496 15.8304 40.2624 15.861C40.2751 15.8915 40.2755 15.9254 40.2758 15.9584C40.2758 15.9928 40.2761 16.0272 40.2763 16.0616Z" fill="url(#paint35_linear_580_4520)"/>
<path d="M40.219 2.33275L40.0976 2.33275L40.0976 3.99023L40.219 3.99023C40.355 3.99023 40.4653 3.87989 40.4653 3.74387L40.4653 2.57927C40.4653 2.44325 40.355 2.33275 40.219 2.33275Z" fill="#EF0C0C"/>
<path opacity="0.4" d="M40.1389 2.51973L40.1389 3.80371C40.2962 3.80371 40.4238 3.67609 40.4238 3.51874L40.4238 2.80454C40.4238 2.64735 40.2962 2.51973 40.1389 2.51973Z" fill="#660000"/>
<path d="M40.1203 3.88818L40.1203 3.88027C40.265 3.84844 40.3734 3.71985 40.3734 3.56557L40.3734 2.75702C40.3734 2.60274 40.265 2.47415 40.1203 2.44233L40.1203 2.43441C40.2984 2.43441 40.4429 2.57883 40.4429 2.75702L40.4429 3.56557C40.4429 3.74376 40.2984 3.88818 40.1203 3.88818Z" fill="url(#paint36_linear_580_4520)"/>
<path opacity="0.6" d="M40.2763 2.88143C40.2773 3.03507 40.2782 3.18886 40.2794 3.34249C40.2798 3.41067 40.2861 3.48498 40.2727 3.55235C40.2672 3.57965 40.2566 3.63296 40.2205 3.63425C40.1852 3.63554 40.1797 3.59321 40.1795 3.56656C40.1795 3.49047 40.174 2.6236 40.1884 2.6236C40.2214 2.62392 40.2496 2.65026 40.2624 2.68079C40.2751 2.71132 40.2755 2.74525 40.2758 2.7782C40.2758 2.81277 40.2761 2.84719 40.2763 2.88143Z" fill="url(#paint37_linear_580_4520)"/>
<path d="M24.7081 10.6457L26.7941 10.6457C26.8909 10.6457 26.9695 10.7241 26.9695 10.8209L26.9695 12.9069C26.9695 13.0037 27.0479 13.082 27.1447 13.082L28.9214 13.082C29.0182 13.082 29.0968 13.0037 29.0968 12.9069L29.0968 10.8209C29.0968 10.7241 29.1752 10.6457 29.272 10.6457L31.358 10.6457C31.4548 10.6457 31.5332 10.5673 31.5332 10.4702L31.5332 8.69355C31.5332 8.59676 31.4548 8.51837 31.358 8.51837L29.272 8.51837C29.1752 8.51837 29.0968 8.44 29.0968 8.34294L29.0968 6.2572C29.0968 6.16041 29.0185 6.08203 28.9214 6.08203L27.1447 6.08203C27.0479 6.08203 26.9695 6.16041 26.9695 6.2572L26.9695 8.34294C26.9695 8.43973 26.8911 8.51837 26.7941 8.51837L24.7081 8.51837C24.6113 8.51837 24.5329 8.59676 24.5329 8.69355L24.5329 10.4702C24.5329 10.5673 24.6113 10.6457 24.7081 10.6457Z" fill="#CC3300"/>
<path d="M40.0977 4.39717L40.0977 15.1382L40.4203 15.1382L40.4203 4.39717L40.0977 4.39717Z" fill="#F5F7EA"/>
<path opacity="0.5" d="M40.4204 4.39766L40.4204 15.1387L40.0978 15.1387L40.0978 4.39766L40.4204 4.39766Z" fill="url(#paint38_linear_580_4520)"/>
<path opacity="0.5" d="M40.0977 9.72541L40.0977 9.81055L40.4203 9.81055L40.4203 9.72541L40.0977 9.72541Z" fill="#666666"/>
<path d="M40.3083 10.0893L40.3083 14.8974C40.3083 14.9558 40.3555 15.0029 40.4138 15.0029L40.4199 15.0029L40.4199 9.98379L40.4138 9.98379C40.3555 9.98379 40.3083 10.031 40.3083 10.0893Z" fill="#AAD5F9"/>
<path d="M40.3083 10.0893L40.3083 14.8974C40.3083 14.9558 40.3555 15.0029 40.4138 15.0029L40.4199 15.0029L40.4199 14.9889C40.3871 14.9709 40.364 14.9375 40.364 14.8974L40.364 10.0893C40.364 10.0494 40.3871 10.0158 40.4199 9.99785L40.4199 9.98379L40.4138 9.98379C40.3555 9.98379 40.3083 10.031 40.3083 10.0893Z" fill="white"/>
<path d="M40.3088 4.63176L40.3088 9.43992C40.3088 9.49824 40.356 9.54541 40.4143 9.54541L40.4204 9.54541L40.4204 4.52627L40.4143 4.52627C40.356 4.52643 40.3088 4.5736 40.3088 4.63176Z" fill="#AAD5F9"/>
<path d="M40.3088 4.63176L40.3088 9.43992C40.3088 9.49824 40.356 9.54541 40.4143 9.54541L40.4204 9.54541L40.4204 9.53135C40.3876 9.51342 40.3645 9.47998 40.3645 9.43992L40.3645 4.63176C40.3645 4.59186 40.3876 4.55825 40.4204 4.54032L40.4204 4.52627L40.4143 4.52627C40.356 4.52643 40.3088 4.5736 40.3088 4.63176Z" fill="white"/>
<path d="M16.209 1.02612L10.2993 1.02612C10.1249 1.02612 9.95767 1.09542 9.83424 1.21868L9.258 1.79492L16.209 1.79492L16.209 1.02612Z" fill="#CCCCCC"/>
<path d="M16.0879 1.14686L16.0879 1.6748L9.54837 1.6748L9.9188 1.30421C10.0203 1.20276 10.1552 1.14686 10.2986 1.14686L16.0879 1.14686Z" fill="url(#paint39_linear_580_4520)"/>
<path opacity="0.5" d="M16.209 1.02612L10.2993 1.02612C10.1249 1.02612 9.95767 1.09542 9.83424 1.21868L9.258 1.79492L16.209 1.79492L16.209 1.02612Z" fill="url(#paint40_linear_580_4520)"/>
<path opacity="0.4" d="M16.209 1.02612L10.2993 1.02612C10.1249 1.02612 9.95767 1.09542 9.83424 1.21868L9.258 1.79492L16.209 1.79492L16.209 1.02612Z" fill="url(#paint41_linear_580_4520)"/>
<mask id="mask1_580_4520" style="mask-type:luminance" maskUnits="userSpaceOnUse" x="9" y="1" width="8" height="1">
<path d="M16.0879 1.14686L16.0879 1.6748L9.54837 1.6748L9.9188 1.30421C10.0203 1.20276 10.1552 1.14686 10.2986 1.14686L16.0879 1.14686Z" fill="white"/>
</mask>
<g mask="url(#mask1_580_4520)">
<path d="M16.0366 1.55524C16.0111 1.50952 16.0066 1.46332 16.0066 1.46332C16.0066 1.46332 16.0435 1.49127 16.0691 1.53699C16.0946 1.5827 16.0991 1.62891 16.0991 1.62891C16.0991 1.62891 16.0621 1.60095 16.0366 1.55524Z" fill="#999999"/>
<path d="M15.8276 1.19326C15.8021 1.14754 15.7976 1.1015 15.7976 1.1015C15.7976 1.1015 15.8346 1.12945 15.8601 1.17517C15.8856 1.22089 15.8901 1.26709 15.8901 1.26709C15.8901 1.26709 15.8531 1.23898 15.8276 1.19326Z" fill="#999999"/>
<path d="M15.9569 1.3806C15.9112 1.40612 15.8652 1.41064 15.8652 1.41064C15.8652 1.41064 15.8931 1.37365 15.9388 1.34813C15.9846 1.3226 16.0308 1.31808 16.0308 1.31808C16.0308 1.31808 16.0027 1.35507 15.9569 1.3806Z" fill="#999999"/>
<path d="M15.8292 1.60765C15.7834 1.63317 15.7372 1.6377 15.7372 1.6377C15.7372 1.6377 15.7652 1.6007 15.8109 1.57518C15.8566 1.54965 15.9028 1.54513 15.9028 1.54513C15.9028 1.54513 15.8749 1.58212 15.8292 1.60765Z" fill="#999999"/>
<path d="M15.621 1.24599C15.5753 1.27152 15.5292 1.27588 15.5292 1.27588C15.5292 1.27588 15.5572 1.23889 15.6029 1.21336C15.6486 1.18784 15.6948 1.18347 15.6948 1.18347C15.6948 1.18347 15.6667 1.22047 15.621 1.24599Z" fill="#999999"/>
<path d="M15.7307 1.40027C15.7562 1.44598 15.7607 1.49219 15.7607 1.49219C15.7607 1.49219 15.7237 1.46424 15.6982 1.41852C15.6727 1.3728 15.6682 1.32676 15.6682 1.32676C15.6682 1.32676 15.7052 1.35471 15.7307 1.40027Z" fill="#999999"/>
<path d="M15.5498 1.67878C15.5243 1.63306 15.5199 1.58686 15.5199 1.58686C15.5199 1.58686 15.5569 1.6148 15.5824 1.66052C15.6079 1.70624 15.6123 1.75244 15.6123 1.75244C15.6123 1.75244 15.5753 1.72449 15.5498 1.67878Z" fill="#999999"/>
<path d="M15.3418 1.31696C15.3163 1.27124 15.3119 1.22504 15.3119 1.22504C15.3119 1.22504 15.3489 1.25299 15.3744 1.2987C15.3999 1.34442 15.4043 1.39062 15.4043 1.39062C15.4043 1.39062 15.3673 1.36268 15.3418 1.31696Z" fill="#999999"/>
<path d="M15.4695 1.50413C15.4237 1.52966 15.3775 1.53418 15.3775 1.53418C15.3775 1.53418 15.4055 1.49719 15.4512 1.47166C15.4969 1.44614 15.543 1.44161 15.543 1.44161C15.543 1.44161 15.5152 1.47861 15.4695 1.50413Z" fill="#999999"/>
<path d="M15.3423 1.73118C15.2966 1.75671 15.2504 1.76123 15.2504 1.76123C15.2504 1.76123 15.2784 1.72423 15.3241 1.69871C15.3698 1.67318 15.416 1.66866 15.416 1.66866C15.416 1.66866 15.3881 1.70566 15.3423 1.73118Z" fill="#999999"/>
<path d="M15.1345 1.36937C15.0888 1.39489 15.0426 1.39941 15.0426 1.39941C15.0426 1.39941 15.0705 1.36242 15.1162 1.3369C15.162 1.31137 15.208 1.30701 15.208 1.30701C15.208 1.30701 15.1802 1.34384 15.1345 1.36937Z" fill="#999999"/>
<path d="M15.244 1.5238C15.2696 1.56952 15.2739 1.61572 15.2739 1.61572C15.2739 1.61572 15.2369 1.58778 15.2114 1.54206C15.1859 1.49634 15.1815 1.45014 15.1815 1.45014C15.1815 1.45014 15.2185 1.47808 15.244 1.5238Z" fill="#999999"/>
<path d="M15.0588 1.17517C15.0843 1.22089 15.0889 1.26709 15.0889 1.26709C15.0889 1.26709 15.0519 1.23914 15.0263 1.19342C15.0008 1.1477 14.9963 1.10166 14.9963 1.10166C14.9963 1.10166 15.0333 1.12945 15.0588 1.17517Z" fill="#999999"/>
<path d="M15.0175 1.64199C14.9718 1.66751 14.9257 1.67188 14.9257 1.67188C14.9257 1.67188 14.9537 1.63488 14.9994 1.60936C15.0451 1.58383 15.0913 1.57931 15.0913 1.57931C15.0913 1.57931 15.0632 1.6163 15.0175 1.64199Z" fill="#999999"/>
<path d="M14.8096 1.28017C14.7639 1.30569 14.7177 1.31006 14.7177 1.31006C14.7177 1.31006 14.7457 1.27306 14.7914 1.24754C14.8371 1.22201 14.8833 1.21765 14.8833 1.21765C14.8833 1.21765 14.8554 1.25464 14.8096 1.28017Z" fill="#999999"/>
<path d="M14.9198 1.43542C14.9453 1.48114 14.9497 1.52734 14.9497 1.52734C14.9497 1.52734 14.9127 1.4994 14.8872 1.45368C14.8617 1.40796 14.8573 1.36176 14.8573 1.36176C14.8573 1.36176 14.8943 1.3897 14.9198 1.43542Z" fill="#999999"/>
<path d="M14.7379 1.71231C14.7124 1.66659 14.7079 1.62055 14.7079 1.62055C14.7079 1.62055 14.7449 1.64849 14.7704 1.69421C14.7959 1.73993 14.8003 1.78613 14.8003 1.78613C14.8003 1.78613 14.7635 1.75802 14.7379 1.71231Z" fill="#999999"/>
<path d="M14.5303 1.35049C14.5047 1.30478 14.5002 1.25873 14.5002 1.25873C14.5002 1.25873 14.5372 1.28668 14.5627 1.3324C14.5882 1.37811 14.5928 1.42432 14.5928 1.42432C14.5928 1.42432 14.5558 1.39621 14.5303 1.35049Z" fill="#999999"/>
<path d="M14.6583 1.53733C14.6125 1.56286 14.5663 1.56738 14.5663 1.56738C14.5663 1.56738 14.5943 1.53038 14.64 1.50486C14.6857 1.47934 14.7319 1.47482 14.7319 1.47482C14.7319 1.47482 14.704 1.51181 14.6583 1.53733Z" fill="#999999"/>
<path d="M14.3223 1.40322C14.2766 1.42874 14.2304 1.43311 14.2304 1.43311C14.2304 1.43311 14.2584 1.39611 14.3041 1.37059C14.3498 1.34506 14.396 1.3407 14.396 1.3407C14.396 1.3407 14.368 1.37753 14.3223 1.40322Z" fill="#999999"/>
<path d="M14.4319 1.55798C14.4574 1.6037 14.4619 1.6499 14.4619 1.6499C14.4619 1.6499 14.4249 1.62196 14.3994 1.57624C14.3739 1.53052 14.3693 1.48432 14.3693 1.48432C14.3693 1.48432 14.4063 1.51226 14.4319 1.55798Z" fill="#999999"/>
<path d="M14.2468 1.20886C14.2723 1.25458 14.2769 1.30078 14.2769 1.30078C14.2769 1.30078 14.2399 1.27283 14.2143 1.22712C14.1888 1.1814 14.1845 1.1352 14.1845 1.1352C14.1845 1.1352 14.2213 1.16314 14.2468 1.20886Z" fill="#999999"/>
<path d="M14.2027 1.64248C14.157 1.668 14.1108 1.67236 14.1108 1.67236C14.1108 1.67236 14.1387 1.63537 14.1844 1.60985C14.2302 1.58432 14.2764 1.5798 14.2764 1.5798C14.2764 1.5798 14.2484 1.61679 14.2027 1.64248Z" fill="#999999"/>
<path d="M13.9945 1.28066C13.9488 1.30618 13.9028 1.31055 13.9028 1.31055C13.9028 1.31055 13.9307 1.27355 13.9764 1.24802C14.0222 1.2225 14.0684 1.21814 14.0684 1.21814C14.0684 1.21814 14.0402 1.25513 13.9945 1.28066Z" fill="#999999"/>
<path d="M14.1044 1.43591C14.1299 1.48163 14.1343 1.52783 14.1343 1.52783C14.1343 1.52783 14.0973 1.49989 14.0718 1.45417C14.0462 1.40845 14.0419 1.36225 14.0419 1.36225C14.0419 1.36225 14.0789 1.39019 14.1044 1.43591Z" fill="#999999"/>
<path d="M13.9227 1.71279C13.8971 1.66708 13.8928 1.62104 13.8928 1.62104C13.8928 1.62104 13.9298 1.64898 13.9553 1.6947C13.9808 1.74042 13.9854 1.78662 13.9854 1.78662C13.9854 1.78662 13.9482 1.75851 13.9227 1.71279Z" fill="#999999"/>
<path d="M13.7148 1.35147C13.6893 1.30575 13.6848 1.25971 13.6848 1.25971C13.6848 1.25971 13.7218 1.28765 13.7473 1.33337C13.7728 1.37909 13.7773 1.42529 13.7773 1.42529C13.7773 1.42529 13.7403 1.39719 13.7148 1.35147Z" fill="#999999"/>
<path d="M13.8428 1.53831C13.7971 1.56384 13.7509 1.56836 13.7509 1.56836C13.7509 1.56836 13.7789 1.53136 13.8246 1.50584C13.8703 1.48031 13.9165 1.47579 13.9165 1.47579C13.9165 1.47579 13.8886 1.51279 13.8428 1.53831Z" fill="#999999"/>
<path d="M13.5071 1.40371C13.4613 1.42923 13.4151 1.43359 13.4151 1.43359C13.4151 1.43359 13.4431 1.3966 13.4888 1.37108C13.5345 1.34555 13.5806 1.34119 13.5806 1.34119C13.5806 1.34119 13.5528 1.37802 13.5071 1.40371Z" fill="#999999"/>
<path d="M13.6169 1.55798C13.6424 1.6037 13.647 1.6499 13.647 1.6499C13.647 1.6499 13.61 1.62196 13.5844 1.57624C13.5589 1.53052 13.5544 1.48432 13.5544 1.48432C13.5544 1.48432 13.5914 1.51226 13.6169 1.55798Z" fill="#999999"/>
<path d="M13.4315 1.20935C13.4571 1.25507 13.4614 1.30127 13.4614 1.30127C13.4614 1.30127 13.4244 1.27332 13.3989 1.2276C13.3734 1.18189 13.369 1.13568 13.369 1.13568C13.369 1.13568 13.406 1.16363 13.4315 1.20935Z" fill="#999999"/>
<path d="M13.3884 1.64199C13.3427 1.66751 13.2965 1.67188 13.2965 1.67188C13.2965 1.67188 13.3244 1.63488 13.3702 1.60936C13.4159 1.58383 13.4619 1.57931 13.4619 1.57931C13.4619 1.57931 13.4341 1.6163 13.3884 1.64199Z" fill="#999999"/>
<path d="M13.1802 1.28017C13.1345 1.30569 13.0883 1.31006 13.0883 1.31006C13.0883 1.31006 13.1163 1.27306 13.162 1.24754C13.2077 1.22201 13.2539 1.21765 13.2539 1.21765C13.2539 1.21765 13.226 1.25464 13.1802 1.28017Z" fill="#999999"/>
<path d="M13.2898 1.43493C13.3153 1.48065 13.3198 1.52686 13.3198 1.52686C13.3198 1.52686 13.2828 1.49891 13.2573 1.45319C13.2318 1.40747 13.2274 1.36127 13.2274 1.36127C13.2274 1.36127 13.2643 1.38922 13.2898 1.43493Z" fill="#999999"/>
<path d="M13.1089 1.71231C13.0833 1.66659 13.079 1.62055 13.079 1.62055C13.079 1.62055 13.116 1.64849 13.1415 1.69421C13.167 1.73993 13.1714 1.78613 13.1714 1.78613C13.1714 1.78613 13.1344 1.75802 13.1089 1.71231Z" fill="#999999"/>
<path d="M12.9007 1.35049C12.8752 1.30478 12.8708 1.25873 12.8708 1.25873C12.8708 1.25873 12.9078 1.28668 12.9333 1.3324C12.9589 1.37811 12.9634 1.42432 12.9634 1.42432C12.9634 1.42432 12.9262 1.39621 12.9007 1.35049Z" fill="#999999"/>
<path d="M13.0292 1.53733C12.9835 1.56286 12.9374 1.56738 12.9374 1.56738C12.9374 1.56738 12.9654 1.53038 13.0111 1.50486C13.0568 1.47934 13.103 1.47482 13.103 1.47482C13.103 1.47482 13.0749 1.51181 13.0292 1.53733Z" fill="#999999"/>
<path d="M12.6924 1.40371C12.6467 1.42923 12.6005 1.43359 12.6005 1.43359C12.6005 1.43359 12.6285 1.3966 12.6742 1.37108C12.7199 1.34555 12.7661 1.34119 12.7661 1.34119C12.7661 1.34119 12.7382 1.37802 12.6924 1.40371Z" fill="#999999"/>
<path d="M12.8025 1.55798C12.828 1.6037 12.8325 1.6499 12.8325 1.6499C12.8325 1.6499 12.7955 1.62196 12.77 1.57624C12.7445 1.53052 12.74 1.48432 12.74 1.48432C12.74 1.48432 12.7769 1.51226 12.8025 1.55798Z" fill="#999999"/>
<path d="M12.6171 1.20935C12.6426 1.25507 12.647 1.30127 12.647 1.30127C12.647 1.30127 12.61 1.27332 12.5845 1.2276C12.5589 1.18189 12.5546 1.13568 12.5546 1.13568C12.5546 1.13568 12.5914 1.16363 12.6171 1.20935Z" fill="#999999"/>
<path d="M12.5738 1.64248C12.5281 1.668 12.4819 1.67236 12.4819 1.67236C12.4819 1.67236 12.5098 1.63537 12.5555 1.60985C12.6013 1.58432 12.6475 1.5798 12.6475 1.5798C12.6475 1.5798 12.6195 1.61679 12.5738 1.64248Z" fill="#999999"/>
<path d="M12.3659 1.28066C12.3202 1.30618 12.274 1.31055 12.274 1.31055C12.274 1.31055 12.302 1.27355 12.3477 1.24802C12.3934 1.2225 12.4395 1.21814 12.4395 1.21814C12.4395 1.21814 12.4117 1.25513 12.3659 1.28066Z" fill="#999999"/>
<path d="M12.4758 1.43591C12.5013 1.48163 12.5059 1.52783 12.5059 1.52783C12.5059 1.52783 12.4689 1.49989 12.4433 1.45417C12.4178 1.40845 12.4135 1.36225 12.4135 1.36225C12.4135 1.36225 12.4503 1.39019 12.4758 1.43591Z" fill="#999999"/>
<path d="M12.2944 1.71279C12.2689 1.66708 12.2645 1.62104 12.2645 1.62104C12.2645 1.62104 12.3015 1.64898 12.327 1.6947C12.3526 1.74042 12.3569 1.78662 12.3569 1.78662C12.3569 1.78662 12.3199 1.75851 12.2944 1.71279Z" fill="#999999"/>
<path d="M12.0869 1.35098C12.0614 1.30526 12.057 1.25922 12.057 1.25922C12.057 1.25922 12.094 1.28717 12.1195 1.33288C12.1451 1.3786 12.1494 1.4248 12.1494 1.4248C12.1494 1.4248 12.1124 1.3967 12.0869 1.35098Z" fill="#999999"/>
<path d="M12.2144 1.53782C12.1687 1.56335 12.1225 1.56787 12.1225 1.56787C12.1225 1.56787 12.1504 1.53087 12.1962 1.50535C12.2419 1.47982 12.2881 1.4753 12.2881 1.4753C12.2881 1.4753 12.2601 1.5123 12.2144 1.53782Z" fill="#999999"/>
<path d="M11.879 1.40371C11.8333 1.42923 11.787 1.43359 11.787 1.43359C11.787 1.43359 11.815 1.3966 11.8607 1.37108C11.9064 1.34555 11.9526 1.34119 11.9526 1.34119C11.9526 1.34119 11.9247 1.37802 11.879 1.40371Z" fill="#999999"/>
<path d="M11.9901 1.55798C12.0157 1.6037 12.02 1.6499 12.02 1.6499C12.02 1.6499 11.983 1.62196 11.9575 1.57624C11.932 1.53052 11.9276 1.48432 11.9276 1.48432C11.9276 1.48432 11.9646 1.51226 11.9901 1.55798Z" fill="#999999"/>
<path d="M11.8036 1.20935C11.8291 1.25507 11.8335 1.30127 11.8335 1.30127C11.8335 1.30127 11.7965 1.27332 11.771 1.2276C11.7454 1.18189 11.7411 1.13568 11.7411 1.13568C11.7411 1.13568 11.7779 1.16363 11.8036 1.20935Z" fill="#999999"/>
<path d="M11.7593 1.64199C11.7136 1.66751 11.6674 1.67188 11.6674 1.67188C11.6674 1.67188 11.6954 1.63488 11.7411 1.60936C11.7868 1.58383 11.833 1.57931 11.833 1.57931C11.833 1.57931 11.8051 1.6163 11.7593 1.64199Z" fill="#999999"/>
<path d="M11.5513 1.28017C11.5056 1.30569 11.4594 1.31006 11.4594 1.31006C11.4594 1.31006 11.4874 1.27306 11.5331 1.24754C11.5788 1.22201 11.625 1.21765 11.625 1.21765C11.625 1.21765 11.5971 1.25464 11.5513 1.28017Z" fill="#999999"/>
<path d="M11.6609 1.43542C11.6864 1.48114 11.6909 1.52734 11.6909 1.52734C11.6909 1.52734 11.6539 1.4994 11.6284 1.45368C11.6029 1.40796 11.5984 1.36176 11.5984 1.36176C11.5984 1.36176 11.6353 1.3897 11.6609 1.43542Z" fill="#999999"/>
<path d="M11.4801 1.71231C11.4546 1.66659 11.4501 1.62055 11.4501 1.62055C11.4501 1.62055 11.4871 1.64849 11.5126 1.69421C11.5381 1.73993 11.5425 1.78613 11.5425 1.78613C11.5425 1.78613 11.5056 1.75802 11.4801 1.71231Z" fill="#999999"/>
<path d="M11.2724 1.35049C11.2469 1.30478 11.2426 1.25873 11.2426 1.25873C11.2426 1.25873 11.2795 1.28668 11.3051 1.3324C11.3306 1.37811 11.335 1.42432 11.335 1.42432C11.335 1.42432 11.298 1.39621 11.2724 1.35049Z" fill="#999999"/>
<path d="M11.4001 1.53733C11.3544 1.56286 11.3082 1.56738 11.3082 1.56738C11.3082 1.56738 11.3362 1.53038 11.3819 1.50486C11.4276 1.47934 11.4736 1.47482 11.4736 1.47482C11.4736 1.47482 11.4458 1.51181 11.4001 1.53733Z" fill="#999999"/>
<path d="M11.0635 1.40371C11.0178 1.42923 10.9716 1.43359 10.9716 1.43359C10.9716 1.43359 10.9996 1.3966 11.0453 1.37108C11.091 1.34555 11.1372 1.34119 11.1372 1.34119C11.1372 1.34119 11.1093 1.37802 11.0635 1.40371Z" fill="#999999"/>
<path d="M11.1742 1.55749C11.1997 1.60321 11.2041 1.64941 11.2041 1.64941C11.2041 1.64941 11.1671 1.62147 11.1416 1.57575C11.1161 1.53003 11.1115 1.48383 11.1115 1.48383C11.1115 1.48383 11.1487 1.51178 11.1742 1.55749Z" fill="#999999"/>
<path d="M10.988 1.20935C11.0135 1.25507 11.0181 1.30127 11.0181 1.30127C11.0181 1.30127 10.9811 1.27332 10.9555 1.2276C10.93 1.18189 10.9255 1.13568 10.9255 1.13568C10.9255 1.13568 10.9625 1.16363 10.988 1.20935Z" fill="#999999"/>
<path d="M10.9452 1.64248C10.8995 1.668 10.8535 1.67236 10.8535 1.67236C10.8535 1.67236 10.8814 1.63537 10.9271 1.60985C10.9728 1.58432 11.019 1.5798 11.019 1.5798C11.019 1.5798 10.9909 1.61679 10.9452 1.64248Z" fill="#999999"/>
<path d="M10.7374 1.28066C10.6917 1.30618 10.6454 1.31055 10.6454 1.31055C10.6454 1.31055 10.6734 1.27355 10.7191 1.24802C10.7648 1.2225 10.811 1.21814 10.811 1.21814C10.811 1.21814 10.7829 1.25513 10.7374 1.28066Z" fill="#999999"/>
<path d="M10.8474 1.43591C10.8729 1.48163 10.8774 1.52783 10.8774 1.52783C10.8774 1.52783 10.8404 1.49989 10.8149 1.45417C10.7894 1.40845 10.785 1.36225 10.785 1.36225C10.785 1.36225 10.8219 1.39019 10.8474 1.43591Z" fill="#999999"/>
<path d="M10.6658 1.71279C10.6403 1.66708 10.6359 1.62104 10.6359 1.62104C10.6359 1.62104 10.6729 1.64898 10.6985 1.6947C10.724 1.74042 10.7285 1.78662 10.7285 1.78662C10.7285 1.78662 10.6914 1.75851 10.6658 1.71279Z" fill="#999999"/>
<path d="M10.4581 1.35098C10.4326 1.30526 10.4281 1.25922 10.4281 1.25922C10.4281 1.25922 10.4651 1.28717 10.4906 1.33288C10.5161 1.3786 10.5205 1.4248 10.5205 1.4248C10.5205 1.4248 10.4837 1.3967 10.4581 1.35098Z" fill="#999999"/>
<path d="M10.5863 1.53782C10.5406 1.56335 10.4946 1.56787 10.4946 1.56787C10.4946 1.56787 10.5225 1.53087 10.5682 1.50535C10.614 1.47982 10.6602 1.4753 10.6602 1.4753C10.6602 1.4753 10.632 1.5123 10.5863 1.53782Z" fill="#999999"/>
<path d="M10.2499 1.40371C10.2042 1.42923 10.1581 1.43359 10.1581 1.43359C10.1581 1.43359 10.1861 1.3966 10.2318 1.37108C10.2775 1.34555 10.3237 1.34119 10.3237 1.34119C10.3237 1.34119 10.2956 1.37802 10.2499 1.40371Z" fill="#999999"/>
<path d="M10.3603 1.55798C10.3858 1.6037 10.3901 1.6499 10.3901 1.6499C10.3901 1.6499 10.3531 1.62196 10.3276 1.57624C10.3021 1.53052 10.2977 1.48432 10.2977 1.48432C10.2977 1.48432 10.3347 1.51226 10.3603 1.55798Z" fill="#999999"/>
<path d="M10.1745 1.20935C10.2001 1.25507 10.2046 1.30127 10.2046 1.30127C10.2046 1.30127 10.1676 1.27332 10.1421 1.2276C10.1165 1.18189 10.112 1.13568 10.112 1.13568C10.112 1.13568 10.149 1.16363 10.1745 1.20935Z" fill="#999999"/>
<path d="M10.1304 1.64199C10.0847 1.66751 10.0385 1.67188 10.0385 1.67188C10.0385 1.67188 10.0665 1.63488 10.1122 1.60936C10.1579 1.58383 10.2041 1.57931 10.2041 1.57931C10.2041 1.57931 10.1762 1.6163 10.1304 1.64199Z" fill="#999999"/>
<path d="M9.92242 1.28017C9.8767 1.30569 9.8305 1.31006 9.8305 1.31006C9.8305 1.31006 9.85845 1.27306 9.90417 1.24754C9.94989 1.22201 9.99609 1.21765 9.99609 1.21765C9.99609 1.21765 9.96798 1.25464 9.92242 1.28017Z" fill="#999999"/>
<path d="M10.0321 1.43542C10.0577 1.48114 10.062 1.52734 10.062 1.52734C10.062 1.52734 10.025 1.4994 9.99949 1.45368C9.97397 1.40796 9.96944 1.36176 9.96944 1.36176C9.96944 1.36176 10.0066 1.3897 10.0321 1.43542Z" fill="#999999"/>
<path d="M9.85056 1.71231C9.82504 1.66659 9.82052 1.62055 9.82052 1.62055C9.82052 1.62055 9.85751 1.64849 9.88304 1.69421C9.90856 1.73993 9.91309 1.78613 9.91309 1.78613C9.91309 1.78613 9.87609 1.75802 9.85056 1.71231Z" fill="#999999"/>
<path d="M9.64305 1.35098C9.61752 1.30526 9.613 1.25922 9.613 1.25922C9.613 1.25922 9.64999 1.28717 9.67552 1.33288C9.70104 1.3786 9.70557 1.4248 9.70557 1.4248C9.70557 1.4248 9.66857 1.3967 9.64305 1.35098Z" fill="#999999"/>
<path d="M9.77057 1.53733C9.72485 1.56286 9.67865 1.56738 9.67865 1.56738C9.67865 1.56738 9.7066 1.53038 9.75232 1.50486C9.79804 1.47934 9.84424 1.47482 9.84424 1.47482C9.84424 1.47482 9.81629 1.51181 9.77057 1.53733Z" fill="#999999"/>
<path d="M9.54466 1.55798C9.57018 1.6037 9.57471 1.6499 9.57471 1.6499C9.57471 1.6499 9.53771 1.62196 9.51219 1.57624C9.48666 1.53052 9.48214 1.48432 9.48214 1.48432C9.48214 1.48432 9.51913 1.51226 9.54466 1.55798Z" fill="#999999"/>
</g>
<defs>
<linearGradient id="paint0_linear_580_4520" x1="17.2605" y1="17.7817" x2="0.232912" y2="17.4602" gradientUnits="userSpaceOnUse">
<stop stop-color="#C7C5C5"/>
<stop offset="0.0359" stop-color="#676767"/>
<stop offset="0.1123" stop-color="white"/>
<stop offset="0.3019" stop-color="#929292"/>
<stop offset="0.492" stop-color="white"/>
<stop offset="0.6257" stop-color="#676767"/>
<stop offset="0.7701" stop-color="#929292"/>
<stop offset="0.8233" stop-color="#C7C5C5"/>
<stop offset="1" stop-color="#343433"/>
</linearGradient>
<linearGradient id="paint1_linear_580_4520" x1="12.7335" y1="17.3246" x2="12.7335" y2="17.4753" gradientUnits="userSpaceOnUse">
<stop offset="0.0051"/>
<stop offset="1" stop-opacity="0"/>
</linearGradient>
<linearGradient id="paint2_linear_580_4520" x1="16.209" y1="17.7048" x2="15.6798" y2="17.7048" gradientUnits="userSpaceOnUse">
<stop offset="0.0051"/>
<stop offset="1" stop-opacity="0"/>
</linearGradient>
<linearGradient id="paint3_linear_580_4520" x1="0.873826" y1="15.4021" x2="0.851097" y2="14.8867" gradientUnits="userSpaceOnUse">
<stop stop-color="#C7C5C5"/>
<stop offset="0.0359" stop-color="#676767"/>
<stop offset="0.1123" stop-color="white"/>
<stop offset="0.3019" stop-color="#929292"/>
<stop offset="0.492" stop-color="white"/>
<stop offset="0.6809" stop-color="#676767"/>
<stop offset="0.7701" stop-color="#929292"/>
<stop offset="0.8233" stop-color="#C7C5C5"/>
<stop offset="1" stop-color="#343433"/>
</linearGradient>
<linearGradient id="paint4_linear_580_4520" x1="0.873747" y1="14.0261" x2="0.851163" y2="14.5384" gradientUnits="userSpaceOnUse">
<stop stop-color="#C7C5C5"/>
<stop offset="0.0359" stop-color="#676767"/>
<stop offset="0.1123" stop-color="white"/>
<stop offset="0.3019" stop-color="#929292"/>
<stop offset="0.492" stop-color="white"/>
<stop offset="0.6809" stop-color="#676767"/>
<stop offset="0.7701" stop-color="#929292"/>
<stop offset="0.8233" stop-color="#C7C5C5"/>
<stop offset="1" stop-color="#343433"/>
</linearGradient>
<linearGradient id="paint5_linear_580_4520" x1="1.01489" y1="15.5126" x2="1.01489" y2="13.0205" gradientUnits="userSpaceOnUse">
<stop stop-color="#C7C5C5"/>
<stop offset="0.0359" stop-color="#676767"/>
<stop offset="0.1123" stop-color="white"/>
<stop offset="0.3019" stop-color="#929292"/>
<stop offset="0.492" stop-color="white"/>
<stop offset="0.6257" stop-color="#676767"/>
<stop offset="0.7701" stop-color="#929292"/>
<stop offset="0.8233" stop-color="#C7C5C5"/>
<stop offset="1" stop-color="#343433"/>
</linearGradient>
<linearGradient id="paint6_linear_580_4520" x1="0.873826" y1="5.14277" x2="0.851097" y2="4.62737" gradientUnits="userSpaceOnUse">
<stop stop-color="#C7C5C5"/>
<stop offset="0.0359" stop-color="#676767"/>
<stop offset="0.1123" stop-color="white"/>
<stop offset="0.3019" stop-color="#929292"/>
<stop offset="0.492" stop-color="white"/>
<stop offset="0.6809" stop-color="#676767"/>
<stop offset="0.7701" stop-color="#929292"/>
<stop offset="0.8233" stop-color="#C7C5C5"/>
<stop offset="1" stop-color="#343433"/>
</linearGradient>
<linearGradient id="paint7_linear_580_4520" x1="0.873747" y1="3.76671" x2="0.851162" y2="4.27904" gradientUnits="userSpaceOnUse">
<stop stop-color="#C7C5C5"/>
<stop offset="0.0359" stop-color="#676767"/>
<stop offset="0.1123" stop-color="white"/>
<stop offset="0.3019" stop-color="#929292"/>
<stop offset="0.492" stop-color="white"/>
<stop offset="0.6809" stop-color="#676767"/>
<stop offset="0.7701" stop-color="#929292"/>
<stop offset="0.8233" stop-color="#C7C5C5"/>
<stop offset="1" stop-color="#343433"/>
</linearGradient>
<linearGradient id="paint8_linear_580_4520" x1="1.01489" y1="5.25324" x2="1.01489" y2="2.7611" gradientUnits="userSpaceOnUse">
<stop stop-color="#C7C5C5"/>
<stop offset="0.0359" stop-color="#676767"/>
<stop offset="0.1123" stop-color="white"/>
<stop offset="0.3019" stop-color="#929292"/>
<stop offset="0.492" stop-color="white"/>
<stop offset="0.6257" stop-color="#676767"/>
<stop offset="0.7701" stop-color="#929292"/>
<stop offset="0.8233" stop-color="#C7C5C5"/>
<stop offset="1" stop-color="#343433"/>
</linearGradient>
<linearGradient id="paint9_linear_580_4520" x1="2.11726" y1="18.2709" x2="2.2378" y2="-6.74305" gradientUnits="userSpaceOnUse">
<stop stop-color="#C7C5C5"/>
<stop offset="0.0359" stop-color="#676767"/>
<stop offset="0.1123" stop-color="white"/>
<stop offset="0.3019" stop-color="#929292"/>
<stop offset="0.492" stop-color="white"/>
<stop offset="0.6257" stop-color="#676767"/>
<stop offset="0.7701" stop-color="#929292"/>
<stop offset="0.8233" stop-color="#C7C5C5"/>
<stop offset="1" stop-color="#343433"/>
</linearGradient>
<linearGradient id="paint10_linear_580_4520" x1="2.11726" y1="18.2709" x2="2.2378" y2="-6.74305" gradientUnits="userSpaceOnUse">
<stop stop-color="#C7C5C5"/>
<stop offset="0.0359" stop-color="#676767"/>
<stop offset="0.1123" stop-color="white"/>
<stop offset="0.3019" stop-color="#929292"/>
<stop offset="0.492" stop-color="white"/>
<stop offset="0.6257" stop-color="#676767"/>
<stop offset="0.7701" stop-color="#929292"/>
<stop offset="0.8233" stop-color="#C7C5C5"/>
<stop offset="1" stop-color="#343433"/>
</linearGradient>
<radialGradient id="paint11_radial_580_4520" cx="0" cy="0" r="1" gradientUnits="userSpaceOnUse" gradientTransform="translate(8.29261 19.2579) rotate(-90) scale(18.0444 18.0446)">
<stop offset="0.0102"/>
<stop offset="1" stop-opacity="0"/>
</radialGradient>
<linearGradient id="paint12_linear_580_4520" x1="8.8281" y1="16.8887" x2="8.8281" y2="2.27746" gradientUnits="userSpaceOnUse">
<stop offset="0.3386" stop-color="white" stop-opacity="0"/>
<stop offset="0.6521" stop-color="white"/>
</linearGradient>
<linearGradient id="paint13_linear_580_4520" x1="6.8718" y1="13.3899" x2="6.83449" y2="13.8886" gradientUnits="userSpaceOnUse">
<stop offset="0.0051"/>
<stop offset="1" stop-opacity="0"/>
</linearGradient>
<linearGradient id="paint14_linear_580_4520" x1="6.87179" y1="5.78304" x2="6.83448" y2="5.28433" gradientUnits="userSpaceOnUse">
<stop offset="0.0051" stop-color="#999999"/>
<stop offset="1" stop-color="#999999" stop-opacity="0"/>
</linearGradient>
<linearGradient id="paint15_linear_580_4520" x1="6.50644" y1="9.5825" x2="6.93647" y2="9.5825" gradientUnits="userSpaceOnUse">
<stop offset="0.0051"/>
<stop offset="1" stop-opacity="0"/>
</linearGradient>
<radialGradient id="paint16_radial_580_4520" cx="0" cy="0" r="1" gradientUnits="userSpaceOnUse" gradientTransform="translate(9.48497 16.4141) rotate(-90) scale(11.9321 11.9322)">
<stop stop-color="white" stop-opacity="0"/>
<stop offset="1" stop-color="white"/>
</radialGradient>
<radialGradient id="paint17_radial_580_4520" cx="0" cy="0" r="1" gradientUnits="userSpaceOnUse" gradientTransform="translate(10.1659 15.0418) rotate(-90) scale(11.4863 11.4864)">
<stop offset="0.0102"/>
<stop offset="1" stop-opacity="0"/>
</radialGradient>
<linearGradient id="paint18_linear_580_4520" x1="11.7646" y1="17.0442" x2="11.7646" y2="16.9858" gradientUnits="userSpaceOnUse">
<stop offset="0.0051"/>
<stop offset="1" stop-opacity="0"/>
</linearGradient>
<linearGradient id="paint19_linear_580_4520" x1="11.8705" y1="16.9267" x2="11.8705" y2="16.6857" gradientUnits="userSpaceOnUse">
<stop stop-color="white"/>
<stop offset="1" stop-color="white" stop-opacity="0"/>
</linearGradient>
<linearGradient id="paint20_linear_580_4520" x1="11.8705" y1="16.5252" x2="11.8705" y2="16.1998" gradientUnits="userSpaceOnUse">
<stop stop-opacity="0"/>
<stop offset="0.9898"/>
</linearGradient>
<linearGradient id="paint21_linear_580_4520" x1="11.7636" y1="2.08094" x2="11.7636" y2="2.13939" gradientUnits="userSpaceOnUse">
<stop offset="0.0051"/>
<stop offset="1" stop-opacity="0"/>
</linearGradient>
<linearGradient id="paint22_linear_580_4520" x1="11.8696" y1="2.19852" x2="11.8696" y2="2.43946" gradientUnits="userSpaceOnUse">
<stop stop-color="white"/>
<stop offset="1" stop-color="white" stop-opacity="0"/>
</linearGradient>
<linearGradient id="paint23_linear_580_4520" x1="11.8696" y1="2.60004" x2="11.8696" y2="2.92538" gradientUnits="userSpaceOnUse">
<stop stop-opacity="0"/>
<stop offset="0.9898"/>
</linearGradient>
<linearGradient id="paint24_linear_580_4520" x1="8.6476" y1="17.7912" x2="8.77191" y2="17.746" gradientUnits="userSpaceOnUse">
<stop stop-color="white"/>
<stop offset="1" stop-color="white" stop-opacity="0"/>
</linearGradient>
<linearGradient id="paint25_linear_580_4520" x1="8.82921" y1="17.3372" x2="9.28505" y2="18.1509" gradientUnits="userSpaceOnUse">
<stop offset="0.0051"/>
<stop offset="1" stop-opacity="0"/>
</linearGradient>
<linearGradient id="paint26_linear_580_4520" x1="8.6476" y1="1.31898" x2="8.77191" y2="1.3642" gradientUnits="userSpaceOnUse">
<stop stop-color="white"/>
<stop offset="1" stop-color="white" stop-opacity="0"/>
</linearGradient>
<linearGradient id="paint27_linear_580_4520" x1="8.82921" y1="1.77299" x2="9.28505" y2="0.959266" gradientUnits="userSpaceOnUse">
<stop offset="0.0051"/>
<stop offset="1" stop-opacity="0"/>
</linearGradient>
<linearGradient id="paint28_linear_580_4520" x1="15.3735" y1="9.66382" x2="14.9963" y2="9.66382" gradientUnits="userSpaceOnUse">
<stop stop-opacity="0"/>
<stop offset="0.9898"/>
</linearGradient>
<radialGradient id="paint29_radial_580_4520" cx="0" cy="0" r="1" gradientUnits="userSpaceOnUse" gradientTransform="translate(14.3805 9.58314) rotate(-90) scale(3.41311 3.41313)">
<stop stop-color="white" stop-opacity="0"/>
<stop offset="1" stop-color="white"/>
</radialGradient>
<linearGradient id="paint30_linear_580_4520" x1="14.7865" y1="9.58314" x2="15.0958" y2="9.58314" gradientUnits="userSpaceOnUse">
<stop stop-opacity="0"/>
<stop offset="0.9898"/>
</linearGradient>
<linearGradient id="paint31_linear_580_4520" x1="14.0782" y1="14.1627" x2="14.0782" y2="5.00364" gradientUnits="userSpaceOnUse">
<stop stop-color="white" stop-opacity="0"/>
<stop offset="1" stop-color="white"/>
</linearGradient>
<linearGradient id="paint32_linear_580_4520" x1="14.6822" y1="8.06924" x2="14.6822" y2="13.691" gradientUnits="userSpaceOnUse">
<stop stop-color="white" stop-opacity="0"/>
<stop offset="1" stop-color="white"/>
</linearGradient>
<radialGradient id="paint33_radial_580_4520" cx="0" cy="0" r="1" gradientUnits="userSpaceOnUse" gradientTransform="translate(17.8164 1.73786) rotate(-90) scale(21.8 21.8002)">
<stop stop-color="white" stop-opacity="0"/>
<stop offset="1" stop-color="white"/>
</radialGradient>
<linearGradient id="paint34_linear_580_4520" x1="40.1383" y1="15.5276" x2="40.4246" y2="17.4413" gradientUnits="userSpaceOnUse">
<stop stop-color="white" stop-opacity="0"/>
<stop offset="1" stop-color="white"/>
</linearGradient>
<linearGradient id="paint35_linear_580_4520" x1="40.1784" y1="16.3092" x2="40.2811" y2="16.3092" gradientUnits="userSpaceOnUse">
<stop stop-color="white" stop-opacity="0"/>
<stop offset="1" stop-color="white"/>
</linearGradient>
<linearGradient id="paint36_linear_580_4520" x1="40.1373" y1="2.34698" x2="40.4236" y2="4.26071" gradientUnits="userSpaceOnUse">
<stop stop-color="white" stop-opacity="0"/>
<stop offset="1" stop-color="white"/>
</linearGradient>
<linearGradient id="paint37_linear_580_4520" x1="40.1784" y1="3.12902" x2="40.2811" y2="3.12902" gradientUnits="userSpaceOnUse">
<stop stop-color="white" stop-opacity="0"/>
<stop offset="1" stop-color="white"/>
</linearGradient>
<linearGradient id="paint38_linear_580_4520" x1="40.2384" y1="9.76815" x2="40.0976" y2="9.76815" gradientUnits="userSpaceOnUse">
<stop stop-opacity="0"/>
<stop offset="0.9898"/>
</linearGradient>
<linearGradient id="paint39_linear_580_4520" x1="17.2605" y1="1.33392" x2="0.232912" y2="1.65539" gradientUnits="userSpaceOnUse">
<stop stop-color="#C7C5C5"/>
<stop offset="0.0359" stop-color="#676767"/>
<stop offset="0.1123" stop-color="white"/>
<stop offset="0.3019" stop-color="#929292"/>
<stop offset="0.492" stop-color="white"/>
<stop offset="0.6257" stop-color="#676767"/>
<stop offset="0.7701" stop-color="#929292"/>
<stop offset="0.8233" stop-color="#C7C5C5"/>
<stop offset="1" stop-color="#343433"/>
</linearGradient>
<linearGradient id="paint40_linear_580_4520" x1="12.7335" y1="1.79083" x2="12.7335" y2="1.64014" gradientUnits="userSpaceOnUse">
<stop offset="0.0051"/>
<stop offset="1" stop-opacity="0"/>
</linearGradient>
<linearGradient id="paint41_linear_580_4520" x1="16.209" y1="1.41062" x2="15.6798" y2="1.41062" gradientUnits="userSpaceOnUse">
<stop offset="0.0051"/>
<stop offset="1" stop-opacity="0"/>
</linearGradient>
</defs>
</svg>
