<svg width="51" height="52" viewBox="0 0 51 52" fill="none" xmlns="http://www.w3.org/2000/svg">
<circle opacity="0.5" cx="25.5" cy="25.8613" r="25.5" transform="rotate(-180 25.5 25.8613)" fill="#5384E4"/>
<path d="M33.5693 29.6177L33.5693 35.5273C33.5693 35.7018 33.5 35.869 33.3768 35.9924L32.8005 36.5687L32.8005 29.6177L33.5693 29.6177Z" fill="#CCCCCC"/>
<path d="M33.4487 29.7388L32.9208 29.7388L32.9208 36.2783L33.2914 35.9079C33.3928 35.8064 33.4487 35.6715 33.4487 35.5281L33.4487 29.7388Z" fill="url(#paint0_linear_580_9722)"/>
<path opacity="0.5" d="M33.5693 29.6177L33.5693 35.5273C33.5693 35.7018 33.5 35.869 33.3768 35.9924L32.8005 36.5687L32.8005 29.6177L33.5693 29.6177Z" fill="url(#paint1_linear_580_9722)"/>
<path opacity="0.4" d="M33.5693 29.6177L33.5693 35.5273C33.5693 35.7018 33.5 35.869 33.3768 35.9924L32.8005 36.5687L32.8005 29.6177L33.5693 29.6177Z" fill="url(#paint2_linear_580_9722)"/>
<mask id="mask0_580_9722" style="mask-type:luminance" maskUnits="userSpaceOnUse" x="32" y="29" width="2" height="8">
<path d="M33.4482 29.7388L32.9203 29.7388L32.9203 36.2783L33.2909 35.9079C33.3923 35.8064 33.4482 35.6715 33.4482 35.5281L33.4482 29.7388Z" fill="white"/>
</mask>
<g mask="url(#mask0_580_9722)">
<path d="M33.0404 29.7896C33.0861 29.8151 33.1323 29.8196 33.1323 29.8196C33.1323 29.8196 33.1044 29.7826 33.0587 29.7571C33.0129 29.7316 32.9667 29.7271 32.9667 29.7271C32.9667 29.7271 32.9947 29.764 33.0404 29.7896Z" fill="#999999"/>
<path d="M33.4022 29.9981C33.4479 30.0236 33.4941 30.0281 33.4941 30.0281C33.4941 30.0281 33.4662 29.9911 33.4205 29.9656C33.3748 29.9401 33.3286 29.9355 33.3286 29.9355C33.3286 29.9355 33.3565 29.9725 33.4022 29.9981Z" fill="#999999"/>
<path d="M33.2153 29.8697C33.1898 29.9154 33.1853 29.9615 33.1853 29.9615C33.1853 29.9615 33.2223 29.9335 33.2478 29.8878C33.2733 29.8421 33.2778 29.7959 33.2778 29.7959C33.2778 29.7959 33.2408 29.824 33.2153 29.8697Z" fill="#999999"/>
<path d="M32.9878 29.9975C32.9623 30.0432 32.9577 30.0894 32.9577 30.0894C32.9577 30.0894 32.9947 30.0615 33.0202 30.0157C33.0458 29.97 33.0503 29.9238 33.0503 29.9238C33.0503 29.9238 33.0133 29.9518 32.9878 29.9975Z" fill="#999999"/>
<path d="M33.3496 30.2057C33.3241 30.2514 33.3197 30.2974 33.3197 30.2974C33.3197 30.2974 33.3567 30.2695 33.3822 30.2238C33.4077 30.178 33.4121 30.1318 33.4121 30.1318C33.4121 30.1318 33.3751 30.1599 33.3496 30.2057Z" fill="#999999"/>
<path d="M33.1949 30.095C33.1492 30.0695 33.103 30.0649 33.103 30.0649C33.103 30.0649 33.1309 30.1019 33.1766 30.1275C33.2224 30.153 33.2686 30.1575 33.2686 30.1575C33.2686 30.1575 33.2406 30.1205 33.1949 30.095Z" fill="#999999"/>
<path d="M32.918 30.2764C32.9637 30.3019 33.0098 30.3063 33.0098 30.3063C33.0098 30.3063 32.9818 30.2693 32.9361 30.2438C32.8904 30.2182 32.8443 30.2139 32.8443 30.2139C32.8443 30.2139 32.8723 30.2509 32.918 30.2764Z" fill="#999999"/>
<path d="M33.2797 30.4844C33.3254 30.5099 33.3716 30.5143 33.3716 30.5143C33.3716 30.5143 33.3436 30.4773 33.2979 30.4518C33.2522 30.4262 33.206 30.4219 33.206 30.4219C33.206 30.4219 33.2339 30.4589 33.2797 30.4844Z" fill="#999999"/>
<path d="M33.0923 30.3562C33.0667 30.4019 33.0622 30.4481 33.0622 30.4481C33.0622 30.4481 33.0992 30.4202 33.1247 30.3745C33.1503 30.3288 33.1548 30.2827 33.1548 30.2827C33.1548 30.2827 33.1178 30.3105 33.0923 30.3562Z" fill="#999999"/>
<path d="M32.8655 30.4843C32.84 30.53 32.8357 30.5762 32.8357 30.5762C32.8357 30.5762 32.8727 30.5483 32.8982 30.5026C32.9237 30.4568 32.9282 30.4106 32.9282 30.4106C32.9282 30.4106 32.8911 30.4386 32.8655 30.4843Z" fill="#999999"/>
<path d="M33.228 30.6922C33.2025 30.7379 33.1981 30.7841 33.1981 30.7841C33.1981 30.7841 33.2351 30.7561 33.2606 30.7104C33.2862 30.6647 33.2905 30.6187 33.2905 30.6187C33.2905 30.6187 33.2535 30.6464 33.228 30.6922Z" fill="#999999"/>
<path d="M33.073 30.5826C33.0273 30.5571 32.9811 30.5527 32.9811 30.5527C32.9811 30.5527 33.009 30.5897 33.0547 30.6153C33.1004 30.6408 33.1465 30.6451 33.1465 30.6451C33.1465 30.6451 33.1187 30.6081 33.073 30.5826Z" fill="#999999"/>
<path d="M33.4224 30.7683C33.3767 30.7428 33.3305 30.7383 33.3305 30.7383C33.3305 30.7383 33.3585 30.7753 33.4042 30.8008C33.4499 30.8263 33.4961 30.8308 33.4961 30.8308C33.4961 30.8308 33.4681 30.7939 33.4224 30.7683Z" fill="#999999"/>
<path d="M32.9546 30.8087C32.929 30.8544 32.9247 30.9005 32.9247 30.9005C32.9247 30.9005 32.9617 30.8725 32.9872 30.8268C33.0127 30.7811 33.0171 30.7349 33.0171 30.7349C33.0171 30.7349 32.9801 30.763 32.9546 30.8087Z" fill="#999999"/>
<path d="M33.3164 31.0165C33.2909 31.0623 33.2865 31.1085 33.2865 31.1085C33.2865 31.1085 33.3235 31.0805 33.349 31.0348C33.3745 30.9891 33.3789 30.9429 33.3789 30.9429C33.3789 30.9429 33.3419 30.9708 33.3164 31.0165Z" fill="#999999"/>
<path d="M33.1612 30.9064C33.1155 30.8808 33.0693 30.8765 33.0693 30.8765C33.0693 30.8765 33.0972 30.9135 33.1429 30.939C33.1887 30.9645 33.2349 30.9689 33.2349 30.9689C33.2349 30.9689 33.2069 30.9319 33.1612 30.9064Z" fill="#999999"/>
<path d="M32.8846 31.0887C32.9304 31.1142 32.9766 31.1188 32.9766 31.1188C32.9766 31.1188 32.9486 31.0818 32.9029 31.0563C32.8572 31.0307 32.811 31.0264 32.811 31.0264C32.811 31.0264 32.8389 31.0632 32.8846 31.0887Z" fill="#999999"/>
<path d="M33.2465 31.2964C33.2922 31.3219 33.3384 31.3265 33.3384 31.3265C33.3384 31.3265 33.3104 31.2895 33.2647 31.2639C33.219 31.2384 33.1728 31.2339 33.1728 31.2339C33.1728 31.2339 33.2007 31.2709 33.2465 31.2964Z" fill="#999999"/>
<path d="M33.0595 31.1684C33.034 31.2141 33.0295 31.2603 33.0295 31.2603C33.0295 31.2603 33.0665 31.2324 33.092 31.1866C33.1175 31.1409 33.1221 31.0947 33.1221 31.0947C33.1221 31.0947 33.0851 31.1227 33.0595 31.1684Z" fill="#999999"/>
<path d="M33.1948 31.5038C33.1693 31.5496 33.1649 31.5958 33.1649 31.5958C33.1649 31.5958 33.2019 31.5678 33.2274 31.5221C33.253 31.4764 33.2573 31.4302 33.2573 31.4302C33.2573 31.4302 33.2203 31.4581 33.1948 31.5038Z" fill="#999999"/>
<path d="M33.0401 31.3938C32.9944 31.3683 32.9482 31.3638 32.9482 31.3638C32.9482 31.3638 32.9761 31.4008 33.0218 31.4263C33.0676 31.4518 33.1138 31.4563 33.1138 31.4563C33.1138 31.4563 33.0858 31.4193 33.0401 31.3938Z" fill="#999999"/>
<path d="M33.3887 31.5794C33.343 31.5538 33.2968 31.5493 33.2968 31.5493C33.2968 31.5493 33.3248 31.5863 33.3705 31.6118C33.4162 31.6374 33.4624 31.6417 33.4624 31.6417C33.4624 31.6417 33.4345 31.6049 33.3887 31.5794Z" fill="#999999"/>
<path d="M32.9541 31.6235C32.9286 31.6692 32.9242 31.7154 32.9242 31.7154C32.9242 31.7154 32.9612 31.6874 32.9867 31.6417C33.0122 31.596 33.0166 31.5498 33.0166 31.5498C33.0166 31.5498 32.9796 31.5778 32.9541 31.6235Z" fill="#999999"/>
<path d="M33.3159 31.8316C33.2904 31.8774 33.286 31.9234 33.286 31.9234C33.286 31.9234 33.323 31.8955 33.3485 31.8497C33.3741 31.804 33.3784 31.7578 33.3784 31.7578C33.3784 31.7578 33.3414 31.7859 33.3159 31.8316Z" fill="#999999"/>
<path d="M33.1607 31.7218C33.115 31.6963 33.0688 31.6919 33.0688 31.6919C33.0688 31.6919 33.0967 31.7289 33.1425 31.7544C33.1882 31.7799 33.2344 31.7843 33.2344 31.7843C33.2344 31.7843 33.2064 31.7473 33.1607 31.7218Z" fill="#999999"/>
<path d="M32.8842 31.903C32.9299 31.9285 32.9761 31.9329 32.9761 31.9329C32.9761 31.9329 32.9481 31.8959 32.9024 31.8704C32.8567 31.8449 32.8105 31.8403 32.8105 31.8403C32.8105 31.8403 32.8384 31.8775 32.8842 31.903Z" fill="#999999"/>
<path d="M33.246 32.1118C33.2917 32.1374 33.3379 32.1419 33.3379 32.1419C33.3379 32.1419 33.3099 32.1049 33.2642 32.0794C33.2185 32.0538 33.1723 32.0493 33.1723 32.0493C33.1723 32.0493 33.2003 32.0863 33.246 32.1118Z" fill="#999999"/>
<path d="M33.0591 31.9838C33.0335 32.0295 33.029 32.0757 33.029 32.0757C33.029 32.0757 33.066 32.0478 33.0915 32.0021C33.1171 31.9564 33.1216 31.9102 33.1216 31.9102C33.1216 31.9102 33.0846 31.9381 33.0591 31.9838Z" fill="#999999"/>
<path d="M33.1943 32.3186C33.1688 32.3643 33.1644 32.4105 33.1644 32.4105C33.1644 32.4105 33.2014 32.3826 33.2269 32.3369C33.2525 32.2912 33.2568 32.2451 33.2568 32.2451C33.2568 32.2451 33.2198 32.2729 33.1943 32.3186Z" fill="#999999"/>
<path d="M33.0396 32.2088C32.9939 32.1832 32.9477 32.1787 32.9477 32.1787C32.9477 32.1787 32.9756 32.2157 33.0214 32.2412C33.0671 32.2668 33.1133 32.2713 33.1133 32.2713C33.1133 32.2713 33.0853 32.2343 33.0396 32.2088Z" fill="#999999"/>
<path d="M33.3882 32.3946C33.3425 32.3691 33.2963 32.3647 33.2963 32.3647C33.2963 32.3647 33.3243 32.4017 33.37 32.4273C33.4157 32.4528 33.4619 32.4572 33.4619 32.4572C33.4619 32.4572 33.434 32.4202 33.3882 32.3946Z" fill="#999999"/>
<path d="M32.9546 32.4382C32.929 32.484 32.9247 32.5302 32.9247 32.5302C32.9247 32.5302 32.9617 32.5022 32.9872 32.4565C33.0127 32.4108 33.0171 32.3647 33.0171 32.3647C33.0171 32.3647 32.9801 32.3925 32.9546 32.4382Z" fill="#999999"/>
<path d="M33.3164 32.6464C33.2909 32.6921 33.2865 32.7383 33.2865 32.7383C33.2865 32.7383 33.3235 32.7104 33.349 32.6647C33.3745 32.619 33.3789 32.5728 33.3789 32.5728C33.3789 32.5728 33.3419 32.6007 33.3164 32.6464Z" fill="#999999"/>
<path d="M33.1612 32.5364C33.1155 32.5109 33.0693 32.5063 33.0693 32.5063C33.0693 32.5063 33.0972 32.5433 33.1429 32.5689C33.1887 32.5944 33.2349 32.5988 33.2349 32.5988C33.2349 32.5988 33.2069 32.5619 33.1612 32.5364Z" fill="#999999"/>
<path d="M32.8846 32.7173C32.9304 32.7428 32.9766 32.7472 32.9766 32.7472C32.9766 32.7472 32.9486 32.7102 32.9029 32.6847C32.8572 32.6591 32.811 32.6548 32.811 32.6548C32.811 32.6548 32.8389 32.6918 32.8846 32.7173Z" fill="#999999"/>
<path d="M33.2465 32.9255C33.2922 32.951 33.3384 32.9554 33.3384 32.9554C33.3384 32.9554 33.3104 32.9184 33.2647 32.8928C33.219 32.8673 33.1728 32.8628 33.1728 32.8628C33.1728 32.8628 33.2007 32.8999 33.2465 32.9255Z" fill="#999999"/>
<path d="M33.0595 32.797C33.034 32.8427 33.0295 32.8887 33.0295 32.8887C33.0295 32.8887 33.0665 32.8608 33.092 32.8151C33.1175 32.7693 33.1221 32.7231 33.1221 32.7231C33.1221 32.7231 33.0851 32.7513 33.0595 32.797Z" fill="#999999"/>
<path d="M33.1948 33.1332C33.1693 33.179 33.1649 33.2252 33.1649 33.2252C33.1649 33.2252 33.2019 33.1972 33.2274 33.1515C33.253 33.1058 33.2573 33.0596 33.2573 33.0596C33.2573 33.0596 33.2203 33.0875 33.1948 33.1332Z" fill="#999999"/>
<path d="M33.0401 33.0222C32.9944 32.9967 32.9482 32.9922 32.9482 32.9922C32.9482 32.9922 32.9761 33.0292 33.0218 33.0547C33.0676 33.0802 33.1138 33.0848 33.1138 33.0848C33.1138 33.0848 33.0858 33.0478 33.0401 33.0222Z" fill="#999999"/>
<path d="M33.3887 33.2076C33.343 33.1821 33.2968 33.1777 33.2968 33.1777C33.2968 33.1777 33.3248 33.2147 33.3705 33.2403C33.4162 33.2658 33.4624 33.2701 33.4624 33.2701C33.4624 33.2701 33.4345 33.2333 33.3887 33.2076Z" fill="#999999"/>
<path d="M32.9541 33.2519C32.9286 33.2976 32.9242 33.3438 32.9242 33.3438C32.9242 33.3438 32.9612 33.3159 32.9867 33.2701C33.0122 33.2244 33.0166 33.1782 33.0166 33.1782C33.0166 33.1782 32.9796 33.2062 32.9541 33.2519Z" fill="#999999"/>
<path d="M33.3159 33.4597C33.2904 33.5055 33.286 33.5517 33.286 33.5517C33.286 33.5517 33.323 33.5237 33.3485 33.478C33.3741 33.4323 33.3784 33.3862 33.3784 33.3862C33.3784 33.3862 33.3414 33.414 33.3159 33.4597Z" fill="#999999"/>
<path d="M33.1607 33.3499C33.115 33.3243 33.0688 33.3198 33.0688 33.3198C33.0688 33.3198 33.0967 33.3568 33.1425 33.3823C33.1882 33.4079 33.2344 33.4122 33.2344 33.4122C33.2344 33.4122 33.2064 33.3754 33.1607 33.3499Z" fill="#999999"/>
<path d="M32.8842 33.5318C32.9299 33.5573 32.9761 33.5616 32.9761 33.5616C32.9761 33.5616 32.9481 33.5246 32.9024 33.4991C32.8567 33.4736 32.8105 33.4692 32.8105 33.4692C32.8105 33.4692 32.8384 33.5062 32.8842 33.5318Z" fill="#999999"/>
<path d="M33.246 33.7398C33.2917 33.7653 33.3379 33.7697 33.3379 33.7697C33.3379 33.7697 33.3099 33.7327 33.2642 33.7071C33.2185 33.6816 33.1723 33.6772 33.1723 33.6772C33.1723 33.6772 33.2003 33.7142 33.246 33.7398Z" fill="#999999"/>
<path d="M33.0591 33.6118C33.0335 33.6575 33.029 33.7037 33.029 33.7037C33.029 33.7037 33.066 33.6757 33.0915 33.63C33.1171 33.5843 33.1216 33.5381 33.1216 33.5381C33.1216 33.5381 33.0846 33.566 33.0591 33.6118Z" fill="#999999"/>
<path d="M33.1943 33.9482C33.1688 33.9939 33.1644 34.0401 33.1644 34.0401C33.1644 34.0401 33.2014 34.0122 33.2269 33.9664C33.2525 33.9207 33.2568 33.8745 33.2568 33.8745C33.2568 33.8745 33.2198 33.9025 33.1943 33.9482Z" fill="#999999"/>
<path d="M33.0396 33.837C32.9939 33.8115 32.9477 33.8071 32.9477 33.8071C32.9477 33.8071 32.9756 33.8441 33.0214 33.8696C33.0671 33.8952 33.1133 33.8995 33.1133 33.8995C33.1133 33.8995 33.0853 33.8625 33.0396 33.837Z" fill="#999999"/>
<path d="M33.3882 34.0235C33.3425 33.998 33.2963 33.9937 33.2963 33.9937C33.2963 33.9937 33.3243 34.0307 33.37 34.0562C33.4157 34.0817 33.4619 34.0861 33.4619 34.0861C33.4619 34.0861 33.434 34.0492 33.3882 34.0235Z" fill="#999999"/>
<path d="M32.9541 34.0673C32.9286 34.113 32.9242 34.1592 32.9242 34.1592C32.9242 34.1592 32.9612 34.1313 32.9867 34.0856C33.0122 34.0399 33.0166 33.9937 33.0166 33.9937C33.0166 33.9937 32.9796 34.0216 32.9541 34.0673Z" fill="#999999"/>
<path d="M33.3159 34.2753C33.2904 34.321 33.286 34.3672 33.286 34.3672C33.286 34.3672 33.323 34.3393 33.3485 34.2936C33.3741 34.2479 33.3784 34.2017 33.3784 34.2017C33.3784 34.2017 33.3414 34.2296 33.3159 34.2753Z" fill="#999999"/>
<path d="M33.1607 34.1653C33.115 34.1398 33.0688 34.1353 33.0688 34.1353C33.0688 34.1353 33.0967 34.1722 33.1425 34.1978C33.1882 34.2233 33.2344 34.2278 33.2344 34.2278C33.2344 34.2278 33.2064 34.1908 33.1607 34.1653Z" fill="#999999"/>
<path d="M32.8842 34.3465C32.9299 34.3721 32.9761 34.3766 32.9761 34.3766C32.9761 34.3766 32.9481 34.3396 32.9024 34.3141C32.8567 34.2885 32.8105 34.2842 32.8105 34.2842C32.8105 34.2842 32.8384 34.321 32.8842 34.3465Z" fill="#999999"/>
<path d="M33.246 34.5542C33.2917 34.5797 33.3379 34.5841 33.3379 34.5841C33.3379 34.5841 33.3099 34.5471 33.2642 34.5216C33.2185 34.4961 33.1723 34.4917 33.1723 34.4917C33.1723 34.4917 33.2003 34.5287 33.246 34.5542Z" fill="#999999"/>
<path d="M33.0591 34.4265C33.0335 34.4722 33.029 34.5185 33.029 34.5185C33.029 34.5185 33.066 34.4905 33.0915 34.4448C33.1171 34.3991 33.1216 34.353 33.1216 34.353C33.1216 34.353 33.0846 34.3808 33.0591 34.4265Z" fill="#999999"/>
<path d="M33.1943 34.7621C33.1688 34.8079 33.1644 34.8541 33.1644 34.8541C33.1644 34.8541 33.2014 34.8261 33.2269 34.7804C33.2525 34.7347 33.2568 34.6885 33.2568 34.6885C33.2568 34.6885 33.2198 34.7164 33.1943 34.7621Z" fill="#999999"/>
<path d="M33.0401 34.6524C32.9944 34.6269 32.9482 34.6226 32.9482 34.6226C32.9482 34.6226 32.9761 34.6596 33.0218 34.6851C33.0676 34.7106 33.1138 34.7151 33.1138 34.7151C33.1138 34.7151 33.0858 34.678 33.0401 34.6524Z" fill="#999999"/>
<path d="M33.3882 34.8372C33.3425 34.8117 33.2963 34.8071 33.2963 34.8071C33.2963 34.8071 33.3243 34.8441 33.37 34.8696C33.4157 34.8952 33.4619 34.8997 33.4619 34.8997C33.4619 34.8997 33.434 34.8627 33.3882 34.8372Z" fill="#999999"/>
<path d="M32.9546 34.8819C32.929 34.9277 32.9247 34.9737 32.9247 34.9737C32.9247 34.9737 32.9617 34.9457 32.9872 34.9C33.0127 34.8543 33.0171 34.8081 33.0171 34.8081C33.0171 34.8081 32.9801 34.8362 32.9546 34.8819Z" fill="#999999"/>
<path d="M33.3164 35.0903C33.2909 35.136 33.2865 35.1822 33.2865 35.1822C33.2865 35.1822 33.3235 35.1542 33.349 35.1085C33.3745 35.0628 33.3789 35.0166 33.3789 35.0166C33.3789 35.0166 33.3419 35.0447 33.3164 35.0903Z" fill="#999999"/>
<path d="M33.1612 34.9793C33.1155 34.9537 33.0693 34.9492 33.0693 34.9492C33.0693 34.9492 33.0972 34.9862 33.1429 35.0117C33.1887 35.0373 33.2349 35.0416 33.2349 35.0416C33.2349 35.0416 33.2069 35.0048 33.1612 34.9793Z" fill="#999999"/>
<path d="M32.8846 35.1608C32.9304 35.1864 32.9766 35.1907 32.9766 35.1907C32.9766 35.1907 32.9486 35.1537 32.9029 35.1282C32.8572 35.1027 32.811 35.0981 32.811 35.0981C32.811 35.0981 32.8389 35.1353 32.8846 35.1608Z" fill="#999999"/>
<path d="M33.2465 35.3685C33.2922 35.394 33.3384 35.3986 33.3384 35.3986C33.3384 35.3986 33.3104 35.3616 33.2647 35.336C33.219 35.3105 33.1728 35.3062 33.1728 35.3062C33.1728 35.3062 33.2007 35.343 33.2465 35.3685Z" fill="#999999"/>
<path d="M33.0595 35.2408C33.034 35.2865 33.0295 35.3326 33.0295 35.3326C33.0295 35.3326 33.0665 35.3046 33.092 35.2589C33.1175 35.2132 33.1221 35.167 33.1221 35.167C33.1221 35.167 33.0851 35.1951 33.0595 35.2408Z" fill="#999999"/>
<path d="M33.1948 35.5758C33.1693 35.6215 33.1649 35.6675 33.1649 35.6675C33.1649 35.6675 33.2019 35.6396 33.2274 35.5939C33.253 35.5482 33.2573 35.502 33.2573 35.502C33.2573 35.502 33.2203 35.5301 33.1948 35.5758Z" fill="#999999"/>
<path d="M33.0401 35.4664C32.9944 35.4409 32.9482 35.4365 32.9482 35.4365C32.9482 35.4365 32.9761 35.4735 33.0218 35.499C33.0676 35.5246 33.1138 35.5289 33.1138 35.5289C33.1138 35.5289 33.0858 35.4919 33.0401 35.4664Z" fill="#999999"/>
<path d="M33.3887 35.6521C33.343 35.6266 33.2968 35.6221 33.2968 35.6221C33.2968 35.6221 33.3248 35.6591 33.3705 35.6846C33.4162 35.7101 33.4624 35.7146 33.4624 35.7146C33.4624 35.7146 33.4345 35.6776 33.3887 35.6521Z" fill="#999999"/>
<path d="M32.9536 35.6957C32.9281 35.7415 32.9237 35.7877 32.9237 35.7877C32.9237 35.7877 32.9607 35.7597 32.9862 35.714C33.0118 35.6683 33.0161 35.6221 33.0161 35.6221C33.0161 35.6221 32.9791 35.65 32.9536 35.6957Z" fill="#999999"/>
<path d="M33.3154 35.9033C33.2899 35.949 33.2855 35.9952 33.2855 35.9952C33.2855 35.9952 33.3225 35.9672 33.348 35.9215C33.3736 35.8758 33.3779 35.8296 33.3779 35.8296C33.3779 35.8296 33.3409 35.8577 33.3154 35.9033Z" fill="#999999"/>
<path d="M33.1602 35.794C33.1145 35.7685 33.0683 35.7642 33.0683 35.7642C33.0683 35.7642 33.0962 35.8012 33.142 35.8267C33.1877 35.8522 33.2339 35.8567 33.2339 35.8567C33.2339 35.8567 33.2059 35.8196 33.1602 35.794Z" fill="#999999"/>
<path d="M32.8842 35.9756C32.9299 36.0011 32.9761 36.0057 32.9761 36.0057C32.9761 36.0057 32.9481 35.9687 32.9024 35.9431C32.8567 35.9176 32.8105 35.9131 32.8105 35.9131C32.8105 35.9131 32.8384 35.9501 32.8842 35.9756Z" fill="#999999"/>
<path d="M33.246 36.1836C33.2917 36.2091 33.3379 36.2137 33.3379 36.2137C33.3379 36.2137 33.3099 36.1767 33.2642 36.1511C33.2185 36.1256 33.1723 36.1211 33.1723 36.1211C33.1723 36.1211 33.2003 36.1581 33.246 36.1836Z" fill="#999999"/>
<path d="M33.0591 36.0556C33.0335 36.1013 33.029 36.1475 33.029 36.1475C33.029 36.1475 33.066 36.1196 33.0915 36.0739C33.1171 36.0281 33.1216 35.9819 33.1216 35.9819C33.1216 35.9819 33.0846 36.0099 33.0591 36.0556Z" fill="#999999"/>
<path d="M33.0396 36.281C32.9939 36.2555 32.9477 36.251 32.9477 36.251C32.9477 36.251 32.9756 36.288 33.0214 36.3135C33.0671 36.339 33.1133 36.3435 33.1133 36.3435C33.1133 36.3435 33.0853 36.3066 33.0396 36.281Z" fill="#999999"/>
</g>
<path d="M30.4263 44.8618L30.6794 44.8618C30.7074 44.8618 30.73 44.8844 30.73 44.9124L30.73 45.0224C30.73 45.0503 30.7074 45.073 30.6794 45.073L30.4263 45.073C30.3983 45.073 30.3757 45.0503 30.3757 45.0224L30.3757 44.9124C30.3759 44.8844 30.3985 44.8618 30.4263 44.8618Z" fill="url(#paint3_linear_580_9722)"/>
<path d="M29.935 44.8618L29.7316 44.8618C29.6899 44.8618 29.6563 44.8956 29.6563 44.9371L29.6563 44.9974C29.6563 45.039 29.6901 45.0726 29.7316 45.0726L29.935 45.0726C29.9767 45.0726 30.0103 45.0389 30.0103 44.9974L30.0103 44.9371C30.0104 44.8956 29.9767 44.8618 29.935 44.8618Z" fill="url(#paint4_linear_580_9722)"/>
<path d="M30.0762 44.2622L30.2754 44.2629C30.3972 44.2633 30.4956 44.3624 30.4951 44.4842L30.4927 45.1415C30.4922 45.2633 30.3932 45.3617 30.2714 45.3612L30.0722 45.3606C29.9504 45.3601 29.852 45.2611 29.8525 45.1393L29.8549 44.4819C29.8554 44.3601 29.9544 44.2617 30.0762 44.2622Z" fill="url(#paint5_linear_580_9722)"/>
<path d="M20.167 44.8618L20.4201 44.8618C20.4479 44.8618 20.4707 44.8844 20.4707 44.9124L20.4707 45.0224C20.4707 45.0503 20.4481 45.073 20.4201 45.073L20.167 45.073C20.139 45.073 20.1164 45.0503 20.1164 45.0224L20.1164 44.9124C20.1164 44.8844 20.139 44.8618 20.167 44.8618Z" fill="url(#paint6_linear_580_9722)"/>
<path d="M19.6757 44.8618L19.4723 44.8618C19.4306 44.8618 19.397 44.8956 19.397 44.9371L19.397 44.9974C19.397 45.039 19.4308 45.0726 19.4723 45.0726L19.6757 45.0726C19.7174 45.0726 19.751 45.0389 19.751 44.9974L19.751 44.9371C19.751 44.8956 19.7172 44.8618 19.6757 44.8618Z" fill="url(#paint7_linear_580_9722)"/>
<path d="M19.8169 44.2622L20.0161 44.2629C20.1379 44.2633 20.2363 44.3624 20.2358 44.4842L20.2334 45.1415C20.2329 45.2633 20.1339 45.3617 20.0121 45.3612L19.8129 45.3606C19.6911 45.3601 19.5927 45.2611 19.5932 45.1393L19.5956 44.4819C19.5959 44.3601 19.6951 44.2617 19.8169 44.2622Z" fill="url(#paint8_linear_580_9722)"/>
<path d="M17.2749 29.8589L32.8506 29.8589L32.8506 43.7555C32.8506 44.302 32.4076 44.7449 31.8613 44.7449L18.2644 44.7449C17.7179 44.7449 17.2749 44.3019 17.2749 43.7555L17.2749 29.8589Z" fill="#E1E2DD"/>
<path d="M18.7516 44.745L31.374 44.745C32.1895 44.745 32.8506 44.0839 32.8506 43.2684L32.8506 42.5972L17.2749 42.5972L17.2749 43.2684C17.2749 44.0839 17.9361 44.745 18.7516 44.745Z" fill="url(#paint9_linear_580_9722)"/>
<path d="M18.7516 44.745L31.374 44.745C32.1895 44.745 32.8506 44.0839 32.8506 43.2684L32.8506 42.5972L17.2749 42.5972L17.2749 43.2684C17.2749 44.0839 17.9361 44.745 18.7516 44.745Z" fill="url(#paint10_linear_580_9722)"/>
<path opacity="0.2" d="M18.9634 44.38L31.1627 44.38C31.9509 44.38 32.5898 43.719 32.5898 42.9035L32.5898 42.5972L17.5365 42.5972L17.5365 42.9035C17.5363 43.719 18.1752 44.38 18.9634 44.38Z" fill="black"/>
<path d="M32.3687 30.1562L32.3687 43.1745C32.3687 43.5426 32.0703 43.8409 31.7023 43.8409L18.4237 43.8409C18.0556 43.8409 17.7573 43.5426 17.7573 43.1745L17.7573 30.1562L32.3687 30.1562Z" fill="#F5F7EA"/>
<g opacity="0.1">
<path d="M32.3687 30.1562L32.3687 43.1745C32.3687 43.5426 32.0703 43.8409 31.7023 43.8409L18.4237 43.8409C18.0556 43.8409 17.7573 43.5426 17.7573 43.1745L17.7573 30.1562L32.3687 30.1562Z" fill="url(#paint11_radial_580_9722)"/>
</g>
<g opacity="0.5">
<path d="M32.3687 30.1562L32.3687 43.1745C32.3687 43.5426 32.0703 43.8409 31.7023 43.8409L18.4237 43.8409C18.0556 43.8409 17.7573 43.5426 17.7573 43.1745L17.7573 30.1562L32.3687 30.1562Z" fill="url(#paint12_linear_580_9722)"/>
</g>
<path opacity="0.3" d="M28.5241 43.8407L29.3747 43.8407L30.1094 34.1359L29.2588 34.0723L28.5241 43.8407Z" fill="url(#paint13_linear_580_9722)"/>
<path opacity="0.3" d="M21.6089 43.8407L20.7583 43.8407L20.0236 34.1359L20.8742 34.0723L21.6089 43.8407Z" fill="url(#paint14_linear_580_9722)"/>
<path d="M18.7519 44.2625L31.3743 44.2625C31.9226 44.2625 32.3687 43.8166 32.3687 43.2682L32.3687 42.8462C32.3687 43.3953 31.9234 43.8407 31.3743 43.8407L18.7519 43.8407C18.2027 43.8407 17.7574 43.3955 17.7574 42.8462L17.7574 43.2682C17.7574 43.8166 18.2035 44.2625 18.7519 44.2625Z" fill="#CCCCCC"/>
<path opacity="0.4" d="M21.6677 44.2148L28.5234 44.2148L28.5234 44.1598L21.6677 44.1598L21.6677 44.2148Z" fill="#666666"/>
<path opacity="0.4" d="M21.6677 44.1211L28.5234 44.1211L28.5234 44.066L21.6677 44.066L21.6677 44.1211Z" fill="#666666"/>
<path opacity="0.4" d="M21.6677 44.0273L28.5234 44.0273L28.5234 43.9723L21.6677 43.9723L21.6677 44.0273Z" fill="#666666"/>
<path opacity="0.4" d="M21.6677 43.9341L28.5234 43.9341L28.5234 43.879L21.6677 43.879L21.6677 43.9341Z" fill="#666666"/>
<path d="M31.3725 44.263L31.3743 44.263C31.9226 44.263 32.3687 43.8171 32.3687 43.2686L32.3687 42.8467C32.3687 43.3958 31.9234 43.8412 31.3743 43.8412L31.3725 43.8412L31.3725 44.263Z" fill="#FF6600"/>
<path d="M28.5624 43.8408L31.3745 43.8408L31.3745 44.2628L28.2836 44.2628L28.5624 43.8408Z" fill="#DCFFFE"/>
<path d="M31.3727 43.8784L28.5376 43.8784L28.4754 43.9724L31.3727 43.9724L31.3745 43.9724L31.3745 43.8784L31.3727 43.8784Z" fill="white"/>
<path opacity="0.4" d="M31.3743 43.9728C31.9226 43.9728 32.3687 43.5269 32.3687 42.9785L32.3687 42.8843C32.3687 43.4326 31.9226 43.8786 31.3743 43.8786L31.3725 43.8786L31.3725 43.9728L31.3743 43.9728Z" fill="white"/>
<path d="M32.3688 42.8843L32.4675 42.8843C32.4932 42.8843 32.5142 42.9166 32.5142 42.9563L32.5142 43.234C32.5142 43.2738 32.4933 43.3061 32.4675 43.3061L32.3688 43.3061L32.3688 42.8843Z" fill="#FF6600"/>
<path d="M18.7705 44.263L18.7687 44.263C18.2204 44.263 17.7744 43.8171 17.7744 43.2686L17.7744 42.8467C17.7744 43.3958 18.2196 43.8412 18.7687 43.8412L18.7705 43.8412L18.7705 44.263Z" fill="#FF6600"/>
<path d="M21.5812 43.8408L18.7691 43.8408L18.7691 44.2628L21.8599 44.2628L21.5812 43.8408Z" fill="#DCFFFE"/>
<path d="M18.7711 43.8784L21.6063 43.8784L21.6685 43.9724L18.7711 43.9724L18.7693 43.9724L18.7693 43.8784L18.7711 43.8784Z" fill="white"/>
<path opacity="0.4" d="M18.7687 43.9728C18.2204 43.9728 17.7744 43.5269 17.7744 42.9785L17.7744 42.8843C17.7744 43.4326 18.2204 43.8786 18.7687 43.8786L18.7705 43.8786L18.7705 43.9728L18.7687 43.9728Z" fill="white"/>
<path d="M17.7749 42.8843L17.6762 42.8843C17.6505 42.8843 17.6295 42.9166 17.6295 42.9563L17.6295 43.234C17.6295 43.2738 17.6503 43.3061 17.6762 43.3061L17.7749 43.3061L17.7749 42.8843Z" fill="#FF6600"/>
<path d="M31.0753 32.9291C29.5199 33.157 22.6296 33.6998 19.2318 32.9777C18.8944 32.906 18.5549 33.0816 18.4177 33.3979L17.8033 37.5931C17.6622 37.9188 17.8324 38.2943 18.1715 38.3994C19.9019 38.9364 25.0853 40.1676 31.9349 38.3393C32.2785 38.2476 32.4611 37.8713 32.3278 37.5416L31.8517 33.3759C31.7265 33.0657 31.4065 32.8806 31.0753 32.9291Z" fill="#F4F4F4"/>
<path opacity="0.5" d="M31.0753 32.9291C29.5199 33.157 22.6296 33.6998 19.2318 32.9777C18.8944 32.906 18.5549 33.0816 18.4177 33.3979L17.8033 37.5931C17.6622 37.9188 17.8324 38.2943 18.1715 38.3994C19.9019 38.9364 25.0853 40.1676 31.9349 38.3393C32.2785 38.2476 32.4611 37.8713 32.3278 37.5416L31.8517 33.3759C31.7265 33.0657 31.4065 32.8806 31.0753 32.9291Z" fill="url(#paint15_linear_580_9722)"/>
<path d="M31.1805 33.2139C31.3568 33.2139 31.5136 33.3205 31.5804 33.4853L32.0564 37.651C32.0892 37.7324 32.0855 37.8243 32.0463 37.9028C32.0078 37.9797 31.9414 38.0343 31.8593 38.0565C29.4831 38.6907 27.0822 39.0124 24.7233 39.0124C21.6006 39.0124 19.3324 38.4531 18.2583 38.1196C18.1756 38.0939 18.1101 38.0368 18.0741 37.9581C18.0376 37.8786 18.0368 37.7906 18.072 37.7093L18.6864 33.5142C18.7549 33.3563 18.9096 33.2543 19.0807 33.2543C19.1108 33.2543 19.141 33.2575 19.171 33.2639C20.3216 33.5084 22.9039 33.6323 24.4692 33.6323C26.7486 33.6323 30.0634 33.3732 31.1178 33.2186C31.139 33.2153 31.1598 33.2139 31.1805 33.2139Z" fill="black"/>
<path d="M31.1803 33.3608C31.2966 33.3608 31.4001 33.4314 31.4442 33.5406L31.9203 37.7064C31.9437 37.7644 31.9271 37.8136 31.915 37.8379C31.9011 37.8656 31.8736 37.9013 31.8213 37.9154C29.4574 38.5464 27.0692 38.8664 24.723 38.8664C21.6195 38.8664 19.3675 38.3112 18.3015 37.9803C18.244 37.9626 18.2175 37.9209 18.2068 37.8976C18.196 37.8736 18.1813 37.8253 18.206 37.7681L18.8204 33.5726C18.8656 33.4686 18.9677 33.4011 19.0805 33.4011C19.1003 33.4011 19.1204 33.4033 19.1402 33.4074C20.3008 33.6542 22.8935 33.7791 24.4689 33.7791C26.7576 33.7791 30.0805 33.5188 31.1388 33.3639C31.1526 33.362 31.1665 33.3608 31.1803 33.3608Z" fill="#676B86"/>
<path opacity="0.2" d="M31.7903 36.5688C30.0855 36.9832 27.5348 37.3157 25.0623 37.3157C22.6158 37.3157 20.0799 36.9755 18.3817 36.5688L18.2061 37.768C18.1813 37.8252 18.196 37.8735 18.2069 37.8976C18.2175 37.9207 18.244 37.9625 18.3015 37.9803C19.3676 38.3112 21.6196 38.8664 24.7231 38.8664C27.0692 38.8664 29.4574 38.5464 31.8213 37.9154C31.8737 37.9013 31.9011 37.8656 31.915 37.8378C31.927 37.8136 31.9438 37.7643 31.9204 37.7063L31.7903 36.5688Z" fill="black"/>
<path d="M31.8872 37.624C30.0616 38.0749 27.6757 38.3486 25.0623 38.3486C22.4624 38.3486 20.0876 38.0777 18.2655 37.631L18.2061 37.7681C18.1813 37.8253 18.196 37.8736 18.2069 37.8977C18.2175 37.9208 18.244 37.9626 18.3015 37.9804C19.3676 38.3113 21.6196 38.8665 24.7231 38.8665C27.0692 38.8665 29.4574 38.5465 31.8213 37.9155C31.8737 37.9014 31.9011 37.8657 31.915 37.8379C31.927 37.8137 31.9438 37.7644 31.9204 37.7064L31.8872 37.624Z" fill="#333333"/>
<path d="M29.6738 37.6958L27.765 38.0932L27.7475 37.9977L29.6653 37.6479L29.6738 37.6958Z" fill="black"/>
<path d="M25.1019 38.481L27.7095 38.0054L27.5806 38.1277L25.1194 38.5764L25.1019 38.481Z" fill="black"/>
<path d="M29.5538 37.6436L24.9996 38.4726L25.0089 38.5235L29.6699 37.6734L29.5538 37.6436Z" fill="#333333"/>
<path d="M25.117 38.5024C25.1302 38.5754 25.0819 38.6453 25.0089 38.6586C24.9359 38.6718 24.8659 38.6235 24.8527 38.5505C24.8394 38.4775 24.8877 38.4075 24.9607 38.3943C25.0338 38.381 25.1037 38.4293 25.117 38.5024Z" fill="black"/>
<path d="M25.1125 38.4785C25.1233 38.5383 25.0837 38.5956 25.0239 38.6064C24.9642 38.6174 24.9068 38.5777 24.896 38.5179C24.885 38.4581 24.9248 38.4008 24.9845 38.39C25.0443 38.3791 25.1017 38.4187 25.1125 38.4785Z" fill="#333333"/>
<path d="M25.4434 37.9096L23.5043 38.114L23.4964 38.0172L25.4395 37.8613L25.4434 37.9096Z" fill="black"/>
<path d="M20.8159 38.232L23.458 38.02L23.3173 38.1286L20.8236 38.3287L20.8159 38.232Z" fill="black"/>
<path d="M25.3288 37.8462L20.7145 38.215L20.7187 38.2667L25.4414 37.8875L25.3288 37.8462Z" fill="#333333"/>
<path d="M20.8282 38.2559C20.8341 38.3299 20.7789 38.3945 20.7051 38.4005C20.6311 38.4064 20.5665 38.3512 20.5605 38.2774C20.5545 38.2034 20.6098 38.1387 20.6836 38.1328C20.7574 38.1268 20.8222 38.1819 20.8282 38.2559Z" fill="black"/>
<path d="M20.8268 38.232C20.8316 38.2926 20.7866 38.3456 20.726 38.3506C20.6654 38.3554 20.6124 38.3102 20.6076 38.2496C20.6027 38.1891 20.6478 38.1361 20.7084 38.1312C20.769 38.1264 20.8219 38.1714 20.8268 38.232Z" fill="#333333"/>
<path opacity="0.5" d="M31.1803 33.3608C31.2966 33.3608 31.4001 33.4314 31.4442 33.5406L31.9203 37.7064C31.9437 37.7644 31.9271 37.8136 31.915 37.8379C31.9011 37.8656 31.8736 37.9013 31.8213 37.9154C29.4574 38.5464 27.0692 38.8664 24.723 38.8664C21.6195 38.8664 19.3675 38.3112 18.3015 37.9803C18.244 37.9626 18.2175 37.9209 18.2068 37.8976C18.196 37.8736 18.1813 37.8253 18.206 37.7681L18.8204 33.5726C18.8656 33.4686 18.9677 33.4011 19.0805 33.4011C19.1003 33.4011 19.1204 33.4033 19.1402 33.4074C20.3008 33.6542 22.8935 33.7791 24.4689 33.7791C26.7576 33.7791 30.0805 33.5188 31.1388 33.3639C31.1526 33.362 31.1665 33.3608 31.1803 33.3608Z" fill="url(#paint16_radial_580_9722)"/>
<path opacity="0.3" d="M31.1803 33.3608C31.2966 33.3608 31.4001 33.4314 31.4442 33.5406L31.9203 37.7064C31.9437 37.7644 31.9271 37.8136 31.915 37.8379C31.9011 37.8656 31.8736 37.9013 31.8213 37.9154C29.4574 38.5464 27.0692 38.8664 24.723 38.8664C21.6195 38.8664 19.3675 38.3112 18.3015 37.9803C18.244 37.9626 18.2175 37.9209 18.2068 37.8976C18.196 37.8736 18.1813 37.8253 18.206 37.7681L18.8204 33.5726C18.8656 33.4686 18.9677 33.4011 19.0805 33.4011C19.1003 33.4011 19.1204 33.4033 19.1402 33.4074C20.3008 33.6542 22.8935 33.7791 24.4689 33.7791C26.7576 33.7791 30.0805 33.5188 31.1388 33.3639C31.1526 33.362 31.1665 33.3608 31.1803 33.3608Z" fill="url(#paint17_radial_580_9722)"/>
<path d="M32.3751 30.1533C32.3683 30.1533 32.3614 30.1545 32.3544 30.1562L31.6829 30.1533C31.6136 30.1738 31.5612 30.2971 31.5612 30.4399L31.5612 32.3795C31.5612 32.4184 31.5649 32.4564 31.5724 32.4922L32.294 37.8705C32.3068 37.9324 32.335 37.9709 32.3678 37.9709C32.4131 37.9709 32.4486 37.8988 32.4486 37.8067L32.5171 30.4428C32.5171 30.3648 32.5022 30.2919 32.4749 30.2372C32.4481 30.1829 32.4126 30.1533 32.3751 30.1533Z" fill="#F4F4F4"/>
<path opacity="0.5" d="M32.3751 30.1533C32.3683 30.1533 32.3614 30.1545 32.3544 30.1562L31.6829 30.1533C31.6136 30.1738 31.5612 30.2971 31.5612 30.4399L31.5612 32.3795C31.5612 32.4184 31.5649 32.4564 31.5724 32.4922L32.294 37.8705C32.3068 37.9324 32.335 37.9709 32.3678 37.9709C32.4131 37.9709 32.4486 37.8988 32.4486 37.8067L32.5171 30.4428C32.5171 30.3648 32.5022 30.2919 32.4749 30.2372C32.4481 30.1829 32.4126 30.1533 32.3751 30.1533Z" fill="url(#paint18_linear_580_9722)"/>
<path d="M32.3435 37.8282L31.6219 32.4497C31.6172 32.4274 31.6149 32.4035 31.6149 32.3793L31.6149 30.4399C31.6149 30.3499 31.6474 30.2737 31.691 30.2607L32.3626 30.2637C32.4162 30.2477 32.4644 30.3325 32.4644 30.4428L32.3959 37.8067C32.3957 37.867 32.355 37.8836 32.3435 37.8282Z" fill="black"/>
<path d="M32.3699 30.3711L31.6984 30.3682C31.6809 30.3732 31.6678 30.404 31.6678 30.4399L31.6678 32.3795C31.6678 32.3891 31.6688 32.3985 31.6706 32.4074L32.3421 37.5443L32.4106 30.4428C32.4106 30.4232 32.4069 30.405 32.4001 30.3913C32.3934 30.3777 32.3845 30.3703 32.3751 30.3703L32.3699 30.3711Z" fill="#676B86"/>
<path opacity="0.2" d="M32.1486 30.4372L32.3698 30.3714L32.3751 30.3706C32.3845 30.3706 32.3934 30.378 32.4001 30.3916C32.4069 30.4053 32.4106 30.4236 32.4106 30.4431L32.3422 37.5447L32.2271 35.0908L32.1486 30.4372Z" fill="black"/>
<path opacity="0.5" d="M32.3699 30.3711L31.6984 30.3682C31.6809 30.3732 31.6678 30.404 31.6678 30.4399L31.6678 32.3795C31.6678 32.3891 31.6688 32.3985 31.6706 32.4074L32.3421 37.5443L32.4106 30.4428C32.4106 30.4232 32.4069 30.405 32.4001 30.3913C32.3934 30.3777 32.3845 30.3703 32.3751 30.3703L32.3699 30.3711Z" fill="url(#paint19_linear_580_9722)"/>
<path opacity="0.3" d="M32.3699 30.3711L31.6984 30.3682C31.6809 30.3732 31.6678 30.404 31.6678 30.4399L31.6678 32.3795C31.6678 32.3891 31.6688 32.3985 31.6706 32.4074L32.3421 37.5443L32.4106 30.4428C32.4106 30.4232 32.4069 30.405 32.4001 30.3913C32.3934 30.3777 32.3845 30.3703 32.3751 30.3703L32.3699 30.3711Z" fill="url(#paint20_linear_580_9722)"/>
<path d="M17.71 30.1543C17.7168 30.1543 17.7238 30.1554 17.7307 30.1572L18.4023 30.1543C18.4716 30.1748 18.5239 30.2981 18.5239 30.4409L18.5239 32.3804C18.5239 32.4194 18.5202 32.4573 18.5126 32.4932L17.791 37.8715C17.7781 37.9334 17.75 37.9718 17.7172 37.9718C17.6719 37.9718 17.6364 37.8998 17.6364 37.8077L17.5679 30.4438C17.5679 30.3658 17.5827 30.2929 17.6099 30.2381C17.637 30.1839 17.6726 30.1543 17.71 30.1543Z" fill="#F4F4F4"/>
<path opacity="0.5" d="M17.71 30.1543C17.7168 30.1543 17.7238 30.1554 17.7307 30.1572L18.4023 30.1543C18.4716 30.1748 18.5239 30.2981 18.5239 30.4409L18.5239 32.3804C18.5239 32.4194 18.5202 32.4573 18.5126 32.4932L17.791 37.8715C17.7781 37.9334 17.75 37.9718 17.7172 37.9718C17.6719 37.9718 17.6364 37.8998 17.6364 37.8077L17.5679 30.4438C17.5679 30.3658 17.5827 30.2929 17.6099 30.2381C17.637 30.1839 17.6726 30.1543 17.71 30.1543Z" fill="url(#paint21_linear_580_9722)"/>
<path d="M17.7416 37.8292L18.4633 32.4507C18.468 32.4284 18.4702 32.4045 18.4702 32.3803L18.4702 30.4409C18.4702 30.3509 18.4379 30.2746 18.3941 30.2617L17.7226 30.2646C17.6689 30.2486 17.6208 30.3334 17.6208 30.4438L17.6893 37.8077C17.6894 37.8679 17.73 37.8846 17.7416 37.8292Z" fill="black"/>
<path d="M17.7154 30.372L18.3869 30.3691C18.4044 30.3741 18.4175 30.405 18.4175 30.4409L18.4175 32.3804C18.4175 32.3901 18.4165 32.3995 18.4147 32.4084L17.7432 37.5453L17.6747 30.4438C17.6747 30.4242 17.6784 30.406 17.6852 30.3922C17.692 30.3787 17.7009 30.3712 17.7102 30.3712L17.7154 30.372Z" fill="#676B86"/>
<path opacity="0.2" d="M17.9365 30.4377L17.7154 30.3719L17.71 30.3711C17.7007 30.3711 17.6918 30.3785 17.685 30.3921C17.6782 30.4058 17.6745 30.4241 17.6745 30.4436L17.743 37.5452L17.858 35.0912L17.9365 30.4377Z" fill="black"/>
<path opacity="0.5" d="M17.7154 30.372L18.3869 30.3691C18.4044 30.3741 18.4175 30.405 18.4175 30.4409L18.4175 32.3804C18.4175 32.3901 18.4165 32.3995 18.4147 32.4084L17.7432 37.5453L17.6747 30.4438C17.6747 30.4242 17.6784 30.406 17.6852 30.3922C17.692 30.3787 17.7009 30.3712 17.7102 30.3712L17.7154 30.372Z" fill="url(#paint22_linear_580_9722)"/>
<path opacity="0.3" d="M17.7154 30.372L18.3869 30.3691C18.4044 30.3741 18.4175 30.405 18.4175 30.4409L18.4175 32.3804C18.4175 32.3901 18.4165 32.3995 18.4147 32.4084L17.7432 37.5453L17.6747 30.4438C17.6747 30.4242 17.6784 30.406 17.6852 30.3922C17.692 30.3787 17.7009 30.3712 17.7102 30.3712L17.7154 30.372Z" fill="url(#paint23_linear_580_9722)"/>
<path d="M32.3679 37.0202L34 36.3911L34 36.6956C34 36.8389 33.9118 36.9675 33.778 37.0191L32.3679 37.5627L32.3679 37.0202Z" fill="#999999"/>
<path opacity="0.4" d="M32.3679 36.9826L34 36.3535L34 36.658C34 36.8013 33.9118 36.9299 33.778 36.9816L32.3679 37.5252L32.3679 36.9826Z" fill="url(#paint24_linear_580_9722)"/>
<path d="M32.8354 36.5936L33.8656 36.2581C33.932 36.2364 34 36.2859 34 36.3556L34 36.7303L32.7643 37.1327L32.7643 36.6913C32.7645 36.6469 32.7932 36.6075 32.8354 36.5936Z" fill="#666666"/>
<path opacity="0.3" d="M32.8354 36.5936L33.8656 36.2581C33.932 36.2364 34 36.2859 34 36.3556L34 36.7303L32.7643 37.1327L32.7643 36.6913C32.7645 36.6469 32.7932 36.6075 32.8354 36.5936Z" fill="url(#paint25_linear_580_9722)"/>
<path d="M17.7021 37.0202L16.07 36.3911L16.07 36.6956C16.07 36.8389 16.1582 36.9675 16.292 37.0191L17.7021 37.5627L17.7021 37.0202Z" fill="#999999"/>
<path opacity="0.4" d="M17.7021 36.9826L16.07 36.3535L16.07 36.658C16.07 36.8013 16.1582 36.9299 16.292 36.9816L17.7021 37.5252L17.7021 36.9826Z" fill="url(#paint26_linear_580_9722)"/>
<path d="M17.2347 36.5936L16.2046 36.2581C16.1382 36.2364 16.07 36.2859 16.07 36.3556L16.07 36.7303L17.3057 37.1327L17.3057 36.6913C17.3055 36.6469 17.2769 36.6075 17.2347 36.5936Z" fill="#666666"/>
<path opacity="0.3" d="M17.2347 36.5936L16.2046 36.2581C16.1382 36.2364 16.07 36.2859 16.07 36.3556L16.07 36.7303L17.3057 37.1327L17.3057 36.6913C17.3055 36.6469 17.2769 36.6075 17.2347 36.5936Z" fill="url(#paint27_linear_580_9722)"/>
<path opacity="0.7" d="M20.9203 30.4565L29.6899 30.4565L29.3673 31.5347L20.5977 31.5347L20.9203 30.4565Z" fill="url(#paint28_linear_580_9722)"/>
<path d="M20.7636 30.7222L29.3628 30.7222C29.6238 30.7222 29.8354 30.9338 29.8354 31.1949L29.8354 31.6976C29.8354 31.9587 29.6238 32.1703 29.3628 32.1703L20.7636 32.1703C20.5025 32.1703 20.2909 31.9587 20.2909 31.6976L20.2909 31.1949C20.2909 30.9338 20.5025 30.7222 20.7636 30.7222Z" fill="#999999"/>
<path d="M20.7639 32.1701L24.002 32.1701L24.002 30.7222L20.7639 30.7222C20.5028 30.7222 20.2912 30.9338 20.2912 31.1949L20.2912 31.6976C20.2912 31.9585 20.5028 32.1701 20.7639 32.1701Z" fill="#5D94FF"/>
<path opacity="0.5" d="M23.6567 31.0669L23.6567 31.8259L20.7632 31.8259C20.6928 31.8259 20.6353 31.7683 20.6353 31.6976L20.6353 31.1952C20.6353 31.1244 20.6927 31.0669 20.7632 31.0669L23.6567 31.0669Z" fill="#5384E4"/>
<path d="M29.3628 32.1701L26.1247 32.1701L26.1247 30.7222L29.3628 30.7222C29.6238 30.7222 29.8354 30.9338 29.8354 31.1949L29.8354 31.6976C29.8354 31.9585 29.6238 32.1701 29.3628 32.1701Z" fill="#CC0000"/>
<path opacity="0.3" d="M29.3626 31.0669C29.4332 31.0669 29.4907 31.1244 29.4907 31.1952L29.4907 31.6976C29.4907 31.7683 29.4334 31.8259 29.3626 31.8259L26.4691 31.8259L26.4691 31.0669L29.3626 31.0669Z" fill="#660000"/>
<path opacity="0.5" d="M20.7636 30.7222L29.3628 30.7222C29.6238 30.7222 29.8354 30.9338 29.8354 31.1949L29.8354 31.6976C29.8354 31.9587 29.6238 32.1703 29.3628 32.1703L20.7636 32.1703C20.5025 32.1703 20.2909 31.9587 20.2909 31.6976L20.2909 31.1949C20.2909 30.9338 20.5025 30.7222 20.7636 30.7222Z" fill="url(#paint29_radial_580_9722)"/>
<path opacity="0.5" d="M20.7636 30.7222L29.3628 30.7222C29.6238 30.7222 29.8354 30.9338 29.8354 31.1949L29.8354 31.6976C29.8354 31.9587 29.6238 32.1703 29.3628 32.1703L20.7636 32.1703C20.5025 32.1703 20.2909 31.9587 20.2909 31.6976L20.2909 31.1949C20.2909 30.9338 20.5025 30.7222 20.7636 30.7222Z" fill="url(#paint30_linear_580_9722)"/>
<path d="M20.9371 32.0502L29.1891 32.0502C29.4397 32.0502 29.6426 31.8645 29.6426 31.6356L29.6426 31.4468C29.6426 31.6757 29.4395 31.8613 29.1891 31.8613L20.9371 31.8613C20.6867 31.8613 20.4836 31.6757 20.4836 31.4468L20.4836 31.6356C20.4836 31.8645 20.6867 32.0502 20.9371 32.0502Z" fill="url(#paint31_linear_580_9722)"/>
<path d="M20.9371 30.8428L29.1891 30.8428C29.4397 30.8428 29.6426 31.0284 29.6426 31.2573L29.6426 31.4462C29.6426 31.2172 29.4395 31.0316 29.1891 31.0316L20.9371 31.0316C20.6867 31.0316 20.4836 31.2172 20.4836 31.4462L20.4836 31.2573C20.4836 31.0282 20.6867 30.8428 20.9371 30.8428Z" fill="url(#paint32_linear_580_9722)"/>
<path opacity="0.4" d="M29.626 32.0894L29.5069 31.9476C29.4662 31.8993 29.441 31.8067 29.4408 31.7062L29.4404 31.1865C29.4402 31.0857 29.4656 30.9927 29.5064 30.9442L29.626 30.8019C29.5933 30.7801 29.5572 30.7637 29.5195 30.7505L29.4387 30.8466C29.3959 30.8977 29.3693 30.9952 29.3694 31.1012L29.3699 31.7883C29.3701 31.8935 29.3964 31.9904 29.4389 32.0413L29.5215 32.1403C29.5583 32.1272 29.594 32.1111 29.626 32.0894Z" fill="white"/>
<path opacity="0.4" d="M20.5071 32.0894L20.6262 31.9476C20.6669 31.8993 20.6921 31.8067 20.6923 31.7062L20.6928 31.1865C20.6928 31.0857 20.6675 30.9927 20.6267 30.9442L20.5071 30.8019C20.5398 30.7801 20.5759 30.7637 20.6136 30.7505L20.6944 30.8466C20.7372 30.8977 20.7638 30.9952 20.7637 31.1012L20.763 31.7883C20.763 31.8935 20.7365 31.9904 20.694 32.0413L20.6115 32.1403C20.5747 32.1272 20.5391 32.1111 20.5071 32.0894Z" fill="white"/>
<path opacity="0.4" d="M29.146 31.4808L29.146 31.4111L20.9801 31.4111L20.9801 31.4808L29.146 31.4808Z" fill="black"/>
<path d="M16.8608 5.729L33.2644 5.729C33.4607 5.729 33.6196 5.88813 33.6196 6.08441L33.6196 29.5039C33.6196 29.7002 33.4605 29.8593 33.2644 29.8593L16.8608 29.8593C16.6645 29.8593 16.5054 29.7002 16.5054 29.5039L16.5054 6.08441C16.5054 5.88813 16.6645 5.729 16.8608 5.729Z" fill="#1DCA96"/>
<path d="M33.2645 5.96973C33.3275 5.96973 33.3789 6.0211 33.3789 6.08394L33.3789 29.5034C33.3789 29.5663 33.3275 29.6176 33.2645 29.6176L16.8611 29.6176C16.7981 29.6176 16.7469 29.5663 16.7469 29.5034L16.7469 6.08394C16.7469 6.0211 16.7983 5.96973 16.8611 5.96973L33.2645 5.96973Z" fill="#F5F7EA"/>
<path d="M33.2645 5.96973C33.3275 5.96973 33.3789 6.0211 33.3789 6.08394L33.3789 29.5034C33.3789 29.5663 33.3275 29.6176 33.2645 29.6176L16.8611 29.6176C16.7981 29.6176 16.7469 29.5663 16.7469 29.5034L16.7469 6.08394C16.7469 6.0211 16.7983 5.96973 16.8611 5.96973L33.2645 5.96973Z" fill="url(#paint33_radial_580_9722)"/>
<path opacity="0.2" d="M33.2645 5.96973C33.3275 5.96973 33.3789 6.0211 33.3789 6.08394L33.3789 29.5034C33.3789 29.5663 33.3275 29.6176 33.2645 29.6176L16.8611 29.6176C16.7981 29.6176 16.7469 29.5663 16.7469 29.5034L16.7469 6.08394C16.7469 6.0211 16.7983 5.96973 16.8611 5.96973L33.2645 5.96973Z" fill="#1DCA96"/>
<path d="M30.9929 5.60769L30.9929 5.72901L32.6504 5.72901L32.6504 5.60769C32.6504 5.47167 32.5401 5.36133 32.4039 5.36133L31.2393 5.36133C31.1032 5.36133 30.9929 5.47167 30.9929 5.60769Z" fill="#1DCA96"/>
<path opacity="0.4" d="M31.1797 5.6878L32.4639 5.6878C32.4639 5.53045 32.3362 5.40283 32.1789 5.40283L31.4647 5.40283C31.3073 5.40283 31.1797 5.53045 31.1797 5.6878Z" fill="#660000"/>
<path d="M32.5488 5.70543L32.5409 5.70543C32.5091 5.56068 32.3805 5.45228 32.2262 5.45228L31.4177 5.45228C31.2634 5.45228 31.1348 5.56068 31.103 5.70543L31.0951 5.70543C31.0951 5.52724 31.2395 5.38281 31.4177 5.38281L32.2262 5.38281C32.4044 5.38281 32.5488 5.52724 32.5488 5.70543Z" fill="url(#paint34_linear_580_9722)"/>
<path opacity="0.6" d="M31.5416 5.55038C31.6952 5.54941 31.849 5.54844 32.0026 5.54731C32.0708 5.54682 32.1451 5.54052 32.2125 5.55393C32.2398 5.55943 32.2931 5.57009 32.2944 5.60611C32.2957 5.64149 32.2534 5.64699 32.2267 5.64715C32.1506 5.64715 31.2838 5.65264 31.2838 5.63826C31.2841 5.60531 31.3104 5.57704 31.3409 5.56427C31.3715 5.55151 31.4054 5.55119 31.4384 5.55086C31.4728 5.55086 31.5072 5.55054 31.5416 5.55038Z" fill="url(#paint35_linear_580_9722)"/>
<path d="M17.8127 5.60769L17.8127 5.72901L19.4702 5.72901L19.4702 5.60769C19.4702 5.47167 19.3599 5.36133 19.2238 5.36133L18.0593 5.36133C17.9232 5.36133 17.8127 5.47167 17.8127 5.60769Z" fill="#1DCA96"/>
<path opacity="0.4" d="M17.9997 5.6878L19.2837 5.6878C19.2837 5.53045 19.1561 5.40283 18.9987 5.40283L18.2845 5.40283C18.1273 5.40283 17.9997 5.53045 17.9997 5.6878Z" fill="#660000"/>
<path d="M19.3682 5.7064L19.3602 5.7064C19.3284 5.56165 19.1998 5.45325 19.0456 5.45325L18.237 5.45325C18.0827 5.45325 17.9541 5.56165 17.9223 5.7064L17.9144 5.7064C17.9144 5.52821 18.0588 5.38379 18.237 5.38379L19.0456 5.38379C19.2237 5.38379 19.3682 5.52821 19.3682 5.7064Z" fill="url(#paint36_linear_580_9722)"/>
<path opacity="0.6" d="M18.3614 5.55038C18.515 5.54941 18.6688 5.54844 18.8225 5.54731C18.8906 5.54682 18.965 5.54052 19.0323 5.55393C19.0596 5.55943 19.1129 5.57009 19.1142 5.60611C19.1155 5.64149 19.0732 5.64699 19.0465 5.64715C18.9705 5.64715 18.1036 5.65264 18.1036 5.63826C18.1039 5.60531 18.1302 5.57704 18.1608 5.56427C18.1913 5.55151 18.2252 5.55119 18.2582 5.55086C18.2928 5.55086 18.3272 5.55054 18.3614 5.55038Z" fill="url(#paint37_linear_580_9722)"/>
<path d="M26.3542 21.1193L26.3542 19.0333C26.3542 18.9366 26.4326 18.8579 26.5294 18.8579L28.6154 18.8579C28.7122 18.8579 28.7905 18.7795 28.7905 18.6828L28.7905 16.9061C28.7905 16.8093 28.7122 16.7307 28.6154 16.7307L26.5294 16.7307C26.4326 16.7307 26.3542 16.6523 26.3542 16.5555L26.3542 14.4696C26.3542 14.3728 26.2758 14.2944 26.1787 14.2944L24.402 14.2944C24.3053 14.2944 24.2269 14.3728 24.2269 14.4696L24.2269 16.5555C24.2269 16.6523 24.1485 16.7307 24.0514 16.7307L21.9657 16.7307C21.8689 16.7307 21.7905 16.8091 21.7905 16.9061L21.7905 18.6828C21.7905 18.7795 21.8689 18.8579 21.9657 18.8579L24.0514 18.8579C24.1482 18.8579 24.2269 18.9363 24.2269 19.0333L24.2269 21.1193C24.2269 21.2161 24.3053 21.2944 24.402 21.2944L26.1787 21.2944C26.2758 21.2944 26.3542 21.2161 26.3542 21.1193Z" fill="#1DCA96"/>
<path d="M19.8772 5.729L30.6182 5.729L30.6182 5.40639L19.8772 5.40639L19.8772 5.729Z" fill="#F5F7EA"/>
<path opacity="0.5" d="M19.8776 5.40625L30.6187 5.40625L30.6187 5.72886L19.8776 5.72886L19.8776 5.40625Z" fill="url(#paint38_linear_580_9722)"/>
<path opacity="0.5" d="M25.2054 5.729L25.2905 5.729L25.2905 5.40639L25.2054 5.40639L25.2054 5.729Z" fill="#666666"/>
<path d="M25.5693 5.51837L30.3774 5.51837C30.4357 5.51837 30.4829 5.4712 30.4829 5.41288L30.4829 5.40674L25.4638 5.40674L25.4638 5.41288C25.4638 5.4712 25.5109 5.51837 25.5693 5.51837Z" fill="#AAD5F9"/>
<path d="M25.5693 5.51837L30.3774 5.51837C30.4357 5.51837 30.4829 5.4712 30.4829 5.41288L30.4829 5.40674L30.4689 5.40674C30.4509 5.43953 30.4175 5.46263 30.3774 5.46263L25.5693 5.46263C25.5294 5.46263 25.4958 5.43953 25.4778 5.40674L25.4638 5.40674L25.4638 5.41288C25.4638 5.4712 25.5109 5.51837 25.5693 5.51837Z" fill="white"/>
<path d="M20.1117 5.51788L24.9199 5.51788C24.9782 5.51788 25.0254 5.47071 25.0254 5.41239L25.0254 5.40625L20.0063 5.40625L20.0063 5.41239C20.0064 5.47071 20.0536 5.51788 20.1117 5.51788Z" fill="#AAD5F9"/>
<path d="M20.1117 5.51788L24.9199 5.51788C24.9782 5.51788 25.0254 5.47071 25.0254 5.41239L25.0254 5.40625L25.0113 5.40625C24.9934 5.43904 24.96 5.46214 24.9199 5.46214L20.1117 5.46214C20.0718 5.46214 20.0382 5.43904 20.0203 5.40625L20.0063 5.40625L20.0063 5.41239C20.0064 5.47071 20.0536 5.51788 20.1117 5.51788Z" fill="white"/>
<path d="M16.5061 29.6177L16.5061 35.5273C16.5061 35.7018 16.5754 35.869 16.6987 35.9924L17.2749 36.5687L17.2749 29.6177L16.5061 29.6177Z" fill="#CCCCCC"/>
<path d="M16.6268 29.7388L17.1548 29.7388L17.1548 36.2783L16.7842 35.9079C16.6827 35.8064 16.6268 35.6715 16.6268 35.5281L16.6268 29.7388Z" fill="url(#paint39_linear_580_9722)"/>
<path opacity="0.5" d="M16.5061 29.6177L16.5061 35.5273C16.5061 35.7018 16.5754 35.869 16.6987 35.9924L17.2749 36.5687L17.2749 29.6177L16.5061 29.6177Z" fill="url(#paint40_linear_580_9722)"/>
<path opacity="0.4" d="M16.5061 29.6177L16.5061 35.5273C16.5061 35.7018 16.5754 35.869 16.6987 35.9924L17.2749 36.5687L17.2749 29.6177L16.5061 29.6177Z" fill="url(#paint41_linear_580_9722)"/>
<mask id="mask1_580_9722" style="mask-type:luminance" maskUnits="userSpaceOnUse" x="16" y="29" width="2" height="8">
<path d="M16.6268 29.7388L17.1548 29.7388L17.1548 36.2783L16.7842 35.9079C16.6827 35.8064 16.6268 35.6715 16.6268 35.5281L16.6268 29.7388Z" fill="white"/>
</mask>
<g mask="url(#mask1_580_9722)">
<path d="M17.0352 29.7901C16.9895 29.8156 16.9433 29.8201 16.9433 29.8201C16.9433 29.8201 16.9712 29.7831 17.017 29.7576C17.0627 29.7321 17.1089 29.7275 17.1089 29.7275C17.1089 29.7275 17.0809 29.7645 17.0352 29.7901Z" fill="#999999"/>
<path d="M16.6732 29.999C16.6275 30.0246 16.5815 30.0291 16.5815 30.0291C16.5815 30.0291 16.6094 29.9921 16.6551 29.9666C16.7009 29.941 16.7471 29.9365 16.7471 29.9365C16.7471 29.9365 16.719 29.9735 16.6732 29.999Z" fill="#999999"/>
<path d="M16.8606 29.8697C16.8861 29.9154 16.8906 29.9615 16.8906 29.9615C16.8906 29.9615 16.8536 29.9335 16.8281 29.8878C16.8026 29.8421 16.7981 29.7959 16.7981 29.7959C16.7981 29.7959 16.8351 29.824 16.8606 29.8697Z" fill="#999999"/>
<path d="M17.0876 29.9975C17.1132 30.0432 17.1177 30.0894 17.1177 30.0894C17.1177 30.0894 17.0807 30.0615 17.0552 30.0157C17.0296 29.97 17.0251 29.9238 17.0251 29.9238C17.0251 29.9238 17.0621 29.9518 17.0876 29.9975Z" fill="#999999"/>
<path d="M16.726 30.2057C16.7515 30.2514 16.7559 30.2974 16.7559 30.2974C16.7559 30.2974 16.7189 30.2695 16.6933 30.2238C16.6678 30.178 16.6635 30.1318 16.6635 30.1318C16.6635 30.1318 16.7004 30.1599 16.726 30.2057Z" fill="#999999"/>
<path d="M16.8802 30.096C16.926 30.0704 16.9722 30.0659 16.9722 30.0659C16.9722 30.0659 16.9442 30.1029 16.8985 30.1284C16.8528 30.154 16.8067 30.1585 16.8067 30.1585C16.8067 30.1585 16.8347 30.1215 16.8802 30.096Z" fill="#999999"/>
<path d="M17.1588 30.2769C17.113 30.3024 17.0668 30.3068 17.0668 30.3068C17.0668 30.3068 17.0948 30.2698 17.1405 30.2442C17.1862 30.2187 17.2324 30.2144 17.2324 30.2144C17.2324 30.2144 17.2045 30.2513 17.1588 30.2769Z" fill="#999999"/>
<path d="M16.7969 30.4849C16.7512 30.5104 16.705 30.5148 16.705 30.5148C16.705 30.5148 16.733 30.4778 16.7787 30.4522C16.8244 30.4267 16.8706 30.4224 16.8706 30.4224C16.8706 30.4224 16.8427 30.4594 16.7969 30.4849Z" fill="#999999"/>
<path d="M16.9841 30.3572C17.0096 30.4029 17.0142 30.4491 17.0142 30.4491C17.0142 30.4491 16.9772 30.4212 16.9516 30.3755C16.9261 30.3297 16.9216 30.2837 16.9216 30.2837C16.9216 30.2837 16.9586 30.3115 16.9841 30.3572Z" fill="#999999"/>
<path d="M17.2112 30.4843C17.2367 30.53 17.2412 30.5762 17.2412 30.5762C17.2412 30.5762 17.2042 30.5483 17.1787 30.5026C17.1532 30.4568 17.1486 30.4106 17.1486 30.4106C17.1486 30.4106 17.1856 30.4386 17.2112 30.4843Z" fill="#999999"/>
<path d="M16.8493 30.6922C16.8749 30.7379 16.8794 30.7841 16.8794 30.7841C16.8794 30.7841 16.8424 30.7561 16.8169 30.7104C16.7914 30.6647 16.787 30.6187 16.787 30.6187C16.787 30.6187 16.8238 30.6464 16.8493 30.6922Z" fill="#999999"/>
<path d="M17.0038 30.5826C17.0495 30.5571 17.0957 30.5527 17.0957 30.5527C17.0957 30.5527 17.0678 30.5897 17.022 30.6153C16.9763 30.6408 16.9301 30.6451 16.9301 30.6451C16.9301 30.6451 16.9581 30.6081 17.0038 30.5826Z" fill="#999999"/>
<path d="M16.6551 30.7678C16.7009 30.7423 16.7471 30.7378 16.7471 30.7378C16.7471 30.7378 16.7191 30.7748 16.6734 30.8003C16.6277 30.8258 16.5816 30.8304 16.5816 30.8304C16.5816 30.8304 16.6094 30.7934 16.6551 30.7678Z" fill="#999999"/>
<path d="M17.122 30.8092C17.1475 30.8549 17.1519 30.9009 17.1519 30.9009C17.1519 30.9009 17.1149 30.873 17.0893 30.8273C17.0638 30.7816 17.0593 30.7354 17.0593 30.7354C17.0593 30.7354 17.0963 30.7635 17.122 30.8092Z" fill="#999999"/>
<path d="M16.7601 31.017C16.7857 31.0627 16.79 31.1089 16.79 31.1089C16.79 31.1089 16.753 31.081 16.7275 31.0353C16.702 30.9896 16.6976 30.9434 16.6976 30.9434C16.6976 30.9434 16.7346 30.9713 16.7601 31.017Z" fill="#999999"/>
<path d="M16.9154 30.9068C16.9611 30.8813 17.0073 30.877 17.0073 30.877C17.0073 30.877 16.9794 30.9139 16.9337 30.9395C16.8879 30.965 16.8417 30.9694 16.8417 30.9694C16.8417 30.9694 16.8697 30.9324 16.9154 30.9068Z" fill="#999999"/>
<path d="M17.1923 31.0887C17.1466 31.1142 17.1005 31.1188 17.1005 31.1188C17.1005 31.1188 17.1285 31.0818 17.1742 31.0563C17.2199 31.0307 17.2661 31.0264 17.2661 31.0264C17.2661 31.0264 17.238 31.0632 17.1923 31.0887Z" fill="#999999"/>
<path d="M16.8305 31.2964C16.7848 31.3219 16.7387 31.3265 16.7387 31.3265C16.7387 31.3265 16.7667 31.2895 16.8124 31.2639C16.8581 31.2384 16.9043 31.2339 16.9043 31.2339C16.9043 31.2339 16.8762 31.2709 16.8305 31.2964Z" fill="#999999"/>
<path d="M17.0173 31.1684C17.0428 31.2141 17.0474 31.2603 17.0474 31.2603C17.0474 31.2603 17.0104 31.2324 16.9848 31.1866C16.9593 31.1409 16.9548 31.0947 16.9548 31.0947C16.9548 31.0947 16.9918 31.1227 17.0173 31.1684Z" fill="#999999"/>
<path d="M16.8832 31.5043C16.9087 31.55 16.9131 31.5963 16.9131 31.5963C16.9131 31.5963 16.8761 31.5683 16.8506 31.5226C16.825 31.4769 16.8207 31.4307 16.8207 31.4307C16.8207 31.4307 16.8575 31.4586 16.8832 31.5043Z" fill="#999999"/>
<path d="M17.038 31.3948C17.0837 31.3693 17.1299 31.3647 17.1299 31.3647C17.1299 31.3647 17.1019 31.4017 17.0562 31.4273C17.0105 31.4528 16.9643 31.4573 16.9643 31.4573C16.9643 31.4573 16.9922 31.4203 17.038 31.3948Z" fill="#999999"/>
<path d="M16.6888 31.5798C16.7346 31.5543 16.7808 31.5498 16.7808 31.5498C16.7808 31.5498 16.7528 31.5868 16.7071 31.6123C16.6614 31.6378 16.6152 31.6422 16.6152 31.6422C16.6152 31.6422 16.6431 31.6054 16.6888 31.5798Z" fill="#999999"/>
<path d="M17.1225 31.624C17.148 31.6697 17.1523 31.7159 17.1523 31.7159C17.1523 31.7159 17.1154 31.6879 17.0898 31.6422C17.0643 31.5965 17.0598 31.5503 17.0598 31.5503C17.0598 31.5503 17.0968 31.5782 17.1225 31.624Z" fill="#999999"/>
<path d="M16.7606 31.8321C16.7862 31.8778 16.7905 31.9239 16.7905 31.9239C16.7905 31.9239 16.7535 31.8959 16.728 31.8502C16.7025 31.8045 16.6981 31.7583 16.6981 31.7583C16.6981 31.7583 16.7351 31.7864 16.7606 31.8321Z" fill="#999999"/>
<path d="M16.9159 31.7223C16.9616 31.6967 17.0078 31.6924 17.0078 31.6924C17.0078 31.6924 16.9799 31.7294 16.9341 31.7549C16.8884 31.7804 16.8422 31.7848 16.8422 31.7848C16.8422 31.7848 16.8702 31.7478 16.9159 31.7223Z" fill="#999999"/>
<path d="M17.1928 31.904C17.1471 31.9295 17.101 31.9339 17.101 31.9339C17.101 31.9339 17.129 31.8969 17.1747 31.8714C17.2204 31.8458 17.2666 31.8413 17.2666 31.8413C17.2666 31.8413 17.2385 31.8785 17.1928 31.904Z" fill="#999999"/>
<path d="M16.8315 32.1118C16.7857 32.1374 16.7397 32.1419 16.7397 32.1419C16.7397 32.1419 16.7676 32.1049 16.8134 32.0794C16.8591 32.0538 16.9053 32.0493 16.9053 32.0493C16.9053 32.0493 16.8772 32.0863 16.8315 32.1118Z" fill="#999999"/>
<path d="M17.0183 31.9838C17.0438 32.0295 17.0483 32.0757 17.0483 32.0757C17.0483 32.0757 17.0113 32.0478 16.9858 32.0021C16.9603 31.9564 16.9558 31.9102 16.9558 31.9102C16.9558 31.9102 16.9928 31.9381 17.0183 31.9838Z" fill="#999999"/>
<path d="M16.8837 32.3196C16.9092 32.3653 16.9136 32.4115 16.9136 32.4115C16.9136 32.4115 16.8766 32.3836 16.8511 32.3379C16.8255 32.2921 16.8212 32.2461 16.8212 32.2461C16.8212 32.2461 16.858 32.2739 16.8837 32.3196Z" fill="#999999"/>
<path d="M17.038 32.2097C17.0837 32.1842 17.1299 32.1797 17.1299 32.1797C17.1299 32.1797 17.1019 32.2167 17.0562 32.2422C17.0105 32.2677 16.9643 32.2723 16.9643 32.2723C16.9643 32.2723 16.9922 32.2353 17.038 32.2097Z" fill="#999999"/>
<path d="M16.6893 32.3951C16.735 32.3696 16.7812 32.3652 16.7812 32.3652C16.7812 32.3652 16.7533 32.4022 16.7076 32.4278C16.6619 32.4533 16.6157 32.4576 16.6157 32.4576C16.6157 32.4576 16.6436 32.4206 16.6893 32.3951Z" fill="#999999"/>
<path d="M17.122 32.4382C17.1475 32.484 17.1519 32.5302 17.1519 32.5302C17.1519 32.5302 17.1149 32.5022 17.0893 32.4565C17.0638 32.4108 17.0593 32.3647 17.0593 32.3647C17.0593 32.3647 17.0963 32.3925 17.122 32.4382Z" fill="#999999"/>
<path d="M16.7601 32.6464C16.7857 32.6921 16.79 32.7383 16.79 32.7383C16.79 32.7383 16.753 32.7104 16.7275 32.6647C16.702 32.619 16.6976 32.5728 16.6976 32.5728C16.6976 32.5728 16.7346 32.6007 16.7601 32.6464Z" fill="#999999"/>
<path d="M16.9149 32.5369C16.9606 32.5114 17.0068 32.5068 17.0068 32.5068C17.0068 32.5068 16.9789 32.5438 16.9332 32.5694C16.8875 32.5949 16.8413 32.5992 16.8413 32.5992C16.8413 32.5992 16.8692 32.5624 16.9149 32.5369Z" fill="#999999"/>
<path d="M17.1923 32.7178C17.1466 32.7433 17.1005 32.7477 17.1005 32.7477C17.1005 32.7477 17.1285 32.7107 17.1742 32.6852C17.2199 32.6596 17.2661 32.6553 17.2661 32.6553C17.2661 32.6553 17.238 32.6923 17.1923 32.7178Z" fill="#999999"/>
<path d="M16.8305 32.926C16.7848 32.9515 16.7387 32.9558 16.7387 32.9558C16.7387 32.9558 16.7667 32.9189 16.8124 32.8933C16.8581 32.8678 16.9043 32.8633 16.9043 32.8633C16.9043 32.8633 16.8762 32.9004 16.8305 32.926Z" fill="#999999"/>
<path d="M17.0173 32.7975C17.0428 32.8432 17.0474 32.8892 17.0474 32.8892C17.0474 32.8892 17.0104 32.8613 16.9848 32.8156C16.9593 32.7698 16.9548 32.7236 16.9548 32.7236C16.9548 32.7236 16.9918 32.7517 17.0173 32.7975Z" fill="#999999"/>
<path d="M16.8837 33.1342C16.9092 33.1799 16.9136 33.2261 16.9136 33.2261C16.9136 33.2261 16.8766 33.1982 16.8511 33.1525C16.8255 33.1068 16.8212 33.0605 16.8212 33.0605C16.8212 33.0605 16.858 33.0885 16.8837 33.1342Z" fill="#999999"/>
<path d="M17.038 33.0242C17.0837 32.9987 17.1299 32.9941 17.1299 32.9941C17.1299 32.9941 17.1019 33.0311 17.0562 33.0567C17.0105 33.0822 16.9643 33.0867 16.9643 33.0867C16.9643 33.0867 16.9922 33.0497 17.038 33.0242Z" fill="#999999"/>
<path d="M16.6893 33.2096C16.735 33.184 16.7812 33.1797 16.7812 33.1797C16.7812 33.1797 16.7533 33.2167 16.7076 33.2422C16.6619 33.2677 16.6157 33.2721 16.6157 33.2721C16.6157 33.2721 16.6436 33.2353 16.6893 33.2096Z" fill="#999999"/>
<path d="M17.1225 33.2529C17.148 33.2986 17.1523 33.3448 17.1523 33.3448C17.1523 33.3448 17.1154 33.3168 17.0898 33.2711C17.0643 33.2254 17.0598 33.1792 17.0598 33.1792C17.0598 33.1792 17.0968 33.2071 17.1225 33.2529Z" fill="#999999"/>
<path d="M16.7606 33.4607C16.7862 33.5064 16.7905 33.5526 16.7905 33.5526C16.7905 33.5526 16.7535 33.5247 16.728 33.479C16.7025 33.4332 16.6981 33.3872 16.6981 33.3872C16.6981 33.3872 16.7351 33.415 16.7606 33.4607Z" fill="#999999"/>
<path d="M16.9159 33.3508C16.9616 33.3253 17.0078 33.3208 17.0078 33.3208C17.0078 33.3208 16.9799 33.3578 16.9341 33.3833C16.8884 33.4088 16.8422 33.4132 16.8422 33.4132C16.8422 33.4132 16.8702 33.3764 16.9159 33.3508Z" fill="#999999"/>
<path d="M17.1928 33.5322C17.1471 33.5578 17.101 33.5621 17.101 33.5621C17.101 33.5621 17.129 33.5251 17.1747 33.4996C17.2204 33.4741 17.2666 33.4697 17.2666 33.4697C17.2666 33.4697 17.2385 33.5067 17.1928 33.5322Z" fill="#999999"/>
<path d="M16.831 33.7398C16.7852 33.7653 16.7392 33.7697 16.7392 33.7697C16.7392 33.7697 16.7671 33.7327 16.8129 33.7071C16.8586 33.6816 16.9048 33.6772 16.9048 33.6772C16.9048 33.6772 16.8767 33.7142 16.831 33.7398Z" fill="#999999"/>
<path d="M17.0178 33.6122C17.0433 33.658 17.0479 33.7042 17.0479 33.7042C17.0479 33.7042 17.0109 33.6762 16.9853 33.6305C16.9598 33.5848 16.9553 33.5386 16.9553 33.5386C16.9553 33.5386 16.9923 33.5665 17.0178 33.6122Z" fill="#999999"/>
<path d="M16.8837 33.9477C16.9092 33.9934 16.9136 34.0396 16.9136 34.0396C16.9136 34.0396 16.8766 34.0117 16.8511 33.9659C16.8255 33.9202 16.8212 33.874 16.8212 33.874C16.8212 33.874 16.858 33.902 16.8837 33.9477Z" fill="#999999"/>
<path d="M17.038 33.8365C17.0837 33.811 17.1299 33.8066 17.1299 33.8066C17.1299 33.8066 17.1019 33.8436 17.0562 33.8692C17.0105 33.8947 16.9643 33.899 16.9643 33.899C16.9643 33.899 16.9922 33.8621 17.038 33.8365Z" fill="#999999"/>
<path d="M16.6893 34.0231C16.735 33.9975 16.7812 33.9932 16.7812 33.9932C16.7812 33.9932 16.7533 34.0302 16.7076 34.0557C16.6619 34.0812 16.6157 34.0856 16.6157 34.0856C16.6157 34.0856 16.6436 34.0487 16.6893 34.0231Z" fill="#999999"/>
<path d="M17.122 34.0673C17.1475 34.113 17.1519 34.1592 17.1519 34.1592C17.1519 34.1592 17.1149 34.1313 17.0893 34.0856C17.0638 34.0399 17.0593 33.9937 17.0593 33.9937C17.0593 33.9937 17.0963 34.0216 17.122 34.0673Z" fill="#999999"/>
<path d="M16.7601 34.2753C16.7857 34.321 16.79 34.3672 16.79 34.3672C16.79 34.3672 16.753 34.3393 16.7275 34.2936C16.702 34.2479 16.6976 34.2017 16.6976 34.2017C16.6976 34.2017 16.7346 34.2296 16.7601 34.2753Z" fill="#999999"/>
<path d="M16.9154 34.1658C16.9611 34.1403 17.0073 34.1357 17.0073 34.1357C17.0073 34.1357 16.9794 34.1727 16.9337 34.1983C16.8879 34.2238 16.8417 34.2283 16.8417 34.2283C16.8417 34.2283 16.8697 34.1913 16.9154 34.1658Z" fill="#999999"/>
<path d="M17.1923 34.3465C17.1466 34.3721 17.1005 34.3766 17.1005 34.3766C17.1005 34.3766 17.1285 34.3396 17.1742 34.3141C17.2199 34.2885 17.2661 34.2842 17.2661 34.2842C17.2661 34.2842 17.238 34.321 17.1923 34.3465Z" fill="#999999"/>
<path d="M16.8305 34.5542C16.7848 34.5797 16.7387 34.5841 16.7387 34.5841C16.7387 34.5841 16.7667 34.5471 16.8124 34.5216C16.8581 34.4961 16.9043 34.4917 16.9043 34.4917C16.9043 34.4917 16.8762 34.5287 16.8305 34.5542Z" fill="#999999"/>
<path d="M17.0173 34.4265C17.0428 34.4722 17.0474 34.5185 17.0474 34.5185C17.0474 34.5185 17.0104 34.4905 16.9848 34.4448C16.9593 34.3991 16.9548 34.353 16.9548 34.353C16.9548 34.353 16.9918 34.3808 17.0173 34.4265Z" fill="#999999"/>
<path d="M16.8837 34.7631C16.9092 34.8088 16.9136 34.855 16.9136 34.855C16.9136 34.855 16.8766 34.8271 16.8511 34.7814C16.8255 34.7357 16.8212 34.6895 16.8212 34.6895C16.8212 34.6895 16.858 34.7174 16.8837 34.7631Z" fill="#999999"/>
<path d="M17.0375 34.6524C17.0832 34.6269 17.1294 34.6226 17.1294 34.6226C17.1294 34.6226 17.1014 34.6596 17.0557 34.6851C17.01 34.7106 16.9638 34.7151 16.9638 34.7151C16.9638 34.7151 16.9918 34.678 17.0375 34.6524Z" fill="#999999"/>
<path d="M16.6893 34.8386C16.735 34.8131 16.7812 34.8086 16.7812 34.8086C16.7812 34.8086 16.7533 34.8456 16.7076 34.8711C16.6619 34.8966 16.6157 34.9012 16.6157 34.9012C16.6157 34.9012 16.6436 34.8642 16.6893 34.8386Z" fill="#999999"/>
<path d="M17.1225 34.8814C17.148 34.9272 17.1523 34.9732 17.1523 34.9732C17.1523 34.9732 17.1154 34.9453 17.0898 34.8995C17.0643 34.8538 17.0598 34.8076 17.0598 34.8076C17.0598 34.8076 17.0968 34.8357 17.1225 34.8814Z" fill="#999999"/>
<path d="M16.7606 35.0893C16.7862 35.135 16.7905 35.1812 16.7905 35.1812C16.7905 35.1812 16.7535 35.1533 16.728 35.1075C16.7025 35.0618 16.6981 35.0156 16.6981 35.0156C16.6981 35.0156 16.7351 35.0437 16.7606 35.0893Z" fill="#999999"/>
<path d="M16.9159 34.9793C16.9616 34.9537 17.0078 34.9492 17.0078 34.9492C17.0078 34.9492 16.9799 34.9862 16.9341 35.0117C16.8884 35.0373 16.8422 35.0416 16.8422 35.0416C16.8422 35.0416 16.8702 35.0048 16.9159 34.9793Z" fill="#999999"/>
<path d="M17.1928 35.1608C17.1471 35.1864 17.101 35.1907 17.101 35.1907C17.101 35.1907 17.129 35.1537 17.1747 35.1282C17.2204 35.1027 17.2666 35.0981 17.2666 35.0981C17.2666 35.0981 17.2385 35.1353 17.1928 35.1608Z" fill="#999999"/>
<path d="M16.831 35.3685C16.7852 35.394 16.7392 35.3986 16.7392 35.3986C16.7392 35.3986 16.7671 35.3616 16.8129 35.336C16.8586 35.3105 16.9048 35.3062 16.9048 35.3062C16.9048 35.3062 16.8767 35.343 16.831 35.3685Z" fill="#999999"/>
<path d="M17.0178 35.2403C17.0433 35.2861 17.0479 35.3321 17.0479 35.3321C17.0479 35.3321 17.0109 35.3041 16.9853 35.2584C16.9598 35.2127 16.9553 35.1665 16.9553 35.1665C16.9553 35.1665 16.9923 35.1946 17.0178 35.2403Z" fill="#999999"/>
<path d="M16.8837 35.5768C16.9092 35.6225 16.9136 35.6685 16.9136 35.6685C16.9136 35.6685 16.8766 35.6406 16.8511 35.5949C16.8255 35.5491 16.8212 35.5029 16.8212 35.5029C16.8212 35.5029 16.858 35.531 16.8837 35.5768Z" fill="#999999"/>
<path d="M17.038 35.4664C17.0837 35.4409 17.1299 35.4365 17.1299 35.4365C17.1299 35.4365 17.1019 35.4735 17.0562 35.499C17.0105 35.5246 16.9643 35.5289 16.9643 35.5289C16.9643 35.5289 16.9922 35.4919 17.038 35.4664Z" fill="#999999"/>
<path d="M16.6893 35.6521C16.735 35.6266 16.7812 35.6221 16.7812 35.6221C16.7812 35.6221 16.7533 35.6591 16.7076 35.6846C16.6619 35.7101 16.6157 35.7146 16.6157 35.7146C16.6157 35.7146 16.6436 35.6776 16.6893 35.6521Z" fill="#999999"/>
<path d="M17.122 35.6962C17.1475 35.7419 17.1519 35.7881 17.1519 35.7881C17.1519 35.7881 17.1149 35.7602 17.0893 35.7145C17.0638 35.6688 17.0593 35.6226 17.0593 35.6226C17.0593 35.6226 17.0963 35.6505 17.122 35.6962Z" fill="#999999"/>
<path d="M16.7601 35.9042C16.7857 35.95 16.79 35.9962 16.79 35.9962C16.79 35.9962 16.753 35.9682 16.7275 35.9225C16.702 35.8768 16.6976 35.8306 16.6976 35.8306C16.6976 35.8306 16.7346 35.8587 16.7601 35.9042Z" fill="#999999"/>
<path d="M16.9154 35.7945C16.9611 35.769 17.0073 35.7646 17.0073 35.7646C17.0073 35.7646 16.9794 35.8016 16.9337 35.8272C16.8879 35.8527 16.8417 35.8572 16.8417 35.8572C16.8417 35.8572 16.8697 35.8201 16.9154 35.7945Z" fill="#999999"/>
<path d="M17.1923 35.9761C17.1466 36.0016 17.1005 36.0061 17.1005 36.0061C17.1005 36.0061 17.1285 35.9691 17.1742 35.9436C17.2199 35.9181 17.2661 35.9136 17.2661 35.9136C17.2661 35.9136 17.238 35.9506 17.1923 35.9761Z" fill="#999999"/>
<path d="M16.831 36.1836C16.7852 36.2091 16.7392 36.2137 16.7392 36.2137C16.7392 36.2137 16.7671 36.1767 16.8129 36.1511C16.8586 36.1256 16.9048 36.1211 16.9048 36.1211C16.9048 36.1211 16.8767 36.1581 16.831 36.1836Z" fill="#999999"/>
<path d="M17.0173 36.0561C17.0428 36.1018 17.0474 36.148 17.0474 36.148C17.0474 36.148 17.0104 36.1201 16.9848 36.0743C16.9593 36.0286 16.9548 35.9824 16.9548 35.9824C16.9548 35.9824 16.9918 36.0104 17.0173 36.0561Z" fill="#999999"/>
<path d="M17.038 36.282C17.0837 36.2565 17.1299 36.252 17.1299 36.252C17.1299 36.252 17.1019 36.2889 17.0562 36.3145C17.0105 36.34 16.9643 36.3445 16.9643 36.3445C16.9643 36.3445 16.9922 36.3075 17.038 36.282Z" fill="#999999"/>
</g>
<defs>
<linearGradient id="paint0_linear_580_9722" x1="33.2617" y1="28.5661" x2="32.9402" y2="45.5937" gradientUnits="userSpaceOnUse">
<stop stop-color="#C7C5C5"/>
<stop offset="0.0359" stop-color="#676767"/>
<stop offset="0.1123" stop-color="white"/>
<stop offset="0.3019" stop-color="#929292"/>
<stop offset="0.492" stop-color="white"/>
<stop offset="0.6257" stop-color="#676767"/>
<stop offset="0.7701" stop-color="#929292"/>
<stop offset="0.8233" stop-color="#C7C5C5"/>
<stop offset="1" stop-color="#343433"/>
</linearGradient>
<linearGradient id="paint1_linear_580_9722" x1="32.8046" y1="33.0932" x2="32.9552" y2="33.0932" gradientUnits="userSpaceOnUse">
<stop offset="0.0051"/>
<stop offset="1" stop-opacity="0"/>
</linearGradient>
<linearGradient id="paint2_linear_580_9722" x1="33.1848" y1="29.6177" x2="33.1848" y2="30.1468" gradientUnits="userSpaceOnUse">
<stop offset="0.0051"/>
<stop offset="1" stop-opacity="0"/>
</linearGradient>
<linearGradient id="paint3_linear_580_9722" x1="30.8821" y1="44.9528" x2="30.3667" y2="44.9756" gradientUnits="userSpaceOnUse">
<stop stop-color="#C7C5C5"/>
<stop offset="0.0359" stop-color="#676767"/>
<stop offset="0.1123" stop-color="white"/>
<stop offset="0.3019" stop-color="#929292"/>
<stop offset="0.492" stop-color="white"/>
<stop offset="0.6809" stop-color="#676767"/>
<stop offset="0.7701" stop-color="#929292"/>
<stop offset="0.8233" stop-color="#C7C5C5"/>
<stop offset="1" stop-color="#343433"/>
</linearGradient>
<linearGradient id="paint4_linear_580_9722" x1="29.506" y1="44.9529" x2="30.0183" y2="44.9755" gradientUnits="userSpaceOnUse">
<stop stop-color="#C7C5C5"/>
<stop offset="0.0359" stop-color="#676767"/>
<stop offset="0.1123" stop-color="white"/>
<stop offset="0.3019" stop-color="#929292"/>
<stop offset="0.492" stop-color="white"/>
<stop offset="0.6809" stop-color="#676767"/>
<stop offset="0.7701" stop-color="#929292"/>
<stop offset="0.8233" stop-color="#C7C5C5"/>
<stop offset="1" stop-color="#343433"/>
</linearGradient>
<linearGradient id="paint5_linear_580_9722" x1="30.9925" y1="44.8118" x2="28.5005" y2="44.8118" gradientUnits="userSpaceOnUse">
<stop stop-color="#C7C5C5"/>
<stop offset="0.0359" stop-color="#676767"/>
<stop offset="0.1123" stop-color="white"/>
<stop offset="0.3019" stop-color="#929292"/>
<stop offset="0.492" stop-color="white"/>
<stop offset="0.6257" stop-color="#676767"/>
<stop offset="0.7701" stop-color="#929292"/>
<stop offset="0.8233" stop-color="#C7C5C5"/>
<stop offset="1" stop-color="#343433"/>
</linearGradient>
<linearGradient id="paint6_linear_580_9722" x1="20.6228" y1="44.9528" x2="20.1074" y2="44.9756" gradientUnits="userSpaceOnUse">
<stop stop-color="#C7C5C5"/>
<stop offset="0.0359" stop-color="#676767"/>
<stop offset="0.1123" stop-color="white"/>
<stop offset="0.3019" stop-color="#929292"/>
<stop offset="0.492" stop-color="white"/>
<stop offset="0.6809" stop-color="#676767"/>
<stop offset="0.7701" stop-color="#929292"/>
<stop offset="0.8233" stop-color="#C7C5C5"/>
<stop offset="1" stop-color="#343433"/>
</linearGradient>
<linearGradient id="paint7_linear_580_9722" x1="19.2467" y1="44.9529" x2="19.759" y2="44.9755" gradientUnits="userSpaceOnUse">
<stop stop-color="#C7C5C5"/>
<stop offset="0.0359" stop-color="#676767"/>
<stop offset="0.1123" stop-color="white"/>
<stop offset="0.3019" stop-color="#929292"/>
<stop offset="0.492" stop-color="white"/>
<stop offset="0.6809" stop-color="#676767"/>
<stop offset="0.7701" stop-color="#929292"/>
<stop offset="0.8233" stop-color="#C7C5C5"/>
<stop offset="1" stop-color="#343433"/>
</linearGradient>
<linearGradient id="paint8_linear_580_9722" x1="20.7332" y1="44.8118" x2="18.2411" y2="44.8118" gradientUnits="userSpaceOnUse">
<stop stop-color="#C7C5C5"/>
<stop offset="0.0359" stop-color="#676767"/>
<stop offset="0.1123" stop-color="white"/>
<stop offset="0.3019" stop-color="#929292"/>
<stop offset="0.492" stop-color="white"/>
<stop offset="0.6257" stop-color="#676767"/>
<stop offset="0.7701" stop-color="#929292"/>
<stop offset="0.8233" stop-color="#C7C5C5"/>
<stop offset="1" stop-color="#343433"/>
</linearGradient>
<linearGradient id="paint9_linear_580_9722" x1="33.7509" y1="43.7094" x2="8.73693" y2="43.5889" gradientUnits="userSpaceOnUse">
<stop stop-color="#C7C5C5"/>
<stop offset="0.0359" stop-color="#676767"/>
<stop offset="0.1123" stop-color="white"/>
<stop offset="0.3019" stop-color="#929292"/>
<stop offset="0.492" stop-color="white"/>
<stop offset="0.6257" stop-color="#676767"/>
<stop offset="0.7701" stop-color="#929292"/>
<stop offset="0.8233" stop-color="#C7C5C5"/>
<stop offset="1" stop-color="#343433"/>
</linearGradient>
<linearGradient id="paint10_linear_580_9722" x1="33.7509" y1="43.7094" x2="8.73693" y2="43.5889" gradientUnits="userSpaceOnUse">
<stop stop-color="#C7C5C5"/>
<stop offset="0.0359" stop-color="#676767"/>
<stop offset="0.1123" stop-color="white"/>
<stop offset="0.3019" stop-color="#929292"/>
<stop offset="0.492" stop-color="white"/>
<stop offset="0.6257" stop-color="#676767"/>
<stop offset="0.7701" stop-color="#929292"/>
<stop offset="0.8233" stop-color="#C7C5C5"/>
<stop offset="1" stop-color="#343433"/>
</linearGradient>
<radialGradient id="paint11_radial_580_9722" cx="0" cy="0" r="1" gradientUnits="userSpaceOnUse" gradientTransform="translate(34.7379 37.5341) rotate(-180) scale(18.0444 18.0446)">
<stop offset="0.0102"/>
<stop offset="1" stop-opacity="0"/>
</radialGradient>
<linearGradient id="paint12_linear_580_9722" x1="32.3687" y1="36.9986" x2="17.7574" y2="36.9986" gradientUnits="userSpaceOnUse">
<stop offset="0.3386" stop-color="white" stop-opacity="0"/>
<stop offset="0.6521" stop-color="white"/>
</linearGradient>
<linearGradient id="paint13_linear_580_9722" x1="28.8699" y1="38.9549" x2="29.3686" y2="38.9922" gradientUnits="userSpaceOnUse">
<stop offset="0.0051"/>
<stop offset="1" stop-opacity="0"/>
</linearGradient>
<linearGradient id="paint14_linear_580_9722" x1="21.263" y1="38.9549" x2="20.7643" y2="38.9922" gradientUnits="userSpaceOnUse">
<stop offset="0.0051" stop-color="#999999"/>
<stop offset="1" stop-color="#999999" stop-opacity="0"/>
</linearGradient>
<linearGradient id="paint15_linear_580_9722" x1="25.0625" y1="39.3202" x2="25.0625" y2="38.8902" gradientUnits="userSpaceOnUse">
<stop offset="0.0051"/>
<stop offset="1" stop-opacity="0"/>
</linearGradient>
<radialGradient id="paint16_radial_580_9722" cx="0" cy="0" r="1" gradientUnits="userSpaceOnUse" gradientTransform="translate(31.8941 36.3417) rotate(-180) scale(11.9321 11.9322)">
<stop stop-color="white" stop-opacity="0"/>
<stop offset="1" stop-color="white"/>
</radialGradient>
<radialGradient id="paint17_radial_580_9722" cx="0" cy="0" r="1" gradientUnits="userSpaceOnUse" gradientTransform="translate(30.5218 35.6608) rotate(-180) scale(11.4863 11.4864)">
<stop offset="0.0102"/>
<stop offset="1" stop-opacity="0"/>
</radialGradient>
<linearGradient id="paint18_linear_580_9722" x1="32.5242" y1="34.0621" x2="32.4657" y2="34.0621" gradientUnits="userSpaceOnUse">
<stop offset="0.0051"/>
<stop offset="1" stop-opacity="0"/>
</linearGradient>
<linearGradient id="paint19_linear_580_9722" x1="32.4067" y1="33.9561" x2="32.1657" y2="33.9561" gradientUnits="userSpaceOnUse">
<stop stop-color="white"/>
<stop offset="1" stop-color="white" stop-opacity="0"/>
</linearGradient>
<linearGradient id="paint20_linear_580_9722" x1="32.0051" y1="33.9561" x2="31.6798" y2="33.9561" gradientUnits="userSpaceOnUse">
<stop stop-opacity="0"/>
<stop offset="0.9898"/>
</linearGradient>
<linearGradient id="paint21_linear_580_9722" x1="17.5609" y1="34.0631" x2="17.6194" y2="34.0631" gradientUnits="userSpaceOnUse">
<stop offset="0.0051"/>
<stop offset="1" stop-opacity="0"/>
</linearGradient>
<linearGradient id="paint22_linear_580_9722" x1="17.6785" y1="33.9571" x2="17.9194" y2="33.9571" gradientUnits="userSpaceOnUse">
<stop stop-color="white"/>
<stop offset="1" stop-color="white" stop-opacity="0"/>
</linearGradient>
<linearGradient id="paint23_linear_580_9722" x1="18.08" y1="33.9571" x2="18.4054" y2="33.9571" gradientUnits="userSpaceOnUse">
<stop stop-opacity="0"/>
<stop offset="0.9898"/>
</linearGradient>
<linearGradient id="paint24_linear_580_9722" x1="33.2712" y1="37.1791" x2="33.226" y2="37.0548" gradientUnits="userSpaceOnUse">
<stop stop-color="white"/>
<stop offset="1" stop-color="white" stop-opacity="0"/>
</linearGradient>
<linearGradient id="paint25_linear_580_9722" x1="32.8172" y1="36.9974" x2="33.6309" y2="36.5416" gradientUnits="userSpaceOnUse">
<stop offset="0.0051"/>
<stop offset="1" stop-opacity="0"/>
</linearGradient>
<linearGradient id="paint26_linear_580_9722" x1="16.799" y1="37.1791" x2="16.8442" y2="37.0548" gradientUnits="userSpaceOnUse">
<stop stop-color="white"/>
<stop offset="1" stop-color="white" stop-opacity="0"/>
</linearGradient>
<linearGradient id="paint27_linear_580_9722" x1="17.253" y1="36.9974" x2="16.4392" y2="36.5416" gradientUnits="userSpaceOnUse">
<stop offset="0.0051"/>
<stop offset="1" stop-opacity="0"/>
</linearGradient>
<linearGradient id="paint28_linear_580_9722" x1="25.1438" y1="30.4532" x2="25.1438" y2="30.8304" gradientUnits="userSpaceOnUse">
<stop stop-opacity="0"/>
<stop offset="0.9898"/>
</linearGradient>
<radialGradient id="paint29_radial_580_9722" cx="0" cy="0" r="1" gradientUnits="userSpaceOnUse" gradientTransform="translate(25.0631 31.4462) rotate(-180) scale(3.41311 3.41313)">
<stop stop-color="white" stop-opacity="0"/>
<stop offset="1" stop-color="white"/>
</radialGradient>
<linearGradient id="paint30_linear_580_9722" x1="25.0631" y1="31.0401" x2="25.0631" y2="30.7309" gradientUnits="userSpaceOnUse">
<stop stop-opacity="0"/>
<stop offset="0.9898"/>
</linearGradient>
<linearGradient id="paint31_linear_580_9722" x1="29.6426" y1="31.7484" x2="20.4836" y2="31.7484" gradientUnits="userSpaceOnUse">
<stop stop-color="white" stop-opacity="0"/>
<stop offset="1" stop-color="white"/>
</linearGradient>
<linearGradient id="paint32_linear_580_9722" x1="23.5492" y1="31.1444" x2="29.171" y2="31.1444" gradientUnits="userSpaceOnUse">
<stop stop-color="white" stop-opacity="0"/>
<stop offset="1" stop-color="white"/>
</linearGradient>
<radialGradient id="paint33_radial_580_9722" cx="0" cy="0" r="1" gradientUnits="userSpaceOnUse" gradientTransform="translate(17.2178 28.0103) rotate(-180) scale(21.8 21.8002)">
<stop stop-color="white" stop-opacity="0"/>
<stop offset="1" stop-color="white"/>
</radialGradient>
<linearGradient id="paint34_linear_580_9722" x1="31.0076" y1="5.68833" x2="32.9213" y2="5.40204" gradientUnits="userSpaceOnUse">
<stop stop-color="white" stop-opacity="0"/>
<stop offset="1" stop-color="white"/>
</linearGradient>
<linearGradient id="paint35_linear_580_9722" x1="31.7891" y1="5.64826" x2="31.7891" y2="5.54552" gradientUnits="userSpaceOnUse">
<stop stop-color="white" stop-opacity="0"/>
<stop offset="1" stop-color="white"/>
</linearGradient>
<linearGradient id="paint36_linear_580_9722" x1="17.827" y1="5.68931" x2="19.7407" y2="5.40302" gradientUnits="userSpaceOnUse">
<stop stop-color="white" stop-opacity="0"/>
<stop offset="1" stop-color="white"/>
</linearGradient>
<linearGradient id="paint37_linear_580_9722" x1="18.609" y1="5.64826" x2="18.609" y2="5.54552" gradientUnits="userSpaceOnUse">
<stop stop-color="white" stop-opacity="0"/>
<stop offset="1" stop-color="white"/>
</linearGradient>
<linearGradient id="paint38_linear_580_9722" x1="25.2481" y1="5.5883" x2="25.2481" y2="5.72902" gradientUnits="userSpaceOnUse">
<stop stop-opacity="0"/>
<stop offset="0.9898"/>
</linearGradient>
<linearGradient id="paint39_linear_580_9722" x1="16.8139" y1="28.5661" x2="17.1354" y2="45.5937" gradientUnits="userSpaceOnUse">
<stop stop-color="#C7C5C5"/>
<stop offset="0.0359" stop-color="#676767"/>
<stop offset="0.1123" stop-color="white"/>
<stop offset="0.3019" stop-color="#929292"/>
<stop offset="0.492" stop-color="white"/>
<stop offset="0.6257" stop-color="#676767"/>
<stop offset="0.7701" stop-color="#929292"/>
<stop offset="0.8233" stop-color="#C7C5C5"/>
<stop offset="1" stop-color="#343433"/>
</linearGradient>
<linearGradient id="paint40_linear_580_9722" x1="17.2708" y1="33.0932" x2="17.1201" y2="33.0932" gradientUnits="userSpaceOnUse">
<stop offset="0.0051"/>
<stop offset="1" stop-opacity="0"/>
</linearGradient>
<linearGradient id="paint41_linear_580_9722" x1="16.8906" y1="29.6177" x2="16.8906" y2="30.1468" gradientUnits="userSpaceOnUse">
<stop offset="0.0051"/>
<stop offset="1" stop-opacity="0"/>
</linearGradient>
</defs>
</svg>
