<svg width="51" height="52" viewBox="0 0 51 52" fill="none" xmlns="http://www.w3.org/2000/svg">
<circle opacity="0.5" cx="25.5" cy="25.8613" r="25.5" transform="rotate(90 25.5 25.8613)" fill="#5384E4"/>
<path d="M29.2563 17.792L35.166 17.792C35.3405 17.792 35.5077 17.8613 35.6311 17.9846L36.2073 18.5608L29.2563 18.5608L29.2563 17.792Z" fill="#CCCCCC"/>
<path d="M29.3774 17.9126L29.3774 18.4405L35.917 18.4405L35.5465 18.0699C35.4451 17.9685 35.3102 17.9126 35.1667 17.9126L29.3774 17.9126Z" fill="url(#paint0_linear_580_8774)"/>
<path opacity="0.5" d="M29.2563 17.792L35.166 17.792C35.3405 17.792 35.5077 17.8613 35.6311 17.9846L36.2073 18.5608L29.2563 18.5608L29.2563 17.792Z" fill="url(#paint1_linear_580_8774)"/>
<path opacity="0.4" d="M29.2563 17.792L35.166 17.792C35.3405 17.792 35.5077 17.8613 35.6311 17.9846L36.2073 18.5608L29.2563 18.5608L29.2563 17.792Z" fill="url(#paint2_linear_580_8774)"/>
<mask id="mask0_580_8774" style="mask-type:luminance" maskUnits="userSpaceOnUse" x="29" y="17" width="7" height="2">
<path d="M29.3774 17.9131L29.3774 18.441L35.917 18.441L35.5465 18.0704C35.4451 17.969 35.3102 17.9131 35.1667 17.9131L29.3774 17.9131Z" fill="white"/>
</mask>
<g mask="url(#mask0_580_8774)">
<path d="M29.4282 18.3209C29.4538 18.2752 29.4583 18.229 29.4583 18.229C29.4583 18.229 29.4213 18.257 29.3958 18.3027C29.3702 18.3484 29.3657 18.3946 29.3657 18.3946C29.3657 18.3946 29.4027 18.3666 29.4282 18.3209Z" fill="#999999"/>
<path d="M29.6367 17.9591C29.6623 17.9134 29.6668 17.8672 29.6668 17.8672C29.6668 17.8672 29.6298 17.8951 29.6043 17.9409C29.5787 17.9866 29.5742 18.0328 29.5742 18.0328C29.5742 18.0328 29.6112 18.0048 29.6367 17.9591Z" fill="#999999"/>
<path d="M29.5084 18.146C29.5541 18.1715 29.6002 18.1761 29.6002 18.1761C29.6002 18.1761 29.5722 18.1391 29.5265 18.1135C29.4808 18.088 29.4346 18.0835 29.4346 18.0835C29.4346 18.0835 29.4627 18.1205 29.5084 18.146Z" fill="#999999"/>
<path d="M29.6362 18.3736C29.6819 18.3991 29.7281 18.4036 29.7281 18.4036C29.7281 18.4036 29.7001 18.3666 29.6544 18.3411C29.6087 18.3156 29.5625 18.311 29.5625 18.311C29.5625 18.311 29.5904 18.348 29.6362 18.3736Z" fill="#999999"/>
<path d="M29.8443 18.0117C29.8901 18.0373 29.9361 18.0416 29.9361 18.0416C29.9361 18.0416 29.9081 18.0046 29.8624 17.9791C29.8167 17.9536 29.7705 17.9492 29.7705 17.9492C29.7705 17.9492 29.7986 17.9862 29.8443 18.0117Z" fill="#999999"/>
<path d="M29.7337 18.1664C29.7081 18.2122 29.7036 18.2584 29.7036 18.2584C29.7036 18.2584 29.7406 18.2304 29.7661 18.1847C29.7917 18.139 29.7962 18.0928 29.7962 18.0928C29.7962 18.0928 29.7592 18.1207 29.7337 18.1664Z" fill="#999999"/>
<path d="M29.9151 18.4433C29.9406 18.3976 29.9449 18.3516 29.9449 18.3516C29.9449 18.3516 29.908 18.3795 29.8824 18.4252C29.8569 18.4709 29.8525 18.517 29.8525 18.517C29.8525 18.517 29.8895 18.489 29.9151 18.4433Z" fill="#999999"/>
<path d="M30.1231 18.0817C30.1486 18.0359 30.153 17.9897 30.153 17.9897C30.153 17.9897 30.116 18.0177 30.0904 18.0634C30.0649 18.1091 30.0605 18.1553 30.0605 18.1553C30.0605 18.1553 30.0975 18.1274 30.1231 18.0817Z" fill="#999999"/>
<path d="M29.9949 18.2691C30.0406 18.2946 30.0868 18.2991 30.0868 18.2991C30.0868 18.2991 30.0589 18.2621 30.0131 18.2366C29.9674 18.2111 29.9214 18.2065 29.9214 18.2065C29.9214 18.2065 29.9492 18.2435 29.9949 18.2691Z" fill="#999999"/>
<path d="M30.123 18.4958C30.1687 18.5213 30.2149 18.5257 30.2149 18.5257C30.2149 18.5257 30.187 18.4887 30.1412 18.4631C30.0955 18.4376 30.0493 18.4331 30.0493 18.4331C30.0493 18.4331 30.0773 18.4703 30.123 18.4958Z" fill="#999999"/>
<path d="M30.3308 18.1333C30.3766 18.1588 30.4228 18.1632 30.4228 18.1632C30.4228 18.1632 30.3948 18.1262 30.3491 18.1007C30.3034 18.0752 30.2573 18.0708 30.2573 18.0708C30.2573 18.0708 30.2851 18.1078 30.3308 18.1333Z" fill="#999999"/>
<path d="M30.2213 18.2883C30.1958 18.3341 30.1914 18.3803 30.1914 18.3803C30.1914 18.3803 30.2284 18.3523 30.2539 18.3066C30.2794 18.2609 30.2838 18.2148 30.2838 18.2148C30.2838 18.2148 30.2468 18.2426 30.2213 18.2883Z" fill="#999999"/>
<path d="M30.407 17.9389C30.3815 17.9846 30.377 18.0308 30.377 18.0308C30.377 18.0308 30.414 18.0029 30.4395 17.9572C30.465 17.9114 30.4695 17.8652 30.4695 17.8652C30.4695 17.8652 30.4325 17.8932 30.407 17.9389Z" fill="#999999"/>
<path d="M30.4474 18.4068C30.4931 18.4323 30.5391 18.4366 30.5391 18.4366C30.5391 18.4366 30.5112 18.3996 30.4655 18.3741C30.4197 18.3486 30.3735 18.3442 30.3735 18.3442C30.3735 18.3442 30.4016 18.3812 30.4474 18.4068Z" fill="#999999"/>
<path d="M30.6552 18.0449C30.7009 18.0705 30.7471 18.0748 30.7471 18.0748C30.7471 18.0748 30.7192 18.0378 30.6735 18.0123C30.6277 17.9868 30.5815 17.9824 30.5815 17.9824C30.5815 17.9824 30.6095 18.0194 30.6552 18.0449Z" fill="#999999"/>
<path d="M30.545 18.2001C30.5195 18.2458 30.5151 18.2921 30.5151 18.2921C30.5151 18.2921 30.5521 18.2641 30.5777 18.2184C30.6032 18.1727 30.6075 18.1265 30.6075 18.1265C30.6075 18.1265 30.5705 18.1544 30.545 18.2001Z" fill="#999999"/>
<path d="M30.7274 18.4767C30.7529 18.431 30.7574 18.3848 30.7574 18.3848C30.7574 18.3848 30.7205 18.4127 30.6949 18.4584C30.6694 18.5041 30.665 18.5504 30.665 18.5504C30.665 18.5504 30.7019 18.5224 30.7274 18.4767Z" fill="#999999"/>
<path d="M30.9351 18.1149C30.9606 18.0692 30.9651 18.0229 30.9651 18.0229C30.9651 18.0229 30.9281 18.0509 30.9026 18.0966C30.8771 18.1423 30.8726 18.1885 30.8726 18.1885C30.8726 18.1885 30.9096 18.1606 30.9351 18.1149Z" fill="#999999"/>
<path d="M30.8071 18.3018C30.8528 18.3273 30.899 18.3318 30.899 18.3318C30.899 18.3318 30.871 18.2948 30.8253 18.2693C30.7796 18.2438 30.7334 18.2393 30.7334 18.2393C30.7334 18.2393 30.7613 18.2763 30.8071 18.3018Z" fill="#999999"/>
<path d="M31.1425 18.1665C31.1882 18.192 31.2344 18.1964 31.2344 18.1964C31.2344 18.1964 31.2065 18.1594 31.1608 18.1339C31.1151 18.1084 31.0688 18.104 31.0688 18.104C31.0688 18.104 31.0968 18.141 31.1425 18.1665Z" fill="#999999"/>
<path d="M31.0325 18.3212C31.007 18.3669 31.0024 18.4131 31.0024 18.4131C31.0024 18.4131 31.0394 18.3852 31.065 18.3395C31.0905 18.2938 31.095 18.2476 31.095 18.2476C31.095 18.2476 31.058 18.2755 31.0325 18.3212Z" fill="#999999"/>
<path d="M31.218 17.9726C31.1925 18.0183 31.188 18.0645 31.188 18.0645C31.188 18.0645 31.225 18.0366 31.2505 17.9908C31.276 17.9451 31.2804 17.8989 31.2804 17.8989C31.2804 17.8989 31.2436 17.9269 31.218 17.9726Z" fill="#999999"/>
<path d="M31.2621 18.4072C31.3079 18.4328 31.3541 18.4371 31.3541 18.4371C31.3541 18.4371 31.3261 18.4001 31.2804 18.3746C31.2347 18.3491 31.1885 18.3447 31.1885 18.3447C31.1885 18.3447 31.2164 18.3817 31.2621 18.4072Z" fill="#999999"/>
<path d="M31.4703 18.0454C31.516 18.071 31.5621 18.0753 31.5621 18.0753C31.5621 18.0753 31.5341 18.0383 31.4884 18.0128C31.4427 17.9873 31.3965 17.9829 31.3965 17.9829C31.3965 17.9829 31.4246 18.0199 31.4703 18.0454Z" fill="#999999"/>
<path d="M31.3605 18.2006C31.3349 18.2463 31.3306 18.2925 31.3306 18.2925C31.3306 18.2925 31.3676 18.2646 31.3931 18.2189C31.4186 18.1732 31.423 18.127 31.423 18.127C31.423 18.127 31.386 18.1549 31.3605 18.2006Z" fill="#999999"/>
<path d="M31.5417 18.4772C31.5672 18.4315 31.5716 18.3853 31.5716 18.3853C31.5716 18.3853 31.5346 18.4132 31.5091 18.4589C31.4835 18.5046 31.479 18.5508 31.479 18.5508C31.479 18.5508 31.5162 18.5229 31.5417 18.4772Z" fill="#999999"/>
<path d="M31.7505 18.1154C31.776 18.0696 31.7806 18.0234 31.7806 18.0234C31.7806 18.0234 31.7436 18.0514 31.718 18.0971C31.6925 18.1428 31.688 18.189 31.688 18.189C31.688 18.189 31.725 18.1611 31.7505 18.1154Z" fill="#999999"/>
<path d="M31.6225 18.3023C31.6682 18.3278 31.7144 18.3323 31.7144 18.3323C31.7144 18.3323 31.6865 18.2953 31.6407 18.2698C31.595 18.2443 31.5488 18.2397 31.5488 18.2397C31.5488 18.2397 31.5768 18.2767 31.6225 18.3023Z" fill="#999999"/>
<path d="M31.9573 18.167C32.003 18.1925 32.0492 18.1969 32.0492 18.1969C32.0492 18.1969 32.0213 18.1599 31.9755 18.1344C31.9298 18.1089 31.8838 18.1045 31.8838 18.1045C31.8838 18.1045 31.9116 18.1415 31.9573 18.167Z" fill="#999999"/>
<path d="M31.8474 18.3217C31.8219 18.3674 31.8174 18.4136 31.8174 18.4136C31.8174 18.4136 31.8544 18.3857 31.8799 18.34C31.9054 18.2942 31.91 18.248 31.91 18.248C31.91 18.248 31.873 18.276 31.8474 18.3217Z" fill="#999999"/>
<path d="M32.0333 17.9731C32.0078 18.0188 32.0034 18.065 32.0034 18.065C32.0034 18.065 32.0404 18.0371 32.0659 17.9913C32.0915 17.9456 32.0958 17.8994 32.0958 17.8994C32.0958 17.8994 32.0588 17.9274 32.0333 17.9731Z" fill="#999999"/>
<path d="M32.0769 18.4068C32.1226 18.4323 32.1688 18.4366 32.1688 18.4366C32.1688 18.4366 32.1409 18.3996 32.0952 18.3741C32.0495 18.3486 32.0034 18.3442 32.0034 18.3442C32.0034 18.3442 32.0312 18.3812 32.0769 18.4068Z" fill="#999999"/>
<path d="M32.2851 18.0449C32.3308 18.0705 32.377 18.0748 32.377 18.0748C32.377 18.0748 32.3491 18.0378 32.3033 18.0123C32.2576 17.9868 32.2114 17.9824 32.2114 17.9824C32.2114 17.9824 32.2394 18.0194 32.2851 18.0449Z" fill="#999999"/>
<path d="M32.1751 18.2001C32.1495 18.2458 32.145 18.2921 32.145 18.2921C32.145 18.2921 32.182 18.2641 32.2075 18.2184C32.2331 18.1727 32.2374 18.1265 32.2374 18.1265C32.2374 18.1265 32.2006 18.1544 32.1751 18.2001Z" fill="#999999"/>
<path d="M32.356 18.4767C32.3815 18.431 32.3859 18.3848 32.3859 18.3848C32.3859 18.3848 32.3489 18.4127 32.3233 18.4584C32.2978 18.5041 32.2935 18.5504 32.2935 18.5504C32.2935 18.5504 32.3305 18.5224 32.356 18.4767Z" fill="#999999"/>
<path d="M32.5641 18.1149C32.5897 18.0692 32.594 18.0229 32.594 18.0229C32.594 18.0229 32.557 18.0509 32.5315 18.0966C32.506 18.1423 32.5015 18.1885 32.5015 18.1885C32.5015 18.1885 32.5386 18.1606 32.5641 18.1149Z" fill="#999999"/>
<path d="M32.4356 18.3018C32.4814 18.3273 32.5274 18.3318 32.5274 18.3318C32.5274 18.3318 32.4995 18.2948 32.4537 18.2693C32.408 18.2438 32.3618 18.2393 32.3618 18.2393C32.3618 18.2393 32.3899 18.2763 32.4356 18.3018Z" fill="#999999"/>
<path d="M32.7719 18.1665C32.8176 18.192 32.8638 18.1964 32.8638 18.1964C32.8638 18.1964 32.8359 18.1594 32.7902 18.1339C32.7444 18.1084 32.6982 18.104 32.6982 18.104C32.6982 18.104 32.7262 18.141 32.7719 18.1665Z" fill="#999999"/>
<path d="M32.6609 18.3212C32.6354 18.3669 32.6309 18.4131 32.6309 18.4131C32.6309 18.4131 32.6679 18.3852 32.6934 18.3395C32.7189 18.2938 32.7234 18.2476 32.7234 18.2476C32.7234 18.2476 32.6864 18.2755 32.6609 18.3212Z" fill="#999999"/>
<path d="M32.8463 17.9726C32.8208 18.0183 32.8164 18.0645 32.8164 18.0645C32.8164 18.0645 32.8534 18.0366 32.8789 17.9908C32.9044 17.9451 32.9088 17.8989 32.9088 17.8989C32.9088 17.8989 32.872 17.9269 32.8463 17.9726Z" fill="#999999"/>
<path d="M32.8906 18.4072C32.9363 18.4328 32.9825 18.4371 32.9825 18.4371C32.9825 18.4371 32.9545 18.4001 32.9088 18.3746C32.8631 18.3491 32.8169 18.3447 32.8169 18.3447C32.8169 18.3447 32.8448 18.3817 32.8906 18.4072Z" fill="#999999"/>
<path d="M33.0984 18.0454C33.1441 18.071 33.1903 18.0753 33.1903 18.0753C33.1903 18.0753 33.1624 18.0383 33.1167 18.0128C33.0709 17.9873 33.0249 17.9829 33.0249 17.9829C33.0249 17.9829 33.0527 18.0199 33.0984 18.0454Z" fill="#999999"/>
<path d="M32.9885 18.2006C32.963 18.2463 32.9585 18.2925 32.9585 18.2925C32.9585 18.2925 32.9955 18.2646 33.021 18.2189C33.0465 18.1732 33.0509 18.127 33.0509 18.127C33.0509 18.127 33.0141 18.1549 32.9885 18.2006Z" fill="#999999"/>
<path d="M33.1704 18.4772C33.196 18.4315 33.2003 18.3853 33.2003 18.3853C33.2003 18.3853 33.1633 18.4132 33.1378 18.4589C33.1123 18.5046 33.1079 18.5508 33.1079 18.5508C33.1079 18.5508 33.1449 18.5229 33.1704 18.4772Z" fill="#999999"/>
<path d="M33.3784 18.1154C33.404 18.0696 33.4083 18.0234 33.4083 18.0234C33.4083 18.0234 33.3713 18.0514 33.3458 18.0971C33.3203 18.1428 33.3159 18.189 33.3159 18.189C33.3159 18.189 33.3529 18.1611 33.3784 18.1154Z" fill="#999999"/>
<path d="M33.2504 18.3023C33.2961 18.3278 33.3423 18.3323 33.3423 18.3323C33.3423 18.3323 33.3144 18.2953 33.2687 18.2698C33.223 18.2443 33.1768 18.2397 33.1768 18.2397C33.1768 18.2397 33.2047 18.2767 33.2504 18.3023Z" fill="#999999"/>
<path d="M33.5868 18.167C33.6326 18.1925 33.6788 18.1969 33.6788 18.1969C33.6788 18.1969 33.6508 18.1599 33.6051 18.1344C33.5594 18.1089 33.5132 18.1045 33.5132 18.1045C33.5132 18.1045 33.5411 18.1415 33.5868 18.167Z" fill="#999999"/>
<path d="M33.4757 18.3217C33.4502 18.3674 33.4458 18.4136 33.4458 18.4136C33.4458 18.4136 33.4828 18.3857 33.5083 18.34C33.5338 18.2942 33.5382 18.248 33.5382 18.248C33.5382 18.248 33.5012 18.276 33.4757 18.3217Z" fill="#999999"/>
<path d="M33.6622 17.9731C33.6367 18.0188 33.6323 18.065 33.6323 18.065C33.6323 18.065 33.6693 18.0371 33.6948 17.9913C33.7204 17.9456 33.7247 17.8994 33.7247 17.8994C33.7247 17.8994 33.6879 17.9274 33.6622 17.9731Z" fill="#999999"/>
<path d="M33.706 18.4072C33.7517 18.4328 33.7979 18.4371 33.7979 18.4371C33.7979 18.4371 33.77 18.4001 33.7242 18.3746C33.6785 18.3491 33.6323 18.3447 33.6323 18.3447C33.6323 18.3447 33.6603 18.3817 33.706 18.4072Z" fill="#999999"/>
<path d="M33.914 18.0454C33.9597 18.071 34.0059 18.0753 34.0059 18.0753C34.0059 18.0753 33.978 18.0383 33.9323 18.0128C33.8865 17.9873 33.8403 17.9829 33.8403 17.9829C33.8403 17.9829 33.8683 18.0199 33.914 18.0454Z" fill="#999999"/>
<path d="M33.804 18.2006C33.7784 18.2463 33.7739 18.2925 33.7739 18.2925C33.7739 18.2925 33.8109 18.2646 33.8364 18.2189C33.862 18.1732 33.8665 18.127 33.8665 18.127C33.8665 18.127 33.8295 18.1549 33.804 18.2006Z" fill="#999999"/>
<path d="M33.9852 18.4772C34.0107 18.4315 34.0153 18.3853 34.0153 18.3853C34.0153 18.3853 33.9783 18.4132 33.9527 18.4589C33.9272 18.5046 33.9229 18.5508 33.9229 18.5508C33.9229 18.5508 33.9597 18.5229 33.9852 18.4772Z" fill="#999999"/>
<path d="M34.1929 18.1154C34.2184 18.0696 34.2228 18.0234 34.2228 18.0234C34.2228 18.0234 34.1858 18.0514 34.1603 18.0971C34.1347 18.1428 34.1304 18.189 34.1304 18.189C34.1304 18.189 34.1674 18.1611 34.1929 18.1154Z" fill="#999999"/>
<path d="M34.0652 18.3023C34.1109 18.3278 34.1571 18.3323 34.1571 18.3323C34.1571 18.3323 34.1292 18.2953 34.0835 18.2698C34.0377 18.2443 33.9917 18.2397 33.9917 18.2397C33.9917 18.2397 34.0195 18.2767 34.0652 18.3023Z" fill="#999999"/>
<path d="M34.4008 18.167C34.4465 18.1925 34.4927 18.1969 34.4927 18.1969C34.4927 18.1969 34.4648 18.1599 34.4191 18.1344C34.3734 18.1089 34.3271 18.1045 34.3271 18.1045C34.3271 18.1045 34.3551 18.1415 34.4008 18.167Z" fill="#999999"/>
<path d="M34.2911 18.3212C34.2656 18.3669 34.2612 18.4131 34.2612 18.4131C34.2612 18.4131 34.2982 18.3852 34.3237 18.3395C34.3493 18.2938 34.3538 18.2476 34.3538 18.2476C34.3538 18.2476 34.3166 18.2755 34.2911 18.3212Z" fill="#999999"/>
<path d="M34.4758 17.9731C34.4503 18.0188 34.4458 18.065 34.4458 18.065C34.4458 18.065 34.4828 18.0371 34.5083 17.9913C34.5338 17.9456 34.5384 17.8994 34.5384 17.8994C34.5384 17.8994 34.5014 17.9274 34.4758 17.9731Z" fill="#999999"/>
<path d="M34.5206 18.4068C34.5663 18.4323 34.6124 18.4366 34.6124 18.4366C34.6124 18.4366 34.5844 18.3996 34.5387 18.3741C34.493 18.3486 34.4468 18.3442 34.4468 18.3442C34.4468 18.3442 34.4749 18.3812 34.5206 18.4068Z" fill="#999999"/>
<path d="M34.7289 18.0449C34.7747 18.0705 34.8209 18.0748 34.8209 18.0748C34.8209 18.0748 34.7929 18.0378 34.7472 18.0123C34.7015 17.9868 34.6553 17.9824 34.6553 17.9824C34.6553 17.9824 34.6834 18.0194 34.7289 18.0449Z" fill="#999999"/>
<path d="M34.6179 18.2001C34.5924 18.2458 34.5879 18.2921 34.5879 18.2921C34.5879 18.2921 34.6249 18.2641 34.6504 18.2184C34.6759 18.1727 34.6803 18.1265 34.6803 18.1265C34.6803 18.1265 34.6435 18.1544 34.6179 18.2001Z" fill="#999999"/>
<path d="M34.7995 18.4767C34.825 18.431 34.8294 18.3848 34.8294 18.3848C34.8294 18.3848 34.7924 18.4127 34.7669 18.4584C34.7413 18.5041 34.7368 18.5504 34.7368 18.5504C34.7368 18.5504 34.774 18.5224 34.7995 18.4767Z" fill="#999999"/>
<path d="M35.0072 18.1149C35.0327 18.0692 35.0372 18.0229 35.0372 18.0229C35.0372 18.0229 35.0002 18.0509 34.9747 18.0966C34.9492 18.1423 34.9448 18.1885 34.9448 18.1885C34.9448 18.1885 34.9817 18.1606 35.0072 18.1149Z" fill="#999999"/>
<path d="M34.8795 18.3018C34.9252 18.3273 34.9713 18.3318 34.9713 18.3318C34.9713 18.3318 34.9433 18.2948 34.8976 18.2693C34.8519 18.2438 34.8057 18.2393 34.8057 18.2393C34.8057 18.2393 34.8338 18.2763 34.8795 18.3018Z" fill="#999999"/>
<path d="M35.2145 18.1665C35.2602 18.192 35.3062 18.1964 35.3062 18.1964C35.3062 18.1964 35.2783 18.1594 35.2325 18.1339C35.1868 18.1084 35.1406 18.104 35.1406 18.104C35.1406 18.104 35.1687 18.141 35.2145 18.1665Z" fill="#999999"/>
<path d="M35.1051 18.3212C35.0796 18.3669 35.0752 18.4131 35.0752 18.4131C35.0752 18.4131 35.1122 18.3852 35.1377 18.3395C35.1632 18.2938 35.1676 18.2476 35.1676 18.2476C35.1676 18.2476 35.1306 18.2755 35.1051 18.3212Z" fill="#999999"/>
<path d="M35.2908 17.9726C35.2653 18.0183 35.2607 18.0645 35.2607 18.0645C35.2607 18.0645 35.2977 18.0366 35.3233 17.9908C35.3488 17.9451 35.3533 17.8989 35.3533 17.8989C35.3533 17.8989 35.3163 17.9269 35.2908 17.9726Z" fill="#999999"/>
<path d="M35.3344 18.4077C35.3801 18.4333 35.4263 18.4376 35.4263 18.4376C35.4263 18.4376 35.3984 18.4006 35.3527 18.3751C35.3069 18.3496 35.2607 18.3452 35.2607 18.3452C35.2607 18.3452 35.2887 18.3822 35.3344 18.4077Z" fill="#999999"/>
<path d="M35.5419 18.0459C35.5877 18.0714 35.6339 18.0758 35.6339 18.0758C35.6339 18.0758 35.6059 18.0388 35.5602 18.0133C35.5145 17.9878 35.4683 17.9834 35.4683 17.9834C35.4683 17.9834 35.4964 18.0204 35.5419 18.0459Z" fill="#999999"/>
<path d="M35.4327 18.2011C35.4072 18.2468 35.4028 18.293 35.4028 18.293C35.4028 18.293 35.4398 18.2651 35.4654 18.2194C35.4909 18.1736 35.4954 18.1274 35.4954 18.1274C35.4954 18.1274 35.4582 18.1554 35.4327 18.2011Z" fill="#999999"/>
<path d="M35.6143 18.4772C35.6398 18.4315 35.6443 18.3853 35.6443 18.3853C35.6443 18.3853 35.6073 18.4132 35.5818 18.4589C35.5563 18.5046 35.5518 18.5508 35.5518 18.5508C35.5518 18.5508 35.5888 18.5229 35.6143 18.4772Z" fill="#999999"/>
<path d="M35.8223 18.1154C35.8478 18.0696 35.8523 18.0234 35.8523 18.0234C35.8523 18.0234 35.8153 18.0514 35.7898 18.0971C35.7643 18.1428 35.7598 18.189 35.7598 18.189C35.7598 18.189 35.7968 18.1611 35.8223 18.1154Z" fill="#999999"/>
<path d="M35.6943 18.3023C35.74 18.3278 35.7862 18.3323 35.7862 18.3323C35.7862 18.3323 35.7582 18.2953 35.7125 18.2698C35.6668 18.2443 35.6206 18.2397 35.6206 18.2397C35.6206 18.2397 35.6486 18.2767 35.6943 18.3023Z" fill="#999999"/>
<path d="M35.9197 18.3217C35.8942 18.3674 35.8896 18.4136 35.8896 18.4136C35.8896 18.4136 35.9266 18.3857 35.9522 18.34C35.9777 18.2942 35.9822 18.248 35.9822 18.248C35.9822 18.248 35.9452 18.276 35.9197 18.3217Z" fill="#999999"/>
</g>
<path d="M44.5005 20.9351L44.5005 20.6819C44.5005 20.654 44.5231 20.6313 44.5511 20.6313L44.6611 20.6313C44.689 20.6313 44.7116 20.654 44.7116 20.6819L44.7116 20.9351C44.7116 20.963 44.689 20.9856 44.6611 20.9856L44.5511 20.9856C44.5231 20.9855 44.5005 20.9628 44.5005 20.9351Z" fill="url(#paint3_linear_580_8774)"/>
<path d="M44.5005 21.4264L44.5005 21.6297C44.5005 21.6714 44.5343 21.705 44.5758 21.705L44.636 21.705C44.6777 21.705 44.7113 21.6713 44.7113 21.6297L44.7113 21.4264C44.7113 21.3847 44.6775 21.3511 44.636 21.3511L44.5758 21.3511C44.5343 21.3509 44.5005 21.3847 44.5005 21.4264Z" fill="url(#paint4_linear_580_8774)"/>
<path d="M43.9009 21.2851L43.9015 21.0859C43.902 20.9641 44.001 20.8657 44.1229 20.8662L44.7802 20.8686C44.902 20.8691 45.0004 20.9681 44.9999 21.09L44.9993 21.2891C44.9988 21.4109 44.8997 21.5093 44.7779 21.5089L44.1206 21.5064C43.9988 21.5059 43.9004 21.4069 43.9009 21.2851Z" fill="url(#paint5_linear_580_8774)"/>
<path d="M44.5005 31.1943L44.5005 30.9412C44.5005 30.9134 44.5231 30.8906 44.5511 30.8906L44.6611 30.8906C44.689 30.8906 44.7116 30.9132 44.7116 30.9412L44.7116 31.1943C44.7116 31.2223 44.689 31.2449 44.6611 31.2449L44.5511 31.2449C44.5231 31.2449 44.5005 31.2223 44.5005 31.1943Z" fill="url(#paint6_linear_580_8774)"/>
<path d="M44.5005 31.6856L44.5005 31.889C44.5005 31.9307 44.5343 31.9643 44.5758 31.9643L44.636 31.9643C44.6777 31.9643 44.7113 31.9305 44.7113 31.889L44.7113 31.6856C44.7113 31.644 44.6775 31.6104 44.636 31.6104L44.5758 31.6104C44.5343 31.6104 44.5005 31.6441 44.5005 31.6856Z" fill="url(#paint7_linear_580_8774)"/>
<path d="M43.9009 31.5444L43.9015 31.3452C43.902 31.2234 44.001 31.125 44.1229 31.1255L44.7802 31.1279C44.902 31.1284 45.0004 31.2274 44.9999 31.3492L44.9993 31.5484C44.9988 31.6702 44.8997 31.7686 44.7779 31.7681L44.1206 31.7657C43.9988 31.7654 43.9004 31.6662 43.9009 31.5444Z" fill="url(#paint8_linear_580_8774)"/>
<path d="M29.4976 34.0864L29.4976 18.5107L43.3942 18.5107C43.9407 18.5107 44.3835 18.9537 44.3835 19.5001L44.3835 33.0969C44.3835 33.6434 43.9406 34.0864 43.3942 34.0864L29.4976 34.0864Z" fill="#E1E2DD"/>
<path d="M44.3836 32.6097L44.3836 19.9873C44.3836 19.1718 43.7226 18.5107 42.9071 18.5107L42.2358 18.5107L42.2358 34.0864L42.9071 34.0864C43.7226 34.0864 44.3836 33.4252 44.3836 32.6097Z" fill="url(#paint9_linear_580_8774)"/>
<path d="M44.3836 32.6097L44.3836 19.9873C44.3836 19.1718 43.7226 18.5107 42.9071 18.5107L42.2358 18.5107L42.2358 34.0864L42.9071 34.0864C43.7226 34.0864 44.3836 33.4252 44.3836 32.6097Z" fill="url(#paint10_linear_580_8774)"/>
<path opacity="0.2" d="M44.0187 32.3979L44.0187 20.1986C44.0187 19.4104 43.3576 18.7715 42.5421 18.7715L42.2358 18.7715L42.2358 33.8249L42.5421 33.8249C43.3576 33.825 44.0187 33.1861 44.0187 32.3979Z" fill="black"/>
<path d="M29.7949 18.9927L42.8132 18.9927C43.1812 18.9927 43.4796 19.2911 43.4796 19.6591L43.4796 32.9377C43.4796 33.3057 43.1812 33.6041 42.8132 33.6041L29.7949 33.6041L29.7949 18.9927Z" fill="#F5F7EA"/>
<g opacity="0.1">
<path d="M29.7949 18.9927L42.8132 18.9927C43.1812 18.9927 43.4796 19.2911 43.4796 19.6591L43.4796 32.9377C43.4796 33.3057 43.1812 33.6041 42.8132 33.6041L29.7949 33.6041L29.7949 18.9927Z" fill="url(#paint11_radial_580_8774)"/>
</g>
<g opacity="0.5">
<path d="M29.7949 18.9927L42.8132 18.9927C43.1812 18.9927 43.4796 19.2911 43.4796 19.6591L43.4796 32.9377C43.4796 33.3057 43.1812 33.6041 42.8132 33.6041L29.7949 33.6041L29.7949 18.9927Z" fill="url(#paint12_linear_580_8774)"/>
</g>
<path opacity="0.3" d="M43.4793 22.8372L43.4793 21.9867L33.7746 21.252L33.7109 22.1025L43.4793 22.8372Z" fill="url(#paint13_linear_580_8774)"/>
<path opacity="0.3" d="M43.4793 29.7524L43.4793 30.603L33.7746 31.3377L33.7109 30.4872L43.4793 29.7524Z" fill="url(#paint14_linear_580_8774)"/>
<path d="M43.9012 32.6094L43.9012 19.987C43.9012 19.4387 43.4553 18.9927 42.9068 18.9927L42.4849 18.9927C43.034 18.9927 43.4794 19.4379 43.4794 19.987L43.4794 32.6094C43.4794 33.1587 43.0341 33.6039 42.4849 33.6039L42.9068 33.6039C43.4553 33.6039 43.9012 33.1579 43.9012 32.6094Z" fill="#CCCCCC"/>
<path opacity="0.4" d="M43.8535 29.6937L43.8535 22.8379L43.7984 22.8379L43.7984 29.6937L43.8535 29.6937Z" fill="#666666"/>
<path opacity="0.4" d="M43.7598 29.6937L43.7598 22.8379L43.7047 22.8379L43.7047 29.6937L43.7598 29.6937Z" fill="#666666"/>
<path opacity="0.4" d="M43.666 29.6937L43.666 22.8379L43.6109 22.8379L43.6109 29.6937L43.666 29.6937Z" fill="#666666"/>
<path opacity="0.4" d="M43.5728 29.6937L43.5728 22.8379L43.5177 22.8379L43.5177 29.6937L43.5728 29.6937Z" fill="#666666"/>
<path d="M43.9017 19.9888V19.987C43.9017 19.4387 43.4558 18.9927 42.9073 18.9927L42.4854 18.9927C43.0345 18.9927 43.4799 19.4379 43.4799 19.987V19.9888L43.9017 19.9888Z" fill="#FF6600"/>
<path d="M43.4795 22.7989L43.4795 19.9868L43.9015 19.9868L43.9015 23.0777L43.4795 22.7989Z" fill="#DCFFFE"/>
<path d="M43.5171 19.9886L43.5171 22.8238L43.6111 22.886L43.6111 19.9886V19.9868L43.5171 19.9868V19.9886Z" fill="white"/>
<path opacity="0.4" d="M43.6115 19.987C43.6115 19.4387 43.1656 18.9927 42.6171 18.9927L42.5229 18.9927C43.0712 18.9927 43.5173 19.4387 43.5173 19.987V19.9888L43.6115 19.9888V19.987Z" fill="white"/>
<path d="M42.5229 18.9926L42.5229 18.8939C42.5229 18.8682 42.5553 18.8472 42.595 18.8472L42.8727 18.8472C42.9124 18.8472 42.9448 18.868 42.9448 18.8939L42.9448 18.9926L42.5229 18.9926Z" fill="#FF6600"/>
<path d="M43.9017 32.5908V32.5926C43.9017 33.1409 43.4558 33.5869 42.9073 33.5869L42.4854 33.5869C43.0345 33.5869 43.4799 33.1417 43.4799 32.5926V32.5908L43.9017 32.5908Z" fill="#FF6600"/>
<path d="M43.4795 29.7801L43.4795 32.5922L43.9015 32.5922L43.9015 29.5015L43.4795 29.7801Z" fill="#DCFFFE"/>
<path d="M43.5171 32.5902L43.5171 29.7551L43.6111 29.6929L43.6111 32.5902V32.592L43.5171 32.592V32.5902Z" fill="white"/>
<path opacity="0.4" d="M43.6115 32.5926C43.6115 33.1409 43.1656 33.5869 42.6171 33.5869L42.5229 33.5869C43.0712 33.5869 43.5173 33.1409 43.5173 32.5926V32.5908L43.6115 32.5908V32.5926Z" fill="white"/>
<path d="M42.5229 33.5864L42.5229 33.6851C42.5229 33.7108 42.5553 33.7318 42.595 33.7318L42.8727 33.7318C42.9124 33.7318 42.9448 33.711 42.9448 33.6851L42.9448 33.5864L42.5229 33.5864Z" fill="#FF6600"/>
<path d="M32.5677 20.286C32.7957 21.8414 33.3385 28.7317 32.6164 32.1296C32.5446 32.4669 32.7202 32.8065 33.0365 32.9436L37.2318 33.558C37.5575 33.6992 37.9329 33.5289 38.0381 33.1898C38.5751 31.4595 39.8063 26.276 37.978 19.4264C37.8863 19.0828 37.51 18.9002 37.1803 19.0335L33.0146 19.5096C32.7044 19.6348 32.5193 19.9548 32.5677 20.286Z" fill="#F4F4F4"/>
<path opacity="0.5" d="M32.5677 20.286C32.7957 21.8414 33.3385 28.7317 32.6164 32.1296C32.5446 32.4669 32.7202 32.8065 33.0365 32.9436L37.2318 33.558C37.5575 33.6992 37.9329 33.5289 38.0381 33.1898C38.5751 31.4595 39.8063 26.276 37.978 19.4264C37.8863 19.0828 37.51 18.9002 37.1803 19.0335L33.0146 19.5096C32.7044 19.6348 32.5193 19.9548 32.5677 20.286Z" fill="url(#paint15_linear_580_8774)"/>
<path d="M32.8525 20.1808C32.8525 20.0046 32.9592 19.8477 33.1239 19.781L37.2897 19.3049C37.3711 19.2721 37.463 19.2758 37.5415 19.3151C37.6184 19.3535 37.673 19.4199 37.6951 19.502C38.3294 21.8782 38.651 24.2791 38.651 26.638C38.651 29.7608 38.0917 32.0289 37.7583 33.103C37.7326 33.1858 37.6754 33.2512 37.5968 33.2872C37.5173 33.3237 37.4292 33.3245 37.348 33.2893L33.1529 32.6749C32.995 32.6064 32.8929 32.4517 32.8929 32.2806C32.8929 32.2506 32.8962 32.2203 32.9026 32.1903C33.147 31.0398 33.271 28.4574 33.271 26.8922C33.271 24.6127 33.0118 21.2979 32.8572 20.2435C32.854 20.2223 32.8525 20.2015 32.8525 20.1808Z" fill="black"/>
<path d="M32.9995 20.1811C32.9995 20.0647 33.0701 19.9612 33.1793 19.9171L37.345 19.441C37.403 19.4176 37.4523 19.4342 37.4765 19.4463C37.5043 19.4602 37.54 19.4877 37.5541 19.54C38.1851 21.904 38.5051 24.2921 38.5051 26.6383C38.5051 29.7418 37.9499 31.9938 37.619 33.0598C37.6012 33.1173 37.5596 33.1438 37.5363 33.1545C37.5122 33.1653 37.4639 33.18 37.4067 33.1553L33.2113 32.5409C33.1073 32.4957 33.0397 32.3936 33.0397 32.2809C33.0397 32.261 33.042 32.241 33.046 32.2211C33.2929 31.0605 33.4178 28.4678 33.4178 26.8924C33.4178 24.6038 33.1575 21.2809 33.0026 20.2226C33.0006 20.2087 32.9995 20.1948 32.9995 20.1811Z" fill="#676B86"/>
<path opacity="0.2" d="M36.2075 19.571C36.6219 21.2758 36.9544 23.8265 36.9544 26.299C36.9544 28.7455 36.6141 31.2815 36.2075 32.9797L37.4067 33.1553C37.4639 33.18 37.5122 33.1653 37.5363 33.1545C37.5594 33.1438 37.6012 33.1173 37.619 33.0598C37.9498 31.9937 38.5051 29.7418 38.5051 26.6383C38.5051 24.2921 38.185 21.9039 37.554 19.54C37.54 19.4877 37.5043 19.4602 37.4765 19.4463C37.4523 19.4343 37.403 19.4175 37.345 19.441L36.2075 19.571Z" fill="black"/>
<path d="M37.2627 19.4741C37.7136 21.2997 37.9872 23.6856 37.9872 26.299C37.9872 28.899 37.7163 31.2737 37.2696 33.0958L37.4068 33.1553C37.464 33.18 37.5123 33.1653 37.5364 33.1545C37.5595 33.1438 37.6013 33.1173 37.6191 33.0598C37.9499 31.9937 38.5052 29.7418 38.5052 26.6383C38.5052 24.2921 38.1851 21.9039 37.5541 19.54C37.5401 19.4877 37.5044 19.4602 37.4766 19.4463C37.4524 19.4343 37.4031 19.4175 37.3451 19.441L37.2627 19.4741Z" fill="#333333"/>
<path d="M37.3344 21.6875L37.7319 23.5964L37.6364 23.6138L37.2866 21.6961L37.3344 21.6875Z" fill="black"/>
<path d="M38.1196 26.2594L37.644 23.6519L37.7663 23.7808L38.2151 26.242L38.1196 26.2594Z" fill="black"/>
<path d="M37.2822 21.8076L38.1113 26.3618L38.1622 26.3524L37.3121 21.6914L37.2822 21.8076Z" fill="#333333"/>
<path d="M38.141 26.2444C38.214 26.2311 38.284 26.2794 38.2972 26.3525C38.3105 26.4255 38.2622 26.4954 38.1892 26.5087C38.1161 26.5219 38.0462 26.4736 38.0329 26.4006C38.0197 26.3276 38.068 26.2576 38.141 26.2444Z" fill="black"/>
<path d="M38.1172 26.2489C38.1769 26.238 38.2343 26.2776 38.2451 26.3374C38.2561 26.3972 38.2164 26.4545 38.1566 26.4653C38.0968 26.4763 38.0395 26.4366 38.0286 26.3768C38.0178 26.317 38.0574 26.2597 38.1172 26.2489Z" fill="#333333"/>
<path d="M37.5483 25.918L37.7527 27.857L37.6559 27.8649L37.5 25.9218L37.5483 25.918Z" fill="black"/>
<path d="M37.8706 30.5454L37.6587 27.9033L37.7673 28.044L37.9674 30.5377L37.8706 30.5454Z" fill="black"/>
<path d="M37.4849 26.0325L37.8537 30.6468L37.9054 30.6426L37.5262 25.9199L37.4849 26.0325Z" fill="#333333"/>
<path d="M37.8945 30.5332C37.9685 30.5272 38.0331 30.5824 38.0391 30.6563C38.0451 30.7302 37.9899 30.7949 37.916 30.8008C37.842 30.8068 37.7774 30.7516 37.7714 30.6777C37.7655 30.6039 37.8205 30.5391 37.8945 30.5332Z" fill="black"/>
<path d="M37.8707 30.5345C37.9313 30.5297 37.9843 30.5748 37.9893 30.6353C37.9941 30.6959 37.9489 30.7489 37.8883 30.7538C37.8277 30.7586 37.7747 30.7135 37.7699 30.653C37.765 30.5924 37.8101 30.5394 37.8707 30.5345Z" fill="#333333"/>
<path opacity="0.5" d="M32.9995 20.1811C32.9995 20.0647 33.0701 19.9612 33.1793 19.9171L37.345 19.441C37.403 19.4176 37.4523 19.4342 37.4765 19.4463C37.5043 19.4602 37.54 19.4877 37.5541 19.54C38.1851 21.904 38.5051 24.2921 38.5051 26.6383C38.5051 29.7418 37.9499 31.9938 37.619 33.0598C37.6012 33.1173 37.5596 33.1438 37.5363 33.1545C37.5122 33.1653 37.4639 33.18 37.4067 33.1553L33.2113 32.5409C33.1073 32.4957 33.0397 32.3936 33.0397 32.2809C33.0397 32.261 33.042 32.241 33.046 32.2211C33.2929 31.0605 33.4178 28.4678 33.4178 26.8924C33.4178 24.6038 33.1575 21.2809 33.0026 20.2226C33.0006 20.2087 32.9995 20.1948 32.9995 20.1811Z" fill="url(#paint16_radial_580_8774)"/>
<path opacity="0.3" d="M32.9995 20.1811C32.9995 20.0647 33.0701 19.9612 33.1793 19.9171L37.345 19.441C37.403 19.4176 37.4523 19.4342 37.4765 19.4463C37.5043 19.4602 37.54 19.4877 37.5541 19.54C38.1851 21.904 38.5051 24.2921 38.5051 26.6383C38.5051 29.7418 37.9499 31.9938 37.619 33.0598C37.6012 33.1173 37.5596 33.1438 37.5363 33.1545C37.5122 33.1653 37.4639 33.18 37.4067 33.1553L33.2113 32.5409C33.1073 32.4957 33.0397 32.3936 33.0397 32.2809C33.0397 32.261 33.042 32.241 33.046 32.2211C33.2929 31.0605 33.4178 28.4678 33.4178 26.8924C33.4178 24.6038 33.1575 21.2809 33.0026 20.2226C33.0006 20.2087 32.9995 20.1948 32.9995 20.1811Z" fill="url(#paint17_radial_580_8774)"/>
<path d="M29.792 18.9862C29.792 18.993 29.7931 19 29.7949 19.0069L29.792 19.6785C29.8125 19.7478 29.9358 19.8001 30.0786 19.8001L32.0181 19.8001C32.0571 19.8001 32.095 19.7964 32.1309 19.789L37.5092 19.0673C37.5711 19.0546 37.6095 19.0263 37.6095 18.9935C37.6095 18.9483 37.5375 18.9127 37.4454 18.9127L30.0815 18.8442C30.0035 18.8442 29.9306 18.8591 29.8758 18.8864C29.8216 18.9132 29.792 18.9488 29.792 18.9862Z" fill="#F4F4F4"/>
<path opacity="0.5" d="M29.792 18.9862C29.792 18.993 29.7931 19 29.7949 19.0069L29.792 19.6785C29.8125 19.7478 29.9358 19.8001 30.0786 19.8001L32.0181 19.8001C32.0571 19.8001 32.095 19.7964 32.1309 19.789L37.5092 19.0673C37.5711 19.0546 37.6095 19.0263 37.6095 18.9935C37.6095 18.9483 37.5375 18.9127 37.4454 18.9127L30.0815 18.8442C30.0035 18.8442 29.9306 18.8591 29.8758 18.8864C29.8216 18.9132 29.792 18.9488 29.792 18.9862Z" fill="url(#paint18_linear_580_8774)"/>
<path d="M37.4669 19.0178L32.0884 19.7394C32.0661 19.7441 32.0422 19.7464 32.018 19.7464L30.0786 19.7464C29.9886 19.7464 29.9123 19.7139 29.8994 19.6703L29.9023 18.9987C29.8863 18.9451 29.9711 18.897 30.0815 18.897L37.4454 18.9655C37.5056 18.9656 37.5223 19.0063 37.4669 19.0178Z" fill="black"/>
<path d="M30.0097 18.9914L30.0068 19.6629C30.0118 19.6804 30.0427 19.6935 30.0786 19.6935L32.0181 19.6935C32.0278 19.6935 32.0372 19.6925 32.0461 19.6907L37.183 19.0192L30.0815 18.9507C30.0619 18.9507 30.0437 18.9544 30.0299 18.9612C30.0164 18.968 30.0089 18.9769 30.0089 18.9862L30.0097 18.9914Z" fill="#676B86"/>
<path opacity="0.2" d="M30.0758 19.2127L30.0101 18.9916L30.0093 18.9862C30.0093 18.9768 30.0167 18.968 30.0303 18.9612C30.044 18.9544 30.0623 18.9507 30.0818 18.9507L37.1834 19.0192L34.7294 19.1342L30.0758 19.2127Z" fill="black"/>
<path opacity="0.5" d="M30.0097 18.9914L30.0068 19.6629C30.0118 19.6804 30.0427 19.6935 30.0786 19.6935L32.0181 19.6935C32.0278 19.6935 32.0372 19.6925 32.0461 19.6907L37.183 19.0192L30.0815 18.9507C30.0619 18.9507 30.0437 18.9544 30.0299 18.9612C30.0164 18.968 30.0089 18.9769 30.0089 18.9862L30.0097 18.9914Z" fill="url(#paint19_linear_580_8774)"/>
<path opacity="0.3" d="M30.0097 18.9914L30.0068 19.6629C30.0118 19.6804 30.0427 19.6935 30.0786 19.6935L32.0181 19.6935C32.0278 19.6935 32.0372 19.6925 32.0461 19.6907L37.183 19.0192L30.0815 18.9507C30.0619 18.9507 30.0437 18.9544 30.0299 18.9612C30.0164 18.968 30.0089 18.9769 30.0089 18.9862L30.0097 18.9914Z" fill="url(#paint20_linear_580_8774)"/>
<path d="M29.793 33.6513C29.793 33.6445 29.7941 33.6375 29.7959 33.6306L29.793 32.959C29.8135 32.8897 29.9368 32.8374 30.0796 32.8374L32.0191 32.8374C32.0581 32.8374 32.096 32.8411 32.1319 32.8487L37.5102 33.5703C37.5721 33.5833 37.6105 33.6114 37.6105 33.6442C37.6105 33.6894 37.5385 33.7249 37.4464 33.7249L30.0825 33.7934C30.0044 33.7934 29.9316 33.7786 29.8768 33.7514C29.8225 33.7243 29.793 33.6888 29.793 33.6513Z" fill="#F4F4F4"/>
<path opacity="0.5" d="M29.793 33.6513C29.793 33.6445 29.7941 33.6375 29.7959 33.6306L29.793 32.959C29.8135 32.8897 29.9368 32.8374 30.0796 32.8374L32.0191 32.8374C32.0581 32.8374 32.096 32.8411 32.1319 32.8487L37.5102 33.5703C37.5721 33.5833 37.6105 33.6114 37.6105 33.6442C37.6105 33.6894 37.5385 33.7249 37.4464 33.7249L30.0825 33.7934C30.0044 33.7934 29.9316 33.7786 29.8768 33.7514C29.8225 33.7243 29.793 33.6888 29.793 33.6513Z" fill="url(#paint21_linear_580_8774)"/>
<path d="M37.4678 33.6197L32.0894 32.8981C32.0671 32.8934 32.0432 32.8911 32.0189 32.8911L30.0796 32.8911C29.9896 32.8911 29.9133 32.9234 29.9004 32.9672L29.9033 33.6388C29.8873 33.6924 29.9721 33.7405 30.0825 33.7405L37.4464 33.672C37.5066 33.6719 37.5233 33.6313 37.4678 33.6197Z" fill="black"/>
<path d="M30.0107 33.6459L30.0078 32.9744C30.0128 32.9569 30.0437 32.9438 30.0795 32.9438L32.0191 32.9438C32.0288 32.9438 32.0382 32.9448 32.047 32.9466L37.184 33.6182L30.0824 33.6866C30.0629 33.6866 30.0446 33.6829 30.0309 33.6761C30.0173 33.6694 30.0099 33.6605 30.0099 33.6511L30.0107 33.6459Z" fill="#676B86"/>
<path opacity="0.2" d="M30.0763 33.4248L30.0106 33.646L30.0098 33.6513C30.0098 33.6607 30.0172 33.6696 30.0308 33.6763C30.0445 33.6831 30.0628 33.6868 30.0823 33.6868L37.1838 33.6183L34.7299 33.5033L30.0763 33.4248Z" fill="black"/>
<path opacity="0.5" d="M30.0107 33.6459L30.0078 32.9744C30.0128 32.9569 30.0437 32.9438 30.0795 32.9438L32.0191 32.9438C32.0288 32.9438 32.0382 32.9448 32.047 32.9466L37.184 33.6182L30.0824 33.6866C30.0629 33.6866 30.0446 33.6829 30.0309 33.6761C30.0173 33.6694 30.0099 33.6605 30.0099 33.6511L30.0107 33.6459Z" fill="url(#paint22_linear_580_8774)"/>
<path opacity="0.3" d="M30.0107 33.6459L30.0078 32.9744C30.0128 32.9569 30.0437 32.9438 30.0795 32.9438L32.0191 32.9438C32.0288 32.9438 32.0382 32.9448 32.047 32.9466L37.184 33.6182L30.0824 33.6866C30.0629 33.6866 30.0446 33.6829 30.0309 33.6761C30.0173 33.6694 30.0099 33.6605 30.0099 33.6511L30.0107 33.6459Z" fill="url(#paint23_linear_580_8774)"/>
<path d="M36.6589 18.9934L36.0298 17.3613L36.3343 17.3613C36.4776 17.3613 36.6062 17.4495 36.6577 17.5833L37.2013 18.9934L36.6589 18.9934Z" fill="#999999"/>
<path opacity="0.4" d="M36.6213 18.9934L35.9922 17.3613L36.2967 17.3613C36.44 17.3613 36.5686 17.4495 36.6203 17.5833L37.1639 18.9934L36.6213 18.9934Z" fill="url(#paint24_linear_580_8774)"/>
<path d="M36.2323 18.5259L35.8967 17.4957C35.8751 17.4293 35.9245 17.3613 35.9943 17.3613L36.369 17.3613L36.7714 18.597L36.33 18.597C36.2856 18.5968 36.2462 18.5681 36.2323 18.5259Z" fill="#666666"/>
<path opacity="0.3" d="M36.2323 18.5259L35.8967 17.4957C35.8751 17.4293 35.9245 17.3613 35.9943 17.3613L36.369 17.3613L36.7714 18.597L36.33 18.597C36.2856 18.5968 36.2462 18.5681 36.2323 18.5259Z" fill="url(#paint25_linear_580_8774)"/>
<path d="M36.6589 33.6592L36.0298 35.2913L36.3343 35.2913C36.4776 35.2913 36.6062 35.2031 36.6577 35.0693L37.2013 33.6592L36.6589 33.6592Z" fill="#999999"/>
<path opacity="0.4" d="M36.6213 33.6592L35.9922 35.2913L36.2967 35.2913C36.44 35.2913 36.5686 35.2031 36.6203 35.0693L37.1639 33.6592L36.6213 33.6592Z" fill="url(#paint26_linear_580_8774)"/>
<path d="M36.2323 34.1266L35.8967 35.1568C35.8751 35.2232 35.9245 35.2913 35.9943 35.2913L36.369 35.2913L36.7714 34.0557L36.33 34.0557C36.2856 34.0558 36.2462 34.0844 36.2323 34.1266Z" fill="#666666"/>
<path opacity="0.3" d="M36.2323 34.1266L35.8967 35.1568C35.8751 35.2232 35.9245 35.2913 35.9943 35.2913L36.369 35.2913L36.7714 34.0557L36.33 34.0557C36.2856 34.0558 36.2462 34.0844 36.2323 34.1266Z" fill="url(#paint27_linear_580_8774)"/>
<path opacity="0.7" d="M30.0952 30.441L30.0952 21.6714L31.1734 21.994L31.1734 30.7636L30.0952 30.441Z" fill="url(#paint28_linear_580_8774)"/>
<path d="M30.3608 30.5978L30.3608 21.9986C30.3608 21.7375 30.5725 21.5259 30.8335 21.5259L31.3363 21.5259C31.5973 21.5259 31.809 21.7375 31.809 21.9986L31.809 30.5978C31.809 30.8588 31.5973 31.0705 31.3363 31.0705L30.8335 31.0705C30.5725 31.0705 30.3608 30.8588 30.3608 30.5978Z" fill="#999999"/>
<path d="M31.8088 30.5974L31.8088 27.3594L30.3608 27.3594L30.3608 30.5974C30.3608 30.8585 30.5725 31.0701 30.8335 31.0701L31.3363 31.0701C31.5972 31.0701 31.8088 30.8585 31.8088 30.5974Z" fill="#5D94FF"/>
<path opacity="0.5" d="M30.7056 27.7046L31.4645 27.7046L31.4645 30.5981C31.4645 30.6685 31.407 30.726 31.3363 30.726L30.8338 30.726C30.7631 30.726 30.7056 30.6687 30.7056 30.5981L30.7056 27.7046Z" fill="#5384E4"/>
<path d="M31.8088 21.9986L31.8088 25.2366L30.3608 25.2366L30.3608 21.9986C30.3608 21.7375 30.5725 21.5259 30.8335 21.5259L31.3363 21.5259C31.5972 21.5259 31.8088 21.7375 31.8088 21.9986Z" fill="#CC0000"/>
<path opacity="0.3" d="M30.7056 21.9987C30.7056 21.9281 30.7631 21.8706 30.8338 21.8706L31.3363 21.8706C31.407 21.8706 31.4645 21.928 31.4645 21.9987L31.4645 24.8922L30.7056 24.8922L30.7056 21.9987Z" fill="#660000"/>
<path opacity="0.5" d="M30.3608 30.5978L30.3608 21.9986C30.3608 21.7375 30.5725 21.5259 30.8335 21.5259L31.3363 21.5259C31.5973 21.5259 31.809 21.7375 31.809 21.9986L31.809 30.5978C31.809 30.8588 31.5973 31.0705 31.3363 31.0705L30.8335 31.0705C30.5725 31.0705 30.3608 30.8588 30.3608 30.5978Z" fill="url(#paint29_radial_580_8774)"/>
<path opacity="0.5" d="M30.3608 30.5978L30.3608 21.9986C30.3608 21.7375 30.5725 21.5259 30.8335 21.5259L31.3363 21.5259C31.5973 21.5259 31.809 21.7375 31.809 21.9986L31.809 30.5978C31.809 30.8588 31.5973 31.0705 31.3363 31.0705L30.8335 31.0705C30.5725 31.0705 30.3608 30.8588 30.3608 30.5978Z" fill="url(#paint30_linear_580_8774)"/>
<path d="M31.6888 30.4243L31.6888 22.1722C31.6888 21.9217 31.5032 21.7188 31.2743 21.7188L31.0854 21.7188C31.3144 21.7188 31.5 21.9218 31.5 22.1722L31.5 30.4243C31.5 30.6747 31.3144 30.8777 31.0854 30.8777L31.2743 30.8777C31.5032 30.8777 31.6888 30.6747 31.6888 30.4243Z" fill="url(#paint31_linear_580_8774)"/>
<path d="M30.4814 30.4243L30.4814 22.1722C30.4814 21.9217 30.6671 21.7188 30.896 21.7188L31.0848 21.7188C30.8559 21.7188 30.6703 21.9218 30.6703 22.1722L30.6703 30.4243C30.6703 30.6747 30.8559 30.8777 31.0848 30.8777L30.896 30.8777C30.6669 30.8777 30.4814 30.6747 30.4814 30.4243Z" fill="url(#paint32_linear_580_8774)"/>
<path opacity="0.4" d="M31.7281 21.7354L31.5862 21.8544C31.5379 21.8951 31.4454 21.9203 31.3449 21.9205L30.8252 21.921C30.7244 21.9211 30.6313 21.8958 30.5829 21.8549L30.4405 21.7354C30.4187 21.768 30.4024 21.8042 30.3892 21.8418L30.4853 21.9226C30.5363 21.9654 30.6339 21.9921 30.7399 21.9919L31.427 21.9914C31.5321 21.9912 31.6291 21.9649 31.6799 21.9224L31.779 21.8399C31.7659 21.803 31.7497 21.7673 31.7281 21.7354Z" fill="white"/>
<path opacity="0.4" d="M31.7281 30.8542L31.5862 30.7351C31.5379 30.6944 31.4454 30.6692 31.3449 30.6691L30.8252 30.6686C30.7244 30.6686 30.6313 30.6938 30.5829 30.7347L30.4405 30.8542C30.4187 30.8216 30.4024 30.7854 30.3892 30.7477L30.4853 30.667C30.5363 30.6242 30.6339 30.5975 30.7399 30.5977L31.427 30.5983C31.5321 30.5983 31.6291 30.6248 31.6799 30.6673L31.779 30.7498C31.7659 30.7867 31.7497 30.8222 31.7281 30.8542Z" fill="white"/>
<path opacity="0.4" d="M31.1194 22.2153L31.0498 22.2153L31.0498 30.3813L31.1194 30.3813L31.1194 22.2153Z" fill="black"/>
<path d="M5.36768 34.5005L5.36768 18.0969C5.36768 17.9007 5.5268 17.7417 5.72309 17.7417L29.1426 17.7417C29.3389 17.7417 29.498 17.9008 29.498 18.0969L29.498 34.5005C29.498 34.6968 29.3389 34.8559 29.1426 34.8559L5.72309 34.8559C5.5268 34.8559 5.36768 34.6968 5.36768 34.5005Z" fill="#1DCA96"/>
<path d="M5.6084 18.0968C5.6084 18.0338 5.65977 17.9824 5.72261 17.9824L29.1421 17.9824C29.2049 17.9824 29.2563 18.0338 29.2563 18.0968L29.2563 34.5002C29.2563 34.5632 29.2049 34.6145 29.1421 34.6145L5.72261 34.6145C5.65977 34.6145 5.6084 34.5631 5.6084 34.5002L5.6084 18.0968Z" fill="#F5F7EA"/>
<path d="M5.6084 18.0968C5.6084 18.0338 5.65977 17.9824 5.72261 17.9824L29.1421 17.9824C29.2049 17.9824 29.2563 18.0338 29.2563 18.0968L29.2563 34.5002C29.2563 34.5632 29.2049 34.6145 29.1421 34.6145L5.72261 34.6145C5.65977 34.6145 5.6084 34.5631 5.6084 34.5002L5.6084 18.0968Z" fill="url(#paint33_radial_580_8774)"/>
<path opacity="0.2" d="M5.6084 18.0968C5.6084 18.0338 5.65977 17.9824 5.72261 17.9824L29.1421 17.9824C29.2049 17.9824 29.2563 18.0338 29.2563 18.0968L29.2563 34.5002C29.2563 34.5632 29.2049 34.6145 29.1421 34.6145L5.72261 34.6145C5.65977 34.6145 5.6084 34.5631 5.6084 34.5002L5.6084 18.0968Z" fill="#1DCA96"/>
<path d="M5.24636 20.3684L5.36769 20.3684L5.36769 18.7109L5.24636 18.7109C5.11034 18.7109 5 18.8213 5 18.9575L5 20.1221C5 20.2581 5.11034 20.3684 5.24636 20.3684Z" fill="#1DCA96"/>
<path opacity="0.4" d="M5.32648 20.1816L5.32648 18.8975C5.16913 18.8975 5.0415 19.0251 5.0415 19.1824L5.0415 19.8966C5.0415 20.054 5.16913 20.1816 5.32648 20.1816Z" fill="#660000"/>
<path d="M5.3441 18.8125L5.3441 18.8204C5.19935 18.8522 5.09095 18.9808 5.09095 19.1351L5.09095 19.9437C5.09095 20.0979 5.19935 20.2265 5.3441 20.2584L5.3441 20.2663C5.16591 20.2663 5.02148 20.1218 5.02148 19.9437L5.02148 19.1351C5.02148 18.9569 5.16591 18.8125 5.3441 18.8125Z" fill="url(#paint34_linear_580_8774)"/>
<path opacity="0.6" d="M5.18905 19.8197C5.18808 19.6661 5.18711 19.5123 5.18598 19.3587C5.1855 19.2905 5.1792 19.2162 5.1926 19.1488C5.1981 19.1215 5.20876 19.0682 5.24478 19.0669C5.28016 19.0656 5.28566 19.108 5.28582 19.1346C5.28582 19.2107 5.29131 20.0776 5.27693 20.0776C5.24398 20.0772 5.21571 20.0509 5.20295 20.0204C5.19018 19.9898 5.18986 19.9559 5.18954 19.923C5.18954 19.8886 5.18921 19.8541 5.18905 19.8197Z" fill="url(#paint35_linear_580_8774)"/>
<path d="M5.24636 33.5486L5.36769 33.5486L5.36769 31.8911L5.24636 31.8911C5.11034 31.8911 5 32.0015 5 32.1375L5 33.3021C5 33.4381 5.11034 33.5486 5.24636 33.5486Z" fill="#1DCA96"/>
<path opacity="0.4" d="M5.32648 33.3616L5.32648 32.0776C5.16913 32.0776 5.0415 32.2053 5.0415 32.3626L5.0415 33.0768C5.0415 33.234 5.16913 33.3616 5.32648 33.3616Z" fill="#660000"/>
<path d="M5.34507 31.9932L5.34507 32.0011C5.20033 32.0329 5.09193 32.1615 5.09193 32.3158L5.09193 33.1243C5.09193 33.2786 5.20033 33.4072 5.34507 33.439L5.34507 33.4469C5.16689 33.4469 5.02246 33.3025 5.02246 33.1243L5.02246 32.3158C5.02246 32.1376 5.16689 31.9932 5.34507 31.9932Z" fill="url(#paint36_linear_580_8774)"/>
<path opacity="0.6" d="M5.18905 32.9999C5.18808 32.8463 5.18711 32.6925 5.18598 32.5389C5.1855 32.4707 5.1792 32.3964 5.1926 32.329C5.1981 32.3017 5.20876 32.2484 5.24478 32.2471C5.28016 32.2458 5.28566 32.2881 5.28582 32.3148C5.28582 32.3909 5.29131 33.2577 5.27693 33.2577C5.24398 33.2574 5.21571 33.2311 5.20295 33.2006C5.19018 33.17 5.18986 33.1361 5.18954 33.1031C5.18954 33.0686 5.18921 33.0342 5.18905 32.9999Z" fill="url(#paint37_linear_580_8774)"/>
<path d="M20.7579 25.0072L18.672 25.0072C18.5752 25.0072 18.4966 24.9288 18.4966 24.832L18.4966 22.746C18.4966 22.6492 18.4182 22.5708 18.3214 22.5708L16.5448 22.5708C16.448 22.5708 16.3694 22.6492 16.3694 22.746L16.3694 24.832C16.3694 24.9288 16.291 25.0072 16.1942 25.0072L14.1083 25.0072C14.0115 25.0072 13.9331 25.0855 13.9331 25.1826L13.9331 26.9593C13.9331 27.0561 14.0115 27.1345 14.1083 27.1345L16.1942 27.1345C16.291 27.1345 16.3694 27.2128 16.3694 27.3099L16.3694 29.3956C16.3694 29.4924 16.4477 29.5708 16.5448 29.5708L18.3214 29.5708C18.4182 29.5708 18.4966 29.4924 18.4966 29.3956L18.4966 27.3099C18.4966 27.2131 18.575 27.1345 18.672 27.1345L20.7579 27.1345C20.8547 27.1345 20.9331 27.0561 20.9331 26.9593L20.9331 25.1826C20.9331 25.0855 20.8547 25.0072 20.7579 25.0072Z" fill="#1DCA96"/>
<path d="M5.36768 31.4842L5.36768 20.7432L5.04506 20.7432L5.04506 31.4842L5.36768 31.4842Z" fill="#F5F7EA"/>
<path opacity="0.5" d="M5.04492 31.4837L5.04492 20.7427L5.36754 20.7427L5.36754 31.4837L5.04492 31.4837Z" fill="url(#paint38_linear_580_8774)"/>
<path opacity="0.5" d="M5.36768 26.1559L5.36768 26.0708L5.04506 26.0708L5.04506 26.1559L5.36768 26.1559Z" fill="#666666"/>
<path d="M5.15704 25.7921L5.15704 20.9839C5.15704 20.9256 5.10987 20.8784 5.05155 20.8784L5.04541 20.8784L5.04541 25.8976L5.05155 25.8976C5.10987 25.8976 5.15704 25.8504 5.15704 25.7921Z" fill="#AAD5F9"/>
<path d="M5.15704 25.7921L5.15704 20.9839C5.15704 20.9256 5.10987 20.8784 5.05155 20.8784L5.04541 20.8784L5.04541 20.8925C5.0782 20.9104 5.10131 20.9438 5.10131 20.9839L5.10131 25.7921C5.10131 25.832 5.0782 25.8656 5.04541 25.8835L5.04541 25.8976L5.05155 25.8976C5.10987 25.8976 5.15704 25.8504 5.15704 25.7921Z" fill="white"/>
<path d="M5.15655 31.2496L5.15655 26.4414C5.15655 26.3831 5.10938 26.3359 5.05106 26.3359L5.04492 26.3359L5.04492 31.3551L5.05106 31.3551C5.10938 31.3549 5.15655 31.3077 5.15655 31.2496Z" fill="#AAD5F9"/>
<path d="M5.15655 31.2496L5.15655 26.4414C5.15655 26.3831 5.10938 26.3359 5.05106 26.3359L5.04492 26.3359L5.04492 26.35C5.07772 26.3679 5.10082 26.4014 5.10082 26.4414L5.10082 31.2496C5.10082 31.2895 5.07772 31.3231 5.04492 31.341L5.04492 31.3551L5.05106 31.3551C5.10938 31.3549 5.15655 31.3077 5.15655 31.2496Z" fill="white"/>
<path d="M29.2563 34.8552L35.166 34.8552C35.3405 34.8552 35.5077 34.7859 35.6311 34.6627L36.2073 34.0864L29.2563 34.0864L29.2563 34.8552Z" fill="#CCCCCC"/>
<path d="M29.3774 34.7345L29.3774 34.2065L35.917 34.2065L35.5465 34.5771C35.4451 34.6786 35.3102 34.7345 35.1667 34.7345L29.3774 34.7345Z" fill="url(#paint39_linear_580_8774)"/>
<path opacity="0.5" d="M29.2563 34.8552L35.166 34.8552C35.3405 34.8552 35.5077 34.7859 35.6311 34.6627L36.2073 34.0864L29.2563 34.0864L29.2563 34.8552Z" fill="url(#paint40_linear_580_8774)"/>
<path opacity="0.4" d="M29.2563 34.8552L35.166 34.8552C35.3405 34.8552 35.5077 34.7859 35.6311 34.6627L36.2073 34.0864L29.2563 34.0864L29.2563 34.8552Z" fill="url(#paint41_linear_580_8774)"/>
<mask id="mask1_580_8774" style="mask-type:luminance" maskUnits="userSpaceOnUse" x="29" y="34" width="7" height="1">
<path d="M29.3774 34.7345L29.3774 34.2065L35.917 34.2065L35.5465 34.5771C35.4451 34.6786 35.3102 34.7345 35.1667 34.7345L29.3774 34.7345Z" fill="white"/>
</mask>
<g mask="url(#mask1_580_8774)">
<path d="M29.4287 34.3261C29.4543 34.3718 29.4588 34.418 29.4588 34.418C29.4588 34.418 29.4218 34.3901 29.3963 34.3444C29.3707 34.2986 29.3662 34.2524 29.3662 34.2524C29.3662 34.2524 29.4032 34.2804 29.4287 34.3261Z" fill="#999999"/>
<path d="M29.6377 34.6881C29.6632 34.7338 29.6678 34.7798 29.6678 34.7798C29.6678 34.7798 29.6308 34.7519 29.6052 34.7062C29.5797 34.6605 29.5752 34.6143 29.5752 34.6143C29.5752 34.6143 29.6122 34.6424 29.6377 34.6881Z" fill="#999999"/>
<path d="M29.5084 34.5008C29.5541 34.4752 29.6002 34.4707 29.6002 34.4707C29.6002 34.4707 29.5722 34.5077 29.5265 34.5332C29.4808 34.5587 29.4346 34.5633 29.4346 34.5633C29.4346 34.5633 29.4627 34.5263 29.5084 34.5008Z" fill="#999999"/>
<path d="M29.6362 34.2737C29.6819 34.2482 29.7281 34.2437 29.7281 34.2437C29.7281 34.2437 29.7001 34.2806 29.6544 34.3062C29.6087 34.3317 29.5625 34.3362 29.5625 34.3362C29.5625 34.3362 29.5904 34.2992 29.6362 34.2737Z" fill="#999999"/>
<path d="M29.8443 34.6354C29.8901 34.6098 29.9361 34.6055 29.9361 34.6055C29.9361 34.6055 29.9081 34.6425 29.8624 34.668C29.8167 34.6935 29.7705 34.6979 29.7705 34.6979C29.7705 34.6979 29.7986 34.6609 29.8443 34.6354Z" fill="#999999"/>
<path d="M29.7346 34.4811C29.7091 34.4354 29.7046 34.3892 29.7046 34.3892C29.7046 34.3892 29.7416 34.4171 29.7671 34.4628C29.7926 34.5085 29.7972 34.5546 29.7972 34.5546C29.7972 34.5546 29.7602 34.5266 29.7346 34.4811Z" fill="#999999"/>
<path d="M29.9155 34.2026C29.9411 34.2483 29.9454 34.2945 29.9454 34.2945C29.9454 34.2945 29.9084 34.2665 29.8829 34.2208C29.8574 34.1751 29.853 34.1289 29.853 34.1289C29.853 34.1289 29.89 34.1569 29.9155 34.2026Z" fill="#999999"/>
<path d="M30.1236 34.5644C30.1491 34.6101 30.1534 34.6563 30.1534 34.6563C30.1534 34.6563 30.1164 34.6284 30.0909 34.5826C30.0654 34.5369 30.061 34.4907 30.061 34.4907C30.061 34.4907 30.098 34.5187 30.1236 34.5644Z" fill="#999999"/>
<path d="M29.9959 34.3772C30.0416 34.3517 30.0878 34.3472 30.0878 34.3472C30.0878 34.3472 30.0598 34.3842 30.0141 34.4097C29.9684 34.4352 29.9224 34.4397 29.9224 34.4397C29.9224 34.4397 29.9501 34.4027 29.9959 34.3772Z" fill="#999999"/>
<path d="M30.123 34.1502C30.1687 34.1246 30.2149 34.1201 30.2149 34.1201C30.2149 34.1201 30.187 34.1571 30.1412 34.1826C30.0955 34.2082 30.0493 34.2127 30.0493 34.2127C30.0493 34.2127 30.0773 34.1757 30.123 34.1502Z" fill="#999999"/>
<path d="M30.3308 34.512C30.3766 34.4865 30.4228 34.4819 30.4228 34.4819C30.4228 34.4819 30.3948 34.5189 30.3491 34.5445C30.3034 34.57 30.2573 34.5743 30.2573 34.5743C30.2573 34.5743 30.2851 34.5375 30.3308 34.512Z" fill="#999999"/>
<path d="M30.2213 34.3575C30.1958 34.3118 30.1914 34.2656 30.1914 34.2656C30.1914 34.2656 30.2284 34.2936 30.2539 34.3393C30.2794 34.385 30.2838 34.4312 30.2838 34.4312C30.2838 34.4312 30.2468 34.4033 30.2213 34.3575Z" fill="#999999"/>
<path d="M30.4065 34.7062C30.381 34.6605 30.3765 34.6143 30.3765 34.6143C30.3765 34.6143 30.4135 34.6422 30.439 34.6879C30.4645 34.7336 30.469 34.7797 30.469 34.7797C30.469 34.7797 30.432 34.7519 30.4065 34.7062Z" fill="#999999"/>
<path d="M30.4479 34.2394C30.4936 34.2138 30.5396 34.2095 30.5396 34.2095C30.5396 34.2095 30.5117 34.2465 30.4659 34.272C30.4202 34.2975 30.374 34.302 30.374 34.302C30.374 34.302 30.4021 34.265 30.4479 34.2394Z" fill="#999999"/>
<path d="M30.6557 34.6012C30.7014 34.5757 30.7476 34.5713 30.7476 34.5713C30.7476 34.5713 30.7197 34.6083 30.674 34.6338C30.6282 34.6593 30.582 34.6637 30.582 34.6637C30.582 34.6637 30.61 34.6267 30.6557 34.6012Z" fill="#999999"/>
<path d="M30.5455 34.4459C30.52 34.4002 30.5156 34.354 30.5156 34.354C30.5156 34.354 30.5526 34.382 30.5781 34.4277C30.6037 34.4734 30.608 34.5196 30.608 34.5196C30.608 34.5196 30.571 34.4916 30.5455 34.4459Z" fill="#999999"/>
<path d="M30.7274 34.169C30.7529 34.2148 30.7574 34.2608 30.7574 34.2608C30.7574 34.2608 30.7205 34.2329 30.6949 34.1871C30.6694 34.1414 30.665 34.0952 30.665 34.0952C30.665 34.0952 30.7019 34.1233 30.7274 34.169Z" fill="#999999"/>
<path d="M30.9351 34.5309C30.9606 34.5766 30.9651 34.6226 30.9651 34.6226C30.9651 34.6226 30.9281 34.5947 30.9026 34.549C30.8771 34.5032 30.8726 34.457 30.8726 34.457C30.8726 34.457 30.9096 34.4851 30.9351 34.5309Z" fill="#999999"/>
<path d="M30.8071 34.344C30.8528 34.3185 30.899 34.314 30.899 34.314C30.899 34.314 30.871 34.351 30.8253 34.3765C30.7796 34.402 30.7334 34.4065 30.7334 34.4065C30.7334 34.4065 30.7613 34.3695 30.8071 34.344Z" fill="#999999"/>
<path d="M31.143 34.4781C31.1887 34.4526 31.2349 34.4482 31.2349 34.4482C31.2349 34.4482 31.207 34.4852 31.1613 34.5108C31.1155 34.5363 31.0693 34.5406 31.0693 34.5406C31.0693 34.5406 31.0973 34.5038 31.143 34.4781Z" fill="#999999"/>
<path d="M31.0335 34.3234C31.0079 34.2776 31.0034 34.2314 31.0034 34.2314C31.0034 34.2314 31.0404 34.2594 31.0659 34.3051C31.0915 34.3508 31.096 34.397 31.096 34.397C31.096 34.397 31.059 34.3691 31.0335 34.3234Z" fill="#999999"/>
<path d="M31.2185 34.6725C31.193 34.6268 31.1885 34.5806 31.1885 34.5806C31.1885 34.5806 31.2255 34.6085 31.251 34.6542C31.2765 34.6999 31.2809 34.7462 31.2809 34.7462C31.2809 34.7462 31.244 34.7182 31.2185 34.6725Z" fill="#999999"/>
<path d="M31.2626 34.2389C31.3083 34.2133 31.3546 34.209 31.3546 34.209C31.3546 34.209 31.3266 34.246 31.2809 34.2715C31.2352 34.297 31.189 34.3016 31.189 34.3016C31.189 34.3016 31.2169 34.2646 31.2626 34.2389Z" fill="#999999"/>
<path d="M31.4708 34.6007C31.5165 34.5752 31.5626 34.5708 31.5626 34.5708C31.5626 34.5708 31.5346 34.6078 31.4889 34.6333C31.4432 34.6588 31.397 34.6632 31.397 34.6632C31.397 34.6632 31.4251 34.6262 31.4708 34.6007Z" fill="#999999"/>
<path d="M31.3609 34.4454C31.3354 34.3997 31.3311 34.3535 31.3311 34.3535C31.3311 34.3535 31.368 34.3815 31.3936 34.4272C31.4191 34.4729 31.4235 34.5191 31.4235 34.5191C31.4235 34.5191 31.3865 34.4912 31.3609 34.4454Z" fill="#999999"/>
<path d="M31.5427 34.1686C31.5682 34.2143 31.5725 34.2603 31.5725 34.2603C31.5725 34.2603 31.5356 34.2324 31.51 34.1866C31.4845 34.1409 31.48 34.0947 31.48 34.0947C31.48 34.0947 31.5171 34.1228 31.5427 34.1686Z" fill="#999999"/>
<path d="M31.7505 34.5299C31.776 34.5756 31.7806 34.6216 31.7806 34.6216C31.7806 34.6216 31.7436 34.5937 31.718 34.548C31.6925 34.5023 31.688 34.4561 31.688 34.4561C31.688 34.4561 31.725 34.4842 31.7505 34.5299Z" fill="#999999"/>
<path d="M31.6225 34.343C31.6682 34.3175 31.7144 34.313 31.7144 34.313C31.7144 34.313 31.6865 34.35 31.6407 34.3755C31.595 34.401 31.5488 34.4056 31.5488 34.4056C31.5488 34.4056 31.5768 34.3686 31.6225 34.343Z" fill="#999999"/>
<path d="M31.9583 34.4776C32.004 34.4521 32.0502 34.4478 32.0502 34.4478C32.0502 34.4478 32.0222 34.4847 31.9765 34.5103C31.9308 34.5358 31.8848 34.5402 31.8848 34.5402C31.8848 34.5402 31.9125 34.5033 31.9583 34.4776Z" fill="#999999"/>
<path d="M31.8484 34.3234C31.8229 34.2776 31.8184 34.2314 31.8184 34.2314C31.8184 34.2314 31.8554 34.2594 31.8809 34.3051C31.9064 34.3508 31.9109 34.397 31.9109 34.397C31.9109 34.397 31.8739 34.3691 31.8484 34.3234Z" fill="#999999"/>
<path d="M32.0338 34.672C32.0083 34.6263 32.0039 34.5801 32.0039 34.5801C32.0039 34.5801 32.0409 34.608 32.0664 34.6537C32.0919 34.6995 32.0963 34.7457 32.0963 34.7457C32.0963 34.7457 32.0593 34.7177 32.0338 34.672Z" fill="#999999"/>
<path d="M32.0769 34.2394C32.1226 34.2138 32.1688 34.2095 32.1688 34.2095C32.1688 34.2095 32.1409 34.2465 32.0952 34.272C32.0495 34.2975 32.0034 34.302 32.0034 34.302C32.0034 34.302 32.0312 34.265 32.0769 34.2394Z" fill="#999999"/>
<path d="M32.2851 34.6012C32.3308 34.5757 32.377 34.5713 32.377 34.5713C32.377 34.5713 32.3491 34.6083 32.3033 34.6338C32.2576 34.6593 32.2114 34.6637 32.2114 34.6637C32.2114 34.6637 32.2394 34.6267 32.2851 34.6012Z" fill="#999999"/>
<path d="M32.1756 34.4464C32.15 34.4007 32.1455 34.3545 32.1455 34.3545C32.1455 34.3545 32.1825 34.3824 32.208 34.4282C32.2336 34.4739 32.2379 34.5201 32.2379 34.5201C32.2379 34.5201 32.2011 34.4921 32.1756 34.4464Z" fill="#999999"/>
<path d="M32.3565 34.169C32.382 34.2148 32.3864 34.2608 32.3864 34.2608C32.3864 34.2608 32.3494 34.2329 32.3238 34.1871C32.2983 34.1414 32.2939 34.0952 32.2939 34.0952C32.2939 34.0952 32.3309 34.1233 32.3565 34.169Z" fill="#999999"/>
<path d="M32.5646 34.5309C32.5902 34.5766 32.5945 34.6226 32.5945 34.6226C32.5945 34.6226 32.5575 34.5947 32.532 34.549C32.5065 34.5032 32.502 34.457 32.502 34.457C32.502 34.457 32.5391 34.4851 32.5646 34.5309Z" fill="#999999"/>
<path d="M32.4361 34.344C32.4819 34.3185 32.5279 34.314 32.5279 34.314C32.5279 34.314 32.4999 34.351 32.4542 34.3765C32.4085 34.402 32.3623 34.4065 32.3623 34.4065C32.3623 34.4065 32.3904 34.3695 32.4361 34.344Z" fill="#999999"/>
<path d="M32.7729 34.4776C32.8186 34.4521 32.8648 34.4478 32.8648 34.4478C32.8648 34.4478 32.8369 34.4847 32.7911 34.5103C32.7454 34.5358 32.6992 34.5402 32.6992 34.5402C32.6992 34.5402 32.7272 34.5033 32.7729 34.4776Z" fill="#999999"/>
<path d="M32.6629 34.3234C32.6373 34.2776 32.6328 34.2314 32.6328 34.2314C32.6328 34.2314 32.6698 34.2594 32.6953 34.3051C32.7209 34.3508 32.7254 34.397 32.7254 34.397C32.7254 34.397 32.6884 34.3691 32.6629 34.3234Z" fill="#999999"/>
<path d="M32.8482 34.672C32.8227 34.6263 32.8184 34.5801 32.8184 34.5801C32.8184 34.5801 32.8554 34.608 32.8809 34.6537C32.9064 34.6995 32.9108 34.7457 32.9108 34.7457C32.9108 34.7457 32.8739 34.7177 32.8482 34.672Z" fill="#999999"/>
<path d="M32.8915 34.2389C32.9373 34.2133 32.9835 34.209 32.9835 34.209C32.9835 34.209 32.9555 34.246 32.9098 34.2715C32.8641 34.297 32.8179 34.3016 32.8179 34.3016C32.8179 34.3016 32.8458 34.2646 32.8915 34.2389Z" fill="#999999"/>
<path d="M33.0994 34.6007C33.1451 34.5752 33.1913 34.5708 33.1913 34.5708C33.1913 34.5708 33.1634 34.6078 33.1176 34.6333C33.0719 34.6588 33.0259 34.6632 33.0259 34.6632C33.0259 34.6632 33.0537 34.6262 33.0994 34.6007Z" fill="#999999"/>
<path d="M32.9895 34.4454C32.964 34.3997 32.9595 34.3535 32.9595 34.3535C32.9595 34.3535 32.9965 34.3815 33.022 34.4272C33.0475 34.4729 33.0519 34.5191 33.0519 34.5191C33.0519 34.5191 33.015 34.4912 32.9895 34.4454Z" fill="#999999"/>
<path d="M33.1709 34.1686C33.1964 34.2143 33.2008 34.2603 33.2008 34.2603C33.2008 34.2603 33.1638 34.2324 33.1383 34.1866C33.1128 34.1409 33.1084 34.0947 33.1084 34.0947C33.1084 34.0947 33.1454 34.1228 33.1709 34.1686Z" fill="#999999"/>
<path d="M33.3784 34.5304C33.404 34.5761 33.4083 34.6221 33.4083 34.6221C33.4083 34.6221 33.3713 34.5942 33.3458 34.5485C33.3203 34.5027 33.3159 34.4565 33.3159 34.4565C33.3159 34.4565 33.3529 34.4846 33.3784 34.5304Z" fill="#999999"/>
<path d="M33.2509 34.3435C33.2966 34.318 33.3428 34.3135 33.3428 34.3135C33.3428 34.3135 33.3149 34.3505 33.2692 34.376C33.2234 34.4015 33.1772 34.406 33.1772 34.406C33.1772 34.406 33.2052 34.369 33.2509 34.3435Z" fill="#999999"/>
<path d="M33.5864 34.4776C33.6321 34.4521 33.6783 34.4478 33.6783 34.4478C33.6783 34.4478 33.6503 34.4847 33.6046 34.5103C33.5589 34.5358 33.5127 34.5402 33.5127 34.5402C33.5127 34.5402 33.5406 34.5033 33.5864 34.4776Z" fill="#999999"/>
<path d="M33.4752 34.3234C33.4497 34.2776 33.4453 34.2314 33.4453 34.2314C33.4453 34.2314 33.4823 34.2594 33.5078 34.3051C33.5334 34.3508 33.5377 34.397 33.5377 34.397C33.5377 34.397 33.5007 34.3691 33.4752 34.3234Z" fill="#999999"/>
<path d="M33.6617 34.672C33.6362 34.6263 33.6318 34.5801 33.6318 34.5801C33.6318 34.5801 33.6688 34.608 33.6944 34.6537C33.7199 34.6995 33.7242 34.7457 33.7242 34.7457C33.7242 34.7457 33.6874 34.7177 33.6617 34.672Z" fill="#999999"/>
<path d="M33.706 34.2394C33.7517 34.2138 33.7979 34.2095 33.7979 34.2095C33.7979 34.2095 33.77 34.2465 33.7242 34.272C33.6785 34.2975 33.6323 34.302 33.6323 34.302C33.6323 34.302 33.6603 34.265 33.706 34.2394Z" fill="#999999"/>
<path d="M33.914 34.6012C33.9597 34.5757 34.0059 34.5713 34.0059 34.5713C34.0059 34.5713 33.978 34.6083 33.9323 34.6338C33.8865 34.6593 33.8403 34.6637 33.8403 34.6637C33.8403 34.6637 33.8683 34.6267 33.914 34.6012Z" fill="#999999"/>
<path d="M33.8045 34.4459C33.7789 34.4002 33.7744 34.354 33.7744 34.354C33.7744 34.354 33.8114 34.382 33.8369 34.4277C33.8625 34.4734 33.867 34.5196 33.867 34.5196C33.867 34.5196 33.83 34.4916 33.8045 34.4459Z" fill="#999999"/>
<path d="M33.9852 34.169C34.0107 34.2148 34.0153 34.2608 34.0153 34.2608C34.0153 34.2608 33.9783 34.2329 33.9527 34.1871C33.9272 34.1414 33.9229 34.0952 33.9229 34.0952C33.9229 34.0952 33.9597 34.1233 33.9852 34.169Z" fill="#999999"/>
<path d="M34.1929 34.5309C34.2184 34.5766 34.2228 34.6226 34.2228 34.6226C34.2228 34.6226 34.1858 34.5947 34.1603 34.549C34.1347 34.5032 34.1304 34.457 34.1304 34.457C34.1304 34.457 34.1674 34.4851 34.1929 34.5309Z" fill="#999999"/>
<path d="M34.0652 34.344C34.1109 34.3185 34.1571 34.314 34.1571 34.314C34.1571 34.314 34.1292 34.351 34.0835 34.3765C34.0377 34.402 33.9917 34.4065 33.9917 34.4065C33.9917 34.4065 34.0195 34.3695 34.0652 34.344Z" fill="#999999"/>
<path d="M34.4018 34.4776C34.4475 34.4521 34.4937 34.4478 34.4937 34.4478C34.4937 34.4478 34.4658 34.4847 34.42 34.5103C34.3743 34.5358 34.3281 34.5402 34.3281 34.5402C34.3281 34.5402 34.3561 34.5033 34.4018 34.4776Z" fill="#999999"/>
<path d="M34.2911 34.3239C34.2656 34.2781 34.2612 34.2319 34.2612 34.2319C34.2612 34.2319 34.2982 34.2599 34.3237 34.3056C34.3493 34.3513 34.3538 34.3975 34.3538 34.3975C34.3538 34.3975 34.3166 34.3696 34.2911 34.3239Z" fill="#999999"/>
<path d="M34.4773 34.672C34.4518 34.6263 34.4473 34.5801 34.4473 34.5801C34.4473 34.5801 34.4843 34.608 34.5098 34.6537C34.5353 34.6995 34.5398 34.7457 34.5398 34.7457C34.5398 34.7457 34.5028 34.7177 34.4773 34.672Z" fill="#999999"/>
<path d="M34.5201 34.2389C34.5658 34.2133 34.6119 34.209 34.6119 34.209C34.6119 34.209 34.5839 34.246 34.5382 34.2715C34.4925 34.297 34.4463 34.3016 34.4463 34.3016C34.4463 34.3016 34.4744 34.2646 34.5201 34.2389Z" fill="#999999"/>
<path d="M34.728 34.6007C34.7737 34.5752 34.8199 34.5708 34.8199 34.5708C34.8199 34.5708 34.7919 34.6078 34.7462 34.6333C34.7005 34.6588 34.6543 34.6632 34.6543 34.6632C34.6543 34.6632 34.6824 34.6262 34.728 34.6007Z" fill="#999999"/>
<path d="M34.6179 34.4454C34.5924 34.3997 34.5879 34.3535 34.5879 34.3535C34.5879 34.3535 34.6249 34.3815 34.6504 34.4272C34.6759 34.4729 34.6803 34.5191 34.6803 34.5191C34.6803 34.5191 34.6435 34.4912 34.6179 34.4454Z" fill="#999999"/>
<path d="M34.7995 34.1686C34.825 34.2143 34.8294 34.2603 34.8294 34.2603C34.8294 34.2603 34.7924 34.2324 34.7669 34.1866C34.7413 34.1409 34.7368 34.0947 34.7368 34.0947C34.7368 34.0947 34.774 34.1228 34.7995 34.1686Z" fill="#999999"/>
<path d="M35.0072 34.5304C35.0327 34.5761 35.0372 34.6221 35.0372 34.6221C35.0372 34.6221 35.0002 34.5942 34.9747 34.5485C34.9492 34.5027 34.9448 34.4565 34.9448 34.4565C34.9448 34.4565 34.9817 34.4846 35.0072 34.5304Z" fill="#999999"/>
<path d="M34.879 34.3435C34.9247 34.318 34.9708 34.3135 34.9708 34.3135C34.9708 34.3135 34.9428 34.3505 34.8971 34.376C34.8514 34.4015 34.8052 34.406 34.8052 34.406C34.8052 34.406 34.8333 34.369 34.879 34.3435Z" fill="#999999"/>
<path d="M35.2154 34.4776C35.2611 34.4521 35.3072 34.4478 35.3072 34.4478C35.3072 34.4478 35.2792 34.4847 35.2335 34.5103C35.1878 34.5358 35.1416 34.5402 35.1416 34.5402C35.1416 34.5402 35.1697 34.5033 35.2154 34.4776Z" fill="#999999"/>
<path d="M35.1051 34.3234C35.0796 34.2776 35.0752 34.2314 35.0752 34.2314C35.0752 34.2314 35.1122 34.2594 35.1377 34.3051C35.1632 34.3508 35.1676 34.397 35.1676 34.397C35.1676 34.397 35.1306 34.3691 35.1051 34.3234Z" fill="#999999"/>
<path d="M35.2908 34.672C35.2653 34.6263 35.2607 34.5801 35.2607 34.5801C35.2607 34.5801 35.2977 34.608 35.3233 34.6537C35.3488 34.6995 35.3533 34.7457 35.3533 34.7457C35.3533 34.7457 35.3163 34.7177 35.2908 34.672Z" fill="#999999"/>
<path d="M35.3349 34.2394C35.3806 34.2138 35.4268 34.2095 35.4268 34.2095C35.4268 34.2095 35.3989 34.2465 35.3532 34.272C35.3074 34.2975 35.2612 34.302 35.2612 34.302C35.2612 34.302 35.2892 34.265 35.3349 34.2394Z" fill="#999999"/>
<path d="M35.5429 34.6012C35.5886 34.5757 35.6348 34.5713 35.6348 34.5713C35.6348 34.5713 35.6069 34.6083 35.5612 34.6338C35.5154 34.6593 35.4692 34.6637 35.4692 34.6637C35.4692 34.6637 35.4974 34.6267 35.5429 34.6012Z" fill="#999999"/>
<path d="M35.4332 34.4459C35.4077 34.4002 35.4033 34.354 35.4033 34.354C35.4033 34.354 35.4403 34.382 35.4658 34.4277C35.4914 34.4734 35.4959 34.5196 35.4959 34.5196C35.4959 34.5196 35.4587 34.4916 35.4332 34.4459Z" fill="#999999"/>
<path d="M35.6148 34.169C35.6403 34.2148 35.6448 34.2608 35.6448 34.2608C35.6448 34.2608 35.6078 34.2329 35.5823 34.1871C35.5568 34.1414 35.5522 34.0952 35.5522 34.0952C35.5522 34.0952 35.5892 34.1233 35.6148 34.169Z" fill="#999999"/>
<path d="M35.8223 34.5304C35.8478 34.5761 35.8523 34.6221 35.8523 34.6221C35.8523 34.6221 35.8153 34.5942 35.7898 34.5485C35.7643 34.5027 35.7598 34.4565 35.7598 34.4565C35.7598 34.4565 35.7968 34.4846 35.8223 34.5304Z" fill="#999999"/>
<path d="M35.6948 34.344C35.7405 34.3185 35.7867 34.314 35.7867 34.314C35.7867 34.314 35.7587 34.351 35.713 34.3765C35.6673 34.402 35.6211 34.4065 35.6211 34.4065C35.6211 34.4065 35.649 34.3695 35.6948 34.344Z" fill="#999999"/>
<path d="M35.9207 34.3234C35.8951 34.2776 35.8906 34.2314 35.8906 34.2314C35.8906 34.2314 35.9276 34.2594 35.9531 34.3051C35.9787 34.3508 35.9832 34.397 35.9832 34.397C35.9832 34.397 35.9462 34.3691 35.9207 34.3234Z" fill="#999999"/>
</g>
<defs>
<linearGradient id="paint0_linear_580_8774" x1="28.2048" y1="18.0997" x2="45.2324" y2="18.4211" gradientUnits="userSpaceOnUse">
<stop stop-color="#C7C5C5"/>
<stop offset="0.0359" stop-color="#676767"/>
<stop offset="0.1123" stop-color="white"/>
<stop offset="0.3019" stop-color="#929292"/>
<stop offset="0.492" stop-color="white"/>
<stop offset="0.6257" stop-color="#676767"/>
<stop offset="0.7701" stop-color="#929292"/>
<stop offset="0.8233" stop-color="#C7C5C5"/>
<stop offset="1" stop-color="#343433"/>
</linearGradient>
<linearGradient id="paint1_linear_580_8774" x1="32.7319" y1="18.5567" x2="32.7319" y2="18.4061" gradientUnits="userSpaceOnUse">
<stop offset="0.0051"/>
<stop offset="1" stop-opacity="0"/>
</linearGradient>
<linearGradient id="paint2_linear_580_8774" x1="29.2564" y1="18.1765" x2="29.7855" y2="18.1765" gradientUnits="userSpaceOnUse">
<stop offset="0.0051"/>
<stop offset="1" stop-opacity="0"/>
</linearGradient>
<linearGradient id="paint3_linear_580_8774" x1="44.5915" y1="20.4793" x2="44.6142" y2="20.9947" gradientUnits="userSpaceOnUse">
<stop stop-color="#C7C5C5"/>
<stop offset="0.0359" stop-color="#676767"/>
<stop offset="0.1123" stop-color="white"/>
<stop offset="0.3019" stop-color="#929292"/>
<stop offset="0.492" stop-color="white"/>
<stop offset="0.6809" stop-color="#676767"/>
<stop offset="0.7701" stop-color="#929292"/>
<stop offset="0.8233" stop-color="#C7C5C5"/>
<stop offset="1" stop-color="#343433"/>
</linearGradient>
<linearGradient id="paint4_linear_580_8774" x1="44.5916" y1="21.8553" x2="44.6142" y2="21.343" gradientUnits="userSpaceOnUse">
<stop stop-color="#C7C5C5"/>
<stop offset="0.0359" stop-color="#676767"/>
<stop offset="0.1123" stop-color="white"/>
<stop offset="0.3019" stop-color="#929292"/>
<stop offset="0.492" stop-color="white"/>
<stop offset="0.6809" stop-color="#676767"/>
<stop offset="0.7701" stop-color="#929292"/>
<stop offset="0.8233" stop-color="#C7C5C5"/>
<stop offset="1" stop-color="#343433"/>
</linearGradient>
<linearGradient id="paint5_linear_580_8774" x1="44.4504" y1="20.3688" x2="44.4504" y2="22.8609" gradientUnits="userSpaceOnUse">
<stop stop-color="#C7C5C5"/>
<stop offset="0.0359" stop-color="#676767"/>
<stop offset="0.1123" stop-color="white"/>
<stop offset="0.3019" stop-color="#929292"/>
<stop offset="0.492" stop-color="white"/>
<stop offset="0.6257" stop-color="#676767"/>
<stop offset="0.7701" stop-color="#929292"/>
<stop offset="0.8233" stop-color="#C7C5C5"/>
<stop offset="1" stop-color="#343433"/>
</linearGradient>
<linearGradient id="paint6_linear_580_8774" x1="44.5915" y1="30.7386" x2="44.6142" y2="31.254" gradientUnits="userSpaceOnUse">
<stop stop-color="#C7C5C5"/>
<stop offset="0.0359" stop-color="#676767"/>
<stop offset="0.1123" stop-color="white"/>
<stop offset="0.3019" stop-color="#929292"/>
<stop offset="0.492" stop-color="white"/>
<stop offset="0.6809" stop-color="#676767"/>
<stop offset="0.7701" stop-color="#929292"/>
<stop offset="0.8233" stop-color="#C7C5C5"/>
<stop offset="1" stop-color="#343433"/>
</linearGradient>
<linearGradient id="paint7_linear_580_8774" x1="44.5916" y1="32.1146" x2="44.6142" y2="31.6023" gradientUnits="userSpaceOnUse">
<stop stop-color="#C7C5C5"/>
<stop offset="0.0359" stop-color="#676767"/>
<stop offset="0.1123" stop-color="white"/>
<stop offset="0.3019" stop-color="#929292"/>
<stop offset="0.492" stop-color="white"/>
<stop offset="0.6809" stop-color="#676767"/>
<stop offset="0.7701" stop-color="#929292"/>
<stop offset="0.8233" stop-color="#C7C5C5"/>
<stop offset="1" stop-color="#343433"/>
</linearGradient>
<linearGradient id="paint8_linear_580_8774" x1="44.4504" y1="30.6281" x2="44.4504" y2="33.1203" gradientUnits="userSpaceOnUse">
<stop stop-color="#C7C5C5"/>
<stop offset="0.0359" stop-color="#676767"/>
<stop offset="0.1123" stop-color="white"/>
<stop offset="0.3019" stop-color="#929292"/>
<stop offset="0.492" stop-color="white"/>
<stop offset="0.6257" stop-color="#676767"/>
<stop offset="0.7701" stop-color="#929292"/>
<stop offset="0.8233" stop-color="#C7C5C5"/>
<stop offset="1" stop-color="#343433"/>
</linearGradient>
<linearGradient id="paint9_linear_580_8774" x1="43.3481" y1="17.6105" x2="43.2275" y2="42.6244" gradientUnits="userSpaceOnUse">
<stop stop-color="#C7C5C5"/>
<stop offset="0.0359" stop-color="#676767"/>
<stop offset="0.1123" stop-color="white"/>
<stop offset="0.3019" stop-color="#929292"/>
<stop offset="0.492" stop-color="white"/>
<stop offset="0.6257" stop-color="#676767"/>
<stop offset="0.7701" stop-color="#929292"/>
<stop offset="0.8233" stop-color="#C7C5C5"/>
<stop offset="1" stop-color="#343433"/>
</linearGradient>
<linearGradient id="paint10_linear_580_8774" x1="43.3481" y1="17.6105" x2="43.2275" y2="42.6244" gradientUnits="userSpaceOnUse">
<stop stop-color="#C7C5C5"/>
<stop offset="0.0359" stop-color="#676767"/>
<stop offset="0.1123" stop-color="white"/>
<stop offset="0.3019" stop-color="#929292"/>
<stop offset="0.492" stop-color="white"/>
<stop offset="0.6257" stop-color="#676767"/>
<stop offset="0.7701" stop-color="#929292"/>
<stop offset="0.8233" stop-color="#C7C5C5"/>
<stop offset="1" stop-color="#343433"/>
</linearGradient>
<radialGradient id="paint11_radial_580_8774" cx="0" cy="0" r="1" gradientUnits="userSpaceOnUse" gradientTransform="translate(37.1727 16.6235) rotate(90) scale(18.0444 18.0446)">
<stop offset="0.0102"/>
<stop offset="1" stop-opacity="0"/>
</radialGradient>
<linearGradient id="paint12_linear_580_8774" x1="36.6372" y1="18.9926" x2="36.6372" y2="33.6039" gradientUnits="userSpaceOnUse">
<stop offset="0.3386" stop-color="white" stop-opacity="0"/>
<stop offset="0.6521" stop-color="white"/>
</linearGradient>
<linearGradient id="paint13_linear_580_8774" x1="38.5935" y1="22.4914" x2="38.6308" y2="21.9927" gradientUnits="userSpaceOnUse">
<stop offset="0.0051"/>
<stop offset="1" stop-opacity="0"/>
</linearGradient>
<linearGradient id="paint14_linear_580_8774" x1="38.5935" y1="30.0983" x2="38.6309" y2="30.597" gradientUnits="userSpaceOnUse">
<stop offset="0.0051" stop-color="#999999"/>
<stop offset="1" stop-color="#999999" stop-opacity="0"/>
</linearGradient>
<linearGradient id="paint15_linear_580_8774" x1="38.9589" y1="26.2988" x2="38.5289" y2="26.2988" gradientUnits="userSpaceOnUse">
<stop offset="0.0051"/>
<stop offset="1" stop-opacity="0"/>
</linearGradient>
<radialGradient id="paint16_radial_580_8774" cx="0" cy="0" r="1" gradientUnits="userSpaceOnUse" gradientTransform="translate(35.9804 19.4672) rotate(90) scale(11.9321 11.9322)">
<stop stop-color="white" stop-opacity="0"/>
<stop offset="1" stop-color="white"/>
</radialGradient>
<radialGradient id="paint17_radial_580_8774" cx="0" cy="0" r="1" gradientUnits="userSpaceOnUse" gradientTransform="translate(35.2995 20.8396) rotate(90) scale(11.4863 11.4864)">
<stop offset="0.0102"/>
<stop offset="1" stop-opacity="0"/>
</radialGradient>
<linearGradient id="paint18_linear_580_8774" x1="33.7007" y1="18.8371" x2="33.7007" y2="18.8956" gradientUnits="userSpaceOnUse">
<stop offset="0.0051"/>
<stop offset="1" stop-opacity="0"/>
</linearGradient>
<linearGradient id="paint19_linear_580_8774" x1="33.5948" y1="18.9547" x2="33.5948" y2="19.1956" gradientUnits="userSpaceOnUse">
<stop stop-color="white"/>
<stop offset="1" stop-color="white" stop-opacity="0"/>
</linearGradient>
<linearGradient id="paint20_linear_580_8774" x1="33.5948" y1="19.3562" x2="33.5948" y2="19.6815" gradientUnits="userSpaceOnUse">
<stop stop-opacity="0"/>
<stop offset="0.9898"/>
</linearGradient>
<linearGradient id="paint21_linear_580_8774" x1="33.7017" y1="33.8004" x2="33.7017" y2="33.742" gradientUnits="userSpaceOnUse">
<stop offset="0.0051"/>
<stop offset="1" stop-opacity="0"/>
</linearGradient>
<linearGradient id="paint22_linear_580_8774" x1="33.5958" y1="33.6828" x2="33.5958" y2="33.4419" gradientUnits="userSpaceOnUse">
<stop stop-color="white"/>
<stop offset="1" stop-color="white" stop-opacity="0"/>
</linearGradient>
<linearGradient id="paint23_linear_580_8774" x1="33.5958" y1="33.2813" x2="33.5958" y2="32.956" gradientUnits="userSpaceOnUse">
<stop stop-opacity="0"/>
<stop offset="0.9898"/>
</linearGradient>
<linearGradient id="paint24_linear_580_8774" x1="36.8177" y1="18.0901" x2="36.6934" y2="18.1353" gradientUnits="userSpaceOnUse">
<stop stop-color="white"/>
<stop offset="1" stop-color="white" stop-opacity="0"/>
</linearGradient>
<linearGradient id="paint25_linear_580_8774" x1="36.6361" y1="18.5441" x2="36.1803" y2="17.7304" gradientUnits="userSpaceOnUse">
<stop offset="0.0051"/>
<stop offset="1" stop-opacity="0"/>
</linearGradient>
<linearGradient id="paint26_linear_580_8774" x1="36.8177" y1="34.5624" x2="36.6934" y2="34.5171" gradientUnits="userSpaceOnUse">
<stop stop-color="white"/>
<stop offset="1" stop-color="white" stop-opacity="0"/>
</linearGradient>
<linearGradient id="paint27_linear_580_8774" x1="36.6361" y1="34.1084" x2="36.1803" y2="34.9221" gradientUnits="userSpaceOnUse">
<stop offset="0.0051"/>
<stop offset="1" stop-opacity="0"/>
</linearGradient>
<linearGradient id="paint28_linear_580_8774" x1="30.0919" y1="26.2175" x2="30.469" y2="26.2175" gradientUnits="userSpaceOnUse">
<stop stop-opacity="0"/>
<stop offset="0.9898"/>
</linearGradient>
<radialGradient id="paint29_radial_580_8774" cx="0" cy="0" r="1" gradientUnits="userSpaceOnUse" gradientTransform="translate(31.0849 26.2982) rotate(90) scale(3.41311 3.41313)">
<stop stop-color="white" stop-opacity="0"/>
<stop offset="1" stop-color="white"/>
</radialGradient>
<linearGradient id="paint30_linear_580_8774" x1="30.6788" y1="26.2982" x2="30.3696" y2="26.2982" gradientUnits="userSpaceOnUse">
<stop stop-opacity="0"/>
<stop offset="0.9898"/>
</linearGradient>
<linearGradient id="paint31_linear_580_8774" x1="31.3871" y1="21.7187" x2="31.3871" y2="30.8777" gradientUnits="userSpaceOnUse">
<stop stop-color="white" stop-opacity="0"/>
<stop offset="1" stop-color="white"/>
</linearGradient>
<linearGradient id="paint32_linear_580_8774" x1="30.7831" y1="27.8121" x2="30.7831" y2="22.1904" gradientUnits="userSpaceOnUse">
<stop stop-color="white" stop-opacity="0"/>
<stop offset="1" stop-color="white"/>
</linearGradient>
<radialGradient id="paint33_radial_580_8774" cx="0" cy="0" r="1" gradientUnits="userSpaceOnUse" gradientTransform="translate(27.649 34.1435) rotate(90) scale(21.8 21.8002)">
<stop stop-color="white" stop-opacity="0"/>
<stop offset="1" stop-color="white"/>
</radialGradient>
<linearGradient id="paint34_linear_580_8774" x1="5.32701" y1="20.3537" x2="5.04071" y2="18.44" gradientUnits="userSpaceOnUse">
<stop stop-color="white" stop-opacity="0"/>
<stop offset="1" stop-color="white"/>
</linearGradient>
<linearGradient id="paint35_linear_580_8774" x1="5.28693" y1="19.5722" x2="5.18419" y2="19.5722" gradientUnits="userSpaceOnUse">
<stop stop-color="white" stop-opacity="0"/>
<stop offset="1" stop-color="white"/>
</linearGradient>
<linearGradient id="paint36_linear_580_8774" x1="5.32798" y1="33.5344" x2="5.04169" y2="31.6206" gradientUnits="userSpaceOnUse">
<stop stop-color="white" stop-opacity="0"/>
<stop offset="1" stop-color="white"/>
</linearGradient>
<linearGradient id="paint37_linear_580_8774" x1="5.28693" y1="32.7523" x2="5.18419" y2="32.7523" gradientUnits="userSpaceOnUse">
<stop stop-color="white" stop-opacity="0"/>
<stop offset="1" stop-color="white"/>
</linearGradient>
<linearGradient id="paint38_linear_580_8774" x1="5.22697" y1="26.1132" x2="5.3677" y2="26.1132" gradientUnits="userSpaceOnUse">
<stop stop-opacity="0"/>
<stop offset="0.9898"/>
</linearGradient>
<linearGradient id="paint39_linear_580_8774" x1="28.2048" y1="34.5474" x2="45.2324" y2="34.226" gradientUnits="userSpaceOnUse">
<stop stop-color="#C7C5C5"/>
<stop offset="0.0359" stop-color="#676767"/>
<stop offset="0.1123" stop-color="white"/>
<stop offset="0.3019" stop-color="#929292"/>
<stop offset="0.492" stop-color="white"/>
<stop offset="0.6257" stop-color="#676767"/>
<stop offset="0.7701" stop-color="#929292"/>
<stop offset="0.8233" stop-color="#C7C5C5"/>
<stop offset="1" stop-color="#343433"/>
</linearGradient>
<linearGradient id="paint40_linear_580_8774" x1="32.7319" y1="34.0905" x2="32.7319" y2="34.2412" gradientUnits="userSpaceOnUse">
<stop offset="0.0051"/>
<stop offset="1" stop-opacity="0"/>
</linearGradient>
<linearGradient id="paint41_linear_580_8774" x1="29.2564" y1="34.4707" x2="29.7855" y2="34.4707" gradientUnits="userSpaceOnUse">
<stop offset="0.0051"/>
<stop offset="1" stop-opacity="0"/>
</linearGradient>
</defs>
</svg>
