<svg width="51" height="52" viewBox="0 0 51 52" fill="none" xmlns="http://www.w3.org/2000/svg">
<circle opacity="0.5" cx="25.5" cy="25.8613" r="25.5" transform="rotate(-90 25.5 25.8613)" fill="#5384E4"/>
<path d="M21.7437 33.9307L15.834 33.9307C15.6595 33.9307 15.4923 33.8614 15.3689 33.7381L14.7927 33.1619L21.7437 33.1619L21.7437 33.9307Z" fill="#CCCCCC"/>
<path d="M21.6226 33.8101L21.6226 33.2821L15.083 33.2821L15.4535 33.6527C15.5549 33.7542 15.6898 33.8101 15.8333 33.8101L21.6226 33.8101Z" fill="url(#paint0_linear_580_8300)"/>
<path opacity="0.5" d="M21.7437 33.9307L15.834 33.9307C15.6595 33.9307 15.4923 33.8614 15.3689 33.7381L14.7927 33.1619L21.7437 33.1619L21.7437 33.9307Z" fill="url(#paint1_linear_580_8300)"/>
<path opacity="0.4" d="M21.7437 33.9307L15.834 33.9307C15.6595 33.9307 15.4923 33.8614 15.3689 33.7381L14.7927 33.1619L21.7437 33.1619L21.7437 33.9307Z" fill="url(#paint2_linear_580_8300)"/>
<mask id="mask0_580_8300" style="mask-type:luminance" maskUnits="userSpaceOnUse" x="15" y="33" width="7" height="1">
<path d="M21.6226 33.8096L21.6226 33.2816L15.083 33.2816L15.4535 33.6522C15.5549 33.7537 15.6898 33.8096 15.8333 33.8096L21.6226 33.8096Z" fill="white"/>
</mask>
<g mask="url(#mask0_580_8300)">
<path d="M21.5718 33.4017C21.5462 33.4474 21.5417 33.4937 21.5417 33.4937C21.5417 33.4937 21.5787 33.4657 21.6042 33.42C21.6298 33.3743 21.6343 33.3281 21.6343 33.3281C21.6343 33.3281 21.5973 33.356 21.5718 33.4017Z" fill="#999999"/>
<path d="M21.3633 33.7635C21.3377 33.8093 21.3332 33.8555 21.3332 33.8555C21.3332 33.8555 21.3702 33.8275 21.3957 33.7818C21.4213 33.7361 21.4258 33.6899 21.4258 33.6899C21.4258 33.6899 21.3888 33.7178 21.3633 33.7635Z" fill="#999999"/>
<path d="M21.4916 33.5766C21.4459 33.5511 21.3998 33.5466 21.3998 33.5466C21.3998 33.5466 21.4278 33.5836 21.4735 33.6091C21.5192 33.6346 21.5654 33.6392 21.5654 33.6392C21.5654 33.6392 21.5373 33.6022 21.4916 33.5766Z" fill="#999999"/>
<path d="M21.3638 33.3491C21.3181 33.3236 21.2719 33.3191 21.2719 33.3191C21.2719 33.3191 21.2999 33.3561 21.3456 33.3816C21.3913 33.4071 21.4375 33.4116 21.4375 33.4116C21.4375 33.4116 21.4096 33.3746 21.3638 33.3491Z" fill="#999999"/>
<path d="M21.1557 33.7109C21.1099 33.6854 21.0639 33.681 21.0639 33.681C21.0639 33.681 21.0919 33.718 21.1376 33.7436C21.1833 33.7691 21.2295 33.7734 21.2295 33.7734C21.2295 33.7734 21.2014 33.7364 21.1557 33.7109Z" fill="#999999"/>
<path d="M21.2663 33.5562C21.2919 33.5105 21.2964 33.4643 21.2964 33.4643C21.2964 33.4643 21.2594 33.4922 21.2339 33.538C21.2083 33.5837 21.2038 33.6299 21.2038 33.6299C21.2038 33.6299 21.2408 33.6019 21.2663 33.5562Z" fill="#999999"/>
<path d="M21.0849 33.2793C21.0594 33.3251 21.0551 33.3711 21.0551 33.3711C21.0551 33.3711 21.092 33.3431 21.1176 33.2974C21.1431 33.2517 21.1475 33.2057 21.1475 33.2057C21.1475 33.2057 21.1105 33.2336 21.0849 33.2793Z" fill="#999999"/>
<path d="M20.8769 33.641C20.8514 33.6867 20.847 33.7329 20.847 33.7329C20.847 33.7329 20.884 33.705 20.9096 33.6592C20.9351 33.6135 20.9395 33.5673 20.9395 33.5673C20.9395 33.5673 20.9025 33.5953 20.8769 33.641Z" fill="#999999"/>
<path d="M21.0051 33.4536C20.9594 33.4281 20.9132 33.4235 20.9132 33.4235C20.9132 33.4235 20.9411 33.4605 20.9869 33.4861C21.0326 33.5116 21.0786 33.5161 21.0786 33.5161C21.0786 33.5161 21.0508 33.4791 21.0051 33.4536Z" fill="#999999"/>
<path d="M20.877 33.2269C20.8313 33.2013 20.7851 33.197 20.7851 33.197C20.7851 33.197 20.813 33.234 20.8588 33.2595C20.9045 33.285 20.9507 33.2896 20.9507 33.2896C20.9507 33.2896 20.9227 33.2524 20.877 33.2269Z" fill="#999999"/>
<path d="M20.6692 33.5893C20.6234 33.5638 20.5772 33.5595 20.5772 33.5595C20.5772 33.5595 20.6052 33.5964 20.6509 33.622C20.6966 33.6475 20.7427 33.6519 20.7427 33.6519C20.7427 33.6519 20.7149 33.6149 20.6692 33.5893Z" fill="#999999"/>
<path d="M20.7787 33.4343C20.8042 33.3886 20.8086 33.3424 20.8086 33.3424C20.8086 33.3424 20.7716 33.3703 20.7461 33.4161C20.7206 33.4618 20.7162 33.5078 20.7162 33.5078C20.7162 33.5078 20.7532 33.48 20.7787 33.4343Z" fill="#999999"/>
<path d="M20.593 33.7838C20.6185 33.738 20.623 33.6918 20.623 33.6918C20.623 33.6918 20.586 33.7198 20.5605 33.7655C20.535 33.8112 20.5305 33.8574 20.5305 33.8574C20.5305 33.8574 20.5675 33.8295 20.593 33.7838Z" fill="#999999"/>
<path d="M20.5526 33.3159C20.5069 33.2904 20.4609 33.286 20.4609 33.286C20.4609 33.286 20.4888 33.323 20.5345 33.3485C20.5803 33.3741 20.6265 33.3784 20.6265 33.3784C20.6265 33.3784 20.5984 33.3414 20.5526 33.3159Z" fill="#999999"/>
<path d="M20.3448 33.6777C20.2991 33.6522 20.2529 33.6478 20.2529 33.6478C20.2529 33.6478 20.2808 33.6848 20.3265 33.7103C20.3723 33.7359 20.4185 33.7402 20.4185 33.7402C20.4185 33.7402 20.3905 33.7032 20.3448 33.6777Z" fill="#999999"/>
<path d="M20.455 33.5225C20.4805 33.4768 20.4849 33.4306 20.4849 33.4306C20.4849 33.4306 20.4479 33.4586 20.4223 33.5043C20.3968 33.55 20.3925 33.5962 20.3925 33.5962C20.3925 33.5962 20.4295 33.5682 20.455 33.5225Z" fill="#999999"/>
<path d="M20.2726 33.246C20.2471 33.2917 20.2426 33.3379 20.2426 33.3379C20.2426 33.3379 20.2795 33.3099 20.3051 33.2642C20.3306 33.2185 20.335 33.1723 20.335 33.1723C20.335 33.1723 20.2981 33.2003 20.2726 33.246Z" fill="#999999"/>
<path d="M20.0649 33.6078C20.0394 33.6535 20.0349 33.6997 20.0349 33.6997C20.0349 33.6997 20.0719 33.6718 20.0974 33.626C20.1229 33.5803 20.1274 33.5341 20.1274 33.5341C20.1274 33.5341 20.0904 33.5621 20.0649 33.6078Z" fill="#999999"/>
<path d="M20.1929 33.4209C20.1472 33.3954 20.101 33.3908 20.101 33.3908C20.101 33.3908 20.129 33.4278 20.1747 33.4533C20.2204 33.4789 20.2666 33.4834 20.2666 33.4834C20.2666 33.4834 20.2387 33.4464 20.1929 33.4209Z" fill="#999999"/>
<path d="M19.8575 33.5561C19.8118 33.5306 19.7656 33.5262 19.7656 33.5262C19.7656 33.5262 19.7935 33.5632 19.8392 33.5888C19.8849 33.6143 19.9312 33.6187 19.9312 33.6187C19.9312 33.6187 19.9032 33.5817 19.8575 33.5561Z" fill="#999999"/>
<path d="M19.9675 33.4014C19.993 33.3557 19.9976 33.3095 19.9976 33.3095C19.9976 33.3095 19.9606 33.3375 19.935 33.3832C19.9095 33.4289 19.905 33.4751 19.905 33.4751C19.905 33.4751 19.942 33.4472 19.9675 33.4014Z" fill="#999999"/>
<path d="M19.782 33.7501C19.8075 33.7043 19.812 33.6581 19.812 33.6581C19.812 33.6581 19.775 33.6861 19.7495 33.7318C19.724 33.7775 19.7196 33.8237 19.7196 33.8237C19.7196 33.8237 19.7564 33.7958 19.782 33.7501Z" fill="#999999"/>
<path d="M19.7379 33.3154C19.6921 33.2899 19.6459 33.2855 19.6459 33.2855C19.6459 33.2855 19.6739 33.3225 19.7196 33.348C19.7653 33.3736 19.8115 33.3779 19.8115 33.3779C19.8115 33.3779 19.7836 33.3409 19.7379 33.3154Z" fill="#999999"/>
<path d="M19.5297 33.6772C19.484 33.6517 19.4379 33.6473 19.4379 33.6473C19.4379 33.6473 19.4659 33.6843 19.5116 33.7099C19.5573 33.7354 19.6035 33.7397 19.6035 33.7397C19.6035 33.7397 19.5754 33.7028 19.5297 33.6772Z" fill="#999999"/>
<path d="M19.6395 33.522C19.6651 33.4763 19.6694 33.4301 19.6694 33.4301C19.6694 33.4301 19.6324 33.4581 19.6069 33.5038C19.5814 33.5495 19.577 33.5957 19.577 33.5957C19.577 33.5957 19.614 33.5678 19.6395 33.522Z" fill="#999999"/>
<path d="M19.4583 33.2455C19.4328 33.2912 19.4284 33.3374 19.4284 33.3374C19.4284 33.3374 19.4654 33.3095 19.4909 33.2637C19.5165 33.218 19.521 33.1718 19.521 33.1718C19.521 33.1718 19.4838 33.1998 19.4583 33.2455Z" fill="#999999"/>
<path d="M19.2495 33.6073C19.224 33.653 19.2194 33.6992 19.2194 33.6992C19.2194 33.6992 19.2564 33.6713 19.282 33.6256C19.3075 33.5798 19.312 33.5336 19.312 33.5336C19.312 33.5336 19.275 33.5616 19.2495 33.6073Z" fill="#999999"/>
<path d="M19.3775 33.4204C19.3318 33.3949 19.2856 33.3903 19.2856 33.3903C19.2856 33.3903 19.3135 33.4273 19.3593 33.4529C19.405 33.4784 19.4512 33.4829 19.4512 33.4829C19.4512 33.4829 19.4232 33.4459 19.3775 33.4204Z" fill="#999999"/>
<path d="M19.0427 33.5556C18.997 33.5301 18.9508 33.5258 18.9508 33.5258C18.9508 33.5258 18.9787 33.5628 19.0245 33.5883C19.0702 33.6138 19.1162 33.6182 19.1162 33.6182C19.1162 33.6182 19.0884 33.5812 19.0427 33.5556Z" fill="#999999"/>
<path d="M19.1526 33.4009C19.1781 33.3552 19.1826 33.309 19.1826 33.309C19.1826 33.309 19.1456 33.337 19.1201 33.3827C19.0946 33.4284 19.09 33.4746 19.09 33.4746C19.09 33.4746 19.127 33.4467 19.1526 33.4009Z" fill="#999999"/>
<path d="M18.9667 33.7496C18.9922 33.7039 18.9966 33.6577 18.9966 33.6577C18.9966 33.6577 18.9596 33.6856 18.9341 33.7313C18.9085 33.777 18.9042 33.8232 18.9042 33.8232C18.9042 33.8232 18.9412 33.7953 18.9667 33.7496Z" fill="#999999"/>
<path d="M18.9231 33.3159C18.8774 33.2904 18.8312 33.286 18.8312 33.286C18.8312 33.286 18.8591 33.323 18.9048 33.3485C18.9505 33.3741 18.9966 33.3784 18.9966 33.3784C18.9966 33.3784 18.9688 33.3414 18.9231 33.3159Z" fill="#999999"/>
<path d="M18.7149 33.6777C18.6692 33.6522 18.623 33.6478 18.623 33.6478C18.623 33.6478 18.6509 33.6848 18.6967 33.7103C18.7424 33.7359 18.7886 33.7402 18.7886 33.7402C18.7886 33.7402 18.7606 33.7032 18.7149 33.6777Z" fill="#999999"/>
<path d="M18.8249 33.5225C18.8505 33.4768 18.855 33.4306 18.855 33.4306C18.855 33.4306 18.818 33.4586 18.7925 33.5043C18.7669 33.55 18.7626 33.5962 18.7626 33.5962C18.7626 33.5962 18.7994 33.5682 18.8249 33.5225Z" fill="#999999"/>
<path d="M18.644 33.246C18.6185 33.2917 18.6141 33.3379 18.6141 33.3379C18.6141 33.3379 18.6511 33.3099 18.6767 33.2642C18.7022 33.2185 18.7065 33.1723 18.7065 33.1723C18.7065 33.1723 18.6695 33.2003 18.644 33.246Z" fill="#999999"/>
<path d="M18.4359 33.6078C18.4103 33.6535 18.406 33.6997 18.406 33.6997C18.406 33.6997 18.443 33.6718 18.4685 33.626C18.494 33.5803 18.4985 33.5341 18.4985 33.5341C18.4985 33.5341 18.4614 33.5621 18.4359 33.6078Z" fill="#999999"/>
<path d="M18.5644 33.4209C18.5186 33.3954 18.4726 33.3908 18.4726 33.3908C18.4726 33.3908 18.5005 33.4278 18.5463 33.4533C18.592 33.4789 18.6382 33.4834 18.6382 33.4834C18.6382 33.4834 18.6101 33.4464 18.5644 33.4209Z" fill="#999999"/>
<path d="M18.2281 33.5561C18.1824 33.5306 18.1362 33.5262 18.1362 33.5262C18.1362 33.5262 18.1641 33.5632 18.2098 33.5888C18.2556 33.6143 18.3018 33.6187 18.3018 33.6187C18.3018 33.6187 18.2738 33.5817 18.2281 33.5561Z" fill="#999999"/>
<path d="M18.3391 33.4014C18.3646 33.3557 18.3691 33.3095 18.3691 33.3095C18.3691 33.3095 18.3321 33.3375 18.3066 33.3832C18.2811 33.4289 18.2766 33.4751 18.2766 33.4751C18.2766 33.4751 18.3136 33.4472 18.3391 33.4014Z" fill="#999999"/>
<path d="M18.1537 33.7501C18.1792 33.7043 18.1836 33.6581 18.1836 33.6581C18.1836 33.6581 18.1466 33.6861 18.1211 33.7318C18.0956 33.7775 18.0912 33.8237 18.0912 33.8237C18.0912 33.8237 18.128 33.7958 18.1537 33.7501Z" fill="#999999"/>
<path d="M18.1094 33.3154C18.0637 33.2899 18.0175 33.2855 18.0175 33.2855C18.0175 33.2855 18.0455 33.3225 18.0912 33.348C18.1369 33.3736 18.1831 33.3779 18.1831 33.3779C18.1831 33.3779 18.1552 33.3409 18.1094 33.3154Z" fill="#999999"/>
<path d="M17.9016 33.6772C17.8559 33.6517 17.8097 33.6473 17.8097 33.6473C17.8097 33.6473 17.8376 33.6843 17.8833 33.7099C17.9291 33.7354 17.9751 33.7397 17.9751 33.7397C17.9751 33.7397 17.9473 33.7028 17.9016 33.6772Z" fill="#999999"/>
<path d="M18.0115 33.522C18.037 33.4763 18.0415 33.4301 18.0415 33.4301C18.0415 33.4301 18.0045 33.4581 17.979 33.5038C17.9535 33.5495 17.9491 33.5957 17.9491 33.5957C17.9491 33.5957 17.9859 33.5678 18.0115 33.522Z" fill="#999999"/>
<path d="M17.8296 33.2455C17.804 33.2912 17.7997 33.3374 17.7997 33.3374C17.7997 33.3374 17.8367 33.3095 17.8622 33.2637C17.8877 33.218 17.8921 33.1718 17.8921 33.1718C17.8921 33.1718 17.8551 33.1998 17.8296 33.2455Z" fill="#999999"/>
<path d="M17.6216 33.6073C17.596 33.653 17.5917 33.6992 17.5917 33.6992C17.5917 33.6992 17.6287 33.6713 17.6542 33.6256C17.6797 33.5798 17.6841 33.5336 17.6841 33.5336C17.6841 33.5336 17.6471 33.5616 17.6216 33.6073Z" fill="#999999"/>
<path d="M17.7496 33.4204C17.7039 33.3949 17.6577 33.3903 17.6577 33.3903C17.6577 33.3903 17.6856 33.4273 17.7313 33.4529C17.777 33.4784 17.8232 33.4829 17.8232 33.4829C17.8232 33.4829 17.7953 33.4459 17.7496 33.4204Z" fill="#999999"/>
<path d="M17.4132 33.5556C17.3674 33.5301 17.3212 33.5258 17.3212 33.5258C17.3212 33.5258 17.3492 33.5628 17.3949 33.5883C17.4406 33.6138 17.4868 33.6182 17.4868 33.6182C17.4868 33.6182 17.4589 33.5812 17.4132 33.5556Z" fill="#999999"/>
<path d="M17.5243 33.4009C17.5498 33.3552 17.5542 33.309 17.5542 33.309C17.5542 33.309 17.5172 33.337 17.4917 33.3827C17.4662 33.4284 17.4618 33.4746 17.4618 33.4746C17.4618 33.4746 17.4988 33.4467 17.5243 33.4009Z" fill="#999999"/>
<path d="M17.3378 33.7496C17.3633 33.7039 17.3677 33.6577 17.3677 33.6577C17.3677 33.6577 17.3307 33.6856 17.3052 33.7313C17.2796 33.777 17.2753 33.8232 17.2753 33.8232C17.2753 33.8232 17.3121 33.7953 17.3378 33.7496Z" fill="#999999"/>
<path d="M17.294 33.3154C17.2483 33.2899 17.2021 33.2855 17.2021 33.2855C17.2021 33.2855 17.23 33.3225 17.2758 33.348C17.3215 33.3736 17.3677 33.3779 17.3677 33.3779C17.3677 33.3779 17.3397 33.3409 17.294 33.3154Z" fill="#999999"/>
<path d="M17.086 33.6772C17.0403 33.6517 16.9941 33.6473 16.9941 33.6473C16.9941 33.6473 17.022 33.6843 17.0677 33.7099C17.1135 33.7354 17.1597 33.7397 17.1597 33.7397C17.1597 33.7397 17.1317 33.7028 17.086 33.6772Z" fill="#999999"/>
<path d="M17.196 33.522C17.2216 33.4763 17.2261 33.4301 17.2261 33.4301C17.2261 33.4301 17.1891 33.4581 17.1636 33.5038C17.138 33.5495 17.1335 33.5957 17.1335 33.5957C17.1335 33.5957 17.1705 33.5678 17.196 33.522Z" fill="#999999"/>
<path d="M17.0148 33.2455C16.9893 33.2912 16.9847 33.3374 16.9847 33.3374C16.9847 33.3374 17.0217 33.3095 17.0473 33.2637C17.0728 33.218 17.0771 33.1718 17.0771 33.1718C17.0771 33.1718 17.0403 33.1998 17.0148 33.2455Z" fill="#999999"/>
<path d="M16.8071 33.6073C16.7816 33.653 16.7772 33.6992 16.7772 33.6992C16.7772 33.6992 16.8142 33.6713 16.8397 33.6256C16.8653 33.5798 16.8696 33.5336 16.8696 33.5336C16.8696 33.5336 16.8326 33.5616 16.8071 33.6073Z" fill="#999999"/>
<path d="M16.9348 33.4204C16.8891 33.3949 16.8429 33.3903 16.8429 33.3903C16.8429 33.3903 16.8708 33.4273 16.9165 33.4529C16.9623 33.4784 17.0083 33.4829 17.0083 33.4829C17.0083 33.4829 16.9805 33.4459 16.9348 33.4204Z" fill="#999999"/>
<path d="M16.5992 33.5556C16.5535 33.5301 16.5073 33.5258 16.5073 33.5258C16.5073 33.5258 16.5352 33.5628 16.5809 33.5883C16.6266 33.6138 16.6729 33.6182 16.6729 33.6182C16.6729 33.6182 16.6449 33.5812 16.5992 33.5556Z" fill="#999999"/>
<path d="M16.7089 33.4014C16.7344 33.3557 16.7388 33.3095 16.7388 33.3095C16.7388 33.3095 16.7018 33.3375 16.6763 33.3832C16.6507 33.4289 16.6462 33.4751 16.6462 33.4751C16.6462 33.4751 16.6834 33.4472 16.7089 33.4014Z" fill="#999999"/>
<path d="M16.5242 33.7496C16.5497 33.7039 16.5542 33.6577 16.5542 33.6577C16.5542 33.6577 16.5172 33.6856 16.4917 33.7313C16.4662 33.777 16.4616 33.8232 16.4616 33.8232C16.4616 33.8232 16.4986 33.7953 16.5242 33.7496Z" fill="#999999"/>
<path d="M16.4794 33.3159C16.4337 33.2904 16.3876 33.286 16.3876 33.286C16.3876 33.286 16.4156 33.323 16.4613 33.3485C16.507 33.3741 16.5532 33.3784 16.5532 33.3784C16.5532 33.3784 16.5251 33.3414 16.4794 33.3159Z" fill="#999999"/>
<path d="M16.2711 33.6777C16.2253 33.6522 16.1791 33.6478 16.1791 33.6478C16.1791 33.6478 16.2071 33.6848 16.2528 33.7103C16.2985 33.7359 16.3447 33.7402 16.3447 33.7402C16.3447 33.7402 16.3166 33.7032 16.2711 33.6777Z" fill="#999999"/>
<path d="M16.3821 33.5225C16.4076 33.4768 16.4121 33.4306 16.4121 33.4306C16.4121 33.4306 16.3751 33.4586 16.3496 33.5043C16.3241 33.55 16.3197 33.5962 16.3197 33.5962C16.3197 33.5962 16.3565 33.5682 16.3821 33.5225Z" fill="#999999"/>
<path d="M16.2005 33.246C16.175 33.2917 16.1706 33.3379 16.1706 33.3379C16.1706 33.3379 16.2076 33.3099 16.2331 33.2642C16.2587 33.2185 16.2632 33.1723 16.2632 33.1723C16.2632 33.1723 16.226 33.2003 16.2005 33.246Z" fill="#999999"/>
<path d="M15.9928 33.6078C15.9673 33.6535 15.9628 33.6997 15.9628 33.6997C15.9628 33.6997 15.9998 33.6718 16.0253 33.626C16.0508 33.5803 16.0552 33.5341 16.0552 33.5341C16.0552 33.5341 16.0183 33.5621 15.9928 33.6078Z" fill="#999999"/>
<path d="M16.1205 33.4209C16.0748 33.3954 16.0287 33.3908 16.0287 33.3908C16.0287 33.3908 16.0567 33.4278 16.1024 33.4533C16.1481 33.4789 16.1943 33.4834 16.1943 33.4834C16.1943 33.4834 16.1662 33.4464 16.1205 33.4209Z" fill="#999999"/>
<path d="M15.7855 33.5561C15.7398 33.5306 15.6938 33.5262 15.6938 33.5262C15.6938 33.5262 15.7217 33.5632 15.7675 33.5888C15.8132 33.6143 15.8594 33.6187 15.8594 33.6187C15.8594 33.6187 15.8313 33.5817 15.7855 33.5561Z" fill="#999999"/>
<path d="M15.8949 33.4014C15.9204 33.3557 15.9248 33.3095 15.9248 33.3095C15.9248 33.3095 15.8878 33.3375 15.8623 33.3832C15.8368 33.4289 15.8324 33.4751 15.8324 33.4751C15.8324 33.4751 15.8694 33.4472 15.8949 33.4014Z" fill="#999999"/>
<path d="M15.7092 33.7501C15.7347 33.7043 15.7393 33.6581 15.7393 33.6581C15.7393 33.6581 15.7023 33.6861 15.6767 33.7318C15.6512 33.7775 15.6467 33.8237 15.6467 33.8237C15.6467 33.8237 15.6837 33.7958 15.7092 33.7501Z" fill="#999999"/>
<path d="M15.6656 33.3149C15.6199 33.2894 15.5737 33.285 15.5737 33.285C15.5737 33.285 15.6016 33.322 15.6473 33.3476C15.6931 33.3731 15.7393 33.3774 15.7393 33.3774C15.7393 33.3774 15.7113 33.3404 15.6656 33.3149Z" fill="#999999"/>
<path d="M15.4581 33.6767C15.4123 33.6512 15.3661 33.6469 15.3661 33.6469C15.3661 33.6469 15.3941 33.6838 15.4398 33.7094C15.4855 33.7349 15.5317 33.7393 15.5317 33.7393C15.5317 33.7393 15.5036 33.7023 15.4581 33.6767Z" fill="#999999"/>
<path d="M15.5673 33.5215C15.5928 33.4758 15.5972 33.4296 15.5972 33.4296C15.5972 33.4296 15.5602 33.4576 15.5346 33.5033C15.5091 33.549 15.5046 33.5952 15.5046 33.5952C15.5046 33.5952 15.5418 33.5673 15.5673 33.5215Z" fill="#999999"/>
<path d="M15.3857 33.2455C15.3602 33.2912 15.3557 33.3374 15.3557 33.3374C15.3557 33.3374 15.3927 33.3095 15.4182 33.2637C15.4437 33.218 15.4482 33.1718 15.4482 33.1718C15.4482 33.1718 15.4112 33.1998 15.3857 33.2455Z" fill="#999999"/>
<path d="M15.1777 33.6073C15.1522 33.653 15.1477 33.6992 15.1477 33.6992C15.1477 33.6992 15.1847 33.6713 15.2102 33.6256C15.2357 33.5798 15.2402 33.5336 15.2402 33.5336C15.2402 33.5336 15.2032 33.5616 15.1777 33.6073Z" fill="#999999"/>
<path d="M15.3057 33.4204C15.26 33.3949 15.2138 33.3903 15.2138 33.3903C15.2138 33.3903 15.2418 33.4273 15.2875 33.4529C15.3332 33.4784 15.3794 33.4829 15.3794 33.4829C15.3794 33.4829 15.3514 33.4459 15.3057 33.4204Z" fill="#999999"/>
<path d="M15.0803 33.4009C15.1058 33.3552 15.1104 33.309 15.1104 33.309C15.1104 33.309 15.0734 33.337 15.0478 33.3827C15.0223 33.4284 15.0178 33.4746 15.0178 33.4746C15.0178 33.4746 15.0548 33.4467 15.0803 33.4009Z" fill="#999999"/>
</g>
<path d="M6.49951 30.7876L6.49951 31.0407C6.49951 31.0687 6.4769 31.0913 6.44895 31.0913L6.33893 31.0913C6.31099 31.0913 6.28837 31.0687 6.28837 31.0407L6.28837 30.7876C6.28837 30.7596 6.31099 30.737 6.33893 30.737L6.44895 30.737C6.4769 30.7372 6.49951 30.7598 6.49951 30.7876Z" fill="url(#paint3_linear_580_8300)"/>
<path d="M6.49951 30.2963L6.49951 30.0929C6.49951 30.0512 6.46575 30.0176 6.42423 30.0176L6.36397 30.0176C6.32229 30.0176 6.28869 30.0514 6.28869 30.0929L6.28869 30.2963C6.28869 30.338 6.32246 30.3716 6.36397 30.3716L6.42423 30.3716C6.46575 30.3717 6.49951 30.338 6.49951 30.2963Z" fill="url(#paint4_linear_580_8300)"/>
<path d="M7.09912 30.4376L7.09847 30.6367C7.09799 30.7585 6.99895 30.8569 6.87715 30.8564L6.2198 30.854C6.09799 30.8535 5.99961 30.7545 6.0001 30.6327L6.00074 30.4335C6.00123 30.3117 6.10026 30.2133 6.22206 30.2138L6.87941 30.2162C7.00122 30.2167 7.0996 30.3157 7.09912 30.4376Z" fill="url(#paint5_linear_580_8300)"/>
<path d="M6.49951 20.5283L6.49951 20.7815C6.49951 20.8093 6.4769 20.832 6.44895 20.832L6.33893 20.832C6.31099 20.832 6.28837 20.8094 6.28837 20.7815L6.28837 20.5283C6.28837 20.5004 6.31099 20.4778 6.33893 20.4778L6.44895 20.4778C6.4769 20.4778 6.49951 20.5004 6.49951 20.5283Z" fill="url(#paint6_linear_580_8300)"/>
<path d="M6.49951 20.037L6.49951 19.8336C6.49951 19.792 6.46575 19.7584 6.42423 19.7584L6.36397 19.7584C6.32229 19.7584 6.28869 19.7921 6.28869 19.8336L6.28869 20.037C6.28869 20.0787 6.32246 20.1123 6.36397 20.1123L6.42423 20.1123C6.46575 20.1123 6.49951 20.0785 6.49951 20.037Z" fill="url(#paint7_linear_580_8300)"/>
<path d="M7.09912 20.1783L7.09847 20.3775C7.09799 20.4993 6.99895 20.5977 6.87715 20.5972L6.2198 20.5947C6.09799 20.5943 5.99961 20.4952 6.0001 20.3734L6.00074 20.1742C6.00123 20.0524 6.10026 19.954 6.22206 19.9545L6.87941 19.9569C7.00122 19.9573 7.0996 20.0565 7.09912 20.1783Z" fill="url(#paint8_linear_580_8300)"/>
<path d="M21.5024 17.6363L21.5024 33.2119L7.6058 33.2119C7.05928 33.2119 6.61648 32.769 6.61648 32.2226L6.61647 18.6257C6.61647 18.0792 7.05944 17.6363 7.6058 17.6363L21.5024 17.6363Z" fill="#E1E2DD"/>
<path d="M6.61636 19.113L6.61636 31.7354C6.61636 32.5509 7.27742 33.2119 8.09292 33.2119L8.76416 33.2119L8.76416 17.6363L8.09292 17.6363C7.27742 17.6363 6.61636 18.2975 6.61636 19.113Z" fill="url(#paint9_linear_580_8300)"/>
<path d="M6.61636 19.113L6.61636 31.7354C6.61636 32.5509 7.27742 33.2119 8.09292 33.2119L8.76416 33.2119L8.76416 17.6363L8.09292 17.6363C7.27742 17.6363 6.61636 18.2975 6.61636 19.113Z" fill="url(#paint10_linear_580_8300)"/>
<path opacity="0.2" d="M6.9813 19.3247L6.9813 31.5241C6.9813 32.3123 7.64236 32.9512 8.45786 32.9512L8.76416 32.9512L8.76416 17.8978L8.45786 17.8978C7.64236 17.8976 6.9813 18.5366 6.9813 19.3247Z" fill="black"/>
<path d="M21.2051 32.73L8.18678 32.73C7.81877 32.73 7.52039 32.4316 7.52039 32.0636L7.52039 18.785C7.52039 18.417 7.81877 18.1186 8.18678 18.1186L21.2051 18.1186L21.2051 32.73Z" fill="#F5F7EA"/>
<g opacity="0.1">
<path d="M21.2051 32.73L8.18678 32.73C7.81877 32.73 7.52039 32.4316 7.52039 32.0636L7.52039 18.785C7.52039 18.417 7.81877 18.1186 8.18678 18.1186L21.2051 18.1186L21.2051 32.73Z" fill="url(#paint11_radial_580_8300)"/>
</g>
<g opacity="0.5">
<path d="M21.2051 32.73L8.18678 32.73C7.81877 32.73 7.52039 32.4316 7.52039 32.0636L7.52039 18.785C7.52039 18.417 7.81877 18.1186 8.18678 18.1186L21.2051 18.1186L21.2051 32.73Z" fill="url(#paint12_linear_580_8300)"/>
</g>
<path opacity="0.3" d="M7.52065 28.8854L7.52065 29.736L17.2254 30.4707L17.2891 29.6201L7.52065 28.8854Z" fill="url(#paint13_linear_580_8300)"/>
<path opacity="0.3" d="M7.52065 21.9702L7.52065 21.1197L17.2254 20.3849L17.2891 21.2355L7.52065 21.9702Z" fill="url(#paint14_linear_580_8300)"/>
<path d="M7.09883 19.1132L7.09883 31.7357C7.09883 32.2839 7.54471 32.73 8.09317 32.73L8.51514 32.73C7.96603 32.73 7.52064 32.2848 7.52064 31.7357L7.52064 19.1132C7.52064 18.564 7.96587 18.1188 8.51514 18.1188L8.09317 18.1188C7.54471 18.1188 7.09883 18.5648 7.09883 19.1132Z" fill="#CCCCCC"/>
<path opacity="0.4" d="M7.14648 22.029L7.14648 28.8848L7.20157 28.8848L7.20157 22.029L7.14648 22.029Z" fill="#666666"/>
<path opacity="0.4" d="M7.24023 22.029L7.24023 28.8848L7.29532 28.8848L7.29532 22.029L7.24023 22.029Z" fill="#666666"/>
<path opacity="0.4" d="M7.33398 22.029L7.33398 28.8848L7.38907 28.8848L7.38907 22.029L7.33398 22.029Z" fill="#666666"/>
<path opacity="0.4" d="M7.42725 22.029L7.42725 28.8848L7.48233 28.8848L7.48233 22.029L7.42725 22.029Z" fill="#666666"/>
<path d="M7.09835 31.7339L7.09835 31.7357C7.09835 32.2839 7.54422 32.73 8.09268 32.73L8.51465 32.73C7.96554 32.73 7.52015 32.2848 7.52015 31.7357L7.52015 31.7339L7.09835 31.7339Z" fill="#FF6600"/>
<path d="M7.52051 28.9238L7.52051 31.7358L7.09854 31.7358L7.09854 28.6449L7.52051 28.9238Z" fill="#DCFFFE"/>
<path d="M7.48291 31.7341L7.48291 28.8989L7.38889 28.8367L7.38889 31.7341L7.38889 31.7358L7.48291 31.7358L7.48291 31.7341Z" fill="white"/>
<path opacity="0.4" d="M7.38853 31.7357C7.38853 32.2839 7.83441 32.73 8.38287 32.73L8.47705 32.73C7.92875 32.73 7.48271 32.2839 7.48271 31.7357L7.48271 31.7339L7.38853 31.7339L7.38853 31.7357Z" fill="white"/>
<path d="M8.47705 32.7301L8.47705 32.8288C8.47705 32.8545 8.44474 32.8755 8.405 32.8755L8.1273 32.8755C8.08756 32.8755 8.05525 32.8546 8.05525 32.8288L8.05525 32.7301L8.47705 32.7301Z" fill="#FF6600"/>
<path d="M7.09835 19.1318L7.09835 19.1301C7.09835 18.5818 7.54422 18.1357 8.09268 18.1357L8.51465 18.1357C7.96554 18.1357 7.52015 18.581 7.52015 19.1301L7.52015 19.1318L7.09835 19.1318Z" fill="#FF6600"/>
<path d="M7.52051 21.9425L7.52051 19.1304L7.09854 19.1304L7.09854 22.2212L7.52051 21.9425Z" fill="#DCFFFE"/>
<path d="M7.48291 19.1324L7.48291 21.9676L7.38889 22.0298L7.38889 19.1324L7.38889 19.1306L7.48291 19.1306L7.48291 19.1324Z" fill="white"/>
<path opacity="0.4" d="M7.38853 19.1301C7.38853 18.5818 7.83441 18.1357 8.38287 18.1357L8.47705 18.1357C7.92875 18.1357 7.48271 18.5818 7.48271 19.1301L7.48271 19.1318L7.38853 19.1318L7.38853 19.1301Z" fill="white"/>
<path d="M8.47705 18.1362L8.47705 18.0375C8.47705 18.0118 8.44474 17.9908 8.405 17.9908L8.1273 17.9908C8.08756 17.9908 8.05525 18.0117 8.05525 18.0375L8.05525 18.1362L8.47705 18.1362Z" fill="#FF6600"/>
<path d="M18.4323 31.4367C18.2043 29.8813 17.6615 22.9909 18.3836 19.5931C18.4554 19.2558 18.2798 18.9162 17.9635 18.779L13.7682 18.1647C13.4425 18.0235 13.0671 18.1938 12.9619 18.5328C12.4249 20.2632 11.1937 25.4466 13.022 32.2963C13.1137 32.6399 13.49 32.8224 13.8197 32.6891L17.9854 32.2131C18.2956 32.0879 18.4807 31.7678 18.4323 31.4367Z" fill="#F4F4F4"/>
<path opacity="0.5" d="M18.4323 31.4367C18.2043 29.8813 17.6615 22.9909 18.3836 19.5931C18.4554 19.2558 18.2798 18.9162 17.9635 18.779L13.7682 18.1647C13.4425 18.0235 13.0671 18.1938 12.9619 18.5328C12.4249 20.2632 11.1937 25.4466 13.022 32.2963C13.1137 32.6399 13.49 32.8224 13.8197 32.6891L17.9854 32.2131C18.2956 32.0879 18.4807 31.7678 18.4323 31.4367Z" fill="url(#paint15_linear_580_8300)"/>
<path d="M18.1475 31.5418C18.1475 31.7181 18.0408 31.875 17.8761 31.9417L13.7103 32.4178C13.6289 32.4506 13.537 32.4468 13.4585 32.4076C13.3816 32.3691 13.327 32.3027 13.3049 32.2207C12.6706 29.8445 12.349 27.4435 12.349 25.0846C12.349 21.9619 12.9083 19.6937 13.2417 18.6196C13.2674 18.5369 13.3246 18.4715 13.4032 18.4355C13.4827 18.3989 13.5708 18.3981 13.652 18.4334L17.8471 19.0477C18.005 19.1162 18.1071 19.271 18.1071 19.4421C18.1071 19.4721 18.1038 19.5023 18.0974 19.5324C17.853 20.6829 17.729 23.2653 17.729 24.8305C17.729 27.1099 17.9882 30.4247 18.1428 31.4792C18.146 31.5003 18.1475 31.5212 18.1475 31.5418Z" fill="black"/>
<path d="M18.0005 31.5416C18.0005 31.6579 17.9299 31.7615 17.8207 31.8056L13.655 32.2817C13.597 32.3051 13.5477 32.2884 13.5235 32.2763C13.4957 32.2624 13.46 32.235 13.4459 32.1826C12.8149 29.8187 12.4949 27.4305 12.4949 25.0844C12.4949 21.9809 13.0501 19.7289 13.381 18.6628C13.3988 18.6053 13.4404 18.5788 13.4637 18.5682C13.4878 18.5573 13.5361 18.5426 13.5933 18.5673L17.7887 19.1817C17.8927 19.2269 17.9603 19.329 17.9603 19.4418C17.9603 19.4617 17.958 19.4817 17.954 19.5016C17.7071 20.6621 17.5822 23.2548 17.5822 24.8302C17.5822 27.1189 17.8425 30.4418 17.9974 31.5001C17.9994 31.514 18.0005 31.5279 18.0005 31.5416Z" fill="#676B86"/>
<path opacity="0.2" d="M14.7925 32.1516C14.3781 30.4468 14.0456 27.8961 14.0456 25.4236C14.0456 22.9772 14.3859 20.4412 14.7925 18.743L13.5933 18.5674C13.5361 18.5427 13.4878 18.5574 13.4637 18.5682C13.4406 18.5789 13.3988 18.6054 13.381 18.6629C13.0502 19.7289 12.4949 21.9809 12.4949 25.0844C12.4949 27.4306 12.815 29.8187 13.446 32.1827C13.46 32.235 13.4957 32.2625 13.5235 32.2764C13.5477 32.2883 13.597 32.3051 13.655 32.2817L14.7925 32.1516Z" fill="black"/>
<path d="M13.7373 32.2486C13.2864 30.4229 13.0128 28.037 13.0128 25.4237C13.0128 22.8237 13.2837 20.4489 13.7304 18.6268L13.5932 18.5674C13.536 18.5427 13.4877 18.5574 13.4636 18.5682C13.4405 18.5789 13.3987 18.6054 13.3809 18.6629C13.0501 19.7289 12.4948 21.9809 12.4948 25.0844C12.4948 27.4306 12.8149 29.8187 13.4459 32.1827C13.4599 32.235 13.4956 32.2625 13.5234 32.2764C13.5476 32.2883 13.5969 32.3051 13.6549 32.2817L13.7373 32.2486Z" fill="#333333"/>
<path d="M13.6656 30.0352L13.2681 28.1263L13.3636 28.1089L13.7134 30.0266L13.6656 30.0352Z" fill="black"/>
<path d="M12.8804 25.4633L13.356 28.0708L13.2337 27.9419L12.7849 25.4807L12.8804 25.4633Z" fill="black"/>
<path d="M13.7178 29.9151L12.8887 25.3609L12.8378 25.3703L13.6879 30.0313L13.7178 29.9151Z" fill="#333333"/>
<path d="M12.859 25.4783C12.786 25.4915 12.716 25.4432 12.7028 25.3702C12.6895 25.2972 12.7378 25.2272 12.8108 25.214C12.8839 25.2007 12.9538 25.249 12.9671 25.3221C12.9803 25.3951 12.932 25.465 12.859 25.4783Z" fill="black"/>
<path d="M12.8828 25.4738C12.8231 25.4846 12.7657 25.445 12.7549 25.3853C12.7439 25.3255 12.7836 25.2682 12.8434 25.2573C12.9032 25.2463 12.9605 25.2861 12.9714 25.3459C12.9822 25.4056 12.9426 25.463 12.8828 25.4738Z" fill="#333333"/>
<path d="M13.4517 25.8047L13.2473 23.8656L13.3441 23.8577L13.5 25.8008L13.4517 25.8047Z" fill="black"/>
<path d="M13.1294 21.1772L13.3413 23.8193L13.2327 23.6786L13.0326 21.185L13.1294 21.1772Z" fill="black"/>
<path d="M13.5151 25.6901L13.1463 21.0758L13.0946 21.08L13.4738 25.8027L13.5151 25.6901Z" fill="#333333"/>
<path d="M13.1055 21.1895C13.0315 21.1955 12.9669 21.1402 12.9609 21.0664C12.9549 20.9924 13.0101 20.9278 13.084 20.9218C13.158 20.9158 13.2226 20.9711 13.2286 21.0449C13.2345 21.1187 13.1795 21.1835 13.1055 21.1895Z" fill="black"/>
<path d="M13.1293 21.1881C13.0687 21.193 13.0157 21.1479 13.0107 21.0873C13.0059 21.0267 13.0511 20.9737 13.1117 20.9689C13.1723 20.9641 13.2253 21.0091 13.2301 21.0697C13.235 21.1303 13.1899 21.1833 13.1293 21.1881Z" fill="#333333"/>
<path opacity="0.5" d="M18.0005 31.5416C18.0005 31.6579 17.9299 31.7615 17.8207 31.8056L13.655 32.2817C13.597 32.3051 13.5477 32.2884 13.5235 32.2763C13.4957 32.2624 13.46 32.235 13.4459 32.1826C12.8149 29.8187 12.4949 27.4305 12.4949 25.0844C12.4949 21.9809 13.0501 19.7289 13.381 18.6628C13.3988 18.6053 13.4404 18.5788 13.4637 18.5682C13.4878 18.5573 13.5361 18.5426 13.5933 18.5673L17.7887 19.1817C17.8927 19.2269 17.9603 19.329 17.9603 19.4418C17.9603 19.4617 17.958 19.4817 17.954 19.5016C17.7071 20.6621 17.5822 23.2548 17.5822 24.8302C17.5822 27.1189 17.8425 30.4418 17.9974 31.5001C17.9994 31.514 18.0005 31.5279 18.0005 31.5416Z" fill="url(#paint16_radial_580_8300)"/>
<path opacity="0.3" d="M18.0005 31.5416C18.0005 31.6579 17.9299 31.7615 17.8207 31.8056L13.655 32.2817C13.597 32.3051 13.5477 32.2884 13.5235 32.2763C13.4957 32.2624 13.46 32.235 13.4459 32.1826C12.8149 29.8187 12.4949 27.4305 12.4949 25.0844C12.4949 21.9809 13.0501 19.7289 13.381 18.6628C13.3988 18.6053 13.4404 18.5788 13.4637 18.5682C13.4878 18.5573 13.5361 18.5426 13.5933 18.5673L17.7887 19.1817C17.8927 19.2269 17.9603 19.329 17.9603 19.4418C17.9603 19.4617 17.958 19.4817 17.954 19.5016C17.7071 20.6621 17.5822 23.2548 17.5822 24.8302C17.5822 27.1189 17.8425 30.4418 17.9974 31.5001C17.9994 31.514 18.0005 31.5279 18.0005 31.5416Z" fill="url(#paint17_radial_580_8300)"/>
<path d="M21.208 32.7364C21.208 32.7296 21.2069 32.7227 21.2051 32.7157L21.208 32.0442C21.1875 31.9749 21.0642 31.9225 20.9214 31.9225L18.9819 31.9225C18.9429 31.9225 18.905 31.9262 18.8691 31.9337L13.4908 32.6553C13.4289 32.6681 13.3905 32.6964 13.3905 32.7291C13.3905 32.7744 13.4625 32.8099 13.5546 32.8099L20.9185 32.8784C20.9965 32.8784 21.0694 32.8636 21.1242 32.8363C21.1784 32.8094 21.208 32.7739 21.208 32.7364Z" fill="#F4F4F4"/>
<path opacity="0.5" d="M21.208 32.7364C21.208 32.7296 21.2069 32.7227 21.2051 32.7157L21.208 32.0442C21.1875 31.9749 21.0642 31.9225 20.9214 31.9225L18.9819 31.9225C18.9429 31.9225 18.905 31.9262 18.8691 31.9337L13.4908 32.6553C13.4289 32.6681 13.3905 32.6964 13.3905 32.7291C13.3905 32.7744 13.4625 32.8099 13.5546 32.8099L20.9185 32.8784C20.9965 32.8784 21.0694 32.8636 21.1242 32.8363C21.1784 32.8094 21.208 32.7739 21.208 32.7364Z" fill="url(#paint18_linear_580_8300)"/>
<path d="M13.5331 32.7048L18.9116 31.9832C18.9339 31.9785 18.9578 31.9763 18.982 31.9763L20.9214 31.9763C21.0114 31.9763 21.0877 32.0087 21.1006 32.0524L21.0977 32.7239C21.1137 32.7775 21.0289 32.8257 20.9185 32.8257L13.5546 32.7572C13.4944 32.757 13.4777 32.7163 13.5331 32.7048Z" fill="black"/>
<path d="M20.9903 32.7313L20.9932 32.0597C20.9882 32.0423 20.9573 32.0292 20.9214 32.0292L18.9819 32.0292C18.9722 32.0292 18.9628 32.0301 18.9539 32.0319L13.817 32.7035L20.9185 32.772C20.9381 32.772 20.9563 32.7683 20.9701 32.7615C20.9836 32.7547 20.9911 32.7458 20.9911 32.7364L20.9903 32.7313Z" fill="#676B86"/>
<path opacity="0.2" d="M20.9242 32.5099L20.9899 32.7311L20.9907 32.7364C20.9907 32.7458 20.9833 32.7547 20.9697 32.7615C20.956 32.7683 20.9377 32.772 20.9182 32.772L13.8166 32.7035L16.2706 32.5885L20.9242 32.5099Z" fill="black"/>
<path opacity="0.5" d="M20.9903 32.7313L20.9932 32.0597C20.9882 32.0423 20.9573 32.0292 20.9214 32.0292L18.9819 32.0292C18.9722 32.0292 18.9628 32.0301 18.9539 32.0319L13.817 32.7035L20.9185 32.772C20.9381 32.772 20.9563 32.7683 20.9701 32.7615C20.9836 32.7547 20.9911 32.7458 20.9911 32.7364L20.9903 32.7313Z" fill="url(#paint19_linear_580_8300)"/>
<path opacity="0.3" d="M20.9903 32.7313L20.9932 32.0597C20.9882 32.0423 20.9573 32.0292 20.9214 32.0292L18.9819 32.0292C18.9722 32.0292 18.9628 32.0301 18.9539 32.0319L13.817 32.7035L20.9185 32.772C20.9381 32.772 20.9563 32.7683 20.9701 32.7615C20.9836 32.7547 20.9911 32.7458 20.9911 32.7364L20.9903 32.7313Z" fill="url(#paint20_linear_580_8300)"/>
<path d="M21.207 18.0714C21.207 18.0782 21.2059 18.0851 21.2041 18.0921L21.207 18.7636C21.1865 18.8329 21.0632 18.8853 20.9204 18.8853L18.9809 18.8853C18.9419 18.8853 18.904 18.8815 18.8681 18.8739L13.4898 18.1523C13.4279 18.1394 13.3895 18.1113 13.3895 18.0785C13.3895 18.0333 13.4615 17.9977 13.5536 17.9977L20.9175 17.9292C20.9956 17.9292 21.0684 17.9441 21.1232 17.9712C21.1775 17.9984 21.207 18.0339 21.207 18.0714Z" fill="#F4F4F4"/>
<path opacity="0.5" d="M21.207 18.0714C21.207 18.0782 21.2059 18.0851 21.2041 18.0921L21.207 18.7636C21.1865 18.8329 21.0632 18.8853 20.9204 18.8853L18.9809 18.8853C18.9419 18.8853 18.904 18.8815 18.8681 18.8739L13.4898 18.1523C13.4279 18.1394 13.3895 18.1113 13.3895 18.0785C13.3895 18.0333 13.4615 17.9977 13.5536 17.9977L20.9175 17.9292C20.9956 17.9292 21.0684 17.9441 21.1232 17.9712C21.1775 17.9984 21.207 18.0339 21.207 18.0714Z" fill="url(#paint21_linear_580_8300)"/>
<path d="M13.5322 18.103L18.9106 18.8246C18.9329 18.8293 18.9568 18.8315 18.9811 18.8315L20.9204 18.8315C21.0104 18.8315 21.0867 18.7992 21.0996 18.7555L21.0967 18.0839C21.1127 18.0303 21.0279 17.9821 20.9175 17.9821L13.5536 18.0506C13.4934 18.0508 13.4767 18.0913 13.5322 18.103Z" fill="black"/>
<path d="M20.9893 18.0767L20.9922 18.7483C20.9872 18.7657 20.9563 18.7788 20.9205 18.7788L18.9809 18.7788C18.9712 18.7788 18.9618 18.7778 18.953 18.7761L13.816 18.1045L20.9176 18.036C20.9371 18.036 20.9554 18.0397 20.9691 18.0465C20.9827 18.0533 20.9901 18.0622 20.9901 18.0716L20.9893 18.0767Z" fill="#676B86"/>
<path opacity="0.2" d="M20.9237 18.2979L20.9894 18.0767L20.9902 18.0714C20.9902 18.062 20.9828 18.0531 20.9692 18.0463C20.9555 18.0395 20.9372 18.0358 20.9177 18.0358L13.8162 18.1043L16.2701 18.2193L20.9237 18.2979Z" fill="black"/>
<path opacity="0.5" d="M20.9893 18.0767L20.9922 18.7483C20.9872 18.7657 20.9563 18.7788 20.9205 18.7788L18.9809 18.7788C18.9712 18.7788 18.9618 18.7778 18.953 18.7761L13.816 18.1045L20.9176 18.036C20.9371 18.036 20.9554 18.0397 20.9691 18.0465C20.9827 18.0533 20.9901 18.0622 20.9901 18.0716L20.9893 18.0767Z" fill="url(#paint22_linear_580_8300)"/>
<path opacity="0.3" d="M20.9893 18.0767L20.9922 18.7483C20.9872 18.7657 20.9563 18.7788 20.9205 18.7788L18.9809 18.7788C18.9712 18.7788 18.9618 18.7778 18.953 18.7761L13.816 18.1045L20.9176 18.036C20.9371 18.036 20.9554 18.0397 20.9691 18.0465C20.9827 18.0533 20.9901 18.0622 20.9901 18.0716L20.9893 18.0767Z" fill="url(#paint23_linear_580_8300)"/>
<path d="M14.3411 32.7292L14.9702 34.3613L14.6657 34.3613C14.5224 34.3613 14.3938 34.2731 14.3423 34.1394L13.7987 32.7292L14.3411 32.7292Z" fill="#999999"/>
<path opacity="0.4" d="M14.3787 32.7292L15.0078 34.3613L14.7033 34.3613C14.56 34.3613 14.4314 34.2731 14.3797 34.1394L13.8361 32.7292L14.3787 32.7292Z" fill="url(#paint24_linear_580_8300)"/>
<path d="M14.7677 33.1967L15.1033 34.2269C15.1249 34.2933 15.0755 34.3613 15.0057 34.3613L14.631 34.3613L14.2286 33.1256L14.67 33.1256C14.7144 33.1258 14.7538 33.1546 14.7677 33.1967Z" fill="#666666"/>
<path opacity="0.3" d="M14.7677 33.1967L15.1033 34.2269C15.1249 34.2933 15.0755 34.3613 15.0057 34.3613L14.631 34.3613L14.2286 33.1256L14.67 33.1256C14.7144 33.1258 14.7538 33.1546 14.7677 33.1967Z" fill="url(#paint25_linear_580_8300)"/>
<path d="M14.3411 18.0635L14.9702 16.4314L14.6657 16.4314C14.5224 16.4314 14.3938 16.5196 14.3423 16.6533L13.7987 18.0635L14.3411 18.0635Z" fill="#999999"/>
<path opacity="0.4" d="M14.3787 18.0635L15.0078 16.4314L14.7033 16.4314C14.56 16.4314 14.4314 16.5196 14.3797 16.6533L13.8361 18.0635L14.3787 18.0635Z" fill="url(#paint26_linear_580_8300)"/>
<path d="M14.7677 17.5961L15.1033 16.5659C15.1249 16.4995 15.0755 16.4313 15.0057 16.4313L14.631 16.4313L14.2286 17.667L14.67 17.667C14.7144 17.6668 14.7538 17.6382 14.7677 17.5961Z" fill="#666666"/>
<path opacity="0.3" d="M14.7677 17.5961L15.1033 16.5659C15.1249 16.4995 15.0755 16.4313 15.0057 16.4313L14.631 16.4313L14.2286 17.667L14.67 17.667C14.7144 17.6668 14.7538 17.6382 14.7677 17.5961Z" fill="url(#paint27_linear_580_8300)"/>
<path opacity="0.7" d="M20.9048 21.2816L20.9048 30.0513L19.8266 29.7287L19.8266 20.959L20.9048 21.2816Z" fill="url(#paint28_linear_580_8300)"/>
<path d="M20.6392 21.1249L20.6392 29.7241C20.6392 29.9852 20.4275 30.1968 20.1665 30.1968L19.6637 30.1968C19.4027 30.1968 19.191 29.9852 19.191 29.7241L19.191 21.1249C19.191 20.8638 19.4027 20.6522 19.6637 20.6522L20.1665 20.6522C20.4275 20.6522 20.6392 20.8638 20.6392 21.1249Z" fill="#999999"/>
<path d="M19.1912 21.1252L19.1912 24.3633L20.6392 24.3633L20.6392 21.1252C20.6392 20.8641 20.4275 20.6525 20.1665 20.6525L19.6637 20.6525C19.4028 20.6525 19.1912 20.8641 19.1912 21.1252Z" fill="#5D94FF"/>
<path opacity="0.5" d="M20.2944 24.0181L19.5355 24.0181L19.5355 21.1246C19.5355 21.0541 19.593 20.9966 19.6637 20.9966L20.1662 20.9966C20.2369 20.9966 20.2944 21.054 20.2944 21.1246L20.2944 24.0181Z" fill="#5384E4"/>
<path d="M19.1912 29.7241L19.1912 26.486L20.6392 26.486L20.6392 29.7241C20.6392 29.9852 20.4275 30.1968 20.1665 30.1968L19.6637 30.1968C19.4028 30.1968 19.1912 29.9852 19.1912 29.7241Z" fill="#CC0000"/>
<path opacity="0.3" d="M20.2944 29.7239C20.2944 29.7945 20.2369 29.8521 20.1662 29.8521L19.6637 29.8521C19.593 29.8521 19.5355 29.7947 19.5355 29.7239L19.5355 26.8305L20.2944 26.8305L20.2944 29.7239Z" fill="#660000"/>
<path opacity="0.5" d="M20.6392 21.1249L20.6392 29.7241C20.6392 29.9852 20.4275 30.1968 20.1665 30.1968L19.6637 30.1968C19.4027 30.1968 19.191 29.9852 19.191 29.7241L19.191 21.1249C19.191 20.8638 19.4027 20.6522 19.6637 20.6522L20.1665 20.6522C20.4275 20.6522 20.6392 20.8638 20.6392 21.1249Z" fill="url(#paint29_radial_580_8300)"/>
<path opacity="0.5" d="M20.6392 21.1249L20.6392 29.7241C20.6392 29.9852 20.4275 30.1968 20.1665 30.1968L19.6637 30.1968C19.4027 30.1968 19.191 29.9852 19.191 29.7241L19.191 21.1249C19.191 20.8638 19.4027 20.6522 19.6637 20.6522L20.1665 20.6522C20.4275 20.6522 20.6392 20.8638 20.6392 21.1249Z" fill="url(#paint30_linear_580_8300)"/>
<path d="M19.3112 21.2984L19.3112 29.5504C19.3112 29.801 19.4968 30.0039 19.7257 30.0039L19.9146 30.0039C19.6856 30.0039 19.5 29.8008 19.5 29.5504L19.5 21.2984C19.5 21.048 19.6856 20.8449 19.9145 20.8449L19.7257 20.8449C19.4968 20.8449 19.3112 21.048 19.3112 21.2984Z" fill="url(#paint31_linear_580_8300)"/>
<path d="M20.5186 21.2984L20.5186 29.5504C20.5186 29.801 20.3329 30.0039 20.104 30.0039L19.9152 30.0039C20.1441 30.0039 20.3297 29.8008 20.3297 29.5504L20.3297 21.2984C20.3297 21.048 20.1441 20.8449 19.9152 20.8449L20.104 20.8449C20.3331 20.8449 20.5186 21.048 20.5186 21.2984Z" fill="url(#paint32_linear_580_8300)"/>
<path opacity="0.4" d="M19.2719 29.9873L19.4138 29.8682C19.4621 29.8275 19.5546 29.8023 19.6551 29.8022L20.1748 29.8017C20.2756 29.8015 20.3687 29.8269 20.4171 29.8678L20.5595 29.9873C20.5813 29.9547 20.5976 29.9185 20.6108 29.8808L20.5147 29.8001C20.4637 29.7573 20.3661 29.7306 20.2601 29.7308L19.573 29.7312C19.4679 29.7314 19.3709 29.7577 19.3201 29.8002L19.221 29.8828C19.2341 29.9196 19.2503 29.9553 19.2719 29.9873Z" fill="white"/>
<path opacity="0.4" d="M19.2719 20.8685L19.4138 20.9875C19.4621 21.0282 19.5546 21.0534 19.6551 21.0536L20.1748 21.0541C20.2756 21.0541 20.3687 21.0289 20.4171 20.988L20.5595 20.8685C20.5813 20.9011 20.5976 20.9373 20.6108 20.9749L20.5147 21.0557C20.4637 21.0985 20.3661 21.1252 20.2601 21.125L19.573 21.1244C19.4679 21.1244 19.3709 21.0979 19.3201 21.0554L19.221 20.9728C19.2341 20.936 19.2503 20.9004 19.2719 20.8685Z" fill="white"/>
<path opacity="0.4" d="M19.8806 29.5073L19.9502 29.5073L19.9502 21.3414L19.8806 21.3414L19.8806 29.5073Z" fill="black"/>
<path d="M45.6323 17.2221L45.6323 33.6257C45.6323 33.822 45.4732 33.981 45.2769 33.981L21.8574 33.981C21.6611 33.981 21.502 33.8218 21.502 33.6257L21.502 17.2221C21.502 17.0258 21.6611 16.8667 21.8574 16.8667L45.2769 16.8667C45.4732 16.8667 45.6323 17.0258 45.6323 17.2221Z" fill="#1DCA96"/>
<path d="M45.3916 33.6259C45.3916 33.6889 45.3402 33.7402 45.2774 33.7402L21.8579 33.7402C21.7951 33.7402 21.7437 33.6889 21.7437 33.6259L21.7437 17.2224C21.7437 17.1594 21.7951 17.1082 21.8579 17.1082L45.2774 17.1082C45.3402 17.1082 45.3916 17.1596 45.3916 17.2224L45.3916 33.6259Z" fill="#F5F7EA"/>
<path d="M45.3916 33.6259C45.3916 33.6889 45.3402 33.7402 45.2774 33.7402L21.8579 33.7402C21.7951 33.7402 21.7437 33.6889 21.7437 33.6259L21.7437 17.2224C21.7437 17.1594 21.7951 17.1082 21.8579 17.1082L45.2774 17.1082C45.3402 17.1082 45.3916 17.1596 45.3916 17.2224L45.3916 33.6259Z" fill="url(#paint33_radial_580_8300)"/>
<path opacity="0.2" d="M45.3916 33.6259C45.3916 33.6889 45.3402 33.7402 45.2774 33.7402L21.8579 33.7402C21.7951 33.7402 21.7437 33.6889 21.7437 33.6259L21.7437 17.2224C21.7437 17.1594 21.7951 17.1082 21.8579 17.1082L45.2774 17.1082C45.3402 17.1082 45.3916 17.1596 45.3916 17.2224L45.3916 33.6259Z" fill="#1DCA96"/>
<path d="M45.7536 31.3542L45.6323 31.3542L45.6323 33.0117L45.7536 33.0117C45.8897 33.0117 46 32.9014 46 32.7652L46 31.6006C46 31.4646 45.8897 31.3542 45.7536 31.3542Z" fill="#1DCA96"/>
<path opacity="0.4" d="M45.6735 31.5411L45.6735 32.8252C45.8309 32.8252 45.9585 32.6976 45.9585 32.5402L45.9585 31.826C45.9585 31.6687 45.8309 31.5411 45.6735 31.5411Z" fill="#660000"/>
<path d="M45.6559 32.9102L45.6559 32.9022C45.8007 32.8704 45.9091 32.7418 45.9091 32.5875L45.9091 31.779C45.9091 31.6247 45.8007 31.4961 45.6559 31.4643L45.6559 31.4564C45.8341 31.4564 45.9785 31.6008 45.9785 31.779L45.9785 32.5875C45.9785 32.7657 45.8341 32.9102 45.6559 32.9102Z" fill="url(#paint34_linear_580_8300)"/>
<path opacity="0.6" d="M45.811 31.9029C45.8119 32.0566 45.8129 32.2103 45.814 32.364C45.8145 32.4322 45.8208 32.5065 45.8074 32.5738C45.8019 32.6011 45.7912 32.6544 45.7552 32.6557C45.7198 32.657 45.7143 32.6147 45.7142 32.588C45.7142 32.512 45.7087 31.6451 45.7231 31.6451C45.756 31.6454 45.7843 31.6717 45.7971 31.7023C45.8098 31.7328 45.8101 31.7667 45.8105 31.7997C45.8105 31.8341 45.8108 31.8685 45.811 31.9029Z" fill="url(#paint35_linear_580_8300)"/>
<path d="M45.7536 18.1741L45.6323 18.1741L45.6323 19.8315L45.7536 19.8315C45.8897 19.8315 46 19.7212 46 19.5852L46 18.4206C46 18.2846 45.8897 18.1741 45.7536 18.1741Z" fill="#1DCA96"/>
<path opacity="0.4" d="M45.6735 18.361L45.6735 19.645C45.8309 19.645 45.9585 19.5174 45.9585 19.36L45.9585 18.6458C45.9585 18.4887 45.8309 18.361 45.6735 18.361Z" fill="#660000"/>
<path d="M45.6549 19.7295L45.6549 19.7216C45.7997 19.6897 45.9081 19.5612 45.9081 19.4069L45.9081 18.5983C45.9081 18.4441 45.7997 18.3155 45.6549 18.2836L45.6549 18.2757C45.8331 18.2757 45.9775 18.4201 45.9775 18.5983L45.9775 19.4069C45.9775 19.5851 45.8331 19.7295 45.6549 19.7295Z" fill="url(#paint36_linear_580_8300)"/>
<path opacity="0.6" d="M45.811 18.7227C45.8119 18.8764 45.8129 19.0302 45.814 19.1838C45.8145 19.252 45.8208 19.3263 45.8074 19.3937C45.8019 19.421 45.7912 19.4743 45.7552 19.4756C45.7198 19.4768 45.7143 19.4345 45.7142 19.4079C45.7142 19.3318 45.7087 18.4649 45.7231 18.4649C45.756 18.4652 45.7843 18.4916 45.7971 18.5221C45.8098 18.5526 45.8101 18.5866 45.8105 18.6195C45.8105 18.6541 45.8108 18.6885 45.811 18.7227Z" fill="url(#paint37_linear_580_8300)"/>
<path d="M30.2421 26.7155L32.328 26.7155C32.4248 26.7155 32.5034 26.7939 32.5034 26.8907L32.5034 28.9767C32.5034 29.0735 32.5818 29.1519 32.6786 29.1519L34.4552 29.1519C34.552 29.1519 34.6306 29.0735 34.6306 28.9767L34.6306 26.8907C34.6306 26.7939 34.709 26.7155 34.8058 26.7155L36.8917 26.7155C36.9885 26.7155 37.0669 26.6371 37.0669 26.5401L37.0669 24.7634C37.0669 24.6666 36.9885 24.5882 36.8917 24.5882L34.8058 24.5882C34.709 24.5882 34.6306 24.5098 34.6306 24.4128L34.6306 22.327C34.6306 22.2302 34.5523 22.1519 34.4552 22.1519L32.6786 22.1519C32.5818 22.1519 32.5034 22.2302 32.5034 22.327L32.5034 24.4128C32.5034 24.5096 32.425 24.5882 32.328 24.5882L30.2421 24.5882C30.1453 24.5882 30.0669 24.6666 30.0669 24.7634L30.0669 26.5401C30.0669 26.6371 30.1453 26.7155 30.2421 26.7155Z" fill="#1DCA96"/>
<path d="M45.6323 20.2385L45.6323 30.9795L45.9549 30.9795L45.9549 20.2385L45.6323 20.2385Z" fill="#F5F7EA"/>
<path opacity="0.5" d="M45.9551 20.239L45.9551 30.98L45.6325 30.98L45.6325 20.239L45.9551 20.239Z" fill="url(#paint38_linear_580_8300)"/>
<path opacity="0.5" d="M45.6323 25.5667L45.6323 25.6519L45.9549 25.6519L45.9549 25.5667L45.6323 25.5667Z" fill="#666666"/>
<path d="M45.843 25.9306L45.843 30.7387C45.843 30.7971 45.8901 30.8442 45.9485 30.8442L45.9546 30.8442L45.9546 25.8251L45.9485 25.8251C45.8901 25.8251 45.843 25.8723 45.843 25.9306Z" fill="#AAD5F9"/>
<path d="M45.843 25.9306L45.843 30.7387C45.843 30.7971 45.8901 30.8442 45.9485 30.8442L45.9546 30.8442L45.9546 30.8302C45.9218 30.8123 45.8987 30.7788 45.8987 30.7387L45.8987 25.9306C45.8987 25.8907 45.9218 25.8571 45.9546 25.8392L45.9546 25.8251L45.9485 25.8251C45.8901 25.8251 45.843 25.8723 45.843 25.9306Z" fill="white"/>
<path d="M45.8434 20.4731L45.8434 25.2812C45.8434 25.3395 45.8906 25.3867 45.9489 25.3867L45.9551 25.3867L45.9551 20.3676L45.9489 20.3676C45.8906 20.3677 45.8434 20.4149 45.8434 20.4731Z" fill="#AAD5F9"/>
<path d="M45.8434 20.4731L45.8434 25.2812C45.8434 25.3395 45.8906 25.3867 45.9489 25.3867L45.9551 25.3867L45.9551 25.3727C45.9223 25.3547 45.8992 25.3213 45.8992 25.2812L45.8992 20.4731C45.8992 20.4332 45.9223 20.3996 45.9551 20.3816L45.9551 20.3676L45.9489 20.3676C45.8906 20.3677 45.8434 20.4149 45.8434 20.4731Z" fill="white"/>
<path d="M21.7437 16.8674L15.834 16.8674C15.6595 16.8674 15.4923 16.9367 15.3689 17.06L14.7927 17.6362L21.7437 17.6362L21.7437 16.8674Z" fill="#CCCCCC"/>
<path d="M21.6226 16.9882L21.6226 17.5161L15.083 17.5161L15.4535 17.1455C15.5549 17.0441 15.6898 16.9882 15.8333 16.9882L21.6226 16.9882Z" fill="url(#paint39_linear_580_8300)"/>
<path opacity="0.5" d="M21.7437 16.8674L15.834 16.8674C15.6595 16.8674 15.4923 16.9367 15.3689 17.06L14.7927 17.6362L21.7437 17.6362L21.7437 16.8674Z" fill="url(#paint40_linear_580_8300)"/>
<path opacity="0.4" d="M21.7437 16.8674L15.834 16.8674C15.6595 16.8674 15.4923 16.9367 15.3689 17.06L14.7927 17.6362L21.7437 17.6362L21.7437 16.8674Z" fill="url(#paint41_linear_580_8300)"/>
<mask id="mask1_580_8300" style="mask-type:luminance" maskUnits="userSpaceOnUse" x="15" y="16" width="7" height="2">
<path d="M21.6226 16.9882L21.6226 17.5161L15.083 17.5161L15.4535 17.1455C15.5549 17.0441 15.6898 16.9882 15.8333 16.9882L21.6226 16.9882Z" fill="white"/>
</mask>
<g mask="url(#mask1_580_8300)">
<path d="M21.5713 17.3965C21.5457 17.3508 21.5412 17.3046 21.5412 17.3046C21.5412 17.3046 21.5782 17.3326 21.6037 17.3783C21.6293 17.424 21.6338 17.4702 21.6338 17.4702C21.6338 17.4702 21.5968 17.4423 21.5713 17.3965Z" fill="#999999"/>
<path d="M21.3623 17.0346C21.3368 16.9889 21.3322 16.9428 21.3322 16.9428C21.3322 16.9428 21.3692 16.9708 21.3948 17.0165C21.4203 17.0622 21.4248 17.1084 21.4248 17.1084C21.4248 17.1084 21.3878 17.0803 21.3623 17.0346Z" fill="#999999"/>
<path d="M21.4916 17.2219C21.4459 17.2474 21.3998 17.252 21.3998 17.252C21.3998 17.252 21.4278 17.215 21.4735 17.1894C21.5192 17.1639 21.5654 17.1594 21.5654 17.1594C21.5654 17.1594 21.5373 17.1964 21.4916 17.2219Z" fill="#999999"/>
<path d="M21.3638 17.449C21.3181 17.4745 21.2719 17.479 21.2719 17.479C21.2719 17.479 21.2999 17.442 21.3456 17.4165C21.3913 17.391 21.4375 17.3864 21.4375 17.3864C21.4375 17.3864 21.4096 17.4234 21.3638 17.449Z" fill="#999999"/>
<path d="M21.1557 17.0873C21.1099 17.1128 21.0639 17.1172 21.0639 17.1172C21.0639 17.1172 21.0919 17.0802 21.1376 17.0547C21.1833 17.0291 21.2295 17.0248 21.2295 17.0248C21.2295 17.0248 21.2014 17.0618 21.1557 17.0873Z" fill="#999999"/>
<path d="M21.2654 17.2416C21.2909 17.2873 21.2954 17.3335 21.2954 17.3335C21.2954 17.3335 21.2584 17.3055 21.2329 17.2598C21.2074 17.2141 21.2028 17.1681 21.2028 17.1681C21.2028 17.1681 21.2398 17.196 21.2654 17.2416Z" fill="#999999"/>
<path d="M21.0845 17.5201C21.0589 17.4744 21.0546 17.4282 21.0546 17.4282C21.0546 17.4282 21.0916 17.4561 21.1171 17.5018C21.1426 17.5475 21.147 17.5938 21.147 17.5938C21.147 17.5938 21.11 17.5658 21.0845 17.5201Z" fill="#999999"/>
<path d="M20.8764 17.1583C20.8509 17.1126 20.8466 17.0663 20.8466 17.0663C20.8466 17.0663 20.8836 17.0943 20.9091 17.14C20.9346 17.1857 20.939 17.2319 20.939 17.2319C20.939 17.2319 20.902 17.204 20.8764 17.1583Z" fill="#999999"/>
<path d="M21.0041 17.3454C20.9584 17.371 20.9122 17.3755 20.9122 17.3755C20.9122 17.3755 20.9402 17.3385 20.9859 17.313C21.0316 17.2874 21.0776 17.2829 21.0776 17.2829C21.0776 17.2829 21.0499 17.3199 21.0041 17.3454Z" fill="#999999"/>
<path d="M20.877 17.5725C20.8313 17.598 20.7851 17.6025 20.7851 17.6025C20.7851 17.6025 20.813 17.5655 20.8588 17.54C20.9045 17.5145 20.9507 17.51 20.9507 17.51C20.9507 17.51 20.9227 17.547 20.877 17.5725Z" fill="#999999"/>
<path d="M20.6692 17.2107C20.6234 17.2362 20.5772 17.2407 20.5772 17.2407C20.5772 17.2407 20.6052 17.2037 20.6509 17.1782C20.6966 17.1527 20.7427 17.1483 20.7427 17.1483C20.7427 17.1483 20.7149 17.1851 20.6692 17.2107Z" fill="#999999"/>
<path d="M20.7787 17.3651C20.8042 17.4108 20.8086 17.457 20.8086 17.457C20.8086 17.457 20.7716 17.4291 20.7461 17.3834C20.7206 17.3376 20.7162 17.2914 20.7162 17.2914C20.7162 17.2914 20.7532 17.3194 20.7787 17.3651Z" fill="#999999"/>
<path d="M20.5935 17.0165C20.619 17.0622 20.6235 17.1084 20.6235 17.1084C20.6235 17.1084 20.5865 17.0804 20.561 17.0347C20.5355 16.989 20.531 16.943 20.531 16.943C20.531 16.943 20.568 16.9708 20.5935 17.0165Z" fill="#999999"/>
<path d="M20.5521 17.4833C20.5064 17.5088 20.4604 17.5132 20.4604 17.5132C20.4604 17.5132 20.4883 17.4762 20.5341 17.4507C20.5798 17.4251 20.626 17.4206 20.626 17.4206C20.626 17.4206 20.5979 17.4576 20.5521 17.4833Z" fill="#999999"/>
<path d="M20.3443 17.1215C20.2986 17.147 20.2524 17.1514 20.2524 17.1514C20.2524 17.1514 20.2803 17.1144 20.326 17.0888C20.3718 17.0633 20.418 17.059 20.418 17.059C20.418 17.059 20.39 17.096 20.3443 17.1215Z" fill="#999999"/>
<path d="M20.4545 17.2767C20.48 17.3224 20.4844 17.3687 20.4844 17.3687C20.4844 17.3687 20.4474 17.3407 20.4219 17.295C20.3963 17.2493 20.392 17.2031 20.392 17.2031C20.392 17.2031 20.429 17.231 20.4545 17.2767Z" fill="#999999"/>
<path d="M20.2726 17.5536C20.2471 17.5079 20.2426 17.4619 20.2426 17.4619C20.2426 17.4619 20.2795 17.4898 20.3051 17.5355C20.3306 17.5812 20.335 17.6274 20.335 17.6274C20.335 17.6274 20.2981 17.5993 20.2726 17.5536Z" fill="#999999"/>
<path d="M20.0649 17.1918C20.0394 17.1461 20.0349 17.1 20.0349 17.1C20.0349 17.1 20.0719 17.128 20.0974 17.1737C20.1229 17.2194 20.1274 17.2656 20.1274 17.2656C20.1274 17.2656 20.0904 17.2375 20.0649 17.1918Z" fill="#999999"/>
<path d="M20.1929 17.3786C20.1472 17.4042 20.101 17.4087 20.101 17.4087C20.101 17.4087 20.129 17.3717 20.1747 17.3462C20.2204 17.3206 20.2666 17.3161 20.2666 17.3161C20.2666 17.3161 20.2387 17.3531 20.1929 17.3786Z" fill="#999999"/>
<path d="M19.857 17.2445C19.8113 17.2701 19.7651 17.2744 19.7651 17.2744C19.7651 17.2744 19.793 17.2374 19.8387 17.2119C19.8845 17.1864 19.9307 17.182 19.9307 17.182C19.9307 17.182 19.9027 17.2188 19.857 17.2445Z" fill="#999999"/>
<path d="M19.9665 17.3993C19.9921 17.445 19.9966 17.4912 19.9966 17.4912C19.9966 17.4912 19.9596 17.4633 19.9341 17.4175C19.9085 17.3718 19.904 17.3256 19.904 17.3256C19.904 17.3256 19.941 17.3536 19.9665 17.3993Z" fill="#999999"/>
<path d="M19.7815 17.0502C19.807 17.0959 19.8115 17.1421 19.8115 17.1421C19.8115 17.1421 19.7745 17.1141 19.749 17.0684C19.7235 17.0227 19.7191 16.9765 19.7191 16.9765C19.7191 16.9765 19.756 17.0045 19.7815 17.0502Z" fill="#999999"/>
<path d="M19.7374 17.4838C19.6917 17.5093 19.6454 17.5137 19.6454 17.5137C19.6454 17.5137 19.6734 17.4767 19.7191 17.4512C19.7648 17.4256 19.811 17.4211 19.811 17.4211C19.811 17.4211 19.7831 17.4581 19.7374 17.4838Z" fill="#999999"/>
<path d="M19.5292 17.122C19.4835 17.1475 19.4374 17.1519 19.4374 17.1519C19.4374 17.1519 19.4654 17.1149 19.5111 17.0893C19.5568 17.0638 19.603 17.0594 19.603 17.0594C19.603 17.0594 19.5749 17.0964 19.5292 17.122Z" fill="#999999"/>
<path d="M19.6391 17.2772C19.6646 17.3229 19.6689 17.3691 19.6689 17.3691C19.6689 17.3691 19.632 17.3412 19.6064 17.2955C19.5809 17.2498 19.5765 17.2036 19.5765 17.2036C19.5765 17.2036 19.6135 17.2315 19.6391 17.2772Z" fill="#999999"/>
<path d="M19.4573 17.5541C19.4318 17.5084 19.4275 17.4623 19.4275 17.4623C19.4275 17.4623 19.4644 17.4903 19.49 17.536C19.5155 17.5817 19.52 17.6279 19.52 17.6279C19.52 17.6279 19.4829 17.5998 19.4573 17.5541Z" fill="#999999"/>
<path d="M19.2495 17.1928C19.224 17.1471 19.2194 17.101 19.2194 17.101C19.2194 17.101 19.2564 17.129 19.282 17.1747C19.3075 17.2204 19.312 17.2666 19.312 17.2666C19.312 17.2666 19.275 17.2385 19.2495 17.1928Z" fill="#999999"/>
<path d="M19.3775 17.3796C19.3318 17.4051 19.2856 17.4097 19.2856 17.4097C19.2856 17.4097 19.3135 17.3727 19.3593 17.3471C19.405 17.3216 19.4512 17.3171 19.4512 17.3171C19.4512 17.3171 19.4232 17.3541 19.3775 17.3796Z" fill="#999999"/>
<path d="M19.0417 17.245C18.996 17.2705 18.9498 17.2749 18.9498 17.2749C18.9498 17.2749 18.9778 17.2379 19.0235 17.2124C19.0692 17.1869 19.1152 17.1825 19.1152 17.1825C19.1152 17.1825 19.0875 17.2193 19.0417 17.245Z" fill="#999999"/>
<path d="M19.1516 17.3993C19.1771 17.445 19.1816 17.4912 19.1816 17.4912C19.1816 17.4912 19.1446 17.4633 19.1191 17.4175C19.0936 17.3718 19.0891 17.3256 19.0891 17.3256C19.0891 17.3256 19.1261 17.3536 19.1516 17.3993Z" fill="#999999"/>
<path d="M18.9662 17.0507C18.9917 17.0964 18.9961 17.1426 18.9961 17.1426C18.9961 17.1426 18.9591 17.1146 18.9336 17.0689C18.9081 17.0232 18.9037 16.977 18.9037 16.977C18.9037 16.977 18.9407 17.0049 18.9662 17.0507Z" fill="#999999"/>
<path d="M18.9231 17.4833C18.8774 17.5088 18.8312 17.5132 18.8312 17.5132C18.8312 17.5132 18.8591 17.4762 18.9048 17.4507C18.9505 17.4251 18.9966 17.4206 18.9966 17.4206C18.9966 17.4206 18.9688 17.4576 18.9231 17.4833Z" fill="#999999"/>
<path d="M18.7149 17.1215C18.6692 17.147 18.623 17.1514 18.623 17.1514C18.623 17.1514 18.6509 17.1144 18.6967 17.0888C18.7424 17.0633 18.7886 17.059 18.7886 17.059C18.7886 17.059 18.7606 17.096 18.7149 17.1215Z" fill="#999999"/>
<path d="M18.8244 17.2762C18.85 17.322 18.8545 17.3682 18.8545 17.3682C18.8545 17.3682 18.8175 17.3402 18.792 17.2945C18.7664 17.2488 18.7621 17.2026 18.7621 17.2026C18.7621 17.2026 18.7989 17.2305 18.8244 17.2762Z" fill="#999999"/>
<path d="M18.6435 17.5536C18.618 17.5079 18.6136 17.4619 18.6136 17.4619C18.6136 17.4619 18.6506 17.4898 18.6762 17.5355C18.7017 17.5812 18.7061 17.6274 18.7061 17.6274C18.7061 17.6274 18.6691 17.5993 18.6435 17.5536Z" fill="#999999"/>
<path d="M18.4354 17.1918C18.4098 17.1461 18.4055 17.1 18.4055 17.1C18.4055 17.1 18.4425 17.128 18.468 17.1737C18.4935 17.2194 18.498 17.2656 18.498 17.2656C18.498 17.2656 18.4609 17.2375 18.4354 17.1918Z" fill="#999999"/>
<path d="M18.5639 17.3786C18.5181 17.4042 18.4721 17.4087 18.4721 17.4087C18.4721 17.4087 18.5001 17.3717 18.5458 17.3462C18.5915 17.3206 18.6377 17.3161 18.6377 17.3161C18.6377 17.3161 18.6096 17.3531 18.5639 17.3786Z" fill="#999999"/>
<path d="M18.2271 17.245C18.1814 17.2705 18.1352 17.2749 18.1352 17.2749C18.1352 17.2749 18.1631 17.2379 18.2089 17.2124C18.2546 17.1869 18.3008 17.1825 18.3008 17.1825C18.3008 17.1825 18.2728 17.2193 18.2271 17.245Z" fill="#999999"/>
<path d="M18.3371 17.3993C18.3627 17.445 18.3672 17.4912 18.3672 17.4912C18.3672 17.4912 18.3302 17.4633 18.3047 17.4175C18.2791 17.3718 18.2746 17.3256 18.2746 17.3256C18.2746 17.3256 18.3116 17.3536 18.3371 17.3993Z" fill="#999999"/>
<path d="M18.1518 17.0507C18.1773 17.0964 18.1816 17.1426 18.1816 17.1426C18.1816 17.1426 18.1446 17.1146 18.1191 17.0689C18.0936 17.0232 18.0892 16.977 18.0892 16.977C18.0892 16.977 18.1261 17.0049 18.1518 17.0507Z" fill="#999999"/>
<path d="M18.1085 17.4838C18.0627 17.5093 18.0165 17.5137 18.0165 17.5137C18.0165 17.5137 18.0445 17.4767 18.0902 17.4512C18.1359 17.4256 18.1821 17.4211 18.1821 17.4211C18.1821 17.4211 18.1542 17.4581 18.1085 17.4838Z" fill="#999999"/>
<path d="M17.9006 17.122C17.8549 17.1475 17.8087 17.1519 17.8087 17.1519C17.8087 17.1519 17.8366 17.1149 17.8824 17.0893C17.9281 17.0638 17.9741 17.0594 17.9741 17.0594C17.9741 17.0594 17.9463 17.0964 17.9006 17.122Z" fill="#999999"/>
<path d="M18.0105 17.2772C18.036 17.3229 18.0405 17.3691 18.0405 17.3691C18.0405 17.3691 18.0035 17.3412 17.978 17.2955C17.9525 17.2498 17.9481 17.2036 17.9481 17.2036C17.9481 17.2036 17.985 17.2315 18.0105 17.2772Z" fill="#999999"/>
<path d="M17.8291 17.5541C17.8036 17.5084 17.7992 17.4623 17.7992 17.4623C17.7992 17.4623 17.8362 17.4903 17.8617 17.536C17.8872 17.5817 17.8916 17.6279 17.8916 17.6279C17.8916 17.6279 17.8546 17.5998 17.8291 17.5541Z" fill="#999999"/>
<path d="M17.6216 17.1923C17.596 17.1466 17.5917 17.1005 17.5917 17.1005C17.5917 17.1005 17.6287 17.1285 17.6542 17.1742C17.6797 17.2199 17.6841 17.2661 17.6841 17.2661C17.6841 17.2661 17.6471 17.238 17.6216 17.1923Z" fill="#999999"/>
<path d="M17.7491 17.3791C17.7034 17.4047 17.6572 17.4092 17.6572 17.4092C17.6572 17.4092 17.6851 17.3722 17.7308 17.3467C17.7766 17.3211 17.8228 17.3166 17.8228 17.3166C17.8228 17.3166 17.7948 17.3536 17.7491 17.3791Z" fill="#999999"/>
<path d="M17.4136 17.245C17.3679 17.2705 17.3217 17.2749 17.3217 17.2749C17.3217 17.2749 17.3497 17.2379 17.3954 17.2124C17.4411 17.1869 17.4873 17.1825 17.4873 17.1825C17.4873 17.1825 17.4594 17.2193 17.4136 17.245Z" fill="#999999"/>
<path d="M17.5248 17.3993C17.5503 17.445 17.5547 17.4912 17.5547 17.4912C17.5547 17.4912 17.5177 17.4633 17.4922 17.4175C17.4666 17.3718 17.4623 17.3256 17.4623 17.3256C17.4623 17.3256 17.4993 17.3536 17.5248 17.3993Z" fill="#999999"/>
<path d="M17.3383 17.0507C17.3638 17.0964 17.3682 17.1426 17.3682 17.1426C17.3682 17.1426 17.3312 17.1146 17.3056 17.0689C17.2801 17.0232 17.2758 16.977 17.2758 16.977C17.2758 16.977 17.3126 17.0049 17.3383 17.0507Z" fill="#999999"/>
<path d="M17.294 17.4833C17.2483 17.5088 17.2021 17.5132 17.2021 17.5132C17.2021 17.5132 17.23 17.4762 17.2758 17.4507C17.3215 17.4251 17.3677 17.4206 17.3677 17.4206C17.3677 17.4206 17.3397 17.4576 17.294 17.4833Z" fill="#999999"/>
<path d="M17.086 17.1215C17.0403 17.147 16.9941 17.1514 16.9941 17.1514C16.9941 17.1514 17.022 17.1144 17.0677 17.0888C17.1135 17.0633 17.1597 17.059 17.1597 17.059C17.1597 17.059 17.1317 17.096 17.086 17.1215Z" fill="#999999"/>
<path d="M17.1955 17.2767C17.2211 17.3224 17.2256 17.3687 17.2256 17.3687C17.2256 17.3687 17.1886 17.3407 17.1631 17.295C17.1375 17.2493 17.133 17.2031 17.133 17.2031C17.133 17.2031 17.17 17.231 17.1955 17.2767Z" fill="#999999"/>
<path d="M17.0148 17.5536C16.9893 17.5079 16.9847 17.4619 16.9847 17.4619C16.9847 17.4619 17.0217 17.4898 17.0473 17.5355C17.0728 17.5812 17.0771 17.6274 17.0771 17.6274C17.0771 17.6274 17.0403 17.5993 17.0148 17.5536Z" fill="#999999"/>
<path d="M16.8071 17.1918C16.7816 17.1461 16.7772 17.1 16.7772 17.1C16.7772 17.1 16.8142 17.128 16.8397 17.1737C16.8653 17.2194 16.8696 17.2656 16.8696 17.2656C16.8696 17.2656 16.8326 17.2375 16.8071 17.1918Z" fill="#999999"/>
<path d="M16.9348 17.3786C16.8891 17.4042 16.8429 17.4087 16.8429 17.4087C16.8429 17.4087 16.8708 17.3717 16.9165 17.3462C16.9623 17.3206 17.0083 17.3161 17.0083 17.3161C17.0083 17.3161 16.9805 17.3531 16.9348 17.3786Z" fill="#999999"/>
<path d="M16.5982 17.245C16.5525 17.2705 16.5063 17.2749 16.5063 17.2749C16.5063 17.2749 16.5342 17.2379 16.58 17.2124C16.6257 17.1869 16.6719 17.1825 16.6719 17.1825C16.6719 17.1825 16.6439 17.2193 16.5982 17.245Z" fill="#999999"/>
<path d="M16.7089 17.3988C16.7344 17.4445 16.7388 17.4907 16.7388 17.4907C16.7388 17.4907 16.7018 17.4628 16.6763 17.4171C16.6507 17.3713 16.6462 17.3251 16.6462 17.3251C16.6462 17.3251 16.6834 17.3531 16.7089 17.3988Z" fill="#999999"/>
<path d="M16.5227 17.0507C16.5482 17.0964 16.5527 17.1426 16.5527 17.1426C16.5527 17.1426 16.5157 17.1146 16.4902 17.0689C16.4647 17.0232 16.4602 16.977 16.4602 16.977C16.4602 16.977 16.4972 17.0049 16.5227 17.0507Z" fill="#999999"/>
<path d="M16.4799 17.4838C16.4342 17.5093 16.3881 17.5137 16.3881 17.5137C16.3881 17.5137 16.4161 17.4767 16.4618 17.4512C16.5075 17.4256 16.5537 17.4211 16.5537 17.4211C16.5537 17.4211 16.5256 17.4581 16.4799 17.4838Z" fill="#999999"/>
<path d="M16.272 17.122C16.2263 17.1475 16.1801 17.1519 16.1801 17.1519C16.1801 17.1519 16.2081 17.1149 16.2538 17.0893C16.2995 17.0638 16.3457 17.0594 16.3457 17.0594C16.3457 17.0594 16.3176 17.0964 16.272 17.122Z" fill="#999999"/>
<path d="M16.3821 17.2772C16.4076 17.3229 16.4121 17.3691 16.4121 17.3691C16.4121 17.3691 16.3751 17.3412 16.3496 17.2955C16.3241 17.2498 16.3197 17.2036 16.3197 17.2036C16.3197 17.2036 16.3565 17.2315 16.3821 17.2772Z" fill="#999999"/>
<path d="M16.2005 17.5541C16.175 17.5084 16.1706 17.4623 16.1706 17.4623C16.1706 17.4623 16.2076 17.4903 16.2331 17.536C16.2587 17.5817 16.2632 17.6279 16.2632 17.6279C16.2632 17.6279 16.226 17.5998 16.2005 17.5541Z" fill="#999999"/>
<path d="M15.9928 17.1923C15.9673 17.1466 15.9628 17.1005 15.9628 17.1005C15.9628 17.1005 15.9998 17.1285 16.0253 17.1742C16.0508 17.2199 16.0552 17.2661 16.0552 17.2661C16.0552 17.2661 16.0183 17.238 15.9928 17.1923Z" fill="#999999"/>
<path d="M16.121 17.3791C16.0753 17.4047 16.0292 17.4092 16.0292 17.4092C16.0292 17.4092 16.0572 17.3722 16.1029 17.3467C16.1486 17.3211 16.1948 17.3166 16.1948 17.3166C16.1948 17.3166 16.1667 17.3536 16.121 17.3791Z" fill="#999999"/>
<path d="M15.7846 17.245C15.7389 17.2705 15.6928 17.2749 15.6928 17.2749C15.6928 17.2749 15.7208 17.2379 15.7665 17.2124C15.8122 17.1869 15.8584 17.1825 15.8584 17.1825C15.8584 17.1825 15.8303 17.2193 15.7846 17.245Z" fill="#999999"/>
<path d="M15.8949 17.3993C15.9204 17.445 15.9248 17.4912 15.9248 17.4912C15.9248 17.4912 15.8878 17.4633 15.8623 17.4175C15.8368 17.3718 15.8324 17.3256 15.8324 17.3256C15.8324 17.3256 15.8694 17.3536 15.8949 17.3993Z" fill="#999999"/>
<path d="M15.7092 17.0507C15.7347 17.0964 15.7393 17.1426 15.7393 17.1426C15.7393 17.1426 15.7023 17.1146 15.6767 17.0689C15.6512 17.0232 15.6467 16.977 15.6467 16.977C15.6467 16.977 15.6837 17.0049 15.7092 17.0507Z" fill="#999999"/>
<path d="M15.6651 17.4833C15.6194 17.5088 15.5732 17.5132 15.5732 17.5132C15.5732 17.5132 15.6011 17.4762 15.6468 17.4507C15.6926 17.4251 15.7388 17.4206 15.7388 17.4206C15.7388 17.4206 15.7108 17.4576 15.6651 17.4833Z" fill="#999999"/>
<path d="M15.4571 17.1215C15.4114 17.147 15.3652 17.1514 15.3652 17.1514C15.3652 17.1514 15.3931 17.1144 15.4388 17.0888C15.4846 17.0633 15.5308 17.059 15.5308 17.059C15.5308 17.059 15.5026 17.096 15.4571 17.1215Z" fill="#999999"/>
<path d="M15.5668 17.2767C15.5923 17.3224 15.5967 17.3687 15.5967 17.3687C15.5967 17.3687 15.5597 17.3407 15.5342 17.295C15.5086 17.2493 15.5041 17.2031 15.5041 17.2031C15.5041 17.2031 15.5413 17.231 15.5668 17.2767Z" fill="#999999"/>
<path d="M15.3852 17.5536C15.3597 17.5079 15.3552 17.4619 15.3552 17.4619C15.3552 17.4619 15.3922 17.4898 15.4177 17.5355C15.4432 17.5812 15.4478 17.6274 15.4478 17.6274C15.4478 17.6274 15.4108 17.5993 15.3852 17.5536Z" fill="#999999"/>
<path d="M15.1777 17.1923C15.1522 17.1466 15.1477 17.1005 15.1477 17.1005C15.1477 17.1005 15.1847 17.1285 15.2102 17.1742C15.2357 17.2199 15.2402 17.2661 15.2402 17.2661C15.2402 17.2661 15.2032 17.238 15.1777 17.1923Z" fill="#999999"/>
<path d="M15.3052 17.3786C15.2595 17.4042 15.2133 17.4087 15.2133 17.4087C15.2133 17.4087 15.2413 17.3717 15.287 17.3462C15.3327 17.3206 15.3789 17.3161 15.3789 17.3161C15.3789 17.3161 15.351 17.3531 15.3052 17.3786Z" fill="#999999"/>
<path d="M15.0793 17.3993C15.1049 17.445 15.1094 17.4912 15.1094 17.4912C15.1094 17.4912 15.0724 17.4633 15.0469 17.4175C15.0213 17.3718 15.0168 17.3256 15.0168 17.3256C15.0168 17.3256 15.0538 17.3536 15.0793 17.3993Z" fill="#999999"/>
</g>
<defs>
<linearGradient id="paint0_linear_580_8300" x1="22.7952" y1="33.623" x2="5.76758" y2="33.3015" gradientUnits="userSpaceOnUse">
<stop stop-color="#C7C5C5"/>
<stop offset="0.0359" stop-color="#676767"/>
<stop offset="0.1123" stop-color="white"/>
<stop offset="0.3019" stop-color="#929292"/>
<stop offset="0.492" stop-color="white"/>
<stop offset="0.6257" stop-color="#676767"/>
<stop offset="0.7701" stop-color="#929292"/>
<stop offset="0.8233" stop-color="#C7C5C5"/>
<stop offset="1" stop-color="#343433"/>
</linearGradient>
<linearGradient id="paint1_linear_580_8300" x1="18.2681" y1="33.1659" x2="18.2681" y2="33.3166" gradientUnits="userSpaceOnUse">
<stop offset="0.0051"/>
<stop offset="1" stop-opacity="0"/>
</linearGradient>
<linearGradient id="paint2_linear_580_8300" x1="21.7436" y1="33.5461" x2="21.2145" y2="33.5461" gradientUnits="userSpaceOnUse">
<stop offset="0.0051"/>
<stop offset="1" stop-opacity="0"/>
</linearGradient>
<linearGradient id="paint3_linear_580_8300" x1="6.40849" y1="31.2434" x2="6.38576" y2="30.728" gradientUnits="userSpaceOnUse">
<stop stop-color="#C7C5C5"/>
<stop offset="0.0359" stop-color="#676767"/>
<stop offset="0.1123" stop-color="white"/>
<stop offset="0.3019" stop-color="#929292"/>
<stop offset="0.492" stop-color="white"/>
<stop offset="0.6809" stop-color="#676767"/>
<stop offset="0.7701" stop-color="#929292"/>
<stop offset="0.8233" stop-color="#C7C5C5"/>
<stop offset="1" stop-color="#343433"/>
</linearGradient>
<linearGradient id="paint4_linear_580_8300" x1="6.40841" y1="29.8674" x2="6.38583" y2="30.3797" gradientUnits="userSpaceOnUse">
<stop stop-color="#C7C5C5"/>
<stop offset="0.0359" stop-color="#676767"/>
<stop offset="0.1123" stop-color="white"/>
<stop offset="0.3019" stop-color="#929292"/>
<stop offset="0.492" stop-color="white"/>
<stop offset="0.6809" stop-color="#676767"/>
<stop offset="0.7701" stop-color="#929292"/>
<stop offset="0.8233" stop-color="#C7C5C5"/>
<stop offset="1" stop-color="#343433"/>
</linearGradient>
<linearGradient id="paint5_linear_580_8300" x1="6.54956" y1="31.3539" x2="6.54956" y2="28.8618" gradientUnits="userSpaceOnUse">
<stop stop-color="#C7C5C5"/>
<stop offset="0.0359" stop-color="#676767"/>
<stop offset="0.1123" stop-color="white"/>
<stop offset="0.3019" stop-color="#929292"/>
<stop offset="0.492" stop-color="white"/>
<stop offset="0.6257" stop-color="#676767"/>
<stop offset="0.7701" stop-color="#929292"/>
<stop offset="0.8233" stop-color="#C7C5C5"/>
<stop offset="1" stop-color="#343433"/>
</linearGradient>
<linearGradient id="paint6_linear_580_8300" x1="6.40849" y1="20.9841" x2="6.38576" y2="20.4687" gradientUnits="userSpaceOnUse">
<stop stop-color="#C7C5C5"/>
<stop offset="0.0359" stop-color="#676767"/>
<stop offset="0.1123" stop-color="white"/>
<stop offset="0.3019" stop-color="#929292"/>
<stop offset="0.492" stop-color="white"/>
<stop offset="0.6809" stop-color="#676767"/>
<stop offset="0.7701" stop-color="#929292"/>
<stop offset="0.8233" stop-color="#C7C5C5"/>
<stop offset="1" stop-color="#343433"/>
</linearGradient>
<linearGradient id="paint7_linear_580_8300" x1="6.40841" y1="19.608" x2="6.38583" y2="20.1203" gradientUnits="userSpaceOnUse">
<stop stop-color="#C7C5C5"/>
<stop offset="0.0359" stop-color="#676767"/>
<stop offset="0.1123" stop-color="white"/>
<stop offset="0.3019" stop-color="#929292"/>
<stop offset="0.492" stop-color="white"/>
<stop offset="0.6809" stop-color="#676767"/>
<stop offset="0.7701" stop-color="#929292"/>
<stop offset="0.8233" stop-color="#C7C5C5"/>
<stop offset="1" stop-color="#343433"/>
</linearGradient>
<linearGradient id="paint8_linear_580_8300" x1="6.54956" y1="21.0945" x2="6.54956" y2="18.6024" gradientUnits="userSpaceOnUse">
<stop stop-color="#C7C5C5"/>
<stop offset="0.0359" stop-color="#676767"/>
<stop offset="0.1123" stop-color="white"/>
<stop offset="0.3019" stop-color="#929292"/>
<stop offset="0.492" stop-color="white"/>
<stop offset="0.6257" stop-color="#676767"/>
<stop offset="0.7701" stop-color="#929292"/>
<stop offset="0.8233" stop-color="#C7C5C5"/>
<stop offset="1" stop-color="#343433"/>
</linearGradient>
<linearGradient id="paint9_linear_580_8300" x1="7.65193" y1="34.1122" x2="7.77247" y2="9.09826" gradientUnits="userSpaceOnUse">
<stop stop-color="#C7C5C5"/>
<stop offset="0.0359" stop-color="#676767"/>
<stop offset="0.1123" stop-color="white"/>
<stop offset="0.3019" stop-color="#929292"/>
<stop offset="0.492" stop-color="white"/>
<stop offset="0.6257" stop-color="#676767"/>
<stop offset="0.7701" stop-color="#929292"/>
<stop offset="0.8233" stop-color="#C7C5C5"/>
<stop offset="1" stop-color="#343433"/>
</linearGradient>
<linearGradient id="paint10_linear_580_8300" x1="7.65193" y1="34.1122" x2="7.77247" y2="9.09826" gradientUnits="userSpaceOnUse">
<stop stop-color="#C7C5C5"/>
<stop offset="0.0359" stop-color="#676767"/>
<stop offset="0.1123" stop-color="white"/>
<stop offset="0.3019" stop-color="#929292"/>
<stop offset="0.492" stop-color="white"/>
<stop offset="0.6257" stop-color="#676767"/>
<stop offset="0.7701" stop-color="#929292"/>
<stop offset="0.8233" stop-color="#C7C5C5"/>
<stop offset="1" stop-color="#343433"/>
</linearGradient>
<radialGradient id="paint11_radial_580_8300" cx="0" cy="0" r="1" gradientUnits="userSpaceOnUse" gradientTransform="translate(13.8273 35.0992) rotate(-90) scale(18.0444 18.0446)">
<stop offset="0.0102"/>
<stop offset="1" stop-opacity="0"/>
</radialGradient>
<linearGradient id="paint12_linear_580_8300" x1="14.3628" y1="32.73" x2="14.3628" y2="18.1188" gradientUnits="userSpaceOnUse">
<stop offset="0.3386" stop-color="white" stop-opacity="0"/>
<stop offset="0.6521" stop-color="white"/>
</linearGradient>
<linearGradient id="paint13_linear_580_8300" x1="12.4065" y1="29.2312" x2="12.3692" y2="29.7299" gradientUnits="userSpaceOnUse">
<stop offset="0.0051"/>
<stop offset="1" stop-opacity="0"/>
</linearGradient>
<linearGradient id="paint14_linear_580_8300" x1="12.4065" y1="21.6243" x2="12.3691" y2="21.1256" gradientUnits="userSpaceOnUse">
<stop offset="0.0051" stop-color="#999999"/>
<stop offset="1" stop-color="#999999" stop-opacity="0"/>
</linearGradient>
<linearGradient id="paint15_linear_580_8300" x1="12.0411" y1="25.4238" x2="12.4711" y2="25.4238" gradientUnits="userSpaceOnUse">
<stop offset="0.0051"/>
<stop offset="1" stop-opacity="0"/>
</linearGradient>
<radialGradient id="paint16_radial_580_8300" cx="0" cy="0" r="1" gradientUnits="userSpaceOnUse" gradientTransform="translate(15.0196 32.2554) rotate(-90) scale(11.9321 11.9322)">
<stop stop-color="white" stop-opacity="0"/>
<stop offset="1" stop-color="white"/>
</radialGradient>
<radialGradient id="paint17_radial_580_8300" cx="0" cy="0" r="1" gradientUnits="userSpaceOnUse" gradientTransform="translate(15.7005 30.8831) rotate(-90) scale(11.4863 11.4864)">
<stop offset="0.0102"/>
<stop offset="1" stop-opacity="0"/>
</radialGradient>
<linearGradient id="paint18_linear_580_8300" x1="17.2993" y1="32.8856" x2="17.2993" y2="32.8271" gradientUnits="userSpaceOnUse">
<stop offset="0.0051"/>
<stop offset="1" stop-opacity="0"/>
</linearGradient>
<linearGradient id="paint19_linear_580_8300" x1="17.4052" y1="32.768" x2="17.4052" y2="32.527" gradientUnits="userSpaceOnUse">
<stop stop-color="white"/>
<stop offset="1" stop-color="white" stop-opacity="0"/>
</linearGradient>
<linearGradient id="paint20_linear_580_8300" x1="17.4052" y1="32.3665" x2="17.4052" y2="32.0411" gradientUnits="userSpaceOnUse">
<stop stop-opacity="0"/>
<stop offset="0.9898"/>
</linearGradient>
<linearGradient id="paint21_linear_580_8300" x1="17.2983" y1="17.9222" x2="17.2983" y2="17.9807" gradientUnits="userSpaceOnUse">
<stop offset="0.0051"/>
<stop offset="1" stop-opacity="0"/>
</linearGradient>
<linearGradient id="paint22_linear_580_8300" x1="17.4042" y1="18.0398" x2="17.4042" y2="18.2808" gradientUnits="userSpaceOnUse">
<stop stop-color="white"/>
<stop offset="1" stop-color="white" stop-opacity="0"/>
</linearGradient>
<linearGradient id="paint23_linear_580_8300" x1="17.4042" y1="18.4414" x2="17.4042" y2="18.7667" gradientUnits="userSpaceOnUse">
<stop stop-opacity="0"/>
<stop offset="0.9898"/>
</linearGradient>
<linearGradient id="paint24_linear_580_8300" x1="14.1823" y1="33.6325" x2="14.3066" y2="33.5873" gradientUnits="userSpaceOnUse">
<stop stop-color="white"/>
<stop offset="1" stop-color="white" stop-opacity="0"/>
</linearGradient>
<linearGradient id="paint25_linear_580_8300" x1="14.3639" y1="33.1785" x2="14.8197" y2="33.9922" gradientUnits="userSpaceOnUse">
<stop offset="0.0051"/>
<stop offset="1" stop-opacity="0"/>
</linearGradient>
<linearGradient id="paint26_linear_580_8300" x1="14.1823" y1="17.1603" x2="14.3066" y2="17.2055" gradientUnits="userSpaceOnUse">
<stop stop-color="white"/>
<stop offset="1" stop-color="white" stop-opacity="0"/>
</linearGradient>
<linearGradient id="paint27_linear_580_8300" x1="14.3639" y1="17.6143" x2="14.8197" y2="16.8006" gradientUnits="userSpaceOnUse">
<stop offset="0.0051"/>
<stop offset="1" stop-opacity="0"/>
</linearGradient>
<linearGradient id="paint28_linear_580_8300" x1="20.9081" y1="25.5051" x2="20.531" y2="25.5051" gradientUnits="userSpaceOnUse">
<stop stop-opacity="0"/>
<stop offset="0.9898"/>
</linearGradient>
<radialGradient id="paint29_radial_580_8300" cx="0" cy="0" r="1" gradientUnits="userSpaceOnUse" gradientTransform="translate(19.9151 25.4245) rotate(-90) scale(3.41311 3.41313)">
<stop stop-color="white" stop-opacity="0"/>
<stop offset="1" stop-color="white"/>
</radialGradient>
<linearGradient id="paint30_linear_580_8300" x1="20.3212" y1="25.4245" x2="20.6304" y2="25.4245" gradientUnits="userSpaceOnUse">
<stop stop-opacity="0"/>
<stop offset="0.9898"/>
</linearGradient>
<linearGradient id="paint31_linear_580_8300" x1="19.6129" y1="30.004" x2="19.6129" y2="20.8449" gradientUnits="userSpaceOnUse">
<stop stop-color="white" stop-opacity="0"/>
<stop offset="1" stop-color="white"/>
</linearGradient>
<linearGradient id="paint32_linear_580_8300" x1="20.2169" y1="23.9106" x2="20.2169" y2="29.5323" gradientUnits="userSpaceOnUse">
<stop stop-color="white" stop-opacity="0"/>
<stop offset="1" stop-color="white"/>
</linearGradient>
<radialGradient id="paint33_radial_580_8300" cx="0" cy="0" r="1" gradientUnits="userSpaceOnUse" gradientTransform="translate(23.351 17.5792) rotate(-90) scale(21.8 21.8002)">
<stop stop-color="white" stop-opacity="0"/>
<stop offset="1" stop-color="white"/>
</radialGradient>
<linearGradient id="paint34_linear_580_8300" x1="45.673" y1="31.3689" x2="45.9593" y2="33.2826" gradientUnits="userSpaceOnUse">
<stop stop-color="white" stop-opacity="0"/>
<stop offset="1" stop-color="white"/>
</linearGradient>
<linearGradient id="paint35_linear_580_8300" x1="45.7131" y1="32.1505" x2="45.8158" y2="32.1505" gradientUnits="userSpaceOnUse">
<stop stop-color="white" stop-opacity="0"/>
<stop offset="1" stop-color="white"/>
</linearGradient>
<linearGradient id="paint36_linear_580_8300" x1="45.672" y1="18.1883" x2="45.9583" y2="20.102" gradientUnits="userSpaceOnUse">
<stop stop-color="white" stop-opacity="0"/>
<stop offset="1" stop-color="white"/>
</linearGradient>
<linearGradient id="paint37_linear_580_8300" x1="45.7131" y1="18.9703" x2="45.8158" y2="18.9703" gradientUnits="userSpaceOnUse">
<stop stop-color="white" stop-opacity="0"/>
<stop offset="1" stop-color="white"/>
</linearGradient>
<linearGradient id="paint38_linear_580_8300" x1="45.773" y1="25.6095" x2="45.6323" y2="25.6095" gradientUnits="userSpaceOnUse">
<stop stop-opacity="0"/>
<stop offset="0.9898"/>
</linearGradient>
<linearGradient id="paint39_linear_580_8300" x1="22.7952" y1="17.1752" x2="5.76758" y2="17.4967" gradientUnits="userSpaceOnUse">
<stop stop-color="#C7C5C5"/>
<stop offset="0.0359" stop-color="#676767"/>
<stop offset="0.1123" stop-color="white"/>
<stop offset="0.3019" stop-color="#929292"/>
<stop offset="0.492" stop-color="white"/>
<stop offset="0.6257" stop-color="#676767"/>
<stop offset="0.7701" stop-color="#929292"/>
<stop offset="0.8233" stop-color="#C7C5C5"/>
<stop offset="1" stop-color="#343433"/>
</linearGradient>
<linearGradient id="paint40_linear_580_8300" x1="18.2681" y1="17.6321" x2="18.2681" y2="17.4815" gradientUnits="userSpaceOnUse">
<stop offset="0.0051"/>
<stop offset="1" stop-opacity="0"/>
</linearGradient>
<linearGradient id="paint41_linear_580_8300" x1="21.7436" y1="17.2519" x2="21.2145" y2="17.2519" gradientUnits="userSpaceOnUse">
<stop offset="0.0051"/>
<stop offset="1" stop-opacity="0"/>
</linearGradient>
</defs>
</svg>
