<svg width="51" height="52" viewBox="0 0 51 52" fill="none" xmlns="http://www.w3.org/2000/svg">
<circle opacity="0.5" cx="25.5" cy="25.8616" r="25.5" fill="#5384E4"/>
<path d="M17.4307 22.105L17.4307 16.1953C17.4307 16.0209 17.5 15.8537 17.6232 15.7302L18.1995 15.154L18.1995 22.105L17.4307 22.105Z" fill="#CCCCCC"/>
<path d="M17.5513 21.9839L18.0792 21.9839L18.0792 15.4444L17.7086 15.8148C17.6072 15.9163 17.5513 16.0511 17.5513 16.1946L17.5513 21.9839Z" fill="url(#paint0_linear_580_9248)"/>
<path opacity="0.5" d="M17.4307 22.105L17.4307 16.1953C17.4307 16.0209 17.5 15.8537 17.6232 15.7302L18.1995 15.154L18.1995 22.105L17.4307 22.105Z" fill="url(#paint1_linear_580_9248)"/>
<path opacity="0.4" d="M17.4307 22.105L17.4307 16.1953C17.4307 16.0209 17.5 15.8537 17.6232 15.7302L18.1995 15.154L18.1995 22.105L17.4307 22.105Z" fill="url(#paint2_linear_580_9248)"/>
<mask id="mask0_580_9248" style="mask-type:luminance" maskUnits="userSpaceOnUse" x="17" y="15" width="2" height="7">
<path d="M17.5518 21.9839L18.0797 21.9839L18.0797 15.4444L17.7091 15.8148C17.6077 15.9163 17.5518 16.0511 17.5518 16.1946L17.5518 21.9839Z" fill="white"/>
</mask>
<g mask="url(#mask0_580_9248)">
<path d="M17.9596 21.9331C17.9139 21.9076 17.8677 21.903 17.8677 21.903C17.8677 21.903 17.8956 21.94 17.9413 21.9656C17.9871 21.9911 18.0333 21.9956 18.0333 21.9956C18.0333 21.9956 18.0053 21.9586 17.9596 21.9331Z" fill="#999999"/>
<path d="M17.5978 21.7246C17.5521 21.6991 17.5059 21.6945 17.5059 21.6945C17.5059 21.6945 17.5338 21.7315 17.5795 21.7571C17.6252 21.7826 17.6714 21.7871 17.6714 21.7871C17.6714 21.7871 17.6435 21.7501 17.5978 21.7246Z" fill="#999999"/>
<path d="M17.7847 21.8529C17.8102 21.8072 17.8147 21.7612 17.8147 21.7612C17.8147 21.7612 17.7777 21.7891 17.7522 21.8348C17.7267 21.8806 17.7222 21.9268 17.7222 21.9268C17.7222 21.9268 17.7592 21.8986 17.7847 21.8529Z" fill="#999999"/>
<path d="M18.0122 21.7252C18.0377 21.6794 18.0423 21.6332 18.0423 21.6332C18.0423 21.6332 18.0053 21.6612 17.9798 21.7069C17.9542 21.7526 17.9497 21.7988 17.9497 21.7988C17.9497 21.7988 17.9867 21.7709 18.0122 21.7252Z" fill="#999999"/>
<path d="M17.6504 21.517C17.6759 21.4713 17.6803 21.4252 17.6803 21.4252C17.6803 21.4252 17.6433 21.4532 17.6178 21.4989C17.5923 21.5446 17.5879 21.5908 17.5879 21.5908C17.5879 21.5908 17.6249 21.5627 17.6504 21.517Z" fill="#999999"/>
<path d="M17.8051 21.6277C17.8508 21.6532 17.897 21.6577 17.897 21.6577C17.897 21.6577 17.8691 21.6207 17.8234 21.5952C17.7776 21.5697 17.7314 21.5651 17.7314 21.5651C17.7314 21.5651 17.7594 21.6021 17.8051 21.6277Z" fill="#999999"/>
<path d="M18.082 21.4463C18.0363 21.4207 17.9902 21.4164 17.9902 21.4164C17.9902 21.4164 18.0182 21.4534 18.0639 21.4789C18.1096 21.5044 18.1557 21.5088 18.1557 21.5088C18.1557 21.5088 18.1277 21.4718 18.082 21.4463Z" fill="#999999"/>
<path d="M17.7203 21.2383C17.6746 21.2127 17.6284 21.2084 17.6284 21.2084C17.6284 21.2084 17.6564 21.2454 17.7021 21.2709C17.7478 21.2964 17.794 21.3008 17.794 21.3008C17.794 21.3008 17.7661 21.2638 17.7203 21.2383Z" fill="#999999"/>
<path d="M17.9077 21.3664C17.9333 21.3207 17.9378 21.2745 17.9378 21.2745C17.9378 21.2745 17.9008 21.3025 17.8753 21.3482C17.8497 21.3939 17.8452 21.4399 17.8452 21.4399C17.8452 21.4399 17.8822 21.4122 17.9077 21.3664Z" fill="#999999"/>
<path d="M18.1345 21.2383C18.16 21.1926 18.1643 21.1464 18.1643 21.1464C18.1643 21.1464 18.1273 21.1744 18.1018 21.2201C18.0763 21.2658 18.0718 21.312 18.0718 21.312C18.0718 21.312 18.1089 21.2841 18.1345 21.2383Z" fill="#999999"/>
<path d="M17.772 21.0305C17.7975 20.9848 17.8019 20.9386 17.8019 20.9386C17.8019 20.9386 17.7649 20.9665 17.7394 21.0122C17.7138 21.058 17.7095 21.104 17.7095 21.104C17.7095 21.104 17.7465 21.0762 17.772 21.0305Z" fill="#999999"/>
<path d="M17.927 21.14C17.9727 21.1656 18.0189 21.1699 18.0189 21.1699C18.0189 21.1699 17.991 21.1329 17.9453 21.1074C17.8996 21.0819 17.8535 21.0775 17.8535 21.0775C17.8535 21.0775 17.8813 21.1145 17.927 21.14Z" fill="#999999"/>
<path d="M17.5776 20.9543C17.6233 20.9799 17.6695 20.9844 17.6695 20.9844C17.6695 20.9844 17.6415 20.9474 17.5958 20.9219C17.5501 20.8963 17.5039 20.8918 17.5039 20.8918C17.5039 20.8918 17.5319 20.9288 17.5776 20.9543Z" fill="#999999"/>
<path d="M18.0454 20.914C18.071 20.8682 18.0753 20.8222 18.0753 20.8222C18.0753 20.8222 18.0383 20.8502 18.0128 20.8959C17.9873 20.9416 17.9829 20.9878 17.9829 20.9878C17.9829 20.9878 18.0199 20.9597 18.0454 20.914Z" fill="#999999"/>
<path d="M17.6836 20.7061C17.7091 20.6604 17.7135 20.6142 17.7135 20.6142C17.7135 20.6142 17.6765 20.6421 17.651 20.6879C17.6255 20.7336 17.6211 20.7798 17.6211 20.7798C17.6211 20.7798 17.6581 20.7518 17.6836 20.7061Z" fill="#999999"/>
<path d="M17.8388 20.8163C17.8845 20.8418 17.9307 20.8462 17.9307 20.8462C17.9307 20.8462 17.9028 20.8092 17.8571 20.7837C17.8113 20.7581 17.7651 20.7538 17.7651 20.7538C17.7651 20.7538 17.7931 20.7908 17.8388 20.8163Z" fill="#999999"/>
<path d="M18.1154 20.6339C18.0696 20.6084 18.0234 20.6039 18.0234 20.6039C18.0234 20.6039 18.0514 20.6409 18.0971 20.6664C18.1428 20.6919 18.189 20.6963 18.189 20.6963C18.189 20.6963 18.1611 20.6595 18.1154 20.6339Z" fill="#999999"/>
<path d="M17.7535 20.4263C17.7078 20.4007 17.6616 20.3962 17.6616 20.3962C17.6616 20.3962 17.6896 20.4332 17.7353 20.4587C17.781 20.4842 17.8272 20.4888 17.8272 20.4888C17.8272 20.4888 17.7993 20.4518 17.7535 20.4263Z" fill="#999999"/>
<path d="M17.9405 20.5543C17.966 20.5085 17.9705 20.4623 17.9705 20.4623C17.9705 20.4623 17.9335 20.4903 17.908 20.536C17.8825 20.5817 17.8779 20.6279 17.8779 20.6279C17.8779 20.6279 17.9149 20.6 17.9405 20.5543Z" fill="#999999"/>
<path d="M17.8052 20.2188C17.8307 20.1731 17.8351 20.1269 17.8351 20.1269C17.8351 20.1269 17.7981 20.1548 17.7726 20.2006C17.747 20.2463 17.7427 20.2925 17.7427 20.2925C17.7427 20.2925 17.7797 20.2645 17.8052 20.2188Z" fill="#999999"/>
<path d="M17.9599 20.3288C18.0056 20.3544 18.0518 20.3589 18.0518 20.3589C18.0518 20.3589 18.0239 20.3219 17.9782 20.2964C17.9324 20.2708 17.8862 20.2663 17.8862 20.2663C17.8862 20.2663 17.9142 20.3033 17.9599 20.3288Z" fill="#999999"/>
<path d="M17.6113 20.1433C17.657 20.1688 17.7032 20.1733 17.7032 20.1733C17.7032 20.1733 17.6752 20.1363 17.6295 20.1108C17.5838 20.0853 17.5376 20.0809 17.5376 20.0809C17.5376 20.0809 17.5655 20.1178 17.6113 20.1433Z" fill="#999999"/>
<path d="M18.0459 20.0992C18.0714 20.0535 18.0758 20.0073 18.0758 20.0073C18.0758 20.0073 18.0388 20.0352 18.0133 20.0809C17.9878 20.1266 17.9834 20.1729 17.9834 20.1729C17.9834 20.1729 18.0204 20.1449 18.0459 20.0992Z" fill="#999999"/>
<path d="M17.6841 19.891C17.7096 19.8453 17.714 19.7993 17.714 19.7993C17.714 19.7993 17.677 19.8272 17.6515 19.8729C17.6259 19.9186 17.6216 19.9648 17.6216 19.9648C17.6216 19.9648 17.6586 19.9367 17.6841 19.891Z" fill="#999999"/>
<path d="M17.8393 20.0009C17.885 20.0264 17.9312 20.0308 17.9312 20.0308C17.9312 20.0308 17.9033 19.9938 17.8575 19.9682C17.8118 19.9427 17.7656 19.9384 17.7656 19.9384C17.7656 19.9384 17.7936 19.9754 17.8393 20.0009Z" fill="#999999"/>
<path d="M18.1158 19.8196C18.0701 19.7941 18.0239 19.7898 18.0239 19.7898C18.0239 19.7898 18.0519 19.8268 18.0976 19.8523C18.1433 19.8778 18.1895 19.8823 18.1895 19.8823C18.1895 19.8823 18.1616 19.8452 18.1158 19.8196Z" fill="#999999"/>
<path d="M17.754 19.6108C17.7083 19.5853 17.6621 19.5808 17.6621 19.5808C17.6621 19.5808 17.6901 19.6178 17.7358 19.6433C17.7815 19.6688 17.8277 19.6733 17.8277 19.6733C17.8277 19.6733 17.7997 19.6363 17.754 19.6108Z" fill="#999999"/>
<path d="M17.9409 19.7388C17.9665 19.6931 17.971 19.6469 17.971 19.6469C17.971 19.6469 17.934 19.6749 17.9085 19.7206C17.8829 19.7663 17.8784 19.8125 17.8784 19.8125C17.8784 19.8125 17.9154 19.7845 17.9409 19.7388Z" fill="#999999"/>
<path d="M17.8057 19.404C17.8312 19.3583 17.8356 19.3121 17.8356 19.3121C17.8356 19.3121 17.7986 19.3401 17.7731 19.3858C17.7475 19.4315 17.7432 19.4775 17.7432 19.4775C17.7432 19.4775 17.7802 19.4498 17.8057 19.404Z" fill="#999999"/>
<path d="M17.9604 19.5139C18.0061 19.5394 18.0523 19.5439 18.0523 19.5439C18.0523 19.5439 18.0244 19.5069 17.9786 19.4814C17.9329 19.4559 17.8867 19.4514 17.8867 19.4514C17.8867 19.4514 17.9147 19.4884 17.9604 19.5139Z" fill="#999999"/>
<path d="M17.6118 19.328C17.6575 19.3535 17.7037 19.3579 17.7037 19.3579C17.7037 19.3579 17.6757 19.3209 17.63 19.2954C17.5843 19.2699 17.5381 19.2655 17.5381 19.2655C17.5381 19.2655 17.566 19.3025 17.6118 19.328Z" fill="#999999"/>
<path d="M18.0454 19.2844C18.071 19.2387 18.0753 19.1925 18.0753 19.1925C18.0753 19.1925 18.0383 19.2204 18.0128 19.2662C17.9873 19.3119 17.9829 19.3579 17.9829 19.3579C17.9829 19.3579 18.0199 19.3301 18.0454 19.2844Z" fill="#999999"/>
<path d="M17.6836 19.0762C17.7091 19.0305 17.7135 18.9843 17.7135 18.9843C17.7135 18.9843 17.6765 19.0123 17.651 19.058C17.6255 19.1037 17.6211 19.1499 17.6211 19.1499C17.6211 19.1499 17.6581 19.122 17.6836 19.0762Z" fill="#999999"/>
<path d="M17.8388 19.1863C17.8845 19.2118 17.9307 19.2163 17.9307 19.2163C17.9307 19.2163 17.9028 19.1793 17.8571 19.1538C17.8113 19.1283 17.7651 19.1239 17.7651 19.1239C17.7651 19.1239 17.7931 19.1607 17.8388 19.1863Z" fill="#999999"/>
<path d="M18.1154 19.0053C18.0696 18.9798 18.0234 18.9755 18.0234 18.9755C18.0234 18.9755 18.0514 19.0125 18.0971 19.038C18.1428 19.0635 18.189 19.0679 18.189 19.0679C18.189 19.0679 18.1611 19.0309 18.1154 19.0053Z" fill="#999999"/>
<path d="M17.7535 18.7972C17.7078 18.7717 17.6616 18.7673 17.6616 18.7673C17.6616 18.7673 17.6896 18.8043 17.7353 18.8298C17.781 18.8553 17.8272 18.8599 17.8272 18.8599C17.8272 18.8599 17.7993 18.8227 17.7535 18.7972Z" fill="#999999"/>
<path d="M17.9405 18.9257C17.966 18.88 17.9705 18.8339 17.9705 18.8339C17.9705 18.8339 17.9335 18.8619 17.908 18.9076C17.8825 18.9533 17.8779 18.9995 17.8779 18.9995C17.8779 18.9995 17.9149 18.9714 17.9405 18.9257Z" fill="#999999"/>
<path d="M17.8052 18.5894C17.8307 18.5437 17.8351 18.4975 17.8351 18.4975C17.8351 18.4975 17.7981 18.5254 17.7726 18.5712C17.747 18.6169 17.7427 18.6631 17.7427 18.6631C17.7427 18.6631 17.7797 18.6351 17.8052 18.5894Z" fill="#999999"/>
<path d="M17.9599 18.7004C18.0056 18.7259 18.0518 18.7305 18.0518 18.7305C18.0518 18.7305 18.0239 18.6935 17.9782 18.668C17.9324 18.6424 17.8862 18.6379 17.8862 18.6379C17.8862 18.6379 17.9142 18.6749 17.9599 18.7004Z" fill="#999999"/>
<path d="M17.6113 18.515C17.657 18.5406 17.7032 18.5449 17.7032 18.5449C17.7032 18.5449 17.6752 18.5079 17.6295 18.4824C17.5838 18.4569 17.5376 18.4525 17.5376 18.4525C17.5376 18.4525 17.5655 18.4893 17.6113 18.515Z" fill="#999999"/>
<path d="M18.0459 18.4708C18.0714 18.425 18.0758 18.3788 18.0758 18.3788C18.0758 18.3788 18.0388 18.4068 18.0133 18.4525C17.9878 18.4982 17.9834 18.5444 17.9834 18.5444C17.9834 18.5444 18.0204 18.5165 18.0459 18.4708Z" fill="#999999"/>
<path d="M17.6841 18.2629C17.7096 18.2172 17.714 18.171 17.714 18.171C17.714 18.171 17.677 18.1989 17.6515 18.2447C17.6259 18.2904 17.6216 18.3364 17.6216 18.3364C17.6216 18.3364 17.6586 18.3086 17.6841 18.2629Z" fill="#999999"/>
<path d="M17.8393 18.3728C17.885 18.3983 17.9312 18.4028 17.9312 18.4028C17.9312 18.4028 17.9033 18.3658 17.8575 18.3403C17.8118 18.3148 17.7656 18.3104 17.7656 18.3104C17.7656 18.3104 17.7936 18.3473 17.8393 18.3728Z" fill="#999999"/>
<path d="M18.1158 18.1909C18.0701 18.1654 18.0239 18.161 18.0239 18.161C18.0239 18.161 18.0519 18.198 18.0976 18.2235C18.1433 18.2491 18.1895 18.2534 18.1895 18.2534C18.1895 18.2534 18.1616 18.2164 18.1158 18.1909Z" fill="#999999"/>
<path d="M17.754 17.9829C17.7083 17.9574 17.6621 17.953 17.6621 17.953C17.6621 17.953 17.6901 17.99 17.7358 18.0155C17.7815 18.041 17.8277 18.0454 17.8277 18.0454C17.8277 18.0454 17.7997 18.0084 17.754 17.9829Z" fill="#999999"/>
<path d="M17.9409 18.1109C17.9665 18.0652 17.971 18.019 17.971 18.019C17.971 18.019 17.934 18.0469 17.9085 18.0926C17.8829 18.1384 17.8784 18.1846 17.8784 18.1846C17.8784 18.1846 17.9154 18.1566 17.9409 18.1109Z" fill="#999999"/>
<path d="M17.8057 17.7745C17.8312 17.7288 17.8356 17.6826 17.8356 17.6826C17.8356 17.6826 17.7986 17.7105 17.7731 17.7562C17.7475 17.8019 17.7432 17.8481 17.7432 17.8481C17.7432 17.8481 17.7802 17.8202 17.8057 17.7745Z" fill="#999999"/>
<path d="M17.9604 17.8856C18.0061 17.9112 18.0523 17.9155 18.0523 17.9155C18.0523 17.9155 18.0244 17.8785 17.9786 17.853C17.9329 17.8275 17.8867 17.8231 17.8867 17.8231C17.8867 17.8231 17.9147 17.8601 17.9604 17.8856Z" fill="#999999"/>
<path d="M17.6118 17.6991C17.6575 17.7246 17.7037 17.729 17.7037 17.729C17.7037 17.729 17.6757 17.692 17.63 17.6665C17.5843 17.641 17.5381 17.6366 17.5381 17.6366C17.5381 17.6366 17.566 17.6734 17.6118 17.6991Z" fill="#999999"/>
<path d="M18.0459 17.6553C18.0714 17.6096 18.0758 17.5634 18.0758 17.5634C18.0758 17.5634 18.0388 17.5914 18.0133 17.6371C17.9878 17.6828 17.9834 17.729 17.9834 17.729C17.9834 17.729 18.0204 17.7011 18.0459 17.6553Z" fill="#999999"/>
<path d="M17.6841 17.4473C17.7096 17.4016 17.714 17.3554 17.714 17.3554C17.714 17.3554 17.677 17.3834 17.6515 17.4291C17.6259 17.4748 17.6216 17.521 17.6216 17.521C17.6216 17.521 17.6586 17.493 17.6841 17.4473Z" fill="#999999"/>
<path d="M17.8393 17.5574C17.885 17.5829 17.9312 17.5874 17.9312 17.5874C17.9312 17.5874 17.9033 17.5504 17.8575 17.5249C17.8118 17.4994 17.7656 17.4948 17.7656 17.4948C17.7656 17.4948 17.7936 17.5318 17.8393 17.5574Z" fill="#999999"/>
<path d="M18.1158 17.3761C18.0701 17.3506 18.0239 17.3461 18.0239 17.3461C18.0239 17.3461 18.0519 17.3831 18.0976 17.4086C18.1433 17.4341 18.1895 17.4385 18.1895 17.4385C18.1895 17.4385 18.1616 17.4016 18.1158 17.3761Z" fill="#999999"/>
<path d="M17.754 17.1684C17.7083 17.1429 17.6621 17.1385 17.6621 17.1385C17.6621 17.1385 17.6901 17.1755 17.7358 17.2011C17.7815 17.2266 17.8277 17.231 17.8277 17.231C17.8277 17.231 17.7997 17.194 17.754 17.1684Z" fill="#999999"/>
<path d="M17.9409 17.2961C17.9665 17.2504 17.971 17.2042 17.971 17.2042C17.971 17.2042 17.934 17.2322 17.9085 17.2779C17.8829 17.3236 17.8784 17.3696 17.8784 17.3696C17.8784 17.3696 17.9154 17.3418 17.9409 17.2961Z" fill="#999999"/>
<path d="M17.8057 16.9605C17.8312 16.9148 17.8356 16.8686 17.8356 16.8686C17.8356 16.8686 17.7986 16.8965 17.7731 16.9423C17.7475 16.988 17.7432 17.0342 17.7432 17.0342C17.7432 17.0342 17.7802 17.0062 17.8057 16.9605Z" fill="#999999"/>
<path d="M17.9599 17.0702C18.0056 17.0957 18.0518 17.1001 18.0518 17.1001C18.0518 17.1001 18.0239 17.0631 17.9782 17.0376C17.9324 17.0121 17.8862 17.0075 17.8862 17.0075C17.8862 17.0075 17.9142 17.0447 17.9599 17.0702Z" fill="#999999"/>
<path d="M17.6118 16.8855C17.6575 16.911 17.7037 16.9155 17.7037 16.9155C17.7037 16.9155 17.6757 16.8785 17.63 16.853C17.5843 16.8275 17.5381 16.823 17.5381 16.823C17.5381 16.823 17.566 16.86 17.6118 16.8855Z" fill="#999999"/>
<path d="M18.0454 16.8407C18.071 16.795 18.0753 16.749 18.0753 16.749C18.0753 16.749 18.0383 16.7769 18.0128 16.8226C17.9873 16.8683 17.9829 16.9146 17.9829 16.9146C17.9829 16.9146 18.0199 16.8864 18.0454 16.8407Z" fill="#999999"/>
<path d="M17.6836 16.6324C17.7091 16.5867 17.7135 16.5405 17.7135 16.5405C17.7135 16.5405 17.6765 16.5684 17.651 16.6141C17.6255 16.6599 17.6211 16.7061 17.6211 16.7061C17.6211 16.7061 17.6581 16.6779 17.6836 16.6324Z" fill="#999999"/>
<path d="M17.8388 16.7434C17.8845 16.7689 17.9307 16.7734 17.9307 16.7734C17.9307 16.7734 17.9028 16.7364 17.8571 16.7109C17.8113 16.6854 17.7651 16.681 17.7651 16.681C17.7651 16.681 17.7931 16.7179 17.8388 16.7434Z" fill="#999999"/>
<path d="M18.1154 16.5618C18.0696 16.5363 18.0234 16.5319 18.0234 16.5319C18.0234 16.5319 18.0514 16.5689 18.0971 16.5945C18.1428 16.62 18.189 16.6245 18.189 16.6245C18.189 16.6245 18.1611 16.5874 18.1154 16.5618Z" fill="#999999"/>
<path d="M17.7535 16.3541C17.7078 16.3286 17.6616 16.3241 17.6616 16.3241C17.6616 16.3241 17.6896 16.3611 17.7353 16.3866C17.781 16.4121 17.8272 16.4165 17.8272 16.4165C17.8272 16.4165 17.7993 16.3797 17.7535 16.3541Z" fill="#999999"/>
<path d="M17.9405 16.4818C17.966 16.4361 17.9705 16.3901 17.9705 16.3901C17.9705 16.3901 17.9335 16.418 17.908 16.4637C17.8825 16.5095 17.8779 16.5557 17.8779 16.5557C17.8779 16.5557 17.9149 16.5276 17.9405 16.4818Z" fill="#999999"/>
<path d="M17.8052 16.1469C17.8307 16.1012 17.8351 16.0551 17.8351 16.0551C17.8351 16.0551 17.7981 16.0831 17.7726 16.1288C17.747 16.1745 17.7427 16.2207 17.7427 16.2207C17.7427 16.2207 17.7797 16.1926 17.8052 16.1469Z" fill="#999999"/>
<path d="M17.9599 16.2562C18.0056 16.2818 18.0518 16.2861 18.0518 16.2861C18.0518 16.2861 18.0239 16.2491 17.9782 16.2236C17.9324 16.1981 17.8862 16.1937 17.8862 16.1937C17.8862 16.1937 17.9142 16.2307 17.9599 16.2562Z" fill="#999999"/>
<path d="M17.6113 16.0705C17.657 16.0961 17.7032 16.1006 17.7032 16.1006C17.7032 16.1006 17.6752 16.0636 17.6295 16.0381C17.5838 16.0125 17.5376 16.008 17.5376 16.008C17.5376 16.008 17.5655 16.045 17.6113 16.0705Z" fill="#999999"/>
<path d="M18.0464 16.0269C18.0719 15.9812 18.0763 15.935 18.0763 15.935C18.0763 15.935 18.0393 15.9629 18.0138 16.0087C17.9882 16.0544 17.9839 16.1006 17.9839 16.1006C17.9839 16.1006 18.0209 16.0726 18.0464 16.0269Z" fill="#999999"/>
<path d="M17.6846 15.8194C17.7101 15.7737 17.7145 15.7275 17.7145 15.7275C17.7145 15.7275 17.6775 15.7554 17.652 15.8011C17.6264 15.8469 17.6221 15.8931 17.6221 15.8931C17.6221 15.8931 17.6591 15.865 17.6846 15.8194Z" fill="#999999"/>
<path d="M17.8398 15.9286C17.8855 15.9541 17.9317 15.9585 17.9317 15.9585C17.9317 15.9585 17.9038 15.9215 17.858 15.896C17.8123 15.8705 17.7661 15.8659 17.7661 15.8659C17.7661 15.8659 17.7941 15.9031 17.8398 15.9286Z" fill="#999999"/>
<path d="M18.1158 15.747C18.0701 15.7215 18.0239 15.717 18.0239 15.717C18.0239 15.717 18.0519 15.754 18.0976 15.7795C18.1433 15.805 18.1895 15.8096 18.1895 15.8096C18.1895 15.8096 18.1616 15.7726 18.1158 15.747Z" fill="#999999"/>
<path d="M17.754 15.539C17.7083 15.5135 17.6621 15.509 17.6621 15.509C17.6621 15.509 17.6901 15.546 17.7358 15.5715C17.7815 15.597 17.8277 15.6016 17.8277 15.6016C17.8277 15.6016 17.7997 15.5646 17.754 15.539Z" fill="#999999"/>
<path d="M17.9409 15.6671C17.9665 15.6213 17.971 15.5751 17.971 15.5751C17.971 15.5751 17.934 15.6031 17.9085 15.6488C17.8829 15.6945 17.8784 15.7407 17.8784 15.7407C17.8784 15.7407 17.9154 15.7128 17.9409 15.6671Z" fill="#999999"/>
<path d="M17.9604 15.4416C18.0061 15.4672 18.0523 15.4717 18.0523 15.4717C18.0523 15.4717 18.0244 15.4347 17.9786 15.4092C17.9329 15.3836 17.8867 15.3791 17.8867 15.3791C17.8867 15.3791 17.9147 15.4161 17.9604 15.4416Z" fill="#999999"/>
</g>
<path d="M20.5737 6.86084L20.3206 6.86084C20.2926 6.86084 20.27 6.83822 20.27 6.81028L20.27 6.70026C20.27 6.67231 20.2926 6.64969 20.3206 6.64969L20.5737 6.64969C20.6017 6.64969 20.6243 6.67231 20.6243 6.70026L20.6243 6.81028C20.6241 6.83822 20.6015 6.86084 20.5737 6.86084Z" fill="url(#paint3_linear_580_9248)"/>
<path d="M21.065 6.86084L21.2684 6.86084C21.3101 6.86084 21.3437 6.82708 21.3437 6.78556L21.3437 6.7253C21.3437 6.68362 21.3099 6.65002 21.2684 6.65002L21.065 6.65002C21.0233 6.65002 20.9897 6.68378 20.9897 6.7253L20.9897 6.78556C20.9896 6.82708 21.0233 6.86084 21.065 6.86084Z" fill="url(#paint4_linear_580_9248)"/>
<path d="M20.9238 7.46045L20.7246 7.4598C20.6028 7.45932 20.5044 7.36028 20.5049 7.23847L20.5073 6.58113C20.5078 6.45932 20.6068 6.36094 20.7286 6.36143L20.9278 6.36207C21.0496 6.36256 21.148 6.46158 21.1475 6.58339L21.1451 7.24074C21.1446 7.36255 21.0456 7.46093 20.9238 7.46045Z" fill="url(#paint5_linear_580_9248)"/>
<path d="M30.833 6.86084L30.5799 6.86084C30.5521 6.86084 30.5293 6.83822 30.5293 6.81028L30.5293 6.70026C30.5293 6.67231 30.5519 6.64969 30.5799 6.64969L30.833 6.64969C30.861 6.64969 30.8836 6.67231 30.8836 6.70026L30.8836 6.81028C30.8836 6.83822 30.861 6.86084 30.833 6.86084Z" fill="url(#paint6_linear_580_9248)"/>
<path d="M31.3243 6.86084L31.5277 6.86084C31.5694 6.86084 31.603 6.82708 31.603 6.78556L31.603 6.7253C31.603 6.68362 31.5692 6.65002 31.5277 6.65002L31.3243 6.65002C31.2826 6.65002 31.249 6.68378 31.249 6.7253L31.249 6.78556C31.249 6.82708 31.2828 6.86084 31.3243 6.86084Z" fill="url(#paint7_linear_580_9248)"/>
<path d="M31.1831 7.46045L30.9839 7.4598C30.8621 7.45932 30.7637 7.36028 30.7642 7.23847L30.7666 6.58113C30.7671 6.45932 30.8661 6.36094 30.9879 6.36143L31.1871 6.36207C31.3089 6.36256 31.4073 6.46158 31.4068 6.58339L31.4044 7.24074C31.4041 7.36255 31.3049 7.46093 31.1831 7.46045Z" fill="url(#paint8_linear_580_9248)"/>
<path d="M33.7251 21.8638L18.1494 21.8638L18.1494 7.96713C18.1494 7.42061 18.5924 6.9778 19.1387 6.9778L32.7356 6.9778C33.2821 6.9778 33.7251 7.42077 33.7251 7.96713L33.7251 21.8638Z" fill="#E1E2DD"/>
<path d="M32.2484 6.97769L19.626 6.97769C18.8105 6.97769 18.1494 7.63875 18.1494 8.45425L18.1494 9.12549L33.7251 9.12549L33.7251 8.45425C33.7251 7.63875 33.0639 6.97769 32.2484 6.97769Z" fill="url(#paint9_linear_580_9248)"/>
<path d="M32.2484 6.97769L19.626 6.97769C18.8105 6.97769 18.1494 7.63875 18.1494 8.45425L18.1494 9.12549L33.7251 9.12549L33.7251 8.45425C33.7251 7.63875 33.0639 6.97769 32.2484 6.97769Z" fill="url(#paint10_linear_580_9248)"/>
<path opacity="0.2" d="M32.0366 7.34263L19.8373 7.34263C19.0491 7.34263 18.4102 8.00369 18.4102 8.81919L18.4102 9.12549L33.4635 9.12549L33.4635 8.81919C33.4637 8.00369 32.8248 7.34263 32.0366 7.34263Z" fill="black"/>
<path d="M18.6313 21.5664L18.6313 8.54811C18.6313 8.1801 18.9297 7.88172 19.2977 7.88172L32.5763 7.88172C32.9444 7.88172 33.2427 8.1801 33.2427 8.54811L33.2427 21.5664L18.6313 21.5664Z" fill="#F5F7EA"/>
<g opacity="0.1">
<path d="M18.6313 21.5664L18.6313 8.54811C18.6313 8.1801 18.9297 7.88172 19.2977 7.88172L32.5763 7.88172C32.9444 7.88172 33.2427 8.1801 33.2427 8.54811L33.2427 21.5664L18.6313 21.5664Z" fill="url(#paint11_radial_580_9248)"/>
</g>
<g opacity="0.5">
<path d="M18.6313 21.5664L18.6313 8.54811C18.6313 8.1801 18.9297 7.88172 19.2977 7.88172L32.5763 7.88172C32.9444 7.88172 33.2427 8.1801 33.2427 8.54811L33.2427 21.5664L18.6313 21.5664Z" fill="url(#paint12_linear_580_9248)"/>
</g>
<path opacity="0.3" d="M22.4759 7.88198L21.6253 7.88198L20.8906 17.5867L21.7412 17.6504L22.4759 7.88198Z" fill="url(#paint13_linear_580_9248)"/>
<path opacity="0.3" d="M29.3911 7.88198L30.2417 7.88198L30.9764 17.5867L30.1258 17.6504L29.3911 7.88198Z" fill="url(#paint14_linear_580_9248)"/>
<path d="M32.2481 7.46016L19.6257 7.46016C19.0774 7.46016 18.6313 7.90604 18.6313 8.4545L18.6313 8.87646C18.6313 8.32736 19.0766 7.88197 19.6257 7.88197L32.2481 7.88197C32.7973 7.88197 33.2426 8.3272 33.2426 8.87646L33.2426 8.4545C33.2426 7.90604 32.7965 7.46016 32.2481 7.46016Z" fill="#CCCCCC"/>
<path opacity="0.4" d="M29.3323 7.50781L22.4766 7.50781L22.4766 7.5629L29.3323 7.5629L29.3323 7.50781Z" fill="#666666"/>
<path opacity="0.4" d="M29.3323 7.60156L22.4766 7.60156L22.4766 7.65665L29.3323 7.65665L29.3323 7.60156Z" fill="#666666"/>
<path opacity="0.4" d="M29.3323 7.69531L22.4766 7.69531L22.4766 7.7504L29.3323 7.7504L29.3323 7.69531Z" fill="#666666"/>
<path opacity="0.4" d="M29.3323 7.78857L22.4766 7.78857L22.4766 7.84366L29.3323 7.84366L29.3323 7.78857Z" fill="#666666"/>
<path d="M19.6275 7.45967L19.6257 7.45967C19.0774 7.45967 18.6313 7.90555 18.6313 8.45401L18.6313 8.87598C18.6313 8.32687 19.0766 7.88148 19.6257 7.88148L19.6275 7.88148L19.6275 7.45967Z" fill="#FF6600"/>
<path d="M22.4376 7.88184L19.6255 7.88184L19.6255 7.45987L22.7164 7.45987L22.4376 7.88184Z" fill="#DCFFFE"/>
<path d="M19.6273 7.84424L22.4624 7.84424L22.5246 7.75022L19.6273 7.75022L19.6255 7.75022L19.6255 7.84424L19.6273 7.84424Z" fill="white"/>
<path opacity="0.4" d="M19.6257 7.74986C19.0774 7.74986 18.6313 8.19573 18.6313 8.74419L18.6313 8.83838C18.6313 8.29008 19.0774 7.84404 19.6257 7.84404L19.6275 7.84404L19.6275 7.74986L19.6257 7.74986Z" fill="white"/>
<path d="M18.6312 8.83838L18.5325 8.83838C18.5068 8.83838 18.4858 8.80607 18.4858 8.76633L18.4858 8.48863C18.4858 8.44889 18.5067 8.41657 18.5325 8.41657L18.6312 8.41657L18.6312 8.83838Z" fill="#FF6600"/>
<path d="M32.2295 7.45967L32.2313 7.45967C32.7796 7.45967 33.2256 7.90555 33.2256 8.45401L33.2256 8.87598C33.2256 8.32687 32.7804 7.88148 32.2313 7.88148L32.2295 7.88148L32.2295 7.45967Z" fill="#FF6600"/>
<path d="M29.4188 7.88184L32.2309 7.88184L32.2309 7.45987L29.1401 7.45987L29.4188 7.88184Z" fill="#DCFFFE"/>
<path d="M32.2289 7.84424L29.3937 7.84424L29.3315 7.75022L32.2289 7.75022L32.2307 7.75022L32.2307 7.84424L32.2289 7.84424Z" fill="white"/>
<path opacity="0.4" d="M32.2313 7.74986C32.7796 7.74986 33.2256 8.19573 33.2256 8.74419L33.2256 8.83838C33.2256 8.29008 32.7796 7.84404 32.2313 7.84404L32.2295 7.84404L32.2295 7.74986L32.2313 7.74986Z" fill="white"/>
<path d="M33.2251 8.83838L33.3238 8.83838C33.3495 8.83838 33.3705 8.80607 33.3705 8.76633L33.3705 8.48863C33.3705 8.44889 33.3497 8.41657 33.3238 8.41657L33.2251 8.41657L33.2251 8.83838Z" fill="#FF6600"/>
<path d="M19.9247 18.7936C21.4801 18.5657 28.3704 18.0229 31.7682 18.745C32.1056 18.8167 32.4451 18.6411 32.5823 18.3248L33.1967 14.1295C33.3378 13.8038 33.1676 13.4284 32.8285 13.3232C31.0981 12.7862 25.9147 11.5551 19.0651 13.3833C18.7215 13.4751 18.5389 13.8513 18.6722 14.181L19.1483 18.3468C19.2735 18.6569 19.5935 18.8421 19.9247 18.7936Z" fill="#F4F4F4"/>
<path opacity="0.5" d="M19.9247 18.7936C21.4801 18.5657 28.3704 18.0229 31.7682 18.745C32.1056 18.8167 32.4451 18.6411 32.5823 18.3248L33.1967 14.1295C33.3378 13.8038 33.1676 13.4284 32.8285 13.3232C31.0981 12.7862 25.9147 11.5551 19.0651 13.3833C18.7215 13.4751 18.5389 13.8513 18.6722 14.181L19.1483 18.3468C19.2735 18.6569 19.5935 18.8421 19.9247 18.7936Z" fill="url(#paint15_linear_580_9248)"/>
<path d="M19.8195 18.5088C19.6432 18.5088 19.4864 18.4022 19.4196 18.2374L18.9436 14.0717C18.9108 13.9903 18.9145 13.8983 18.9537 13.8198C18.9922 13.7429 19.0586 13.6883 19.1407 13.6662C21.5169 13.0319 23.9178 12.7103 26.2767 12.7103C29.3994 12.7103 31.6676 13.2696 32.7417 13.603C32.8244 13.6287 32.8899 13.6859 32.9259 13.7646C32.9624 13.8441 32.9632 13.9321 32.928 14.0134L32.3136 18.2085C32.2451 18.3663 32.0904 18.4684 31.9193 18.4684C31.8892 18.4684 31.859 18.4652 31.829 18.4587C30.6784 18.2143 28.0961 18.0904 26.5308 18.0904C24.2514 18.0904 20.9366 18.3495 19.8822 18.5041C19.861 18.5073 19.8402 18.5088 19.8195 18.5088Z" fill="black"/>
<path d="M19.8197 18.3618C19.7034 18.3618 19.5999 18.2912 19.5558 18.182L19.0797 14.0163C19.0563 13.9583 19.0729 13.909 19.085 13.8848C19.0989 13.857 19.1264 13.8213 19.1787 13.8073C21.5426 13.1762 23.9308 12.8562 26.277 12.8562C29.3805 12.8562 31.6325 13.4115 32.6985 13.7423C32.756 13.7601 32.7825 13.8018 32.7932 13.825C32.804 13.8491 32.8187 13.8974 32.794 13.9546L32.1796 18.15C32.1344 18.2541 32.0323 18.3216 31.9195 18.3216C31.8997 18.3216 31.8796 18.3193 31.8598 18.3153C30.6992 18.0684 28.1065 17.9436 26.5311 17.9436C24.2424 17.9436 20.9195 18.2038 19.8612 18.3587C19.8474 18.3607 19.8335 18.3618 19.8197 18.3618Z" fill="#676B86"/>
<path opacity="0.2" d="M19.2097 15.1538C20.9145 14.7394 23.4652 14.407 25.9377 14.407C28.3842 14.407 30.9201 14.7472 32.6183 15.1538L32.7939 13.9546C32.8187 13.8974 32.804 13.8491 32.7931 13.8251C32.7825 13.802 32.756 13.7601 32.6985 13.7424C31.6324 13.4115 29.3804 12.8563 26.2769 12.8563C23.9308 12.8563 21.5426 13.1763 19.1787 13.8073C19.1263 13.8214 19.0989 13.857 19.085 13.8848C19.073 13.9091 19.0562 13.9583 19.0796 14.0163L19.2097 15.1538Z" fill="black"/>
<path d="M19.1128 14.0986C20.9384 13.6477 23.3243 13.3741 25.9377 13.3741C28.5376 13.3741 30.9124 13.645 32.7345 14.0917L32.7939 13.9545C32.8187 13.8973 32.804 13.849 32.7931 13.825C32.7825 13.8019 32.756 13.76 32.6985 13.7423C31.6324 13.4114 29.3804 12.8562 26.2769 12.8562C23.9308 12.8562 21.5426 13.1762 19.1787 13.8072C19.1263 13.8213 19.0989 13.857 19.085 13.8847C19.073 13.909 19.0562 13.9582 19.0796 14.0162L19.1128 14.0986Z" fill="#333333"/>
<path d="M21.3262 14.0269L23.235 13.6295L23.2525 13.725L21.3347 14.0747L21.3262 14.0269Z" fill="black"/>
<path d="M25.8981 13.2417L23.2905 13.7173L23.4194 13.595L25.8806 13.1462L25.8981 13.2417Z" fill="black"/>
<path d="M21.4462 14.0791L26.0004 13.25L25.9911 13.1991L21.3301 14.0492L21.4462 14.0791Z" fill="#333333"/>
<path d="M25.883 13.2203C25.8698 13.1473 25.9181 13.0773 25.9911 13.0641C26.0641 13.0508 26.1341 13.0991 26.1473 13.1722C26.1606 13.2452 26.1123 13.3151 26.0393 13.3284C25.9662 13.3416 25.8963 13.2933 25.883 13.2203Z" fill="black"/>
<path d="M25.8875 13.2442C25.8767 13.1844 25.9163 13.127 25.9761 13.1162C26.0358 13.1052 26.0932 13.145 26.104 13.2047C26.115 13.2645 26.0752 13.3219 26.0155 13.3327C25.9557 13.3435 25.8983 13.3039 25.8875 13.2442Z" fill="#333333"/>
<path d="M25.5566 13.813L27.4957 13.6087L27.5036 13.7054L25.5605 13.8613L25.5566 13.813Z" fill="black"/>
<path d="M30.1841 13.4907L27.542 13.7026L27.6827 13.5941L30.1764 13.3939L30.1841 13.4907Z" fill="black"/>
<path d="M25.6712 13.8765L30.2855 13.5076L30.2813 13.456L25.5586 13.8351L25.6712 13.8765Z" fill="#333333"/>
<path d="M30.1718 13.4668C30.1659 13.3928 30.2211 13.3282 30.2949 13.3222C30.3689 13.3162 30.4335 13.3715 30.4395 13.4453C30.4455 13.5193 30.3902 13.5839 30.3164 13.5899C30.2426 13.5959 30.1778 13.5408 30.1718 13.4668Z" fill="black"/>
<path d="M30.1732 13.4906C30.1684 13.43 30.2134 13.3771 30.274 13.3721C30.3346 13.3672 30.3876 13.4124 30.3924 13.473C30.3973 13.5336 30.3522 13.5866 30.2916 13.5914C30.231 13.5963 30.1781 13.5512 30.1732 13.4906Z" fill="#333333"/>
<path opacity="0.5" d="M19.8197 18.3618C19.7034 18.3618 19.5999 18.2912 19.5558 18.182L19.0797 14.0163C19.0563 13.9583 19.0729 13.909 19.085 13.8848C19.0989 13.857 19.1264 13.8213 19.1787 13.8073C21.5426 13.1762 23.9308 12.8562 26.277 12.8562C29.3805 12.8562 31.6325 13.4115 32.6985 13.7423C32.756 13.7601 32.7825 13.8018 32.7932 13.825C32.804 13.8491 32.8187 13.8974 32.794 13.9546L32.1796 18.15C32.1344 18.2541 32.0323 18.3216 31.9195 18.3216C31.8997 18.3216 31.8796 18.3193 31.8598 18.3153C30.6992 18.0684 28.1065 17.9436 26.5311 17.9436C24.2424 17.9436 20.9195 18.2038 19.8612 18.3587C19.8474 18.3607 19.8335 18.3618 19.8197 18.3618Z" fill="url(#paint16_radial_580_9248)"/>
<path opacity="0.3" d="M19.8197 18.3618C19.7034 18.3618 19.5999 18.2912 19.5558 18.182L19.0797 14.0163C19.0563 13.9583 19.0729 13.909 19.085 13.8848C19.0989 13.857 19.1264 13.8213 19.1787 13.8073C21.5426 13.1762 23.9308 12.8562 26.277 12.8562C29.3805 12.8562 31.6325 13.4115 32.6985 13.7423C32.756 13.7601 32.7825 13.8018 32.7932 13.825C32.804 13.8491 32.8187 13.8974 32.794 13.9546L32.1796 18.15C32.1344 18.2541 32.0323 18.3216 31.9195 18.3216C31.8997 18.3216 31.8796 18.3193 31.8598 18.3153C30.6992 18.0684 28.1065 17.9436 26.5311 17.9436C24.2424 17.9436 20.9195 18.2038 19.8612 18.3587C19.8474 18.3607 19.8335 18.3618 19.8197 18.3618Z" fill="url(#paint17_radial_580_9248)"/>
<path d="M18.6249 21.5693C18.6317 21.5693 18.6386 21.5682 18.6456 21.5664L19.3171 21.5693C19.3864 21.5488 19.4388 21.4256 19.4388 21.2827L19.4388 19.3432C19.4388 19.3043 19.4351 19.2663 19.4276 19.2304L18.706 13.8521C18.6932 13.7902 18.665 13.7518 18.6322 13.7518C18.5869 13.7518 18.5514 13.8239 18.5514 13.9159L18.4829 21.2798C18.4829 21.3579 18.4978 21.4307 18.5251 21.4855C18.5519 21.5398 18.5874 21.5693 18.6249 21.5693Z" fill="#F4F4F4"/>
<path opacity="0.5" d="M18.6249 21.5693C18.6317 21.5693 18.6386 21.5682 18.6456 21.5664L19.3171 21.5693C19.3864 21.5488 19.4388 21.4256 19.4388 21.2827L19.4388 19.3432C19.4388 19.3043 19.4351 19.2663 19.4276 19.2304L18.706 13.8521C18.6932 13.7902 18.665 13.7518 18.6322 13.7518C18.5869 13.7518 18.5514 13.8239 18.5514 13.9159L18.4829 21.2798C18.4829 21.3579 18.4978 21.4307 18.5251 21.4855C18.5519 21.5398 18.5874 21.5693 18.6249 21.5693Z" fill="url(#paint18_linear_580_9248)"/>
<path d="M18.6565 13.8945L19.3781 19.2729C19.3828 19.2952 19.3851 19.3191 19.3851 19.3434L19.3851 21.2828C19.3851 21.3727 19.3526 21.449 19.309 21.4619L18.6374 21.459C18.5838 21.475 18.5356 21.3902 18.5356 21.2799L18.6041 13.9159C18.6043 13.8557 18.645 13.839 18.6565 13.8945Z" fill="black"/>
<path d="M18.6301 21.3516L19.3016 21.3545C19.3191 21.3495 19.3322 21.3186 19.3322 21.2828L19.3322 19.3432C19.3322 19.3335 19.3312 19.3241 19.3294 19.3153L18.6579 14.1783L18.5894 21.2799C18.5894 21.2994 18.5931 21.3177 18.5999 21.3314C18.6066 21.345 18.6155 21.3524 18.6249 21.3524L18.6301 21.3516Z" fill="#676B86"/>
<path opacity="0.2" d="M18.8514 21.2855L18.6302 21.3512L18.6249 21.3521C18.6155 21.3521 18.6066 21.3446 18.5999 21.331C18.5931 21.3173 18.5894 21.2991 18.5894 21.2795L18.6578 14.178L18.7729 16.6319L18.8514 21.2855Z" fill="black"/>
<path opacity="0.5" d="M18.6301 21.3516L19.3016 21.3545C19.3191 21.3495 19.3322 21.3186 19.3322 21.2828L19.3322 19.3432C19.3322 19.3335 19.3312 19.3241 19.3294 19.3153L18.6579 14.1783L18.5894 21.2799C18.5894 21.2994 18.5931 21.3177 18.5999 21.3314C18.6066 21.345 18.6155 21.3524 18.6249 21.3524L18.6301 21.3516Z" fill="url(#paint19_linear_580_9248)"/>
<path opacity="0.3" d="M18.6301 21.3516L19.3016 21.3545C19.3191 21.3495 19.3322 21.3186 19.3322 21.2828L19.3322 19.3432C19.3322 19.3335 19.3312 19.3241 19.3294 19.3153L18.6579 14.1783L18.5894 21.2799C18.5894 21.2994 18.5931 21.3177 18.5999 21.3314C18.6066 21.345 18.6155 21.3524 18.6249 21.3524L18.6301 21.3516Z" fill="url(#paint20_linear_580_9248)"/>
<path d="M33.29 21.5684C33.2832 21.5684 33.2762 21.5672 33.2693 21.5655L32.5977 21.5684C32.5284 21.5478 32.4761 21.4246 32.4761 21.2818L32.4761 19.3422C32.4761 19.3033 32.4798 19.2653 32.4874 19.2294L33.209 13.8511C33.2219 13.7893 33.25 13.7508 33.2828 13.7508C33.3281 13.7508 33.3636 13.8229 33.3636 13.915L33.4321 21.2789C33.4321 21.3569 33.4173 21.4297 33.3901 21.4845C33.363 21.5388 33.3274 21.5684 33.29 21.5684Z" fill="#F4F4F4"/>
<path opacity="0.5" d="M33.29 21.5684C33.2832 21.5684 33.2762 21.5672 33.2693 21.5655L32.5977 21.5684C32.5284 21.5478 32.4761 21.4246 32.4761 21.2818L32.4761 19.3422C32.4761 19.3033 32.4798 19.2653 32.4874 19.2294L33.209 13.8511C33.2219 13.7893 33.25 13.7508 33.2828 13.7508C33.3281 13.7508 33.3636 13.8229 33.3636 13.915L33.4321 21.2789C33.4321 21.3569 33.4173 21.4297 33.3901 21.4845C33.363 21.5388 33.3274 21.5684 33.29 21.5684Z" fill="url(#paint21_linear_580_9248)"/>
<path d="M33.2584 13.8935L32.5367 19.2719C32.532 19.2942 32.5298 19.3181 32.5298 19.3424L32.5298 21.2818C32.5298 21.3718 32.5621 21.448 32.6059 21.4609L33.2774 21.458C33.3311 21.474 33.3792 21.3892 33.3792 21.2789L33.3107 13.915C33.3105 13.8547 33.27 13.8381 33.2584 13.8935Z" fill="black"/>
<path d="M33.2846 21.3506L32.6131 21.3535C32.5956 21.3485 32.5825 21.3177 32.5825 21.2818L32.5825 19.3422C32.5825 19.3325 32.5835 19.3232 32.5853 19.3143L33.2568 14.1773L33.3253 21.2789C33.3253 21.2984 33.3216 21.3167 33.3148 21.3304C33.308 21.344 33.2991 21.3514 33.2898 21.3514L33.2846 21.3506Z" fill="#676B86"/>
<path opacity="0.2" d="M33.0635 21.285L33.2846 21.3508L33.29 21.3516C33.2993 21.3516 33.3082 21.3441 33.315 21.3306C33.3218 21.3168 33.3255 21.2986 33.3255 21.279L33.257 14.1775L33.142 16.6314L33.0635 21.285Z" fill="black"/>
<path opacity="0.5" d="M33.2846 21.3506L32.6131 21.3535C32.5956 21.3485 32.5825 21.3177 32.5825 21.2818L32.5825 19.3422C32.5825 19.3325 32.5835 19.3232 32.5853 19.3143L33.2568 14.1773L33.3253 21.2789C33.3253 21.2984 33.3216 21.3167 33.3148 21.3304C33.308 21.344 33.2991 21.3514 33.2898 21.3514L33.2846 21.3506Z" fill="url(#paint22_linear_580_9248)"/>
<path opacity="0.3" d="M33.2846 21.3506L32.6131 21.3535C32.5956 21.3485 32.5825 21.3177 32.5825 21.2818L32.5825 19.3422C32.5825 19.3325 32.5835 19.3232 32.5853 19.3143L33.2568 14.1773L33.3253 21.2789C33.3253 21.2984 33.3216 21.3167 33.3148 21.3304C33.308 21.344 33.2991 21.3514 33.2898 21.3514L33.2846 21.3506Z" fill="url(#paint23_linear_580_9248)"/>
<path d="M18.6321 14.7025L17 15.3315L17 15.027C17 14.8837 17.0882 14.7551 17.222 14.7036L18.6321 14.16L18.6321 14.7025Z" fill="#999999"/>
<path opacity="0.4" d="M18.6321 14.7401L17 15.3691L17 15.0646C17 14.9213 17.0882 14.7927 17.222 14.741L18.6321 14.1974L18.6321 14.7401Z" fill="url(#paint24_linear_580_9248)"/>
<path d="M18.1646 15.129L17.1344 15.4646C17.068 15.4862 17 15.4368 17 15.367L17 14.9924L18.2357 14.59L18.2357 15.0313C18.2355 15.0757 18.2068 15.1152 18.1646 15.129Z" fill="#666666"/>
<path opacity="0.3" d="M18.1646 15.129L17.1344 15.4646C17.068 15.4862 17 15.4368 17 15.367L17 14.9924L18.2357 14.59L18.2357 15.0313C18.2355 15.0757 18.2068 15.1152 18.1646 15.129Z" fill="url(#paint25_linear_580_9248)"/>
<path d="M33.2979 14.7025L34.93 15.3315L34.93 15.027C34.93 14.8837 34.8418 14.7551 34.708 14.7036L33.2979 14.16L33.2979 14.7025Z" fill="#999999"/>
<path opacity="0.4" d="M33.2979 14.7401L34.93 15.3691L34.93 15.0646C34.93 14.9213 34.8418 14.7927 34.708 14.741L33.2979 14.1974L33.2979 14.7401Z" fill="url(#paint26_linear_580_9248)"/>
<path d="M33.7653 15.129L34.7954 15.4646C34.8618 15.4862 34.93 15.4368 34.93 15.367L34.93 14.9924L33.6943 14.59L33.6943 15.0313C33.6945 15.0757 33.7231 15.1152 33.7653 15.129Z" fill="#666666"/>
<path opacity="0.3" d="M33.7653 15.129L34.7954 15.4646C34.8618 15.4862 34.93 15.4368 34.93 15.367L34.93 14.9924L33.6943 14.59L33.6943 15.0313C33.6945 15.0757 33.7231 15.1152 33.7653 15.129Z" fill="url(#paint27_linear_580_9248)"/>
<path opacity="0.7" d="M30.0797 21.2661L21.3101 21.2661L21.6327 20.1879L30.4023 20.1879L30.0797 21.2661Z" fill="url(#paint28_linear_580_9248)"/>
<path d="M30.2364 21.0005L21.6372 21.0005C21.3762 21.0005 21.1646 20.7889 21.1646 20.5278L21.1646 20.0251C21.1646 19.764 21.3762 19.5524 21.6372 19.5524L30.2364 19.5524C30.4975 19.5524 30.7091 19.764 30.7091 20.0251L30.7091 20.5278C30.7091 20.7889 30.4975 21.0005 30.2364 21.0005Z" fill="#999999"/>
<path d="M30.2361 19.5525L26.998 19.5525L26.998 21.0005L30.2361 21.0005C30.4972 21.0005 30.7088 20.7889 30.7088 20.5278L30.7088 20.0251C30.7088 19.7642 30.4972 19.5525 30.2361 19.5525Z" fill="#5D94FF"/>
<path opacity="0.5" d="M27.3433 20.6558L27.3433 19.8968L30.2368 19.8968C30.3072 19.8968 30.3647 19.9543 30.3647 20.0251L30.3647 20.5275C30.3647 20.5982 30.3073 20.6558 30.2368 20.6558L27.3433 20.6558Z" fill="#5384E4"/>
<path d="M21.6372 19.5525L24.8753 19.5525L24.8753 21.0005L21.6372 21.0005C21.3762 21.0005 21.1646 20.7889 21.1646 20.5278L21.1646 20.0251C21.1646 19.7642 21.3762 19.5525 21.6372 19.5525Z" fill="#CC0000"/>
<path opacity="0.3" d="M21.6374 20.6558C21.5668 20.6558 21.5093 20.5982 21.5093 20.5275L21.5093 20.0251C21.5093 19.9543 21.5666 19.8968 21.6374 19.8968L24.5309 19.8968L24.5309 20.6558L21.6374 20.6558Z" fill="#660000"/>
<path opacity="0.5" d="M30.2364 21.0005L21.6372 21.0005C21.3762 21.0005 21.1646 20.7889 21.1646 20.5278L21.1646 20.0251C21.1646 19.764 21.3762 19.5524 21.6372 19.5524L30.2364 19.5524C30.4975 19.5524 30.7091 19.764 30.7091 20.0251L30.7091 20.5278C30.7091 20.7889 30.4975 21.0005 30.2364 21.0005Z" fill="url(#paint29_radial_580_9248)"/>
<path opacity="0.5" d="M30.2364 21.0005L21.6372 21.0005C21.3762 21.0005 21.1646 20.7889 21.1646 20.5278L21.1646 20.0251C21.1646 19.764 21.3762 19.5524 21.6372 19.5524L30.2364 19.5524C30.4975 19.5524 30.7091 19.764 30.7091 20.0251L30.7091 20.5278C30.7091 20.7889 30.4975 21.0005 30.2364 21.0005Z" fill="url(#paint30_linear_580_9248)"/>
<path d="M30.0629 19.6725L21.8109 19.6725C21.5603 19.6725 21.3574 19.8581 21.3574 20.087L21.3574 20.2759C21.3574 20.047 21.5605 19.8613 21.8109 19.8613L30.0629 19.8613C30.3133 19.8613 30.5164 20.047 30.5164 20.2759L30.5164 20.087C30.5164 19.8581 30.3133 19.6725 30.0629 19.6725Z" fill="url(#paint31_linear_580_9248)"/>
<path d="M30.0629 20.8799L21.8109 20.8799C21.5603 20.8799 21.3574 20.6943 21.3574 20.4653L21.3574 20.2765C21.3574 20.5054 21.5605 20.691 21.8109 20.691L30.0629 20.691C30.3133 20.691 30.5164 20.5054 30.5164 20.2765L30.5164 20.4653C30.5164 20.6944 30.3133 20.8799 30.0629 20.8799Z" fill="url(#paint32_linear_580_9248)"/>
<path opacity="0.4" d="M21.374 19.6332L21.4931 19.7751C21.5338 19.8234 21.559 19.916 21.5592 20.0164L21.5596 20.5361C21.5598 20.637 21.5344 20.73 21.4936 20.7785L21.374 20.9208C21.4067 20.9426 21.4428 20.9589 21.4805 20.9722L21.5613 20.876C21.6041 20.825 21.6307 20.7274 21.6306 20.6214L21.6301 19.9344C21.6299 19.8292 21.6036 19.7323 21.5611 19.6814L21.4785 19.5824C21.4417 19.5954 21.406 19.6116 21.374 19.6332Z" fill="white"/>
<path opacity="0.4" d="M30.4929 19.6332L30.3738 19.7751C30.3331 19.8234 30.3079 19.916 30.3077 20.0164L30.3072 20.5361C30.3072 20.637 30.3325 20.73 30.3733 20.7785L30.4929 20.9208C30.4602 20.9426 30.4241 20.9589 30.3864 20.9722L30.3056 20.876C30.2628 20.825 30.2362 20.7274 30.2363 20.6214L30.237 19.9344C30.237 19.8292 30.2635 19.7323 30.306 19.6814L30.3885 19.5824C30.4253 19.5954 30.4609 19.6116 30.4929 19.6332Z" fill="white"/>
<path opacity="0.4" d="M21.854 20.2419L21.854 20.3115L30.0199 20.3115L30.0199 20.2419L21.854 20.2419Z" fill="black"/>
<path d="M34.1392 45.9937L17.7356 45.9937C17.5393 45.9937 17.3804 45.8345 17.3804 45.6382L17.3804 22.2188C17.3804 22.0225 17.5395 21.8633 17.7356 21.8633L34.1392 21.8633C34.3355 21.8633 34.4946 22.0225 34.4946 22.2188L34.4946 45.6382C34.4946 45.8345 34.3355 45.9937 34.1392 45.9937Z" fill="#1DCA96"/>
<path d="M17.7355 45.7529C17.6725 45.7529 17.6211 45.7016 17.6211 45.6387L17.6211 22.2192C17.6211 22.1564 17.6725 22.105 17.7355 22.105L34.1389 22.105C34.2019 22.105 34.2531 22.1564 34.2531 22.2192L34.2531 45.6387C34.2531 45.7016 34.2017 45.7529 34.1389 45.7529L17.7355 45.7529Z" fill="#F5F7EA"/>
<path d="M17.7355 45.7529C17.6725 45.7529 17.6211 45.7016 17.6211 45.6387L17.6211 22.2192C17.6211 22.1564 17.6725 22.105 17.7355 22.105L34.1389 22.105C34.2019 22.105 34.2531 22.1564 34.2531 22.2192L34.2531 45.6387C34.2531 45.7016 34.2017 45.7529 34.1389 45.7529L17.7355 45.7529Z" fill="url(#paint33_radial_580_9248)"/>
<path opacity="0.2" d="M17.7355 45.7529C17.6725 45.7529 17.6211 45.7016 17.6211 45.6387L17.6211 22.2192C17.6211 22.1564 17.6725 22.105 17.7355 22.105L34.1389 22.105C34.2019 22.105 34.2531 22.1564 34.2531 22.2192L34.2531 45.6387C34.2531 45.7016 34.2017 45.7529 34.1389 45.7529L17.7355 45.7529Z" fill="#1DCA96"/>
<path d="M20.0071 46.115L20.0071 45.9936L18.3496 45.9936L18.3496 46.115C18.3496 46.251 18.4599 46.3613 18.5961 46.3613L19.7607 46.3613C19.8968 46.3613 20.0071 46.251 20.0071 46.115Z" fill="#1DCA96"/>
<path opacity="0.4" d="M19.8203 46.0349L18.5361 46.0349C18.5361 46.1922 18.6638 46.3198 18.8211 46.3198L19.5353 46.3198C19.6927 46.3198 19.8203 46.1922 19.8203 46.0349Z" fill="#660000"/>
<path d="M18.4512 46.0172L18.4591 46.0172C18.4909 46.162 18.6195 46.2704 18.7738 46.2704L19.5823 46.2704C19.7366 46.2704 19.8652 46.162 19.897 46.0172L19.9049 46.0172C19.9049 46.1954 19.7605 46.3398 19.5823 46.3398L18.7738 46.3398C18.5956 46.3398 18.4512 46.1954 18.4512 46.0172Z" fill="url(#paint34_linear_580_9248)"/>
<path opacity="0.6" d="M19.4584 46.1723C19.3048 46.1732 19.151 46.1742 18.9974 46.1753C18.9292 46.1758 18.8549 46.1821 18.7875 46.1687C18.7602 46.1632 18.7069 46.1526 18.7056 46.1165C18.7043 46.0812 18.7466 46.0757 18.7733 46.0755C18.8494 46.0755 19.7162 46.07 19.7162 46.0844C19.7159 46.1174 19.6896 46.1456 19.6591 46.1584C19.6285 46.1711 19.5946 46.1715 19.5616 46.1718C19.5272 46.1718 19.4928 46.1721 19.4584 46.1723Z" fill="url(#paint35_linear_580_9248)"/>
<path d="M33.1873 46.115L33.1873 45.9936L31.5298 45.9936L31.5298 46.115C31.5298 46.251 31.6401 46.3613 31.7762 46.3613L32.9407 46.3613C33.0768 46.3613 33.1873 46.251 33.1873 46.115Z" fill="#1DCA96"/>
<path opacity="0.4" d="M33.0003 46.0349L31.7163 46.0349C31.7163 46.1922 31.8439 46.3198 32.0013 46.3198L32.7155 46.3198C32.8727 46.3198 33.0003 46.1922 33.0003 46.0349Z" fill="#660000"/>
<path d="M31.6318 46.0163L31.6398 46.0163C31.6716 46.161 31.8002 46.2694 31.9544 46.2694L32.763 46.2694C32.9173 46.2694 33.0459 46.161 33.0777 46.0163L33.0856 46.0163C33.0856 46.1944 32.9412 46.3389 32.763 46.3389L31.9544 46.3389C31.7763 46.3389 31.6318 46.1944 31.6318 46.0163Z" fill="url(#paint36_linear_580_9248)"/>
<path opacity="0.6" d="M32.6386 46.1723C32.485 46.1732 32.3312 46.1742 32.1775 46.1753C32.1094 46.1758 32.035 46.1821 31.9677 46.1687C31.9404 46.1632 31.8871 46.1526 31.8858 46.1165C31.8845 46.0812 31.9268 46.0757 31.9535 46.0755C32.0295 46.0755 32.8964 46.07 32.8964 46.0844C32.8961 46.1174 32.8698 46.1456 32.8392 46.1584C32.8087 46.1711 32.7748 46.1715 32.7418 46.1718C32.7072 46.1718 32.6728 46.1721 32.6386 46.1723Z" fill="url(#paint37_linear_580_9248)"/>
<path d="M24.6458 30.6034L24.6458 32.6893C24.6458 32.7861 24.5674 32.8647 24.4706 32.8647L22.3846 32.8647C22.2878 32.8647 22.2095 32.9431 22.2095 33.0399L22.2095 34.8165C22.2095 34.9133 22.2878 34.992 22.3846 34.992L24.4706 34.992C24.5674 34.992 24.6458 35.0703 24.6458 35.1671L24.6458 37.2531C24.6458 37.3498 24.7242 37.4282 24.8213 37.4282L26.598 37.4282C26.6947 37.4282 26.7731 37.3498 26.7731 37.2531L26.7731 35.1671C26.7731 35.0703 26.8515 34.992 26.9486 34.992L29.0343 34.992C29.1311 34.992 29.2095 34.9136 29.2095 34.8165L29.2095 33.0399C29.2095 32.9431 29.1311 32.8647 29.0343 32.8647L26.9486 32.8647C26.8518 32.8647 26.7731 32.7864 26.7731 32.6893L26.7731 30.6034C26.7731 30.5066 26.6947 30.4282 26.598 30.4282L24.8213 30.4282C24.7242 30.4282 24.6458 30.5066 24.6458 30.6034Z" fill="#1DCA96"/>
<path d="M31.1228 45.9937L20.3818 45.9937L20.3818 46.3163L31.1228 46.3163L31.1228 45.9937Z" fill="#F5F7EA"/>
<path opacity="0.5" d="M31.1224 46.3164L20.3813 46.3164L20.3813 45.9938L31.1224 45.9938L31.1224 46.3164Z" fill="url(#paint38_linear_580_9248)"/>
<path opacity="0.5" d="M25.7946 45.9937L25.7095 45.9937L25.7095 46.3163L25.7946 46.3163L25.7946 45.9937Z" fill="#666666"/>
<path d="M25.4307 46.2043L20.6226 46.2043C20.5643 46.2043 20.5171 46.2515 20.5171 46.3098L20.5171 46.3159L25.5362 46.3159L25.5362 46.3098C25.5362 46.2515 25.4891 46.2043 25.4307 46.2043Z" fill="#AAD5F9"/>
<path d="M25.4307 46.2043L20.6226 46.2043C20.5643 46.2043 20.5171 46.2515 20.5171 46.3098L20.5171 46.3159L20.5311 46.3159C20.5491 46.2831 20.5825 46.26 20.6226 46.26L25.4307 46.26C25.4706 46.26 25.5042 46.2831 25.5222 46.3159L25.5362 46.3159L25.5362 46.3098C25.5362 46.2515 25.4891 46.2043 25.4307 46.2043Z" fill="white"/>
<path d="M30.8883 46.2048L26.0801 46.2048C26.0218 46.2048 25.9746 46.2519 25.9746 46.3103L25.9746 46.3164L30.9937 46.3164L30.9937 46.3103C30.9936 46.2519 30.9464 46.2048 30.8883 46.2048Z" fill="#AAD5F9"/>
<path d="M30.8883 46.2048L26.0801 46.2048C26.0218 46.2048 25.9746 46.2519 25.9746 46.3103L25.9746 46.3164L25.9887 46.3164C26.0066 46.2836 26.04 46.2605 26.0801 46.2605L30.8883 46.2605C30.9282 46.2605 30.9618 46.2836 30.9797 46.3164L30.9937 46.3164L30.9937 46.3103C30.9936 46.2519 30.9464 46.2048 30.8883 46.2048Z" fill="white"/>
<path d="M34.4939 22.105L34.4939 16.1953C34.4939 16.0209 34.4246 15.8537 34.3013 15.7302L33.7251 15.154L33.7251 22.105L34.4939 22.105Z" fill="#CCCCCC"/>
<path d="M34.3732 21.9839L33.8452 21.9839L33.8452 15.4444L34.2158 15.8148C34.3173 15.9163 34.3732 16.0511 34.3732 16.1946L34.3732 21.9839Z" fill="url(#paint39_linear_580_9248)"/>
<path opacity="0.5" d="M34.4939 22.105L34.4939 16.1953C34.4939 16.0209 34.4246 15.8537 34.3013 15.7302L33.7251 15.154L33.7251 22.105L34.4939 22.105Z" fill="url(#paint40_linear_580_9248)"/>
<path opacity="0.4" d="M34.4939 22.105L34.4939 16.1953C34.4939 16.0209 34.4246 15.8537 34.3013 15.7302L33.7251 15.154L33.7251 22.105L34.4939 22.105Z" fill="url(#paint41_linear_580_9248)"/>
<mask id="mask1_580_9248" style="mask-type:luminance" maskUnits="userSpaceOnUse" x="33" y="15" width="2" height="7">
<path d="M34.3732 21.9839L33.8452 21.9839L33.8452 15.4444L34.2158 15.8148C34.3173 15.9163 34.3732 16.0511 34.3732 16.1946L34.3732 21.9839Z" fill="white"/>
</mask>
<g mask="url(#mask1_580_9248)">
<path d="M33.9648 21.9326C34.0105 21.9071 34.0567 21.9025 34.0567 21.9025C34.0567 21.9025 34.0288 21.9395 33.983 21.9651C33.9373 21.9906 33.8911 21.9951 33.8911 21.9951C33.8911 21.9951 33.9191 21.9581 33.9648 21.9326Z" fill="#999999"/>
<path d="M34.3268 21.7236C34.3725 21.6981 34.4185 21.6936 34.4185 21.6936C34.4185 21.6936 34.3906 21.7306 34.3449 21.7561C34.2991 21.7816 34.2529 21.7861 34.2529 21.7861C34.2529 21.7861 34.281 21.7491 34.3268 21.7236Z" fill="#999999"/>
<path d="M34.1394 21.8529C34.1139 21.8072 34.1094 21.7612 34.1094 21.7612C34.1094 21.7612 34.1464 21.7891 34.1719 21.8348C34.1974 21.8806 34.2019 21.9268 34.2019 21.9268C34.2019 21.9268 34.1649 21.8986 34.1394 21.8529Z" fill="#999999"/>
<path d="M33.9124 21.7252C33.8868 21.6794 33.8823 21.6332 33.8823 21.6332C33.8823 21.6332 33.9193 21.6612 33.9448 21.7069C33.9704 21.7526 33.9749 21.7988 33.9749 21.7988C33.9749 21.7988 33.9379 21.7709 33.9124 21.7252Z" fill="#999999"/>
<path d="M34.274 21.517C34.2485 21.4713 34.2441 21.4252 34.2441 21.4252C34.2441 21.4252 34.2811 21.4532 34.3067 21.4989C34.3322 21.5446 34.3365 21.5908 34.3365 21.5908C34.3365 21.5908 34.2996 21.5627 34.274 21.517Z" fill="#999999"/>
<path d="M34.1198 21.6267C34.074 21.6522 34.0278 21.6567 34.0278 21.6567C34.0278 21.6567 34.0558 21.6197 34.1015 21.5942C34.1472 21.5687 34.1933 21.5642 34.1933 21.5642C34.1933 21.5642 34.1653 21.6012 34.1198 21.6267Z" fill="#999999"/>
<path d="M33.8412 21.4458C33.887 21.4203 33.9332 21.4159 33.9332 21.4159C33.9332 21.4159 33.9052 21.4529 33.8595 21.4784C33.8138 21.5039 33.7676 21.5083 33.7676 21.5083C33.7676 21.5083 33.7955 21.4713 33.8412 21.4458Z" fill="#999999"/>
<path d="M34.2031 21.2378C34.2488 21.2122 34.295 21.2079 34.295 21.2079C34.295 21.2079 34.267 21.2449 34.2213 21.2704C34.1756 21.2959 34.1294 21.3003 34.1294 21.3003C34.1294 21.3003 34.1573 21.2633 34.2031 21.2378Z" fill="#999999"/>
<path d="M34.0159 21.3655C33.9904 21.3197 33.9858 21.2735 33.9858 21.2735C33.9858 21.2735 34.0228 21.3015 34.0484 21.3472C34.0739 21.3929 34.0784 21.439 34.0784 21.439C34.0784 21.439 34.0414 21.4112 34.0159 21.3655Z" fill="#999999"/>
<path d="M33.7888 21.2383C33.7633 21.1926 33.7588 21.1464 33.7588 21.1464C33.7588 21.1464 33.7958 21.1744 33.8213 21.2201C33.8468 21.2658 33.8514 21.312 33.8514 21.312C33.8514 21.312 33.8144 21.2841 33.7888 21.2383Z" fill="#999999"/>
<path d="M34.1507 21.0305C34.1251 20.9848 34.1206 20.9386 34.1206 20.9386C34.1206 20.9386 34.1576 20.9665 34.1831 21.0122C34.2086 21.058 34.213 21.104 34.213 21.104C34.213 21.104 34.1762 21.0762 34.1507 21.0305Z" fill="#999999"/>
<path d="M33.9962 21.14C33.9505 21.1656 33.9043 21.1699 33.9043 21.1699C33.9043 21.1699 33.9322 21.1329 33.978 21.1074C34.0237 21.0819 34.0699 21.0775 34.0699 21.0775C34.0699 21.0775 34.0419 21.1145 33.9962 21.14Z" fill="#999999"/>
<path d="M34.3449 20.9548C34.2991 20.9803 34.2529 20.9849 34.2529 20.9849C34.2529 20.9849 34.2809 20.9479 34.3266 20.9223C34.3723 20.8968 34.4184 20.8923 34.4184 20.8923C34.4184 20.8923 34.3906 20.9293 34.3449 20.9548Z" fill="#999999"/>
<path d="M33.878 20.9135C33.8525 20.8678 33.8481 20.8217 33.8481 20.8217C33.8481 20.8217 33.8851 20.8497 33.9107 20.8954C33.9362 20.9411 33.9407 20.9873 33.9407 20.9873C33.9407 20.9873 33.9037 20.9592 33.878 20.9135Z" fill="#999999"/>
<path d="M34.2399 20.7056C34.2143 20.6599 34.21 20.6137 34.21 20.6137C34.21 20.6137 34.247 20.6417 34.2725 20.6874C34.298 20.7331 34.3024 20.7793 34.3024 20.7793C34.3024 20.7793 34.2654 20.7513 34.2399 20.7056Z" fill="#999999"/>
<path d="M34.0846 20.8158C34.0389 20.8413 33.9927 20.8457 33.9927 20.8457C33.9927 20.8457 34.0206 20.8087 34.0663 20.7832C34.1121 20.7577 34.1583 20.7533 34.1583 20.7533C34.1583 20.7533 34.1303 20.7903 34.0846 20.8158Z" fill="#999999"/>
<path d="M33.8077 20.6339C33.8534 20.6084 33.8995 20.6039 33.8995 20.6039C33.8995 20.6039 33.8715 20.6409 33.8258 20.6664C33.7801 20.6919 33.7339 20.6963 33.7339 20.6963C33.7339 20.6963 33.762 20.6595 33.8077 20.6339Z" fill="#999999"/>
<path d="M34.1695 20.4263C34.2152 20.4007 34.2613 20.3962 34.2613 20.3962C34.2613 20.3962 34.2333 20.4332 34.1876 20.4587C34.1419 20.4842 34.0957 20.4888 34.0957 20.4888C34.0957 20.4888 34.1238 20.4518 34.1695 20.4263Z" fill="#999999"/>
<path d="M33.9827 20.5543C33.9572 20.5085 33.9526 20.4623 33.9526 20.4623C33.9526 20.4623 33.9896 20.4903 34.0152 20.536C34.0407 20.5817 34.0452 20.6279 34.0452 20.6279C34.0452 20.6279 34.0082 20.6 33.9827 20.5543Z" fill="#999999"/>
<path d="M34.1168 20.2183C34.0913 20.1726 34.0869 20.1264 34.0869 20.1264C34.0869 20.1264 34.1239 20.1544 34.1494 20.2001C34.175 20.2458 34.1793 20.292 34.1793 20.292C34.1793 20.292 34.1425 20.264 34.1168 20.2183Z" fill="#999999"/>
<path d="M33.962 20.3279C33.9163 20.3534 33.8701 20.3579 33.8701 20.3579C33.8701 20.3579 33.8981 20.3209 33.9438 20.2954C33.9895 20.2699 34.0357 20.2653 34.0357 20.2653C34.0357 20.2653 34.0078 20.3023 33.962 20.3279Z" fill="#999999"/>
<path d="M34.3112 20.1428C34.2654 20.1683 34.2192 20.1729 34.2192 20.1729C34.2192 20.1729 34.2472 20.1359 34.2929 20.1103C34.3386 20.0848 34.3848 20.0804 34.3848 20.0804C34.3848 20.0804 34.3569 20.1173 34.3112 20.1428Z" fill="#999999"/>
<path d="M33.8775 20.0987C33.852 20.053 33.8477 20.0068 33.8477 20.0068C33.8477 20.0068 33.8846 20.0347 33.9102 20.0804C33.9357 20.1262 33.9402 20.1724 33.9402 20.1724C33.9402 20.1724 33.9032 20.1444 33.8775 20.0987Z" fill="#999999"/>
<path d="M34.2394 19.8905C34.2138 19.8448 34.2095 19.7988 34.2095 19.7988C34.2095 19.7988 34.2465 19.8267 34.272 19.8724C34.2975 19.9182 34.3019 19.9644 34.3019 19.9644C34.3019 19.9644 34.2649 19.9362 34.2394 19.8905Z" fill="#999999"/>
<path d="M34.0841 20.0004C34.0384 20.0259 33.9922 20.0303 33.9922 20.0303C33.9922 20.0303 34.0201 19.9933 34.0659 19.9678C34.1116 19.9422 34.1578 19.9379 34.1578 19.9379C34.1578 19.9379 34.1298 19.9749 34.0841 20.0004Z" fill="#999999"/>
<path d="M33.8072 19.8187C33.8529 19.7931 33.899 19.7888 33.899 19.7888C33.899 19.7888 33.871 19.8258 33.8253 19.8513C33.7796 19.8768 33.7334 19.8813 33.7334 19.8813C33.7334 19.8813 33.7615 19.8442 33.8072 19.8187Z" fill="#999999"/>
<path d="M34.1685 19.6108C34.2143 19.5853 34.2603 19.5808 34.2603 19.5808C34.2603 19.5808 34.2324 19.6178 34.1866 19.6433C34.1409 19.6688 34.0947 19.6733 34.0947 19.6733C34.0947 19.6733 34.1228 19.6363 34.1685 19.6108Z" fill="#999999"/>
<path d="M33.9817 19.7388C33.9562 19.6931 33.9517 19.6469 33.9517 19.6469C33.9517 19.6469 33.9887 19.6749 34.0142 19.7206C34.0397 19.7663 34.0442 19.8125 34.0442 19.8125C34.0442 19.8125 34.0072 19.7845 33.9817 19.7388Z" fill="#999999"/>
<path d="M34.1163 19.4031C34.0908 19.3573 34.0864 19.3111 34.0864 19.3111C34.0864 19.3111 34.1234 19.3391 34.1489 19.3848C34.1745 19.4305 34.1788 19.4766 34.1788 19.4766C34.1788 19.4766 34.142 19.4488 34.1163 19.4031Z" fill="#999999"/>
<path d="M33.962 19.5129C33.9163 19.5384 33.8701 19.543 33.8701 19.543C33.8701 19.543 33.8981 19.506 33.9438 19.4804C33.9895 19.4549 34.0357 19.4504 34.0357 19.4504C34.0357 19.4504 34.0078 19.4874 33.962 19.5129Z" fill="#999999"/>
<path d="M34.3107 19.3275C34.265 19.3531 34.2188 19.3574 34.2188 19.3574C34.2188 19.3574 34.2467 19.3204 34.2924 19.2949C34.3381 19.2694 34.3843 19.265 34.3843 19.265C34.3843 19.265 34.3564 19.302 34.3107 19.3275Z" fill="#999999"/>
<path d="M33.878 19.2844C33.8525 19.2387 33.8481 19.1925 33.8481 19.1925C33.8481 19.1925 33.8851 19.2204 33.9107 19.2662C33.9362 19.3119 33.9407 19.3579 33.9407 19.3579C33.9407 19.3579 33.9037 19.3301 33.878 19.2844Z" fill="#999999"/>
<path d="M34.2399 19.0762C34.2143 19.0305 34.21 18.9843 34.21 18.9843C34.21 18.9843 34.247 19.0123 34.2725 19.058C34.298 19.1037 34.3024 19.1499 34.3024 19.1499C34.3024 19.1499 34.2654 19.122 34.2399 19.0762Z" fill="#999999"/>
<path d="M34.0851 19.1858C34.0394 19.2113 33.9932 19.2158 33.9932 19.2158C33.9932 19.2158 34.0211 19.1788 34.0668 19.1533C34.1125 19.1278 34.1587 19.1234 34.1587 19.1234C34.1587 19.1234 34.1308 19.1602 34.0851 19.1858Z" fill="#999999"/>
<path d="M33.8077 19.0049C33.8534 18.9793 33.8995 18.975 33.8995 18.975C33.8995 18.975 33.8715 19.012 33.8258 19.0375C33.7801 19.063 33.7339 19.0674 33.7339 19.0674C33.7339 19.0674 33.762 19.0304 33.8077 19.0049Z" fill="#999999"/>
<path d="M34.1695 18.7967C34.2152 18.7712 34.2613 18.7668 34.2613 18.7668C34.2613 18.7668 34.2333 18.8038 34.1876 18.8293C34.1419 18.8549 34.0957 18.8594 34.0957 18.8594C34.0957 18.8594 34.1238 18.8222 34.1695 18.7967Z" fill="#999999"/>
<path d="M33.9827 18.9252C33.9572 18.8795 33.9526 18.8334 33.9526 18.8334C33.9526 18.8334 33.9896 18.8614 34.0152 18.9071C34.0407 18.9528 34.0452 18.999 34.0452 18.999C34.0452 18.999 34.0082 18.9709 33.9827 18.9252Z" fill="#999999"/>
<path d="M34.1163 18.5884C34.0908 18.5427 34.0864 18.4965 34.0864 18.4965C34.0864 18.4965 34.1234 18.5245 34.1489 18.5702C34.1745 18.6159 34.1788 18.6621 34.1788 18.6621C34.1788 18.6621 34.142 18.6342 34.1163 18.5884Z" fill="#999999"/>
<path d="M33.962 18.6985C33.9163 18.724 33.8701 18.7285 33.8701 18.7285C33.8701 18.7285 33.8981 18.6915 33.9438 18.666C33.9895 18.6405 34.0357 18.6359 34.0357 18.6359C34.0357 18.6359 34.0078 18.6729 33.962 18.6985Z" fill="#999999"/>
<path d="M34.3107 18.5131C34.265 18.5386 34.2188 18.543 34.2188 18.543C34.2188 18.543 34.2467 18.506 34.2924 18.4805C34.3381 18.4549 34.3843 18.4506 34.3843 18.4506C34.3843 18.4506 34.3564 18.4874 34.3107 18.5131Z" fill="#999999"/>
<path d="M33.8775 18.4698C33.852 18.4241 33.8477 18.3779 33.8477 18.3779C33.8477 18.3779 33.8846 18.4058 33.9102 18.4515C33.9357 18.4973 33.9402 18.5435 33.9402 18.5435C33.9402 18.5435 33.9032 18.5155 33.8775 18.4698Z" fill="#999999"/>
<path d="M34.2394 18.2619C34.2138 18.2162 34.2095 18.17 34.2095 18.17C34.2095 18.17 34.2465 18.198 34.272 18.2437C34.2975 18.2894 34.3019 18.3354 34.3019 18.3354C34.3019 18.3354 34.2649 18.3077 34.2394 18.2619Z" fill="#999999"/>
<path d="M34.0841 18.3718C34.0384 18.3973 33.9922 18.4019 33.9922 18.4019C33.9922 18.4019 34.0201 18.3649 34.0659 18.3393C34.1116 18.3138 34.1578 18.3095 34.1578 18.3095C34.1578 18.3095 34.1298 18.3463 34.0841 18.3718Z" fill="#999999"/>
<path d="M33.8072 18.1904C33.8529 18.1649 33.899 18.1605 33.899 18.1605C33.899 18.1605 33.871 18.1975 33.8253 18.223C33.7796 18.2486 33.7334 18.2529 33.7334 18.2529C33.7334 18.2529 33.7615 18.2159 33.8072 18.1904Z" fill="#999999"/>
<path d="M34.169 17.9829C34.2148 17.9574 34.2608 17.953 34.2608 17.953C34.2608 17.953 34.2329 17.99 34.1871 18.0155C34.1414 18.041 34.0952 18.0454 34.0952 18.0454C34.0952 18.0454 34.1233 18.0084 34.169 17.9829Z" fill="#999999"/>
<path d="M33.9822 18.1104C33.9567 18.0647 33.9521 18.0185 33.9521 18.0185C33.9521 18.0185 33.9891 18.0464 34.0147 18.0922C34.0402 18.1379 34.0447 18.1841 34.0447 18.1841C34.0447 18.1841 34.0077 18.1561 33.9822 18.1104Z" fill="#999999"/>
<path d="M34.1163 17.775C34.0908 17.7292 34.0864 17.683 34.0864 17.683C34.0864 17.683 34.1234 17.711 34.1489 17.7567C34.1745 17.8024 34.1788 17.8486 34.1788 17.8486C34.1788 17.8486 34.142 17.8207 34.1163 17.775Z" fill="#999999"/>
<path d="M33.962 17.8861C33.9163 17.9117 33.8701 17.916 33.8701 17.916C33.8701 17.916 33.8981 17.879 33.9438 17.8535C33.9895 17.828 34.0357 17.8236 34.0357 17.8236C34.0357 17.8236 34.0078 17.8606 33.962 17.8861Z" fill="#999999"/>
<path d="M34.3107 17.6996C34.265 17.7251 34.2188 17.7295 34.2188 17.7295C34.2188 17.7295 34.2467 17.6925 34.2924 17.667C34.3381 17.6414 34.3843 17.6371 34.3843 17.6371C34.3843 17.6371 34.3564 17.6739 34.3107 17.6996Z" fill="#999999"/>
<path d="M33.878 17.6553C33.8525 17.6096 33.8481 17.5634 33.8481 17.5634C33.8481 17.5634 33.8851 17.5914 33.9107 17.6371C33.9362 17.6828 33.9407 17.729 33.9407 17.729C33.9407 17.729 33.9037 17.7011 33.878 17.6553Z" fill="#999999"/>
<path d="M34.2399 17.4473C34.2143 17.4016 34.21 17.3554 34.21 17.3554C34.21 17.3554 34.247 17.3834 34.2725 17.4291C34.298 17.4748 34.3024 17.521 34.3024 17.521C34.3024 17.521 34.2654 17.493 34.2399 17.4473Z" fill="#999999"/>
<path d="M34.0846 17.5569C34.0389 17.5824 33.9927 17.5869 33.9927 17.5869C33.9927 17.5869 34.0206 17.5499 34.0663 17.5244C34.1121 17.4989 34.1583 17.4943 34.1583 17.4943C34.1583 17.4943 34.1303 17.5313 34.0846 17.5569Z" fill="#999999"/>
<path d="M33.8077 17.3761C33.8534 17.3506 33.8995 17.3461 33.8995 17.3461C33.8995 17.3461 33.8715 17.3831 33.8258 17.4086C33.7801 17.4341 33.7339 17.4385 33.7339 17.4385C33.7339 17.4385 33.762 17.4016 33.8077 17.3761Z" fill="#999999"/>
<path d="M34.1695 17.1684C34.2152 17.1429 34.2613 17.1385 34.2613 17.1385C34.2613 17.1385 34.2333 17.1755 34.1876 17.2011C34.1419 17.2266 34.0957 17.231 34.0957 17.231C34.0957 17.231 34.1238 17.194 34.1695 17.1684Z" fill="#999999"/>
<path d="M33.9827 17.2961C33.9572 17.2504 33.9526 17.2042 33.9526 17.2042C33.9526 17.2042 33.9896 17.2322 34.0152 17.2779C34.0407 17.3236 34.0452 17.3696 34.0452 17.3696C34.0452 17.3696 34.0082 17.3418 33.9827 17.2961Z" fill="#999999"/>
<path d="M34.1163 16.9595C34.0908 16.9138 34.0864 16.8676 34.0864 16.8676C34.0864 16.8676 34.1234 16.8956 34.1489 16.9413C34.1745 16.987 34.1788 17.0332 34.1788 17.0332C34.1788 17.0332 34.142 17.0053 34.1163 16.9595Z" fill="#999999"/>
<path d="M33.9625 17.0702C33.9168 17.0957 33.8706 17.1001 33.8706 17.1001C33.8706 17.1001 33.8986 17.0631 33.9443 17.0376C33.99 17.0121 34.0362 17.0075 34.0362 17.0075C34.0362 17.0075 34.0082 17.0447 33.9625 17.0702Z" fill="#999999"/>
<path d="M34.3107 16.884C34.265 16.9095 34.2188 16.9141 34.2188 16.9141C34.2188 16.9141 34.2467 16.8771 34.2924 16.8515C34.3381 16.826 34.3843 16.8215 34.3843 16.8215C34.3843 16.8215 34.3564 16.8585 34.3107 16.884Z" fill="#999999"/>
<path d="M33.8775 16.8412C33.852 16.7955 33.8477 16.7495 33.8477 16.7495C33.8477 16.7495 33.8846 16.7774 33.9102 16.8231C33.9357 16.8688 33.9402 16.915 33.9402 16.915C33.9402 16.915 33.9032 16.8869 33.8775 16.8412Z" fill="#999999"/>
<path d="M34.2394 16.6334C34.2138 16.5876 34.2095 16.5414 34.2095 16.5414C34.2095 16.5414 34.2465 16.5694 34.272 16.6151C34.2975 16.6608 34.3019 16.707 34.3019 16.707C34.3019 16.707 34.2649 16.6789 34.2394 16.6334Z" fill="#999999"/>
<path d="M34.0841 16.7434C34.0384 16.7689 33.9922 16.7734 33.9922 16.7734C33.9922 16.7734 34.0201 16.7364 34.0659 16.7109C34.1116 16.6854 34.1578 16.681 34.1578 16.681C34.1578 16.681 34.1298 16.7179 34.0841 16.7434Z" fill="#999999"/>
<path d="M33.8072 16.5618C33.8529 16.5363 33.899 16.5319 33.899 16.5319C33.899 16.5319 33.871 16.5689 33.8253 16.5945C33.7796 16.62 33.7334 16.6245 33.7334 16.6245C33.7334 16.6245 33.7615 16.5874 33.8072 16.5618Z" fill="#999999"/>
<path d="M34.169 16.3541C34.2148 16.3286 34.2608 16.3241 34.2608 16.3241C34.2608 16.3241 34.2329 16.3611 34.1871 16.3866C34.1414 16.4121 34.0952 16.4165 34.0952 16.4165C34.0952 16.4165 34.1233 16.3797 34.169 16.3541Z" fill="#999999"/>
<path d="M33.9822 16.4823C33.9567 16.4366 33.9521 16.3906 33.9521 16.3906C33.9521 16.3906 33.9891 16.4185 34.0147 16.4642C34.0402 16.5099 34.0447 16.5562 34.0447 16.5562C34.0447 16.5562 34.0077 16.528 33.9822 16.4823Z" fill="#999999"/>
<path d="M34.1163 16.1459C34.0908 16.1002 34.0864 16.0541 34.0864 16.0541C34.0864 16.0541 34.1234 16.0821 34.1489 16.1278C34.1745 16.1735 34.1788 16.2197 34.1788 16.2197C34.1788 16.2197 34.142 16.1916 34.1163 16.1459Z" fill="#999999"/>
<path d="M33.962 16.2562C33.9163 16.2818 33.8701 16.2861 33.8701 16.2861C33.8701 16.2861 33.8981 16.2491 33.9438 16.2236C33.9895 16.1981 34.0357 16.1937 34.0357 16.1937C34.0357 16.1937 34.0078 16.2307 33.962 16.2562Z" fill="#999999"/>
<path d="M34.3107 16.0705C34.265 16.0961 34.2188 16.1006 34.2188 16.1006C34.2188 16.1006 34.2467 16.0636 34.2924 16.0381C34.3381 16.0125 34.3843 16.008 34.3843 16.008C34.3843 16.008 34.3564 16.045 34.3107 16.0705Z" fill="#999999"/>
<path d="M33.878 16.0264C33.8525 15.9807 33.8481 15.9345 33.8481 15.9345C33.8481 15.9345 33.8851 15.9625 33.9107 16.0082C33.9362 16.0539 33.9407 16.1001 33.9407 16.1001C33.9407 16.1001 33.9037 16.0722 33.878 16.0264Z" fill="#999999"/>
<path d="M34.2399 15.8184C34.2143 15.7727 34.21 15.7265 34.21 15.7265C34.21 15.7265 34.247 15.7544 34.2725 15.8002C34.298 15.8459 34.3024 15.8921 34.3024 15.8921C34.3024 15.8921 34.2654 15.864 34.2399 15.8184Z" fill="#999999"/>
<path d="M34.0846 15.9281C34.0389 15.9536 33.9927 15.958 33.9927 15.958C33.9927 15.958 34.0206 15.921 34.0663 15.8955C34.1121 15.87 34.1583 15.8654 34.1583 15.8654C34.1583 15.8654 34.1303 15.9026 34.0846 15.9281Z" fill="#999999"/>
<path d="M33.8077 15.7466C33.8534 15.721 33.8995 15.7165 33.8995 15.7165C33.8995 15.7165 33.8715 15.7535 33.8258 15.779C33.7801 15.8046 33.7339 15.8091 33.7339 15.8091C33.7339 15.8091 33.762 15.7721 33.8077 15.7466Z" fill="#999999"/>
<path d="M34.169 15.539C34.2148 15.5135 34.2608 15.509 34.2608 15.509C34.2608 15.509 34.2329 15.546 34.1871 15.5715C34.1414 15.597 34.0952 15.6016 34.0952 15.6016C34.0952 15.6016 34.1233 15.5646 34.169 15.539Z" fill="#999999"/>
<path d="M33.9827 15.6666C33.9572 15.6209 33.9526 15.5746 33.9526 15.5746C33.9526 15.5746 33.9896 15.6026 34.0152 15.6483C34.0407 15.694 34.0452 15.7402 34.0452 15.7402C34.0452 15.7402 34.0082 15.7123 33.9827 15.6666Z" fill="#999999"/>
<path d="M33.962 15.4407C33.9163 15.4662 33.8701 15.4707 33.8701 15.4707C33.8701 15.4707 33.8981 15.4337 33.9438 15.4082C33.9895 15.3827 34.0357 15.3781 34.0357 15.3781C34.0357 15.3781 34.0078 15.4151 33.962 15.4407Z" fill="#999999"/>
</g>
<defs>
<linearGradient id="paint0_linear_580_9248" x1="17.7383" y1="23.1565" x2="18.0598" y2="6.12891" gradientUnits="userSpaceOnUse">
<stop stop-color="#C7C5C5"/>
<stop offset="0.0359" stop-color="#676767"/>
<stop offset="0.1123" stop-color="white"/>
<stop offset="0.3019" stop-color="#929292"/>
<stop offset="0.492" stop-color="white"/>
<stop offset="0.6257" stop-color="#676767"/>
<stop offset="0.7701" stop-color="#929292"/>
<stop offset="0.8233" stop-color="#C7C5C5"/>
<stop offset="1" stop-color="#343433"/>
</linearGradient>
<linearGradient id="paint1_linear_580_9248" x1="18.1954" y1="18.6295" x2="18.0448" y2="18.6295" gradientUnits="userSpaceOnUse">
<stop offset="0.0051"/>
<stop offset="1" stop-opacity="0"/>
</linearGradient>
<linearGradient id="paint2_linear_580_9248" x1="17.8152" y1="22.105" x2="17.8152" y2="21.5758" gradientUnits="userSpaceOnUse">
<stop offset="0.0051"/>
<stop offset="1" stop-opacity="0"/>
</linearGradient>
<linearGradient id="paint3_linear_580_9248" x1="20.1179" y1="6.76982" x2="20.6333" y2="6.74709" gradientUnits="userSpaceOnUse">
<stop stop-color="#C7C5C5"/>
<stop offset="0.0359" stop-color="#676767"/>
<stop offset="0.1123" stop-color="white"/>
<stop offset="0.3019" stop-color="#929292"/>
<stop offset="0.492" stop-color="white"/>
<stop offset="0.6809" stop-color="#676767"/>
<stop offset="0.7701" stop-color="#929292"/>
<stop offset="0.8233" stop-color="#C7C5C5"/>
<stop offset="1" stop-color="#343433"/>
</linearGradient>
<linearGradient id="paint4_linear_580_9248" x1="21.494" y1="6.76974" x2="20.9817" y2="6.74716" gradientUnits="userSpaceOnUse">
<stop stop-color="#C7C5C5"/>
<stop offset="0.0359" stop-color="#676767"/>
<stop offset="0.1123" stop-color="white"/>
<stop offset="0.3019" stop-color="#929292"/>
<stop offset="0.492" stop-color="white"/>
<stop offset="0.6809" stop-color="#676767"/>
<stop offset="0.7701" stop-color="#929292"/>
<stop offset="0.8233" stop-color="#C7C5C5"/>
<stop offset="1" stop-color="#343433"/>
</linearGradient>
<linearGradient id="paint5_linear_580_9248" x1="20.0075" y1="6.91089" x2="22.4995" y2="6.91089" gradientUnits="userSpaceOnUse">
<stop stop-color="#C7C5C5"/>
<stop offset="0.0359" stop-color="#676767"/>
<stop offset="0.1123" stop-color="white"/>
<stop offset="0.3019" stop-color="#929292"/>
<stop offset="0.492" stop-color="white"/>
<stop offset="0.6257" stop-color="#676767"/>
<stop offset="0.7701" stop-color="#929292"/>
<stop offset="0.8233" stop-color="#C7C5C5"/>
<stop offset="1" stop-color="#343433"/>
</linearGradient>
<linearGradient id="paint6_linear_580_9248" x1="30.3772" y1="6.76982" x2="30.8926" y2="6.74709" gradientUnits="userSpaceOnUse">
<stop stop-color="#C7C5C5"/>
<stop offset="0.0359" stop-color="#676767"/>
<stop offset="0.1123" stop-color="white"/>
<stop offset="0.3019" stop-color="#929292"/>
<stop offset="0.492" stop-color="white"/>
<stop offset="0.6809" stop-color="#676767"/>
<stop offset="0.7701" stop-color="#929292"/>
<stop offset="0.8233" stop-color="#C7C5C5"/>
<stop offset="1" stop-color="#343433"/>
</linearGradient>
<linearGradient id="paint7_linear_580_9248" x1="31.7533" y1="6.76974" x2="31.241" y2="6.74716" gradientUnits="userSpaceOnUse">
<stop stop-color="#C7C5C5"/>
<stop offset="0.0359" stop-color="#676767"/>
<stop offset="0.1123" stop-color="white"/>
<stop offset="0.3019" stop-color="#929292"/>
<stop offset="0.492" stop-color="white"/>
<stop offset="0.6809" stop-color="#676767"/>
<stop offset="0.7701" stop-color="#929292"/>
<stop offset="0.8233" stop-color="#C7C5C5"/>
<stop offset="1" stop-color="#343433"/>
</linearGradient>
<linearGradient id="paint8_linear_580_9248" x1="30.2668" y1="6.91089" x2="32.7589" y2="6.91089" gradientUnits="userSpaceOnUse">
<stop stop-color="#C7C5C5"/>
<stop offset="0.0359" stop-color="#676767"/>
<stop offset="0.1123" stop-color="white"/>
<stop offset="0.3019" stop-color="#929292"/>
<stop offset="0.492" stop-color="white"/>
<stop offset="0.6257" stop-color="#676767"/>
<stop offset="0.7701" stop-color="#929292"/>
<stop offset="0.8233" stop-color="#C7C5C5"/>
<stop offset="1" stop-color="#343433"/>
</linearGradient>
<linearGradient id="paint9_linear_580_9248" x1="17.2491" y1="8.01325" x2="42.2631" y2="8.1338" gradientUnits="userSpaceOnUse">
<stop stop-color="#C7C5C5"/>
<stop offset="0.0359" stop-color="#676767"/>
<stop offset="0.1123" stop-color="white"/>
<stop offset="0.3019" stop-color="#929292"/>
<stop offset="0.492" stop-color="white"/>
<stop offset="0.6257" stop-color="#676767"/>
<stop offset="0.7701" stop-color="#929292"/>
<stop offset="0.8233" stop-color="#C7C5C5"/>
<stop offset="1" stop-color="#343433"/>
</linearGradient>
<linearGradient id="paint10_linear_580_9248" x1="17.2491" y1="8.01325" x2="42.2631" y2="8.1338" gradientUnits="userSpaceOnUse">
<stop stop-color="#C7C5C5"/>
<stop offset="0.0359" stop-color="#676767"/>
<stop offset="0.1123" stop-color="white"/>
<stop offset="0.3019" stop-color="#929292"/>
<stop offset="0.492" stop-color="white"/>
<stop offset="0.6257" stop-color="#676767"/>
<stop offset="0.7701" stop-color="#929292"/>
<stop offset="0.8233" stop-color="#C7C5C5"/>
<stop offset="1" stop-color="#343433"/>
</linearGradient>
<radialGradient id="paint11_radial_580_9248" cx="0" cy="0" r="1" gradientUnits="userSpaceOnUse" gradientTransform="translate(16.2621 14.1886) scale(18.0444 18.0446)">
<stop offset="0.0102"/>
<stop offset="1" stop-opacity="0"/>
</radialGradient>
<linearGradient id="paint12_linear_580_9248" x1="18.6313" y1="14.7241" x2="33.2426" y2="14.7241" gradientUnits="userSpaceOnUse">
<stop offset="0.3386" stop-color="white" stop-opacity="0"/>
<stop offset="0.6521" stop-color="white"/>
</linearGradient>
<linearGradient id="paint13_linear_580_9248" x1="22.1301" y1="12.7678" x2="21.6314" y2="12.7305" gradientUnits="userSpaceOnUse">
<stop offset="0.0051"/>
<stop offset="1" stop-opacity="0"/>
</linearGradient>
<linearGradient id="paint14_linear_580_9248" x1="29.737" y1="12.7678" x2="30.2357" y2="12.7305" gradientUnits="userSpaceOnUse">
<stop offset="0.0051" stop-color="#999999"/>
<stop offset="1" stop-color="#999999" stop-opacity="0"/>
</linearGradient>
<linearGradient id="paint15_linear_580_9248" x1="25.9375" y1="12.4024" x2="25.9375" y2="12.8325" gradientUnits="userSpaceOnUse">
<stop offset="0.0051"/>
<stop offset="1" stop-opacity="0"/>
</linearGradient>
<radialGradient id="paint16_radial_580_9248" cx="0" cy="0" r="1" gradientUnits="userSpaceOnUse" gradientTransform="translate(19.1059 15.381) scale(11.9321 11.9322)">
<stop stop-color="white" stop-opacity="0"/>
<stop offset="1" stop-color="white"/>
</radialGradient>
<radialGradient id="paint17_radial_580_9248" cx="0" cy="0" r="1" gradientUnits="userSpaceOnUse" gradientTransform="translate(20.4782 16.0619) scale(11.4863 11.4864)">
<stop offset="0.0102"/>
<stop offset="1" stop-opacity="0"/>
</radialGradient>
<linearGradient id="paint18_linear_580_9248" x1="18.4758" y1="17.6606" x2="18.5343" y2="17.6606" gradientUnits="userSpaceOnUse">
<stop offset="0.0051"/>
<stop offset="1" stop-opacity="0"/>
</linearGradient>
<linearGradient id="paint19_linear_580_9248" x1="18.5933" y1="17.7665" x2="18.8343" y2="17.7665" gradientUnits="userSpaceOnUse">
<stop stop-color="white"/>
<stop offset="1" stop-color="white" stop-opacity="0"/>
</linearGradient>
<linearGradient id="paint20_linear_580_9248" x1="18.9949" y1="17.7665" x2="19.3202" y2="17.7665" gradientUnits="userSpaceOnUse">
<stop stop-opacity="0"/>
<stop offset="0.9898"/>
</linearGradient>
<linearGradient id="paint21_linear_580_9248" x1="33.4391" y1="17.6596" x2="33.3806" y2="17.6596" gradientUnits="userSpaceOnUse">
<stop offset="0.0051"/>
<stop offset="1" stop-opacity="0"/>
</linearGradient>
<linearGradient id="paint22_linear_580_9248" x1="33.3215" y1="17.7656" x2="33.0806" y2="17.7656" gradientUnits="userSpaceOnUse">
<stop stop-color="white"/>
<stop offset="1" stop-color="white" stop-opacity="0"/>
</linearGradient>
<linearGradient id="paint23_linear_580_9248" x1="32.92" y1="17.7656" x2="32.5946" y2="17.7656" gradientUnits="userSpaceOnUse">
<stop stop-opacity="0"/>
<stop offset="0.9898"/>
</linearGradient>
<linearGradient id="paint24_linear_580_9248" x1="17.7288" y1="14.5436" x2="17.774" y2="14.6679" gradientUnits="userSpaceOnUse">
<stop stop-color="white"/>
<stop offset="1" stop-color="white" stop-opacity="0"/>
</linearGradient>
<linearGradient id="paint25_linear_580_9248" x1="18.1828" y1="14.7252" x2="17.3691" y2="15.181" gradientUnits="userSpaceOnUse">
<stop offset="0.0051"/>
<stop offset="1" stop-opacity="0"/>
</linearGradient>
<linearGradient id="paint26_linear_580_9248" x1="34.201" y1="14.5436" x2="34.1558" y2="14.6679" gradientUnits="userSpaceOnUse">
<stop stop-color="white"/>
<stop offset="1" stop-color="white" stop-opacity="0"/>
</linearGradient>
<linearGradient id="paint27_linear_580_9248" x1="33.747" y1="14.7252" x2="34.5608" y2="15.181" gradientUnits="userSpaceOnUse">
<stop offset="0.0051"/>
<stop offset="1" stop-opacity="0"/>
</linearGradient>
<linearGradient id="paint28_linear_580_9248" x1="25.8562" y1="21.2695" x2="25.8562" y2="20.8923" gradientUnits="userSpaceOnUse">
<stop stop-opacity="0"/>
<stop offset="0.9898"/>
</linearGradient>
<radialGradient id="paint29_radial_580_9248" cx="0" cy="0" r="1" gradientUnits="userSpaceOnUse" gradientTransform="translate(25.9369 20.2765) scale(3.41311 3.41313)">
<stop stop-color="white" stop-opacity="0"/>
<stop offset="1" stop-color="white"/>
</radialGradient>
<linearGradient id="paint30_linear_580_9248" x1="25.9369" y1="20.6825" x2="25.9369" y2="20.9917" gradientUnits="userSpaceOnUse">
<stop stop-opacity="0"/>
<stop offset="0.9898"/>
</linearGradient>
<linearGradient id="paint31_linear_580_9248" x1="21.3574" y1="19.9742" x2="30.5164" y2="19.9742" gradientUnits="userSpaceOnUse">
<stop stop-color="white" stop-opacity="0"/>
<stop offset="1" stop-color="white"/>
</linearGradient>
<linearGradient id="paint32_linear_580_9248" x1="27.4508" y1="20.5782" x2="21.829" y2="20.5782" gradientUnits="userSpaceOnUse">
<stop stop-color="white" stop-opacity="0"/>
<stop offset="1" stop-color="white"/>
</linearGradient>
<radialGradient id="paint33_radial_580_9248" cx="0" cy="0" r="1" gradientUnits="userSpaceOnUse" gradientTransform="translate(33.7822 23.7124) scale(21.8 21.8002)">
<stop stop-color="white" stop-opacity="0"/>
<stop offset="1" stop-color="white"/>
</radialGradient>
<linearGradient id="paint34_linear_580_9248" x1="19.9924" y1="46.0343" x2="18.0787" y2="46.3206" gradientUnits="userSpaceOnUse">
<stop stop-color="white" stop-opacity="0"/>
<stop offset="1" stop-color="white"/>
</linearGradient>
<linearGradient id="paint35_linear_580_9248" x1="19.2109" y1="46.0744" x2="19.2109" y2="46.1771" gradientUnits="userSpaceOnUse">
<stop stop-color="white" stop-opacity="0"/>
<stop offset="1" stop-color="white"/>
</linearGradient>
<linearGradient id="paint36_linear_580_9248" x1="33.173" y1="46.0333" x2="31.2593" y2="46.3196" gradientUnits="userSpaceOnUse">
<stop stop-color="white" stop-opacity="0"/>
<stop offset="1" stop-color="white"/>
</linearGradient>
<linearGradient id="paint37_linear_580_9248" x1="32.391" y1="46.0744" x2="32.391" y2="46.1771" gradientUnits="userSpaceOnUse">
<stop stop-color="white" stop-opacity="0"/>
<stop offset="1" stop-color="white"/>
</linearGradient>
<linearGradient id="paint38_linear_580_9248" x1="25.7519" y1="46.1344" x2="25.7519" y2="45.9936" gradientUnits="userSpaceOnUse">
<stop stop-opacity="0"/>
<stop offset="0.9898"/>
</linearGradient>
<linearGradient id="paint39_linear_580_9248" x1="34.1861" y1="23.1565" x2="33.8646" y2="6.12891" gradientUnits="userSpaceOnUse">
<stop stop-color="#C7C5C5"/>
<stop offset="0.0359" stop-color="#676767"/>
<stop offset="0.1123" stop-color="white"/>
<stop offset="0.3019" stop-color="#929292"/>
<stop offset="0.492" stop-color="white"/>
<stop offset="0.6257" stop-color="#676767"/>
<stop offset="0.7701" stop-color="#929292"/>
<stop offset="0.8233" stop-color="#C7C5C5"/>
<stop offset="1" stop-color="#343433"/>
</linearGradient>
<linearGradient id="paint40_linear_580_9248" x1="33.7292" y1="18.6295" x2="33.8799" y2="18.6295" gradientUnits="userSpaceOnUse">
<stop offset="0.0051"/>
<stop offset="1" stop-opacity="0"/>
</linearGradient>
<linearGradient id="paint41_linear_580_9248" x1="34.1094" y1="22.105" x2="34.1094" y2="21.5758" gradientUnits="userSpaceOnUse">
<stop offset="0.0051"/>
<stop offset="1" stop-opacity="0"/>
</linearGradient>
</defs>
</svg>
